/* XPM */
static char *result[] = {
/* columns rows colors chars-per-pixel */
"64 64 205 2 ",
"   c #151C1C",
".  c #1B1D1D",
"X  c #241F1E",
"o  c #1E211D",
"O  c #26231E",
"+  c #1D1F21",
"@  c #271F22",
"#  c #1D2527",
"$  c #292224",
"%  c #23262A",
"&  c #25282D",
"*  c #392A26",
"=  c #33242B",
"-  c #3C3224",
";  c #212F31",
":  c #2B2B32",
">  c #312E36",
",  c #2C3232",
"<  c #34313B",
"1  c #462529",
"2  c #4B3726",
"3  c #533E27",
"4  c #442932",
"5  c #4B2B34",
"6  c #592B35",
"7  c #542D39",
"8  c #453D33",
"9  c #593835",
"0  c #5C313F",
"q  c #652831",
"w  c #7C2B36",
"e  c #60323E",
"r  c #55412A",
"t  c #5B442B",
"y  c #544530",
"u  c #674A2E",
"i  c #6F502F",
"p  c #6B4A37",
"a  c #6C5335",
"s  c #7E5934",
"d  c #765838",
"f  c #2B3F44",
"g  c #3B3643",
"h  c #4A3846",
"j  c #563747",
"k  c #653242",
"l  c #6B3445",
"z  c #6A3B4E",
"x  c #733749",
"c  c #743649",
"v  c #7B384D",
"b  c #7E3C52",
"n  c #48484A",
"m  c #4F554D",
"M  c #6A5947",
"N  c #54625F",
"B  c #7B6844",
"V  c #6D5B69",
"C  c #466873",
"Z  c #4B717D",
"A  c #54747C",
"S  c #6F6E6C",
"D  c #872C37",
"F  c #952F3A",
"G  c #8A3638",
"H  c #98323D",
"J  c #895D37",
"K  c #AF5433",
"L  c #8A6137",
"P  c #8D6339",
"I  c #93663A",
"U  c #99683C",
"Y  c #9D6C3D",
"T  c #A16F3E",
"R  c #A5723E",
"E  c #CC4A36",
"W  c #DC683D",
"Q  c #E46D3A",
"!  c #873749",
"~  c #9B3A4D",
"^  c #843B51",
"/  c #8F3E56",
"(  c #943E55",
")  c #9A3D55",
"_  c #A53849",
"`  c #BA3343",
"'  c #B73848",
"]  c #A33D53",
"[  c #AC3C53",
"{  c #B33C52",
"}  c #BA3B51",
"|  c #C43B4F",
" . c #CD3A4E",
".. c #D13749",
"X. c #D53A4D",
"o. c #DC394C",
"O. c #C33B50",
"+. c #E0394C",
"@. c #8D4848",
"#. c #8E484C",
"$. c #964743",
"%. c #915145",
"&. c #AC504E",
"*. c #866C49",
"=. c #9B6E41",
"-. c #86724C",
";. c #A87340",
":. c #B77843",
">. c #8F5B6B",
",. c #995368",
"<. c #BD7B62",
"1. c #CA5D43",
"2. c #D8514F",
"3. c #E25542",
"4. c #DF6C41",
"5. c #D17852",
"6. c #E47745",
"7. c #C8576A",
"8. c #DA6172",
"9. c #E46171",
"0. c #DC8A3C",
"q. c #E38E3F",
"w. c #9C8250",
"e. c #BD8146",
"r. c #BE8248",
"t. c #B28A5A",
"y. c #86827E",
"u. c #AE9174",
"i. c #CC874A",
"p. c #D48648",
"a. c #D48F51",
"s. c #DD9551",
"d. c #DA9355",
"f. c #E49143",
"g. c #E6974A",
"h. c #ED934D",
"j. c #ED9A4C",
"k. c #F0974D",
"l. c #F19D4E",
"z. c #EA9553",
"x. c #EB9E54",
"c. c #F19752",
"v. c #F19E50",
"b. c #EDA14F",
"n. c #EDA154",
"m. c #EBA15B",
"M. c #F5A354",
"N. c #F9A656",
"B. c #F9AE56",
"V. c #F4A45A",
"C. c #FBA65A",
"Z. c #F6AA5B",
"A. c #FEAC5D",
"S. c #F9B056",
"D. c #FCB15B",
"F. c #D39762",
"G. c #E78460",
"H. c #C6A361",
"J. c #E9A467",
"K. c #F6AA64",
"L. c #FEAD61",
"P. c #F4AC6B",
"I. c #FEAE69",
"U. c #E7B76A",
"Y. c #FFB062",
"T. c #F5B86B",
"R. c #EFC16F",
"E. c #F1C471",
"W. c #F1C77A",
"Q. c #527C89",
"!. c #AA7C91",
"~. c #5C8B9B",
"^. c #77909A",
"/. c #5F8FA0",
"(. c #6294A5",
"). c #709AAA",
"_. c #70AABE",
"`. c #72ACC1",
"'. c #77B4C9",
"]. c #79B8CE",
"[. c #8A8889",
"{. c #968D97",
"}. c #99959A",
"|. c #8E95A2",
" X c #A8A6A9",
".X c #B1B1B7",
"XX c #CD8C98",
"oX c #CABBBB",
"OX c #EAA7B3",
"+X c #F1CA84",
"@X c #D9C3B8",
"#X c #F1D3A3",
"$X c #EFC4BD",
"%X c #80B0C5",
"&X c #ADB6C4",
"*X c #A5C3D4",
"=X c #D9C2CD",
"-X c #D4CED4",
";X c #F1DACE",
":X c #F2E0D1",
">X c #C3D6E3",
",X c #F1DFE1",
"<X c #EAE3EA",
"1X c #F2E6E3",
"2X c #F2EAF1",
/* pixels */
"F.J.K.K.A.A.A.D.B.A.I.Y.I.I.Y.L.L.L.A.L.A.L.L.A.L.C.L.L.L.L.L.L.A.A.A.A.A.A.A.A.D.L.A.A.A.A.L.L.A.A.D.A.A.D.B.D.A.A.D.Y.L.P.J.F.",
"J.P.K.L.L.A.A.A.A.Y.L.L.L.I.L.Y.L.L.L.L.A.L.L.L.L.L.L.L.L.C.L.A.A.A.A.L.A.L.D.A.A.A.L.A.L.A.D.A.A.A.D.A.A.D.A.D.D.A.A.A.L.L.K.J.",
"P.I.I.L.A.A.A.A.D.Y.L.Y.L.L.L.Y.L.L.C.L.L.C.L.L.C.L.L.L.L.L.L.A.A.A.A.A.A.A.L.L.L.A.A.D.D.A.A.A.B.A.A.B.S.A.D.L.D.D.A.A.C.L.L.K.",
"I.I.L.L.L.L.D.D.D.L.Y.L.I.L.L.L.L.L.L.L.L.L.L.L.L.L.L.A.L.A.L.L.A.L.A.A.L.A.A.A.A.A.A.A.L.A.A.A.A.A.D.A.A.D.A.D.K.D.L.A.L.A.L.L.",
"T.L.Y.A.L.A.A.L.D.Y.Y.A.L.L.L.L.L.L.L.L.L.A.L.L.L.L.L.L.L.C.L.L.A.A.A.A.A.A.A.A.A.A.A.A.A.A.A.A.A.A.A.A.A.D.D.L.D.A.A.L.A.C.A.C.",
"Y.L.L.L.A.A.C.A.L.L.A.Y.L.L.L.L.L.L.L.A.L.L.L.L.L.L.L.L.L.L.L.C.D.A.A.Y.D.L.L.A.C.N.C.A.A.L.D.A.A.B.C.A.A.A.A.D.L.L.L.A.C.C.C.C.",
"Y.A.A.A.C.M.v.N.C.A.L.L.L.L.L.L.L.C.L.L.C.L.L.L.L.L.L.L.L.L.A.L.L.A.A.A.L.A.A.A.M.j.j.N.A.L.A.A.A.A.A.A.A.A.A.L.L.A.L.L.A.A.C.A.",
"A.A.A.A.N.j.g.l.N.C.A.A.A.L.A.L.L.L.C.L.C.L.C.L.A.L.C.L.L.L.L.A.A.L.A.A.A.A.L.D.M.q.f.b.A.A.Y.A.A.A.A.L.C.A.A.A.D.A.A.L.L.A.L.L.",
"A.A.A.L.C.M.v.k.k.M.A.A.C.A.A.A.L.L.A.L.L.L.A.L.L.L.L.L.A.L.L.A.A.A.Y.A.A.D.L.A.N.v.j.j.j.M.D.L.C.I.K.K.L.L.A.A.L.A.A.A.A.L.L.L.",
"A.D.A.A.A.A.C.k.q.l.C.C.C.C.C.A.C.L.L.C.L.C.A.L.A.A.L.L.L.L.L.A.A.A.A.A.A.A.L.A.A.A.M.f.0.j.A.A.L.C.K.C.L.L.A.C.A.A.A.A.L.L.L.L.",
"A.A.A.A.A.L.C.v.k.N.A.A.A.C.A.A.L.L.L.C.A.C.L.L.L.A.L.A.A.L.L.L.A.A.A.A.A.A.A.L.A.A.C.j.j.M.A.A.L.L.I.I.L.L.L.A.C.A.A.A.L.L.L.L.",
"L.D.L.D.A.Y.L.C.C.C.L.A.A.C.A.L.C.L.A.A.A.A.L.A.A.A.A.A.A.A.A.A.A.Y.A.A.L.A.A.D.D.A.A.A.C.A.Y.L.L.L.L.L.I.L.A.A.A.A.A.A.C.L.A.A.",
"L.K.Y.D.A.A.L.A.A.L.Y.Y.A.A.A.K.A.L.A.A.A.A.A.A.A.A.A.A.A.A.L.A.A.A.A.A.A.A.A.Y.L.A.A.A.D.L.A.Y.C.L.L.I.L.L.L.A.A.A.A.L.L.L.A.A.",
"K.Y.A.Y.A.C.C.C.C.L.Y.D.Z.L.A.A.L.A.A.A.A.A.A.A.A.L.A.A.A.A.A.A.L o . o L.D.A.L.A.A.L.A.A.L.A.Y.L.L.L.L.L.L.L.A.A.A.A.A.L.L.A.A.",
"Y.K.K.D.A.C.C.C.C.A.Y.K.L.A.A.L.D.L.C.N.C.A.A.A.L.A.L.A.A.A.C.T [.1X1X1X, y x.D.L.A.A.A.A.A.A.L.L.L.L.I.L.L.A.N.C.D.A.A.A.A.A.A.",
"Y.L.L.L.L.C.C.A.A.L.L.L.A.Z.A.A.Y.Y.M.g.M.C.L.D.A.A.A.A.A.A.=.y.#XE.E.E.:X@Xu d.D.L.A.A.A.A.A.A.L.L.L.L.A.C.b.f.v.A.Z.a.A.A.A.A.",
"L.D.L.C.L.L.C.L.L.C.L.A.A.A.A.A.A.L.M.q.j.B.A.A.A.D.L.A.;.I [.#XH.w.w.U.E.E.H.d Y Y Y T L.A.A.A.C.A.L.A.A.M.g.0.l.A.I m i.A.A.A.",
"L.L.A.A.L.C.C.L.A.L.A.L.A.A.A.N.n.g.j.x.N.A.L.A.A.A.;.J 7 j S B M 7 7 B E.E.E.-.  4 7 7 I A.A.A.L.A.A.C.l.j.j.k.M.A.; ~.a A.A.A.",
"L.L.K.A.L.C.L.L.C.L.A.A.A.A.N.M.g.0.j.A.Y.Y.D.L.A.;.0 l / / e e $.1.1.X E.E.E.t.D 6 ^ ( e P A.L.A.A.A.M.f.0.j.A.A.D.; `.N :.A.L.",
"C.L.A.A.C.L.L.C.L.A.A.C.C.A.A.N.b.j.M.D.A.A.A.A.:.6 ^ / / / ) 2.W Q Q oXE.E.E.G.[ ' * / v t A.A.A.L.L.N.n.j.M.D.A.A.; ].Q.P A.A.",
"C.L.A.L.L.L.L.L.L.A.A.A.A.A.A.A.A.A.Y.D.D.A.A.A.;.h / / X.( o.+.3.Q Q ,XW.E.E.G.[  .( + / k J L.A.L.D.A.A.C.K.Y.Y.O '.].Q.P D.A.",
"L.L.C.C.L.C.L.C.L.C.A.A.A.A.A.D.Y.Y.D.A.A.A.A.:.4 / /  .+.( +.+.o.+.+.;XT.z.m.G.{  .(   / l   P n.- $ m.Z.n.x.y # '.].'.Z U A.A.",
"L.C.C.L.L.C.L.L.A.A.A.A.A.A.A.A.A.C.A.D.B.D.R = 4 ( / X.+.( o.+.9.9.=XW.T.J.J.5.{  .(   / l 5 7 + 5.h.3 =.f f (.].].(.A P D.A.A.",
"L.C.A.L.L.L.L.C.A.A.A.A.A.A.A.A.A.A.C.A.B.R q x 4 } [ X.+.[  .8.$X;X+XE.T.U.=.! { } )   / l 5 / = p.h.u.Q.'.'./.Q.~.u P L.A.A.A.",
"A.C.A.A.A.A.A.A.L.A.A.A.A.A.A.A.A.C.B.A.U 7 o.x 4 { &. .+.o.} [ &.F.<.*.B B S & ! ) 6 7 / l 5 / = 5.h._.C C C a J J A.D.L.A.L.A.",
"C.A.A.A.A.A.A.A.A.A.A.A.A.A.A.A.A.A.A.I D / o._ 6 F  .{ o.+.o.[ / ^ 5  X  & n   k 5 k / ^ 4 c ( G u h.u.- ;.;.x.A.B.A.L.A.A.A.A.",
"A.A.A.A.A.A.A.C.A.A.C.A.A.A.A.C.A.A.A.t ` ( +. .k w +. .] +.+.o.[ / = n     1 ' XX>.j h j v / { E O h.p.r L.L.L.A.A.A.A.A.A.A.D.",
"A.A.A.A.A.A.A.A.A.A.A.A.A.A.A.A.A.A.A.t ` ( +. .0 D +.+.o.) +.+.o.[ =   . ....o.OX<X,.g g j / 5 O p.O - m.L.D.A.A.A.A.A.A.A.L.L.",
"A.A.A.D.A.A.A.A.C.A.A.A.A.A.A.A.A.A.C.u ` ( o.+.O.6 F ..+.o.( ( } [ =X,.+.7.%X!.OX<X,.g g : O T A.A.A.A.A.A.L.A.A.A.L.D.A.L.A.A.",
"A.A.A.A.A.A.A.A.A.A.A.A.C.A.A.A.A.A.B.s H o.( o.+.} 1 @ _ ` o...] / =X2X7.{.+.!.&XV ~ g < t A.L.A.A.L.D.L.D.A.A.A.A.L.A.L.D.A.A.",
"A.A.L.A.A.A.A.A.A.A.C.A.A.A.A.A.A.A.A.A.J F [  .+.` 6 v 4 1 F w k z {.<X*XO..._ c ^ X.g < t A.A.A.L.A.A.A.A.A.A.A.L.A.A.A.L.L.A.",
"A.A.A.A.A.A.A.A.A.A.A.A.A.A.A.A.A.C.B.A.B.. D ( } ! c ( ( / 7 k / / z {.{.z z c } &.X.g < t L.D.A.A.A.A.A.L.A.L.D.A.A.L.A.D.A.A.",
"A.A.A.A.A.A.A.A.A.A.A.A.A.A.A.A.A.A.C.A.C.+ < j h k / / / / / / l c / _ _ ~ v | +.] X.g g 9 A.A.A.D.L.A.A.D.L.A.L.A.L.L.A.A.A.L.",
"A.A.A.A.C.A.A.A.A.A.A.C.A.A.A.A.B.A.A.A.u < g g : j / / / / / / ^ 5 v ] o. .[ o.o.&.o.g * a.A.L.A.L.A.A.L.A.A.A.A.A.D.A.A.A.D.A.",
"A.A.A.A.A.A.A.A.A.A.A.B.B.C.B.C.A.B.C.p o   g g g = l / / / &. .....1 ^ +...[ o.G.2.j g - A.L.A.L.D.A.L.A.A.L.D.D.A.L.A.A.A.L.A.",
"A.A.A.A.A.A.A.A.A.B.A.B.A.A.A.A.A.C.d l / #.+ g g g @ c / ) +.+.+.+.o.@ ( o.| <.E.T.n h c   o I A.A.A.A.A.A.L.A.L.A.A.A.A.L.A.A.",
"D.A.A.A.A.A.B.A.C.A.A.A.A.B.C.B.M.J F { ( / ^ + g g g @ c +.Q 3.+...&.1 v / / <.T.x.$ #.l 5 / 7 Y C.D.L.A.A.A.A.D.L.A.A.D.A.L.A.",
"A.A.A.A.A.A.A.C.A.A.A.B.A.B.A.A.e.q +. .( / ^ @ h g g g $ H K 3.X.[ E E + k k &.h.:.5 / @ / / ( = s.L.A.A.A.A.L.L.A.A.A.L.A.A.A.",
"A.A.A.A.A.A.A.A.A.A.A.C.A.A.A.A.5.* _ ~ / / 7 k b h g % & & > F ' 1.4.4.  & & 9 J 0 ^ / @ / ] { 1 s.L.A.L.A.D.A.A.A.L.L.A.A.A.A.",
"A.A.A.A.A.A.C.A.A.A.A.B.A.C.B.n.t 0 7 4 4 4 k / c = p =.Y % # @ G 6.J u   % % y 2 c / / @ ]  .o.1 s.A.A.A.A.L.A.A.A.D.A.A.A.A.Y.",
"C.A.A.C.A.A.A.A.A.B.A.C.A.A.A.2 x / v x x l / v t i.x.A.A.e.e.i.i 2 U :.R * e.s.i x / / k q +.D I Z.A.A.A.A.A.A.A.L.A.A.L.A.A.A.",
"A.A.B.A.A.A.A.A.A.A.A.B.B.A.A.@ / / / / / / ^ 2 n.A.C.A.D.A.A.D.L J P.T.R.t.i A.n.2 ^ / ( k @ @ :.A.A.A.A.A.L.A.A.A.A.A.A.A.A.Y.",
"A.C.A.A.B.A.B.A.A.A.A.B.A.B.. / / ( / / / / O C.A.A.L.D.A.A.A.A.P =.R.R.z.i.t A.M.2 v / / / / 4 r.L.A.A.A.A.A.A.A.A.A.A.Y.A.A.A.",
"A.B.A.A.A.A.A.C.C.B.A.A.A.t #.#.@.@.@.#.@.* j.N.A.A.A.A.A.A.A.A.Y.J 2 R ).].).s x.j.2 v / / / 5 e.L.A.A.A.A.C.A.A.A.A.A.A.A.A.A.",
"A.A.A.B.A.A.A.B.B.A.A.A.A.A.A.Y.A.D.M.j.j.j.M.C.Y.A.A.A.A.A.A.L.D.L.A.u y ).<X).d g.x.3 J $.%.p i.A.A.A.A.A.A.A.A.A.A.A.A.A.A.D.",
"C.B.A.C.B.C.A.A.A.A.B.C.A.B.C.A.A.C.j.q.j.B.A.A.A.A.A.A.A.L.D.A.A.A.Y.A.C.d |.].^.d x.g.f.j.N.B.B.N.A.A.A.A.C.A.A.A.A.A.A.A.A.L.",
"B.A.A.A.A.B.B.C.C.A.B.A.A.B.C.C.A.A.M.b.M.A.Y.A.A.A.A.L.L.A.A.A.D.L.A.A.A.n.M ~.>X Xa n.c.M.A.A.N.A.N.A.A.A.A.A.A.A.A.A.Y.A.L.A.",
"A.A.A.A.A.A.A.A.B.A.A.A.A.C.B.C.A.L.A.A.Y.Y.Y.Y.A.L.A.D.A.A.A.A.L.A.A.A.A.A.x.d .X2XoXr C.A.Y.A.C.N.A.A.A.A.C.A.C.A.A.A.A.A.A.A.",
"A.A.A.A.A.A.B.C.A.A.A.A.A.C.C.B.A.A.A.A.Y.Y.Y.A.A.D.L.A.A.A.A.L.A.A.A.A.A.A.Y.P }.2X2Xo C.A.Y.B.C.C.A.A.A.A.A.A.A.C.A.A.A.A.L.A.",
"A.A.A.A.C.B.A.B.B.A.A.A.B.A.C.C.A.Y.A.A.L.D.Y.A.A.A.L.A.A.A.D.L.A.A.Y.A.A.L.D.P }.2X2X  A.A.Y.A.A.A.A.A.K.L.A.A.A.A.A.A.A.L.L.L.",
"L.A.A.A.A.A.C.N.N.C.D.Y.L.A.B.A.A.A.L.A.A.L.A.A.A.L.A.A.A.A.D.A.A.A.A.A.L.Z.U [.2X-X8 C.C.A.A.A.A.Z.L.L.L.L.C.N.C.A.A.A.A.A.A.L.",
"Y.Y.D.A.A.B.N.l.f.M.Y.Y.K.C.A.L.L.L.D.A.L.D.L.A.L.D.A.Y.Y.L.L.A.A.Y.A.Y.A.=.[.2X-XM x.B.A.A.A.A.A.A.L.K.Y.L.M.h.v.A.C.A.C.K.L.L.",
"Y.Y.Y.Y.A.A.C.h.f.x.Z.K.Z.A.L.L.L.Y.A.L.L.L.Y.A.A.Y.A.D.L.L.L.L.D.Y.A.A.Z., {.}.M s.D.A.A.A.A.A.L.L.K.Z.Y.K.x.f.v.A.L.L.A.L.K.L.",
"Y.L.Y.Y.D.A.A.v.b.b.g.n.Z.A.L.L.L.D.L.D.D.D.A.A.D.A.Y.A.A.Y.D.A.L.L.L.D.Z.U I I a.Y.L.A.A.A.A.A.L.Z.K.Z.n.g.x.M.N.L.L.L.L.L.L.I.",
"L.L.Y.Y.Y.L.A.A.C.j.0.f.m.A.K.D.L.L.L.D.L.L.L.Y.L.Y.A.L.A.D.L.Y.A.L.L.Y.Y.A.L.A.A.A.A.A.A.A.A.A.L.A.Z.n.g.p.b.Y.L.L.Y.L.L.I.I.I.",
"A.L.D.L.A.A.A.A.L.M.j.n.C.A.A.Y.D.L.L.A.Y.A.L.D.L.A.D.L.Y.A.L.A.Y.L.D.A.A.A.Y.L.D.A.A.A.A.C.A.A.A.Z.D.Z.b.b.Z.D.L.L.L.L.I.Y.I.I.",
"A.A.D.A.C.L.v.L.L.A.A.B.A.A.A.A.Y.A.D.A.Y.A.A.A.Y.A.D.L.L.L.L.D.A.D.D.L.L.A.D.L.D.L.A.A.A.A.A.A.B.D.D.S.D.D.Y.Y.L.L.L.L.L.I.I.I.",
"N.A.A.A.C.C.I.L.L.A.A.A.A.D.A.D.A.A.L.L.L.D.Y.L.A.L.L.L.A.D.L.L.L.L.L.L.A.Y.L.A.A.A.L.A.A.A.A.A.A.D.S.D.D.D.D.A.L.L.C.L.L.L.I.V.",
"l.C.C.A.L.C.C.C.C.A.B.B.A.D.D.A.L.Y.A.L.L.D.L.L.D.L.A.D.Y.A.D.L.D.L.D.D.A.Y.A.A.L.A.A.A.A.A.A.A.A.D.S.S.S.S.B.L.A.L.C.L.I.C.C.c.",
"k.C.C.A.L.C.L.C.A.N.N.B.S.D.A.D.D.A.L.A.A.L.L.D.L.L.Y.L.A.Y.L.A.L.L.L.L.A.L.D.L.A.A.A.L.A.C.A.A.B.D.D.S.S.S.C.L.L.L.L.L.L.I.V.h.",
"k.C.A.C.A.C.L.C.C.A.B.S.S.S.D.A.A.L.L.L.L.L.L.A.Y.A.L.D.Y.A.Y.Y.L.D.D.L.Y.L.L.L.A.A.A.D.A.A.A.A.A.D.D.D.B.A.A.L.I.C.L.A.C.L.v.z.",
"x.C.A.A.A.L.L.L.A.B.S.S.S.S.D.A.A.L.L.A.L.A.L.L.L.Y.L.L.L.L.L.A.L.L.L.L.A.D.L.D.Y.A.A.A.A.A.A.D.A.A.A.B.C.A.L.L.C.L.L.A.C.C.v.z.",
"z.K.A.A.A.A.A.A.A.A.S.S.S.S.D.A.A.L.L.L.A.L.L.Y.L.Y.Y.L.A.Y.Y.A.D.L.D.L.L.L.L.D.A.A.A.L.A.D.A.A.A.A.D.B.C.L.L.K.K.K.L.A.C.A.V.G.",
"d.K.L.A.C.A.A.A.A.S.B.S.S.S.A.A.A.L.A.L.A.L.L.L.L.L.Y.L.Y.L.L.Y.L.L.A.Y.A.D.L.L.Y.A.A.A.A.A.A.A.A.A.B.A.C.L.C.K.K.K.L.C.Z.C.J.a."
};
