/* XPM */
static char *result[] = {
/* columns rows colors chars-per-pixel */
"64 64 189 2 ",
"   c #151B1B",
".  c #1A1D1D",
"X  c #2D291F",
"o  c #1B1F20",
"O  c #321F22",
"+  c #1A2323",
"@  c #252124",
"#  c #2C2226",
"$  c #24262B",
"%  c #272B28",
"&  c #342725",
"*  c #39252D",
"=  c #3B3023",
"-  c #2D2C35",
";  c #332B32",
":  c #36353D",
">  c #43262D",
",  c #56252C",
"<  c #5B282C",
"1  c #453725",
"2  c #4A3B27",
"3  c #543D2A",
"4  c #432831",
"5  c #4B2B34",
"6  c #552E3A",
"7  c #5A2F3C",
"8  c #5D343A",
"9  c #612B2E",
"0  c #682B36",
"q  c #753430",
"w  c #564129",
"e  c #58422A",
"r  c #4D4731",
"t  c #504434",
"y  c #63492C",
"u  c #684B2D",
"i  c #70502F",
"p  c #714D32",
"a  c #7A5633",
"s  c #3B3643",
"d  c #583848",
"f  c #643241",
"g  c #6A3444",
"h  c #6C3A4E",
"j  c #743648",
"k  c #743749",
"l  c #7E394E",
"z  c #743B50",
"x  c #7D3C52",
"c  c #32494F",
"v  c #3D5B64",
"b  c #4B5452",
"n  c #565A56",
"m  c #675742",
"M  c #754254",
"N  c #6E645B",
"B  c #516364",
"V  c #872C37",
"C  c #9A2F3B",
"Z  c #8D3B35",
"A  c #A5303E",
"S  c #845A35",
"D  c #925F39",
"F  c #8A6037",
"G  c #98663A",
"H  c #9C6C3D",
"J  c #A7673B",
"K  c #A06D3D",
"L  c #A8733F",
"P  c #C44836",
"I  c #C0613C",
"U  c #E46D3A",
"Y  c #E5743F",
"T  c #88384A",
"R  c #973848",
"E  c #843B51",
"W  c #8F3E56",
"Q  c #923E56",
"!  c #9A3D55",
"~  c #B13546",
"^  c #A53D53",
"/  c #AB3C52",
"(  c #B33C52",
")  c #BC3B50",
"_  c #C53748",
"`  c #C93A4F",
"'  c #D63A4D",
"]  c #DD394C",
"[  c #C13B50",
"{  c #DD3D50",
"}  c #E0394C",
"|  c #8E4C42",
" . c #925046",
".. c #954154",
"X. c #B74542",
"o. c #BB5445",
"O. c #A65B5B",
"+. c #AB7642",
"@. c #B27A43",
"#. c #BA7169",
"$. c #CB4455",
"%. c #E14B46",
"&. c #E14254",
"*. c #E66C59",
"=. c #CB5266",
"-. c #D7883C",
";. c #DD8B3C",
":. c #E38E3F",
">. c #B28653",
",. c #978669",
"<. c #BC936F",
"1. c #BD9A7D",
"2. c #BEA577",
"3. c #C28549",
"4. c #CA894B",
"5. c #D78E47",
"6. c #DA9552",
"7. c #DA9355",
"8. c #ED8C4D",
"9. c #E49143",
"0. c #E6974A",
"q. c #ED934D",
"w. c #ED9A4C",
"e. c #F0974D",
"r. c #F19D4E",
"t. c #EF9452",
"y. c #EC9E53",
"u. c #E89B56",
"i. c #F19E50",
"p. c #EDA14F",
"a. c #EEA253",
"s. c #EEA259",
"d. c #F5A354",
"f. c #F9A656",
"g. c #F9AE56",
"h. c #F4A55A",
"j. c #FBA65A",
"k. c #F6AA5A",
"l. c #FEAD5D",
"z. c #F9B056",
"x. c #FCB15B",
"c. c #CD8B65",
"v. c #D59864",
"b. c #DFB468",
"n. c #E9A467",
"m. c #F6AA64",
"M. c #FEAD61",
"N. c #F4AC6B",
"B. c #FEAE69",
"V. c #E7BA6D",
"C. c #F0B365",
"Z. c #FFB162",
"A. c #F5B66A",
"S. c #F1C16F",
"D. c #F1C471",
"F. c #F1C679",
"G. c #537D8A",
"H. c #B67888",
"J. c #5A8797",
"K. c #669AAC",
"L. c #6CA3B6",
"P. c #6DA5B9",
"I. c #7BA8B2",
"U. c #76B2C8",
"Y. c #79B8CE",
"T. c #849289",
"R. c #979593",
"E. c #BF9F86",
"W. c #A2869B",
"Q. c #B98798",
"!. c #B3A58F",
"~. c #B5AFB5",
"^. c #C2A690",
"/. c #EA9BA8",
"(. c #D3B3B3",
"). c #F1CB89",
"_. c #F2D9B9",
"`. c #92C3D5",
"'. c #A7CBDB",
"]. c #B8D2E0",
"[. c #DCD4DE",
"{. c #F2DCC0",
"}. c #E2D9D9",
"|. c #F0D8DC",
" X c #CEDBE6",
".X c #E8DCE4",
"XX c #EAE6ED",
"oX c #F2E6E4",
"OX c #F2EAF1",
/* pixels */
"v.n.m.m.l.l.l.g.l.l.M.Z.B.M.Z.M.M.M.M.M.M.M.M.M.M.M.M.l.M.M.M.j.M.l.l.l.l.x.M.l.x.M.l.M.l.l.l.x.M.l.l.x.l.x.l.z.l.l.M.Z.B.N.n.v.",
"n.N.m.M.M.l.l.x.l.x.M.B.B.B.Z.M.M.l.M.l.M.j.j.M.M.M.M.M.M.M.l.M.l.l.l.l.l.M.l.l.l.l.l.l.l.l.l.l.l.l.l.l.z.l.x.l.l.x.x.l.l.M.m.n.",
"N.B.B.M.l.l.M.x.x.Z.Z.Z.Z.M.B.M.M.M.M.j.M.M.M.M.M.M.j.M.j.M.M.l.M.l.l.M.x.l.l.l.l.M.l.l.l.M.l.l.l.l.x.l.x.l.x.k.x.x.Z.l.j.M.l.m.",
"A.B.M.M.M.l.l.l.Z.M.M.M.M.M.M.M.M.M.M.M.M.M.l.M.M.M.M.M.M.M.M.l.l.l.l.l.M.l.l.M.l.l.l.l.x.M.l.l.l.g.l.g.l.x.Z.M.l.k.l.l.l.l.l.M.",
"B.B.M.M.M.x.l.l.x.Z.M.M.M.M.M.M.M.M.M.M.M.M.M.M.l.M.M.j.M.M.l.M.l.l.l.l.l.l.l.l.l.l.x.l.l.M.l.l.l.g.l.x.l.l.x.x.k.l.M.l.l.j.l.j.",
"Z.x.M.l.l.l.j.l.M.M.M.x.M.M.M.M.M.M.l.M.M.j.M.l.j.M.M.M.M.M.M.M.l.M.l.M.l.M.l.l.j.f.j.l.l.x.l.l.l.l.j.l.l.l.l.Z.Z.M.M.l.j.j.j.j.",
"M.l.l.l.j.d.i.f.l.l.M.M.l.M.M.M.M.j.j.M.M.l.M.M.M.M.M.l.M.M.M.M.l.x.l.x.l.l.x.M.d.w.w.d.l.l.l.l.l.l.l.l.l.l.l.l.x.M.M.M.l.l.j.l.",
"l.l.l.l.j.w.0.r.f.j.l.l.M.M.l.M.M.M.M.M.j.M.M.M.M.M.M.M.M.l.M.j.l.M.M.l.l.l.l.M.d.9.9.i.l.l.Z.l.l.l.l.l.j.l.l.l.l.M.l.M.M.M.l.M.",
"l.l.l.x.j.f.i.r.e.d.l.j.l.l.l.l.M.l.l.M.M.M.j.M.M.M.M.M.l.M.M.M.M.l.l.l.l.l.l.l.j.p.w.w.w.d.Z.l.M.M.m.m.M.M.l.l.l.l.l.l.M.M.M.M.",
"l.l.l.M.l.l.f.q.:.e.j.j.f.j.l.l.M.M.M.j.M.j.M.M.l.M.l.M.M.M.l.l.l.l.M.l.l.Z.l.l.l.l.d.9.;.w.l.l.M.j.m.m.M.M.l.l.l.l.l.l.M.M.M.M.",
"l.l.l.l.l.M.j.d.e.d.l.l.j.j.l.M.M.j.M.j.l.j.M.l.M.l.M.l.l.M.l.M.l.l.x.M.l.l.l.M.M.l.f.r.w.d.x.M.M.M.M.m.M.M.l.l.l.l.j.l.M.M.M.M.",
"M.x.l.l.l.M.M.j.f.l.M.l.M.j.j.l.l.M.l.l.l.l.M.l.l.l.l.l.l.l.M.l.M.l.l.l.l.l.l.M.l.x.l.j.j.l.M.M.M.M.M.M.B.M.l.l.l.g.l.l.M.M.l.l.",
"M.Z.Z.k.l.l.l.l.l.M.Z.m.M.M.l.M.M.M.l.l.l.l.l.l.l.M.l.l.M.l.l.l.l.l.M.M.l.l.M.x.Z.l.l.l.l.Z.x.M.M.M.M.m.M.M.l.j.l.l.l.M.j.M.l.l.",
"m.Z.m.Z.M.j.j.j.j.l.Z.Z.l.k.l.M.j.M.l.l.l.l.l.l.l.l.l.l.l.l.x.M.x.l.x.l.l.l.l.l.l.l.l.l.l.l.l.M.M.M.M.M.B.M.M.l.l.l.l.l.M.M.l.l.",
"Z.Z.x.M.M.j.j.j.j.l.Z.M.Z.k.k.M.M.M.l.d.j.j.l.l.l.l.l.M.l.l.l.l.M.M.l.l.l.l.x.l.l.l.Z.l.l.l.l.M.M.M.M.B.M.l.f.f.f.x.l.M.M.l.l.l.",
"Z.m.M.l.j.l.j.l.l.l.M.M.l.l.l.l.x.Z.d.w.i.l.l.M.l.l.l.l.l.l.M.l.l.l.l.l.l.M.M.l.l.l.l.l.l.l.l.l.M.M.M.M.Z.j.d.9.d.l.M.x.l.l.l.j.",
"m.l.M.M.M.l.l.M.M.l.l.M.l.j.l.l.l.k.a.9.w.j.x.M.l.l.l.M.l.l.l.l.l.Z.l.l.l.M.x.l.l.l.l.l.M.x.l.l.j.M.M.j.l.d.0.;.w.l.l.l.l.M.l.l.",
"M.l.j.M.j.M.M.j.M.l.l.l.l.l.l.f.a.p.w.d.d.l.l.l.l.l.y.2 2 e l.l.l.l.l.l.l.l.M.l.l.l.M.M.l.l.M.l.M.j.l.j.i.w.w.e.d.l.Z.l.l.x.l.l.",
"M.M.j.M.M.l.M.j.s.l.l.l.l.j.j.d.9.-.w.l.x.Z.Z.l.j.d.c oXoX}.% +.l.l.l.l.l.l.l.l.l.l.l.x.l.l.l.l.l.l.M.d.9.;.w.l.l.x.M.l.M.x.l.l.",
"l.l.M.j.j.j.m.+.b 4.j.l.l.l.l.j.p.w.d.x.M.l.l.l.5.N _.D.D.F._.R.K l.l.Z.l.l.M.l.l.Z.l.l.M.l.M.l.M.l.l.j.i.w.d.x.l.M.l.M.l.l.M.l.",
"M.M.j.M.M.M.M.& K.F l.l.l.l.l.l.l.l.x.Z.x.l.l.2 # 2.b.r r D.D.).~.F x.M.l.x.M.l.l.l.l.l.l.l.l.M.l.x.M.l.l.j.l.Z.Z.l.l.l.l.M.l.l.",
"l.j.M.j.M.j.a L.K.S l.l.l.l.l.M.Z.M.Z.x.l.S o ..f o @ ....X D.D.}.  +.h.l.l.l.l.l.l.Z.l.l.l.l.x.M.M.x.M.x.l.l.Z.x.l.l.l.l.l.l.l.",
"j.M.M.M.l.l.a L.P.m y.l.l.l.l.l.l.l.l.j.D f W 8 q / o.U U p D.D.V.8 7 5 3.l.M.l.l.l.l.l.Z.l.l.l.l.x.M.l.M.M.l.M.M.l.Z.l.l.l.x.M.",
"l.j.j.l.M.M.a L.Y.L.t i l.l.M.+.2 j.+.2 @ W 4 ~ ( ' %.U U Y D.D.V.( W W 8 4.l.M.x.l.l.l.l.l.l.l.l.l.M.Z.Z.Z.x.l.l.l.l.l.l.l.M.l.",
"l.j.l.M.l.l.l.= U.U.Y.K.+ + 4.S q.  6 # W 6 k ' ( } |.{ &.oXS.S.A.{ ^ W W * M.M.M.l.l.l.l.M.l.M.l.l.l.Z.x.l.l.l.l.M.l.l.M.M.l.l.",
"j.l.l.l.l.l.l.l.u n J.J.Y.Y.B v.t.@ W # Q 6 k ' ( } F.{.{.V.t.A.c.{ ^ ] W 7 K 3.l.l.l.l.l.l.l.M.l.l.l.l.M.Z.l.l.l.l.l.l.l.x.l.l.",
"l.l.l.l.l.l.l.l.l.6.L H c c v !.t.# W # Q 6 k { ) ' #.D.D.D.N.#.` ` ) ] W W . 8 4.l.l.l.l.M.l.x.M.l.l.l.l.l.l.l.l.x.M.l.M.x.M.l.",
"l.l.l.l.l.l.l.j.f.l.l.l.l.l.= 8.= P Q # E d k ! ' > o     W W ` ] ( } ] / ^ . / , k.l.l.l.l.l.l.M.x.l.l.l.M.M.l.l.l.M.l.l.l.l.l.",
"l.l.l.l.l.l.l.l.l.l.l.l.l.l.y H u Z Z W 5 z ; g 6   R.  n o W W Q [ } [ [ / . / ^ < 3.l.l.l.l.l.l.l.M.l.l.l.l.M.M.M.l.l.M.l.l.l.",
"l.l.l.l.l.l.l.l.l.l.l.j.l.l.d.@.d.L p l d s s M H.A     b o W W ` } ) ` } 0 g / / ] y l.x.l.l.l.l.l.l.l.M.l.l.x.l.x.l.l.l.l.Z.l.",
"l.l.l.l.l.l.j.l.l.l.l.l.g.l.l.l.l.l.l.1 s s z OX/.{ { T o $ ( ] ] [ ` } ] , Q } ^ ] y l.M.M.l.Z.l.l.x.M.l.l.l.M.l.l.l.l.l.l.l.l.",
"l.l.l.l.l.l.l.l.l.l.l.l.j.l.l.l.l.l.l.g.o s x ~.(.H.W.=.#..XW ^ / ) } C q T } ' ( ] y l.l.l.l.l.l.M.l.l.l.M.x.l.l.l.l.Z.l.l.l.l.",
"x.l.l.l.l.l.l.j.l.l.l.j.l.l.l.l.j.l.l.l.+ s l M G.$.{ H.[..Xh 0 } A , f , ] } _ ` , 4.M.l.l.M.M.l.l.l.l.x.M.l.l.l.l.l.x.M.l.M.l.",
"l.l.l.l.l.l.l.l.l.l.l.l.g.l.l.l.l.l.g.l.. s I ! ~ z W Q.OXs ..W   4 Q W f R ] / } . x.l.M.x.x.l.l.l.x.M.l.l.M.l.l.l.l.M.l.l.l.l.",
"l.l.l.l.l.l.l.l.l.l.l.g.l.f.l.j.l.g.g.j.w : o.Q } R d j d W f E Q Q W W W k k R 4 +.l.l.l.M.l.l.M.l.M.l.l.l.l.M.M.l.l.l.l.l.l.l.",
"l.l.j.l.l.l.l.l.l.l.l.g.l.l.g.l.l.l.l.l.6.$ g $.*.} ! } ^ > C ) [ Q W W g * s ; $   G l.l.l.l.l.l.l.l.l.M.l.l.x.x.M.l.l.l.M.M.x.",
"l.l.l.l.g.j.l.l.j.g.l.l.g.l.j.g.g.l.F   @ h s D.A.O.} ) & ' } } } _ W E $ s s - f W f +.l.M.l.l.l.l.l.l.l.l.M.l.x.M.l.l.l.M.l.x.",
"l.l.l.l.l.l.l.l.l.l.j.g.l.l.l.l.j.H 8 ..> l # t.C.O.W E , _ } } } _ j $ s s s 4 W W ) V @.x.M.l.M.x.l.Z.l.l.l.l.M.l.l.l.l.l.l.M.",
"l.l.l.l.l.l.l.j.l.l.l.l.l.g.l.g.l.@ Q Q l 5 j i e.8 * 9 P X.$.} < 5 - s s s h 4 W Q ) ]   l.l.l.l.l.l.l.l.M.l.l.l.l.M.l.l.l.l.l.",
"l.j.l.l.l.l.l.l.l.l.l.g.l.f.l.l.j.O ] ! l 5 Q E o : : p 8.8.X.& s -     $ z W f g W Q 4   l.l.M.M.l.l.l.x.M.l.l.l.l.l.M.x.l.l.M.",
"l.l.j.l.l.l.l.l.l.l.g.g.l.j.l.l.l.3 ~ } 0 f W E a a . w w J q e 3 G l.l.>.e g Q 6 * * j W 3 u.l.l.l.l.l.l.l.l.l.l.M.l.l.l.l.l.l.",
"l.l.l.l.l.l.g.l.l.f.l.l.l.l.l.x.l.6.* < g W ..5 4.S >.C.C.F i l.j.M.l.l.l.l.J 8 W W W W ..f +.M.M.l.l.l.l.l.l.l.l.l.l.l.l.M.l.l.",
"l.j.l.g.l.l.j.l.l.l.l.j.g.x.Z.Z.x.6.5 E W W W % l.1 t.t.A.b.i l.l.l.M.l.l.l.x.K g W W W ..W * j.l.l.l.l.l.l.l.l.l.l.l.l.l.l.l.M.",
"l.g.l.l.g.g.l.l.l.g.l.g.l.l.Z.Z.Z.6.6 ..W T 2 a.E.`.Y.Y.>.y M.M.M.l.l.l.l.M.M.l.S | | |  . . .w l.l.l.l.l.l.l.l.l.l.l.l.l.l.M.x.",
"l.l.l.l.j.l.g.l.j.l.l.l.l.x.l.x.x.a.H J J G 0.E.OX XY.T.u.M.l.l.l.l.l.l.l.x.l.l.f.d.i.w.w.d.l.l.l.j.l.l.l.l.l.j.l.l.l.l.l.l.l.x.",
"l.j.g.g.l.l.g.l.g.l.g.l.l.j.l.f.l.j.w.9.q.j.T.`.OXOXI.k.l.M.x.l.l.l.M.l.l.M.l.l.l.l.d.0.:.w.j.f.f.j.j.l.j.l.l.l.l.l.l.l.M.l.l.M.",
"g.l.l.l.l.l.j.l.g.l.j.g.l.j.j.l.l.M.d.w.a.1.'.Y.'.4.l.l.x.M.l.l.l.l.l.l.l.l.l.Z.l.l.j.d.r.d.l.j.f.l.l.l.l.l.j.l.j.l.l.l.l.l.M.l.",
"l.l.l.l.f.l.g.l.l.l.l.l.l.g.l.j.l.M.l.l.E.OXOX].T.s.l.M.l.l.l.l.l.M.l.l.M.l.l.l.l.l.Z.l.l.l.x.l.l.j.j.l.l.l.l.l.l.l.l.l.Z.l.l.l.",
"j.l.l.l.l.g.l.g.l.l.l.l.l.j.f.l.l.l.Z.l.OXOXOXXX,.M.l.l.l.l.l.Z.l.M.l.l.x.M.l.l.l.l.j.l.j.l.x.l.f.j.l.l.l.l.l.l.l.l.l.l.l.l.M.l.",
"l.x.l.l.l.l.f.l.g.l.l.l.l.l.g.f.l.l.l.l.(.OXOXOXE.s.M.l.l.l.l.l.l.M.x.l.M.l.l.l.l.l.f.l.l.l.Z.l.l.l.k.l.M.l.l.j.l.j.l.l.l.M.M.M.",
"x.l.l.l.l.j.f.f.f.f.x.Z.l.l.j.l.l.Z.l.l.a.^.OXOXOX^.<.l.l.l.l.M.l.l.l.l.l.l.M.l.k.f.f.j.j.l.l.l.l.l.l.M.M.M.j.d.j.l.l.l.l.M.l.M.",
"B.M.Z.l.x.l.f.e.9.d.Z.Z.m.k.l.l.l.l.Z.l.x.k.s.OXOXOXXX<.Z.l.M.x.l.Z.M.M.x.M.l.M.l.l.k.l.l.l.l.l.l.M.k.B.Z.B.d.0.i.l.j.M.l.j.l.B.",
"Z.Z.Z.Z.l.l.f.w.9.a.m.k.k.M.M.Z.Z.l.M.M.x.M.M.M.x.M.M.M.x.M.M.M.l.x.M.M.l.Z.l.x.x.l.l.l.l.l.l.l.k.M.M.m.Z.k.y.9.i.l.l.l.j.M.m.B.",
"Z.M.Z.Z.l.l.j.f.w.w.0.a.k.j.M.M.M.M.x.M.M.M.x.M.l.l.x.M.l.M.x.M.Z.l.x.M.M.M.l.l.l.l.l.l.l.l.l.l.l.m.m.k.u.u.y.d.j.M.M.l.M.M.M.B.",
"M.M.Z.Z.Z.M.l.l.l.w.-.0.s.l.M.Z.M.x.M.M.M.x.M.x.Z.M.M.M.Z.M.M.M.M.x.M.M.l.x.x.l.l.l.l.l.j.l.l.l.l.k.k.a.9.5.p.Z.M.M.M.B.B.Z.B.B.",
"l.l.x.M.l.l.l.l.M.d.0.d.k.k.M.l.M.x.M.x.M.M.M.x.l.x.M.x.l.x.M.x.M.M.M.x.Z.M.M.M.l.l.l.l.l.l.l.l.l.l.x.k.p.p.f.Z.M.M.l.M.B.B.Z.B.",
"l.l.l.l.M.j.i.M.M.M.l.x.l.l.l.x.l.l.Z.M.M.l.M.M.x.l.l.Z.M.x.Z.l.l.Z.M.M.l.l.Z.l.l.l.l.l.l.l.l.l.x.x.z.x.x.x.Z.x.M.M.M.M.M.B.B.B.",
"d.l.l.l.j.M.M.M.l.l.l.x.g.l.l.l.Z.M.l.x.l.Z.x.M.M.Z.l.l.M.l.l.l.x.l.x.M.Z.l.l.l.l.l.l.l.l.l.l.l.l.x.z.x.x.x.x.l.M.l.j.M.M.M.M.h.",
"r.f.l.j.j.M.j.j.j.j.g.l.g.l.x.x.x.M.M.l.x.M.l.M.M.l.Z.l.Z.l.l.Z.M.x.M.M.M.M.Z.l.Z.l.l.l.l.l.l.l.l.x.z.z.z.z.l.l.l.M.j.M.M.M.j.t.",
"e.j.l.l.j.j.M.j.l.j.f.g.z.x.x.l.l.l.l.M.M.M.x.M.M.Z.M.M.x.M.Z.l.M.M.M.x.Z.x.l.l.l.l.l.l.l.l.j.l.l.l.z.z.z.z.j.l.M.M.M.M.M.M.m.8.",
"i.j.l.l.l.j.M.M.j.l.g.g.z.z.x.l.l.M.l.l.l.M.l.Z.Z.Z.l.M.M.Z.l.l.M.x.l.M.l.l.x.M.M.l.l.l.l.l.l.l.x.z.x.x.l.g.l.m.m.j.M.M.j.M.i.t.",
"t.j.l.l.l.l.M.j.l.g.z.z.z.z.x.l.l.M.M.M.M.M.M.M.l.M.M.Z.l.Z.M.Z.M.l.Z.M.l.Z.l.M.x.l.l.M.l.l.l.l.l.l.z.l.l.l.M.M.m.m.M.M.M.i.h.t.",
"t.m.l.l.l.l.l.j.l.x.z.z.z.z.l.x.l.M.l.M.M.M.l.M.Z.M.M.Z.Z.M.M.l.M.x.l.x.M.x.Z.l.l.l.M.l.l.x.x.l.g.l.l.g.j.M.M.m.m.m.M.i.M.i.s.7.",
"7.m.M.l.l.l.l.l.l.l.g.z.z.z.l.l.l.M.M.M.M.l.M.M.M.l.Z.M.M.M.Z.Z.M.M.Z.l.M.l.Z.l.Z.l.l.l.l.M.l.l.l.l.g.l.j.j.m.j.m.m.M.j.M.m.n.7."
};
