/* XPM */
static char *result[] = {
/* columns rows colors chars-per-pixel */
"64 64 196 2 ",
"   c #151C1C",
".  c #1B1D1E",
"X  c #1F211D",
"o  c #24241E",
"O  c #1A1F21",
"+  c #221E21",
"@  c #2C1F21",
"#  c #1C2425",
"$  c #282524",
"%  c #22252A",
"&  c #26292D",
"*  c #362923",
"=  c #34242A",
"-  c #3B262E",
";  c #3A3129",
":  c #2B2A32",
">  c #312D36",
",  c #2C3232",
"<  c #35333B",
"1  c #462627",
"2  c #5A252C",
"3  c #493728",
"4  c #57392D",
"5  c #452932",
"6  c #4B2A35",
"7  c #532D39",
"8  c #5B2F3A",
"9  c #5B3438",
"0  c #66382D",
"q  c #782B35",
"w  c #6D3333",
"e  c #633639",
"r  c #5D4429",
"t  c #574E34",
"y  c #5E543B",
"u  c #66492D",
"i  c #79442E",
"p  c #6C4C30",
"a  c #634238",
"s  c #7A4C38",
"d  c #7B5433",
"f  c #3B3643",
"g  c #463644",
"h  c #573848",
"j  c #653242",
"k  c #6C3445",
"l  c #67394B",
"z  c #753649",
"x  c #7C394D",
"c  c #773C51",
"v  c #38464A",
"b  c #484C46",
"n  c #4C514F",
"m  c #63505A",
"M  c #7C6C47",
"N  c #765665",
"B  c #4F6E75",
"V  c #6F6B69",
"C  c #89352F",
"Z  c #852C37",
"A  c #972F3C",
"S  c #AB313F",
"D  c #865C36",
"F  c #8E573C",
"G  c #A04E31",
"H  c #8B6138",
"J  c #986A3A",
"K  c #9E6D3D",
"L  c #A4713F",
"P  c #AA7139",
"I  c #C0483D",
"U  c #D6633E",
"Y  c #E4673C",
"T  c #E36B3B",
"R  c #86384A",
"E  c #9E394B",
"W  c #843B51",
"Q  c #8E3E56",
"!  c #923E56",
"~  c #9A3D54",
"^  c #A43749",
"/  c #B53444",
"(  c #BA3B4C",
")  c #A43D53",
"_  c #AC3C52",
"`  c #B33C52",
"'  c #BC3B50",
"]  c #CA384B",
"[  c #CA3A4F",
"{  c #D33749",
"}  c #D33A4D",
"|  c #DC394C",
" . c #C23B50",
".. c #E0394C",
"X. c #8D4B44",
"o. c #8E484C",
"O. c #BA4B43",
"+. c #8C6C4C",
"@. c #937C4C",
"#. c #A87441",
"$. c #B87342",
"%. c #B37B44",
"&. c #B16D5F",
"*. c #B76578",
"=. c #C74A5E",
"-. c #D64659",
";. c #E24E4D",
":. c #DF6C41",
">. c #E35263",
",. c #D0687A",
"<. c #DC8A3C",
"1. c #E38E3F",
"2. c #BD8146",
"3. c #BE8248",
"4. c #A9855B",
"5. c #B28F58",
"6. c #BD8E63",
"7. c #C48547",
"8. c #CB8A4B",
"9. c #D98B47",
"0. c #D5914F",
"q. c #C68E57",
"w. c #D38D53",
"e. c #CD9156",
"r. c #D69251",
"t. c #DB9552",
"y. c #DD9756",
"u. c #E49143",
"i. c #E69749",
"p. c #ED934D",
"a. c #ED9A4C",
"s. c #F0974D",
"d. c #F19D4E",
"f. c #E99654",
"g. c #E39B54",
"h. c #EC9E52",
"j. c #F19E50",
"k. c #F09954",
"l. c #EDA14F",
"z. c #EDA154",
"x. c #EEA55F",
"c. c #F5A354",
"v. c #F9A656",
"b. c #F9AE56",
"n. c #F4A55A",
"m. c #FBA65A",
"M. c #F6AA5B",
"N. c #FEAC5D",
"B. c #F9B056",
"V. c #FCB15B",
"C. c #D69762",
"Z. c #CB9970",
"A. c #E2A366",
"S. c #E9A467",
"D. c #F4AB64",
"F. c #FEAD61",
"G. c #F4AC6B",
"H. c #FEAE69",
"J. c #FFB062",
"K. c #F5B86B",
"L. c #F1C16F",
"P. c #EEC270",
"I. c #F1C471",
"U. c #547E8C",
"Y. c #8C7582",
"T. c #AD7285",
"R. c #E77A89",
"E. c #5B8998",
"W. c #6396A8",
"Q. c #77ABBB",
"!. c #73AFC4",
"~. c #76B3C8",
"^. c #79B8CE",
"/. c #978F91",
"(. c #A88F95",
"). c #A1A298",
"_. c #8F97AC",
"`. c #9FACA5",
"'. c #EA999C",
"]. c #E8A189",
"[. c #CA99A7",
"{. c #CEB9AE",
"}. c #CCA8B6",
"|. c #D0B7B8",
" X c #F1D19D",
".X c #E9CEA6",
"XX c #F1D4A6",
"oX c #F2DAB9",
"OX c #C0B9C2",
"+X c #96C4D6",
"@X c #9DC7D9",
"#X c #DACAC7",
"$X c #D8D8DD",
"%X c #F2E0D1",
"&X c #E6E4EC",
"*X c #F2EAF1",
/* pixels */
"C.S.D.D.N.N.N.b.N.N.H.H.H.H.J.F.F.F.F.F.F.N.F.F.m.F.F.F.F.F.F.N.N.N.N.N.N.N.N.N.N.N.V.N.N.F.N.V.F.N.N.V.N.N.V.V.N.N.N.F.D.H.S.C.",
"S.G.G.F.F.N.N.V.V.V.F.F.J.F.F.J.F.F.N.F.F.F.F.N.F.F.F.F.F.F.N.F.N.N.N.N.N.F.N.N.F.N.F.N.N.N.N.N.N.N.N.N.M.N.V.N.V.N.N.F.F.D.D.S.",
"G.H.F.F.N.N.N.V.F.V.F.J.F.H.F.J.F.F.F.F.F.F.F.F.F.F.N.F.m.F.F.N.F.N.N.F.N.N.F.N.N.N.N.N.N.N.N.N.N.N.V.N.V.V.N.V.V.V.F.N.m.F.F.D.",
"H.H.F.F.F.N.N.N.J.F.J.F.F.F.F.F.F.m.F.N.m.F.F.F.F.F.m.F.F.F.F.F.N.N.N.N.N.N.F.V.N.N.N.N.V.F.F.N.N.b.N.b.N.V.V.F.V.N.V.N.F.N.N.F.",
"H.J.F.N.F.V.N.F.J.J.J.N.F.F.F.F.F.F.F.F.m.F.N.F.F.F.N.F.F.F.F.N.N.N.F.V.F.N.V.F.N.N.N.N.F.N.N.N.N.V.N.b.N.N.N.V.V.N.F.N.m.m.m.N.",
"J.J.J.F.N.N.m.N.N.N.N.J.F.F.F.F.F.F.F.F.F.F.F.F.N.F.F.F.F.m.F.F.N.F.N.N.N.N.N.N.M.v.M.N.N.N.N.N.N.N.N.N.N.N.V.N.F.F.F.F.F.m.m.m.",
"F.N.F.N.m.c.j.v.m.N.F.F.F.F.F.F.F.m.m.F.F.F.F.F.F.m.F.F.F.F.F.m.N.N.N.N.J.N.F.N.v.a.a.v.V.F.V.F.N.N.N.N.N.N.N.N.N.F.N.F.N.N.m.N.",
"N.N.N.N.m.a.i.d.v.m.N.N.N.F.F.F.N.F.F.F.F.m.F.m.F.F.F.F.F.F.N.F.J.N.N.N.N.N.N.N.d.u.u.d.N.N.N.N.N.N.m.N.N.N.N.N.N.N.N.F.F.F.N.N.",
"N.N.N.N.N.j.j.d.s.c.N.N.m.N.N.N.m.F.F.F.F.m.F.F.F.F.F.F.N.F.F.F.N.N.N.N.N.N.V.N.m.d.a.a.a.c.N.N.m.m.H.m.F.F.N.N.N.N.N.N.F.F.F.F.",
"N.N.N.N.N.N.m.s.1.d.m.m.m.m.m.N.F.F.m.F.F.F.N.F.N.N.F.F.F.F.N.N.N.N.F.V.F.N.F.N.N.N.c.u.<.d.N.N.H.H.m.H.F.F.N.N.N.N.N.N.F.F.F.F.",
"N.V.N.N.N.F.m.j.s.c.m.N.M.m.N.N.m.F.F.m.N.m.F.F.F.N.F.N.N.F.F.F.N.N.N.F.N.N.N.N.N.N.M.d.a.c.N.F.F.m.m.H.F.F.F.N.N.N.N.N.N.F.F.m.",
"J.N.F.N.N.F.N.N.m.N.J.N.N.N.N.N.F.N.F.N.N.N.N.N.N.N.N.N.N.N.N.N.N.N.N.N.N.N.F.V.V.N.N.m.M.N.J.N.F.F.F.H.F.F.N.m.N.b.N.N.F.F.F.F.",
"F.J.D.V.N.F.m.F.N.F.J.F.N.M.F.F.F.N.N.N.N.N.N.N.N.N.N.N.F.N.V.N.J.N.N.N.N.N.N.J.F.V.F.V.F.N.N.J.F.F.F.H.F.F.F.N.N.N.N.F.F.F.N.N.",
"D.J.J.N.N.N.m.m.m.N.J.J.F.N.N.N.N.N.N.N.N.N.N.N.N.F.N.N.N.N.F.N.N.N.N.N.V.N.N.F.N.F.N.N.N.N.F.F.F.H.F.F.F.F.F.N.N.V.N.N.F.N.N.N.",
"D.F.F.N.m.m.m.m.m.F.J.F.M.F.N.F.F.F.m.v.M.m.N.N.N.N.N.F.F.N.y., , , H g.N.N.N.N.N.N.N.N.N.F.N.F.F.F.F.F.F.F.n.c.m.z.N.F.N.N.N.m.",
"J.V.D.F.F.N.m.m.N.N.F.F.F.N.N.M.J.V.v.i.c.N.N.N.F.N.N.N.V.8.n %X%X%X/.n #.F.N.N.F.N.N.N.N.N.N.V.F.F.F.F.F.N.z.i.7.t %.N.F.N.N.N.",
"F.F.F.m.F.m.F.F.F.F.m.N.N.N.N.N.V.F.z.1.a.M.N.N.N.N.N.N.%.V oXI.I.I. X%XM L K K K 0.N.N.N.N.F.N.F.F.F.m.N.c.i.<.r W.# J.J.F.N.N.",
"F.F.F.F.m.F.m.F.F.m.F.N.N.N.m.m.z.a.a.z.v.N.V.N.N.F.N.%.V .XP.M M 5.I.I.I.+.O 7 7 a t.F.N.F.V.N.F.m.N.m.j.a.a.a.u W.B H N.N.V.N.",
"F.F.N.F.m.F.F.m.N.N.N.N.N.m.M.c.u.<.a.N.F.J.F.N.F.8.u 9 m y y j e a 5.I.I.I.O 7 o.x 4 g.N.N.N.N.N.N.N.c.u.<.a.M.r W.^.o F.N.F.N.",
"N.N.N.m.F.m.F.F.F.m.N.N.N.N.N.v.z.a.c.V.J.V.N.N.t.3 z W W z x U U D @.I.I.I.x A 7 Q x 3 N.F.N.N.N.N.F.m.a.a.c.J B ~.^.$ N.N.N.N.",
"F.m.F.F.F.F.F.m.m.F.N.N.N.N.N.N.N.N.V.V.V.N.N.v.= Q Q Q Q } Y :.Y ]..XK.I.I.} ) Z j Q + X * V.L o %.K.V.M.7.X B ^.^.^.$ N.N.N.N.",
"F.F.m.m.m.F.F.F.F.N.N.N.N.N.N.F.J.F.J.N.N.N.N.  Q Q Q ! [ ....Y Y ].XXL.K.I.} )  .6 k Q   R . p p.u :.& # v ^.^.!.Q.& N.V.F.N.F.",
"m.F.m.F.m.F.F.m.N.N.N.N.N.N.N.N.N.N.b.N.N.8.7.= Q ! ' _ [ ......;.'. Xh.p.I.| ) ' 6 j Q   ! k p p.C.n ~.^.!.W.W.b 3 n.N.F.N.N.N.",
"N.m.N.F.F.N.F.F.N.N.N.N.N.N.N.F.N.M.N.N.7.4   ! Q _ ..` [ ..R.R.'. XI.x.h.Z.| ) ' 6 k Q   ! k d p.`.E.U.E.B r u 8.V.N.N.N.N.F.V.",
"N.m.N.F.N.N.N.N.N.N.N.N.b.m.N.V.N.m.N.2.w W o ! ` ) ..[ ' | [..XXXI.I.I.@.7 ` ` ) 6 k Q   Q R w $.Z., d D #.F.N.V.N.N.V.F.N.N.N.",
"N.m.N.N.N.N.N.N.N.N.N.m.N.N.N.N.N.N.8.4 / ) O ! } _ ....[ _ Q &.&.+.y y /.O 6 ) k 7 W 6 j ! I C F d.; n.N.N.N.F.F.N.N.N.N.F.N.N.",
"N.N.N.N.N.N.N.N.N.N.N.N.N.N.N.N.N.0.0 ^  .) + ! |  .' ....} Q Q z V V   f   @ z > g g k Q W * u d 3 P F.N.N.N.V.N.N.N.F.N.N.N.J.",
"N.N.N.N.N.N.N.N.m.N.N.N.N.N.N.N.N.8.2 `  .) W @ ..| '  .....} Q k O O     [ -.|.l f f f Q * h.n.M.z.N.J.N.N.N.N.V.F.N.N.N.N.N.N.",
"N.N.N.N.N.N.N.N.N.N.N.N.N.N.N.m.N.8.2 (  ...~ + { ....` [ | | } z % % ^ -.-.>.*X}.l f f o F.N.N.N.N.V.F.N.N.J.N.N.N.N.N.V.F.N.N.",
"N.N.N.N.N.N.N.N.N.N.N.M.N.m.N.N.N.8.2  .' | ..~ 1 / ] | _ ) )  .T.}.=.=._._.,.&X(.l f O N.F.V.N.N.F.N.N.N.N.N.N.J.N.N.F.F.N.N.N.",
"N.N.N.N.N.N.N.m.N.N.N.N.N.N.N.N.N.t.0 ( ` [ ....E O w A { | A Q Y.*X}.T.| .._./.x k f O M.N.F.N.V.N.N.N.N.N.V.N.N.N.F.N.N.N.N.N.",
"N.N.N.N.N.N.N.N.N.N.N.N.N.N.N.N.N.m.P q  .' | | q j k 7 q q 7 W N OX$X*.' ' z R _ R f O N.N.N.N.F.N.N.F.F.N.F.N.N.N.V.N.N.N.N.J.",
"N.N.N.N.N.N.N.N.N.N.N.N.N.N.N.N.N.N.t.i / [ _ _ k Q Q Q k 8 Q Q Q N Y.m h h ^ [ ` R < O m.N.F.N.N.N.N.J.V.F.N.N.N.N.F.N.N.N.N.J.",
"N.N.N.N.N.N.N.N.N.m.N.N.N.N.m.N.M.N.2.; - 1 g = Q ! Q Q ! Q Q = 7 W E ( W ( ..[ ` R & #.N.N.N.N.N.N.N.N.N.N.N.F.N.N.N.F.N.N.N.N.",
"V.N.N.N.N.N.N.N.N.N.N.b.b.N.N.b.N.8.$   : < f f = Q ! Q ! [ | ] A 7 ' ..~ | ;.S.E f % 0.N.F.N.N.N.F.N.N.F.N.F.V.J.N.N.V.N.F.N.N.",
"N.N.N.N.N.m.m.N.N.N.N.m.b.N.N.N.g.= Q Q 6 > f f > - Q ! [ ......| Z 8 [ | Q K.K.4.f c $   * M.N.F.V.N.N.N.N.N.N.N.N.N.N.F.V.N.N.",
"N.N.N.N.N.N.N.N.N.N.N.N.N.b.N.9.1 } ~ ! Q = < f f > 6 E { Y T ..| Z 8 Q o.Q K.S.H 8 W = Q W 4 a.N.N.F.N.F.N.F.N.N.N.N.N.N.N.N.N.",
"N.N.N.N.N.N.N.N.b.m.N.b.N.b.N.o ..| ` Q Q = g f f f > % Z G Y | ( I C 8 l k p.w.s k - x Q Q k p N.N.V.N.N.N.N.N.N.N.J.N.N.N.N.J.",
"N.N.N.m.N.N.N.N.N.N.N.b.N.m.M.$ Z ` Q Q k 7 Q h f & & : & & Z ( O.:.Y 3 & & F s j Q - x Q ` R p N.N.N.N.N.V.F.N.N.N.N.N.F.V.N.N.",
"N.N.N.N.N.m.b.N.N.N.N.m.N.N.H 8 8 5 5 5 7 W Q 5 = K K K ; %   9 U $.p $ % & D = Q Q - x  .| S p N.J.N.N.N.F.N.N.F.V.N.F.N.N.N.N.",
"N.N.N.N.m.N.N.N.N.N.b.N.b.H e Q Q k k z W Q - %.8.N.N.V.9.2.2.L 1 d $.$.$ 3.t.: o.Q x - ..{ 4 t.N.N.N.N.N.N.N.N.N.F.N.N.N.N.N.N.",
"N.N.N.N.N.N.N.b.N.N.m.N.N.u z Q Q ! Q Q Q - 8.N.N.N.N.N.N.N.N.0.4 z.K.P.A.$ V.#.7 Q Q W $ @ 3 N.N.N.N.N.N.F.N.N.N.N.N.N.F.N.N.N.",
"N.N.N.N.N.N.N.N.N.b.N.V.D j Q Q Q Q ! o.6 P d.m.N.N.N.N.N.N.N.t.t P.x.i.f.X x.2.5 Q Q Q ! x 3 N.F.N.N.N.N.N.N.N.N.N.N.N.N.F.F.N.",
"b.m.N.b.b.N.b.m.N.N.N.P 0 o.o.o.o.o.o.e P u.a.v.F.V.N.N.N.V.N.N.2.d ).^.^.^.#Xz.K 7 Q Q o.x 4 N.N.N.N.N.N.N.N.N.N.N.N.N.N.V.N.N.",
"N.m.b.N.N.b.N.N.b.N.N.N.N.N.F.V.N.N.c.a.a.d.c.N.N.N.J.N.N.N.N.F.N.N.4.Q.^.@X*X{.t.J s F X.F D M.m.m.N.N.N.N.m.m.N.N.N.N.F.N.N.V.",
"N.b.N.N.m.N.N.b.N.N.b.m.N.N.m.N.N.M.a.u.a.v.N.N.N.N.N.N.J.N.N.N.N.N.N.4._.*X*X&X).0.c.i.u.p.m.M.M.m.N.N.N.N.N.N.N.N.N.N.N.N.F.F.",
"N.N.N.N.N.N.N.m.m.b.N.N.b.N.m.m.N.N.v.a.n.V.V.N.F.N.N.N.N.N.V.F.N.N.N.N.5.6.&X@X^.).r.c.a.n.N.m.v.b.N.N.N.N.m.N.N.N.N.N.F.N.N.N.",
"b.N.N.m.b.N.b.N.N.N.b.b.N.m.m.M.N.V.N.N.F.J.J.F.N.F.V.N.N.N.N.N.N.N.V.F.J.J.+X^.@X&X{.y.m.N.N.N.m.m.m.N.N.N.N.N.N.m.N.F.V.N.N.N.",
"N.N.N.N.N.N.b.m.N.N.N.N.N.N.v.v.N.V.F.N.J.J.J.F.N.N.N.N.J.N.N.N.N.F.F.N.N.N.q.+X&X*X*X#XM.N.V.N.N.v.N.N.N.F.N.m.N.N.N.N.N.N.F.N.",
"N.N.N.m.m.b.N.b.b.N.N.N.N.M.N.m.N.N.N.N.N.N.V.N.N.F.V.N.N.N.N.N.N.V.N.N.F.N.y.@X*X*X*X*Xn.N.J.N.N.N.N.N.N.F.N.N.m.N.N.N.N.F.F.F.",
"N.N.V.N.N.N.m.c.c.b.N.V.V.N.N.v.N.J.V.N.N.N.N.N.N.N.F.N.N.N.N.N.N.N.N.N.N.N.e.*X*X*X*X#XM.N.N.N.N.N.N.F.F.F.m.c.m.N.N.F.N.F.F.F.",
"J.J.J.F.N.b.m.s.p.c.J.J.M.N.N.N.N.F.F.N.J.N.J.N.V.N.J.F.F.F.V.N.N.J.N.J.e.e.*X*X*X*X{.g.m.N.N.N.N.N.F.D.J.J.c.p.j.N.N.m.m.N.F.F.",
"J.J.J.V.F.N.m.a.u.h.V.N.D.N.F.F.J.N.V.F.V.F.F.F.F.F.F.F.V.F.F.J.F.F.V.q.$X*X*X*X{.Z.y.F.N.N.N.N.N.D.D.F.D.M.h.u.k.N.F.F.F.N.F.F.",
"F.J.J.J.J.N.N.j.j.a.t.z.n.N.F.F.F.F.F.F.F.F.V.F.F.V.F.V.V.F.F.V.V.F.F.q.6.6.q.6.e.J.N.D.N.N.N.N.N.N.N.x.h.g.h.c.m.F.F.F.F.D.F.H.",
"F.F.J.J.V.F.N.N.N.a.<.9.n.M.F.F.F.V.N.J.F.V.F.V.F.F.F.F.F.F.F.N.F.V.J.F.V.F.F.N.F.V.N.N.m.N.N.N.F.N.M.z.u.9.l.J.F.F.F.J.H.H.H.H.",
"N.F.V.F.F.N.N.N.N.c.a.z.n.V.N.J.F.F.V.N.F.F.F.V.F.V.V.F.F.V.N.J.F.N.J.N.F.F.V.N.N.N.N.N.N.N.N.N.N.M.V.M.z.l.v.J.F.F.F.J.F.F.H.H.",
"N.N.V.N.m.F.F.F.F.F.N.N.N.N.N.N.V.F.F.N.V.F.J.N.N.N.F.V.F.F.F.V.N.J.F.F.V.F.V.F.F.N.N.N.N.N.N.N.V.V.V.V.V.V.V.F.J.N.F.F.F.H.H.H.",
"v.N.N.N.m.m.m.F.N.N.V.N.V.b.N.V.N.J.J.N.J.F.N.F.J.J.F.F.F.V.F.N.V.N.V.F.F.F.F.N.F.V.N.N.N.N.N.N.N.V.B.B.V.V.V.N.F.N.m.F.F.F.F.n.",
"d.m.m.m.F.m.F.k.m.m.M.b.N.V.V.N.F.N.N.F.N.V.F.F.N.V.V.F.V.F.N.J.F.F.F.F.F.V.V.F.N.N.N.N.N.N.m.N.N.V.V.B.B.B.N.N.N.m.F.F.H.m.m.f.",
"s.m.N.N.m.F.m.m.m.N.v.b.B.V.N.V.V.F.N.N.N.F.F.V.F.F.F.N.J.F.N.J.F.V.F.V.F.N.F.N.N.N.F.N.N.N.N.N.N.N.B.B.B.B.n.F.F.F.F.F.F.H.m.p.",
"d.m.N.m.N.N.F.F.m.N.b.B.B.B.V.N.N.F.F.F.F.F.F.N.F.J.N.F.V.F.F.N.V.N.F.F.J.J.N.V.N.N.N.N.N.N.N.N.N.B.V.B.N.N.N.F.F.m.F.F.k.m.k.k.",
"k.m.N.N.N.F.F.m.N.b.B.B.B.B.V.N.N.F.N.F.F.N.F.J.J.F.F.J.F.J.F.J.F.J.N.V.N.N.F.F.N.N.V.F.N.V.N.N.V.N.B.N.m.m.F.F.H.F.F.m.F.F.k.f.",
"f.F.F.N.N.m.N.N.N.N.B.B.b.B.N.V.N.F.F.F.N.F.F.F.J.F.J.N.F.F.J.N.F.J.J.N.V.F.N.J.J.N.F.V.N.N.N.N.N.V.N.N.F.F.m.H.m.H.F.m.m.F.D.f.",
"C.D.F.N.N.N.N.N.N.b.b.B.B.V.b.N.N.F.N.N.F.F.N.F.F.F.J.F.J.F.F.J.N.N.N.F.F.F.V.N.F.N.N.N.N.N.N.N.N.N.b.b.m.m.H.m.H.m.F.n.F.D.h.w."
};
