/* XPM */
static char *result[] = {
/* columns rows colors chars-per-pixel */
"64 64 199 2 ",
"   c #151B1C",
".  c #1B1D1E",
"X  c #1E221E",
"o  c #26231F",
"O  c #1F1E20",
"+  c #1C2122",
"@  c #292824",
"#  c #23252A",
"$  c #352926",
"%  c #3C272F",
"&  c #3A3123",
"*  c #2C2C34",
"=  c #372D36",
"-  c #243437",
";  c #333439",
":  c #4E2429",
">  c #58272A",
",  c #4B3B27",
"<  c #47392C",
"1  c #513D26",
"2  c #523D29",
"3  c #563A2C",
"4  c #402730",
"5  c #422931",
"6  c #4A2A35",
"7  c #562E3A",
"8  c #5B2F3D",
"9  c #53313F",
"0  c #5D313D",
"q  c #683B2C",
"w  c #662A34",
"e  c #6E2E35",
"r  c #554129",
"t  c #5A422A",
"y  c #4D4731",
"u  c #68492D",
"i  c #664530",
"p  c #725031",
"a  c #7A5535",
"s  c #3B3643",
"d  c #553949",
"f  c #653242",
"g  c #6B3445",
"h  c #683A4C",
"j  c #703647",
"k  c #743649",
"l  c #79384A",
"z  c #763E52",
"x  c #3B5860",
"c  c #48474A",
"v  c #57584E",
"b  c #545859",
"n  c #675543",
"m  c #6F6359",
"M  c #486C77",
"N  c #7D6C7C",
"B  c #972F3B",
"V  c #A3303D",
"C  c #835C35",
"Z  c #A65C39",
"A  c #8D6237",
"S  c #98673A",
"D  c #A16D3D",
"F  c #A8693C",
"G  c #A4713F",
"H  c #CF4B34",
"J  c #D1753D",
"K  c #E46D3A",
"L  c #E5703C",
"P  c #89394B",
"I  c #863B52",
"U  c #8E3E56",
"Y  c #923E56",
"T  c #A83341",
"R  c #B63546",
"E  c #A63D53",
"W  c #AA3C53",
"Q  c #B23C52",
"!  c #BD3B50",
"~  c #C63B4F",
"^  c #CC3A4E",
"/  c #D23749",
"(  c #D23A4D",
")  c #DE394C",
"_  c #C33B50",
"`  c #E0394C",
"'  c #95484F",
"]  c #925147",
"[  c #954154",
"{  c #AF484A",
"}  c #987A54",
"|  c #AA7542",
" . c #B47B44",
".. c #AA7251",
"X. c #984E65",
"o. c #8A7E73",
"O. c #BF6779",
"+. c #D35551",
"@. c #E24E4D",
"#. c #E14254",
"$. c #E37645",
"%. c #CA5468",
"&. c #C17E61",
"*. c #DC8A3C",
"=. c #E38E3F",
"-. c #BC8146",
";. c #A78559",
":. c #BC9057",
">. c #988669",
",. c #8F8973",
"<. c #BD8F64",
"1. c #BC9C7B",
"2. c #C4864A",
"3. c #CD8C4C",
"4. c #DA8847",
"5. c #D9944F",
"6. c #C78D55",
"7. c #C38D5C",
"8. c #D08F54",
"9. c #D59455",
"0. c #DB9553",
"q. c #DD935A",
"w. c #EB8E4E",
"e. c #E49143",
"r. c #E69749",
"t. c #EC944C",
"y. c #ED9A4C",
"u. c #F0974D",
"i. c #F19D4E",
"p. c #E79555",
"a. c #EF9352",
"s. c #E59C55",
"d. c #ED9E52",
"f. c #F19E50",
"g. c #F09954",
"h. c #EDA14F",
"j. c #EEA254",
"k. c #EDA25A",
"l. c #F5A354",
"z. c #F9A656",
"x. c #F5AA57",
"c. c #F9AE56",
"v. c #F4A55A",
"b. c #FBA65A",
"n. c #F6A95D",
"m. c #FEAC5D",
"M. c #F9B056",
"N. c #FCB15B",
"B. c #CA936B",
"V. c #D49865",
"C. c #EAA666",
"Z. c #F6AA64",
"A. c #FEAD61",
"S. c #F4AC6B",
"D. c #FEAE69",
"F. c #E8BD6E",
"G. c #F0B466",
"H. c #FFB162",
"J. c #FCB26A",
"K. c #EFC170",
"L. c #F1C471",
"P. c #537D8A",
"I. c #84748B",
"U. c #B67B8C",
"Y. c #E77D8C",
"T. c #5D8D9D",
"R. c #6395A7",
"E. c #7E9BA9",
"W. c #75A5B4",
"Q. c #7CA9B5",
"!. c #7BADC3",
"~. c #78B3C7",
"^. c #79B8CE",
"/. c #829794",
"(. c #919090",
"). c #BF9D83",
"_. c #A68696",
"`. c #AEBBBE",
"'. c #B7B1B8",
"]. c #C5AA97",
"[. c #CEB4B0",
"{. c #EBA3AF",
"}. c #F1CB88",
"|. c #D5C3BC",
" X c #F2DABA",
".X c #DABBC7",
"XX c #97C4D7",
"oX c #98C5D7",
"OX c #B8D2E0",
"+X c #D9CCCF",
"@X c #F2DCC0",
"#X c #E6DADA",
"$X c #CBDAE6",
"%X c #EDDFE4",
"&X c #DCE1EB",
"*X c #EDE3E3",
"=X c #EBE3EB",
"-X c #F2E7E8",
";X c #F2EAF1",
/* pixels */
"V.C.C.A.m.m.m.c.m.N.H.D.D.H.D.A.A.A.b.A.A.A.A.m.A.b.A.A.A.A.A.A.m.m.m.m.m.m.m.m.A.N.A.m.m.A.N.A.m.m.N.m.m.m.N.N.m.m.A.H.Z.Z.S.V.",
"C.S.Z.A.A.m.m.m.N.m.A.D.D.A.H.A.A.A.A.A.A.A.A.A.A.A.A.A.b.A.A.m.m.m.m.m.A.m.A.m.m.m.m.m.m.m.m.m.m.m.N.m.c.m.N.m.c.N.N.m.H.Z.Z.C.",
"S.D.D.A.A.m.m.N.N.A.H.A.D.A.A.H.m.A.m.A.m.A.b.A.b.A.A.A.A.A.A.m.m.m.m.A.m.m.m.m.m.m.m.N.N.m.m.m.m.m.m.m.N.N.N.n.H.A.m.m.m.A.b.Z.",
"D.D.A.A.A.N.m.m.A.H.A.H.A.A.A.A.A.A.A.A.A.A.A.A.A.A.A.m.m.A.A.A.A.m.m.m.A.m.A.N.m.m.A.m.A.m.A.m.m.c.m.M.m.N.N.A.m.N.m.m.b.m.m.A.",
"J.D.A.A.m.H.m.A.H.A.m.A.A.A.A.m.A.A.A.m.A.m.A.A.A.A.A.A.A.b.A.A.m.m.m.m.m.m.N.A.m.m.m.m.m.A.m.m.m.c.m.c.m.m.m.N.Z.m.m.m.A.b.b.m.",
"H.H.H.m.m.m.b.m.m.m.H.H.A.A.A.A.A.A.A.A.A.A.A.A.A.A.m.A.A.A.A.b.m.A.N.A.m.m.m.A.m.z.z.m.m.N.m.m.m.m.m.m.m.m.m.m.N.A.A.A.m.b.z.m.",
"m.m.m.m.b.l.i.z.m.m.A.A.A.A.m.A.A.b.A.A.b.A.A.A.A.A.A.A.A.A.A.A.A.m.m.m.N.m.m.m.l.y.y.l.m.A.m.m.m.m.m.m.m.m.m.m.m.A.A.A.A.b.b.m.",
"m.m.m.m.z.y.r.i.z.b.m.m.m.m.A.A.A.A.b.A.b.A.b.A.A.b.A.A.A.A.m.m.m.m.m.m.A.A.m.m.f.e.e.f.m.m.H.m.m.m.m.m.m.m.m.m.N.m.m.A.A.m.A.m.",
"m.m.m.A.b.l.f.i.y.l.m.m.m.m.m.m.A.b.A.b.A.A.m.A.m.A.m.A.A.m.A.m.N.A.m.m.A.m.m.m.b.f.y.y.y.l.N.A.A.A.b.Z.A.b.m.m.m.m.m.m.m.A.A.A.",
"m.m.m.m.m.m.b.t.=.u.b.b.z.z.b.m.m.A.A.A.A.b.m.A.A.A.A.A.A.A.A.A.A.m.m.m.m.m.m.m.N.m.l.e.*.y.A.m.A.b.D.Z.A.A.m.m.m.m.m.m.A.A.A.A.",
"m.N.A.m.m.A.m.f.u.l.m.m.b.b.A.A.b.A.A.b.A.b.A.A.m.A.A.m.m.m.A.m.m.m.m.A.N.A.A.m.m.m.b.y.y.l.N.A.A.b.A.Z.A.A.m.m.m.b.m.m.A.A.A.A.",
"A.m.N.m.m.A.A.b.z.m.A.m.b.m.b.m.A.A.m.m.m.m.m.m.m.m.m.A.m.m.m.m.m.m.A.N.m.m.m.A.m.m.m.m.b.m.A.A.A.A.A.D.A.D.m.m.m.m.m.m.A.A.m.m.",
"H.H.n.H.A.m.m.m.m.A.H.A.A.n.A.A.m.A.m.m.m.m.A.N.m.A.m.m.N.A.m.A.m.A.A.m.A.m.A.N.m.H.A.m.m.H.N.A.A.A.D.A.A.A.m.m.m.m.m.m.b.A.m.m.",
"Z.H.A.N.A.b.b.b.b.A.H.H.A.m.A.m.m.A.m.m.m.m.m.m.m.m.m.m.m.m.m.m.m.m.N.m.m.m.m.m.m.m.m.m.m.m.m.A.A.A.A.D.D.A.A.m.m.m.m.A.A.A.m.m.",
"Z.H.Z.N.b.b.b.b.b.A.H.A.H.m.m.m.A.A.b.z.b.m.m.m.m.m.m.A.m.A.A.N.N.m.m.m.m.N.A.m.m.m.m.m.m.m.m.A.A.A.A.A.m.m.b.z.b.N.m.m.m.m.m.m.",
"H.A.A.A.m.m.b.b.m.A.A.N.n.m.n.m.N.H.l.r.l.b.m.m.A.m.m.m.m.m.m.m.A.m.A.m.m.A.m.m.m.m.N.A.m.m.m.m.A.A.A.A.m.m.f.r.f.m.m.A.m.m.m.m.",
"A.m.A.A.m.A.b.A.m.A.m.m.b.m.m.m.A.n.j.=.y.b.m.m.m.N.m.m.m.m.m.A.m.m.m.H.m.m.m.A.m.m.A.m.A.N.m.m.A.b.A.A.b.n.r.*.u.m.A.m.A.m.N.A.",
"A.A.A.A.m.b.b.A.A.m.m.m.A.b.c.b.j.h.y.j.x.m.A.N.m.m.m.n., , 2 N.m.m.m.m.m.m.A.N.m.m.m.A.m.m.A.m.b.A.m.b.l.y.y.y.l.m.N.A.m.m.m.m.",
"m.Z.m.b.A.b.A.A.A.2.a c.m.m.b.l.e.*.y.m.A.H.m.m.m.m.j.; -X-X#X* | A.m.m.m.H.m.m.H.m.m.N.m.m.m.m.m.m.m.l.e.*.y.m.m.N.m.m.A.N.m.m.",
"A.m.b.m.b.A.b.A.A.- M 3.m.m.m.z.f.y.l.N.N.A.N.m.m.5.m  XL.L.L. X(.S m.m.m.m.m.m.m.m.m.m.m.A.A.N.m.m.A.b.i.y.l.m.m.m.m.m.m.m.A.m.",
"A.b.b.A.A.b.A.A.u R.M 3.m.m.m.m.m.A.A.N.A.m.m.m., $ 1.F.y y L.L.}.'.A N.N.A.m.A.m.m.H.m.m.m.m.A.m.A.m.m.m.b.m.H.N.m.m.m.m.A.m.m.",
"A.A.A.b.A.A.A.b.& ^.P.-.m.m.m.H.H.H.N.N.N.m.A . U 7 X X [ [ o L.L.*X. G m.N.m.m.m.m.m.m.A.m.m.m.m.m.H.A.N.m.N.H.A.H.m.m.m.m.N.m.",
"b.A.A.m.m.A.A.A.& ^.^.M S 3.N.A.m.| G m.m.s.6 Y 8 f { { K K q L.L.K.0 0 D -.m.m.A.m.m.m.N.A.A.m.m.m.H.A.H.m.H.m.m.m.m.m.m.m.A.m.",
"m.b.b.A.m.A.A.b.2.x ^.^.T.b r t | S F 1 1 1 l 6 T E ) @.K K L L.L.K.Q Y g 0 2.m.m.A.N.m.m.m.m.m.A.m.m.N.A.H.m.m.A.m.m.H.m.m.m.A.",
"b.b.m.m.m.m.m.m.m.9.. R.!.~.^.W.a a.4.6 U O 8 j ( Q ` %X#.#.-XL.L.K.` W Y U % m.m.m.m.m.m.m.A.m.m.A.m.m.H.m.A.N.m.m.A.m.m.m.A.m.",
"m.m.m.m.m.m.m.m.m.m.m.C u v P.P.R.V.4.6 [ . 8 j ) W ` L.@X@XL.w.G.B.) W ) Y 0 S D 0.m.m.m.m.N.m.A.N.m.m.m.A.m.m.N.m.N.A.m.m.A.N.",
"m.m.m.m.m.m.b.m.m.m.m.m.m.0. .D n p.3 P U . 8 j ) ! ( ..L.L.F.G.&.Y ^ ! ) U [   l q r m.m.m.m.m.m.m.m.H.m.m.m.m.A.m.m.m.m.m.m.m.",
"m.A.m.m.m.m.m.m.b.m.m.m.m.m.m.0.p w.$ H E I . j Y ! % #     U U Y ) ~ ~ ) W W   W ` Y 2 m.m.m.A.m.m.m.m.m.m.m.A.m.A.m.m.m.A.m.m.",
"m.m.m.m.m.m.m.m.m.m.m.b.m.m.m.m. .u l.i P Y d * f f   /.O b O U U U ! ) _ ! W   W ) Y V | m.A.N.m.A.m.m.m.m.N.m.A.N.m.m.N.A.m.m.",
"m.m.m.m.m.m.m.m.m.m.m.m.m.m.m.m.m.m.b.5.1 % s s k U.T     c O U Q ^ ` ! ~ ` e g ( ` Y V G A.m.m.A.N.m.m.A.m.A.m.A.m.m.m.A.m.m.m.",
"m.m.m.m.m.m.m.m.m.b.m.m.m.m.m.m.m.m.m.m.m.s.# s ;X{.) ( P   O W ` ) _ ~ ` ` > U ) ` Y V G m.m.m.m.m.A.m.m.m.N.A.m.m.m.m.m.m.m.H.",
"m.m.m.m.m.m.m.m.m.m.m.m.m.c.m.m.m.m.m.b.m.r.# s '..XU._.%.O.=XU E W _ ` V e P ` ) W ) V G m.m.A.m.A.N.m.m.m.A.m.m.m.H.m.m.m.m.m.",
"m.m.m.m.m.m.m.m.m.m.m.m.m.m.m.m.m.m.m.m.m.s.# s z N %.) U.#X=Xh w ` R : g 7 T ` E ! ) q 0.A.9.8.N.m.N.A.m.N.A.m.m.m.m.N.A.A.m.m.",
"m.m.m.m.m.m.b.m.m.b.m.m.c.m.b.m.m.c.b.m.m.s.# s K h k [ U.;Xs [ U   5 U Y U % U ) ) O A.m.m.6.7.A.A.m.m.m.m.m.A.m.m.m.m.m.m.m.m.",
"m.m.m.m.m.m.m.m.m.c.c.m.m.b.m.m.m.c.m.c.m.l.< ; +.Q P k d j I l f U U U U U U O s + + 2.m.m.;X<.A.N.m.m.m.m.m.m.A.m.m.A.m.m.N.A.",
"m.m.m.m.b.m.m.m.m.m.m.m.c.m.c.m.m.m.b.m.m.m.S ; l +.#.` W ` ' w B ~ Q U U U 7 * s s # @ 2.).[.s.m.m.m.A.m.H.m.m.N.A.m.m.m.m.A.m.",
"m.m.m.m.m.m.m.m.m.m.b.c.b.c.m.m.b.m.c.m., . 6 d c K.K.Y ` W . ) ` ` ` W U f * s s # U U 5 =X].D.m.A.m.A.m.N.A.m.m.A.m.m.m.m.m.m.",
"m.m.m.m.m.m.m.b.m.m.m.m.m.m.m.c.c.m.z.p l I 6 I o l.G.Y [ l > ( ` ` ` R g * s s * w U X..X;X2.D.m.m.m.m.m.A.m.m.A.N.m.m.H.m.m.m.",
"m.m.m.m.m.m.m.m.m.c.b.c.m.c.c.m.c.m.s.6 U U 8 j 0 S t.4 5 e H { ( ) > = * s s s 9 f U +X;XY.< ;.n.m.m.m.m.m.m.A.m.m.m.m.m.m.m.H.",
"m.m.m.m.m.m.m.m.m.m.m.m.b.m.m.m.m.m.r.w ) Y 8 k Y 0 . s * F w.$.E O s O O   * U U 4 %X;XU.# s ^.v.m.m.m.m.A.m.N.m.m.H.m.m.m.m.m.",
"m.m.m.m.m.m.m.m.m.m.m.m.b.m.m.m.m.b.d.q / ) 7 l [ f  .r @ r r Z 3 2 t 2.m.m.A t k [.;X_.% I I.^.v.m.m.m.m.m.m.A.m.A.m.A.m.m.m.H.",
"m.b.m.b.c.m.b.m.c.m.c.m.m.c.N.H.m.m.c.S : > k U I i s.u :.G.G.u  .m.m.m.m.m.A.N.a b U.Y U U ^.P.k.m.m.m.A.m.m.m.m.m.m.m.m.m.m.m.",
"c.m.c.m.m.m.m.m.m.b.m.m.m.m.N.H.N.H.m.S j U U U I p m.o t.a.L.;. .m.m.m.m.A.m.m.l.t U U U !.^.o.o m.m.m.m.m.m.m.m.m.m.m.A.N.m.m.",
"m.m.m.m.m.c.m.c.m.m.c.c.c.m.H.H.H.N.b.A j U U k t N.8.^.^.^.B.A N.m.m.m.m.N.9.=Xl.d., ' E.^.o.] ] a m.m.m.m.m.m.m.m.m.m.A.m.m.m.",
"m.m.m.m.b.m.c.m.m.m.c.b.m.c.m.m.A.m.j.J S F | F m.6.Q.^.^.^.~.N.A.m.m.m.m.9.+X-Xb.l.f./.~...m.m.m.m.m.m.m.m.b.b.m.m.m.m.m.m.m.A.",
"c.c.b.c.c.m.b.m.c.b.m.m.m.m.b.m.m.c.h.e.u.b.m.m.v.!.~.^.^.^.^.,.m.m.A.).m.7.;X;XA.m.Q.^.} y.b.z.z.z.m.m.m.m.m.m.m.m.m.m.m.m.N.m.",
"m.m.m.m.c.b.m.c.m.m.c.m.m.m.m.b.m.n.l.i.l.Z.A.9.^.^.^.^.^.^.^.^.>.2.OX;X8.;X;Xm.k./.~.} y.l.m.m.z.b.m.m.m.m.m.b.m.b.m.A.m.A.A.m.",
"m.m.m.m.m.m.m.m.c.m.m.m.m.z.c.b.A.N.m.m.m.n.1.`.^.^.^.^.^.^.^.^.^.$X;X;X;X;X).m.:.,.;.b.c.m.N.m.m.z.b.m.m.m.m.m.m.m.m.N.m.m.m.m.",
"m.m.m.m.m.c.c.b.c.m.m.m.m.m.b.b.m.N.A.m.H.#X;XoX^.^.^.^.^.^.^.oX=X;X;X;X;X].b.N.n.n.m.c.m.m.N.m.b.z.m.m.m.m.m.m.m.m.m.m.m.A.m.m.",
"m.m.m.m.m.b.m.m.m.m.m.m.c.m.c.z.m.m.m.m.m.;X;X;XoXXXXXXXXXXX;X;X;X;X;X;X].N.9.6.c.b.b.b.b.m.H.m.m.m.m.m.A.A.m.b.A.b.m.m.m.A.A.A.",
"m.A.m.m.m.m.b.z.l.c.N.A.A.m.b.m.m.H.m.m.m.;X;X;X;X;X;X;X;X;X;X;X;X;X;X).A.>.E.^.m.b.b.b.c.A.m.m.m.m.m.A.A.A.b.l.b.m.m.m.m.A.A.A.",
"H.N.m.m.m.c.z.u.e.l.H.H.Z.b.m.m.m.m.H.m.m.9.;X;X;X;X;X;X;X;X;X;X;X;X$XQ.Q.^.^.s.m.m.m.m.b.m.m.m.n.m.A.Z.H.D.f.y.f.m.b.m.m.b.m.D.",
"H.H.H.A.m.m.z.y.4.j.n.m.n.n.A.H.m.H.m.m.H.m.6.[.;X;X;X;X;X;X;X;X&X$X^.^.^./.6.m.m.m.m.m.m.m.m.m.m.A.A.Z.A.Z.d.e.g.m.m.m.b.b.Z.H.",
"A.D.H.H.H.m.b.z.h.y.r.h.n.m.m.A.H.m.m.H.m.m.m.N.<.<.|.;X;X;X;X&XXX^.E.;.;.A.A.m.m.m.m.m.b.m.m.m.A.n.n.n.k.r.d.l.b.A.A.m.A.D.D.D.",
"m.H.H.H.H.m.m.m.m.y.*.5.v.n.A.H.H.m.A.A.N.A.A.A.m.H.k.s.k.s.s.s.s.s.j.m.A.N.H.m.A.m.m.m.m.m.m.b.m.N.Z.j.5.*.h.A.A.A.H.D.D.D.H.D.",
"m.A.m.N.m.m.m.A.m.l.y.f.n.m.A.m.A.A.N.A.N.A.N.A.A.m.m.m.m.A.H.A.H.m.A.N.A.N.m.m.m.m.m.m.m.m.m.m.m.n.N.x.h.h.x.H.A.A.A.A.A.H.D.D.",
"N.m.m.b.m.A.b.A.A.m.m.N.m.m.N.m.A.A.N.N.A.A.N.A.m.m.A.N.H.A.m.A.A.H.A.A.N.N.A.m.A.m.m.m.m.m.m.m.c.N.N.N.N.N.N.H.H.m.A.A.A.D.D.D.",
"z.c.m.m.m.g.A.A.m.m.m.m.c.m.m.m.N.A.A.A.A.N.A.A.H.H.A.A.m.A.N.A.m.m.A.N.A.A.H.m.m.A.m.m.m.m.m.m.m.N.M.M.N.N.N.A.m.m.A.A.A.A.A.v.",
"i.m.m.m.b.b.g.A.m.b.z.c.M.m.N.N.m.A.A.m.A.N.A.A.m.m.N.A.m.H.m.N.H.A.A.m.N.A.m.m.m.N.m.m.m.m.m.m.m.N.M.M.M.M.c.A.A.b.A.b.A.D.Z.a.",
"u.b.b.m.m.A.A.b.b.m.c.c.M.N.N.m.N.A.m.m.m.A.A.N.m.H.A.m.H.m.H.A.m.N.m.H.A.m.H.m.m.m.m.m.m.m.m.m.m.N.N.N.M.M.b.m.A.A.A.A.A.A.g.w.",
"u.b.m.m.b.m.A.A.m.c.c.c.M.N.m.N.m.A.m.A.m.A.m.H.H.H.m.A.m.H.m.m.N.A.A.A.A.A.m.H.m.m.m.m.m.m.m.m.m.N.m.M.c.m.m.A.Z.A.A.b.b.b.v.a.",
"a.b.m.m.m.A.A.b.m.m.M.M.M.M.c.m.m.A.A.A.A.A.A.A.A.A.A.H.H.A.A.H.A.A.N.N.N.A.N.m.A.m.m.H.m.m.N.m.m.M.c.N.m.m.Z.A.Z.A.A.m.b.A.g.p.",
"p.A.A.m.m.m.m.m.m.m.M.M.M.M.N.m.m.A.m.A.A.A.A.A.H.A.A.H.H.A.A.m.A.m.A.A.A.N.A.A.N.A.m.A.m.m.m.m.m.N.m.c.b.A.A.b.b.D.A.b.b.b.v.p.",
"q.Z.A.b.m.b.m.m.m.c.M.M.M.M.m.m.m.A.A.A.A.m.m.A.A.m.H.A.A.A.H.H.m.H.A.N.A.m.H.m.A.m.m.N.m.m.m.m.m.m.c.m.b.b.Z.Z.Z.Z.A.m.n.b.C.8."
};
