/* XPM */
static char *result[] = {
/* columns rows colors chars-per-pixel */
"64 64 190 2 ",
"   c #151C1C",
".  c #1B1D1D",
"X  c #1F211E",
"o  c #25241D",
"O  c #1F1E20",
"+  c #201F21",
"@  c #281E20",
"#  c #1A2121",
"$  c #292624",
"%  c #222529",
"&  c #2C2E2B",
"*  c #352023",
"=  c #34242A",
"-  c #3B262E",
";  c #3A362A",
":  c #2B2C33",
">  c #362C34",
",  c #33313B",
"<  c #4A2828",
"1  c #5C262D",
"2  c #57292C",
"3  c #4C3B27",
"4  c #4A3A2A",
"5  c #543D2A",
"6  c #563C2A",
"7  c #422730",
"8  c #462932",
"9  c #4B2B35",
"0  c #592D3A",
"q  c #583A30",
"w  c #5D303E",
"e  c #643B2B",
"r  c #672A35",
"t  c #6D2C35",
"y  c #564129",
"u  c #5A422B",
"i  c #4F4632",
"p  c #554A33",
"a  c #62482C",
"s  c #6A4D2E",
"d  c #6C4B30",
"f  c #704E3B",
"g  c #775432",
"h  c #2B3F45",
"j  c #3B3643",
"k  c #533848",
"l  c #653342",
"z  c #6D3546",
"x  c #693A4E",
"c  c #75374A",
"v  c #78374B",
"b  c #703B4F",
"n  c #7B3C52",
"m  c #32494F",
"M  c #3A565F",
"N  c #3B5861",
"B  c #5B5345",
"V  c #50564F",
"C  c #5F4151",
"Z  c #625446",
"A  c #736F76",
"S  c #6F7071",
"D  c #9A2F3B",
"F  c #913532",
"G  c #A1303D",
"H  c #825B36",
"J  c #AF5E3B",
"K  c #8D6339",
"L  c #9C6335",
"P  c #93673A",
"I  c #97693A",
"U  c #9B6C3D",
"Y  c #A26D3D",
"T  c #AC6C3F",
"R  c #A5713F",
"E  c #CF4B35",
"W  c #E46D3A",
"Q  c #E4703C",
"!  c #86384B",
"~  c #963749",
"^  c #843B51",
"/  c #8F3E56",
"(  c #923E55",
")  c #9A3D55",
"_  c #A93343",
"`  c #B63545",
"'  c #A43D54",
"]  c #AC3C52",
"[  c #B43C52",
"{  c #BB3B51",
"}  c #C73546",
"|  c #C63B4F",
" . c #CD3A4E",
".. c #D23A4E",
"X. c #DC394C",
"o. c #C23B50",
"O. c #DD3D50",
"+. c #E0394C",
"@. c #8E4C42",
"#. c #954A4D",
"$. c #A5424C",
"%. c #B04F4E",
"&. c #957E4D",
"*. c #99785B",
"=. c #A67141",
"-. c #AA7441",
";. c #B07246",
":. c #B37B44",
">. c #AC645E",
",. c #915A67",
"<. c #E14747",
"1. c #E25941",
"2. c #E57350",
"3. c #C65064",
"4. c #D7883C",
"5. c #DD8B3C",
"6. c #E38E3F",
"7. c #BA8047",
"8. c #AF8D55",
"9. c #C18243",
"0. c #C58649",
"q. c #D48A43",
"w. c #DD8E41",
"e. c #D38D53",
"r. c #DC9552",
"t. c #DD935A",
"y. c #EC8F4E",
"u. c #E49143",
"i. c #E6974A",
"p. c #ED934C",
"a. c #ED9A4C",
"s. c #F0974D",
"d. c #F19D4E",
"f. c #EF9452",
"g. c #E59854",
"h. c #EC9E53",
"j. c #F19E50",
"k. c #EEA253",
"l. c #E8A15B",
"z. c #F5A354",
"x. c #F9A656",
"c. c #F5AA57",
"v. c #F9AE56",
"b. c #F4A55A",
"n. c #FBA65A",
"m. c #F7A95C",
"M. c #FEAD5E",
"N. c #F9B056",
"B. c #FBB15A",
"V. c #CE9467",
"C. c #D49762",
"Z. c #EAA666",
"A. c #F6AA64",
"S. c #FEAD61",
"D. c #F4AC6B",
"F. c #FEAE69",
"G. c #ECBB6F",
"H. c #F0B366",
"J. c #FFB062",
"K. c #F8B369",
"L. c #EDC16F",
"P. c #F1C471",
"I. c #577E8A",
"U. c #B07B8E",
"Y. c #71888F",
"T. c #6495A6",
"R. c #669BAE",
"E. c #6BA2B6",
"W. c #70ABBF",
"Q. c #75B1C7",
"!. c #79B8CE",
"~. c #908C8E",
"^. c #9A989C",
"/. c #B3A692",
"(. c #9694A9",
"). c #9FA0AE",
"_. c #A5A2A7",
"`. c #BAB6BB",
"'. c #EBA9B4",
"]. c #F0CEB1",
"[. c #89B2C5",
"{. c #D6B9C5",
"}. c #99C5D7",
"|. c #B8CAD6",
" X c #DFD9DF",
".X c #E2C3CE",
"XX c #E7E5EE",
"oX c #EDE5EC",
"OX c #F2E7E7",
"+X c #F2EAF1",
/* pixels */
"C.Z.Z.S.S.M.M.M.v.M.S.F.F.F.S.J.S.M.S.M.S.S.n.S.S.S.S.M.S.M.S.S.M.M.M.M.S.M.B.S.B.S.S.M.M.M.M.M.B.M.M.B.B.B.B.M.M.M.M.J.J.D.Z.C.",
"Z.D.A.S.M.M.M.v.B.J.J.F.S.J.F.S.S.S.S.S.n.S.S.S.S.S.S.S.S.S.S.n.M.S.M.M.M.M.M.M.M.M.M.M.M.S.M.M.S.M.M.M.m.M.M.B.M.B.S.B.S.A.A.Z.",
"D.F.F.S.S.M.M.M.B.S.J.S.S.F.J.M.S.S.n.S.S.S.S.S.S.S.S.n.S.S.S.S.M.M.M.M.M.M.S.M.M.M.M.M.M.M.M.M.M.M.B.M.B.M.m.B.B.S.M.M.S.S.S.A.",
"K.F.S.S.S.S.B.B.S.J.J.S.S.S.S.S.S.S.S.S.S.S.S.M.S.S.S.S.S.S.n.M.M.M.S.M.J.M.M.M.M.S.M.M.B.S.S.M.M.v.M.v.M.B.B.S.M.B.M.M.n.n.M.S.",
"F.F.J.M.S.M.M.S.J.S.B.S.S.S.J.M.S.S.S.S.S.S.S.M.S.M.S.S.n.S.S.M.M.S.M.M.M.M.M.M.M.M.M.M.S.B.M.M.M.v.M.v.M.M.M.B.H.M.M.M.M.n.n.M.",
"J.S.S.M.M.M.n.M.M.S.S.S.S.S.S.S.S.S.S.M.S.n.S.S.S.S.S.M.S.S.S.S.B.M.M.M.M.M.M.M.n.x.c.M.M.S.M.M.M.M.M.M.M.M.M.M.M.S.S.S.M.n.x.M.",
"J.M.M.M.n.z.j.x.M.M.S.S.S.S.M.S.S.n.S.n.S.n.S.S.n.S.S.S.S.M.S.S.S.M.S.M.M.M.J.M.x.a.a.x.M.M.S.M.M.M.M.M.M.M.M.M.M.M.M.S.S.n.M.M.",
"M.M.M.M.x.a.i.d.x.x.M.M.M.M.S.S.S.M.S.S.S.S.S.S.S.S.S.S.S.S.S.n.M.M.S.B.M.M.M.M.d.u.u.j.M.M.B.M.M.M.M.M.M.M.M.M.M.M.S.S.S.S.n.M.",
"M.M.M.M.n.x.j.j.s.z.M.M.M.M.M.M.S.S.S.S.M.S.n.S.M.S.S.S.M.S.S.M.S.M.M.B.M.M.M.S.x.j.a.a.a.x.M.M.S.n.n.A.S.S.n.M.M.M.M.M.M.S.S.S.",
"M.M.M.M.M.n.n.s.6.d.n.n.x.n.M.n.n.S.n.S.S.n.M.S.S.S.M.S.S.S.S.M.M.M.S.S.M.S.M.M.B.S.z.u.5.a.M.M.S.A.F.A.S.S.M.M.M.M.M.M.S.S.S.S.",
"M.M.B.S.M.S.n.j.d.j.M.M.n.n.n.S.S.S.M.M.S.n.S.S.n.S.S.M.M.S.S.S.M.M.M.M.S.M.M.M.M.S.x.d.a.z.M.S.S.S.A.A.S.S.M.M.M.M.M.M.n.S.S.n.",
"S.B.S.M.M.S.S.M.x.M.S.S.S.n.M.S.n.S.M.M.M.M.M.M.M.S.M.M.M.M.S.B.S.M.M.M.B.M.M.M.S.B.M.n.n.M.J.M.S.S.S.S.F.S.M.M.M.v.M.M.S.S.S.S.",
"S.A.B.B.M.M.M.n.M.S.J.B.M.M.S.n.S.M.n.M.M.M.M.S.M.M.S.M.M.M.M.M.B.S.M.M.M.M.M.J.M.J.S.S.M.M.M.J.S.S.S.S.S.S.S.M.M.M.M.M.S.S.M.M.",
"K.S.S.S.S.M.n.n.n.S.J.J.S.m.S.S.M.S.S.M.M.M.M.M.M.M.M.M.M.M.M.M.M.M.S.S.M.M.M.M.M.M.B.M.M.M.S.S.S.S.S.F.S.S.S.M.M.M.M.M.S.S.M.M.",
"S.H.A.M.n.n.n.n.M.M.J.A.S.M.M.S.S.S.M.x.x.M.S.M.M.M.M.M.B.M.M.M.M.M.M.B.S.S.M.S.M.M.M.M.M.M.S.S.S.S.S.S.F.M.v.x.v.M.M.S.M.M.M.M.",
"S.S.J.S.M.S.n.n.n.S.S.M.M.S.B.m.B.S.z.i.z.n.B.M.M.M.S.M.M.M.M.M.M.S.M.M.M.B.M.M.M.M.M.M.M.M.M.B.S.S.S.S.S.n.d.i.d.M.M.M.M.M.M.M.",
"M.S.S.S.M.S.n.S.S.n.S.M.n.M.M.n.B.J.k.u.a.n.M.M.n.P P I M.B.M.M.S.M.B.M.M.M.M.M.S.B.M.M.M.M.S.S.S.n.S.S.n.x.i.5.a.M.S.S.M.M.M.M.",
"M.S.S.n.n.S.n.S.M.M.S.M.M.M.M.c.k.a.a.z.z.M.B.M.5 `.`.`.4 0.M.M.M.M.S.M.B.M.M.M.S.M.M.S.M.M.M.B.n.S.n.n.z.a.a.a.x.M.B.M.M.M.B.M.",
"S.n.S.S.n.M.S.S.S.M.M.M.n.M.n.z.u.4.a.M.S.S.m.p OXP.P.P.OXS a.M.M.M.M.S.S.S.M.J.M.M.M.M.M.S.M.M.M.M.S.z.u.5.a.M.M.M.J.M.M.M.S.M.",
"M.S.n.S.S.S.=.n.S.n.M.M.M.M.M.n.k.a.z.B.S.I a /.L.&.&.P.P.].S 7.M.M.M.M.M.M.M.M.M.M.M.M.S.B.M.M.M.M.S.n.a.a.x.M.M.M.M.M.M.M.M.S.",
"S.n.S.S.n.d Y.=.S.M.n.M.M.M.M.M.M.S.S.;.3 z 9 ; i c z p P.P.oX$ 5 S.S.n.M.S.M.M.M.M.B.S.S.M.M.M.M.S.B.S.M.n.M.J.J.M.S.B.M.M.M.M.",
"S.S.n.n.b.; R.g M.S.M.M.M.M.M.S.J.J.r.9 #.n 9 ( #.W W $ P.P.L.9 #.O u m.M.M.M.M.M.S.M.M.B.M.M.S.S.B.M.J.M.M.M.J.M.M.M.M.M.J.M.M.",
"n.S.S.S.g R.E.g n.M.M.M.M.M.B.S.M.m.+ / z t { [ 1.Q W 2.P.P.P.o./ / c g M.M.M.S.M.M.M.S.M.S.M.M.M.M.B.S.J.J.M.S.M.M.S.M.M.M.M.M.",
"M.n.n.F.K E.!.V r.M.M.M.M.M.M.M.M.g z l l X.] +.'.<.<.].P.P.G.X.' / / - M.M.M.S.B.M.M.M.M.M.M.S.M.S.S.S.J.M.B.M.S.M.M.M.M.S.S.B.",
"M.m.M.M.K T.!.!.h & z.z.H.K X b.K   #.l c X.] X.P.+XOXP.y.D.G.+.] O./ / O b.S.n.M.B.S.S.M.M.B.S.B.M.M.M.J.M.B.M.M.B.S.M.M.M.S.M.",
"n.M.M.M.M.H I.R.!.W.M M @.=.a.. w = / 0 z X.[ X.V.P.P.P.b.t.[ ..[ +.) )   q r.S.M.M.M.M.M.M.M.M.S.M.M.J.M.S.S.M.M.S.S.B.M.M.B.M.",
"M.M.M.M.M.M.:.f m N !.!.T.V.p.. / = / l z ] { r - p p >.>.%.+.[ X.+.] ]   ( e n.J.M.S.M.M.M.M.M.S.M.M.M.M.M.M.M.M.M.M.M.M.M.S.M.",
"M.B.M.M.M.M.B.M.M.r.  X % /.y.@ / = ^ ^ = / w    X  # . / / ( ] X.X.] ] . ] ] O n.M.M.M.M.J.M.M.M.M.M.M.M.M.M.S.M.S.M.M.M.M.S.M.",
"M.M.M.M.M.M.M.n.M.M.m.M.o s.4 E ) / - b b 9 ,.1     Y.. ( ( ] +. .] +.1 / X.] X.y S.M.M.M.M.M.M.M.M.M.B.M.B.S.M.M.M.M.M.M.S.S.M.",
"M.M.M.M.M.M.M.M.M.M.M.M.Y u P < t / k j x {.'.X.G r   O '  .+. .{ +.+.1 / X.] X.u B.M.M.B.S.M.M.M.S.M.S.S.M.M.M.M.J.M.M.M.B.M.M.",
"M.M.M.M.M.M.M.M.M.M.M.M.M.M.M.M.=.  j j n XX'.(.Q.X.$.oX/ / ( ] +.X.D l +.+.] +.u M.M.M.S.M.S.M.M.M.M.S.M.M.S.S.M.M.M.M.S.B.M.M.",
"M.S.M.M.M.M.M.M.M.n.M.M.M.M.M.M.m.M.O j n C ).3.+.U..XoXn ~ X.} D 7 7  .+.| | D K M.M.M.S.M.S.B.M.M.M.M.M.M.M.B.M.M.S.M.M.M.M.S.",
"M.M.M.n.M.M.M.M.M.M.M.M.M.M.M.M.M.M.  j $.( ! ( ] U.XXA ^ z 1 0 r / r ` O.[ t ;.M.M.M.M.M.M.S.M.M.M.M.M.M.S.M.S.M.M.M.M.M.M.B.S.",
"M.M.M.M.M.n.v.M.M.M.M.M.x.M.M.M.M.n.O j J ) +.z k j j / / / / / / / / / / l   n.M.M.S.M.S.B.B.M.M.S.M.M.M.M.M.B.M.S.M.M.S.M.M.M.",
"M.M.M.M.M.M.M.M.M.v.M.x.M.v.n.M.M.M.u , ` #.+.+./ X. ./ 0 c / / / / / - j j : -.S.M.M.M.S.M.M.S.M.M.B.S.M.M.M.M.M.M.M.S.M.M.S.M.",
"M.M.M.M.M.M.M.M.M.n.M.v.M.M.v.M.M.m.h.% x | 2.X.( X.' 7 _ o.o./ / / c > j j :   K M.M.M.M.M.M.M.M.M.M.S.S.S.B.M.M.M.B.S.J.M.M.M.",
"M.M.M.M.M.M.M.M.M.M.v.M.M.v.M.v.I   + x j P.P.>.X.| - X.+.+.+.} / / % j j : l / l =.M.M.M.S.M.M.M.S.S.S.M.M.M.M.M.M.M.M.M.M.M.M.",
"M.M.M.M.M.M.M.n.M.M.x.M.M.v.M.Y w #.7 v = f.H.>.( v 2 ' ..+.+.+.! % j j j - / / [ F =.S.M.B.S.M.S.B.B.M.M.M.S.M.M.M.S.M.M.M.B.M.",
"M.M.M.M.M.M.x.M.M.M.M.M.M.M.n.$ / ( ^ 8 z d y.d 7 = F E J ..X.1 - j j j b - / / { X.. M.M.M.M.M.M.M.S.M.M.M.B.M.M.B.B.S.M.M.S.S.",
"M.M.M.M.M.M.M.M.M.M.M.v.v.M.M.@ X.' ^ 8 / ^ O , j = T s.2.$.. j % . % b / l l / ( 9   M.M.S.M.S.M.M.M.M.M.S.S.M.S.S.M.S.M.M.M.M.",
"M.M.n.M.M.M.M.M.n.M.M.M.v.n.M.6 ` +.l l ^ ^ d H y $ u 6 J 6 y y 0.M.0.y z #.0 = = c / q g.M.M.M.M.M.M.M.M.S.M.M.M.M.M.M.S.M.M.M.",
"M.M.M.M.M.M.n.v.M.M.v.M.M.M.B.g.* 1 l / / 8 9.M.s 8.H.H.s T M.M.M.M.M.M.=.w / / / / / l U M.B.S.M.M.M.M.M.M.M.M.M.M.M.M.M.M.S.M.",
"x.M.v.v.M.M.M.M.M.v.v.M.v.M.B.l.9 ^ ( / / o s.x.X f.H.P.8.R B.M.M.M.S.M.J.-.l #./ / / / 8 z.M.M.S.M.M.M.M.M.M.M.M.M.M.M.S.B.M.M.",
"M.M.M.M.v.M.v.M.M.M.n.M.M.M.S.l.9 ( ( ^ 3 u.q.Z }.W.*.y K M.B.S.S.M.M.M.B.J.@.@.@.@.@.@.@.5 M.B.M.M.M.M.M.M.M.n.M.M.M.M.S.M.M.M.",
"M.M.M.M.n.v.M.M.M.v.n.v.M.B.M.c.=.-.T L q.p.B [.XXB U M.M.M.M.M.M.M.S.M.B.S.M.M.n.b.d.a.a.z.m.M.M.M.M.M.M.M.n.M.M.M.M.M.M.M.M.S.",
"v.n.v.v.M.M.n.v.M.v.M.M.M.m.n.n.M.n.a.u.a.& |.!.& c.M.M.S.S.B.S.M.M.M.M.M.M.S.S.S.M.x.i.u.a.n.n.x.x.n.M.M.M.M.M.M.M.M.M.M.M.M.M.",
"M.M.M.M.M.M.M.M.M.M.M.M.M.M.x.M.M.S.x.q.B +X|.B M.M.J.M.M.M.M.M.M.S.M.M.M.M.M.B.M.M.n.z.a.z.M.n.x.n.n.M.M.M.M.M.M.M.M.M.M.M.B.S.",
"M.M.M.M.x.M.v.M.M.n.v.v.M.v.M.n.M.J.M.I `.+X^.:.M.M.M.M.M.M.M.M.B.S.M.M.S.M.M.M.M.S.B.M.M.M.M.M.m.n.M.M.M.M.n.M.n.M.M.M.M.S.M.M.",
"n.M.M.M.M.v.M.v.M.M.M.M.m.M.x.M.M.J.M.I `.+X).7.B.M.M.M.M.M.B.M.S.S.M.M.M.M.M.M.M.M.M.M.n.M.M.M.M.x.M.M.M.M.M.S.M.M.M.M.M.M.M.S.",
"M.M.M.M.M.M.x.M.v.M.M.M.B.M.n.x.M.S.M.M.s {.+XA 0.B.M.M.M.M.S.S.M.B.M.M.B.M.M.M.M.M.x.v.m.M.J.M.M.M.M.M.M.M.M.n.M.n.M.S.M.S.S.S.",
"S.B.M.M.M.v.x.x.j.v.M.M.M.M.m.M.M.B.M.M.B.K _.+X~.=.M.M.M.M.S.S.M.M.S.M.S.S.M.J.n.n.x.m.M.M.M.M.M.M.M.S.S.M.n.x.n.M.M.M.M.S.M.S.",
"J.S.M.M.M.M.x.d.p.z.J.S.M.n.M.M.S.M.S.S.J.M.P : & d B.J.M.J.M.B.B.S.S.B.S.M.M.M.M.M.n.M.M.M.M.M.m.M.M.A.F.F.j.i.j.M.M.n.M.n.M.F.",
"J.J.J.J.M.M.x.a.w.k.A.m.m.m.J.J.J.M.M.B.S.S.S.S.S.B.M.B.S.S.M.M.S.M.M.J.M.B.S.M.M.M.M.M.M.M.n.M.S.S.M.A.J.A.h.u.j.M.M.M.n.S.A.F.",
"F.S.J.J.M.M.n.x.z.a.i.h.b.S.S.S.S.S.J.M.B.S.B.B.S.S.J.M.B.S.J.S.S.J.B.M.J.M.S.M.M.M.M.M.M.M.M.M.S.m.A.b.k.i.h.z.x.S.S.M.S.S.S.F.",
"M.J.J.J.J.S.M.M.n.i.4.i.b.m.S.J.S.B.M.J.S.S.S.S.J.J.M.S.S.S.S.S.S.B.S.S.S.S.B.M.M.M.M.M.M.M.M.n.M.B.A.k.w.w.k.J.F.S.S.F.F.J.F.F.",
"M.S.M.B.M.M.M.M.S.z.a.k.c.M.M.M.M.J.M.S.S.B.S.B.M.M.B.S.S.B.S.B.S.M.J.M.B.S.S.M.M.M.M.M.M.M.M.M.M.m.B.c.k.k.c.J.S.S.M.S.F.F.J.F.",
"M.M.M.M.S.S.S.S.S.S.B.M.M.M.B.M.J.M.B.S.B.S.J.M.S.B.S.B.B.S.S.S.S.B.S.M.J.S.S.M.M.M.M.M.M.M.M.M.M.B.B.B.B.B.J.J.M.S.S.S.S.S.F.F.",
"x.M.n.M.n.S.j.n.M.M.M.M.v.M.B.M.M.S.S.S.B.S.M.M.S.S.S.M.S.S.B.S.S.S.S.B.M.B.J.M.M.M.J.M.M.M.M.M.m.B.N.N.B.B.B.B.M.M.S.S.S.A.F.n.",
"d.x.M.M.n.n.n.S.M.x.n.v.M.M.M.B.B.S.S.M.S.M.B.J.B.S.M.J.S.S.S.B.B.J.M.M.J.M.M.M.S.M.M.S.M.M.M.v.B.M.B.N.B.N.m.M.S.n.S.n.S.F.n.f.",
"a.M.M.n.n.S.n.S.n.M.v.v.N.B.B.M.M.S.M.M.S.S.S.S.S.S.M.J.M.J.S.B.S.S.M.J.M.M.J.M.M.M.M.B.M.M.M.M.M.B.B.N.N.N.n.S.S.S.S.S.S.S.n.y.",
"s.n.M.M.M.n.S.n.M.M.v.v.N.N.B.M.M.S.S.S.S.S.M.J.J.M.S.J.M.S.B.S.S.S.J.M.B.M.J.M.M.M.M.M.M.B.M.M.v.B.B.B.m.B.M.S.S.n.S.S.n.n.j.f.",
"f.n.M.M.M.S.S.S.M.v.N.N.N.N.M.B.M.S.M.S.S.M.S.S.S.J.J.S.J.S.F.M.M.B.M.M.S.S.S.B.J.M.M.M.M.M.M.M.M.M.M.v.n.M.M.S.A.S.S.n.n.A.j.f.",
"g.A.n.M.M.n.n.M.M.v.N.N.N.N.B.M.M.S.S.S.M.S.S.S.S.J.M.S.S.J.S.J.J.M.M.J.S.B.S.S.S.M.M.M.M.M.M.M.M.v.v.B.M.S.S.n.A.A.S.n.n.A.A.t.",
"t.F.S.M.M.M.S.M.M.v.N.N.N.N.M.M.M.S.M.S.M.S.M.S.J.S.S.J.S.J.S.S.S.B.M.J.S.S.S.B.S.B.S.M.M.M.M.M.M.M.v.M.n.n.A.A.A.A.S.n.M.A.h.e."
};
