/* XPM */
static char *result[] = {
/* columns rows colors chars-per-pixel */
"64 64 206 2 ",
"   c #151B1B",
".  c #1B1D1E",
"X  c #29271F",
"o  c #191F21",
"O  c #261F22",
"+  c #321F22",
"@  c #1C2123",
"#  c #2B2426",
"$  c #392727",
"%  c #36252B",
"&  c #383125",
"*  c #2E2D35",
"=  c #342C35",
"-  c #35323D",
";  c #3B373A",
":  c #45292C",
">  c #59262C",
",  c #473827",
"<  c #513E28",
"1  c #583C29",
"2  c #482933",
"3  c #5A2D38",
"4  c #4E3131",
"5  c #5A3537",
"6  c #632A35",
"7  c #6A3332",
"8  c #5B442B",
"9  c #694B2E",
"0  c #70502E",
"q  c #684B31",
"w  c #734C31",
"e  c #6E5232",
"r  c #735331",
"t  c #795839",
"y  c #3B3643",
"u  c #3E3946",
"i  c #483341",
"p  c #583949",
"a  c #6B3647",
"s  c #743648",
"d  c #7D394E",
"f  c #7B3C52",
"g  c #31484E",
"h  c #3D5A63",
"j  c #494C48",
"k  c #5B4650",
"l  c #6D4A5B",
"z  c #685765",
"x  c #496972",
"c  c #852D39",
"v  c #893931",
"b  c #A7313E",
"n  c #885D38",
"m  c #AD422F",
"M  c #8B6238",
"N  c #99673B",
"B  c #AC6D3C",
"V  c #A6723F",
"C  c #CD503A",
"Z  c #DB613D",
"A  c #E3603F",
"S  c #E46C3B",
"D  c #81394B",
"F  c #963445",
"G  c #853C51",
"H  c #8F3E56",
"J  c #943E55",
"K  c #9C3D54",
"L  c #AA3749",
"P  c #B53342",
"I  c #A33D53",
"U  c #AC3C52",
"Y  c #B43C52",
"T  c #BD3B50",
"R  c #C83647",
"E  c #C53A4E",
"W  c #CA3B4F",
"Q  c #D4394C",
"!  c #DB394C",
"~  c #C23B50",
"^  c #E0394C",
"/  c #E13F51",
"(  c #9A464D",
")  c #944357",
"_  c #AE4E51",
"`  c #90714F",
"'  c #A46A47",
"]  c #AB7542",
"[  c #B37A43",
"{  c #B57843",
"}  c #826978",
"|  c #B66776",
" . c #CF4353",
".. c #E14B46",
"X. c #E25642",
"o. c #D66957",
"O. c #E56C7C",
"+. c #DC8A3C",
"@. c #E48D3F",
"#. c #BC8147",
"$. c #A78559",
"%. c #B98856",
"&. c #B8985B",
"*. c #9E8461",
"=. c #9C876B",
"-. c #8A8B7C",
";. c #B08965",
":. c #BC8E65",
">. c #BC926D",
",. c #BB9471",
"<. c #C68749",
"1. c #C88748",
"2. c #DD8E41",
"3. c #D18E4D",
"4. c #D6924F",
"5. c #CB8F55",
"6. c #C38D5A",
"7. c #D38D53",
"8. c #CE9155",
"9. c #C69358",
"0. c #D59455",
"q. c #DC9552",
"w. c #DD935A",
"e. c #EA854A",
"r. c #E49143",
"t. c #E69649",
"y. c #EC934C",
"u. c #ED9A4C",
"i. c #F0974D",
"p. c #F19D4E",
"a. c #E69757",
"s. c #EF9553",
"d. c #E59C56",
"f. c #EC9E53",
"g. c #F19752",
"h. c #F19E50",
"j. c #EDA14F",
"k. c #EEA254",
"l. c #EDA25B",
"z. c #F5A354",
"x. c #F9A656",
"c. c #F5AA57",
"v. c #F9AE56",
"b. c #F4A55A",
"n. c #FBA65A",
"m. c #F5A95C",
"M. c #FEAC5D",
"N. c #F9B056",
"B. c #FCB15B",
"V. c #D39762",
"C. c #CAA663",
"Z. c #D4A775",
"A. c #EBA969",
"S. c #F4AB64",
"D. c #FEAD61",
"F. c #FBAD69",
"G. c #EFB468",
"H. c #FFB062",
"J. c #F8B168",
"K. c #F1BA6A",
"L. c #F1C471",
"P. c #F1C87E",
"I. c #507885",
"U. c #B17387",
"Y. c #5B8A99",
"T. c #7E9C9D",
"R. c #669BAD",
"E. c #74A4B3",
"W. c #79B4C8",
"Q. c #79B8CE",
"!. c #8E8F91",
"~. c #BE9691",
"^. c #B4A495",
"/. c #96AFAF",
"(. c #B9ADB8",
"). c #C2A080",
"_. c #C1A18A",
"`. c #C2A896",
"'. c #C093A3",
"]. c #CBB3A6",
"[. c #CEB9AE",
"{. c #CCADB3",
"}. c #ECB4AA",
"|. c #F1CB87",
" X c #F1CE92",
".X c #D3C1B8",
"XX c #EFC2AC",
"oX c #F1D3A3",
"OX c #8BBACB",
"+X c #C5BDC6",
"@X c #D5B8C5",
"#X c #EDBAC4",
"$X c #8EC1D4",
"%X c #A8CBDC",
"&X c #B6D1E0",
"*X c #CEC8CD",
"=X c #D9C9C4",
"-X c #E5D8D9",
";X c #E5DADB",
":X c #C8D9E5",
">X c #D3DDE8",
",X c #E9DEE1",
"<X c #D9E0EA",
"1X c #EBE2E8",
"2X c #EFE8EF",
"3X c #F2EAF1",
/* pixels */
"V.A.S.D.M.M.M.B.v.M.D.F.F.F.H.D.D.D.D.D.D.D.D.D.M.D.M.D.D.D.D.D.M.M.M.M.M.D.M.M.M.D.M.M.B.D.M.M.B.M.M.B.M.B.M.N.M.B.B.H.F.S.A.w.",
"A.A.S.D.M.M.M.M.B.H.H.D.H.D.D.H.D.M.D.n.D.D.D.D.D.D.D.D.n.D.D.M.M.M.M.D.M.M.M.M.M.M.M.M.D.M.M.M.M.M.M.M.M.B.B.M.B.M.M.D.M.F.S.A.",
"F.F.F.D.D.M.B.M.M.H.H.H.D.F.H.D.D.D.D.M.D.D.D.D.D.D.n.D.D.D.D.M.M.M.M.M.M.M.B.D.M.M.M.M.M.M.M.M.v.M.B.M.B.M.M.B.M.B.M.M.n.D.D.S.",
"F.F.D.D.D.M.D.B.B.D.D.D.D.D.D.D.M.D.D.D.M.D.n.D.M.D.D.D.M.D.D.D.M.D.M.M.M.M.D.M.M.M.M.M.M.M.H.M.M.M.M.v.B.m.B.D.B.D.M.M.D.D.n.D.",
"F.D.D.D.M.H.M.D.D.H.H.D.D.m.D.D.n.D.D.D.D.D.D.D.D.D.n.D.D.D.D.M.M.M.M.D.M.D.M.M.M.M.M.M.M.D.M.M.M.B.n.v.M.M.D.B.B.M.M.D.n.n.n.M.",
"H.D.H.M.M.M.n.M.M.M.D.B.H.-.8.D.D.D.D.D.D.M.D.D.n.D.D.D.D.D.D.M.M.D.M.B.D.B.M.M.M.v.n.M.M.B.M.M.M.M.M.M.M.M.B.M.D.D.D.M.D.n.x.M.",
"H.M.M.D.n.z.p.x.M.M.D.D.8.!.8.D.D.D.M.D.n.D.D.D.D.D.D.D.D.D.D.D.M.B.M.M.M.M.M.D.x.t.t.x.M.M.D.M.M.M.M.M.M.M.M.M.M.D.D.D.D.n.n.M.",
"M.M.M.M.x.u.t.p.x.n.M.B.=.-.a.D.D.n.D.D.n.D.n.D.D.D.D.M.M.D.n.D.M.D.M.D.M.D.B.M.p.r.r.z.M.M.M.M.M.M.M.M.M.M.M.M.M.M.M.D.D.M.D.M.",
"M.M.M.M.n.z.h.p.u.z.M.M.*.%.n.n.D.D.D.D.M.D.M.D.M.D.M.D.D.M.D.M.D.M.M.M.M.M.D.M.n.h.t.u.u.v.M.M.D.F.n.F.D.n.M.M.M.M.M.M.D.D.D.D.",
"M.M.B.D.M.M.n.y.@.i.n.<.E.%.M.D.n.D.n.D.D.n.M.D.D.D.D.D.D.D.D.D.M.M.M.H.D.B.M.M.M.M.x.r.+.u.M.M.n.n.F.n.D.D.M.M.M.M.M.M.D.D.D.D.",
"M.M.M.M.M.D.M.h.i.z.M.$.W.%.n.D.n.D.M.M.M.n.D.D.M.D.D.M.M.M.D.M.D.B.M.M.M.M.M.M.M.M.v.p.t.x.M.M.D.D.D.D.D.D.M.M.M.M.M.M.M.D.D.n.",
"D.B.D.B.M.D.D.n.n.M.M.$.Q.%.M.D.D.D.m.M.M.M.D.M.M.M.M.M.D.M.M.M.M.M.M.M.M.D.M.D.B.M.M.n.n.M.H.D.D.D.F.D.D.F.M.M.M.v.M.M.D.D.D.D.",
"F.B.H.M.M.D.n.M.M.M.9.Q.Q.$.M.n.M.D.M.M.M.M.M.D.M.M.D.M.M.M.M.M.M.D.M.M.M.M.M.B.D.D.M.B.D.D.M.H.D.D.F.D.D.D.D.M.M.M.M.M.D.D.M.M.",
"D.S.S.D.M.M.n.n.n.M.9.Q.T.5.M.M.D.M.M.M.M.M.M.M.M.M.M.M.D.M.M.b.] ] ] d.M.M.M.M.M.M.D.M.M.M.D.D.D.D.F.D.H.D.D.M.M.M.M.D.D.M.M.M.",
"H.S.B.D.n.n.n.n.M.M.%.W.*.M.M.D.B.D.n.x.n.M.M.M.M.M.M.M.B.D.H.t I.-.} ` M D.D.M.M.M.M.M.M.M.M.D.D.D.D.D.D.D.v.x.n.V M.M.M.M.M.M.",
"H.H.D.M.D.D.n.n.M.h.!.Q.*.M.M.M.H.H.z.u.h.n.D.B.M.M.D.M.M.D.e ^.oXoXoX^.!.t d.e e #.M.M.M.M.M.B.D.D.D.D.M.n.p.r.N x q M.M.M.M.M.",
"D.M.D.D.D.n.D.D.M.d.Q.Q.*.M.M.M.B.D.k.r.u.n.M.M.M.M.M.B.M.8 (.|.L.L.L.P. X&.< a a 5 1.M.B.M.D.M.n.D.D.M.M.z.t.2.1 R.@ B.H.M.B.M.",
"D.D.n.D.n.D.D.n.D.q.Q.Q.*.M.n.n.k.u.u.j.x.M.D.B.M.M.M.r X *XP.C.& X $.L.L.L.&.2 ) G : q.D.M.M.M.D.n.M.n.p.u.i.u.8 R.E.& M.M.D.M.",
"D.D.M.m.n.D.n.D.D.a.Q.Q.*.M.M.z.r.+.u.M.H.D.M.M.M.'   a H O   # ) ) : &.L.L.C.@ 2 H J # M.M.D.M.M.M.M.z.r.2.j.n.8 R.Q.X M.H.M.M.",
"M.M.m.D.D.n.D.D.D.d.Q.Q.*.d.z.x.k.t.c.M.B.B.M.M.] 2 H H H H K _ S S l C.L.L.A.U c 3 G % 0.q.D.f.4.b.D.n.p.t.1.t Y.Q.Q.X M.M.M.M.",
"D.n.D.n.n.D.n.D.M.d.Q.Q.*._.0.M.M.B.H.B.D.M.M.z.+ H H I ) I ^ A S S }. XL.L.A.W Y c p G   : [ n 1 M b.{ [ M g Y.Q.Q.Y.9 M.M.B.D.",
"D.D.n.D.D.D.D.D.D.a.Q.Q.*._.0.M.H.H.H.B.M.V M M p H K W I ! ^ ^ Z Z }. XG.J.A.W Y Y % D   G % w s.N n h x I.Q.Q.Y.x t M.M.M.D.M.",
"M.m.n.D.D.n.n.D.D.d.Q.Q.*._._.M.M.n.M.V w 7 5 o J J Y ^ I ! ^ ^ ^ O.}.P.f.s.A.W Y Y % D   H 7 0 y.).I.OXQ.R.h h l V M.M.M.H.M.M.",
"D.n.M.M.D.D.M.D.D.d.&XQ.$._.3Xb.M.M.#.7 F Q K . K Y Y ^ K ! ! #X#XXXP.L.K.K._ ~ Y Y % D   H a 0 y./.h g g j [ [ j.N.M.M.M.M.M.M.",
"M.M.M.M.M.M.M.M.M.d.>XQ.*._.3Xb.M.1.6 L ~ ^ J o K ~ T ! Q K ! | |.L.L.L.L.& % U Y J % # f H L v N a.& 0.q.d.D.M.B.B.M.M.B.M.D.M.",
"n.M.M.M.M.M.M.M.M.d.2X:X*._.3X3XM.<.> _ ~ ^ J O I ~ Y ^ ^ ^ H H H H =   o 1Xo % ) 2 * G H J C 7 n y.& M.B.M.M.M.M.M.M.D.D.M.M.M.",
"M.M.M.M.M.M.M.M.M.d.3X:X=.^.3X3XM.1.> E ~ ^ I + F ^ ~ T ^ ^ ! K H 3 !.j   o + 4 a * y f H s & n n $ q.D.D.M.B.D.M.B.D.M.M.M.M.B.",
"M.M.M.M.M.M.M.M.M.d.3X3X:X>X3X3X5.1.> ~ T ! ! G % ^ ^ T ~ ^ ^ Q I 3     : > ! O.@Xl y y a 9 M.M.M.M.B.M.M.D.M.M.M.M.M.M.M.D.M.D.",
"M.M.M.M.M.M.M.n.M.d.3X3X3X3X3X3X-X1.> ^ Y Q ^ U 3 b ^ ^ E T T E W z k a R U.| O.2X!.y * r M.M.D.M.M.M.M.M.H.M.M.M.M.M.M.M.M.M.M.",
"M.M.M.M.M.M.M.M.M.b.,.3X3X3X3X3X,X;.w b W Y ! ! L 6 6 P ! E ~ T U '.@X .U.U.U.'.+Xz y   M.M.D.B.M.M.M.D.M.M.M.M.H.M.M.D.M.H.M.M.",
"M.M.M.M.M.M.M.M.M.M.5.3X3X3X3X3X2X].d.w P Q U ^ P 2 a 3 > Q ! > f !.3X(.U.!  .U.z p y o M.M.M.M.M.H.M.M.M.M.B.M.M.M.B.D.M.M.M.B.",
"M.M.M.M.M.M.M.M.M.M.0.3X3X3X3X3X3X,X,.f.1 + E J : G H G s + + G J l (.2XI J G i U s y @ M.H.M.M.M.M.M.M.D.M.D.M.M.M.M.M.M.D.M.D.",
"M.M.M.M.M.M.M.M.M.M.0.3X3X3X3X3X3X3X~.n * y y o H H J H H H G H J H p i y y p E Y D ; o M.M.M.B.D.M.M.M.M.M.D.M.B.D.M.M.M.M.M.M.",
"M.M.M.M.M.M.M.M.M.M.M.%.3X3X3X3X3X3X3X'.p y y o G H H H H K J + 2 H ~ ^ K ! / W Y s # q.M.D.M.M.D.M.D.M.M.D.M.M.D.M.M.M.M.H.M.M.",
"M.M.M.M.M.M.M.M.M.M.M.5.=X3X3X3X3X3X3X{.k y y y # d J H K ! ^ ^ P 3 L ^ U W o.F.( u = V #.<.M.M.M.M.M.B.M.B.M.M.M.M.M.D.M.M.M.B.",
"M.M.M.n.M.M.x.M.M.M.M.M.>.3X3X3X3X3X3X3X} = y y - = s I Q ....^ ! c p L ~ ) K.K.` i d # 2 4 [ D.D.M.M.D.M.D.M.M.M.M.B.D.M.D.M.D.",
"M.M.M.M.M.M.M.M.M.M.n.v.>.3X3X3X3X3X3X3X@Xy y u y y = 6 R A S ^ ! v 6 f H H A.f.M 3 a 3 J G 5 B M.M.D.M.M.M.B.D.M.M.M.M.M.M.M.M.",
"M.M.M.M.M.M.M.M.n.M.M.M.q.].3X3X3X3X3X3X3Xj a u y y = * : 1 ..Q _ C m > = 2 g.{ 5 d % d H ) s r D.B.M.D.M.M.M.D.D.M.M.D.M.H.M.M.",
"M.M.M.M.M.M.M.v.M.M.n.M.n._.3X3X3X3X3X3X3X*X) f - o o o % - : ( X.e.e., = - : 4 G H % d H Q F r M.D.M.B.B.M.M.M.B.D.B.D.M.D.M.B.",
"M.M.M.M.M.M.M.M.M.M.M.v.M.n.[.3X3X3X3X3X3X3X2X  , n.n.m.,     $ Z n .   . . 3.% H ) % D ! ! b 0 M.M.M.M.D.D.M.M.M.M.M.M.M.M.M.D.",
"M.M.M.M.M.M.M.M.M.M.v.n.v.9 (.2X3X3X3X3X3X3X3X-XM.B.M.M.M.M.M.3.  n s.s., d.q.: ) G H # R P < M.M.D.M.M.M.M.D.M.M.M.M.M.M.D.M.M.",
"M.n.v.M.M.M.M.n.M.M.M.M.q.1 d 1X3X3X3X3X3X3X3X;X0.H.M.M.v.M.M.3.8 G.K.G.K.. M.[ 2 ) H H % # < M.M.M.M.M.M.M.M.M.D.M.M.M.M.M.B.M.",
"v.n.M.M.v.M.M.n.M.v.v.4.9 s H {.3X3X3X3X3X3X3X3X=X8.M.M.M.B.M.d.e :.Z.).).. M.3.5 d H H H d < M.D.M.M.M.M.M.M.M.M.M.M.M.M.M.D.M.",
"M.M.v.M.M.M.M.v.n.M.M.3.N ' ' ' 3X3X3X3X3X3X3X3X3X[.5.M.M.M.M.M.0.` /.Q.Q.x M.M.1.1 f H H d < M.M.M.M.M.M.M.M.M.M.M.M.M.M.M.M.D.",
"n.M.M.M.M.M.M.v.v.M.M.M.M.M.M.M.6.3X3X3X3X3X3X3X3X3X.X0.D.B.M.M.B.*.Q.Q.Q.W.M.B.v.1.B B B B #.M.M.n.M.M.M.M.n.n.M.M.M.D.M.M.M.M.",
"M.M.v.v.n.v.M.M.M.M.n.v.v.M.n.v.M.6.3X3X3X3X3X3X3X3X3X=X0.M.M.H.9.E.Q.Q.Q.Q.-.M.M.M.x.t.r.p.n.v.x.n.M.M.M.M.M.M.M.M.M.B.H.M.M.M.",
"v.M.M.n.M.v.v.M.M.v.v.M.M.M.n.M.D.m.%.3X3X3X3X3X3X3X3X3X,XOXH.0.W.Q.Q.Q.Q.Q.W.OX>.M.n.f.p.x.n.n.x.n.n.M.M.M.M.n.M.n.M.M.M.M.B.D.",
"M.M.M.M.M.M.n.M.n.M.M.M.v.n.M.n.M.H.B.:.1X3X3X3X3X3X3X3X2X2XOXQ.W.Q.Q.Q.Q.Q.Q.Q.%X:.M.M.M.M.H.M.n.v.M.M.M.M.M.M.M.M.M.M.M.M.D.M.",
"M.M.M.M.M.v.M.M.M.v.M.M.M.n.n.M.M.M.M.M.>.;X3X3X3X3X3X3X3X3X2X$XOXQ.Q.Q.Q.Q.Q.Q.Q.:X:.b.M.M.B.M.M.M.M.M.M.M.M.M.M.n.M.M.M.M.D.M.",
"M.M.M.M.M.v.n.v.M.M.M.M.M.v.M.x.M.H.M.M.H.>.1X3X3X3X3X3X3X3X3X3X<X%X$XQ.Q.Q.Q.Q.$X>X2Xq.n.M.H.M.M.n.M.M.D.D.M.M.M.M.M.M.M.D.D.D.",
"H.M.M.M.M.n.n.x.z.v.M.M.M.M.m.v.M.M.M.M.M.M.:.3X3X3X3X3X3X3X3X3X3X3X>X&X&X&X&X&X:X3X2Xq.M.M.M.M.M.M.m.D.D.D.n.x.n.M.M.M.M.D.D.D.",
"H.D.B.M.M.M.x.p.r.x.H.H.m.M.M.M.D.D.B.M.B.D.D.6.3X3X3X3X3X3X3X3X3X3X3X3X3X3X3X3X3X3X,.k.M.M.M.M.M.M.S.D.F.D.h.t.h.M.n.M.m.M.D.D.",
"H.H.B.H.D.M.x.i.r.k.m.S.m.D.D.D.H.M.H.H.M.D.M.M.6.3X3X3X3X3X3X3X3X3X3X3X3X3X3X3X3X3X8.M.n.M.M.M.M.m.D.S.D.S.f.r.h.M.D.D.n.D.D.F.",
"D.D.H.H.B.M.M.h.u.k.t.k.m.M.D.D.D.D.M.M.H.D.B.H.D.l.>.3X3X3X3X3X3X3X3X3X3X3X3X3X3X:.m.M.M.M.M.M.M.D.S.m.k.t.f.z.n.D.D.D.D.D.D.F.",
"D.D.H.H.H.M.M.M.M.t.+.2.k.D.D.D.D.B.D.D.M.B.D.M.D.D.B.D.`.;X;X;X1X3X3X3X3X3X2X;X,.M.M.M.M.M.n.M.M.M.m.k.2.2.k.H.D.D.D.H.F.F.F.F.",
"M.H.B.D.D.M.M.D.D.x.u.z.m.m.M.M.D.B.D.B.D.D.D.B.B.D.D.D.B.H.M.D.8.[.[.[.[.[._.M.M.M.M.M.M.M.M.M.M.m.B.c.k.k.x.H.D.D.D.D.H.D.H.F.",
"M.M.M.n.D.n.g.D.D.D.M.M.M.M.M.B.M.H.M.D.M.H.H.M.B.D.M.H.D.B.D.B.M.H.D.B.D.H.M.M.M.M.M.M.M.M.M.M.M.B.B.B.B.H.B.H.D.D.D.D.D.F.F.F.",
"x.M.M.M.n.D.D.D.M.M.M.M.v.M.M.M.M.H.B.D.B.M.D.D.D.D.B.D.D.D.D.D.B.M.D.B.D.M.H.M.D.D.M.M.M.M.M.M.M.B.N.N.B.B.B.M.M.M.D.D.D.D.F.g.",
"u.v.M.M.M.n.n.n.n.n.v.v.v.B.B.M.D.M.D.M.D.D.B.B.D.M.B.D.B.D.B.D.D.D.D.M.M.D.M.M.M.B.M.M.M.M.M.M.v.B.N.N.N.N.M.M.D.n.D.n.D.D.D.s.",
"i.n.M.M.n.D.D.n.n.M.v.v.B.B.M.B.B.D.M.M.D.M.D.D.D.H.M.D.H.D.M.H.D.B.M.H.D.B.H.M.M.M.M.M.M.M.M.M.M.B.B.N.N.N.M.n.D.D.D.D.D.F.g.y.",
"i.n.M.M.M.n.D.n.M.M.v.v.N.N.M.B.M.D.D.D.H.M.D.M.B.H.D.D.M.H.M.M.B.D.M.H.B.B.D.D.M.M.B.D.M.M.M.M.M.M.N.B.M.M.M.D.n.D.D.D.D.n.n.s.",
"s.n.M.M.M.M.D.D.M.v.N.N.N.N.B.M.M.D.M.D.M.D.D.D.D.D.D.H.D.H.H.D.D.D.B.M.D.D.D.B.M.M.D.M.M.B.M.M.M.N.M.B.M.n.M.S.F.n.D.n.M.m.f.y.",
"a.D.M.M.M.M.M.M.M.v.N.N.N.B.M.M.M.D.D.D.D.D.H.D.D.H.H.D.H.D.D.H.D.D.D.D.B.M.D.H.H.M.D.B.M.M.M.M.M.M.v.M.D.n.F.n.n.F.D.n.n.n.S.q.",
"w.S.D.M.M.n.M.M.M.M.v.N.N.v.v.B.M.D.M.D.M.D.M.D.D.M.H.D.D.M.H.D.D.B.B.D.D.H.M.M.M.D.M.M.M.M.M.M.B.M.v.v.D.n.n.F.n.F.D.n.D.S.l.7."
};
