/* XPM */
static char *result[] = {
/* columns rows colors chars-per-pixel */
"64 64 205 2 ",
"   c #151B1B",
".  c #1C1D1F",
"X  c #211D1E",
"o  c #1F211D",
"O  c #27251F",
"+  c #1A1F21",
"@  c #251F21",
"#  c #1B2023",
"$  c #2C2226",
"%  c #2D2A21",
"&  c #23262A",
"*  c #28272B",
"=  c #38262B",
"-  c #3C3224",
";  c #3D3A2B",
":  c #2B2B32",
">  c #3E2830",
",  c #2D3233",
"<  c #34313B",
"1  c #333839",
"2  c #592B2A",
"3  c #473827",
"4  c #533B28",
"5  c #422831",
"6  c #4A2A34",
"7  c #422E3A",
"8  c #562C36",
"9  c #512C38",
"0  c #592E3B",
"q  c #463132",
"w  c #5D323C",
"e  c #6C2830",
"r  c #692B35",
"t  c #5A422B",
"y  c #554A34",
"u  c #65492E",
"i  c #6B4D2E",
"p  c #664734",
"a  c #625639",
"s  c #765535",
"d  c #77643F",
"f  c #3B3643",
"g  c #463745",
"h  c #573949",
"j  c #643241",
"k  c #6C3445",
"l  c #673A4A",
"z  c #743649",
"x  c #763749",
"c  c #7C394D",
"v  c #773B50",
"b  c #364F56",
"n  c #3B5962",
"m  c #50524F",
"M  c #6D564A",
"N  c #7C6B44",
"B  c #4A707B",
"V  c #6E696D",
"C  c #8D2E3B",
"Z  c #982F3B",
"A  c #9F3E37",
"S  c #815A35",
"D  c #885E36",
"F  c #B65237",
"G  c #8B6238",
"H  c #966A3C",
"J  c #9D6C3C",
"K  c #A66A3E",
"L  c #B1763D",
"P  c #C74936",
"I  c #C65839",
"U  c #CA713F",
"Y  c #E46A3B",
"T  c #81394D",
"R  c #99394B",
"E  c #843B51",
"W  c #8E3E56",
"Q  c #933E55",
"!  c #9B3D54",
"~  c #A73748",
"^  c #B83545",
"/  c #A23D54",
"(  c #AA3C52",
")  c #B33C52",
"_  c #BA3B51",
"`  c #C6384A",
"'  c #CB3A4F",
"]  c #D13749",
"[  c #D33A4D",
"{  c #DB394D",
"}  c #CB3C50",
"|  c #E0394C",
" . c #8E4A47",
".. c #8F514B",
"X. c #AA4349",
"o. c #917047",
"O. c #AB7744",
"+. c #B77743",
"@. c #AA6E5A",
"#. c #89566B",
"$. c #B3576B",
"%. c #886279",
"&. c #8B7676",
"*. c #D25D41",
"=. c #DA4454",
"-. c #E14946",
";. c #E25353",
":. c #DF6C41",
">. c #C3724B",
",. c #E57950",
"<. c #E66B7A",
"1. c #DA893B",
"2. c #E38E3F",
"3. c #BE8246",
"4. c #A7875B",
"5. c #AA855B",
"6. c #BC8A55",
"7. c #B8885A",
"8. c #B5965A",
"9. c #988669",
"0. c #9F8C71",
"q. c #B08F6C",
"w. c #BB9575",
"e. c #C68547",
"r. c #C18549",
"t. c #D48B49",
"y. c #C58D55",
"u. c #CF8F54",
"i. c #C48D59",
"p. c #D49353",
"a. c #DA9553",
"s. c #DD9856",
"d. c #E98D4D",
"f. c #E49143",
"g. c #E6974A",
"h. c #ED934C",
"j. c #EC9A4C",
"k. c #F0974D",
"l. c #F19C4E",
"z. c #ED9352",
"x. c #E49B55",
"c. c #E79856",
"v. c #EB9E53",
"b. c #F19752",
"n. c #F19E50",
"m. c #EDA14F",
"M. c #EDA155",
"N. c #ECA25B",
"B. c #F5A354",
"V. c #F9A656",
"C. c #F9AE56",
"Z. c #F4A55A",
"A. c #FBA65A",
"S. c #F6AA5B",
"D. c #FEAC5D",
"F. c #F9B056",
"G. c #FCB15B",
"H. c #D59764",
"J. c #D09B70",
"K. c #EAA367",
"L. c #F5AA66",
"P. c #FEAD61",
"I. c #FEAE69",
"U. c #E7BB6C",
"Y. c #FFB062",
"T. c #F3B76A",
"R. c #F1C06E",
"E. c #F1C471",
"W. c #6D798C",
"Q. c #8C798A",
"!. c #AD7688",
"~. c #CA7788",
"^. c #E77A89",
"/. c #5C8B9A",
"(. c #6294A5",
"). c #70A2B1",
"_. c #79ABB9",
"`. c #75ABC0",
"'. c #78B3C8",
"]. c #79B8CE",
"[. c #9F9C9C",
"{. c #AD9AA7",
"}. c #9EA6A6",
"|. c #C4B09C",
" X c #CBB6A7",
".X c #CDBDB3",
"XX c #F1CA84",
"oX c #D5C5BB",
"OX c #E9CCAE",
"+X c #F2D9B9",
"@X c #8ABFD3",
"#X c #BFB7C0",
"$X c #D5B7C3",
"%X c #93C0D2",
"&X c #98C5D7",
"*X c #DAC9C5",
"=X c #E7D0CD",
"-X c #E6D7DB",
";X c #F2E0D1",
":X c #D4DEE8",
">X c #E5DBE2",
",X c #F0DBE3",
"<X c #E7E4EC",
"1X c #F1E6ED",
"2X c #F2EAF1",
/* pixels */
"H.K.L.L.P.D.D.D.G.D.Y.I.I.Y.I.P.P.P.P.P.P.A.P.P.P.P.D.P.P.P.P.P.D.D.D.D.D.D.D.D.D.D.D.G.P.D.D.D.D.D.D.G.G.D.G.C.D.G.Y.Y.P.L.L.H.",
"K.L.L.P.D.D.D.C.D.G.P.I.P.P.P.Y.P.P.D.P.P.P.P.A.P.P.A.P.A.P.P.D.D.D.D.P.D.P.D.D.D.P.D.P.D.D.D.D.G.D.D.D.D.D.D.G.G.D.G.D.P.L.L.K.",
"L.I.I.D.D.D.D.P.G.Y.P.Y.P.I.P.Y.P.D.P.P.P.P.D.P.P.P.P.P.P.P.P.D.D.D.D.D.D.D.G.P.G.P.D.D.D.D.G.D.D.D.G.D.D.G.G.S.D.G.P.D.D.P.A.L.",
"T.I.P.P.P.P.G.G.Y.P.Y.P.P.P.P.P.P.P.P.A.P.P.P.P.D.P.P.P.D.P.P.P.P.D.D.D.D.D.D.P.D.D.D.D.D.P.P.D.D.C.G.D.D.G.G.Y.G.D.S.P.A.D.D.P.",
"I.Y.Y.P.D.P.D.D.Y.P.P.Y.P.P.Y.P.P.P.D.P.D.P.P.P.P.P.A.P.P.P.P.D.D.D.D.D.P.D.D.D.G.D.D.D.D.G.D.D.D.C.D.D.D.G.G.D.S.P.P.D.D.A.A.A.",
"Y.I.D.Y.D.D.A.D.D.P.G.P.P.P.P.D.P.P.P.P.P.P.P.P.P.D.P.P.P.P.P.P.D.D.P.P.G.P.D.D.A.V.A.D.D.D.D.D.D.D.A.D.D.D.D.D.Y.D.P.P.P.A.A.D.",
"D.D.D.D.A.B.n.V.A.D.D.P.D.P.P.P.P.P.P.P.A.P.P.A.P.P.P.P.P.P.P.A.G.P.D.G.D.D.P.D.B.j.j.V.P.D.Y.D.D.D.D.D.D.D.D.D.G.P.D.P.D.D.A.D.",
"D.D.D.D.V.j.g.l.V.A.D.P.D.P.P.D.A.P.D.A.P.P.P.D.P.A.P.P.D.P.D.P.P.D.D.P.D.D.P.G.B.2.f.n.D.D.D.P.D.D.D.D.D.D.D.D.D.D.D.P.P.P.D.D.",
"D.D.D.D.A.B.n.l.k.B.D.D.A.D.D.D.A.P.P.A.P.P.P.P.P.P.P.P.P.P.P.P.D.D.D.Y.P.D.D.G.A.n.j.j.l.V.D.D.P.P.I.A.P.A.D.D.D.D.D.D.P.P.P.P.",
"D.D.D.D.D.D.A.k.2.l.A.A.A.C.D.D.P.P.D.P.D.P.D.P.P.D.P.P.D.P.D.D.D.D.D.D.D.D.D.D.D.D.B.f.1.j.D.D.P.b.I.I.P.P.D.D.D.D.D.P.P.P.P.P.",
"D.D.G.P.D.P.A.n.k.B.A.D.A.A.A.P.A.P.P.A.D.A.P.P.D.D.P.D.D.P.D.P.D.P.D.D.G.P.P.D.D.P.A.j.j.B.Y.D.P.P.P.P.P.P.D.D.D.A.D.D.P.P.P.P.",
"P.G.P.D.D.P.P.D.A.D.Y.D.D.A.D.P.P.D.P.D.D.D.D.D.D.D.D.D.D.D.P.D.D.G.D.D.D.D.D.P.Y.G.D.A.A.D.G.P.P.P.I.P.I.P.D.D.D.C.D.D.A.P.D.D.",
"Y.G.P.P.D.D.P.A.D.P.Y.Y.P.P.P.A.A.P.D.D.D.D.D.D.D.D.D.D.D.D.D.D.P.D.D.D.D.P.P.G.D.D.G.P.P.D.Y.D.P.P.P.I.L.P.D.D.D.D.D.D.P.P.D.D.",
"L.Y.Y.S.D.D.A.A.A.P.Y.G.D.S.P.P.P.D.D.D.D.D.D.D.P.D.D.D.D.D.D.D.D.D.P.P.G.D.D.D.D.D.D.D.D.D.D.P.P.P.P.P.P.P.P.D.D.G.D.P.P.P.D.D.",
"G.L.L.G.A.A.A.A.A.D.Y.L.P.P.D.P.P.P.D.V.A.D.D.D.Y.D.P.D.D.m.y , , y x.Z.P.D.P.D.G.P.D.D.D.D.D.D.P.P.P.I.P.P.B.H s Z.D.P.D.D.D.D.",
"P.Y.P.P.P.D.A.A.D.P.P.D.D.G.S.D.G.Y.B.j.n.A.D.D.D.D.D.D.p.M oX;X;X.Xm s M.D.D.D.P.D.D.D.D.D.Y.D.P.P.P.P.L.Z.1.b B J D.D.D.D.D.D.",
"P.P.P.P.P.D.D.P.P.A.P.D.D.D.D.D.G.P.M.2.j.D.D.D.D.D.D.a.d  XXXE.E.XX;X0.s J J O.D.D.D.D.D.D.P.D.A.A.P.P.A.Z.L b /.M x.D.G.D.P.D.",
"P.P.A.P.A.P.A.P.P.P.D.P.D.A.A.C.M.j.j.B.V.D.G.D.D.D.a.M  XXXo.N o.E.E.E.8.$ 9 0 o.O.D.D.D.D.D.D.P.D.D.A.M.g.1.b '.n r.D.P.D.D.D.",
"P.P.A.P.A.P.P.A.D.A.D.D.D.A.A.B.f.1.j.D.Y.P.D.D.D.v.3 < m a w j l o.E.E.R.; = W E r O.D.D.P.D.D.D.D.D.B.f.1.y (.].n 3.Y.D.D.D.G.",
"D.D.P.A.P.A.P.P.P.D.A.D.D.D.D.A.M.j.B.G.Y.G.D.D.- q x x x x *.U F y E.E.E...^ = Q w G P.G.D.- u P.D.D.A.3 - ).].].n 3.G.D.D.D.P.",
"P.P.A.P.P.P.P.A.A.P.D.D.D.D.D.P.D.D.D.G.D.D.D.- E W W Q _ Y Y Y t.=XE.E.E.;.! ` = W 9 o o o d.+.i G o o ).'.].].W.H D.P.P.P.D.D.",
"A.A.P.D.A.P.P.P.P.D.D.D.D.D.D.G.G.Y.Y.D.G.D.4 c W Q Q ) { | Y Y ,.;XE.R.R.;. .{ z > 6 j Q . d.z.o.B ].].`.`./.O s D.D.G.D.G.P.D.",
"P.A.A.P.A.P.D.P.D.D.D.D.D.D.D.D.D.A.C.B.e.e.4 E W ( ` ) | | | | <.+XT.h.T.;.Q { z 5 9 j Q X z.H.`.(.(.(.; 3 i P.F.D.D.D.D.D.D.D.",
"A.D.D.P.P.P.P.A.D.D.D.D.D.D.D.D.D.A.K S 6 $ k W W | ' ) | <.^.^.+XE.T.B.H.=.Q [ z 5 9 j Q 2 K H.V 3 i i N.Y.Y.G.D.D.D.D.P.P.G.D.",
"D.D.D.D.D.D.D.D.D.D.D.D.D.C.D.D.D.s 0 Z _ 6 k ) Q | ' / ' ~.OX+XE.E.E.8.y / _ ) z $ 9 v ( P O h.K S D.Y.D.Y.D.D.D.D.D.P.D.G.P.D.",
"D.A.D.D.D.D.D.D.D.D.D.D.D.D.D.D.s Z X.| _ 6 k [ W | [ } ) ! $.@.@.a a &.m $ ( E > 7 c  .P 2 J p i p.D.D.D.D.D.P.D.D.D.D.D.D.D.P.",
"D.D.D.D.D.D.D.D.D.D.A.D.D.D.D.D.% { Q { ` 5 k ] ' ( { | { / W W 1 [.  , &   E $ < g l W 2 3.P.e.a.D.D.D.D.D.D.G.Y.D.D.P.P.P.D.D.",
"D.D.P.D.D.D.D.D.A.D.D.D.D.A.D.D.% | ! | | ( = ` | [ ( | | { ! W + &     Z ] >XE f f : . 3.P.D.D.D.D.D.P.G.P.P.D.D.D.D.G.D.G.D.D.",
"D.D.D.D.D.D.D.D.D.D.A.D.D.D.D.D.% | / { { ) 5 ^ | | ' ( { { { W & . e | { | ,X>Xf : G P.D.D.D.D.D.D.D.D.G.P.D.D.D.P.D.D.D.D.P.D.",
"D.D.D.D.D.D.D.D.D.D.D.D.D.D.D.D.% | [ ( | | ) = ^ ^ { ` / / } W >X$.=.!.}.!.,X#Xf : G D.G.D.P.D.D.D.D.D.P.D.D.D.P.G.D.P.D.D.P.G.",
"D.D.D.D.D.D.D.A.D.D.D.D.x.p.D.D.s Z { ) } [ | x 5 6 Z ^ { ^ Q z 2X=X!.~.=.Q.{.h f : G D.P.D.G.P.D.D.D.G.D.D.P.G.D.D.D.D.D.D.D.D.",
"D.D.D.D.D.D.D.D.D.D.D.D.y.w.D.D.A.S C [ ) _ C 8 W E 8 r e r E l {.<X{._ _ v l ( f : G D.P.D.D.P.D.D.D.P.D.D.P.D.D.D.D.P.G.P.D.D.",
"D.D.D.D.D.D.A.D.D.D.D.D.i.oXu.P.D.A.@ 2 r 0 0 E W W W c j E W W v W.V h h R W ] f : G D.D.D.D.G.P.D.P.D.D.D.D.D.D.D.G.P.P.D.D.D.",
"D.G.D.D.D.D.D.D.D.D.D.D.y.2X7.P.D.3 < < f & z Q W W Q Q W 9 $ W Q _ ~ ! _ { Q ] < t s.D.D.D.D.P.D.D.D.D.D.P.D.Y.D.D.D.D.D.D.Y.D.",
"P.D.D.D.D.C.D.D.D.C.A.D.A.w.>Xu.-   # f f f * c W W W ( [ ] ] @ ! | _ _ | K.{ g < u D.D.D.G.P.D.D.D.G.P.P.D.D.D.D.D.D.D.G.D.D.D.",
"D.D.A.D.D.D.D.D.D.A.C.D.D.7.2Xm E W c # f f f . W W ( | | | | | @ / | ) J.T.T.f h j   . r.P.D.D.D.D.P.D.G.D.D.P.G.P.P.D.P.D.D.D.",
"D.D.D.D.D.D.D.D.D.D.C.D.D.v.w.2X!.W W j * f f f # T ` -.Y -.| ' = c W W J.T.z.@ E 0 j W 5 r.D.D.D.G.D.D.D.P.D.D.D.P.G.D.D.D.D.D.",
"D.D.D.D.D.A.D.D.D.D.D.B.y.D &.,X1X!.Q k : g f f f & 5 A I -.' ( P 2 j k >.d.O.6 z 5 W W W . G.D.P.P.D.D.G.D.P.G.D.D.P.D.P.D.Y.D.",
"D.D.D.D.D.D.D.D.D.D.D.p.[.m 2 !.>X1X!.9 k v g : : * * * 2 ~ ^ Y :.F # : p D 6 Q z > Q ( ) @ D.P.D.D.D.P.P.D.P.D.D.D.P.D.P.G.D.D.",
"D.D.D.D.D.D.D.D.D.A.C.p.].W.j 6 V 1X-X[.Q j * G J J s & . = F d.p 4 # @ s @ E Q z 5 ( [ { @ D.D.D.D.P.G.D.D.D.D.G.D.D.D.D.D.D.D.",
"D.A.D.D.D.D.D.D.D.D.D.p.].`.%.x k !.2X$Xk s >.C.D.D.M.3.3.3.3 3 +.+.s i N.- E W W j C { e +.D.P.P.D.D.D.D.D.D.D.P.P.D.D.D.D.D.D.",
"D.D.D.D.D.D.A.C.D.A.C.t.n ].Q.W W W #.: i j.V.D.G.D.D.D.G.D.- t.T.T.U.d +.v.$  .W W 9 @   M.D.G.D.D.D.D.D.D.P.D.D.D.D.D.P.D.P.D.",
"D.D.D.A.D.D.D.D.D.D.B.$ %.'.].%.W W v 4 l.f.j.C.D.D.D.D.D.D.- U.T.z.z.s O.D.& W W W W W $ M.D.D.D.D.D.D.D.D.D.D.D.D.D.D.D.D.D.D.",
"D.C.D.C.C.D.C.D.D.A.-  ...&._.].#. .4 n.k.q.7.B.D.P.D.G.D.D.D.- J.].].].5.Z.D.- E W W W * j.D.D.Y.D.D.D.D.D.A.D.D.D.D.D.P.D.P.G.",
"C.D.D.C.A.C.D.D.C.A.D.C.C.D.5._.].6.B.g.j.w.2X7.G.D.D.P.G.D.P.G.].].].].].4.A.v.w ..D  .4 k.D.D.A.A.D.D.D.D.D.D.D.D.D.D.D.G.P.D.",
"D.A.D.D.D.D.A.C.D.D.D.D.D.D.A.4.`.].O.f.l.w.2X2XD.N.i.D.P.D.D.5.].].].].].].4.D.D.G.V.g.f.k.A.A.C.A.A.D.D.D.A.D.D.D.D.D.D.D.P.D.",
"D.C.D.D.C.D.D.D.D.C.D.D.C.A.D.A.5.]._.O.B.u.oX2Xw.s.*Xq.y.D.9.].].].].].].].].9.D.D.A.B.k.A.D.A.C.A.D.D.D.D.D.D.D.D.D.D.P.P.D.D.",
"D.D.D.D.A.D.D.C.D.A.C.C.D.D.A.A.G.y.]._.5.D.|.2X2X X2X:X}.[.'.].].].].].].].].].w.G.G.D.A.G.P.D.A.A.D.D.D.D.A.D.A.D.D.D.D.G.D.D.",
"A.D.D.D.D.C.D.D.D.C.D.D.D.C.A.A.D.P.s.5.9.Y.N.*X2X2X2X2X<X&X].].].].].].].].].].&X*X7.A.D.D.Y.D.A.C.D.D.D.D.D.P.D.D.D.D.D.D.P.D.",
"D.G.D.D.D.D.A.C.D.D.D.D.D.D.A.C.D.P.D.D.P.G.P.G.2X2X2X2X2X2X2X].].].].].].].].].&X2X2Xi.A.D.Y.D.D.D.P.A.D.P.D.A.A.D.D.D.D.P.P.P.",
"P.G.D.D.D.A.A.V.B.C.G.P.D.D.A.D.D.G.P.G.D.N.a.D.D.*X2X2X2X2X2X2X<X@X%X@X%X%X%X%X1X1X2X6.D.D.D.D.D.D.D.P.P.P.A.V.A.D.D.P.D.P.P.P.",
"Y.P.Y.P.G.A.V.l.f.B.Y.Y.L.S.D.D.P.D.P.D.Y.9.].5.y.N. X2X2X2X2X2X2X2X2X2X2X<X2X2X2X2X2X6.D.D.D.D.D.D.D.L.Y.I.n.g.n.D.D.A.D.A.P.P.",
"Y.Y.Y.Y.D.D.V.j.f.v.S.S.A.S.P.Y.Y.D.G.D.D.6.).].].4.0.:X2X2X2X2X2X2X2X2X2X2X2X2X2X2X Xa.D.D.D.D.P.L.L.D.L.S.v.f.n.D.D.D.A.P.P.L.",
"P.P.G.Y.D.D.A.V.j.v.j.x.S.D.P.P.P.P.P.P.D.D.y._.].].].%X:X2X2X2X2X2X2X2X2X2X2X2X2X Xp.D.D.A.D.D.D.D.G.Z.M.x.v.B.A.P.P.P.I.P.P.I.",
"P.P.Y.Y.Y.P.D.D.D.j.1.g.Z.S.P.Y.P.G.D.Y.P.D.G.y.6.].].].%X&X<X2X2X2X2X2X2X2X2X-Xi.a.P.D.D.C.D.D.D.L.S.M.f.f.M.P.P.P.I.P.Y.I.I.I.",
"P.G.P.Y.D.D.D.D.D.Z.j.M.S.D.D.D.P.P.G.P.P.G.D.D.D.a.a.9.].].%X<X2X2X2X2X2Xi.a.x.Y.D.D.D.D.D.D.D.D.F.D.Z.m.m.Z.G.P.P.P.P.I.Y.Y.I.",
"D.D.G.D.I.n.A.P.P.D.G.D.D.D.G.D.D.G.P.P.P.D.P.Y.Y.D.D.P.S.D.A.D.L.T.D.A.D.P.G.P.Y.D.D.D.D.D.D.D.G.G.G.F.G.Y.G.Y.P.D.P.P.P.I.I.I.",
"V.D.D.A.A.P.A.P.D.D.D.D.C.D.G.D.Y.D.P.G.D.Y.P.G.D.D.Y.P.Y.P.G.Y.D.D.P.G.Y.D.P.D.D.D.D.D.D.D.D.D.D.G.F.F.G.G.G.P.D.P.P.P.P.P.P.Z.",
"l.A.A.D.D.A.A.A.A.A.A.C.G.D.D.G.P.P.D.P.G.D.P.P.G.P.P.G.P.D.P.D.D.D.G.P.D.Y.D.D.D.D.D.D.D.D.D.D.D.G.F.F.F.F.F.P.P.A.P.A.P.I.I.d.",
"k.A.D.D.A.P.P.A.A.D.C.C.F.G.D.G.G.D.P.D.P.P.G.P.P.P.P.G.P.Y.P.G.G.P.P.P.D.P.P.G.D.D.P.P.D.D.A.D.D.D.G.F.F.F.D.A.P.P.P.P.A.I.n.d.",
"l.A.D.D.D.A.P.A.A.D.C.C.F.F.D.G.D.P.P.P.Y.P.P.P.Y.D.P.G.G.P.P.P.Y.D.P.P.Y.P.P.G.D.D.D.G.G.D.D.D.G.G.G.D.D.D.A.P.I.P.P.A.P.P.Z.z.",
"z.D.D.D.D.D.P.P.D.C.F.F.F.F.G.D.D.P.P.D.D.P.D.P.P.Y.P.P.P.Y.P.Y.D.D.Y.G.D.G.P.P.P.D.D.D.D.D.D.D.D.C.D.F.D.P.D.P.A.P.P.P.A.A.n.h.",
"c.L.D.D.D.D.D.A.D.G.F.F.F.G.D.D.D.P.P.P.P.D.Y.D.P.Y.Y.P.P.P.P.P.G.P.D.D.G.P.D.Y.G.P.D.D.D.D.D.D.D.D.F.D.P.A.A.L.I.A.P.A.D.A.K.c.",
"a.P.I.A.D.D.D.D.D.D.C.F.F.C.C.G.D.D.P.D.P.P.P.P.P.P.Y.P.Y.P.Y.P.G.P.Y.P.P.P.G.D.P.P.G.P.D.D.G.D.D.C.D.C.P.n.I.A.I.L.P.A.A.L.v.u."
};
