/* XPM */
static char *result[] = {
/* columns rows colors chars-per-pixel */
"64 64 200 2 ",
"   c #151C1C",
".  c #1A1D1E",
"X  c #1E1E20",
"o  c #231E21",
"O  c #1C2628",
"+  c #23252A",
"@  c #26282A",
"#  c #34242A",
"$  c #3B262E",
"%  c #3D332B",
"&  c #2F2D36",
"*  c #382932",
"=  c #44282F",
"-  c #58272B",
";  c #433525",
":  c #4A3B27",
">  c #523D27",
",  c #543B2C",
"<  c #402730",
"1  c #432931",
"2  c #4B2B35",
"3  c #572F3C",
"4  c #67382E",
"5  c #622A34",
"6  c #6B2830",
"7  c #762E34",
"8  c #62373B",
"9  c #564129",
"0  c #5B432B",
"q  c #4D4731",
"w  c #574E35",
"e  c #66462C",
"r  c #644937",
"t  c #714D32",
"y  c #695637",
"u  c #7C5937",
"i  c #3B3643",
"p  c #3D3845",
"a  c #463746",
"s  c #563949",
"d  c #653242",
"f  c #6A3344",
"g  c #693847",
"h  c #743749",
"j  c #7A3C51",
"k  c #2D4248",
"l  c #32494F",
"z  c #334B52",
"x  c #3F5D67",
"c  c #504E43",
"v  c #70534F",
"b  c #786552",
"n  c #415B62",
"m  c #4F6971",
"M  c #686A6B",
"N  c #737375",
"B  c #9A2F3B",
"V  c #893531",
"C  c #A4303E",
"Z  c #835834",
"A  c #A14F34",
"S  c #8C6237",
"D  c #9B683C",
"F  c #A7683C",
"G  c #AB7037",
"H  c #A4713E",
"J  c #CA4A38",
"K  c #E46D3A",
"L  c #85384A",
"P  c #843B51",
"I  c #8E3E56",
"U  c #933E55",
"Y  c #B03546",
"T  c #A43D53",
"R  c #AC3C53",
"E  c #B33C52",
"W  c #BD3B50",
"Q  c #CF3748",
"!  c #C53B4F",
"~  c #CB3A4F",
"^  c #D43A4D",
"/  c #DD394D",
"(  c #C33B50",
")  c #E0394C",
"_  c #854D41",
"`  c #925147",
"'  c #954154",
"]  c #AB414C",
"[  c #9D7856",
"{  c #AB7743",
"}  c #B57B44",
"|  c #B97E45",
" . c #8D5F6E",
".. c #B25C69",
"X. c #82697C",
"o. c #A46A7C",
"O. c #C55845",
"+. c #D4485B",
"@. c #E25343",
"#. c #E14254",
"$. c #C07844",
"%. c #D8775E",
"&. c #D7883C",
"*. c #DD8B3C",
"=. c #E38E3F",
"-. c #BC8146",
";. c #BA8755",
":. c #B4905C",
">. c #9D886D",
",. c #A48561",
"<. c #BD8F65",
"1. c #B68F6C",
"2. c #BD9675",
"3. c #BC9A7C",
"4. c #C58749",
"5. c #C68D56",
"6. c #D39151",
"7. c #D19253",
"8. c #DC9553",
"9. c #DC9857",
"0. c #E98C4D",
"q. c #E49143",
"w. c #E69749",
"e. c #ED934D",
"r. c #ED9A4C",
"t. c #F0974D",
"y. c #F19D4E",
"u. c #EC9453",
"i. c #E39B55",
"p. c #EC9E53",
"a. c #F19752",
"s. c #F19E50",
"d. c #D3A15D",
"f. c #EDA14F",
"g. c #EEA253",
"h. c #EEA25B",
"j. c #F5A354",
"k. c #F9A656",
"l. c #F5AA57",
"z. c #F9AE56",
"x. c #F5A55A",
"c. c #FBA65A",
"v. c #F5A95D",
"b. c #FEAC5D",
"n. c #F9B056",
"m. c #FCB15B",
"M. c #C28464",
"N. c #D39762",
"B. c #EC9C66",
"V. c #E9A467",
"C. c #F6AA64",
"Z. c #FEAD61",
"A. c #F4AC6B",
"S. c #FEAE69",
"D. c #F0B466",
"F. c #FFB162",
"G. c #F8B66B",
"H. c #F1C16F",
"J. c #F1C471",
"K. c #537D8A",
"L. c #7E7D81",
"P. c #B3788A",
"I. c #A77F94",
"U. c #E67483",
"Y. c #5A8491",
"T. c #6395A7",
"R. c #78A7B5",
"E. c #7AAFC0",
"W. c #77B2C7",
"Q. c #79B8CE",
"!. c #888E81",
"~. c #91918C",
"^. c #819795",
"/. c #BF9E84",
"(. c #BB8B9C",
"). c #9D8CA0",
"_. c #B3ADAE",
"`. c #C2A48F",
"'. c #C4A895",
"]. c #CA98A7",
"[. c #CDB7AB",
"{. c #CDB4BA",
"}. c #ECB3BA",
"|. c #F1CC89",
" X c #F1CD91",
".X c #D5C3BC",
"XX c #F2D7B0",
"oX c #D5BBC3",
"OX c #97C4D7",
"+X c #9AC6D8",
"@X c #BCD4E2",
"#X c #DBCBC8",
"$X c #F2DCC2",
"%X c #E4D7D8",
"&X c #C9D9E5",
"*X c #D2DDE8",
"=X c #E3E4ED",
"-X c #F2E7E6",
";X c #F1E8EF",
":X c #F2EAF1",
/* pixels */
"N.V.C.C.b.b.b.z.b.m.Z.S.S.Z.S.Z.Z.Z.Z.Z.Z.c.Z.Z.Z.Z.b.Z.Z.Z.Z.c.Z.b.b.b.Z.b.b.b.Z.b.b.Z.b.b.b.b.b.b.m.b.b.m.b.n.b.m.F.F.Z.C.V.N.",
"V.A.C.Z.Z.b.b.b.m.b.F.Z.F.S.Z.F.Z.Z.b.Z.Z.Z.Z.c.Z.Z.Z.Z.Z.Z.b.Z.b.b.b.b.m.Z.b.b.m.Z.b.b.Z.m.b.Z.b.b.b.m.b.z.m.b.m.b.b.b.Z.C.C.V.",
"A.S.S.Z.Z.b.b.m.m.Z.F.Z.S.Z.Z.F.Z.b.Z.Z.Z.Z.Z.Z.Z.Z.c.Z.c.Z.Z.b.Z.b.b.b.b.b.Z.b.b.b.b.b.b.Z.b.m.b.b.b.m.b.m.m.C.b.m.b.b.Z.Z.Z.Z.",
"G.S.Z.Z.Z.m.b.b.Z.F.Z.F.Z.Z.Z.Z.Z.Z.Z.c.Z.Z.b.Z.b.Z.Z.Z.Z.Z.Z.Z.b.b.b.Z.Z.b.Z.m.b.b.b.b.b.b.b.b.z.b.z.b.m.b.m.m.m.Z.b.b.b.c.Z.Z.",
"S.Z.Z.Z.b.m.b.Z.F.Z.m.Z.Z.Z.Z.Z.Z.Z.b.Z.Z.Z.Z.Z.Z.Z.c.Z.Z.Z.Z.b.b.b.m.b.b.m.Z.b.b.b.m.b.b.b.b.b.b.b.b.z.b.b.m.b.F.b.b.b.b.c.c.b.",
"F.F.F.b.Z.b.c.b.b.Z.Z.F.Z.Z.Z.Z.Z.Z.Z.Z.Z.Z.c.Z.c.Z.Z.Z.Z.Z.Z.b.Z.b.Z.Z.b.b.Z.b.c.k.c.b.Z.Z.m.b.b.b.b.b.b.b.b.b.v.Z.Z.Z.b.c.k.b.",
"Z.b.b.Z.c.j.y.k.b.b.b.Z.Z.Z.Z.Z.Z.Z.c.Z.b.Z.Z.Z.Z.Z.Z.Z.Z.Z.Z.Z.b.b.b.b.Z.m.b.b.j.r.r.k.b.b.Z.b.b.b.b.b.b.b.b.b.m.Z.b.Z.Z.c.c.b.",
"b.b.b.b.c.r.w.y.k.c.b.Z.b.b.Z.Z.c.Z.Z.Z.Z.c.Z.c.Z.Z.Z.b.b.Z.c.Z.m.b.b.b.b.Z.b.b.j.q.*.j.b.b.m.Z.b.b.b.b.b.b.b.b.Z.b.Z.b.Z.Z.Z.b.",
"b.b.b.b.c.j.s.y.r.j.c.b.b.b.b.b.b.Z.c.b.Z.c.Z.Z.Z.Z.Z.Z.Z.b.Z.b.Z.Z.b.b.b.b.b.b.c.s.r.r.r.k.b.b.Z.Z.Z.C.Z.Z.b.b.b.b.b.b.Z.Z.Z.Z.",
"b.m.b.b.b.b.c.e.=.t.b.c.k.k.c.b.Z.Z.Z.Z.Z.Z.b.Z.b.Z.b.Z.Z.Z.Z.Z.b.b.b.b.F.b.b.b.b.b.j.q.*.r.b.b.Z.c.C.C.Z.Z.b.b.b.b.b.b.Z.Z.Z.Z.",
"b.b.b.b.b.b.b.s.t.j.b.b.c.c.Z.Z.c.Z.Z.b.c.b.b.Z.Z.b.Z.b.b.Z.b.b.b.b.b.F.b.b.b.b.b.b.k.r.r.j.b.;.Z.c.C.C.Z.Z.b.b.b.b.b.b.Z.Z.Z.c.",
"Z.m.F.b.b.Z.Z.c.k.b.Z.b.Z.b.c.b.Z.b.b.b.Z.b.b.b.b.b.b.b.b.b.F.b.b.b.b.b.b.b.b.F.Z.m.b.b.c.c.b.R.Z.Z.Z.Z.S.Z.b.b.b.z.b.b.Z.Z.Z.b.",
"Z.F.F.v.Z.b.b.b.b.Z.F.v.c.v.b.Z.Z.b.b.Z.b.b.b.Z.b.b.b.b.b.Z.b.b.m.Z.b.b.Z.b.b.Z.b.F.Z.b.b.F.m.^.^.Z.Z.S.Z.Z.Z.b.b.b.b.Z.Z.Z.Z.b.",
"C.F.C.F.b.c.c.c.b.Z.F.F.Z.Z.Z.b.Z.c.b.c.b.b.b.b.b.Z.b.b.Z.m.b.b.b.Z.b.b.m.b.Z.m.b.b.b.b.b.b.b.Z.^.S.Z.Z.Z.Z.Z.b.b.m.b.b.c.Z.b.b.",
"C.F.m.Z.Z.c.c.c.c.b.F.Z.Z.m.b.b.Z.Z.c.k.c.b.b.b.Z.b.Z.b.b.b.b.b.b.b.Z.Z.Z.Z.b.b.b.b.b.b.b.b.b.Z.E.<.Z.S.Z.b.k.k.c.b.b.Z.b.b.b.b.",
"F.Z.Z.b.c.Z.c.c.b.b.Z.Z.Z.v.b.b.F.m.l.r.s.c.b.b.b.b.b.b.b.Z.b.Z.b.b.b.m.b.b.b.b.b.b.m.Z.b.b.b.b.W.[ Z.Z.b.b.s.w.s.b.b.b.b.b.b.b.",
"Z.F.Z.Z.c.b.Z.c.b.c.Z.b.b.b.b.z.F.b.g.q.r.c.b.b.b.b.b.b.b.b.b.m.b.b.Z.m.b.b.F.b.Z.m.b.b.Z.b.m.b.Q.!.p.Z.b.k.w.*.r.b.b.b.b.b.m.b.",
"Z.v.Z.c.Z.b.Z.Z.b.b.Z.b.b.b.b.k.g.r.r.g.k.b.Z.m.b.b.m.4.: : u Z.b.b.Z.b.b.b.b.b.b.b.Z.b.b.b.Z.b.Q.Q.8.C.y.w.e.r.k.b.F.b.Z.b.Z.b.",
"Z.Z.b.Z.Z.c.c.Z.b.x.v.Z.b.v.c.j.q.&.r.b.Z.F.b.b.z.b.r.M -X-X_.& i.b.b.b.b.b.b.b.b.b.b.b.b.b.Z.b.7.Q.8.j.q.=.r.b.b.m.Z.b.Z.m.b.b.",
"b.b.c.Z.Z.Z.c.Z.l.v u m.b.b.b.k.g.r.j.m.m.Z.m.b.8.D N XXJ.J.|.XXN } b.b.b.F.b.Z.Z.b.Z.Z.m.b.b.b.7.Q.,.c.p.r.k.m.b.b.b.b.b.Z.b.b.",
"Z.Z.c.Z.c.c.Z.Z.V.x k v.b.b.b.b.b.b.b.b.b.b.b.: , #  X:.q q J.J. X~.| b.b.b.b.b.b.Z.b.b.b.b.b.b.7.Q.Q.b.c.c.b.F.m.F.b.b.b.b.Z.b.",
"c.c.Z.b.Z.Z.c.Z.O Q.k F.b.b.b.Z.F.F.m.b.m.c.0 ' I $ . = ' ` w J.J._.. . h.c.m.Z.b.m.b.Z.b.b.m.Z.7.Q.Q.Z.m.F.Z.m.Z.b.b.b.b.b.Z.m.",
"Z.c.c.Z.c.Z.Z.Z.O Q.m { b.b.Z.b.b.z.b.b.b.{ d I 3 h W O.$.K ` J.H.N.L I 1 t c.b.Z.b.b.b.b.b.b.b.7.Q.Q.Z.Z.b.b.b.b.b.b.Z.b.b.b.b.",
"c.b.b.Z.Z.Z.Z.c.O Q.Q.Y.9 4.m.b.b.: S b.> , P # T W ) @.K K 0.J.H.B.Q U U j : b.b.Z.m.b.b.b.b./.7.Q.Q.Z.F.F.F.b.Z.b.Z.m.b.b.Z.b.",
"b.b.b.b.b.b.b.b.i.n W.Q.Q.z O e 9 u.D . I $ $ U ( ( ) }.+.#.$XG.J.B.) U ~ I o p.j.c.b.b.b.m.b.#X7.Q.Q.Z.Z.m.b.F.b.b.m.Z.b.b.Z.b.",
"b.c.b.b.b.b.b.b.b.-.e K.K.R.Q.T.>.u.D f I $ $ U ( ( ) |.$X$XD.e.J.%.) U ~ I I o 2 D } b.b.Z.7.%X7.Q.Q.b.Z.b.b.b.b.b.b.Z.b.b.m.b.",
"b.b.b.b.b.b.b.b.b.b.b.} } c l l T.e.F f I * $ ' / E ) M.J.J.G.D.[ T W ( ~ E U * W Y 8 } b.b.2.:X7.Q.&Xb.b.b.b.b.m.b.b.b.b.b.Z.b.",
"b.b.Z.b.b.c.b.b.b.b.b.b.b.b.b.D G 0.- T ' d   P T T   X     ' U I / E / ~ W U # W / T 6 i.b.2.:X7.Q.=Xb.b.b.b.b.Z.Z.b.b.b.b.Z.b.",
"b.b.b.b.b.b.b.b.b.b.b.b.b.b.b.-.Z D 4 V ' ' s + h $   N   M $ I U U ~ / W ~ U # W / T 6 i.7.:X:X7.@X:Xm.b.m.Z.Z.Z.m.b.b.m.Z.b.b.",
"b.b.b.b.b.b.b.b.b.b.c.b.b.b.b.b.4.} w.} # j a i  ...C     m $ U ! ~ ) R ~ / < L / ) T 6 i.7.:X:X~.=X:XF.b.b.b.b.b.Z.b.b.Z.b.b.b.",
"b.b.b.b.b.b.b.b.b.b.b.b.b.b.b.b.b.b.b.c.v.@ i p :XU./ / -   $ ( / ) R / ) / o R / U ) 6 i.:X:X:X:X:X:Xb.b.Z.m.b.b.b.b.b.b.b.b.F.",
"b.b.b.b.b.b.b.b.b.b.b.b.b.b.c.b.b.b.b.b.b.H & i oX].).I.+.P.{.U R R Q ) B 5 T ) ^ R ^ 4 ;.:X:X:X:X:X'.b.b.b.Z.Z.b.b.F.b.b.b.b.b.",
"b.b.b.b.b.b.b.b.b.b.b.b.b.b.b.b.b.c.b.z.b.H & i j X.) +.).;X{.j - / V - d 2 ^ ^ W / - 8.#X:X:X:X:X:Xi.Z.b.Z.b.b.Z.b.b.Z.b.b.m.Z.",
"b.b.b.b.b.b.c.b.b.b.c.b.b.z.b.c.b.b.b.b.b.H & p O.s I U {.;Xs I I   d I I I X T 6   Z.2.:X:X:X:X:X:Xi.Z.Z.m.b.b.Z.m.b.Z.b.b.Z.b.",
"b.b.b.b.b.b.b.b.b.z.b.b.b.c.b.b.z.b.z.b.b.4.% p O.+.f g f f U h d I U I I I I X i i r '.:X:X:X:X:X{.h.b.b.b.b.F.b.b.Z.m.m.Z.b.b.",
"b.b.b.b.c.b.b.b.b.b.z.b.b.z.z.b.b.c.b.b.z.c.0 i L %.) ~ ! ) h 7 B ! T I I I $ i i i o.:X:X:X:X:X:X<.b.b.b.b.b.b.b.b.b.b.Z.b.b.b.",
"b.b.b.b.b.b.b.b.b.c.z.b.b.b.c.b.z.z.b.b.    d i b H.H.R / U - / ) ) / I I $ i i a   :X:X:X:X:X:X[.m.b.b.m.Z.b.b.m.Z.b.b.b.b.Z.b.",
"m.b.b.b.b.b.b.c.b.b.c.b.z.b.z.b.b.b.w., I h 3 U e V.D.U U f 7 ^ ) / / Y d & i i @ o.:X:X:X:X:X:X[.m.b.Z.Z.b.b.b.Z.b.b.b.b.b.m.b.",
"b.b.b.b.b.b.b.b.b.z.b.z.z.b.c.b.b.b.H f I I $ I 8 | e.< < V J ] / Y - + i i i a * *X:X:X:X:X:X:X5.m.Z.b.b.b.b.b.b.b.b.Z.b.b.Z.b.",
"b.b.b.b.b.b.b.b.b.b.b.b.b.b.z.b.b.m.D C / I $ I U = . i O w.r.@.U o i       i I ].:X:X:X:X:X:X:XZ.Z.b.b.b.b.F.b.b.b.Z.m.b.Z.b.b.",
"b.b.b.b.b.b.b.b.b.b.b.b.b.z.b.b.z.b.-.V / Y 2 U I $ b.% ; > t A - , 0 x.F.b.e L.:X:X:X:X:X:X:X{ b.b.b.b.b.Z.b.b.b.Z.b.Z.b.b.b.Z.",
"b.b.b.b.b.c.z.b.z.b.c.z.b.b.m.F.b.b.b.9 - 5 P I h u b.t d.D.9.; c.Z.b.b.b.b.b.:X:X:X:X:X:X:X{.@ Z.b.b.b.b.b.b.b.b.b.b.b.b.b.Z.m.",
"c.b.b.z.b.b.b.b.b.b.b.b.b.b.m.F.m.m.b.0 P I I I d { F.0 e.e.J.y x.F.b.b.b.b.#X:X:X:X:X:X;X:X(.' : b.b.b.b.b.b.b.b.b.b.b.b.Z.b.b.",
"z.b.c.b.b.z.c.b.z.b.c.z.c.m.F.F.F.F.c.> U I I f S Z.Z.m Q.Q.[ -.b.b.b.b.h.'.:X:X:X:X:X:X=X#X` ` _ { b.b.b.b.b.b.b.b.b.b.m.b.b.b.",
"z.b.b.c.z.c.z.b.b.b.c.b.b.m.b.Z.b.b.j.G F F { D Z.Z.b.Q.Q.Q.!.Z.b.b.b.b.'.:X:X:X:X:X:X:X:X4.b.c.b.b.b.b.b.b.c.c.b.b.b.F.Z.b.Z.b.",
"b.b.z.b.b.b.z.b.z.b.z.b.b.c.b.z.b.c.r.q.r.c.b.b.m.b.R.Q.Q.Q.W.;.m.b.Z.#X:X:X:X:X:X:X:X:X&.p.c.k.k.k.c.b.b.b.b.b.b.b.b.b.b.b.b.b.",
"b.b.z.b.b.b.b.b.z.b.b.z.b.c.c.c.b.v.l.r.k.b.b.b.1.OXQ.Q.Q.Q.Q.Q.5.,.*X:X:X:X:X:X:X:X%X;.w.k.b.v.k.c.c.b.b.b.c.b.b.c.b.b.b.b.b.m.",
"c.b.b.b.b.z.b.c.b.c.b.b.b.z.b.c.m.F.b.b.Z.F.F.3.+XQ.Q.Q.Q.Q.Q.Q.Q.&X:X:X:X:X:X:X:X:X5.b.v.Z.Z.b.z.c.b.b.b.b.b.b.b.b.b.b.b.Z.b.Z.",
"b.b.b.b.z.b.z.b.z.b.b.b.b.b.c.c.b.F.b.b.F.F./.:XQ.Q.Q.Q.Q.Q.Q.@X;X:X:X:X:X:X:X:X:X9.z.b.b.b.F.b.b.c.b.b.b.b.b.b.b.c.b.b.b.Z.b.Z.",
"b.b.b.b.b.c.b.c.z.b.b.b.z.b.c.k.b.b.b.b.b.b.`.:X*XOXOXOXOXOX:X:X:X:X:X:X:X:X:X%X5.z.c.c.c.b.m.b.b.c.b.b.Z.Z.b.b.b.b.b.b.Z.b.b.Z.",
"b.b.b.b.b.b.k.k.j.c.m.b.Z.b.z.b.b.F.b.b.b.b.5.:X:X:X:X:X:X:X:X:X:X:X:X:X:X:X:X5.c.c.c.c.b.b.b.b.v.b.b.Z.Z.Z.c.j.c.b.b.b.Z.Z.Z.Z.",
"F.F.m.b.b.b.k.y.w.j.F.F.C.c.b.b.b.b.F.b.m.Z.F.:X:X:X:X:X:X:X:X:X:X:X:X:X:X:X9.b.b.Z.Z.c.z.b.b.b.b.b.Z.C.S.Z.s.w.s.b.c.b.b.c.Z.Z.",
"F.F.F.F.b.b.k.r.q.f.v.C.v.b.b.Z.Z.F.b.b.b.F.m.b..X:X:X:X:X:X:X:X:X:X:X[.2.b.F.b.b.b.m.b.b.b.c.b.Z.Z.Z.C.F.v.p.q.s.b.Z.Z.c.Z.C.S.",
"Z.Z.F.F.b.b.c.k.g.r.w.f.v.b.Z.Z.Z.m.b.F.b.Z.Z.b.i.<.:X:X:X:X:X/.<.<.<.v.b.F.b.b.b.Z.Z.b.b.b.b.b.Z.v.C.v.g.i.p.j.j.Z.Z.Z.Z.Z.Z.Z.",
"Z.Z.F.F.F.Z.b.b.c.w.&.w.g.b.Z.F.Z.Z.Z.m.F.b.b.F.b.F.i.i.i.i.h.v.Z.Z.m.Z.Z.Z.m.b.b.b.b.b.b.b.c.b.b.v.v.g.q.q.f.F.Z.Z.Z.F.S.F.S.S.",
"Z.F.b.m.b.b.b.b.Z.x.r.j.v.v.Z.b.Z.m.Z.b.F.b.Z.Z.Z.b.m.Z.F.Z.b.b.m.Z.m.Z.m.Z.Z.Z.b.b.b.b.b.b.b.b.b.b.m.l.f.f.h.F.Z.Z.Z.Z.F.S.S.S.",
"b.b.b.b.Z.s.c.Z.Z.Z.b.z.b.b.b.m.F.b.m.F.b.b.Z.m.m.b.b.F.F.b.m.b.Z.Z.m.Z.Z.b.F.b.b.b.b.b.b.b.b.b.b.m.n.m.m.m.m.F.Z.Z.Z.Z.Z.S.S.S.",
"j.b.b.b.Z.Z.c.Z.b.b.b.b.m.b.b.b.b.Z.Z.Z.b.F.Z.m.Z.F.b.b.b.Z.Z.F.Z.m.Z.Z.b.F.b.b.b.Z.b.b.b.b.b.b.z.m.n.n.m.m.F.b.Z.Z.c.Z.Z.Z.Z.x.",
"y.b.b.c.Z.c.s.Z.b.c.k.z.z.b.m.m.m.Z.b.Z.b.m.Z.Z.Z.b.F.b.m.Z.Z.b.Z.Z.b.m.b.F.m.Z.m.Z.b.b.b.b.b.b.b.m.n.n.n.n.z.Z.Z.Z.c.Z.Z.Z.C.a.",
"t.c.b.c.c.Z.Z.c.c.b.z.z.n.m.m.b.b.b.Z.b.Z.b.F.b.Z.F.b.Z.F.Z.Z.m.m.Z.F.b.b.b.Z.b.b.b.b.b.b.b.b.b.b.m.m.n.n.n.c.Z.Z.Z.Z.Z.Z.S.s.0.",
"y.c.b.b.b.b.Z.Z.b.z.z.z.n.n.m.b.b.Z.Z.Z.Z.Z.Z.m.m.Z.F.Z.m.Z.Z.Z.b.F.Z.m.F.Z.Z.Z.b.b.b.b.b.m.b.b.b.z.m.m.z.b.b.Z.c.Z.Z.Z.Z.Z.s.u.",
"u.c.c.b.c.Z.Z.c.b.b.n.n.n.n.m.b.b.Z.b.Z.b.Z.Z.Z.Z.Z.Z.F.Z.Z.Z.F.m.b.Z.b.b.m.Z.m.b.b.F.b.b.b.b.b.b.m.b.z.b.Z.Z.Z.Z.Z.Z.c.c.c.p.u.",
"u.C.b.b.b.b.b.b.b.b.n.n.n.n.m.b.b.Z.Z.Z.Z.Z.Z.Z.Z.Z.Z.F.Z.F.F.Z.Z.Z.b.F.Z.Z.Z.m.F.b.m.b.b.b.b.b.b.b.b.n.c.c.c.C.C.C.Z.c.c.C.C.8.",
"9.C.Z.b.b.b.c.b.b.z.n.n.n.n.b.b.b.Z.b.Z.b.Z.Z.b.F.F.Z.Z.F.Z.Z.Z.m.Z.Z.Z.m.m.Z.Z.b.Z.Z.b.b.b.b.m.b.b.z.b.c.Z.Z.C.C.C.Z.c.c.c.B.6."
};
