/* XPM */
static char *result[] = {
/* columns rows colors chars-per-pixel */
"64 64 189 2 ",
"   c #151C1B",
".  c #1B1E1E",
"X  c #221E1E",
"o  c #1C211E",
"O  c #22201D",
"+  c #1F1E20",
"@  c #251F21",
"#  c #1E2525",
"$  c #2D2226",
"%  c #2B2627",
"&  c #2C2A22",
"*  c #272D2D",
"=  c #372524",
"-  c #3E272F",
";  c #3D3224",
":  c #3D3A2B",
">  c #2C2B33",
",  c #2E3033",
"<  c #462825",
"1  c #59272C",
"2  c #423525",
"3  c #493729",
"4  c #573D2A",
"5  c #482A35",
"6  c #552E3A",
"7  c #592F3C",
"8  c #6D322D",
"9  c #6A362C",
"0  c #692A33",
"q  c #742A32",
"w  c #7A2B35",
"e  c #773636",
"r  c #4F432D",
"t  c #554129",
"y  c #5C442B",
"u  c #554933",
"i  c #67472D",
"p  c #6A4C2E",
"a  c #734B2F",
"s  c #6C4930",
"d  c #714D33",
"f  c #665537",
"g  c #7C5533",
"h  c #775A39",
"j  c #71623F",
"k  c #293C41",
"l  c #3B3643",
"z  c #433744",
"x  c #4A3746",
"c  c #4A3945",
"v  c #543849",
"b  c #593848",
"n  c #643242",
"m  c #6A3647",
"M  c #6B3A4D",
"N  c #743746",
"B  c #753649",
"V  c #7A394C",
"C  c #753C50",
"Z  c #7C3C52",
"A  c #585C58",
"S  c #745E49",
"D  c #415961",
"F  c #646969",
"G  c #78706A",
"H  c #882C37",
"J  c #942E3A",
"K  c #825535",
"L  c #9B573C",
"P  c #AC5134",
"I  c #8C6238",
"U  c #98683B",
"Y  c #A26E3E",
"T  c #A6723F",
"R  c #D95B3D",
"E  c #DB643C",
"W  c #E46D3A",
"Q  c #88384A",
"!  c #973546",
"~  c #863D53",
"^  c #8E3E56",
"/  c #933E56",
"(  c #9E3D54",
")  c #AA3648",
"_  c #BA3647",
"`  c #A53D53",
"'  c #AB3C53",
"]  c #B23C51",
"[  c #BB3B50",
"{  c #C63546",
"}  c #CE3648",
"|  c #C63B4E",
" . c #CC3A4E",
".. c #D13749",
"X. c #D43A4D",
"o. c #DB394C",
"O. c #C13B50",
"+. c #DD3D50",
"@. c #E0394C",
"#. c #E03E50",
"$. c #9D414F",
"%. c #855B46",
"&. c #9C5C41",
"*. c #964355",
"=. c #92435A",
"-. c #AC4849",
";. c #B4584F",
":. c #AB4757",
">. c #9F6144",
",. c #8D7347",
"<. c #AA7540",
"1. c #B47B43",
"2. c #B87D44",
"3. c #B16C5F",
"4. c #974C63",
"5. c #9B5369",
"6. c #BA6E6E",
"7. c #C45544",
"8. c #E1464A",
"9. c #E25443",
"0. c #E45754",
"q. c #C47A45",
"w. c #E57945",
"e. c #E56658",
"r. c #E7785D",
"t. c #C9566A",
"y. c #B4854C",
"u. c #B8985B",
"i. c #C28549",
"p. c #C58A4F",
"a. c #CA894B",
"s. c #D88B4C",
"d. c #D6914F",
"f. c #C98C50",
"g. c #DA9550",
"h. c #EB8549",
"j. c #E8874A",
"k. c #EE8C4C",
"l. c #EE914F",
"z. c #F1914F",
"x. c #E68956",
"c. c #ED9250",
"v. c #E49A53",
"b. c #E89D55",
"n. c #F39551",
"m. c #F59A53",
"M. c #F89F56",
"N. c #F09F58",
"B. c #C4A25F",
"V. c #ECA157",
"C. c #F9A057",
"Z. c #F3A459",
"A. c #FBA559",
"S. c #F0A95F",
"D. c #FFAD5D",
"F. c #D59E69",
"G. c #EE9F61",
"H. c #CEA963",
"J. c #EAA764",
"K. c #F0AB61",
"L. c #EBB56D",
"P. c #F1BA6B",
"I. c #EFC270",
"U. c #F1C471",
"Y. c #577880",
"T. c #AD788C",
"R. c #A97D92",
"E. c #B97F91",
"W. c #6C909B",
"Q. c #6597A8",
"!. c #6DA5B8",
"~. c #8C8A8D",
"^. c #908D8F",
"/. c #A8AA9C",
"(. c #9496A6",
"). c #A8A7AA",
"_. c #B9B4BA",
"`. c #D28191",
"'. c #E095A3",
"]. c #CDABB8",
"[. c #C1BCC0",
"{. c #9BC6D7",
"}. c #AFCEDE",
"|. c #D2CDD2",
" X c #DACAD4",
".X c #CBDAE6",
"XX c #E6DDE4",
"oX c #E8E4EC",
"OX c #F2EAF1",
/* pixels */
"l.D.D.D.D.D.D.D.D.D.D.D.D.D.D.D.D.D.D.D.D.D.D.D.D.D.D.D.D.D.D.D.D.D.D.D.D.D.D.D.D.D.D.D.D.D.D.D.D.D.D.D.D.D.D.D.D.D.D.D.D.D.D.D.",
"M.D.D.D.D.D.D.D.D.D.D.D.D.D.D.D.D.D.D.D.D.D.D.D.D.D.D.D.D.D.D.D.D.D.D.D.D.D.D.D.D.D.D.D.D.D.D.D.D.D.D.D.D.D.D.D.D.D.D.D.D.D.D.D.",
"A.D.D.D.D.D.D.D.D.D.D.D.D.D.D.D.D.D.D.D.D.D.D.D.D.D.D.D.D.D.D.D.D.D.D.D.D.D.D.D.D.D.D.D.D.D.D.D.D.D.D.D.D.D.D.D.D.D.D.D.D.D.D.D.",
"D.D.D.D.D.D.D.D.D.D.D.D.D.D.D.D.D.D.D.D.D.D.D.D.D.D.D.D.D.D.D.D.D.D.D.D.D.D.D.D.D.D.D.D.D.D.D.D.D.D.D.D.D.D.D.D.D.D.D.D.D.D.D.D.",
"D.D.D.D.D.D.D.D.D.D.D.D.D.D.D.D.D.D.D.D.D.D.D.D.D.D.D.D.D.D.D.D.D.D.D.D.D.D.D.D.D.D.D.D.D.D.D.D.D.D.D.D.D.D.D.D.D.D.D.D.D.D.D.D.",
"D.D.D.D.D.D.D.D.D.D.D.D.D.D.D.D.D.D.D.D.D.D.D.D.D.D.D.D.D.D.D.D.D.D.D.D.D.D.D.D.D.D.D.A.D.D.D.D.D.D.D.D.D.D.D.D.D.D.D.D.D.D.D.D.",
"D.D.D.D.C.m.n.C.D.D.D.D.D.D.D.D.D.D.D.D.D.D.D.D.D.D.D.D.D.D.D.D.D.D.D.D.D.D.D.D.D.A.n.m.A.D.D.D.D.D.D.D.D.D.D.D.D.D.D.D.D.D.D.D.",
"D.D.D.D.M.k.j.m.D.D.D.D.D.D.D.D.D.D.D.D.D.D.D.D.D.D.D.D.D.D.D.D.D.D.D.D.D.D.D.D.D.m.h.k.C.D.D.D.D.D.D.D.D.D.D.D.D.D.D.D.D.D.D.D.",
"D.D.D.D.C.n.z.n.M.C.D.D.D.D.D.D.D.D.D.D.D.D.D.D.D.D.D.D.D.D.D.D.D.D.D.D.D.D.D.D.D.Z.n.z.m.m.A.D.D.D.D.D.D.D.D.D.D.D.D.D.D.D.D.D.",
"D.D.D.D.D.D.C.z.j.m.A.D.D.D.D.D.D.D.D.D.D.D.D.D.D.D.D.D.D.D.D.D.D.D.D.D.D.D.D.D.D.D.A.m.k.k.m.D.D.D.D.D.D.D.D.D.D.D.D.D.D.D.D.D.",
"D.D.D.D.D.D.A.n.k.m.D.D.D.D.D.D.D.D.D.D.D.D.D.D.D.D.D.D.D.D.D.D.D.D.D.D.D.D.D.D.D.D.D.A.n.k.Z.D.D.D.D.D.D.D.D.D.D.D.D.D.D.D.D.D.",
"D.D.D.D.D.D.D.A.M.A.D.D.D.D.D.D.D.D.D.D.D.D.D.D.D.D.D.D.D.D.D.D.D.D.D.D.D.D.D.D.D.D.D.A.C.C.D.D.D.D.D.D.D.D.D.D.D.D.D.D.D.D.D.D.",
"D.D.D.D.D.D.D.D.D.D.D.D.D.D.D.D.D.D.D.D.D.D.D.D.D.D.D.D.D.D.p p f p 2.D.D.D.D.D.D.D.D.D.D.D.D.D.D.D.D.D.D.D.D.D.D.D.D.D.D.D.D.D.",
"D.D.D.D.D.D.D.D.D.D.D.D.D.D.D.D.D.D.D.D.D.D.D.D.D.D.D.D.D.y u.u.u.u.j r d.D.D.D.D.D.D.D.D.D.D.D.D.D.D.D.D.D.D.D.D.D.D.D.D.D.D.D.",
"D.D.D.D.D.D.D.D.D.D.D.D.D.D.D.D.D.D.D.D.D.D.D.D.D.D.D.D.i B.U.U.U.U.L.H.r V.D.D.D.D.D.D.D.D.D.D.D.D.D.D.D.D.D.D.D.D.D.D.D.D.D.D.",
"D.D.D.D.D.D.D.D.D.D.D.D.D.D.D.D.D.D.A.m.C.A.D.D.D.D.D.y B.O     f I.I.I.I.& D.D.D.D.D.D.D.D.D.D.D.D.D.D.D.D.D.A.m.Z.D.D.D.D.D.D.",
"D.D.D.D.D.D.D.D.D.D.D.D.D.D.D.D.D.D.m.k.k.C.D.D.D.K.D.D.4 d.v.v.Y j U.U.U.: v.D.D.D.D.D.D.D.D.D.D.D.D.D.D.D.D.n.h.z.A.D.D.D.D.D.",
"D.D.D.D.D.D.D.D.D.D.D.D.D.D.D.D.A.M.m.k.z.A.D.D.D.D.D.s.i.3 2 < < ,.U.U.U.U.. D.D.D.D.D.D.D.D.D.D.D.D.D.D.A.m.n.k.n.A.D.D.D.D.D.",
"D.D.D.D.D.D.D.D.D.D.D.D.D.D.D.D.m.k.z.M.C.D.D.D.K.v.<.9 1 E W W W l.U.U.U.U.  1.D.D.D.D.D.D.D.D.D.D.D.D.A.n.k.n.C.A.D.D.D.D.D.D.",
"D.D.D.D.D.D.D.D.D.D.D.D.D.D.D.D.n.j.z.A.D.D.D.D.d.i 0 _ @.9.9.9.9.x.U.U.U.U.q 6 T D.D.D.D.D.D.D.D.D.D.D.A.n.h.m.D.D.D.D.D.D.D.D.",
"D.D.D.D.D.D.D.D.D.D.D.D.D.D.D.D.C.m.M.D.D.D.D.v.9 ! [ @.r.#.@.@.o.r.U.U.U.r.o./ e T D.D.D.D.D.D.D.D.D.D.D.C.m.A.D.D.D.D.D.D.D.D.",
"D.D.D.D.D.D.D.D.D.D.D.D.D.D.D.D.D.D.D.D.D.D.Z.4 _ [ [ +.J.G.@.#.0.N.N.P.U.8.o.( ..e T D.D.D.D.D.D.D.D.D.D.D.D.D.D.D.D.D.D.D.D.D.",
"D.D.D.D.D.D.D.D.D.D.D.D.D.D.D.D.D.D.D.D.D.D.Z.= @.[ O.#.:.L.L.L.P.K.z.K.e.o.o.( @.J I D.D.D.D.D.D.D.D.D.D.D.D.D.D.D.D.D.D.D.D.D.",
"D.D.D.D.D.D.D.D.D.D.D.D.D.D.D.D.D.D.D.D.D.D.X } ' @.] O.( 4.U.P.U.U.U.3./ o./ @. .-.q T D.D.D.D.D.D.D.D.D.D.D.D.D.D.D.D.D.D.D.D.",
"D.D.D.D.D.D.D.D.D.D.D.D.D.D.D.D.D.D.Z.4 @   @ X.' o.@.] ^ Q   >   # % 7 ~ ( +.o.| [ w . . @ v.D.D.D.D.D.D.D.D.D.D.D.D.D.D.D.D.D.",
"D.D.D.D.D.D.D.D.K.D.D.D.D.D.D.D.D.b.a ) ( + / @. .] o.@.( + + ).  F F   B o.@.| ] @.] - B o.< d.D.D.D.D.D.D.D.D.D.D.D.D.D.D.D.D.",
"D.D.D.D.D.D.D.D.D.D.D.D.D.D.D.D.v.d J @.( . /  .@. .[ X.( 5   . 1 =   $ Z O.O.] o.X.' - B o.o.5 i.D.D.D.D.D.D.D.D.D.D.D.D.D.D.D.",
"D.D.D.D.D.D.D.D.D.D.D.D.D.D.D.b.i 5 O.@.` . ^ / |  .Q ( E./ q ! o._ q Q E./ M O.X.` =.- B o.o.V ; 2.D.D.D.D.D.D.D.D.D.D.D.D.D.D.",
"D.D.D.D.D.D.D.D.D.D.D.D.D.D.Z.s 0 0 ] X.| n 5 ^ ( ~ M ~  X].+.T.+.t.t.`.XX4.M M ` / n 6 ) o.' ) & 8 y.D.D.D.D.D.D.D.D.D.D.D.D.D.",
"D.D.D.D.D.D.D.D.D.D.D.D.D.D.y P P 0 X.] X. .m 5 ^ M M ^  XOX(.6.(.R.R. XOX4.^ x / n 6 ) o.' | { < } 8 i.D.D.D.D.D.D.D.D.D.D.D.D.",
"D.D.D.D.D.D.D.D.D.D.D.D.D.D.O W R H H X.` o.X.C x z M ^ 5.XXXX+.t.+.'.OXT.^ ^ l x z Q o.'  .o.< } @.q T D.D.D.D.D.D.D.D.D.D.D.D.",
"D.D.D.D.D.D.D.D.D.D.D.D.D.D.O 8.o.o.Q - O./ l l v ' Q C ^ ^ #.@.+.+.#.' ^ ^ z  .C l l C X.c 5 o.@.@.w T D.D.D.D.D.D.D.D.D.D.D.D.",
"D.D.D.D.D.D.D.D.D.D.D.D.D.D.& } o.[ ^ ^ c l l c ^ ] o.N Z ~ ^ ( o.[ ^ ~ ~ v o.X.^ M l l l ~ ^ ( ....q 1.D.D.D.D.D.D.D.D.D.D.D.D.",
"D.D.D.D.D.D.D.D.D.D.D.D.d.a.2.1 $./ ^ ^ b l l c ^ ;.W 9.m b Z ~ Z Z Z M v X.@.X.^ C l l x ^ ^ / ( e g a.a.Z.D.D.D.D.D.D.D.D.D.D.",
"D.D.D.D.D.D.D.D.D.D.D.i.f y O E E 7.*.^ ^ z l z V -.9.8.` o.B B B B N _ ( o.o.[ ~ b l l Z ^ ^ -.E E 9 3 f U D.D.D.D.D.D.D.D.D.D.",
"D.D.D.D.D.D.D.D.D.D.D.y B.S.g Y l.h.7.e 6 > l l v =.` X.[ [ @.@.o.@.@.| [ o.[ / C l l > x 6 ' w.z.q.K p.I.& D.D.D.D.D.D.D.D.D.D.",
"D.D.D.D.D.D.D.D.D.D.D.2.j V.K.I s >.L K O 7 C l z C =.` X.[ ] :.] :.] [ X.] ^ ~ v l b n @ I 9 s.a g a.S.,.I D.D.D.D.D.D.D.D.D.D.",
"D.D.D.D.D.D.D.D.D.D.D.I Y.).V.H.K & K V.; ~ =.M l z v V ` ` ^ *.F.6.^ ` ` / v x l v ~ ^ $ v.1.2 2 f.D./.W.r D.D.D.D.D.D.D.D.D.D.",
"D.D.D.D.D.D.D.D.D.K.I F !.k 2 I.y.i V.D.; | ^ ^ M l l z x ^ ^ v.U.J.;.=.b x l l x ~ ^ [ = b.D.2.u P.,., Q.!.; D.D.D.D.D.D.D.D.D.",
"D.D.D.D.D.D.D.D.y.# ^.{.k b.b.o t D.D.D.; X.o.^ ^ 7 * l l l c c.z.z.%.l l l l @ ^ ^ [ @.< b.D.D.1.o I S.3 !.oXo t D.D.D.D.D.D.D.",
"D.I % > * * * * D }.XXA s.D.D.D.D.D.D.D.V.O { ..[ 7 @ > l l 5 g.l.j.%.l , l % $ ( } } 1 2.D.D.D.D.D.D.D.D.;  XXXQ.* * * * * * & ",
"D.T Y..XOXOXOXOX.X{.F i.D.D.D.D.D.D.D.D.; =.$ & @ 7 ^ - = 2 ; 4 q.K r 3 2 o =.V $ $ $ m $ b.D.D.D.D.D.D.D.D.3 }.{.OXOXOXOXOX[.y ",
"D.D.Y u.).oXOXXX(.A 2.D.D.D.D.D.D.D.D.D.2 7 =.^ / / S t g.D.D.v.y T K.K.D.p n =.^ ^ / B $ v.D.D.D.D.D.D.D.D.D.u W.|.oXOX_.).i D.",
"D.D.D.Y g ~.^.G g 1.D.D.D.D.D.D.D.D.D.D.U a L L >.>.K d.D.D.D.D.D.D.D.D.D.D.g >.&.&.L K g Z.D.D.D.D.D.D.D.D.D.V.g S ~.~.h g D.D.",
"D.D.D.D.K.U U 1.D.D.D.D.D.D.D.D.D.D.D.D.C.k.j.m.D.D.D.D.D.D.D.D.D.D.D.D.D.D.D.D.D.m.h.k.M.D.D.D.D.D.D.D.D.D.D.D.D.d.U U v.D.D.D.",
"D.D.D.D.D.D.D.D.D.D.D.D.D.D.D.D.D.D.C.m.z.n.m.C.D.D.D.D.D.D.D.D.D.D.D.D.D.D.D.D.K.C.n.n.n.n.C.D.D.D.D.D.D.D.D.D.D.D.D.D.D.D.D.D.",
"D.D.D.D.D.D.D.D.D.D.D.D.D.D.D.D.D.D.m.k.k.m.D.D.D.D.D.D.D.D.D.D.D.D.D.D.D.D.D.D.D.D.D.M.k.j.m.D.D.D.D.D.D.D.D.D.D.D.D.D.D.D.D.D.",
"D.D.D.D.D.D.D.D.D.D.D.D.D.D.D.D.D.D.C.n.z.C.D.D.D.D.D.D.D.D.D.D.D.D.D.D.D.D.D.D.D.D.D.C.n.n.M.D.D.D.D.D.D.D.D.D.D.D.D.D.D.D.D.D.",
"D.D.D.D.D.D.D.D.D.D.D.D.D.D.D.D.D.D.D.D.D.D.D.D.D.D.D.D.D.D.D.D.D.D.D.D.D.D.D.D.D.D.D.D.A.A.D.D.D.D.D.D.D.D.D.D.D.D.D.D.D.D.D.D.",
"D.D.D.D.D.D.D.D.D.D.D.D.D.D.D.D.D.D.D.D.D.D.D.D.D.D.D.D.D.D.D.D.D.D.D.D.D.D.D.D.D.D.D.D.D.D.D.D.D.D.D.D.D.D.D.D.D.D.D.D.D.D.D.D.",
"D.D.D.D.D.D.D.D.D.D.D.D.D.D.D.D.D.D.D.D.D.D.D.D.D.D.D.D.D.D.D.D.D.D.D.D.D.D.D.D.D.D.D.D.D.D.D.D.D.D.D.D.D.D.D.D.D.D.D.D.D.D.D.D.",
"D.D.D.D.D.D.D.D.A.D.D.D.D.D.D.D.D.D.D.D.D.D.D.D.D.D.D.D.D.D.D.D.D.D.D.D.D.D.D.D.D.D.D.D.D.D.D.D.D.D.D.D.D.D.D.D.A.D.D.D.D.D.D.D.",
"D.D.D.D.D.D.D.m.n.M.D.D.D.D.D.D.D.D.D.D.D.D.D.D.D.D.D.D.D.D.D.D.D.D.D.D.D.D.D.D.D.D.D.D.D.D.D.D.D.D.D.D.D.D.D.m.n.m.D.D.D.D.D.D.",
"D.D.D.D.D.D.A.l.w.z.D.D.D.D.D.D.D.D.D.D.D.D.D.D.D.D.D.D.D.D.D.D.D.D.D.D.D.D.D.D.D.D.D.D.D.D.D.D.D.D.D.D.D.D.D.n.h.k.C.D.D.D.D.D.",
"D.D.D.D.D.D.D.m.z.n.n.M.D.D.D.D.D.D.D.D.D.D.D.D.D.D.D.D.D.D.D.D.D.D.D.D.D.D.D.D.D.D.D.D.D.D.D.D.D.D.D.D.D.C.n.m.z.m.A.D.D.D.D.D.",
"D.D.D.D.D.D.D.A.C.n.j.n.C.D.D.D.D.D.D.D.D.D.D.D.D.D.D.D.D.D.D.D.D.D.D.D.D.D.D.D.D.D.D.D.D.D.D.D.D.D.D.D.A.n.j.n.C.D.D.D.D.D.D.D.",
"D.D.D.D.D.D.D.D.D.M.z.n.A.D.D.D.D.D.D.D.D.D.D.D.D.D.D.D.D.D.D.D.D.D.D.D.D.D.D.D.D.D.D.D.D.D.D.D.D.D.D.D.A.m.k.m.D.D.D.D.D.D.D.D.",
"D.D.D.D.D.D.D.D.D.A.C.C.D.D.D.D.D.D.D.D.D.D.D.D.D.D.D.D.D.D.D.D.D.D.D.D.D.D.D.D.D.D.D.D.D.D.D.D.D.D.D.D.D.A.C.A.D.D.D.D.D.D.D.D.",
"D.D.D.D.D.D.D.D.D.D.D.D.D.D.D.D.D.D.D.D.D.D.D.D.D.D.D.D.D.D.D.D.D.D.D.D.D.D.D.D.D.D.D.D.D.D.D.D.D.D.D.D.D.D.D.D.D.D.D.D.D.D.D.D.",
"C.D.D.D.D.D.D.D.D.D.D.D.D.D.D.D.D.D.D.D.D.D.D.D.D.D.D.D.D.D.D.D.D.D.D.D.D.D.D.D.D.D.D.D.D.D.D.D.D.D.D.D.D.D.D.D.D.D.D.D.D.D.D.D.",
"m.D.D.D.D.D.D.D.D.D.D.D.D.D.D.D.D.D.D.D.D.D.D.D.D.D.D.D.D.D.D.D.D.D.D.D.D.D.D.D.D.D.D.D.D.D.D.D.D.D.D.D.D.D.D.D.D.D.D.D.D.D.D.D.",
"n.D.D.D.D.D.D.D.D.D.D.D.D.D.D.D.D.D.D.D.D.D.D.D.D.D.D.D.D.D.D.D.D.D.D.D.D.D.D.D.D.D.D.D.D.D.D.D.D.D.D.D.D.D.D.D.D.D.D.D.D.D.D.D.",
"m.D.D.D.D.D.D.D.D.D.D.D.D.D.D.D.D.D.D.D.D.D.D.D.D.D.D.D.D.D.D.D.D.D.D.D.D.D.D.D.D.D.D.D.D.D.D.D.D.D.D.D.D.D.D.D.D.D.D.D.D.D.D.D.",
"m.D.D.D.D.D.D.D.D.D.D.D.D.D.D.D.D.D.D.D.D.D.D.D.D.D.D.D.D.D.D.D.D.D.D.D.D.D.D.D.D.D.D.D.D.D.D.D.D.D.D.D.D.D.D.D.D.D.D.D.D.D.D.D."
};
