/* XPM */
static char *result[] = {
/* columns rows colors chars-per-pixel */
"64 64 189 2 ",
"   c #151B1B",
".  c #191D1D",
"X  c #1D201D",
"o  c #24241E",
"O  c #28261F",
"+  c #1E1E20",
"@  c #2F1F21",
"#  c #292324",
"$  c #27282E",
"%  c #332C22",
"&  c #3D2528",
"*  c #3E3324",
"=  c #2B2B33",
"-  c #392B34",
";  c #2B3132",
":  c #33343A",
">  c #43272C",
",  c #53242A",
"<  c #5C262C",
"1  c #453626",
"2  c #4A3729",
"3  c #553C29",
"4  c #422831",
"5  c #4C2C35",
"6  c #5D2830",
"7  c #532D39",
"8  c #672E30",
"9  c #652B36",
"0  c #7A2C36",
"q  c #733530",
"w  c #564129",
"e  c #5D442B",
"r  c #4A4430",
"t  c #594B34",
"y  c #62482C",
"u  c #67482D",
"i  c #714D2E",
"p  c #654A31",
"a  c #7A5633",
"s  c #7F5A33",
"d  c #765A39",
"f  c #77633D",
"g  c #3B3643",
"h  c #443745",
"j  c #493746",
"k  c #4E3847",
"l  c #553644",
"z  c #533848",
"x  c #5D394B",
"c  c #643241",
"v  c #6C3646",
"b  c #633A4C",
"n  c #6A3A4D",
"m  c #743749",
"M  c #783548",
"N  c #733A4D",
"B  c #7C394B",
"V  c #743B50",
"C  c #7B3C51",
"Z  c #534E43",
"A  c #52534D",
"S  c #4E5252",
"D  c #7D6C44",
"F  c #6A665A",
"G  c #556D74",
"H  c #6F6E6B",
"J  c #972E3B",
"K  c #8B3733",
"L  c #A7313F",
"P  c #87482C",
"I  c #944D2E",
"U  c #865C36",
"Y  c #B84438",
"T  c #8A6137",
"R  c #8D633A",
"E  c #96673A",
"W  c #96683B",
"Q  c #A36C3D",
"!  c #A6723F",
"~  c #C04732",
"^  c #CA4A37",
"/  c #E46C3A",
"(  c #87384B",
")  c #91384A",
"_  c #9C3848",
"`  c #843C52",
"'  c #8E3E56",
"]  c #933E55",
"[  c #9C3D54",
"{  c #A63342",
"}  c #A6384A",
"|  c #AD394B",
" . c #B53342",
".. c #BB3648",
"X. c #A43D53",
"o. c #AB3C53",
"O. c #B23C52",
"+. c #BB3B51",
"@. c #C93647",
"#. c #C53A4E",
"$. c #CC3A4E",
"%. c #D43749",
"&. c #D43A4D",
"*. c #DC394C",
"=. c #C23B50",
"-. c #DD3D50",
";. c #E0394C",
":. c #9A4E57",
">. c #AA4C4E",
",. c #986541",
"<. c #887348",
"1. c #94704D",
"2. c #AB7641",
"3. c #B37A43",
"4. c #BA7F45",
"5. c #A96954",
"6. c #A75B70",
"7. c #A56478",
"8. c #E1424A",
"9. c #E15243",
"0. c #E25256",
"q. c #C77B46",
"w. c #CE7F47",
"e. c #E47945",
"r. c #C65A6D",
"t. c #9A804D",
"y. c #BD8247",
"u. c #A98C56",
"i. c #B09258",
"p. c #AF8B6B",
"a. c #C58648",
"s. c #CB8A4B",
"d. c #D6924F",
"f. c #DB9551",
"g. c #E88146",
"h. c #EB8649",
"j. c #EE8C4C",
"k. c #EE914F",
"l. c #F1914F",
"z. c #EF9451",
"x. c #E59B54",
"c. c #ED9D56",
"v. c #F39551",
"b. c #F59A53",
"n. c #F89F56",
"m. c #EDA156",
"M. c #F9A057",
"N. c #F3A55A",
"B. c #FBA559",
"V. c #F5A85B",
"C. c #FFAD5D",
"Z. c #DD9466",
"A. c #EA8961",
"S. c #EC9464",
"D. c #C9A562",
"F. c #DEA76B",
"G. c #DBB167",
"H. c #F0AD62",
"J. c #EFB168",
"K. c #EEB468",
"L. c #EABC6E",
"P. c #F0C16F",
"I. c #EFC170",
"U. c #F1C471",
"Y. c #AF7488",
"T. c #E67584",
"R. c #578392",
"E. c #7C8080",
"W. c #678D9A",
"Q. c #6BA3B6",
"!. c #7DB3C9",
"~. c #8F949A",
"^. c #9991A6",
"/. c #A6A3A8",
"(. c #E58F9C",
"). c #C398A7",
"_. c #CFAEBB",
"`. c #82B8CC",
"'. c #89BFD3",
"]. c #B3BBC3",
"[. c #C0BBC1",
"{. c #9EC7D9",
"}. c #BBD3E1",
"|. c #D1CCD3",
" X c #EBCED7",
".X c #E6DCE4",
"XX c #DCE1EB",
"oX c #EEE6ED",
"OX c #F2EAF1",
/* pixels */
"k.B.C.C.C.C.C.C.C.C.C.C.C.C.C.C.C.C.C.C.C.C.C.C.C.C.C.C.C.C.C.C.C.C.C.C.C.C.C.C.C.C.C.C.C.C.C.C.C.C.C.C.C.C.C.C.C.C.C.C.C.C.C.C.",
"M.C.C.C.C.C.C.C.C.C.C.C.C.C.C.C.C.C.C.C.C.C.C.C.C.C.C.C.C.C.C.C.C.C.C.C.C.C.C.C.C.C.C.C.C.C.C.C.C.C.C.C.C.C.C.C.C.C.C.C.C.C.C.C.",
"C.C.C.C.C.C.C.C.C.C.C.C.C.C.C.C.C.C.C.C.C.C.C.C.C.C.C.C.C.C.C.C.C.C.C.C.C.C.C.C.C.C.C.C.C.C.C.C.C.C.C.C.C.C.C.C.C.C.C.C.C.C.C.C.",
"C.C.C.C.C.C.C.C.C.C.C.C.C.C.C.C.C.C.C.C.C.C.C.C.C.C.C.C.C.C.C.C.C.C.C.C.C.C.C.C.C.C.C.C.C.C.C.C.C.C.C.C.C.C.C.C.C.C.C.C.C.C.C.C.",
"C.C.C.C.C.C.C.C.C.C.C.C.C.C.C.C.C.C.C.C.C.C.C.C.C.C.C.C.C.C.C.C.C.C.C.C.C.C.C.C.C.C.C.C.C.C.C.C.C.C.C.C.C.C.C.C.C.C.C.C.C.C.C.C.",
"C.C.C.C.C.B.B.C.C.C.C.C.C.C.C.C.C.C.C.C.C.C.C.C.C.C.C.C.C.C.C.C.C.C.C.C.C.C.C.C.C.C.B.C.C.C.C.C.C.C.C.C.C.C.C.C.C.C.C.C.C.C.C.C.",
"C.C.C.C.B.b.v.B.C.C.C.C.C.C.C.C.C.C.C.C.C.C.C.C.C.C.C.C.C.C.C.C.C.C.C.C.C.C.C.C.C.M.v.v.B.C.C.C.C.C.C.C.C.C.C.C.C.C.C.C.C.C.C.C.",
"C.C.C.C.M.j.h.b.C.C.C.C.C.C.C.C.C.C.C.C.C.C.C.C.C.C.C.C.C.C.C.C.C.C.C.C.C.C.C.C.C.n.h.j.n.C.C.C.C.C.C.C.C.C.C.C.C.C.C.C.C.C.C.C.",
"C.C.C.C.B.v.v.v.M.B.C.C.C.C.C.C.C.C.C.C.C.C.C.C.C.C.C.C.C.C.C.C.C.C.C.C.C.C.C.C.C.N.v.v.v.n.B.C.C.C.C.C.C.C.C.C.C.C.C.C.C.C.C.C.",
"C.C.C.C.C.B.M.v.h.v.B.C.C.C.C.C.C.C.C.C.C.C.C.C.C.C.C.C.C.C.C.C.C.C.C.C.C.C.C.C.C.C.B.b.l.j.n.C.C.C.C.C.C.C.C.C.C.C.C.C.C.C.C.C.",
"C.C.C.C.C.C.B.v.j.b.C.C.C.C.C.C.C.C.C.C.C.C.C.C.C.C.C.C.C.C.C.C.C.C.C.C.C.C.C.C.C.C.C.N.l.j.n.C.C.C.C.C.C.C.C.C.C.C.C.C.C.C.C.C.",
"C.C.C.C.C.C.C.B.M.B.C.C.C.C.C.C.C.C.C.C.C.C.C.C.C.C.C.C.C.W o o O O C.C.C.C.C.C.C.C.C.C.B.M.B.C.C.C.C.C.C.C.C.C.C.C.C.C.C.C.C.C.",
"C.C.C.C.C.C.C.C.C.C.C.C.C.C.C.C.C.C.C.C.C.C.C.C.C.C.C.V.W <.U.U.U.U.X r V.C.C.C.C.C.C.C.C.C.C.C.C.C.C.C.C.C.C.C.C.C.C.C.C.C.C.C.",
"C.C.C.C.C.C.C.C.C.C.C.C.C.C.C.C.C.C.C.C.C.C.C.C.C.C.C.! f D.D.D.I.U.U.D.y x.C.C.C.C.C.C.C.C.C.C.C.C.C.C.C.C.C.C.C.C.C.C.C.C.C.C.",
"C.C.C.C.C.C.C.C.C.C.C.C.C.C.C.C.C.C.C.C.C.C.C.C.C.C.m.t R w w w t.I.U.U.u.s V.C.C.C.C.C.C.C.C.C.C.C.C.C.C.C.C.C.C.C.C.C.C.C.C.C.",
"C.C.C.C.C.C.C.C.C.C.C.C.C.C.C.C.C.C.B.b.n.C.C.C.C.C.C.x.U W W W O I.U.U.D.d d.C.C.C.C.C.C.C.C.C.C.C.C.C.C.C.C.M.n.M.C.C.C.C.C.C.",
"C.C.C.C.C.C.C.C.C.C.C.C.C.C.C.C.C.C.b.j.j.M.C.C.C.C.N.a i P P P P U.U.U.L.<.E C.C.C.C.C.C.C.C.C.C.C.C.C.C.C.B.b.g.l.B.C.C.C.C.C.",
"C.C.C.C.C.C.C.C.C.C.C.C.C.C.C.C.B.b.v.k.l.B.C.C.C.e e J Y / / / / U.U.U.U.<.1 s.C.C.C.C.C.C.C.C.C.C.C.C.C.B.n.v.j.b.B.C.C.C.C.C.",
"C.C.C.C.C.C.C.C.C.C.C.C.C.C.C.C.b.j.l.b.B.C.C.C.e m ..;.;.8.8.8.8.P.U.U.U.A.) 2 f.C.C.C.C.C.C.C.C.C.C.C.B.b.j.l.M.B.C.C.C.C.C.C.",
"C.C.C.C.C.C.C.C.C.C.C.C.C.C.C.C.v.h.v.B.C.C.C.e  .[ ;.0.S.;.;.;.;.P.U.U.S.&.O.=.> V.C.C.C.C.C.C.C.C.C.C.B.l.h.b.C.C.C.C.C.C.C.C.",
"C.C.C.C.C.C.C.C.C.C.C.C.C.C.C.C.M.b.M.B.C.C.p L ;.' ;.0.L.A.8.-.J.v.z.U.S.*.O.#.*.. C.C.C.C.C.C.C.C.C.C.C.B.n.M.C.C.C.C.C.C.C.C.",
"C.C.C.C.C.C.C.C.C.C.C.C.C.C.C.C.H.C.C.C.C.m.u L ;.[ &.$.6.L.U.U.U.c.c.Z.&.*.O.$.&.& d.C.C.C.C.C.C.C.C.C.C.C.C.C.C.C.C.C.C.C.C.C.",
"C.C.C.C.C.C.C.C.C.C.C.C.C.C.C.C.C.C.C.C.H.U J >.&.*.o.+.:.5.i.i.i.i.u.' X.+.$.;.:.*.O C.C.C.C.C.C.C.C.C.C.C.C.C.C.C.C.C.C.C.C.C.",
"C.C.C.C.C.C.C.C.C.C.C.C.C.C.C.C.C.C.C.C.f.u { +.+.;.*.o.B # S ; + H + v [ @.;.$.| ;.5 ! C.C.C.C.C.C.C.C.C.C.C.C.C.C.C.C.C.C.C.C.",
"C.C.C.C.C.C.C.C.C.C.C.C.C.C.C.C.C.C.N.a 3 7 +.*.+.O.;.&.c   S : + E.  @ o.*.=.+.*.;.` o a 3.C.C.C.C.C.C.C.C.C.C.C.C.C.C.C.C.C.C.",
"C.C.C.C.C.C.C.C.C.C.C.C.C.C.C.C.C.C.e J 5 5 X.&.;.#.O.$.( - + 0 J   . M [ o.+.*.;.o.` # 0 q y.C.C.C.C.C.C.C.C.C.C.C.C.C.C.C.C.C.",
"C.C.C.C.C.C.C.C.C.C.C.C.C.C.C.C.C.1  .$.c 5 ' [ &.X.z 6.).X. .%.*.L  .6.).n C $.o.' ` @ o.@.8 a.C.C.C.C.C.C.C.C.C.C.C.C.C.C.C.C.",
"C.C.C.C.C.C.C.C.C.C.C.C.C.C.C.C.1 ` ;.*.+.7 c ] [ h ' 7.oX(.Y.r.*.`.-.oX[.' b C ] ' # ] -.;.o.> f.C.C.C.C.C.C.C.C.C.C.C.C.C.C.C.",
"C.C.C.C.C.C.C.C.C.C.C.C.C.C.H.C.% *.[ *.;.+.4 v ' g :.7..X}.Y.^.`.;.'.OX_.' c V ' . [ ;.*.+.+., s.C.C.C.C.C.C.C.C.C.C.C.C.C.C.C.",
"C.C.C.C.C.C.C.C.C.C.C.C.C.C.m.3   *.&.o.&.;.o.k g l ` ] Y. XT.;.;.;. X[.[ ' b h g ` *.*.#.+.;., O s.C.C.C.C.C.C.C.C.C.C.C.C.C.C.",
"C.C.C.C.C.C.C.C.C.C.C.C.C.f.p Y < L ;.&.O.+.v g k *.v C ' o.#.*.;.%.=.' ` m | M g g | =.+.*.@.8 @., y.C.C.C.C.C.C.C.C.C.C.C.C.C.",
"C.C.C.C.C.C.C.C.C.C.C.C.C.R I / 8.8 { _ ) z g z ` *.&.B n C ' O.+.] ' n m | ;.o.n g h m _ _ K L ;.;.o C.C.C.C.C.C.C.C.C.C.C.C.C.",
"C.C.C.C.C.C.C.C.C.C.C.C.C.U K 9.*.;.n b g g g C ' 9.9.#.m B b b b b b ( ) ;.;.o.' g g g j n | *.;.;.# C.C.C.C.C.C.C.C.C.C.C.C.C.",
"C.C.C.C.C.C.C.C.C.C.C.C.C.U J *.;.o.' ` x g g V ' / / $.o.@.} } } } | $.o.;.;.X.] g g j C ' X.%.;.;.o C.C.C.C.C.C.C.C.C.C.C.C.C.",
"C.C.C.C.C.C.C.C.C.C.C.C.C.x.u ( X.' ' ' N g g j ` >.;.$.o.;.;.;.;.;.;.%.o.;.+.] z g g j ' ' ' X.X.> s.C.C.C.C.C.C.C.C.C.C.C.C.C.",
"C.C.C.C.C.C.C.C.C.C.C.a.O o K ^ ^ ^ ' m + $ g g ` ' [ ;.=.+.;.;.;.;.*.X.*.=.] ' j g g + 4 ' >.^ ^ ~ # o i C.C.C.C.C.C.C.C.C.C.C.",
"C.C.C.C.C.C.C.C.C.C.x.r K.U E j.v.k.Y . 4 ] b g g ` ' [ *.O.+.*.*.;.] *.=.' ' z g g ] M . 8 e.k.j.j.# c.u.a C.C.C.C.C.C.C.C.C.C.",
"C.C.C.C.C.C.C.C.C.C.x.w G.H.U Q w.w.1 a.4 ] ' x g g h ` ` :.] :.:.' ' ` ` b g g j ` ' B y W U w.w.* c.L.1.T C.C.C.C.C.C.C.C.C.C.",
"C.C.C.C.C.C.C.C.C.C.V.W F F.N.a . 3 C.a.< =.[ ' z : g g k B :.F.L.>.V n g g g h ` :.+.L y C.W o 1 x.K.p.t f.C.C.C.C.C.C.C.C.C.C.",
"C.C.C.C.C.C.C.C.C.C.R G Q.F D.H.% C.C.a.6 ;.=.O.' + = g g : 5.V.J.b.g g g g + c O.O.;.L e C.C.w s.U.,.R.Q.A d.C.C.C.C.C.C.C.C.C.",
"C.C.C.C.C.C.C.C.R d ~.Q.S T f D U C.C.x.i { ;.;.9 l 7 $ $ $ ,.l.v.l.$ $ = - 7 7 @.*.%.q 3.C.C.2.f D T d R.Q.D s m.C.C.C.C.C.C.C.",
"C.t y y y y y y G /.XXZ a.V.s.! m.C.C.f.3 9 < < c ' ` 7 > 2.i q.v.p 2.U # M ] m 6 < 6 9 E C.C.C.4.! C.m.T ~.[.W.t y y y y y y s.",
"C.  [.]./.|./.|.!.oXZ d.C.C.C.C.C.C.C.a.4 ` m m ` ' ` 2 d.C.f.e 2 q.H.n.T l ' ] B m m m e C.C.C.C.C.C.C.m.f /.{.].[.[.[.[.[.F t.",
"C.m.S oXOXOXOXOX{.; x.C.C.C.C.C.C.C.C.a.. 7 ' ] ` :.% N.C.C.C.m.x.C.H.H.N.U c ' ' ' ` + e C.C.C.C.C.C.C.C.N.d W.XXOXOXOXOX^.R B.",
"C.C.f.  H oXoXS . C.C.C.C.C.C.C.C.C.C.C.b.j.h.b.C.C.C.C.C.C.C.C.C.C.C.C.C.C.C.C.C.b.h.j.b.C.C.C.C.C.C.C.C.C.C.e   .XoX[.X a C.C.",
"C.C.C.C.3.* % s.C.C.C.C.C.C.C.C.C.C.M.b.v.v.b.M.C.C.C.C.C.C.C.C.C.C.C.C.C.C.C.C.H.M.v.v.v.v.M.C.C.C.C.C.C.C.C.C.C.* % e C.C.C.C.",
"C.C.C.C.C.C.C.C.C.C.C.C.C.C.C.C.C.C.b.h.j.b.C.C.C.C.C.C.C.C.C.C.C.C.C.C.C.C.C.C.C.C.C.n.j.h.b.C.C.C.C.C.C.C.C.C.C.C.C.C.C.C.C.C.",
"C.C.C.C.C.C.C.C.C.C.C.C.C.C.C.C.C.C.M.v.v.M.C.C.C.C.C.C.C.C.C.C.C.C.C.C.C.C.C.C.C.C.C.M.b.v.n.C.C.C.C.C.C.C.C.C.C.C.C.C.C.C.C.C.",
"C.C.C.C.C.C.C.C.C.C.C.C.C.C.C.C.C.C.C.C.H.C.C.C.C.C.C.C.C.C.C.C.C.C.C.C.C.C.C.C.C.C.C.C.B.B.C.C.C.C.C.C.C.C.C.C.C.C.C.C.C.C.C.C.",
"C.C.C.C.C.C.C.C.C.C.C.C.C.C.C.C.C.C.C.C.C.C.C.C.C.C.C.C.C.C.C.C.C.C.C.C.C.C.C.C.C.C.C.C.C.C.C.C.C.C.C.C.C.C.C.C.C.C.C.C.C.C.C.C.",
"C.C.C.C.C.C.C.C.C.C.C.C.C.C.C.C.C.C.C.C.C.C.C.C.C.C.C.C.C.C.C.C.C.C.C.C.C.C.C.C.C.C.C.C.C.C.C.C.C.C.C.C.C.C.C.C.C.C.C.C.C.C.C.C.",
"C.C.C.C.C.C.C.C.C.C.C.C.C.C.C.C.C.C.C.C.C.C.C.C.C.C.C.C.C.C.C.C.C.C.C.C.C.C.C.C.C.C.C.C.C.C.C.C.C.C.C.C.C.C.C.C.C.B.C.C.C.C.C.C.",
"C.C.C.C.C.C.B.b.v.b.C.C.C.C.C.C.C.C.C.C.C.C.C.C.C.C.C.C.C.C.C.C.C.C.C.C.C.C.C.C.C.C.C.C.C.C.C.C.C.C.C.C.C.C.C.b.v.b.B.C.C.C.C.C.",
"C.C.C.C.C.C.B.k.g.l.C.C.C.C.C.C.C.C.C.C.C.C.C.C.C.C.C.C.C.C.C.C.C.C.C.C.C.C.C.C.C.C.C.C.C.C.C.C.C.C.C.C.C.C.C.v.g.k.M.C.C.C.C.C.",
"C.C.C.C.C.C.C.b.l.v.v.M.C.C.C.C.C.C.C.C.C.C.C.C.C.C.C.C.C.C.C.C.C.C.C.C.C.C.C.C.C.C.C.C.C.C.C.C.C.C.C.C.C.M.b.v.l.b.C.C.C.C.C.C.",
"C.C.C.C.C.C.C.C.M.v.h.k.M.C.C.C.C.C.C.C.C.C.C.C.C.C.C.C.C.C.C.C.C.C.C.C.C.C.C.C.C.C.C.C.C.C.C.C.C.C.C.C.B.l.h.l.M.C.C.C.C.C.C.C.",
"C.C.C.C.C.C.C.C.C.b.j.v.B.C.C.C.C.C.C.C.C.C.C.C.C.C.C.C.C.C.C.C.C.C.C.C.C.C.C.C.C.C.C.C.C.C.C.C.C.C.C.C.B.b.j.b.C.C.C.C.C.C.C.C.",
"C.C.C.C.C.C.C.C.C.B.M.B.C.C.C.C.C.C.C.C.C.C.C.C.C.C.C.C.C.C.C.C.C.C.C.C.C.C.C.C.C.C.C.C.C.C.C.C.C.C.C.C.C.B.M.B.C.C.C.C.C.C.C.C.",
"C.C.C.C.C.C.C.C.C.C.C.C.C.C.C.C.C.C.C.C.C.C.C.C.C.C.C.C.C.C.C.C.C.C.C.C.C.C.C.C.C.C.C.C.C.C.C.C.C.C.C.C.C.C.C.C.C.C.C.C.C.C.C.C.",
"M.C.C.C.C.C.C.C.C.C.C.C.C.C.C.C.C.C.C.C.C.C.C.C.C.C.C.C.C.C.C.C.C.C.C.C.C.C.C.C.C.C.C.C.C.C.C.C.C.C.C.C.C.C.C.C.C.C.C.C.C.C.C.C.",
"v.C.C.C.C.C.C.C.C.C.C.C.C.C.C.C.C.C.C.C.C.C.C.C.C.C.C.C.C.C.C.C.C.C.C.C.C.C.C.C.C.C.C.C.C.C.C.C.C.C.C.C.C.C.C.C.C.C.C.C.C.C.C.C.",
"b.C.C.C.C.C.C.C.C.C.C.C.C.C.C.C.C.C.C.C.C.C.C.C.C.C.C.C.C.C.C.C.C.C.C.C.C.C.C.C.C.C.C.C.C.C.C.C.C.C.C.C.C.C.C.C.C.C.C.C.C.C.C.C.",
"b.C.C.C.C.C.C.C.C.C.C.C.C.C.C.C.C.C.C.C.C.C.C.C.C.C.C.C.C.C.C.C.C.C.C.C.C.C.C.C.C.C.C.C.C.C.C.C.C.C.C.C.C.C.C.C.C.C.C.C.C.C.C.C.",
"v.C.C.C.C.C.C.C.C.C.C.C.C.C.C.C.C.C.C.C.C.C.C.C.C.C.C.C.C.C.C.C.C.C.C.C.C.C.C.C.C.C.C.C.C.C.C.C.C.C.C.C.C.C.C.C.C.C.C.C.C.C.C.C."
};
