/* XPM */
static char *result[] = {
/* columns rows colors chars-per-pixel */
"64 64 192 2 ",
"   c #151B1B",
".  c #1B1E1D",
"X  c #211D1E",
"o  c #1D201D",
"O  c #2A281F",
"+  c #231F21",
"@  c #292125",
"#  c #282825",
"$  c #372723",
"%  c #312B22",
"&  c #33242A",
"*  c #3A262D",
"=  c #3C3426",
"-  c #322A33",
";  c #322F39",
":  c #2B343A",
">  c #37393A",
",  c #472826",
"<  c #56252B",
"1  c #453725",
"2  c #493A2A",
"3  c #5A3A2C",
"4  c #432931",
"5  c #4A2A35",
"6  c #522D39",
"7  c #562C38",
"8  c #5B313C",
"9  c #653A28",
"0  c #6B2F33",
"q  c #792A33",
"w  c #753636",
"e  c #4D422C",
"r  c #554029",
"t  c #5B432B",
"y  c #5B5137",
"u  c #68462D",
"i  c #6F502F",
"p  c #6C4A31",
"a  c #734B32",
"s  c #6D5132",
"d  c #6D5F3E",
"f  c #755331",
"g  c #7A5333",
"h  c #7E5933",
"j  c #3B3643",
"k  c #343E40",
"l  c #433745",
"z  c #4B3847",
"x  c #543848",
"c  c #5A3848",
"v  c #643241",
"b  c #6B3345",
"n  c #693847",
"m  c #633A4C",
"M  c #6E3B4E",
"N  c #78374A",
"B  c #733A4D",
"V  c #753B50",
"C  c #7C3C52",
"Z  c #394345",
"A  c #464A46",
"S  c #56524A",
"D  c #4E5153",
"F  c #715E4C",
"G  c #736151",
"H  c #5F666A",
"J  c #66676A",
"K  c #676A6C",
"L  c #872C37",
"P  c #942E3A",
"I  c #9A2F3B",
"U  c #95313A",
"Y  c #9B383C",
"T  c #A1303D",
"R  c #8A4F33",
"E  c #845B36",
"W  c #835C35",
"Q  c #8B6239",
"!  c #92663A",
"~  c #95693C",
"^  c #9B6B3C",
"/  c #A2683C",
"(  c #A6723F",
")  c #B5723E",
"_  c #D26239",
"`  c #E3643D",
"'  c #E46D3A",
"]  c #8D3747",
"[  c #85394C",
"{  c #973847",
"}  c #843C53",
"|  c #8E3E56",
" . c #933E55",
".. c #9B3D55",
"X. c #A73546",
"o. c #B7374A",
"O. c #A53D53",
"+. c #AA3C53",
"@. c #B33C51",
"#. c #BB3B51",
"$. c #C73546",
"%. c #C53A4E",
"&. c #CC3A4E",
"*. c #D43749",
"=. c #D23A4E",
"-. c #DC394C",
";. c #C23B50",
":. c #E0394C",
">. c #9A4755",
",. c #A6484D",
"<. c #B04444",
"1. c #AA4151",
"2. c #9D6945",
"3. c #8C7246",
"4. c #AA714F",
"5. c #BC7442",
"6. c #B67C44",
"7. c #9A5268",
"8. c #A15E72",
"9. c #CC5446",
"0. c #E14C46",
"q. c #E14548",
"w. c #E35D40",
"e. c #E14652",
"r. c #E35353",
"t. c #C27A45",
"y. c #E47745",
"u. c #E56758",
"i. c #E67253",
"p. c #CB5468",
"a. c #9D814E",
"s. c #BC8147",
"d. c #B19258",
"f. c #C38549",
"g. c #CD8B4B",
"h. c #D28D4D",
"j. c #D5914E",
"k. c #DC9651",
"l. c #D79957",
"z. c #E88146",
"x. c #EB8649",
"c. c #EE8C4C",
"v. c #EF914F",
"b. c #F1914F",
"n. c #EA9654",
"m. c #E29953",
"M. c #EA9F56",
"N. c #F39551",
"B. c #F59A53",
"V. c #F89F56",
"C. c #EEA157",
"Z. c #F9A057",
"A. c #F2A458",
"S. c #FBA559",
"D. c #F0A85F",
"F. c #FFAD5D",
"G. c #D19968",
"H. c #EB9063",
"J. c #CCA663",
"K. c #D2AD65",
"L. c #DFAC6C",
"P. c #D6B067",
"I. c #DBB368",
"U. c #EFAC64",
"Y. c #F0AF63",
"T. c #EFB76E",
"R. c #F0B265",
"E. c #F1BD6C",
"W. c #ECC06F",
"Q. c #F1C06E",
"!. c #F1C471",
"~. c #B17185",
"^. c #5C8796",
"/. c #76A9BB",
"(. c #78B7CC",
"). c #908A93",
"_. c #979698",
"`. c #BB8A9A",
"'. c #A39D9E",
"]. c #85A9BE",
"[. c #D18898",
"{. c #E88895",
"}. c #94B1C2",
"|. c #D5B7C3",
" X c #8EC1D4",
".X c #A3C9DA",
"XX c #D0CAD3",
"oX c #E1CCD6",
"OX c #D7DFE9",
"+X c #E8DEE5",
"@X c #EAE5ED",
"#X c #F2EAF1",
/* pixels */
"v.S.F.F.F.F.F.F.F.F.F.F.F.F.F.F.F.F.F.F.F.F.F.F.F.F.F.F.F.F.F.F.F.F.F.F.F.F.F.F.F.F.F.F.F.F.F.F.F.F.F.F.F.F.F.F.F.F.F.F.F.F.F.F.",
"V.F.F.F.F.F.F.F.F.F.F.F.F.F.F.F.F.F.F.F.F.F.F.F.F.F.F.F.F.F.F.F.F.F.F.F.F.F.F.F.F.F.F.F.F.F.F.F.F.F.F.F.F.F.F.F.F.F.F.F.F.F.F.F.",
"F.F.F.F.F.F.F.F.F.F.F.F.F.F.F.F.F.F.F.F.F.F.F.F.F.F.F.F.F.F.F.F.F.F.F.F.F.F.F.F.F.F.F.F.F.F.F.F.F.F.F.F.F.F.F.F.F.F.F.F.F.F.F.F.",
"F.F.F.F.F.F.F.F.F.F.F.F.F.F.F.F.F.F.F.F.F.F.F.F.F.F.F.F.F.F.F.F.F.F.F.F.F.F.F.F.F.F.F.F.F.F.F.F.F.F.F.F.F.F.F.F.F.F.F.F.F.F.F.F.",
"F.F.F.F.F.F.F.F.F.F.F.F.F.F.F.F.F.F.F.F.F.F.F.F.F.F.F.F.F.F.F.F.F.F.F.F.F.F.F.F.F.F.F.F.F.F.F.F.F.F.F.F.F.F.F.F.F.F.F.F.F.F.F.F.",
"F.F.F.F.F.F.S.F.F.F.F.F.F.F.F.F.F.F.F.F.F.F.F.F.F.F.F.F.F.F.F.F.F.F.F.F.F.F.F.F.F.F.S.F.F.F.F.F.F.F.F.F.F.F.F.F.F.F.F.F.F.F.F.F.",
"F.F.F.F.Z.B.N.Z.F.F.F.F.F.F.F.F.F.F.F.F.F.F.F.F.F.F.F.F.F.F.F.F.F.F.F.F.F.F.F.F.F.Z.B.B.S.F.F.F.F.F.F.F.F.F.F.F.F.F.F.F.F.F.F.F.",
"F.F.F.F.V.c.x.V.F.F.F.F.F.F.F.F.F.F.F.F.F.F.F.F.F.F.F.F.F.F.F.F.F.F.F.F.F.F.F.F.F.B.x.c.Z.F.F.F.F.F.F.F.F.F.F.F.F.F.F.F.F.F.F.F.",
"F.F.F.F.S.B.b.N.V.S.F.F.F.F.F.F.F.F.F.F.F.F.F.F.F.F.F.F.F.F.F.F.F.F.F.F.F.F.F.F.F.A.v.v.B.B.S.F.F.F.F.F.F.F.F.F.F.F.F.F.F.F.F.F.",
"F.F.F.F.F.S.V.v.x.B.F.F.F.F.F.F.F.F.F.F.F.F.F.F.F.F.F.F.F.F.F.F.F.F.F.F.F.F.F.F.F.F.S.B.c.c.B.F.F.F.F.F.F.F.F.F.F.F.F.F.F.F.F.F.",
"F.F.F.F.F.F.S.B.c.B.S.F.F.F.F.F.F.F.F.F.F.F.F.F.F.F.F.F.F.F.F.F.F.F.F.F.F.F.F.F.F.F.F.S.v.v.Z.F.F.F.F.F.F.F.F.F.F.F.F.F.F.F.F.F.",
"F.F.F.F.F.F.F.S.V.S.F.F.F.F.F.F.F.F.F.F.F.F.F.F.F.F.F.F.F.F.2 1 1 e ^ F.F.F.F.F.F.F.F.F.S.Z.S.F.F.F.F.F.F.F.F.F.F.F.F.F.F.F.F.F.",
"F.F.F.F.F.F.F.F.F.F.F.F.F.F.F.F.F.F.F.F.F.F.F.F.F.F.F.F.F.2 K.P.I.I.3.O s.F.F.F.F.F.F.F.F.F.F.F.F.F.F.F.F.F.F.F.F.F.F.F.F.F.F.F.",
"F.F.F.F.F.F.F.F.F.F.F.F.F.F.F.F.F.F.F.F.F.F.F.F.F.F.F.F.r J.W.W.W.!.!.!.y g.F.F.F.F.F.F.F.F.F.F.F.F.F.F.F.F.F.F.F.F.F.F.F.F.F.F.",
"F.F.F.F.F.F.F.F.F.F.F.F.F.F.F.F.F.F.F.F.F.F.F.F.F.F.F.Q a.e % = e I.!.!.!.= D.F.F.F.F.F.F.F.F.F.F.F.F.F.F.F.F.F.F.F.F.F.F.F.F.F.",
"F.F.F.F.F.F.F.F.F.F.F.F.F.F.F.F.F.F.S.B.Z.S.F.F.F.F.F.F.W ) 6.6.~ y !.!.!.d 6.F.F.F.F.F.F.F.F.F.F.F.F.F.F.F.F.S.B.Z.F.F.F.F.F.F.",
"F.F.F.F.F.F.F.F.F.F.F.F.F.F.F.F.F.F.B.c.c.Z.F.F.F.F.F.f.^ u 9 9 9 ~ !.!.!.!.# F.F.F.F.F.F.F.F.F.F.F.F.F.F.F.F.N.x.v.S.F.F.F.F.F.",
"F.F.F.F.F.F.F.F.F.F.F.F.F.F.F.F.S.V.B.c.b.S.F.F.Y.j.E w q _ ' ' ' c.!.!.!.!.o Q F.F.F.F.F.F.F.F.F.F.F.F.F.S.B.N.c.B.S.F.F.F.F.F.",
"F.F.F.F.F.F.F.F.F.F.F.F.F.F.F.F.B.c.v.V.Z.F.F.F.k.t N $.:.q.0.0.0.i.!.!.!.!.Y 8 E F.F.F.F.F.F.F.F.F.F.F.S.N.c.N.Z.Z.F.F.F.F.F.F.",
"F.F.F.F.F.F.F.F.F.F.F.F.F.F.F.F.B.z.N.S.F.F.F.C.< X.o.:.H.q.:.:.-.u.!.!.!.u.:. .P h F.F.F.F.F.F.F.F.F.F.S.N.x.B.F.F.F.F.F.F.F.F.",
"F.F.F.F.F.F.F.F.F.F.F.F.F.F.F.F.Z.B.Z.F.F.F.F.$ =.;.@.:.H.T.:.:.r.U.n.R.Q.r.:. .-.U W F.F.F.F.F.F.F.F.F.F.S.B.S.F.F.F.F.F.F.F.F.",
"F.F.F.F.F.F.F.F.F.F.F.F.F.F.F.F.F.F.F.F.F.F.F.+ :.;.@.:.1.L.!.E.!.R.N.Y.u.-.-. .-.T f F.S.Y.F.Y.F.F.F.F.F.F.F.F.F.F.F.F.F.F.F.F.",
"F.F.F.F.F.F.F.F.F.F.F.F.F.F.F.F.F.F.F.M.k.k.o -.O.-.;.#.1.>.J.K.K.K.K.4.| &...:.=.+.L W k.k.F.F.F.F.F.F.F.F.F.F.F.F.F.F.F.F.F.F.",
"F.F.F.F.F.F.F.F.F.F.F.F.F.F.F.F.F.F.m.u *   & -.+.=.:.#.| M . D   : j 5 } O.-.-.;.@.P + + , 6.F.F.F.F.F.F.F.F.F.F.F.F.F.F.F.F.F.",
"F.F.F.F.F.F.F.F.F.F.F.F.F.F.F.F.F.k.a T O.@ } :.=.#.&.:.O.+   _.  Z J   v =.-.;.#.-.#.5 b =.0 ( F.F.F.F.F.F.F.F.F.F.F.F.F.F.F.F.",
"F.F.F.F.F.F.F.F.F.F.F.F.F.F.F.F.m.p { :.+.@ | #.:.=.#.=...v   X q <   * C @.#.#.-.=.O.5 v =.-.6 ^ F.F.F.F.F.F.F.F.F.F.F.F.F.F.F.",
"F.F.F.F.F.F.F.F.F.F.Y.F.F.F.F.F.g.* #.:.+.+ |  .#.=.} [ [.7.P { :.$.I ] `.7.c +.-.O.| 5 b &.:.} = F.F.F.F.F.F.F.F.F.F.F.F.F.F.F.",
"F.F.F.F.F.F.F.F.F.F.F.F.F.F.F.C.= < #.&.=.N &  . .} m } |.oX:._.:.p.~.{.+X8.C c .. .v 6 @.-.+.$.o h F.F.F.F.F.F.F.F.F.F.F.F.F.F.",
"F.F.F.F.F.F.F.F.F.F.F.F.F.F.F.$ I < -.+.&.-.} @  .V m | |.#X}.p.}._.~.XX#X8.| l >.v 5 @.-.O.=.*.% U W F.F.F.F.F.F.F.F.F.F.F.F.F.",
"F.F.F.F.F.F.F.F.F.F.F.F.F.F.o ' ` I q :.O.&.:.} j j c >.| oX#X:.-.-.{.#X~.| | j j j [ -.+.=.:.. :.:.L ! F.F.F.F.F.F.F.F.F.F.F.F.",
"F.F.F.F.F.F.F.F.F.F.F.F.F.F.o ' w.:.{ l X.| j j x +.{ B | | &.=.-.-.=.+. .} x -.} l j m @.c 5 e.:.:.L ! F.F.F.F.F.F.F.F.F.F.F.F.",
"F.F.F.F.F.F.F.F.F.F.F.F.F.F.o :.:.-.@. .x j j l | 1.q.{ V C |  .&.@.| } C n =.-.| V j j j [ | &.:.:.L ! F.F.F.F.F.F.F.F.F.F.F.F.",
"F.F.F.F.F.F.F.F.F.F.F.F.F.F.i U ;.+.| | M j j l  .,.' 0.N N M B M M M N m %.:.-.| V j j x } |  .%.o.w 5.F.F.F.F.F.F.F.F.F.F.F.F.",
"F.F.F.F.F.F.F.F.F.F.F.F.( W W w <.<.,.| | z j j B >.9.q.+.=.{ ] ] ] ] ;.+.=.:.@.} c j j V |  .<.<.R a E W m.F.F.F.F.F.F.F.F.F.F.",
"F.F.F.F.F.F.F.F.F.F.F.( Q ^ o y.y.y.9.w 4 @ > j x | ..&.&.@.-.:.:.:.:.;.#.-.@.| C j j - - 4 <.y.y.y.R u a.y A.F.F.F.F.F.F.F.F.F.",
"F.F.F.F.F.F.F.F.F.F.F.i d.E.5.t v.v./ E = v C j j m | ..&.&.O.:.:.:.;.#.=.@. .} z j x N & ^ , b.N.5.a l.!.2 C.F.F.F.F.F.F.F.F.F.",
"F.F.F.F.F.F.F.F.F.F.F.C.y g.E.t.& % f C.r N >.C j l l V |  .|  ........... .z l j x | | * g.m.% % u l.D.f s.F.F.F.F.F.F.F.F.F.F.",
"F.F.F.F.F.F.F.F.F.F.F.i ^.(.v.Q.5.u F.F.3 o.| | C j j j k >.| >.T.G.| | x j j j z | | #.< g.F.C.= M.F.'.(.: C.F.F.F.F.F.F.F.F.F.",
"F.F.F.F.F.F.F.F.A.C.Q ^./.> % P.d.f F.F.r $.-... .v # j j j j n.T.T.2.j j j j    ...#.:.< g.F.A.2 P.3.# ^.(.Z l.m.F.F.F.F.F.F.F.",
"F.C.f.f.f.f.f.f.^ Z _.].A k.F.2 s F.F.F.g I -.:.%.v @ - ; ; ; v.v.v.2.; ; ; & & [ :.-.$.3 k.F.F.k.2 ! F.h H OXD e f.f.f.f.f.f.f.",
"F.( k J J J J J K .XXXG j.Y.F.F.F.F.F.F.s.2 P P q v } v + r p / v.y.f u O * | } 5 P P 0 g C.F.F.F.F.F.F.F.h _.@X(.H K J J J J o ",
"F.j.F XX#X#X#X#XOX/.G h.F.F.F.F.F.F.F.F.r N 6 6 v } | b p M.F.h E a 6.R.( 7 | >.[ 5 6 N * h.F.F.F.F.F.F.F.F.Q ). X#X#X#X#X#X).Q ",
"F.F.j.F J OX#X+XH S g.F.F.F.F.F.F.F.F.F.2 * | | >.>.n s m.F.F.S.( s.Y.F.F.6.4 >.| | | v + g.F.F.F.F.F.F.F.F.F.^ Z _.#X#X_.K ~ F.",
"F.F.F.j.s.S D S s.j.F.F.F.F.F.F.F.F.F.F.g.5.5.5.f.f.s.C.F.F.F.F.F.F.F.F.F.Y.s.f.f.5.5.5.6.A.F.F.F.F.F.F.F.F.F.F.d.2.D D Q s.S.F.",
"F.F.F.F.F.m.k.k.F.F.F.F.F.F.F.F.F.F.F.F.V.c.x.N.F.F.F.F.F.F.F.F.F.F.F.F.F.F.F.F.Y.B.x.c.V.F.F.F.F.F.F.F.F.F.F.F.F.A.k.m.A.F.F.F.",
"F.F.F.F.F.F.F.F.F.F.F.F.F.F.F.F.F.F.Z.N.N.N.N.S.F.F.F.F.F.F.F.F.F.F.F.F.F.F.F.F.F.V.N.N.N.N.V.F.F.F.F.F.F.F.F.F.F.F.F.F.F.F.F.F.",
"F.F.F.F.F.F.F.F.F.F.F.F.F.F.F.F.F.F.V.x.c.V.F.F.F.F.F.F.F.F.F.F.F.F.F.F.F.F.F.F.F.F.F.V.c.x.V.F.F.F.F.F.F.F.F.F.F.F.F.F.F.F.F.F.",
"F.F.F.F.F.F.F.F.F.F.F.F.F.F.F.F.F.F.Z.b.N.Z.F.F.F.F.F.F.F.F.F.F.F.F.F.F.F.F.F.F.F.F.F.Z.N.N.V.F.F.F.F.F.F.F.F.F.F.F.F.F.F.F.F.F.",
"F.F.F.F.F.F.F.F.F.F.F.F.F.F.F.F.F.F.F.F.F.F.F.F.F.F.F.F.F.F.F.F.F.F.F.F.F.F.F.F.F.F.F.F.S.S.F.F.F.F.F.F.F.F.F.F.F.F.F.F.F.F.F.F.",
"F.F.F.F.F.F.F.F.F.F.F.F.F.F.F.F.F.F.F.F.F.F.F.F.F.F.F.F.F.F.F.F.F.F.F.F.F.F.F.F.F.F.F.F.F.F.F.F.F.F.F.F.F.F.F.F.F.F.F.F.F.F.F.F.",
"F.F.F.F.F.F.F.F.F.F.F.F.F.F.F.F.F.F.F.F.F.F.F.F.F.F.F.F.F.F.F.F.F.F.F.F.F.F.F.F.F.F.F.F.F.F.F.F.F.F.F.F.F.F.F.F.F.F.F.F.F.F.F.F.",
"F.F.F.F.F.F.F.S.F.F.F.F.F.F.F.F.F.F.F.F.F.F.F.F.F.F.F.F.F.F.F.F.F.F.F.F.F.F.F.F.F.F.F.F.F.F.F.F.F.F.F.F.F.F.F.F.F.S.F.F.F.F.F.F.",
"F.F.F.F.F.F.S.Z.N.Z.F.F.F.F.F.F.F.F.F.F.F.F.F.F.F.F.F.F.F.F.F.F.F.F.F.F.F.F.F.F.F.F.F.F.F.F.F.F.F.F.F.F.F.F.S.Z.b.B.F.F.F.F.F.F.",
"F.F.F.F.F.F.S.b.z.N.S.F.F.F.F.F.F.F.F.F.F.F.F.F.F.F.F.F.F.F.F.F.F.F.F.F.F.F.F.F.F.F.F.F.F.F.F.F.F.F.F.F.F.F.F.N.z.v.S.F.F.F.F.F.",
"F.F.F.F.F.F.S.B.c.N.B.Z.F.F.F.F.F.F.F.F.F.F.F.F.F.F.F.F.F.F.F.F.F.F.F.F.F.F.F.F.F.F.F.F.F.F.F.F.F.F.F.F.F.A.B.N.b.B.S.F.F.F.F.F.",
"F.F.F.F.F.F.F.F.S.N.x.b.Z.F.F.F.F.F.F.F.F.F.F.F.F.F.F.F.F.F.F.F.F.F.F.F.F.F.F.F.F.F.F.F.F.F.F.F.F.F.F.F.F.v.x.b.S.S.F.F.F.F.F.F.",
"F.F.F.F.F.F.F.F.F.B.c.N.S.F.F.F.F.F.F.F.F.F.F.F.F.F.F.F.F.F.F.F.F.F.F.F.F.F.F.F.F.F.F.F.F.F.F.F.F.F.F.F.S.B.c.B.F.F.F.F.F.F.F.F.",
"F.F.F.F.F.F.F.F.F.S.Z.S.F.F.F.F.F.F.F.F.F.F.F.F.F.F.F.F.F.F.F.F.F.F.F.F.F.F.F.F.F.F.F.F.F.F.F.F.F.F.F.F.F.S.Z.F.F.F.F.F.F.F.F.F.",
"F.F.F.F.F.F.F.F.F.F.F.F.F.F.F.F.F.F.F.F.F.F.F.F.F.F.F.F.F.F.F.F.F.F.F.F.F.F.F.F.F.F.F.F.F.F.F.F.F.F.F.F.F.F.F.F.F.F.F.F.F.F.F.F.",
"Z.F.F.F.F.F.F.F.F.F.F.F.F.F.F.F.F.F.F.F.F.F.F.F.F.F.F.F.F.F.F.F.F.F.F.F.F.F.F.F.F.F.F.F.F.F.F.F.F.F.F.F.F.F.F.F.F.F.F.F.F.F.F.F.",
"B.F.F.F.F.F.F.F.F.F.F.F.F.F.F.F.F.F.F.F.F.F.F.F.F.F.F.F.F.F.F.F.F.F.F.F.F.F.F.F.F.F.F.F.F.F.F.F.F.F.F.F.F.F.F.F.F.F.F.F.F.F.F.F.",
"B.F.F.F.F.F.F.F.F.F.F.F.F.F.F.F.F.F.F.F.F.F.F.F.F.F.F.F.F.F.F.F.F.F.F.F.F.F.F.F.F.F.F.F.F.F.F.F.F.F.F.F.F.F.F.F.F.F.F.F.F.F.F.F.",
"B.F.F.F.F.F.F.F.F.F.F.F.F.F.F.F.F.F.F.F.F.F.F.F.F.F.F.F.F.F.F.F.F.F.F.F.F.F.F.F.F.F.F.F.F.F.F.F.F.F.F.F.F.F.F.F.F.F.F.F.F.F.F.F.",
"N.F.F.F.F.F.F.F.F.F.F.F.F.F.F.F.F.F.F.F.F.F.F.F.F.F.F.F.F.F.F.F.F.F.F.F.F.F.F.F.F.F.F.F.F.F.F.F.F.F.F.F.F.F.F.F.F.F.F.F.F.F.F.F."
};
