/* XPM */
static char *result[] = {
/* columns rows colors chars-per-pixel */
"64 64 197 2 ",
"   c #161C1C",
".  c #1B1D1D",
"X  c #1D211E",
"o  c #29271F",
"O  c #1F1E20",
"+  c #211F21",
"@  c #2D1F21",
"#  c #311F22",
"$  c #232224",
"%  c #2E2227",
"&  c #2B2820",
"*  c #272D2D",
"=  c #372724",
"-  c #34252B",
";  c #343327",
":  c #3D3224",
">  c #2A2E35",
",  c #312F39",
"<  c #273335",
"1  c #422226",
"2  c #4B2429",
"3  c #5B2A2D",
"4  c #493927",
"5  c #52392A",
"6  c #5A3F2B",
"7  c #4A2B36",
"8  c #522D39",
"9  c #582E3C",
"0  c #62272E",
"q  c #642C2D",
"w  c #67392D",
"e  c #6A2A34",
"r  c #7B2A34",
"t  c #713734",
"y  c #53422C",
"u  c #5C442B",
"i  c #4D4632",
"p  c #584E3B",
"a  c #67472E",
"s  c #6B4E2E",
"d  c #754E2F",
"f  c #6E4B30",
"g  c #724B31",
"h  c #655638",
"j  c #7B5532",
"k  c #795734",
"l  c #3B3643",
"z  c #443745",
"x  c #493645",
"c  c #4C3847",
"v  c #533644",
"b  c #5D3342",
"n  c #533848",
"m  c #5C394A",
"M  c #643342",
"N  c #693647",
"B  c #633A4C",
"V  c #773646",
"C  c #743649",
"Z  c #713A4E",
"A  c #7D394D",
"S  c #7C3C52",
"D  c #584246",
"F  c #51534C",
"G  c #725B4E",
"H  c #7A6549",
"J  c #48656F",
"K  c #73706C",
"L  c #903237",
"P  c #A7313F",
"I  c #865B36",
"U  c #99553E",
"Y  c #AF5736",
"T  c #8D6238",
"R  c #97693B",
"E  c #996A3B",
"W  c #A36C3E",
"Q  c #A3713F",
"!  c #CB4C3F",
"~  c #DB633D",
"^  c #E3613E",
"/  c #E46D3A",
"(  c #8F3444",
")  c #833A4E",
"_  c #9A394B",
"`  c #843D53",
"'  c #8E3E56",
"]  c #923E55",
"[  c #993D54",
"{  c #AA3646",
"}  c #B83748",
"|  c #A23D53",
" . c #AB3C52",
".. c #B23C52",
"X. c #BB3B51",
"o. c #CE3648",
"O. c #C6384A",
"+. c #CB3A4E",
"@. c #D03749",
"#. c #D53A4D",
"$. c #DC394C",
"%. c #C23B50",
"&. c #DB3F52",
"*. c #E0394C",
"=. c #9D414F",
"-. c #9C5C41",
";. c #8A4C53",
":. c #B6544A",
">. c #AB4B50",
",. c #816D45",
"<. c #9F6144",
"1. c #877348",
"2. c #967C4C",
"3. c #AC7641",
"4. c #B67A43",
"5. c #B2685E",
"6. c #B77360",
"7. c #A76075",
"8. c #BB6C7E",
"9. c #D4485B",
"0. c #E14449",
"q. c #E3564A",
"w. c #C17844",
"e. c #E7724F",
"r. c #E87C5E",
"t. c #CE4F63",
"y. c #C9566A",
"u. c #E35869",
"i. c #E46474",
"p. c #9D8450",
"a. c #BD8246",
"s. c #A78A53",
"d. c #BE9D5D",
"f. c #C48648",
"g. c #CB8A4B",
"h. c #D28E4D",
"j. c #D19151",
"k. c #DC9651",
"l. c #E5874A",
"z. c #EB8649",
"x. c #EE8C4C",
"c. c #EF914F",
"v. c #F1914F",
"b. c #EB9356",
"n. c #E59B53",
"m. c #E99D55",
"M. c #F39551",
"N. c #F59A53",
"B. c #F89F56",
"V. c #DFA25D",
"C. c #EEA157",
"Z. c #E8A55E",
"A. c #F9A057",
"S. c #F3A55A",
"D. c #FBA559",
"F. c #F0A85F",
"G. c #FFAD5D",
"H. c #D59E69",
"J. c #EA8E63",
"K. c #EB9264",
"L. c #DBB369",
"P. c #EBA364",
"I. c #F0AB61",
"U. c #EFB46D",
"Y. c #F1BA6B",
"T. c #F1C06E",
"R. c #EEC270",
"E. c #F1C471",
"W. c #B16D81",
"Q. c #AD788C",
"!. c #B27B8D",
"~. c #5A828D",
"^. c #5C8795",
"/. c #6D909C",
"(. c #699FB2",
"). c #6DA5B9",
"_. c #77B6CB",
"`. c #8F8786",
"'. c #8C8B8E",
"]. c #B1A994",
"[. c #8797A0",
"{. c #A19DA0",
"}. c #9DADA8",
"|. c #A7A4A9",
" X c #B3AEB3",
".X c #CD9CAB",
"XX c #A9BCC8",
"oX c #92C2D4",
"OX c #B2C6CE",
"+X c #B9D2E0",
"@X c #C9C4CE",
"#X c #D8D2D8",
"$X c #E1CDD8",
"%X c #E6D6DF",
"&X c #E6DCE3",
"*X c #E7E3EB",
"=X c #F2EAF1",
/* pixels */
"c.G.G.G.G.G.G.G.G.G.G.G.G.G.G.G.G.G.G.G.G.G.G.G.G.G.G.G.G.G.G.G.G.G.G.G.G.G.G.G.G.G.G.G.G.G.G.G.G.G.G.G.G.G.G.G.G.G.G.G.G.G.G.G.",
"B.G.G.G.G.G.G.G.G.G.G.G.G.G.G.G.G.G.G.G.G.G.G.G.G.G.G.G.G.G.G.G.G.G.G.G.G.G.G.G.G.G.G.G.G.G.G.G.G.G.G.G.G.G.G.G.G.G.G.G.G.G.G.G.",
"D.G.G.G.G.G.G.G.G.G.G.G.G.G.G.G.G.G.G.G.G.G.G.G.G.G.G.G.G.G.G.G.G.G.G.G.G.G.G.G.G.G.G.G.G.G.G.G.G.G.G.G.G.G.G.G.G.G.G.G.G.G.G.G.",
"G.G.G.G.G.G.G.G.G.G.G.G.G.G.G.G.G.G.G.G.G.G.G.G.G.G.G.G.G.G.G.G.G.G.G.G.G.G.G.G.G.G.G.G.G.G.G.G.G.G.G.G.G.G.G.G.G.G.G.G.G.G.G.G.",
"G.G.G.G.G.G.G.G.G.G.G.G.G.G.G.G.G.G.G.G.G.G.G.G.G.G.G.G.G.G.G.G.G.G.G.G.G.G.G.G.G.G.G.G.G.G.G.G.G.G.G.G.G.G.G.G.G.G.G.G.G.G.G.G.",
"G.G.G.G.G.G.G.G.G.G.G.G.G.G.G.G.G.G.G.G.G.G.G.G.G.G.G.G.G.G.G.G.G.G.G.G.G.G.G.G.G.G.D.G.G.G.G.G.G.G.G.G.G.G.G.G.G.G.G.G.G.G.G.G.",
"G.G.G.G.A.N.M.A.G.G.G.G.G.G.G.G.G.G.G.G.G.G.G.G.G.G.G.G.G.G.G.G.G.G.G.G.G.G.G.G.G.A.N.N.D.G.G.G.G.G.G.G.G.G.G.G.G.G.G.G.G.G.G.G.",
"G.G.G.G.B.x.z.B.G.G.G.G.G.G.G.G.G.G.G.G.G.G.G.G.G.G.G.G.G.G.G.G.G.G.G.G.G.G.G.G.G.N.z.x.A.G.G.G.G.G.G.G.G.G.G.G.G.G.G.G.G.G.G.G.",
"G.G.G.G.A.M.v.M.N.D.G.G.G.G.G.G.G.G.G.G.G.G.G.G.G.G.G.G.G.G.G.G.G.G.G.G.G.G.G.G.G.C.M.M.N.N.D.G.G.G.G.G.G.G.G.G.G.G.G.G.G.G.G.G.",
"G.G.G.G.G.G.A.v.z.N.G.G.G.G.G.G.G.G.G.G.G.G.G.G.G.G.G.G.G.G.G.G.G.G.G.G.G.G.G.G.G.G.D.C.x.x.N.G.G.G.G.G.G.G.G.G.G.G.G.G.G.G.G.G.",
"G.G.G.G.G.G.D.M.x.N.G.G.G.G.G.G.G.G.G.G.G.G.G.G.G.G.G.G.G.G.Q Q Q Q V.G.G.G.G.G.G.G.G.D.M.x.A.G.G.G.G.G.G.G.G.G.G.G.G.G.G.G.G.G.",
"G.G.G.G.G.G.G.A.B.A.G.G.G.G.G.G.G.G.G.G.G.G.G.G.G.G.G.G.G.T H 1.H H k T C.G.G.G.G.G.G.D.D.D.D.G.G.G.G.G.G.G.G.G.G.G.G.G.G.G.G.G.",
"G.G.G.G.G.G.G.G.G.G.G.G.G.G.G.G.G.G.G.G.G.G.G.G.G.G.G.G.k p.E.E.E.E.d.p.s G.G.G.G.G.G.G.G.G.G.G.G.G.G.G.G.G.G.G.G.G.G.G.G.G.G.G.",
"G.G.G.G.G.G.G.G.G.G.G.G.G.G.G.G.G.G.G.G.G.G.G.G.G.G.G.k s.i i i p.E.E.E.d.4 G.G.G.G.G.G.G.G.G.G.G.G.G.G.G.G.G.G.G.G.G.G.G.G.G.G.",
"G.G.G.G.G.G.G.G.G.G.G.G.G.G.G.G.G.G.G.G.G.G.G.G.G.G.G.n.: k.k.k.T 2.E.E.E.  G.G.G.G.G.G.G.G.G.G.G.G.G.G.G.G.G.G.G.G.G.G.G.G.G.G.",
"G.G.G.G.G.G.G.G.G.G.G.G.G.G.G.G.G.G.D.N.A.S.G.G.G.G.G.G.G..   . X H E.E.E.E.; G.G.G.G.G.G.G.G.G.G.G.G.G.G.G.G.D.N.A.G.G.G.G.G.G.",
"G.G.G.G.G.G.G.G.G.G.G.G.G.G.G.G.G.G.N.x.c.A.G.G.G.C.n.5 @ / / / / m.E.E.E.E.& m.G.G.G.G.G.G.G.G.G.G.G.G.G.G.D.M.z.M.D.G.G.G.G.G.",
"G.G.G.G.G.G.G.G.G.G.G.G.G.G.G.G.D.N.v.c.v.D.G.G.n.f = } *.^ / q.q.b.E.E.E.E.1 5 k.G.G.G.G.G.I.G.G.G.G.G.G.A.A.M.x.M.D.G.G.G.G.G.",
"G.G.G.G.G.G.G.G.G.G.G.G.G.G.G.G.N.x.v.A.D.D.G.n.j V %.*.q.*.*.*.*.J.E.E.E.K.#.` w h.G.G.G.G.G.G.G.G.G.G.D.N.x.M.A.D.G.G.G.G.G.G.",
"G.G.G.G.G.G.G.G.G.G.G.G.G.G.G.G.M.z.v.D.G.G.C.j P X.%.*.U.r.*.*.q.b.I.Y.E.*.$.| } g h.G.G.G.G.G.G.G.G.G.D.M.z.N.G.G.G.G.G.G.G.G.",
"G.G.G.G.G.G.G.G.G.G.G.G.G.G.G.G.D.N.D.D.G.G.k.2 *.X.%.$.5.R.J.J.P.U.v.U.r.*.$.| *.r W G.G.G.G.G.G.G.G.G.G.D.N.D.G.G.G.G.G.G.G.G.",
"G.G.G.G.G.G.G.G.G.G.G.G.G.G.G.G.G.G.G.G.G.G.5 { X.#...#.[ 5.T.T.Y.Y.Y.6.=.*. .+.+.{ w g.G.G.G.G.G.G.G.G.G.G.G.G.G.G.G.G.G.G.G.G.",
"G.G.G.G.G.G.G.G.G.G.G.G.G.G.G.G.G.G.G.G.G.G.# O. .*.#. .=.' ; ; ; ; ; A ' [ #.*.%.X.0 4.G.G.G.G.G.G.G.G.G.G.G.G.G.G.G.G.G.G.G.G.",
"G.G.G.G.G.G.G.G.G.G.G.G.G.G.G.G.G.G.G.4   . [ *.%.X.*.$.]   > @X  '.K . ` *.*.+. .*...-     G.G.G.G.G.G.G.G.G.G.G.G.G.G.G.G.G.G.",
"G.G.G.G.G.G.G.G.G.G.G.G.G.G.G.G.G.C.a } [ O ] $.*.X.%.$.[ +   . + .   . ) #.+. .*.$. .- A *.= m.G.G.G.G.G.G.G.G.G.G.G.G.G.G.G.G.",
"G.G.G.G.G.G.G.G.G.G.G.G.G.G.G.G.C.s P $.] O ' [ #.#._ X.7.] 1 e *.L 1 A 7.' ` #.$. .' - ) $.O.5 k.G.G.G.G.G.G.G.G.G.G.G.G.G.G.G.",
"G.G.G.G.G.G.G.G.G.G.G.G.G.G.G.D.E 8 O.$...1 M ] | _ B ` %XQ.9.y.*.t.9.8.&X' m ) ..' C 7 _ *.#.C s G.G.G.G.G.G.G.G.G.G.G.G.G.G.G.",
"G.G.G.G.G.G.G.G.G.G.G.G.G.G.G.n.u e X.#.*...8 M ' B Z ' &X=XQ.Q.Q.Q.Q.$X=X] ` n ' C 7 _ $.*.X.( : f.G.G.G.G.G.G.G.G.G.G.G.G.G.G.",
"G.G.G.G.G.G.G.G.G.G.G.G.G.G.n.a 3 r +...$.$...b m c Z ' !.=X@X9.W.t..X*X.X' ) z m b _ $.*...+.P : d f.D.G.G.G.G.G.G.G.G.G.G.G.G.",
"G.G.G.G.G.G.G.G.G.G.G.G.G.G.a Y ! r { +. .*.+.x l C C ` ' W.i.*.*.*.u.W.' ' m ( l z  .*. .+.@.q P o.w h.G.G.G.G.G.G.G.G.G.G.G.G.",
"G.G.G.G.G.G.G.G.G.G.G.G.G.F.& / q.@.t n O.[ v l m ..@.N ` ' [ ..*.%.[ ] ' x +.+.N l v ) +.v 9 o.*.*.0 a.G.G.G.G.G.G.G.G.G.G.G.G.",
"G.G.G.G.I.G.G.G.G.G.G.G.G.G.= *.*.*. .=.x l l n ' ..*.$.c l ' ' ] ] ' n l $.*.+.] B l l z ;._ *.*.*.0 a.G.G.G.G.G.G.G.G.G.G.G.G.",
"G.G.G.G.G.G.G.G.G.G.G.G.G.G.= o.#...] ] c l l n ;.:./ 0.[ *.x c c x c } [ *.*.+.' B l l l ' ] | #.#.q f.G.G.G.G.G.G.G.G.G.G.G.G.",
"G.G.G.G.G.G.G.G.G.G.G.G.g.g.3.3 =._ [ ] ' l l c ` :.q.0.[ *.*.*.*.*.*.*.[ *.$.%.' m l l ` ' ;.=._ t I f.f.G.G.G.G.G.G.G.G.G.G.G.",
"G.G.G.G.G.G.G.G.G.G.G.4.h u = ~ ~ ~ :.V M > l l m ' ..$...%.*.*.*.*.*.+. .*.%.' Z l l , b M >.~ ~ ~ w 4 h Q G.G.G.G.G.G.G.G.G.G.",
"G.G.G.G.G.G.G.G.G.G.G.4 L.F.j W c.v.U d . 8 m l x S ' ..$...X.&.*.*.+...$.X.' ` n l n 8 O k L c.x.4.I h.T.X G.G.G.G.G.G.G.G.G.G.",
"G.G.G.G.G.G.G.G.G.G.G.3.h I.Z.I s s j m.& ' ' m l c m `  . .]  . ...[ | ..' m n l n ` ' $ G.T f f I j.F.,.R G.G.G.G.G.G.G.G.G.G.",
"G.G.G.G.G.G.G.G.G.G.G.k ~.}.F.V.d s n.G.& +.' ` m l l c n ;.] >.H.5.] ' m n l l n ` ' X.@ G.S.T 4 j.F.]./.y G.G.G.G.G.G.G.G.G.G.",
"G.G.G.G.G.G.G.G.G.G.k ~._.< y R.2.I G.G.& *.+.' ' 7 , l l z m b.E.P.;.z l l l - ` ] X.$.@ G.G.f.h Y.H < ).(.4 G.G.G.G.G.G.G.G.G.",
"G.G.G.G.G.G.G.G.E X {.oX< S.g.X s G.G.G.& *.*.$.X.8   , l l D c.c.c.G l l l O #  .$.$.*.@ G.G.G.W X E G.; _.@XX s G.G.G.G.G.G.G.",
"G.k $ * * * * * J +X*XF n.G.G.G.G.G.G.G.C.+ o.o.L 8 ' -   $ : l.c.l.a o . . ] C 3 @.o.2 g.G.G.G.G.G.G.G.G.o &X*X^.* < * * * * 4 ",
"G.E `.*X=X=X=X=X+XOXG j.G.G.G.G.G.G.G.G.o ' % % 8 ] ' A 4 G.n.6 w.k 4.G.y C ' ] N % % C + G.G.G.G.G.G.G.G.G.i XXOX=X=X=X=X=X Xs ",
"G.G.R `.|.=X=X#X[.F f.G.G.G.G.G.G.G.G.G.o M ' ' ;.' C u m.G.G.h.u 3.G.G.G.a N ;.' ] ] C O G.G.G.G.G.G.G.G.G.C.p /.@X=X=X X|.s G.",
"G.G.G.R I '.'.K k a.G.G.G.G.G.G.G.G.G.G.I d U -.<.<.T k.G.G.G.G.G.G.G.G.G.I.I <.-.-.U j j G.G.G.G.G.G.G.G.G.G.k.k H '.'.k k G.G.",
"G.G.G.G.G.E E a.G.G.G.G.G.G.G.G.G.G.G.G.A.v.z.N.G.G.G.G.G.G.G.G.G.G.G.G.G.G.G.G.I.B.z.x.N.G.G.G.G.G.G.G.G.G.G.G.G.g.R R Z.G.G.G.",
"G.G.G.G.G.G.G.G.G.G.G.G.G.G.G.G.G.G.A.N.v.v.M.D.G.G.G.G.G.G.G.G.G.G.G.G.G.G.G.G.G.B.M.M.M.M.A.G.G.G.G.G.G.G.G.G.G.G.G.G.G.G.G.G.",
"G.G.G.G.G.G.G.G.G.G.G.G.G.G.G.G.G.G.B.z.x.B.G.G.G.G.G.G.G.G.G.G.G.G.G.G.G.G.G.G.G.G.G.B.x.z.M.G.G.G.G.G.G.G.G.G.G.G.G.G.G.G.G.G.",
"G.G.G.G.G.G.G.G.G.G.G.G.G.G.G.G.G.G.A.v.v.A.G.G.G.G.G.G.G.G.G.G.G.G.G.G.G.G.G.G.G.G.G.A.N.M.B.G.G.G.G.G.G.G.G.G.G.G.G.G.G.G.G.G.",
"G.G.G.G.G.G.G.G.G.G.G.G.G.G.G.G.G.G.G.G.D.G.G.G.G.G.G.G.G.G.G.G.G.G.G.G.G.G.G.G.G.G.G.G.D.D.G.G.G.G.G.G.G.G.G.G.G.G.G.G.G.G.G.G.",
"G.G.G.G.G.G.G.G.G.G.G.G.G.G.G.G.G.G.G.G.G.G.G.G.G.G.G.G.G.G.G.G.G.G.G.G.G.G.G.G.G.G.G.G.G.G.G.G.G.G.G.G.G.G.G.G.G.G.G.G.G.G.G.G.",
"G.G.G.G.G.G.G.G.G.G.G.G.G.G.G.G.G.G.G.G.G.G.G.G.G.G.G.G.G.G.G.G.G.G.G.G.G.G.G.G.G.G.G.G.G.G.G.G.G.G.G.G.G.G.G.G.G.G.G.G.G.G.G.G.",
"G.G.G.G.G.G.G.G.D.G.G.G.G.G.G.G.G.G.G.G.G.G.G.G.G.G.G.G.G.G.G.G.G.G.G.G.G.G.G.G.G.G.G.G.G.G.G.G.G.G.G.G.G.G.G.G.D.G.G.G.G.G.G.G.",
"G.G.G.G.G.G.D.A.M.A.G.G.G.G.G.G.G.G.G.G.G.G.G.G.G.G.G.G.G.G.G.G.G.G.G.G.G.G.G.G.G.G.G.G.G.G.G.G.G.G.G.G.G.G.G.B.M.B.D.G.G.G.G.G.",
"G.G.G.G.G.G.D.c.l.M.D.G.G.G.G.G.G.G.G.G.G.G.G.G.G.G.G.G.G.G.G.G.G.G.G.G.G.G.G.G.G.G.G.G.G.G.G.G.G.G.G.G.G.G.G.M.e.v.A.G.G.G.G.G.",
"G.G.G.G.G.G.D.N.c.v.M.A.G.G.G.G.G.G.G.G.G.G.G.G.G.G.G.G.G.G.G.G.G.G.G.G.G.G.G.G.G.G.G.G.G.G.G.G.G.G.G.G.G.B.M.M.v.N.D.G.G.G.G.G.",
"G.G.G.G.G.G.G.G.D.v.z.c.D.G.G.G.G.G.G.G.G.G.G.G.G.G.G.G.G.G.G.G.G.G.G.G.G.G.G.G.G.G.G.G.G.G.G.G.G.G.G.G.S.M.z.M.D.G.G.G.G.G.G.G.",
"G.G.G.G.G.G.G.G.G.N.c.v.D.G.G.G.G.G.G.G.G.G.T.G.G.G.G.G.G.G.G.G.G.G.G.G.G.G.G.G.G.G.G.G.G.G.G.G.G.G.G.G.D.M.c.N.G.G.G.G.G.G.G.G.",
"G.G.G.G.G.G.G.G.G.D.A.D.G.G.G.G.G.G.G.G.G.G.G.G.G.G.G.G.G.G.G.G.G.G.G.G.G.G.G.G.G.G.G.G.G.G.G.G.G.G.G.G.G.D.A.D.G.G.G.G.G.G.G.G.",
"G.G.G.G.G.G.G.G.G.G.G.G.G.G.G.G.G.G.G.G.G.G.G.G.G.G.G.G.G.G.G.G.G.G.G.G.G.G.G.G.G.G.G.G.G.G.G.G.G.G.G.G.G.G.G.G.G.G.G.G.G.G.G.G.",
"D.G.G.G.G.G.G.G.G.G.G.G.G.G.G.G.G.G.G.G.G.G.G.G.G.G.G.G.G.G.G.G.G.G.G.G.G.G.G.G.G.G.G.G.G.G.G.G.G.G.G.G.G.G.G.G.G.G.G.G.G.G.G.G.",
"M.G.G.G.G.G.G.G.G.G.G.G.G.G.G.G.G.G.G.G.G.G.G.G.G.G.G.G.G.G.G.G.G.G.G.G.G.G.G.G.G.G.G.G.G.G.G.G.G.G.G.G.G.G.G.G.G.G.G.G.G.G.G.G.",
"M.G.G.G.G.G.G.G.G.G.G.G.G.G.G.G.G.G.G.G.G.G.G.G.G.G.G.G.G.G.G.G.G.G.G.G.G.G.G.G.G.G.G.G.G.G.G.G.G.G.G.G.G.G.G.G.G.G.G.G.G.G.G.G.",
"N.G.G.G.G.G.G.G.G.G.G.G.G.G.G.G.G.G.G.G.G.G.G.G.G.G.G.G.G.G.G.G.G.G.G.G.G.G.G.G.G.G.G.G.G.G.G.G.G.G.G.G.G.G.G.G.G.G.G.G.G.G.G.G.",
"N.G.G.G.G.G.G.G.G.G.G.G.G.G.G.G.G.G.G.G.G.G.G.G.G.G.G.G.G.G.G.G.G.G.G.G.G.G.G.G.G.G.G.G.G.G.G.G.G.G.G.G.G.G.G.G.G.G.G.G.G.G.G.G."
};
