/* XPM */
static char *result[] = {
/* columns rows colors chars-per-pixel */
"64 64 182 2 ",
"   c #151B1B",
".  c #181C1C",
"X  c #22221E",
"o  c #29271F",
"O  c #2B281F",
"+  c #231F22",
"@  c #1E2525",
"#  c #252023",
"$  c #272726",
"%  c #2D2B23",
"&  c #352D21",
"*  c #39242A",
"=  c #3C3122",
"-  c #2D2C35",
";  c #312D36",
":  c #302F38",
">  c #2D3333",
",  c #46272A",
"<  c #4B2328",
"1  c #58272F",
"2  c #4B3827",
"3  c #533424",
"4  c #543C29",
"5  c #442932",
"6  c #4B2B35",
"7  c #542D3A",
"8  c #582E3B",
"9  c #5D3538",
"0  c #63292E",
"q  c #692C2F",
"w  c #66332E",
"e  c #6D2830",
"r  c #772A34",
"t  c #60313F",
"y  c #753531",
"u  c #554129",
"i  c #5B442B",
"p  c #584935",
"a  c #6D4E2F",
"s  c #76492D",
"d  c #684C37",
"f  c #6D5135",
"g  c #6C563D",
"h  c #745231",
"j  c #7D5434",
"k  c #7E5934",
"l  c #7B5E3D",
"z  c #78653F",
"x  c #3B3643",
"c  c #423745",
"v  c #4C3847",
"b  c #533848",
"n  c #5B394A",
"m  c #633342",
"M  c #6C3646",
"N  c #6A3846",
"B  c #653A4D",
"V  c #6B3A4D",
"C  c #7F3747",
"Z  c #74374A",
"A  c #743A4C",
"S  c #773C51",
"D  c #7B3C51",
"F  c #3E4444",
"G  c #464A4B",
"H  c #465053",
"J  c #595C5E",
"K  c #684D46",
"L  c #7F6C44",
"P  c #64615D",
"I  c #4C5B60",
"U  c #766E67",
"Y  c #6C6D70",
"T  c #822B35",
"R  c #932E3B",
"E  c #8F3B33",
"W  c #A7313E",
"Q  c #895A37",
"!  c #905E38",
"~  c #98643B",
"^  c #A7693D",
"/  c #A7733F",
"(  c #CC563F",
")  c #E3653D",
"_  c #E46D3A",
"`  c #8A3342",
"'  c #94394D",
"]  c #833D53",
"[  c #8F3E56",
"{  c #943E55",
"}  c #9C3D54",
"|  c #A23341",
" . c #AE3849",
".. c #A43D53",
"X. c #AB3C52",
"o. c #B13C52",
"O. c #BB3B51",
"+. c #C73648",
"@. c #C43A4E",
"#. c #CC3A4E",
"$. c #D53749",
"%. c #D43A4D",
"&. c #DC394D",
"*. c #C23B50",
"=. c #DD3D50",
"-. c #E0394C",
";. c #9C414F",
":. c #9A4051",
">. c #994C59",
",. c #AE4F4C",
"<. c #B24544",
"1. c #A97440",
"2. c #AF7842",
"3. c #B67243",
"4. c #B47A44",
"5. c #BA7F45",
"6. c #984E64",
"7. c #B67260",
"8. c #D1494D",
"9. c #C85943",
"0. c #E1474A",
"q. c #E25044",
"w. c #E57946",
"e. c #E66959",
"r. c #CF4F62",
"t. c #9C8350",
"y. c #BD8146",
"u. c #AA8A53",
"i. c #C08347",
"p. c #C48649",
"a. c #CC8B4B",
"s. c #D28F4D",
"d. c #DB9551",
"f. c #E88146",
"g. c #EB8649",
"h. c #EE8C4C",
"j. c #EF914F",
"k. c #F1914F",
"l. c #E39A53",
"z. c #EB9E56",
"x. c #F39551",
"c. c #F59A53",
"v. c #F89F56",
"b. c #EEA25A",
"n. c #F9A057",
"m. c #F2A45A",
"M. c #FBA559",
"N. c #FFAD5D",
"B. c #EA8F63",
"V. c #EB9864",
"C. c #C6A360",
"Z. c #CFAA64",
"A. c #D8B167",
"S. c #EAAF64",
"D. c #E9B166",
"F. c #E5BB6D",
"G. c #F0B164",
"H. c #F1BC6D",
"J. c #F0BF70",
"K. c #ECC06F",
"L. c #F1C471",
"P. c #B56E82",
"I. c #B37084",
"U. c #7C8080",
"Y. c #7C929C",
"T. c #6B99A8",
"R. c #7395A2",
"E. c #699FB0",
"W. c #72AABE",
"Q. c #79B8CE",
"!. c #9E8A9F",
"~. c #9694AA",
"^. c #87AEB8",
"/. c #B3AFB5",
"(. c #C49BAA",
"). c #D3A1AF",
"_. c #E6BAC5",
"`. c #B3D0DF",
"'. c #CDC8CE",
"]. c #C8D9E5",
"[. c #E6E0E8",
"{. c #F2EAF1",
/* pixels */
"j.N.N.N.N.N.N.N.N.N.N.N.N.N.N.N.N.N.N.N.N.N.G.N.N.N.N.N.N.N.N.N.N.N.N.N.N.N.N.N.N.N.N.N.N.N.N.N.N.N.N.N.N.N.N.N.N.N.N.N.N.N.N.N.",
"v.N.N.N.N.N.N.N.N.N.N.N.N.N.N.N.N.N.N.N.N.N.N.N.N.N.N.N.N.N.N.N.N.N.N.N.N.N.N.N.N.N.N.N.N.N.N.N.N.N.N.N.N.N.N.N.N.N.N.N.N.N.N.N.",
"M.N.N.N.N.N.N.N.N.N.N.N.N.N.N.N.N.N.N.N.N.N.N.N.N.N.N.N.N.N.N.N.N.N.N.N.N.N.N.N.N.N.N.N.N.N.N.N.N.N.N.N.N.N.N.N.N.N.N.N.N.N.N.N.",
"N.N.N.N.N.N.N.N.N.N.N.N.N.N.N.N.N.N.N.N.N.N.N.N.N.N.N.N.N.N.N.N.N.N.N.N.N.N.N.N.N.N.N.N.N.N.N.N.N.N.N.N.N.N.N.N.N.N.N.N.N.N.N.N.",
"N.N.N.N.N.N.N.N.N.N.N.N.N.N.N.N.N.N.N.N.N.N.N.N.N.N.N.N.N.N.N.N.N.N.N.N.N.N.N.N.N.N.N.N.N.N.N.N.N.N.N.N.N.N.N.N.N.N.N.N.N.N.N.N.",
"N.N.N.N.N.N.N.N.N.N.N.N.N.N.N.N.N.N.N.N.N.N.N.N.N.N.N.N.N.N.N.N.N.N.N.N.N.N.N.N.N.N.M.N.N.N.N.N.N.N.N.N.N.N.N.N.N.N.N.N.N.N.N.N.",
"N.N.N.N.n.c.x.n.N.N.N.N.N.N.N.N.N.N.N.N.N.N.N.N.N.N.N.N.N.N.N.N.N.N.N.N.N.N.N.N.N.n.x.c.M.N.N.N.N.N.N.N.N.N.N.N.N.N.N.N.N.N.N.N.",
"N.N.N.N.v.h.g.v.N.N.N.N.N.N.N.N.N.N.N.N.N.N.N.N.N.N.N.N.N.N.N.N.N.N.N.N.N.N.N.N.N.c.g.h.n.N.N.N.N.N.N.N.N.N.N.N.N.N.N.N.N.N.N.N.",
"N.N.N.N.M.c.k.x.c.n.N.N.N.N.N.N.N.N.N.N.N.N.N.N.N.N.N.N.N.N.N.N.N.N.N.N.N.N.N.N.N.m.x.j.c.c.M.N.N.N.N.N.N.N.N.N.N.N.N.N.N.N.N.N.",
"N.N.N.N.N.M.v.j.g.c.M.N.N.N.N.N.N.N.N.N.N.N.N.N.N.N.N.N.N.N.N.N.N.N.N.N.N.N.N.N.N.N.M.v.h.h.v.N.N.N.N.N.N.N.N.N.N.N.N.N.N.N.N.N.",
"N.N.N.N.N.N.M.c.h.c.N.N.N.N.N.N.N.N.N.N.N.N.N.N.N.N.N.N.N.N.N.N.N.N.N.N.N.N.N.N.N.N.N.M.x.h.n.N.N.N.N.N.N.N.N.N.N.N.N.N.N.N.N.N.",
"N.N.N.N.N.N.N.M.v.M.N.N.N.N.N.N.N.N.N.N.N.N.N.N.N.N.N.N.N.b.i i i i d.N.N.N.N.N.N.N.N.M.M.M.M.N.N.N.N.N.N.N.N.N.N.N.N.N.N.N.N.N.",
"N.N.N.N.N.N.N.N.N.N.N.N.N.N.N.N.N.N.N.N.N.N.N.N.N.N.N.N.N.2 C.C.C.C.p = N.N.N.N.N.N.N.N.N.N.N.N.N.N.N.N.N.N.N.N.N.N.N.N.N.N.N.N.",
"N.N.N.N.N.N.N.N.N.N.N.N.N.N.N.N.N.N.N.N.N.N.N.N.N.N.N.N.X F.L.L.L.L.K.A.o N.N.N.N.N.N.N.N.N.N.N.N.N.N.N.N.N.N.N.N.N.N.N.N.N.N.N.",
"N.N.N.N.N.N.N.N.N.N.N.N.N.N.N.N.N.N.N.N.N.N.N.N.N.N.N.& F.X X X L K.L.L.L.o N.N.N.N.N.N.N.N.N.N.N.N.N.N.N.N.N.N.N.N.N.N.N.N.N.N.",
"N.N.N.N.N.N.N.N.N.N.N.N.N.N.N.N.N.N.n.c.v.N.N.N.N.N.N.N.= s.s.s.f t.L.L.L.u d.N.N.N.N.N.N.N.N.N.N.N.N.N.N.N.N.n.v.n.N.N.N.N.N.N.",
"N.N.N.N.N.N.N.N.N.N.N.N.N.N.N.N.N.N.c.h.h.n.N.N.N.N.N.y.4.3 3 3 3 u.L.L.L.A.2 N.N.N.N.N.N.N.N.N.N.N.N.N.N.N.N.x.g.k.M.N.N.N.N.N.",
"N.N.N.N.N.N.N.N.N.N.N.N.N.N.N.N.M.c.x.h.k.M.N.N.N.y.~ w e _ _ _ ) S.L.L.L.A.& i.N.N.N.N.N.N.N.N.N.N.N.N.N.M.c.x.h.c.M.N.N.N.N.N.",
"N.N.N.N.N.N.N.N.N.N.N.N.N.N.N.N.c.h.k.c.M.N.N.N.5.9 r $.-.q.q.q.q.c.L.L.L.D.r 9 y.N.N.N.N.N.N.N.N.N.N.N.M.x.h.x.n.M.N.N.N.N.N.N.",
"N.N.N.N.N.N.N.N.N.N.N.N.N.N.N.N.c.f.k.N.N.N.N.y.y ' #.-.V.-.-.-.-.B.L.L.K.e.#.' y y.N.N.N.N.N.N.N.N.N.N.M.k.g.c.N.N.N.N.N.N.N.N.",
"N.N.N.N.N.N.N.N.N.N.N.N.N.N.N.N.n.c.n.N.N.N.a.w +.o.#.-.L.V.-.-.e.V.z.L.L.=.#.X.+.w a.N.N.N.N.N.N.N.N.N.N.M.c.M.N.N.N.N.N.N.N.N.",
"N.N.N.N.N.N.N.N.N.N.N.N.N.N.N.N.N.N.N.N.N.N.i.1 -.X.#.-.>.J.H.H.L.m.x.H.0.-.#.X.-.0 y.N.N.N.N.N.N.N.N.N.N.N.N.N.N.N.N.N.N.N.N.N.",
"N.N.N.N.N.N.N.N.N.N.N.N.N.N.N.N.N.N.N.N.N.d.< @.O.&...%.{ >.F.F.F.F.F.>.[ #...&.O.O.< d.N.N.N.N.N.N.N.N.N.N.N.N.N.N.N.N.N.N.N.N.",
"N.N.N.N.N.N.N.N.N.N.N.N.N.N.N.N.N.N.N.N.N.y.1 @.O.&.-...[ M @ ;   > # M :...-.&.O.#.1 4.N.N.N.N.N.N.N.N.N.N.N.N.N.N.N.N.N.N.N.N.",
"N.N.N.N.N.N.N.N.N.N.N.N.N.N.N.N.N.N.N.y.4.# ..&.*.O.&.-.[   F U.  U.x   [ &.&.O.*.&...# 4.y.N.N.N.N.N.N.N.N.N.N.N.N.N.N.N.N.N.N.",
"N.N.N.N.N.N.N.N.N.N.N.N.N.N.N.N.N.N.4.q 5 # } #.-.*.O.&.[ 5   O 0 *   5 [ O.O.*.-.#.} # 5 e 2.N.N.N.N.N.N.N.N.N.N.N.N.N.N.N.N.N.",
"N.N.N.N.N.N.N.N.N.N.N.N.N.N.N.N.N./ y $.{ # { } #.@.S X.(.[ T W -.| ` [ (.[ A *.#.} { + :.%.y 1.N.N.N.N.N.N.N.N.N.N.N.N.N.N.N.N.",
"N.N.N.N.N.N.N.N.N.N.N.N.N.N.N.N./ 9 +.&.*.8 7 [ } A V [ {.).r.P.-.7.r.).{.[ V A } { 7 8 O.&.+.9 / N.N.N.N.N.N.N.N.N.N.N.N.N.N.N.",
"N.N.N.N.N.N.N.N.N.N.N.N.N.N.N.4.O m #.-.-.@.m 7 :.b D [ {.[.!.I.~.I.!.[.{.[ D n [ 7 m @.-.-.%.t % / N.N.N.N.N.N.N.N.N.N.N.N.N.N.",
"N.N.N.N.N.N.N.N.N.N.N.N.N.N.p.0 e R ..%.-.&.@.V c x D [ 6.{._.&.r.=._.{.6.[ D x c x  .&.-.&.;.R q w p.N.N.N.N.N.N.N.N.N.N.N.N.N.",
"N.N.N.N.N.N.N.N.N.N.N.N.N.d.2 _ s R -.} &.] x x B O.B ] [ { &.&.&.&.&.} { ] B *.V x x ] =.} -.R r -.< d.N.N.N.N.N.N.N.N.N.N.N.N.",
"N.N.N.N.N.N.N.N.N.N.N.N.N.d.2 ) q.r W +.] x x n [ 8.&.N ] ] { ..%.X.[ ] ] m -.*.[ n x x ] @.W e -.&.< d.N.N.N.N.N.N.N.N.N.N.N.N.",
"N.N.N.N.N.N.N.N.N.N.N.N.N.d.< -.-.#.Z b x x x n :.9._ -.b M S S D S S B b -.-.*.[ n x x x c V %.=.-.< d.N.N.N.N.N.N.N.N.N.N.N.N.",
"N.N.N.N.N.N.N.N.N.N.N.N.N.z.s R *.} [ [ n x x n >.,.q.-.[ %.D ` C C ` %.[ -.&.X.D v x x n B [ } *.' y z.N.N.N.N.N.N.N.N.N.N.N.N.",
"N.N.N.N.N.N.N.N.N.N.N.N.j k a E <.} [ [ [ x x v V ] #.-.[ &.-.-.&.-.-.-.{ &.#.[ B x x x [ [ [ :.<.E s k k N.N.N.N.N.N.N.N.N.N.N.",
"N.N.N.N.N.N.N.N.N.N.N.a u.! 2 w.w.9.} { ; $ x x B [ ..&.*.o.-.-.-.-.-.o.*.&...[ B x x $ * :.:.9.w.w.2 ! u.a N.N.N.N.N.N.N.N.N.N.",
"N.N.N.N.N.N.N.N.N.N.N.% L.D.~ Q k.g.9., . Z V x c S [ } -.#.o.&.-.-.o.@.-...{ S c x V Z . * ( h.j.Q ~ G.L.o N.N.N.N.N.N.N.N.N.N.",
"N.N.N.N.N.N.N.N.N.N.N.z.% z.G.~ o ^ 4 a.. [ [ V x x c [ { { { { } { { { { ] c x x V [ [ . a.4 ^ X ~ S.z.% z.N.N.N.N.N.N.N.N.N.N.",
"N.N.N.N.N.N.N.N.N.N.N.% Q.^.z.G.j   p.N.. %.[ [ B x x x x [ [ 7.L.7.[ [ x x x x B [ { %.. N.a.  j G.z.^.Q.% N.N.N.N.N.N.N.N.N.N.",
"N.N.N.N.N.N.N.N.b.s.p W.E.& i Z.z 4.N.N.& @.%.} { * - x x x K m.H.z.K x x x - 5 { } #.+.& N.N.4.z Z.p & E.W.p s.b.N.N.N.N.N.N.N.",
"N.s.y.y.4.y.y.4.g H '.T.4 N.a.u / N.N.N.5., W W ` 6 * : : : p x.x.k.K - : ; * 6 ` | W , 4.N.N.N./ u a.N.u T.'.H g y.y.4.y.y.4.s.",
"N.i J Y Y Y Y Y R.]./.d N.N.N.N.N.N.N.N.  ] 5 5 5 Z [ + a a a 3.j.3.a a a + [ Z 5 5 6 ]   N.N.G.N.N.N.N.N.a /.].T.Y Y Y Y Y J i ",
"N.4.U [.{.{.{.{.`.Y.l m.N.N.N.N.N.N.N.N.. 8 { [ { { 9 z N.N.d.j j h d.N.N.k m [ [ [ { 8   N.N.N.N.N.N.N.N.m.k Y.`.{.{.{.{.[.U / ",
"N.N.y.P Y {.{./.I l b.N.N.N.N.N.N.N.N.N.^ ~ 1.3.3.5./ m.N.N.N.d./ d.N.N.N.m.1.4.3.3.^ ^ ^ N.N.N.N.N.N.N.N.N.z.z I /.{.{.Y P y.N.",
"N.N.N.a.i.G G g p.z.N.N.N.N.N.N.N.N.N.N.c.h.g.c.N.N.N.N.N.N.N.N.N.N.N.N.N.N.N.N.N.c.g.g.v.N.N.N.N.N.N.N.N.N.N.b.p.g G G i.a.N.N.",
"N.N.N.N.N.l.l.m.N.N.N.N.N.N.N.N.N.N.n.c.x.x.c.v.N.N.N.N.N.N.N.N.N.N.N.N.N.N.N.N.N.v.c.x.x.x.n.N.N.N.N.N.N.N.N.N.N.m.l.l.N.N.N.N.",
"N.N.N.N.N.N.N.N.N.N.N.N.N.N.N.N.N.N.c.g.h.v.M.N.N.N.N.N.N.N.N.N.N.N.N.N.N.N.N.N.N.N.N.c.h.g.c.N.N.N.N.N.N.N.N.N.N.N.N.N.N.N.N.N.",
"N.N.N.N.N.N.N.N.N.N.N.N.N.N.N.N.N.N.v.x.x.n.N.N.N.N.N.N.N.N.N.N.N.N.N.N.N.N.N.N.N.N.N.M.c.k.v.N.N.N.N.N.N.N.N.N.N.N.N.N.N.N.N.N.",
"N.N.N.N.N.N.N.N.N.N.N.N.N.N.N.N.N.N.N.N.N.N.N.N.N.N.N.N.N.N.N.N.N.N.N.N.N.N.N.N.N.N.N.N.M.M.N.N.N.N.N.N.N.N.N.N.N.N.N.N.N.N.N.N.",
"N.N.N.N.N.N.N.N.N.N.N.N.N.N.N.N.N.N.N.N.N.N.N.N.N.N.N.N.N.N.N.N.N.N.N.N.N.N.N.N.N.N.N.N.N.N.N.N.N.N.N.N.N.N.N.N.N.N.N.N.N.N.N.N.",
"N.N.N.N.N.N.N.N.N.N.N.N.N.N.N.N.N.N.N.N.N.N.N.N.N.N.N.N.N.N.N.N.N.N.N.N.N.N.N.N.N.N.N.N.N.N.N.N.N.N.N.N.N.N.N.N.N.N.N.N.N.N.N.N.",
"N.N.N.N.N.N.N.N.M.N.N.N.N.N.N.N.N.N.N.N.N.N.N.N.N.N.N.N.N.N.N.N.N.N.N.N.N.N.N.N.N.N.N.N.N.N.N.N.N.N.N.N.N.N.N.N.N.M.N.N.N.N.N.N.",
"N.N.N.N.N.N.N.c.k.v.N.N.N.N.N.N.N.N.N.N.N.N.N.N.N.N.N.N.N.N.N.N.N.N.N.N.N.N.N.N.N.N.N.N.N.N.N.N.N.N.N.N.N.N.N.n.k.c.N.N.N.N.N.N.",
"N.N.N.N.N.N.M.j.f.k.N.N.N.N.N.N.N.N.N.N.N.N.N.N.N.N.N.N.N.N.N.N.N.N.N.N.N.N.N.N.N.N.N.N.N.N.N.N.N.N.N.N.N.N.N.x.f.j.n.N.N.N.N.N.",
"N.N.N.N.N.N.N.c.h.x.x.v.N.N.N.N.N.N.N.N.N.N.N.N.N.N.N.N.N.N.N.N.N.N.N.N.N.N.N.N.N.N.N.N.N.N.N.N.N.N.N.N.N.n.c.x.k.c.M.N.N.N.N.N.",
"N.N.N.N.N.N.N.M.M.x.g.k.M.N.N.N.N.N.N.N.N.N.N.N.N.N.N.N.N.N.N.N.N.N.N.N.N.N.N.N.N.N.N.N.N.N.N.N.N.N.N.N.M.k.f.x.n.N.N.N.N.N.N.N.",
"N.N.N.N.N.N.N.N.N.c.h.x.M.N.N.N.N.N.N.N.N.N.N.N.N.N.N.N.N.N.N.N.N.N.N.N.N.N.N.N.N.N.N.N.N.N.N.N.N.N.N.N.M.c.j.c.N.N.N.N.N.N.N.N.",
"N.N.N.N.N.N.N.N.N.M.M.M.N.N.N.N.N.N.N.N.N.N.N.N.N.N.N.N.N.N.N.N.N.N.N.N.N.N.N.N.N.N.N.N.N.N.N.N.N.N.N.N.N.M.n.M.N.N.N.N.N.N.N.N.",
"N.N.N.N.N.N.N.N.N.N.N.N.N.N.N.N.N.N.N.N.N.N.N.N.N.N.N.N.N.N.N.N.N.N.N.N.N.N.N.N.N.N.N.N.N.N.N.N.N.N.N.N.N.N.N.N.N.N.N.N.N.N.N.N.",
"M.N.N.N.N.N.N.N.N.N.N.N.N.N.N.N.N.N.N.N.N.N.N.N.N.N.N.N.N.N.N.N.N.N.N.N.N.N.N.N.N.N.N.N.N.N.N.N.N.N.N.N.N.N.N.N.N.N.N.N.N.N.N.N.",
"x.N.N.N.N.N.N.N.N.N.N.N.N.N.N.N.N.N.N.N.N.N.N.N.N.N.N.N.N.N.N.N.N.N.N.N.N.N.N.N.N.N.N.N.N.N.N.N.N.N.N.N.N.N.N.N.N.N.N.N.N.N.N.N.",
"x.N.N.N.N.N.N.N.N.N.N.N.N.N.N.N.N.N.N.N.N.N.N.N.N.N.N.N.N.N.N.N.N.N.N.N.N.N.N.N.N.N.N.N.N.N.N.N.N.N.N.N.N.N.N.N.N.N.N.N.N.N.N.N.",
"c.N.N.N.N.N.N.N.N.N.N.N.N.N.N.N.N.N.N.N.N.N.N.N.N.N.N.N.N.N.N.N.N.N.N.N.N.N.N.N.N.N.N.N.N.N.N.N.N.N.N.N.N.N.N.N.N.N.N.N.N.N.N.N.",
"c.N.N.N.N.N.N.N.N.N.N.N.N.N.N.N.N.N.N.N.N.N.N.N.N.N.N.N.N.N.N.N.N.N.N.N.N.N.N.N.N.N.N.N.N.N.N.N.N.N.N.N.N.N.N.N.N.N.N.N.N.N.N.N."
};
