/* XPM */
static char *result[] = {
/* columns rows colors chars-per-pixel */
"64 64 188 2 ",
"   c #151C1B",
".  c #1A1D1D",
"X  c #1D201D",
"o  c #23231E",
"O  c #32271F",
"+  c #221F22",
"@  c #2B1F22",
"#  c #1C2223",
"$  c #2D2B22",
"%  c #2A2529",
"&  c #372626",
"*  c #3B262E",
"=  c #3D3324",
"-  c #3D2D38",
";  c #2E3334",
":  c #37373D",
">  c #472526",
",  c #403424",
"<  c #543D28",
"1  c #452A33",
"2  c #4D2A35",
"3  c #532D39",
"4  c #572D39",
"5  c #5D323C",
"6  c #63262E",
"7  c #6A2A33",
"8  c #782C35",
"9  c #3B433F",
"0  c #57422A",
"q  c #524433",
"w  c #68442A",
"e  c #65492D",
"r  c #6D4F2F",
"t  c #6F502F",
"y  c #6B4D32",
"u  c #7F4B37",
"i  c #675337",
"p  c #735432",
"a  c #795532",
"s  c #7E5933",
"d  c #765B38",
"f  c #74633E",
"g  c #3B3643",
"h  c #433745",
"j  c #4B3746",
"k  c #533848",
"l  c #5B3848",
"z  c #663445",
"x  c #653A4C",
"c  c #6C3A4D",
"v  c #76374A",
"b  c #7A3649",
"n  c #713A4E",
"m  c #763C50",
"M  c #7B3C51",
"N  c #3D5A63",
"B  c #505957",
"V  c #66594E",
"C  c #746252",
"Z  c #4C666A",
"A  c #776C62",
"S  c #892D38",
"D  c #9D2F3C",
"F  c #883036",
"G  c #96313C",
"H  c #A8313E",
"J  c #8B4D34",
"K  c #924A38",
"L  c #865A37",
"P  c #835C35",
"I  c #A85434",
"U  c #8D6338",
"Y  c #94663A",
"T  c #96683A",
"R  c #9D6D3D",
"E  c #A16A3D",
"W  c #A3713E",
"Q  c #CF603C",
"!  c #DC653E",
"~  c #E46D3A",
"^  c #883848",
"/  c #983B46",
"(  c #833D53",
")  c #8F3E56",
"_  c #943E55",
"`  c #9B3D54",
"'  c #AA3849",
"]  c #BB3545",
"[  c #A43D53",
"{  c #AB3C52",
"}  c #B53C51",
"|  c #BA3B51",
" . c #C63646",
".. c #C53B4F",
"X. c #CC3A4E",
"o. c #D23749",
"O. c #D33A4D",
"+. c #DC394C",
"@. c #C23B50",
"#. c #E0394C",
"$. c #E13F52",
"%. c #9E414E",
"&. c #955442",
"*. c #965944",
"=. c #96475A",
"-. c #A3424C",
";. c #8D7649",
":. c #917149",
">. c #B26F47",
",. c #AC7A46",
"<. c #BB7647",
"1. c #B37A44",
"2. c #995067",
"3. c #BD5266",
"4. c #A46276",
"5. c #BA697D",
"6. c #DB485A",
"7. c #E24A4C",
"8. c #E25941",
"9. c #E45754",
"0. c #D46442",
"q. c #C27845",
"w. c #E66D51",
"e. c #C85468",
"r. c #D3576A",
"t. c #DD6979",
"y. c #9A804E",
"u. c #BC8146",
"i. c #A38953",
"p. c #BE9C5D",
"a. c #C28548",
"s. c #CC8B4B",
"d. c #D7874D",
"f. c #D5914F",
"g. c #C58D52",
"h. c #DA9551",
"j. c #E3864A",
"k. c #EB8649",
"l. c #EE8C4C",
"z. c #EE914F",
"x. c #F1914F",
"c. c #E19952",
"v. c #EA9D55",
"b. c #F39551",
"n. c #F59A53",
"m. c #F89F56",
"M. c #EEA157",
"N. c #F9A057",
"B. c #F2A559",
"V. c #FBA559",
"C. c #F7A85A",
"Z. c #FFAD5D",
"A. c #C98D66",
"S. c #CD9267",
"D. c #EA8A62",
"F. c #DDA369",
"G. c #D4AC72",
"H. c #EDA368",
"J. c #EEAD6B",
"K. c #F0AC61",
"L. c #E9B96C",
"P. c #F1B769",
"I. c #EDC16F",
"U. c #F1C471",
"Y. c #527B89",
"T. c #B17589",
"R. c #55808F",
"E. c #7A9EA7",
"W. c #71ABBF",
"Q. c #77B5CA",
"!. c #8C8683",
"~. c #858488",
"^. c #9F899E",
"/. c #9B9CA1",
"(. c #B09DAF",
"). c #86A5AA",
"_. c #ABA8AA",
"`. c #C59CAB",
"'. c #CEABB8",
"]. c #86B8CB",
"[. c #CEB8C6",
"{. c #90C2D5",
"}. c #BDD4E1",
"|. c #D1CAD0",
" X c #D5DEE8",
".X c #DAE0EA",
"XX c #E9E5ED",
"oX c #F2EAF1",
/* pixels */
"z.C.Z.Z.Z.Z.Z.Z.Z.Z.Z.Z.Z.Z.Z.Z.Z.Z.Z.Z.Z.Z.Z.Z.Z.Z.Z.Z.Z.Z.Z.Z.Z.Z.Z.Z.Z.Z.Z.Z.Z.Z.Z.Z.Z.Z.Z.Z.Z.Z.Z.Z.Z.Z.Z.Z.Z.Z.Z.Z.Z.Z.Z.Z.",
"m.Z.Z.Z.Z.Z.Z.Z.Z.Z.Z.Z.Z.Z.Z.Z.Z.Z.Z.Z.Z.Z.Z.Z.Z.Z.Z.Z.Z.Z.Z.Z.Z.Z.Z.Z.Z.Z.Z.Z.Z.Z.Z.Z.Z.Z.Z.Z.Z.Z.Z.Z.Z.Z.Z.Z.Z.Z.Z.Z.Z.Z.Z.Z.",
"V.Z.Z.Z.Z.Z.Z.Z.Z.Z.Z.Z.Z.Z.Z.Z.Z.Z.Z.Z.Z.Z.Z.Z.Z.Z.Z.Z.Z.Z.Z.Z.Z.Z.Z.Z.Z.Z.Z.Z.Z.Z.Z.Z.Z.Z.Z.Z.Z.Z.Z.Z.Z.Z.Z.Z.Z.Z.Z.Z.Z.Z.Z.Z.",
"Z.Z.Z.Z.Z.Z.Z.Z.Z.Z.Z.Z.Z.Z.Z.Z.Z.Z.Z.Z.Z.Z.Z.Z.Z.Z.Z.Z.Z.Z.Z.Z.Z.Z.Z.Z.Z.Z.Z.Z.Z.Z.Z.Z.Z.Z.Z.Z.Z.Z.Z.Z.Z.Z.Z.Z.Z.Z.Z.Z.Z.Z.Z.Z.",
"Z.Z.Z.Z.Z.Z.Z.Z.Z.Z.Z.Z.Z.Z.Z.Z.Z.Z.Z.Z.Z.Z.Z.Z.Z.Z.Z.Z.Z.Z.Z.Z.Z.Z.Z.Z.Z.Z.Z.Z.Z.Z.Z.Z.Z.Z.Z.Z.Z.Z.Z.Z.Z.Z.Z.Z.Z.Z.Z.Z.Z.Z.Z.Z.",
"Z.Z.Z.Z.Z.Z.C.Z.Z.Z.Z.Z.Z.Z.Z.Z.Z.Z.Z.Z.Z.Z.Z.Z.Z.Z.Z.Z.Z.Z.Z.Z.Z.Z.Z.Z.Z.Z.Z.Z.Z.Z.V.Z.Z.Z.Z.Z.Z.Z.Z.Z.Z.Z.Z.Z.Z.Z.Z.Z.Z.Z.Z.Z.",
"Z.Z.Z.Z.V.n.b.V.Z.Z.Z.Z.Z.Z.Z.Z.Z.Z.Z.Z.Z.Z.Z.Z.Z.Z.Z.Z.Z.Z.Z.Z.Z.Z.Z.Z.Z.Z.Z.Z.Z.N.b.n.C.Z.Z.Z.Z.Z.Z.Z.Z.Z.Z.Z.Z.Z.Z.Z.Z.Z.Z.Z.",
"Z.Z.Z.Z.N.l.k.n.Z.Z.Z.Z.Z.Z.Z.Z.Z.Z.Z.Z.Z.Z.Z.Z.Z.Z.Z.Z.Z.Z.Z.Z.Z.Z.Z.Z.Z.Z.Z.Z.Z.n.k.l.N.Z.Z.Z.Z.Z.Z.Z.Z.Z.Z.Z.Z.Z.Z.Z.Z.Z.Z.Z.",
"Z.Z.Z.Z.V.b.x.b.m.V.Z.Z.Z.Z.Z.Z.Z.Z.Z.Z.Z.Z.Z.Z.Z.Z.Z.Z.Z.Z.Z.Z.Z.Z.Z.Z.Z.Z.Z.Z.Z.C.x.x.n.n.V.Z.Z.Z.Z.Z.Z.Z.Z.Z.Z.Z.Z.Z.Z.Z.Z.Z.",
"Z.Z.Z.Z.Z.V.m.x.k.n.Z.Z.Z.Z.Z.Z.Z.Z.Z.Z.Z.Z.Z.Z.Z.Z.Z.Z.Z.Z.Z.Z.Z.Z.Z.Z.Z.Z.Z.Z.Z.Z.C.n.l.l.n.Z.Z.Z.Z.Z.Z.Z.Z.Z.Z.Z.Z.Z.Z.Z.Z.Z.",
"Z.Z.Z.Z.Z.Z.C.n.l.n.C.Z.Z.Z.Z.Z.Z.Z.Z.Z.Z.Z.Z.Z.Z.Z.Z.Z.Z.Z.Z.Z.Z.Z.Z.Z.Z.Z.Z.Z.Z.Z.Z.V.x.l.N.Z.Z.Z.Z.Z.Z.Z.Z.Z.Z.Z.Z.Z.Z.Z.Z.Z.",
"Z.Z.Z.Z.Z.Z.Z.V.m.V.V.Z.Z.Z.Z.Z.Z.Z.Z.Z.Z.Z.Z.Z.Z.Z.Z.Z.Z.Z.Z.Z.Z.Z.Z.Z.Z.Z.Z.Z.Z.Z.Z.Z.V.N.C.Z.Z.Z.Z.Z.Z.Z.Z.Z.Z.Z.Z.Z.Z.Z.Z.Z.",
"Z.Z.Z.Z.Z.Z.Z.Z.Z.Z.Z.Z.Z.Z.Z.Z.Z.Z.Z.Z.Z.Z.Z.Z.Z.Z.Z.Z.Z.1.s s s U K.Z.Z.Z.Z.Z.Z.Z.Z.Z.Z.Z.Z.Z.Z.Z.Z.Z.Z.Z.Z.Z.Z.Z.Z.Z.Z.Z.Z.Z.",
"Z.Z.Z.Z.Z.Z.Z.Z.Z.Z.Z.Z.Z.Z.Z.Z.Z.Z.Z.Z.Z.Z.Z.Z.Z.Z.Z.Z.u.f i.i.i.i.i U Z.Z.Z.Z.Z.Z.Z.Z.Z.Z.Z.Z.Z.Z.Z.Z.Z.Z.Z.Z.Z.Z.Z.Z.Z.Z.Z.Z.",
"Z.Z.Z.Z.Z.Z.Z.Z.Z.Z.Z.Z.Z.Z.Z.Z.Z.Z.Z.Z.Z.Z.Z.Z.Z.Z.Z.a.f G.U.U.U.I.p.T T Z.Z.Z.Z.Z.Z.Z.Z.Z.Z.Z.Z.Z.Z.Z.Z.Z.Z.Z.Z.Z.Z.Z.Z.Z.Z.Z.",
"Z.Z.Z.Z.Z.Z.Z.Z.Z.Z.Z.Z.Z.Z.Z.Z.Z.Z.C.n.N.C.Z.Z.Z.Z.s.i ;.$ $ O I.U.U.I.U y.Z.Z.Z.Z.Z.Z.Z.Z.Z.Z.Z.Z.Z.Z.Z.Z.Z.N.n.C.Z.Z.Z.Z.Z.Z.",
"Z.Z.Z.Z.Z.Z.Z.Z.Z.Z.Z.Z.Z.Z.Z.Z.Z.Z.n.l.x.n.Z.Z.Z.Z.Z.,.s C.V.V.X U.U.U.;.Y Z.Z.Z.Z.Z.Z.Z.Z.Z.Z.Z.Z.Z.Z.Z.Z.V.n.k.x.V.Z.Z.Z.Z.Z.",
"Z.Z.Z.Z.Z.Z.Z.Z.Z.Z.Z.Z.Z.Z.Z.Z.V.n.b.x.x.V.Z.Z.Z.Z.C.h.P O O O O U.U.U.U.C 1.Z.Z.Z.Z.Z.Z.Z.Z.Z.Z.Z.Z.Z.Z.N.N.b.l.n.V.Z.Z.Z.Z.Z.",
"Z.Z.Z.Z.Z.Z.Z.Z.Z.Z.Z.Z.Z.Z.Z.Z.n.l.x.n.V.Z.Z.Z.Z.1.R > K ~ ~ ~ ~ U.U.U.U.f U M.Z.Z.Z.Z.Z.Z.Z.Z.Z.Z.Z.Z.V.n.l.x.m.V.Z.Z.Z.Z.Z.Z.",
"Z.Z.Z.Z.Z.Z.Z.Z.Z.Z.Z.Z.Z.Z.Z.Z.b.k.b.V.Z.Z.Z.Z.E 1 S #.7.8.8.8.8.U.U.U.U.:.2 L Z.Z.Z.Z.Z.Z.Z.Z.Z.Z.Z.Z.C.x.k.n.V.Z.Z.Z.Z.Z.Z.Z.",
"Z.Z.Z.Z.Z.Z.Z.Z.Z.Z.Z.Z.Z.Z.Z.Z.N.n.N.Z.Z.Z.Z.Y 8 ` #.7.9.$.#.#.#.U.U.U.H.9.{ S s Z.Z.Z.Z.Z.K.Z.Z.Z.Z.Z.Z.V.n.V.Z.Z.Z.Z.Z.Z.Z.Z.",
"Z.Z.K.Z.Z.Z.Z.Z.Z.Z.Z.Z.Z.Z.Z.Z.Z.Z.Z.Z.Z.Z.U F +._ #.w.P.9.#.+.D.B.C.U.D.#.[ O.G r Z.Z.Z.Z.Z.Z.Z.Z.Z.Z.Z.Z.Z.Z.Z.Z.Z.Z.Z.Z.Z.Z.",
"Z.Z.Z.Z.Z.Z.Z.Z.Z.Z.Z.Z.Z.Z.Z.Z.Z.Z.Z.Z.Z.Z.0 H +.=.+.6.A.J.H.H.U.z.v.H.7.+.{ O.#.o Z.Z.Z.Z.Z.Z.Z.Z.Z.Z.Z.Z.Z.Z.Z.Z.Z.Z.Z.Z.Z.Z.",
"Z.Z.Z.Z.Z.Z.Z.Z.Z.Z.Z.Z.Z.Z.Z.Z.Z.Z.Z.Z.Z.s H -.+.o.[ @.=.S.U.L.U.I.H.=.| } ..+.` ] 0 Z.Z.Z.Z.Z.Z.Z.Z.Z.Z.Z.Z.Z.Z.Z.Z.Z.Z.Z.Z.Z.",
"Z.Z.Z.Z.Z.Z.Z.Z.Z.Z.Z.Z.Z.Z.Z.Z.Z.Z.Z.C.V.t H ` +.#.X._ ) 1         % =.) | #.#._ o.= V.Z.Z.Z.Z.Z.Z.Z.Z.Z.Z.Z.Z.Z.Z.Z.Z.Z.Z.Z.Z.",
"Z.Z.Z.Z.Z.Z.Z.Z.Z.Z.Z.Z.Z.Z.Z.Z.Z.Z.W $ . 5 X.#.` +.#.@.3   _.: X |.  * } +.+.[ +.+.v   @ L V.K.Z.Z.Z.Z.Z.Z.Z.Z.Z.Z.Z.Z.Z.Z.Z.Z.",
"Z.Z.Z.Z.Z.Z.Z.Z.Z.Z.Z.Z.Z.Z.Z.Z.Z.W 7 X.3 l | +.#.[ O.@.z +   * >     3 { X.{ O.+.X.v * } S U C.Z.Z.Z.Z.Z.Z.Z.Z.Z.Z.Z.Z.Z.Z.Z.Z.",
"Z.Z.Z.Z.Z.Z.Z.Z.Z.Z.Z.Z.Z.Z.Z.Z.W 4 #...3 5 _ | #.| ( 3.4.8 6  .+.6 7 2.4.M ' +...) v & } +.8 L Z.Z.Z.Z.Z.Z.Z.Z.Z.Z.Z.Z.Z.Z.Z.Z.",
"Z.Z.Z.Z.Z.Z.Z.Z.Z.Z.Z.Z.Z.Z.Z.T . ` #.o.^ 2 b _ } x c T.|.r.T.$.$.T.6.'.`.M x { _ ( 3 v X.#.{ @ s Z.Z.Z.Z.Z.Z.Z.Z.Z.Z.Z.Z.Z.Z.Z.",
"Z.Z.Z.Z.Z.Z.Z.Z.Z.Z.Z.Z.Z.Z.U F . | | #.O.^ 1 ( ) h ) T.oX[.T.T.^.5.(.oX`.) k M ) 1 b X.+.@.| & F t Z.Z.Z.Z.Z.Z.Z.Z.Z.Z.Z.Z.Z.Z.",
"Z.Z.Z.Z.Z.Z.Z.Z.Z.Z.Z.Z.Z.U J ! . +...| #.O.^ l k h _ 2.'..Xt.e.r.6..X[.2.) k k k - O.#...| +.O o.H r Z.Z.Z.Z.Z.Z.Z.Z.Z.Z.Z.Z.Z.",
"Z.Z.Z.Z.Z.Z.Z.Z.Z.Z.P.Z.Z.t I ~  .> +.| ` c j g ( ] k ) =.e.$.+.#.$.e.2.=.l ' _ g g l ` } +.6 H 7.o.= Z.Z.Z.Z.Z.Z.Z.Z.Z.Z.Z.Z.Z.",
"Z.Z.Z.Z.Z.Z.Z.Z.Z.Z.Z.Z.Z.r H #.#.X.g g g g g M _ $.] l ) ) _ O.#._ _ ) x / #.[ ) g g g g g ' #.#.o.= V.Z.Z.Z.Z.Z.Z.Z.Z.Z.Z.Z.Z.",
"Z.Z.Z.Z.Z.Z.Z.Z.Z.Z.Z.C.Z.s D O.O.) ) m h g g ( ) ~ 8.' j n ( ( ( ( m k ^ #.#.` _ g g g h n _ X.O.] 0 Z.Z.Z.Z.Z.Z.Z.Z.Z.Z.Z.Z.Z.",
"Z.Z.Z.Z.Z.Z.Z.Z.Z.Z.C.M.<.a.< / [ ) ) ) x g g n ) 0.8...} / x x x z b ..} #.O.` M g g k ) ) _ ` -., a.a.h.Z.Z.Z.Z.Z.Z.Z.Z.Z.Z.Z.",
"Z.Z.Z.Z.Z.Z.Z.Z.Z.Z.M.U i & I ! ! -._ M 1 g g g ( _ ..O.} O.#.#.#.#.+.| ..X.` _ g g : - v ) ` Q ! Q X y d f.Z.Z.Z.Z.Z.Z.Z.Z.Z.Z.",
"Z.Z.Z.Z.Z.Z.Z.Z.Z.Z.a.i L.,.s j.x.0.%.* % z h g x ) ` @.X.| O.#.#.#.| @.X.[ ) c g g x 1 & F 0.l.x.L T P.;.Y Z.Z.Z.Z.Z.Z.Z.Z.Z.Z.",
"Z.Z.Z.Z.Z.Z.Z.Z.Z.Z.M.f ,.H.,.y e j.< t 2 ) M h g l x ` { ` [ { { { _ { [ n l g g n ) z < w <.s e E K.g.p f.Z.Z.Z.Z.Z.Z.Z.Z.Z.Z.",
"Z.Z.Z.Z.Z.Z.Z.Z.Z.V.f.B E.G.P.q.. 0 d.W 7 [ ) M g g h k n ) ) S.F.) ) M j h g g m ) ` G p h.e X >.L.F.).Z ,.Z.Z.Z.Z.Z.Z.Z.Z.Z.Z.",
"Z.Z.Z.Z.Z.Z.Z.Z.Z.c.9 W.Y.$ p.I.X c.Z.W 8 +.[ ) ( # g g g j >.P.U.w.h h g g % n ) _ O.H s K.v.& J.L.o N W.B u.Z.Z.Z.Z.Z.Z.Z.Z.Z.",
"Z.Z.Z.Z.Z.Z.Z.Z.X ;  XR.P Z.<   V.Z.Z.Z.U F #.#._   # g g g <.z.v.d.g g g %   v +.#.] 0 Z.Z.Z.Z.X o Z.,.Z }.B # M.Z.P.Z.Z.Z.Z.Z.",
"Z.X ; ; ; ; ; ; Q.XX_.p Z.Z.Z.Z.Z.Z.Z.W 2 2 o % + ) v . $ $ R l.z.q.$ $ o 5 ) & + + * z a Z.Z.Z.Z.Z.Z.Z.W !.XX{.9 ; ; ; ; ; # s.",
"Z.q |.oXoXoXoXoXQ._.t Z.Z.Z.Z.Z.Z.Z.Z.W 1 ( ) ) =.) 5 U Z.Z.a E <.0 Z.Z.W 5 ( =.) ) ( 4 a Z.Z.Z.Z.Z.Z.Z.Z.Y !.].XXoXoXoXoX|.V h.",
"Z.M.i /.|.oXoX_.R.p Z.Z.Z.Z.Z.Z.Z.Z.Z.s.e u K &.*.L U Z.Z.Z.Z.s e Z.Z.Z.Z.W L *.*.&.J w E Z.Z.Z.Z.Z.Z.Z.Z.Z.T Z /.oXoX|._.C s.Z.",
"Z.Z.c.P C ~.~.d U Z.Z.Z.Z.Z.Z.Z.Z.Z.Z.V.m.l.l.n.Z.Z.Z.Z.Z.Z.Z.Z.Z.Z.Z.Z.Z.Z.Z.Z.K.m.k.l.m.Z.Z.Z.Z.Z.Z.Z.Z.Z.Z.R s ~.~.A s a.Z.Z.",
"Z.Z.Z.Z.s.R R B.Z.Z.Z.Z.Z.Z.Z.Z.Z.Z.N.n.x.x.b.N.Z.Z.Z.Z.Z.Z.Z.Z.Z.Z.Z.Z.Z.Z.Z.Z.Z.m.b.b.b.b.V.Z.Z.Z.Z.Z.Z.Z.Z.Z.Z.W W u.Z.Z.Z.Z.",
"Z.Z.Z.Z.Z.Z.Z.Z.Z.Z.Z.Z.Z.Z.Z.Z.Z.Z.m.l.l.N.V.Z.Z.Z.Z.Z.Z.Z.Z.Z.Z.Z.Z.Z.Z.Z.Z.Z.Z.Z.Z.n.l.k.n.Z.Z.Z.Z.Z.Z.Z.Z.Z.Z.Z.Z.Z.Z.Z.Z.Z.",
"Z.Z.Z.Z.Z.Z.Z.Z.Z.Z.Z.Z.Z.Z.Z.Z.Z.Z.N.x.x.V.Z.Z.Z.Z.Z.Z.Z.Z.Z.Z.Z.Z.Z.Z.Z.Z.Z.Z.Z.Z.Z.V.b.b.m.Z.Z.Z.Z.Z.Z.Z.Z.Z.Z.Z.Z.Z.Z.Z.Z.Z.",
"Z.Z.Z.Z.Z.Z.Z.Z.Z.Z.Z.Z.Z.Z.Z.Z.Z.Z.Z.Z.Z.Z.Z.Z.Z.Z.Z.Z.Z.Z.Z.Z.Z.Z.Z.Z.Z.Z.Z.Z.Z.Z.Z.Z.V.N.Z.Z.Z.Z.Z.Z.Z.Z.Z.Z.Z.Z.Z.Z.Z.Z.Z.Z.",
"Z.Z.Z.Z.Z.Z.Z.Z.Z.Z.Z.Z.Z.Z.Z.Z.Z.Z.Z.Z.Z.Z.Z.Z.Z.Z.Z.Z.Z.Z.Z.Z.Z.Z.Z.Z.Z.Z.Z.Z.Z.Z.Z.Z.Z.Z.Z.Z.Z.Z.Z.Z.Z.Z.Z.Z.Z.Z.Z.Z.Z.Z.Z.Z.",
"Z.Z.Z.Z.Z.Z.Z.Z.Z.Z.Z.Z.Z.Z.Z.Z.Z.Z.Z.Z.Z.Z.Z.Z.Z.Z.Z.Z.Z.Z.Z.Z.Z.Z.Z.Z.Z.Z.Z.Z.Z.Z.Z.Z.Z.Z.Z.Z.Z.Z.Z.Z.Z.Z.Z.Z.Z.Z.Z.Z.Z.Z.Z.Z.",
"Z.Z.Z.Z.Z.Z.Z.Z.V.Z.Z.Z.Z.Z.Z.Z.Z.Z.Z.Z.Z.Z.Z.Z.Z.Z.Z.Z.Z.Z.Z.Z.Z.Z.Z.Z.Z.Z.Z.Z.Z.Z.Z.Z.Z.Z.Z.Z.Z.Z.Z.Z.Z.Z.Z.Z.Z.V.Z.Z.Z.Z.Z.Z.",
"Z.Z.Z.Z.Z.Z.Z.n.b.n.Z.Z.Z.Z.Z.Z.Z.Z.Z.Z.Z.Z.Z.Z.Z.Z.Z.Z.Z.Z.Z.Z.Z.Z.Z.Z.Z.Z.Z.Z.Z.Z.Z.Z.Z.Z.Z.Z.Z.Z.Z.Z.Z.Z.V.N.x.n.Z.Z.Z.Z.Z.Z.",
"Z.Z.Z.Z.Z.Z.V.x.k.x.Z.Z.Z.Z.Z.Z.Z.Z.Z.Z.Z.Z.Z.Z.Z.Z.Z.Z.Z.Z.Z.Z.Z.Z.Z.Z.Z.Z.Z.Z.Z.Z.Z.Z.Z.Z.Z.Z.Z.Z.Z.Z.Z.Z.Z.b.k.z.V.Z.Z.Z.Z.Z.",
"Z.Z.Z.Z.Z.Z.Z.n.x.x.b.n.Z.Z.Z.Z.Z.Z.Z.Z.Z.Z.Z.Z.C.Z.Z.Z.Z.Z.Z.Z.Z.Z.Z.Z.Z.Z.Z.Z.Z.Z.Z.Z.Z.Z.Z.Z.Z.Z.Z.Z.Z.N.n.b.z.n.V.Z.Z.Z.Z.Z.",
"Z.Z.Z.Z.Z.Z.Z.C.V.b.k.x.V.Z.Z.Z.Z.Z.Z.Z.Z.Z.Z.Z.Z.Z.Z.Z.Z.Z.Z.Z.Z.Z.Z.Z.Z.Z.Z.Z.Z.Z.Z.Z.Z.Z.Z.Z.Z.Z.Z.Z.C.x.k.x.N.V.Z.Z.Z.Z.Z.Z.",
"Z.Z.Z.Z.Z.Z.Z.Z.Z.n.x.b.V.Z.Z.Z.Z.Z.Z.Z.Z.Z.Z.Z.Z.Z.Z.Z.Z.Z.Z.Z.Z.Z.Z.Z.Z.Z.Z.Z.Z.Z.Z.Z.Z.Z.Z.Z.Z.Z.Z.Z.V.n.l.N.Z.Z.Z.Z.Z.Z.Z.Z.",
"Z.Z.Z.Z.Z.Z.Z.Z.Z.V.n.V.Z.Z.Z.Z.Z.Z.Z.Z.Z.Z.Z.Z.Z.Z.Z.Z.Z.Z.Z.Z.Z.Z.Z.Z.Z.Z.Z.Z.Z.Z.Z.Z.Z.Z.Z.Z.Z.Z.Z.Z.V.V.N.C.Z.Z.Z.Z.Z.Z.Z.Z.",
"Z.Z.Z.Z.Z.Z.Z.Z.Z.Z.Z.Z.Z.Z.Z.Z.Z.Z.Z.Z.Z.Z.Z.Z.Z.Z.Z.Z.Z.Z.Z.Z.Z.Z.Z.Z.Z.Z.Z.Z.Z.P.Z.Z.Z.Z.Z.Z.Z.Z.Z.Z.Z.Z.Z.Z.Z.Z.Z.Z.Z.Z.Z.Z.",
"V.Z.Z.Z.Z.Z.Z.Z.Z.Z.Z.Z.Z.Z.Z.Z.Z.Z.Z.Z.Z.Z.Z.Z.Z.Z.Z.Z.Z.Z.Z.Z.Z.Z.Z.Z.Z.Z.Z.Z.Z.Z.Z.Z.Z.Z.Z.Z.Z.Z.Z.Z.Z.Z.Z.Z.Z.Z.Z.Z.Z.Z.Z.Z.",
"b.Z.Z.Z.Z.Z.Z.Z.Z.Z.Z.Z.Z.Z.Z.Z.Z.Z.Z.Z.Z.Z.Z.Z.Z.Z.Z.Z.Z.Z.Z.Z.Z.Z.Z.Z.Z.Z.Z.Z.Z.Z.Z.Z.Z.Z.Z.Z.Z.Z.Z.Z.Z.Z.Z.Z.Z.Z.Z.Z.Z.Z.Z.Z.",
"n.Z.Z.Z.Z.Z.Z.Z.Z.Z.Z.Z.Z.Z.Z.Z.Z.Z.Z.Z.Z.Z.Z.Z.Z.P.Z.Z.Z.Z.Z.Z.Z.Z.Z.Z.Z.Z.Z.Z.Z.Z.Z.Z.Z.Z.Z.Z.Z.Z.Z.Z.Z.Z.Z.Z.Z.Z.Z.Z.Z.Z.Z.Z.",
"n.Z.Z.Z.Z.Z.Z.Z.Z.Z.Z.Z.Z.Z.Z.Z.Z.Z.Z.Z.Z.Z.Z.Z.Z.Z.Z.Z.Z.Z.Z.Z.Z.Z.Z.Z.Z.Z.Z.Z.Z.Z.Z.Z.Z.Z.Z.Z.Z.Z.Z.Z.Z.Z.Z.Z.Z.Z.Z.Z.Z.Z.Z.Z.",
"b.Z.Z.Z.Z.Z.Z.Z.Z.Z.Z.Z.Z.Z.Z.Z.Z.Z.Z.Z.Z.Z.Z.Z.Z.Z.Z.Z.Z.Z.Z.Z.Z.Z.Z.Z.Z.Z.Z.Z.Z.Z.Z.Z.Z.Z.Z.Z.Z.Z.Z.Z.Z.Z.Z.Z.Z.Z.Z.Z.Z.Z.Z.Z."
};
