/* XPM */
static char *result[] = {
/* columns rows colors chars-per-pixel */
"64 64 125 2 ",
"   c #9C4E02",
".  c #9E5A16",
"X  c #A15701",
"o  c #A85C02",
"O  c #B56101",
"+  c #BA6801",
"@  c #AE6A1A",
"#  c #BE671F",
"$  c #B26B2A",
"%  c #C77101",
"&  c #D6780D",
"*  c #C47B10",
"=  c #C97A13",
"-  c #C46E22",
";  c #D27D35",
":  c #B47446",
">  c #BA7A47",
",  c #DA8702",
"<  c #DB8C02",
"1  c #D88813",
"2  c #DB8018",
"3  c #E69C07",
"4  c #F49F0D",
"5  c #E28311",
"6  c #E88F17",
"7  c #E68B1B",
"8  c #E39015",
"9  c #EC9011",
"0  c #EB941E",
"q  c #EA9C18",
"w  c #E5A40F",
"e  c #F7A60C",
"r  c #F8AF0B",
"t  c #F3B60B",
"y  c #F5B90C",
"u  c #ECAE16",
"i  c #EDA51A",
"p  c #F8A21E",
"a  c #DE9520",
"s  c #CC8234",
"d  c #D68D3B",
"f  c #DE8C3D",
"g  c #DC9335",
"h  c #DC913A",
"j  c #E3962F",
"k  c #E08D3E",
"l  c #E19233",
"z  c #E59835",
"x  c #E0973E",
"c  c #D8A338",
"v  c #E7B022",
"b  c #EEBC2D",
"n  c #F5B52A",
"m  c #E3A63E",
"M  c #EFB23F",
"N  c #EFBA39",
"B  c #F6BA31",
"V  c #EDC238",
"C  c #FBC036",
"Z  c #F8C33B",
"A  c #F3CA3C",
"S  c #B38154",
"D  c #D98E43",
"F  c #DB9543",
"G  c #DE9B4F",
"H  c #C28655",
"J  c #D88D55",
"K  c #D3945E",
"L  c #DD965B",
"P  c #E88C42",
"I  c #EA8D4B",
"U  c #E59445",
"Y  c #E89546",
"T  c #E3954A",
"R  c #EA954A",
"E  c #E4994A",
"W  c #EC9A4B",
"Q  c #F09D4E",
"!  c #E18D52",
"~  c #E09150",
"^  c #E69C51",
"/  c #ED9E51",
"(  c #E29C5C",
")  c #ED9E5E",
"_  c #F39E51",
"`  c #F39C59",
"'  c #E7AB46",
"]  c #E5A448",
"[  c #F4A04F",
"{  c #EFA155",
"}  c #EFA85B",
"|  c #F5A354",
" . c #F9A557",
".. c #F5AC54",
"X. c #FBAE56",
"o. c #F3A459",
"O. c #FBA659",
"+. c #F6A95B",
"@. c #FEAD5D",
"#. c #F9B156",
"$. c #FCB15A",
"%. c #D49D67",
"&. c #E19C62",
"*. c #ECA365",
"=. c #E6A468",
"-. c #EAAA6D",
";. c #F4A664",
":. c #FCA760",
">. c #F4AA63",
",. c #FFAD61",
"<. c #F4AB69",
"1. c #FEAE69",
"2. c #FFB162",
"3. c #FCB26B",
"4. c #F9CC45",
"5. c #F9D447",
"6. c #FAD34A",
"7. c #F8D558",
"8. c #F6D95E",
"9. c #F2D179",
"0. c #F9E266",
"q. c #FBE36C",
"w. c #FCE985",
"e. c #FFEF8D",
"r. c #FFF096",
/* pixels */
"S K *.;.,.@.@.X.@.@.2.1.1.1.,.,.,.,.@.O.,.,.,.,.@.,.@.,.,.,.:.,.@.@.@.@.,.@.@.@.@.@.,.@.$.,.@.@.@.@.$.@.@.@.$.$.@.@.$.,.,.;.&.H ",
"%.=.<.:.,.@.@.@.@.@.,.,.,.1.3.,.,.,.,.,.,.,.,.@.,.:.,.,.@.,.,.@.,.@.@.@.@.@.@.,.@.@.@.@.,.@.,.@.@.@.@.$.$.@.@.$.$.X.@.2.,.1.;.%.",
"-.<.1.,.,.@.@.$.@.@.2.2.,.3.,.,.,.,.,.,.,.@.,.,.,.,.@.,.,.,.:.,.@.@.@.@.@.,.@.$.$.,.@.@.@.@.,.$.@.@.@.$.$.@.$.,.@.$.@.@.,.,.:.<.",
"3.3.1.,.@.,.@.@.$.$.,.,.,.,.,.,.,.@.,.@.,.,.:.,.,.O.,.,.@.,.,.@.,.@.@.,.@.@.@.,.,.@.@.@.@.@.@.@.X.@.@.@.$.$.+.$.$.,.+.@.O.,.,.,.",
"3.3.,.,.@.,.@.,.,.$.@.2.,.,.,.2.,.@.,.,.,.@.:.,.,.,.,.:.,.@.,.,.,.@.@.,.@.$.,.@.@.@.@.@.@.@.@.@.@.@.X.@.X.@.2.@.2.+.@.@.@.O.O.,.",
"3.2.2.,.,.@.@.,.,.2.,.,.,.,.,.,.,.,.,.:.,.,.,.@.,.,.,.@.,.,.@.,.@.,.$.@.@.,.@.@.@.@.@.@.$.,.@.@.$.@.@.@.@.@.$.+.,.,.,.,.@.O.O.@.",
"2.@.@.@.@. .| | @.@.@.,.,.@.,.,.,.,.@.,.O.,.,.,.@.,.@.,.@.,.@.,.,.@.@.@.,.$.@.,. .W W  .,.@.,.@.@.@.@.@.@.@.@.@.+.2.@.,.,.O.O.@.",
"@.@.@.@.@.| Y W  . .@.@.,.,.,.,.,.O.,.:.@.,.@.,.,.:.,.,.,.,.:.,.@.@.@.,.@.@.@.@.| U k | @.,.$.,.@.@.@.@.@.@.,.@.@.@.@.,.,.@.,.@.",
"X.@.@.@.@. ._ Q Q Q O.@.@.@.@.,.@.@.:.:.@.,.:.,.:.,.,.,.@.,.,.,.,.,.@.,.,.$.,.@. .W E Q _  .@.,.,.,.,.:.,.:.@.@.@.@.@.,.,.,.:.,.",
"@.@.@.@.@.@.O._ Y R _ @.O.O.O.,.,.:.,.@.:.@.@.,.,.@.,.,.,.,.@.,.@.$.@.@.@.@.@.@.@.O.| Y k W @.@.,.:.1.:.:.,.@.@.@.@.@.@.,.,.,.,.",
"@.@.@.@.@.@.,. .W Q O.O.@. .@.,.@.@.,.O.@.O.,.,.@.@.,.@.@.,.,.,.@.,.@.@.@.@.@.,.@.@.O.W Y | $.@.,.,.1.:.:.:.@.@.@.@.@.@.,.:.,.@.",
"+.@.,.@.@.,.,.O.O.O.@.@.,.O.,.O.,.:.,.@.@.@.@.@.,.@.@.@.@.@.$.@.@.$.,.@.,.@.@.$.2.,.$.O.| @.2.,.,.,.,.:.1.,.@.@.@.X.@.@.,.,.@.@.",
"2.,.>.$.,.,.@.@.@.,.,.2.@.,.+.,.,.@.@.@.@.@.@.@.@.@.@.,.@.@.@.@.@.,.,.@.@.$.@.,.@.@.$.,.@.,.2.,.@.,.:.,.,.,.,.@.@.@.@.,.,.,.@.@.",
",.3.2.,.,.O.@.O.O.@.,.2.:.+.@.,.@.@.@.@.@.@.@.@.@.@.@.@.@.,.@.,.@.@.@.@.@.,.@.,.@.@.,.@.@.@.@.@.,.,.,.1.,.,.,.@.@.@.@.@.,.@.@.@.",
",.3.>.2.,.O.O.O.O.@.,.2.,.2.,.+.,.,.@.O.O.@.@.@.@.@.@.@.$.,.,.@.@.,.,.@.@.@.@.$.$.@.@.@.@.@.@.2.2.,.,.,.,.,.@. .X.@.@.@.@.@.@.@.",
",.,.2.+.,.@.:.O.O.@.@.,.,.+.@.@.@.2.+.Q Q +.@.,.@.@.,.@.@.@.@.@.@.$.@.@.,.@.@.,.,.,.@.@.@.@.@.,.,.,.,.:.,.O.Q W | @.@.@.@.@.@.@.",
",.,.:.,.@.:.@.O.O.,.,.,.@.@.@. .,.2.+.Y Y | @.@.@.@.@.@.@.@.@.@.,.$.@.,.@.@.2.@.@.,.@.@.2.@.@.,.,.@.,.@.@.o.R f W @.,.@.,.,.@.@.",
",.,.@.,.@.@.,.,.,.,.O.,.@.@.@.@.| { / W | +.@.@.$.@.@.@.2.@.,.$.@.@.@.@.@.@.@.@.@.@.@.,.@.@.@.@.,.@.,. .| W W W o.$.,.$.@.$.@.@.",
",.@.:.@.,.O.O.,.O.,.,.O.@.@. . .W f Y ..,.,.2.@.@.@.@.@.@.@.@.@.,.@.@.@.@.@.@.@.@.@.,.$.@.@.@.@.@.@.@.| Y f W O.@.,.@.@.@.,.@.@.",
",.@.+.,.:.,.O.,.,.@.@.@.@.@.@.@.| E [ +.$.$.@.@.@.@.@.@.@.@.@.@.@.@.@.,.$.,.,.@.@.2.@.@.@.@.,.$.@.@.,.O.W W  .@.@.@.@.@.@.$.@.,.",
",.,.:.,.@.@.@.:.,.,.@.@.@.@.@.@.@.+.@.@.2.@.@.@.X.@.@.$.@.@.@.@.@.@.2.@.,.$.,.@.@.@.@.@.@.@.@.@.,.$.@.@.O.X.@.2.2.@.@.@.@.@.@.@.",
",.O.@.O.,.:.@.,.O.,.@.@.@.@.@.,.$.2.2.@.@.@.X.@.@.@.@.@.@.X.@.@.@.@.@.@.@.@.@.@.@.@.$.,.@.,.@.,.@.,.,.,.2.,.$.2.@.@.@.,.,.@.,.$.",
",.O.@.@.,.:.,.O.,.@.@.@.@.@.,.$.,.@.@.@.X.@.@.@.@.@.@.@.@.$.X.@.@.$.@.@.@.@.2.@.@.,.,.@.,.@.@.,.,.$.,.$.,.2.,.@.@.@.@.@.@.,.,.@.",
":.@.O.@.,.@.,.,.O.@.@.@.@.@.+.:.@.@.O.X.@.@.X.X.X.@.@.X.@.@.@.@.@.,.@.@.@.@.@.@.@.@.@.@.$.@.@.@.@.@.,.2.$.,.@.@.@.@.,.$.@.@.@.@.",
"@.O.@.@.,.@.@.@.@.@.@.@.@.@.@.@.@.O.@.@.@.O.X.@.@.X.@.@.@.@.@.@.@.@.@.@.,.$.,.@.@.@.@.@.@.$.@.@.$.@.@.,.@.2.@.@.@.,.@.,.@.@.@.,.",
"@.@.O.@.,.@.@.@.@.@.@.@.@.@.@.@.@.@.@.@.@.O.@.X.@.@.@.@.@.@.X.@.@.,.@.@.@.@.,.@.@.,.@.,.@.,.@.,.,.@.@.@.@.@.,.,.,.$.,.$.@.@.,.$.",
"@.@.@.@.@.@.O.@.@.@.@.@.@.@.@.@.@.@.O.@.@.X.X.@.X.@.@.X.@.@.9.s - # ; @.$.,.@.@.$.,.,.@.@.@.@.$.@.,.$.,.@.@.@.$.@.@.,.@.@.@.@.@.",
"@.@.@.@.@.@.@.@.@.@.@.@.@.@.O.@.@.@.@.X.X.@.@.@.@.@.@.@.@.} c M 0 7 2 +.,.@.@.@.@.@.@.@.,.@.@.,.@.@.,.@.@.@.@.,.@.@.@.@.@.@.,.@.",
"@.@.@.@.@.@.@.@. .@.@.@.@.@.@.@.@.@.@.@.@.X.O.@.@.@.@.@.@.G = N p j 9 ^ @.,.@.@.@.,.$.@.@.,.@.@.@.,.$.,.,.@.@.@.@.@.@.2.@.@.@.@.",
"@.@.@.@.@.@.@.@.@.@.O.@.@.@.@.@.@.@.@.O.O.@.X.@.X.@.X.@.@.F w A C n i E @.@.@.@.@.@.,.@.@.$.,.@.@.@.@.@.,.$.@.@.@.@.@.@.2.@.@.@.",
"@.@.@.@.@.@.@.@.@.@.@.@.@.@.O.@.@.@.X.X.@.@.@.@.@.@.X.@.@.h t 5.q.6.b ] @.@.$.,.@.@.@.@.@.,.@.@.@.@.@.,.@.@.@.@.@.,.@.@.@.@.@.,.",
"@.@.@.@.@.@.@.@.@.@.@.@.@.@.@.@.@.@.@.@.@.X.X.@.@.@.@.@.X.h y 6.e.q.A ' @.@.@.,.@.@.2.@.@.@.@.@.2.@.@.@.@.,.@.@.,.$.@.,.@.@.,.$.",
"@.@.@.@.@.@.@.@.O.@.@.@.X.@.@.X.O.X.@.@.@.@.@.X.@.@.@.@.X.g t 4.r.0.4.' +.,.@.@.$.,.@.@.@.@.$.,.,.@.@.@.@.$.,.@.,.@.@.@.@.@.@.@.",
"@.@.@.@.@.@.@.@.@.@.X.@.O.@.@.@.@.@.@.X.O.X.@.@.@.@.X.@.@.g r Z w.8.V m $.@.@.@.@.@.,.@.@.,.@.@.@.@.@.,.,.@.@.@.@.@.@.@.@.@.@.@.",
"@.@.@.@.@.O.O.@.@.@.O.@.@.@.O.@.@.@.O.@.@.X.@.@.X.@.X.@.@.l e B 7.A v c @.@.$.,.,.@.@.,.$.@.@.@.@.@.@.$.@.@.2.@.@.@.@.@.@.@.,.$.",
"@.@.@.@.@.@.@.@.@.@.@.@.X.@.@.@.@.X.@.X.@.@.X.@.@.@.@.@.@.l e p u w 3 g @.@.@.,.@.@.@.$.,.@.,.@.@.,.@.,.@.@.@.@.@.2.X.@.,.@.@.,.",
"@.@.@.@.@.@.@.@.@.@.@.O.@.O.X.X.@.@.@.@.@.X.O.@.@.@.@.@.@.z 4 i 3 < , h ,.@.@.,.@.@.@.,.@.@.,.@.@.@.,.@.,.@.@.@.@.@.@.@.@.$.,.@.",
"@.@.@.@.@.@.@.@.@.@.@.X.@.X.@.@.X.O.@.X.@.X.@.@.X.@.@.X.@.x 6 q < , , d @.@.$.@.,.@.@.@.$.@.@.@.$.,.$.@.@.@.@.,.,.@.@.@.@.@.@.,.",
"@.@.@.@.@.O.@.@.@.@.@.@.@.@.X.@.X.@.O.@.@.@.X.@.@.@.@.@.@.G 5 8 , % % D @.@.,.@.$.,.@.@.,.,.@.@.,.@.@.@.@.@.$.@.$.,.,.@.,.$.@.@.",
"@.@.@.@.@.@.@.@.@.O.@.X.X.@.@.@.O.@.X.@.X.@.@.$.@.X.@.@.$.E & 1 + + O E @.,.@.@.@.@.,.@.@.@.@.@.@.@.,.@.,.@.,.@.@.@.@.@.@.,.@.@.",
"@.@.@.@.@.O.@.@.@.@.X.@.X.@.@.@.@.@.@.@.@.X.@.@.@.@.@.@.$.W a * o X   } ,.@.@.@.2.@.@.@.@.@.@.@.,.@.@.@.@.,.@.@.@.@.@.@.,.@.@.,.",
"@.O.@.@.@.@.@.@.@.@.@.O.X.@.@.2.@.@.@.@. .| | X.@.@.@.@.$.+.j @ . @ $ @.@.@.@.@.@. . .O.@.@.@.@.@.@.@.@.@.@.@.@.@.,.@.@.@.@.@.@.",
"@.X.@.X.@.@.X.@.@.@.@.X.@.@.@.2.$.2.@.O.[ Q Y | $.,.@.@.,.@.@.,.@.@.@.@.$.,.@.@.O.W W | O.@.$.@.,.@.,.@.@.@.@.@.@.@.@.@.@.@.@.@.",
"@.@.@.O.X.O.X.@.O.X.@.@.O.@.$.2.2.2.X.| Q Y W | @.@.,.@.,.@.@.@.,.@.@.@.@.@.,.@.O.Q W W |  .@.@.@.@.@.O.@.@.@.,.@.@.@.@.@.@.,.@.",
"@.O.@.X.@.O.@.@.X.@.@.O.X.@.@.$.@.@. .E W Q | @.@.@.2.@.@.@.@.@.@.@.@.@.,.@.,.@.X.O.| W Y [ O.O.O.X.@.@.@.@.O.O.@.@.@.@.@.@.@.@.",
"@.X.@.@.@.X.X.@.@.O.X.@.@.@.@.O.@.@.| Y Y  .@.@.@.@.@.@.@.2.@.@.@.@.@.@.,.$.,.$.@.@. .E U Q @. .O.O.@.@.@.@.@.@.@.@.@.@.2.@.@.@.",
"@.@.@.O.@.@.@.@.@.@.@.O.@.X.@.O.@.@.O. . .+.$.,.,.@.$.@.@.@.,.@.@.@.@.@.@.,.@.@.@.,.@. .|  .+.@.O.O.@.@.@.@.O.@.@.@.@.@.@.@.,.@.",
"@.X.@.@.@.X.@.O.X.@.@.X.@.@.O.O.@.$.2.@.2.2.2.2.@.@.,.@.,.@.@.@.,.@.@.,.@.@.@.@.,.$.,.@.@.@.2.@.X.O.O.@.@.@.,.@.@.O.@.@.,.,.$.@.",
"@.@.@.@.@.@.X.@.@.X.@.+.@.@.@. .@.@.@.@.2.@.2.@.@.$.,.@.@.,.@.,.@.@.@.@.@.,.@.@.@.+.@.X.@.@.,.@.@. .+.,.@.,.@.@.@.@.@.@.@.,.@.@.",
"@.@.@.O.@.@.O.X.@.O.@.@.$.@.O. .@.@.@.@.@.@.@.@.@.,.@.@.@.@.@.$.@.@.2.@.@.@.@.@.@.O. .O.@.+.2.@.@.@.@.,.,.,.@.O.,.O.@.,.,.@.,.,.",
"2.@.@.@.@.@.X.O.Q | O.2.2.@.@.+.@.,.@.@.@.@.@.@.@.@.@.,.@.@.@.@.@.@.@.@.@.$.@.@.@.@.O.O.O.@.:.@.@.+.,.,.,.,. ._  .O.,.@.@.,.,.,.",
"2.2.2.,.@.@.@.Q Y W +.2.,.+.@.,.@.@.2.@.2.@.2.@.2.,.,.$.@.2.@.2.@.2.@.2.,.,.2.@.@.@.@.@.@.@.@.@.@.,.,.>.3.,./ Y _ @.@.O.+.:.:.,.",
",.,.2.2.2.@.@._ W E { o.+.>.@.,.@.@.2.2.2.@.@.@.@.@.$.,.,.$.@.@.,.,.$.,.@.@.2.@.@.@.@.@.@.@.@.@.,.,.@.>.+.o.^ W | ,.,.,.,.,.,.1.",
",.2.,.2.2.@.@.O. ./ E T { +.@.2.2.,.@.@.@.@.2.2.@.2.,.@.,.,.2.@.$.,.$.,.2.@.@.@.@.@.@.@.@.@.@.@.,.+.>.} E T { O.@.,.,.,.,.2.1.1.",
",.,.,.2.2.,.@.@.@.| T U | +.,.,.2.@.@.@.@.2.@.@.@.@.2.2.$.$.,.@.@.2.,.,.2.@.,.@.@.,.@.@.@.@.@.@.@.,.+...E T { ,.,.,.,.,.3.,.1.1.",
",.,.@.$.@.@.@.@.@.@.| | +.@.+.,.@.@.2.2.@.@.2.@.2.@.@.@.,.,.,.2.@.@.@.2.@.@.2.@.@.@.@.@.@.X.@.@.+.$.$.+.| ..+.2.,.,.,.,.,.1.,.1.",
"X.@.@.O.,.O.O.,.,.,.@.@.@.@.@.@.2.@.@.@.2.@.2.@.@.2.$.,.2.@.@.@.2.@.@.2.@.@.@.@.@.@.@.@.@.@.@.@.@.$.#.#.$.$.2.,.,.,.,.,.,.:.1.1.",
"Q  .@.@.@.,.O.O.:.O.@.X.X.$.$.$.@.@.2.@.2.@.,.,.@.,.,.,.@.@.2.2.2.@.@.2.@.2.2.@.,.@.@.@.@.@.@.O.@.$.#.#.#.$.$.,.@.,.:.@.,.:.:.` ",
"P Q @.@.@.O.O.:.O.O.O.X.X.$.@.$.@.,.,.@.@.$.,.$.2.@.@.$.,.$.@.@.@.@.@.@.@.2.@.@.@.@.,.@.@.@.@.@.@.$.#.#.#.#.X.@.O.:.,.,.,.,.O.I ",
"I _ O.@.@.@.:.O.@.@.@...X.#.$.@.@.,.@.@.@.,.,.,.$.,.,.2.,.,.2.@.@.2.2.@.@.@.@.2.,.$.@.@.@.@.@.@.@.$.$.$.#.#.,.,.,.:.,.,.,.:.` I ",
"I ` @.@.@.@.O.@.@.@.X.X.#.#.$.X.@.,.,.,.,.,.,.,.,.2.,.,.,.2.,.@.,.$.$.,.2.2.@.@.@.@.@.@.@.@.@.@.@.$.$.X.X.+.,.,.:.:.,.,.@.O.` T ",
"! ` @.O.@.@.,.:.@.@.#.#.#.#.$.@.@.,.@.,.@.,.@.,.,.,.,.2.,.2.,.2.,.,.,.,.@.@.@.2.2.@.@.@.@.@.@.@.@.#.$.@.X.@.,.:.:.:.@.+.@.O.o.~ ",
"J ) ,.@.@.@.@.@.@.O.$.#.#.#.$.@.@.,.@.,.,.,.,.,.,.,.,.2.,.,.2.,.2.@.$.,.,.,.,.$.,.,.@.@.@.$.@.@.@.@.X.@.@.@.:.:.1.:.:.O.@.:.&.J ",
": L 1.,.@.O.@.@.@.@.X.X.X.#.X.@.@.,.,.,.@.,.@.,.2.2.,.,.2.,.@.,.2.,.,.,.$.$.,.,.$.@.,.@.@.,.@.@.X.@.X.@.@.,.,.1.:.:.:.O.@.,.( > "
};
