/* XPM */
static char *result[] = {
/* columns rows colors chars-per-pixel */
"64 64 118 2 ",
"   c #8D4A03",
".  c #8E4A08",
"X  c #924D03",
"o  c #A15501",
"O  c #A65B01",
"+  c #BB6602",
"@  c #B16805",
"#  c #B3600B",
"$  c #BD712B",
"%  c #CB7902",
"&  c #D57F00",
"*  c #DB7F18",
"=  c #B47446",
"-  c #BA7A47",
";  c #D48703",
":  c #DD8D02",
">  c #DF9305",
",  c #D7950C",
"<  c #CF8210",
"1  c #CF8814",
"2  c #E59D07",
"3  c #E28614",
"4  c #E98C13",
"5  c #E1891C",
"6  c #E19213",
"7  c #E99713",
"8  c #E59816",
"9  c #E4941B",
"0  c #EB9619",
"q  c #E59D1C",
"w  c #F19512",
"e  c #F59D10",
"r  c #F29D1B",
"t  c #DFA70E",
"y  c #F7A40C",
"u  c #F9AF0C",
"i  c #FAB90B",
"p  c #E4A613",
"a  c #E5A419",
"s  c #EAA91E",
"d  c #EEB31D",
"f  c #DF8F26",
"g  c #DE8C3D",
"h  c #DE9637",
"j  c #E18E28",
"k  c #E39527",
"l  c #E08D3E",
"z  c #D8A432",
"x  c #F2A720",
"c  c #E7B52B",
"v  c #EABC2D",
"b  c #F0B42A",
"n  c #F8B329",
"m  c #F5B132",
"M  c #F9C90C",
"N  c #F3C210",
"B  c #EEC238",
"V  c #F5C43B",
"C  c #B38154",
"Z  c #DF9646",
"A  c #C28655",
"S  c #D88D55",
"D  c #D3945E",
"F  c #DD965B",
"G  c #E88C42",
"H  c #EA8D4B",
"J  c #E59445",
"K  c #E89546",
"L  c #E49549",
"P  c #EA954A",
"I  c #E59A4C",
"U  c #EC9A4B",
"Y  c #F09D4E",
"T  c #E18D52",
"R  c #E69B52",
"E  c #EE9E52",
"W  c #E29C5C",
"Q  c #ED9E5E",
"!  c #F39E51",
"~  c #F39C59",
"^  c #F4A04F",
"/  c #EEA153",
"(  c #E7A85B",
")  c #F4A354",
"_  c #F9A557",
"`  c #F5AC54",
"'  c #FBAE56",
"]  c #F4A559",
"[  c #FBA659",
"{  c #F6A95B",
"}  c #FEAD5D",
"|  c #F9B156",
" . c #FCB15A",
".. c #D49D67",
"X. c #E19C62",
"o. c #ECA365",
"O. c #E6A468",
"+. c #EAAA6D",
"@. c #F4A664",
"#. c #FCA760",
"$. c #F4AA63",
"%. c #FFAD61",
"&. c #F4AB69",
"*. c #FEAE69",
"=. c #FFB162",
"-. c #FCB26B",
";. c #F4C645",
":. c #F8D84D",
">. c #F6D350",
",. c #FBD656",
"<. c #F9DB55",
"1. c #F5D558",
"2. c #F4D461",
"3. c #F2D66A",
"4. c #F3DA6F",
"5. c #FDE57F",
"6. c #FAEA7A",
"7. c #FDEC83",
/* pixels */
"C D o.@.#.} } ' } } %.*.*.*.%.%.%.%.%.%.%.} } %.%.%.#.%.%.%.} %.} } %. .%.} } %.%.} } } } } =.} } }  .}  .} } } ' }  .%.*.@.F A ",
"..O.&.#.%.} } } }  .=.%.%.*.*.=.%.%.%.} %.#.%.%.%.} } %.%.} #.%.%.} } } } } } }  .} } %. .} } } } }  .} }  . . .}  .} %.%.*.&.X.",
"+.&.*.%.%.} }  . .%.=.%.%.*.%.%.%.} #.} %.%.%.#.} %.%.%.%.%.%.%.} } } } } } }  .} %.} } %.} } } } } } }  .{ =. . . .} } %.#.@.&.",
"-.-.*.%.%.} } } }  .%.=.%.%.%.=.%.%.%.%.%.} %.} #.%.%.} %.#.} } =.} } } } %.} %.} } } } %.} } } } } '  .}  . .{  .%.} } } } %.%.",
"-.-.%.%.} %.%.%.=.%.} =.%.%.%.%.} %.%.%.#.} %.} %.%.%.} %.#.%.%.%.%.%.} } }  .%.} } } } } } } } } ' ' } } }  .%.%. .} } } [ [ } ",
"-.=.=.%.%.} } } }  .%.%.%.%.%.%.%.#.} %.%.%.%.%.} %.%.%.%.%.%.} }  .} } %.} } } } } } } } } } } } } } }  .} } } =.%.%.%.} [ [ } ",
"=.} } } } _ ) ) [ } } %.%.%.%.%.%.%.} %.} %.#.%.%.} #.} } } %.%.%.} } } =.} %.} _ U Y ) } } =.} } } } } } } } } } } } %.} [ } } ",
"} } } } } ) K U ) } } %.} =.%.%.%.} #.} #.} } %.%.%.%.%.%.%.%.#.} } } } } } } } ) J l ) } =.} %.} } } } } } } } } } %.#.#.} } } ",
"' } } } } _ ! Y Y ! [ } } } } } #.%.} %.} #.} %.%.#.%.%.#.} %.} %.%.} } }  .%.} _ U U U ! ) =.} } #.#.#.#.#.} } } } } %.%.%.%.%.",
"} } } } } } [ ! K P ) } [ [ } } } } #.} %.} %.#.%.%.} %.%.%.%.%.}  .} %.} } %.} } [ ) J l U } } } *.%.#.#.#.} } } } } #.%.#.#.%.",
"} } } } } } } _ U Y _ } } _ [ #.#.%.#.} } } } #.} } %.} } %.%.%.} %.} } %.} } %.} } [ U K )  .%.%.#.*.#.%.%.} } } } } } } %.%.} ",
"} } %.} } %.#.} _ [ } #.[ } } #.} #.} } } } } } } } } } } } } } }  .%.} } } }  . .%.%.' ) } =.%.%.%.#.*.*.%.} } ' } } } %.%.%.} ",
"*.=.$. .} #.#.} } #.%.=.#.{ %.%.} #.} } } } } } } } } } } %.} } } } } %.}  .} %.%.=.=.} } } %.%.%.%.%.%.%.%.%.} } } } %.%.%.} } ",
"%.$.=.=.} } } [ } } %.=.%.} %.} %.} } } } } } } %.} } =.} }  .%.} %.} } } %.%.%.} } } } } }  .%.%.%.*.%.%.%.%.} } } } } #.} }  .",
"-.$.$. .#.} [ [ [ } } =.=.{ { %.} %.} [ [ } } } %.} } } } } } } }  .%.} } } }  .} %.} } } } } %.%.%.%.%.%.%.[ ' ' } } %.}  .} } ",
"%.%.=.%.#.} [ [ } } %.%.%.} } } %.=.{ ^ Y ] %. .} } } } %.%. .} } } %.} } %.} } } } } } } %. .%.%.%.%.%.#.} Y U ) } } } %.} } } ",
"%.%.%.%.} #.[ #.#.} %.#.} } } ' %.=.{ J J )  .} } } } =.} } %.} } } } } %.%.} } } } %. .} %.} } %.} %.%.} _ P g U %.} } } %.} } ",
"%.%.} #.} } } #.} %.} } } } } [ ) / / U ) [ =.} } } } } } } } } } } %.%.}  .} %.} } %.}  .} } } } } } _ ! U U U ) } =.} %. .} } ",
"} #.} } } } } } #.} } } } } [ [ U g J ] } =.%. .} } } } } } } } } =.}  .} } } } } %.} } %.} } } } } %.) J l U } } =.} } } %.} } ",
"%.} %.} } #.} #.#.} } } } } } } ) I ^ ' } } } %. .} } } } }  .%.} } } %.} } } }  .} } %.} } =.} =.} } [ U U )  .} } } } }  .%.} ",
"%.#.#.[ #.} #.#.#.} } } } } } } } } } }  .} } } } } } } } } } } } } } } } } } %.%.%.} } } %.} } } }  .%.} [ } =. .} %.} } } } } ",
"} } #.} } #.%.} #.} } } } } } } %. .=.}  .} } } ' } } ' } } '  .} } %. .} } %. .} } } } } %.} } } =.%.} } } %.=.%.} } } } %. .} ",
"#.} } } } #.} #.} } } } } } } %.} } } } } ' } '  .} ' } ' } } } } } } %.} %.} } } } } %.}  .} } } } %.=.=. .%.} } %.%.} } } %.%.",
"} } } } %.} %.} #.} } [ } } } } } } [ ' } } ' } } } } } } } } } } } } } %. .} %.} } %. .%.} } } } }  .%.} =.} } } }  .} %.} } } ",
"} [ } } } %.} } } } } } } } } } } } } [ [ } ' } } } } } } } } ' }  . .%.} } } } } } } } } %.%.%.} } } %.=.} } %.} } %.} %.} } } ",
"[ } } } %.} } } } } } } } } } } } { } } } ' [ } ' } } ' } } } } } %.} } } %.} } =.} } } %. . .} } %.}  .} %.}  . .%. .} } } } %.",
"} } } } } } } } } } } } } { } } } } } ' ' } ' } } } } } L * 5 k 3.( } %.} } =.} } } } } } } %.}  .%.} %.} } } } %.} } } } %. .%.",
"} } } } } } } [ } [ } } } } } } } } } } [ } } } } } ' } j 0 r m z I } } } } } } } } %.%.} } } } %.} } } } } %.} } } %.} } } } } ",
"} } } } } } } } } } } } } [ } } } } ' } } [ ' } ' } } } 8 x n ;.t h } } %.%.} } } } }  .} } } } } } } %. .%.%.} } } =.} } %.%.} ",
"} } } } } } } } } } } } } } } [ } [ } } } ' } } } } } ' s V ,.2.N k } } }  .%.} } } %.}  .%.} } } } %. .} } } } } } } } }  .} } ",
"} } } } } } } } } [ } } } } } } } } } } } [ } ' } } } ) v :.6.4.M 9 } } %.%.} } } } } } %.} %.} } } } } } } } %.} } } } } %.} } ",
"} } } } } } } } } } } } } } } } } } } ' ' } } } ' } } ) v <.7.3.M 8 } } }  .} } =.} } } %.} %. .} } %.} %.} }  .} %.} %.}  .} %.",
"} } } } } } [ } } } } } ' } } } ' } [ } } } } } } } } / c >.5.1.i 7 } } } } } %.%.} } %.} } %.} } %.} }  .%.} } } }  .%.} %.} } ",
"} } } } } } } } } } } [ } } } [ } } } ' } [ ' ' } } } / a B 1.;.u 7 } %.} } } } %. .} } %. . .%.} }  .} } %.} %.} } } %.} } } } ",
"} } } } } } } } } } } ' } [ ' } } ' } } ' } } } } }  ./ , p d b y 7 } } } } } } } } } } } } } } } } %.} } } } } =.} } } } }  .%.",
"} } [ } } } } } } [ } } ' } } } } [ ' } [ } } ' } ' } / ; > 2 x e 0 } } } %.%. .} } %.} } %.} } } } } %.} } } =.} } } } } } } %.",
"} } } } } [ } } } } ' } ' } } ' } } } ' } } ' } } } } ' % ; : q w 9 } } } }  .%.} } %.%. .} } } %. .} } } } } } } }  .} %.%.} } ",
"} } } } } } } } } } [ } } } [ } } ' } [ [ } } }  .} } ' + & ; 6 4 f %.} } %.} } } } }  .%.%.} } } %.%.%.%.} } } %.} %.%.}  .} %.",
"} } } } } } } } } } } ' } ' } ' ' } } } } ' } ' } } } } # + + < 3 g } }  .} } %.%.} } } } } } %.} %.}  .} %.} } } } } } } } } } ",
"} } } } } } } [ } } } } } ' } } } [ } ' } ' } } } ' } } $ o O @ q Z } %.%.} } } %. .} } %.} } } } } } } }  .} %.} } } } } =.} } ",
"} } } } } } } [ } } [ ' } } } } } ' } } ' } ' } } } } } R .   X 1 E } } } } %.%.} } } } } } } } } #.} } } #.} #. .%.} } #.} %.} ",
"[ } } [ } ' } } } } } } [ ' } =.} } } } _ _ ! '  .} } } } } } } } } } } } } }  .} _ ) [ } } %.} } } } } } } } } } %.} } } } } } ",
"} } } } [ ' } } } ' } } } ' } =.=.=.} [ ^ U U ) %.} } %.} } } %.} } } } } } } } [ Y U ) [ ' } } =.} } } } } } } } } } } } } }  .",
"} ' ' } } } } ' } [ ' ' } } } =.%.=.' ) Y U P ) } } } %.} }  .} } =.} } } =.} } ' Y U Y ) [ } } } } } } } } } [ } } } } } } %.%.",
"' } } [ } } ' [ } ' } } } } ' } %. .) U P Y _ ' %.} }  .} } } %.} } } }  .%.} %.[ ] ) U J ) [ [ [ ' } } } } [ } } } } } }  .%.} ",
"[ } ' } ' } } } } ' [ } } } } [ } } ) P U ) } } } } } } =.} } } } } } } } %.} } } } [ U J U } [ [ [ } } } } } } } } } } %.} %.} ",
"} } ' } } } } ' [ } } } ' } } ' } } [ ) ) } %.} } } } } } } } } %.%.} %.} } %.%.} } } ) ) ) } ' [ [ } } } } } } } } } } } =.} } ",
"} } } } } [ } } } } ' ' [ } [ [ } %.=. .=.=.=.=.%. .%.} } } %. .}  .} } } } }  .} =.} } } } =.} ' [ [ } } } [ } } } } } } } } } ",
"} } } } } [ } } ' [ } ' } } [ { } } } } %.=.=.} } } } %.} } } } } } %.} } %.} } } } } ' } } %.} } _ } #.} %.} } } } } } } %.} } ",
"} } } } } ' ' } } } } } } } [ _ } } } } } } } } } } %. .} } } %.} } } } }  .%.} } [ _ { [ } =.} } } } %.} #.} } } } } } } #.%.%.",
"=.%.} } } } ' [ Y ) [ =.%.} } ' } } } } } } } } } %.} } } } } } %. .%.} } } } } } [ [ [ [ } #.} } } } $.%.%._ ! ~ } } } } %.%.%.",
"=.=.} } } } } ! K U { =.$.{ %.%.} } =.=.} =.} =. .%. .%.=.} =.} %.%. .%.} =.=.} } } } } } } } } } } } -.=.*.~ J Y } } [ } #.#.=.",
"%.=.=.=.=.} } ! U U / ] { $.} %.=.} } } } } } =.%.%.} =.} } =.}  . .%.%.} =.} } } } } } } } } } { %.$.{ { ] E U ) %.%.%.} #.%.-.",
"%.%.%.=.=.} } [ ) E L L / } } =.%.%.=.} =.=.} }  .%.} =.} =.} } %.%.} =.} =.} } } } } } } } } } } $.} ] R L / ] } %.%.%.*.%.*.%.",
"%.%.%.=.=.} } } %.) L Z / { } %.%. .} =.} } =.} %.%.%.%.} } =.=.} } } =.%.%. .%.} } %.} } } } } } { } ( I Z ) %.%.%.%.%.%.*.=.*.",
"%.%. .} } } } } #.} ) ) { } } %.} =.} } } =.} } %. . .%.=.} } } =.=.} }  .%.%.} } } } } } ' } } } } | { ` ) { =.=.#.%.%.*.%.*.*.",
"} } } } #.[ } #.#.%.} } } } } } =.} %.%.} =.%.=.} } %.%.} } } =.} } =.} } } =.} } } } } } } } } }  . .|  . . .=.%.%.%.%.%.%.*.*.",
"U _ ' } } } [ [ } } } } ' '  . .} %. .%.} } %. .=.=.}  .=.=.} } } =.} } =.} } } %.} } } } } } [ '  .| |  . . .%.} #.#.%.%.%.#.~ ",
"G Y } } } } [ #.} [ [ ' '  .}  .%. .%.} =.%. .%.}  .%.%.} } =.} } } =.=.} } =.} } } } } } } } } } ' | | | | ' } #.#.%.} } *.~ H ",
"H ! [ } [ } #.[ } [ ' ' '  . .}  .%.} } } } %.%.%.%. .%.%.=.%.%.=.} } } =.=.} } %. .} %.} } } } }  . . .| | } %.%.#.%.} } #.[ H ",
"H ~ [ } } } } #.} } ' | | | | ' } %.} %.} %.} %.%.%.=.%.} %.=. .=.%.%.} } } } =.%.%.} } } } } } } }  . .' } } #.%.#.#.} } [ ~ P ",
"T ~ } } } } } } } } '  .| |  .} } %.%.%.%.%.%.%.=.%.=.%.=.%.%.%.} %. .=.} =.} }  .} } } } } } } }  . .' [ } #.%.*.#.#.[ } [ ] S ",
"S Q #.#.} } } } } [ ' | | |  .} } %.} %.%.} %.%.%.=.%.%.=.%.%.%.%. .} } =.} =.} } } } } }  .} } } } ' } } } #.*.#.*.#.} } { Q S ",
"= F -.%.[ } } } } } ' | ' | ' } } %.%.%.#.%.} %.%.%.%.=.%.%.=.=.%.%.=.} } } =.} =.} %.} } } } } } } ' } } } } #.#.#.#.} { #.W - "
};
