/* XPM */
static char *result[] = {
/* columns rows colors chars-per-pixel */
"64 64 143 2 ",
"   c #DF7F1E",
".  c #B47446",
"X  c #BA7A47",
"o  c #D69B0D",
"O  c #DF861B",
"+  c #DE8D18",
"@  c #D09315",
"#  c #E4950F",
"$  c #EB930D",
"%  c #E49A0A",
"&  c #F49C0C",
"*  c #E68A17",
"=  c #E98C15",
"-  c #E58519",
";  c #EE9113",
":  c #EA9A12",
">  c #E29E18",
",  c #EB9E1B",
"<  c #F29611",
"1  c #DFA40E",
"2  c #EDA706",
"3  c #E2A10A",
"4  c #EFA208",
"5  c #E8AA0A",
"6  c #F6A20A",
"7  c #F8A60C",
"8  c #F7AA0B",
"9  c #F8AE0B",
"0  c #E6B10C",
"q  c #E6B90C",
"w  c #F9B30C",
"e  c #F6BC0C",
"r  c #FABD0E",
"t  c #ECA01A",
"y  c #EDAA1D",
"u  c #F4AE1E",
"i  c #F8B31E",
"p  c #DE8E28",
"a  c #DC9326",
"s  c #DE8C3D",
"d  c #E28621",
"f  c #E79524",
"g  c #E69921",
"h  c #E0982B",
"j  c #E08D3E",
"k  c #ECAC2D",
"l  c #F1AD24",
"z  c #E7B22B",
"x  c #EBB429",
"c  c #F5B624",
"v  c #E7A336",
"b  c #E8A730",
"n  c #E3A53F",
"m  c #E6B534",
"M  c #F2BE33",
"N  c #F2BE3A",
"B  c #FBC60E",
"V  c #F6CB0F",
"C  c #FCD00F",
"Z  c #ECC410",
"A  c #FBCB11",
"S  c #F4D211",
"D  c #FBD412",
"F  c #FBDC14",
"G  c #FCE215",
"H  c #EDC13E",
"J  c #F9C435",
"K  c #B38154",
"L  c #CE8E42",
"P  c #DF9F45",
"I  c #C28655",
"U  c #D88D55",
"Y  c #D3945E",
"T  c #DD965B",
"R  c #EA8D4B",
"E  c #E59445",
"W  c #E89546",
"Q  c #E49549",
"!  c #EA954A",
"~  c #E49B4C",
"^  c #EC9A4B",
"/  c #F09D4E",
"(  c #E18D52",
")  c #EE9E52",
"_  c #E29C5C",
"`  c #ED9E5E",
"'  c #F39E51",
"]  c #F39C59",
"[  c #DFB545",
"{  c #EAA64C",
"}  c #EAAC48",
"|  c #F4A04F",
" . c #E7BD44",
".. c #E8B348",
"X. c #F3B542",
"o. c #E7A253",
"O. c #EFA255",
"+. c #EDA55A",
"@. c #F5A354",
"#. c #F9A557",
"$. c #F5AC54",
"%. c #FBAE56",
"&. c #F3A559",
"*. c #FBA659",
"=. c #F5AA5C",
"-. c #FEAD5D",
";. c #F9B156",
":. c #FCB15A",
">. c #D49D67",
",. c #E19C62",
"<. c #ECA365",
"1. c #E6A468",
"2. c #EAAA6D",
"3. c #F4A664",
"4. c #FCA760",
"5. c #F4AA63",
"6. c #FFAD61",
"7. c #F4AB69",
"8. c #FEAE69",
"9. c #ECB465",
"0. c #EEBB6C",
"q. c #FFB162",
"w. c #F6BC65",
"e. c #F1B668",
"r. c #FCB26B",
"t. c #F5C943",
"y. c #F9CD44",
"u. c #F2C74F",
"i. c #EFCB51",
"p. c #E4C359",
"a. c #FACE53",
"s. c #EFD06E",
"d. c #F2D765",
"f. c #FADE6C",
"g. c #F3D77E",
"h. c #F7DB7E",
"j. c #FDE36C",
"k. c #F9E271",
"l. c #FCE67A",
"z. c #FBE87C",
"x. c #F6DB86",
"c. c #FCEB8A",
"v. c #FDF2A1",
/* pixels */
"K Y <.3.4.-.-.%.-.-.6.8.8.8.6.6.6.6.6.6.6.-.4.6.6.6.6.-.6.-.6.-.6.-.6.6.-.-.-.6.6.-.-.6.-.6.-.-.-.-.-.-.:.-.-.-.;.-.:.q.6.3.,.I ",
">.1.7.4.6.-.-.-.-.:.q.6.6.8.8.q.6.4.-.6.6.6.-.6.6.-.6.6.6.4.6.6.-.-.:.-.-.-.:.-.-.-.-.:.-.-.-.6.6.:.-.:.-.-.;.:.:.-.-.6.6.7.3.,.",
"2.7.8.6.6.-.-.:.:.6.q.6.6.8.6.6.6.6.6.-.6.6.6.6.-.6.4.6.6.-.6.6.6.-.6.-.-.-.6.-.-.-.-.-.-.6.-.-.-.-.-.:.-.;.:.:.:.6.-.-.4.6.7.5.",
"r.r.8.6.6.-.-.-.-.:.q.6.6.6.6.q.-.6.6.6.-.4.-.6.6.6.6.-.6.6.-.6.-.-.-.-.-.6.-.-.6.:.6.-.-.-.:.-.-.-.%.-.;.-.q.=.6.:.-.-.-.-.6.6.",
"r.r.6.6.-.6.6.6.6.q.-.q.6.6.6.6.6.4.6.6.6.-.6.4.6.4.6.-.6.6.-.4.6.-.6.:.-.6.-.-.-.-.-.-.-.-.6.:.-.:.-.%.-.-.:.q.q.:.-.-.-.-.*.-.",
"r.q.q.6.6.-.-.-.-.:.6.6.6.6.6.6.6.-.-.6.6.6.6.-.-.6.6.6.6.-.6.6.-.-.6.-.:.6.-.-.-.-.-.-.6.-.-.-.%.-.-.-.-.-.-.-.6.6.6.-.-.*.*.*.",
"q.-.-.-.-.#.@.@.-.-.6.6.6.6.6.6.6.6.-.6.-.-.6.6.6.6.6.4.4.-.6.-.6.-.-.-.-.-.-.6.#.^ / @.-.-.-.-.-.-.-.-.-.-.-.-.-.-.6.q.-.-.*.-.",
"-.-.-.-.-.@.W ^ #.#.-.-.-.q.6.6.6.-.4.-.4.4.-.6.6.-.6.-.6.6.6.6.:.-.-.6.-.6.:.-.@.j E | -.q.6.-.-.-.-.-.-.-.-.-.-.-.-.4.4.-.6.4.",
"-.-.-.-.-.#.' / / ' *.-.-.-.-.4.6.-.4.-.4.6.4.6.-.6.-.6.4.6.6.6.6.-.-.6.-.-.-.-.-.^ W ^ / #.:.6.-.-.4.4.4.4.-.-.-.-.-.6.6.4.6.6.",
"%.-.-.-.-.-.*.' W ! ' -.*.*.-.-.-.4.-.6.-.-.-.6.4.6.6.6.6.6.-.6.6.-.-.-.6.:.6.-.-.%.@.W j / 6.-.4.4.8.4.4.4.-.-.-.-.-.4.6.6.4.6.",
"-.-.-.-.-.-.-.#.^ / #.-.-.*.-.-.6.-.4.-.-.-.-.4.-.6.-.6.-.-.6.-.-.-.-.-.6.-.-.6.-.-.#.^ E @.q.-.-.4.8.8.6.6.-.-.-.%.-.-.-.6.6.-.",
"6.-.6.:.-.4.4.-.#.*.-.4.-.#.-.4.-.4.-.-.-.-.4.-.-.-.-.6.-.-.-.-.-.6.6.:.-.-.-.6.6.-.-.-.@.-.-.6.6.4.6.6.8.6.-.-.-.-.-.-.6.6.6.-.",
"6.q.:.6.-.4.6.-.-.-.q.q.4.-.-.4.4.4.-.-.-.-.-.-.-.6.:.6.-.:.6.-.-.-.:.6.6.-.-.:.-.6.6.-.-.q.q.-.6.6.6.6.6.6.6.-.-.-.-.6.6.6.-.-.",
"r.5.5.6.-.-.-.*.*.-.6.q.6.=.-.6.-.-.-.-.-.-.-.-.-.-.-.-.-.-.-.6.-.6.-.-.-.-.6.-.-.-.-.-.-.-.-.q.6.6.6.8.6.6.6.-.-.-.-.-.6.-.-.-.",
"r.5.q.:.4.-.*.*.*.-.6.q.q.=.5.-.-.6.-.-.-.-.-.-.:.-.-.-.-.6.6.:.:.-.-.-.-.-.:.-.-.6.-.-.-.-.-.-.6.6.6.6.6.6.*.%.%.-.-.6.-.-.-.-.",
"6.q.5.6.4.4.*.*.-.-.6.6.-.-.-.-.6.q.=.^ / @.6.-.6.-.-.6.-.-.-.6.6.-.6.-.-.6.6.-.-.-.:.6.-.-.-.6.6.6.6.6.4.-./ ^ @.-.-.:.-.-.-.-.",
"6.-.6.-.-.4.-.4.4.6.-.4.-.-.-.-.-.q.&.E W @.-.-.-.-.-.-.-.-.-.-.:.6.-.-.-.-.:.6.-.-.-.-.6.:.-.-.6.-.6.-.-.#.! s ^ 6.6.-.-.6.-.-.",
"6.6.6.4.-.-.-.-.-.4.-.-.-.-.-.#.@.) ) ^ @.-.-.-.-.-.:.6.-.6.-.-.6.-.-.-.-.-.6.-.-.6.-.6.6.-.-.6.6.-.6.#.' ^ ^ ^ @.-.6.:.6.:.-.-.",
"6.-.4.-.*.-.-.-.4.-.-.-.-.-.-.-.^ s E @.-.6.q.-.-.-.-.-.-.:.6.-.-.-.-.6.6.-.-.-.-.:.-.:.-.-.-.-.-.-.-.@.E j ^ -.-.q.-.-.-.6.-.-.",
"-.6.-.-.4.4.-.4.-.-.-.-.-.-.-.#.O.^ { -.q.-.:.-.-.:.-.-.-.-.-.-.-.-.6.:.-.-.-.6.6.6.6.-.-.-.-.6.-.-.-.-.^ ^ @.-.-.-.-.-.-.:.6.-.",
"4.4.4.*.4.-.-.4.-.-.-.-.-.-.-.-.-.-.-.-.:.-.-.-.-.-.-.-.-.-.-.-.-.6.:.6.-.-.:.-.-.-.-.6.-.-.-.:.-.6.-.-.-.-.-.q.:.-.6.-.-.-.-.-.",
"6.-.-.-.4.6.4.-.6.4.6.-.-.-.-.-.6.q.:.-.:.-.-.-.-.%.%.-.-.-.%.-.-.-.-.-.6.-.6.-.-.-.:.-.-.-.6.-.-.6.6.q.-.-.:.q.6.-.-.-.-.6.6.:.",
"-.-.-.-.4.-.6.-.*.4.-.-.-.-.6.-.-.-.-.-.-.%.%.-.-.-.-.%.%.-.-.:.:.-.-.-.-.-.6.:.-.-.6.-.6.6.-.-.-.-.q.6.-.q.-.-.-.6.-.-.-.-.-.6.",
"-.-.-.-.6.6.4.-.-.-.-.-.-.-.-.-.-.-.-.*.%.-.%.-.:.-.-.-.-.-.-.-.-.-.-.6.-.-.6.-.-.6.-.-.:.-.-.6.-.-.-.:.q.-.-.-.-.-.6.:.6.-.-.-.",
"*.-.#.4.-.6.-.-.-.-.-.-.#.-.6.-.-.-.-.-.-.*.%.-.-.-.-.-.-.-.-.%.-.6.-.-.-.-.6.-.-.-.-.-.-.:.-.-.6.:.-.6.-.q.-.-.-.-.-.-.-.-.-.-.",
"-.-.-.-.-.-.-.-.-.-.-.-.-.-.-.-.-.=.-.%.-.%.*.-.%.-.-.%.-.-.-.-.-.-.-.-.-.-.6.:.-.6.6.-.-.6.-.6.6.-.-.-.-.-.-.6.6.:.6.:.6.-.6.:.",
"-.-.-.-.-.-.-.-.-.-.-.-.-.-.-.-.-.-.-.-.*.-.%.-.-.-.-.9.h.k.i.N H t.a.w.6.-.-.-.6.:.-.-.6.-.-.:.-.-.6.-.-.-.:.6.6.-.-.-.6.-.6.-.",
"-.-.-.-.-.-.-.-.-.-.#.-.-.-.-.-.-.*.-.%.%.-.-.-.-.=.x.z.p.@ o 1 3 % > J u.6.6.-.-.-.-.6.-.-.-.6.-.-.:.-.-.6.-.-.-.-.-.6.-.-.-.-.",
"-.-.-.-.-.-.-.-.-.-.-.-.-.-.-.*.-.-.-.%.*.-.%.-.-.g.z.[ o q V S V e 2 # c X.-.-.-.-.-.-.-.-.:.6.6.:.6.-.-.-.-.-.-.6.-.6.:.-.6.-.",
"-.-.-.-.-.-.-.-.-.-.-.-.-.-.-.-.-.-.-.%.-.-.-.-.g.c.[ o Z F G F C B w 4 # c { -.6.-.:.6.-.-.6.-.-.-.6.-.6.:.6.-.-.-.-.:.6.-.-.-.",
"-.-.-.-.-.-.-.-.-.-.*.-.*.-.-.-.-.*.-.-.%.*.-.&.v.d.@ Z F G F D B r 9 7 & y k #.-.-.6.-.6.-.-.-.-.q.-.-.6.-.-.-.-.-.6.-.-.-.-.-.",
"-.-.-.-.-.-.-.-.-.-.-.-.-.-.-.-.-.-.-.-.-.-.%.e.c. .1 S G F D V r 9 6 & & ; u =.-.6.:.-.-.-.-.-.-.-.-.-.-.-.-.6.6.:.-.-.-.-.-.q.",
"-.-.-.-.-.-.-.-.-.-.-.-.*.-.%.-.-.-.-.%.%.-.-.0.l.m 0 D F D A B w 7 & & < $ u &.:.6.-.6.-.-.:.6.-.-.-.-.:.6.6.-.-.-.:.6.6.-.-.6.",
"-.-.-.-.-.-.-.-.%.-.-.-.-.-.-.-.-.-.*.-.-.-.%.0.j.z 0 D D A r w 7 6 & < = = l O.-.6.-.-.-.-.-.-.6.-.-.6.-.-.-.-.-.6.-.-.-.-.-.-.",
"-.-.-.-.-.-.*.-.*.-.-.-.-.%.-.-.%.-.-.-.-.%.-.9.f.x 5 A B r w 7 6 & < < * O y &.-.-.-.6.:.-.-.-.-.6.:.6.-.-.-.6.:.-.-.-.-.-.-.:.",
"-.-.-.-.-.*.-.-.-.-.*.%.-.-.*.%.%.-.*.%.-.-.-.+.f.M % r r 9 7 & & < ; = - v , &.-.-.6.:.6.-.-.6.-.-.-.-.6.-.-.:.6.-.6.-.-.6.-.6.",
"-.-.-.-.-.-.-.-.-.-.-.*.*.-.-.-.*.%.-.-.*.-.-.#.s.y.% 4 8 7 6 & < ; = - d b p -.-.-.6.-.-.-.-.-.-.-.-.-.-.6.6.-.-.-.6.-.-.:.6.-.",
"-.-.-.-.-.-.-.-.-.-.-.%.-.%.%.-.-.-.*.%.%.-.%.-.o.u.J % & 6 & < ; * -   P g &.-.-.-.-.-.-.6.-.-.6.:.6.:.-.-.-.-.-.6.:.-.-.6.-.-.",
"-.-.-.-.-.*.-.-.-.-.-.-.-.-.-.-.%.-.-.-.%.-.-.-.-.o.N c : $ < ; = - p n } ) -.-.:.6.-.-.:.6.6.-.6.-.-.-.-.6.6.-.-.6.-.-.6.:.-.6.",
"-.-.-.-.-.-.-.-.-.*.-.%.%.-.%.-.*.-.%.-.-.-.%.-.%.-.L k c i , + a ..k = Q -.-.-.6.-.-.-.6.-.-.-.-.-.-.6.-.:.-.-.-.-.-.6.-.-.-.-.",
"-.-.-.-.-.-.-.*.-.-.-.%.*.-.-.-.-.-.-.%.*.-.-.-.-.-.-.+.~ h t t : f ^ =.-.-.-.6.:.-.-.6.-.-.-.-.-.4.-.-.-.4.-.-.-.:.-.-.-.-.-.-.",
"*.-.-.-.-.-.-.-.-.-.%.-.-.-.-.:.-.-.-.%.#.#.| #.-.-.-.-.-.:.-.-.-.-.-.4.6.-.-.-.-.#.@.-.-.-.-.-.-.-.-.-.-.-.-.-.-.6.-.4.6.-.-.6.",
"-.-.-.-.-.-.%.-.-.*.%.*.%.-.-.q.:.q.-.-.| ^ ^ @.6.-.-.-.-.-.-.-.:.-.-.-.:.6.6.-.#.^ ^ @.#.-.-.6.6.-.-.-.-.-.-.-.-.-.-.-.-.6.-.:.",
"-.%.%.*.%.-.*.%.%.-.-.-.-.-.-.q.q.q.-.@./ ^ ^ @.:.-.6.-.-.-.:.-.6.-.6.-.-.-.-.-.%./ ^ / @.#.-.-.-.-.-.-.-.-.-.*.-.-.-.-.-.-.-.6.",
"%.-.-.-.-.*.-.-.*.-.-.-.%.-.-.-.-.-.@.^ W / #.%.-.:.6.-.-.6.-.-.-.6.6.-.-.-.-.-.*.#.@.W E @.-.#.-.-.#.-.-.-.-.-.-.-.-.6.-.q.-.-.",
"*.-.%.*.-.%.-.%.%.-.-.%.*.-.-.-.-.-.@.E ^ @.-.-.-.-.6.-.-.6.:.-.-.-.-.-.6.:.6.:.6.-.-.^ E ^ #.%.@.-.-.-.-.*.-.-.-.-.-.-.-.-.-.-.",
"-.-.-.%.-.-.-.%.%.-.*.%.-.-.#.#.-.-.-.@.@.-.6.-.6.-.6.:.-.-.-.6.-.6.:.-.-.-.-.6.-.-.-.@.@.@.-.-.-.#.-.-.-.-.-.-.-.-.-.-.-.6.-.-.",
"-.-.-.-.-.-.-.*.-.-.-.-.-.%.%.-.-.6.q.:.q.q.q.q.-.-.-.-.6.-.-.-.-.-.6.-.6.-.-.-.-.6.-.-.-.-.q.-.#.#.-.-.-.-.-.-.-.*.-.-.-.:.6.-.",
"-.-.-.-.-.-.%.%.*.-.-.-.-.-.%.#.-.-.-.-.-.q.q.-.-.-.6.:.-.-.6.-.6.:.-.6.-.-.-.q.-.-.-.#.-.-.6.-.-.#.-.-.-.-.-.-.-.-.-.-.-.6.-.-.",
"-.-.-.-.-.-.*.-.-.-.-.-.=.-.-.#.-.-.-.-.-.-.-.-.-.-.-.6.-.-.:.6.-.-.-.-.-.-.-.-.-.-.@.-.=.-.6.-.-.-.-.-.6.4.-.-.-.-.-.-.-.4.6.6.",
"6.6.-.-.-.-.%.*./ @.-.-.6.=.-.-.-.6.-.-.-.-.-.-.-.6.-.-.-.-.-.-.6.-.-.-.-.6.-.-.-.#.#.#.-.-.-.-.-.-.4.6.6.6.*.' ] -.-.-.-.6.6.6.",
"q.q.-.-.-.-.%./ W ^ =.q.6.-.=.-.-.-.q.q.-.q.-.q.:.6.:.6.-.q.-.q.q.-.-.q.6.:.-.-.-.-.-.-.-.-.-.-.=.6.6.5.r.8.) E / -.-.*.-.4.4.q.",
"q.6.q.q.6.-.*.@.! ~ ) &.=.=.6.6.q.-.-.-.-.-.-.q.6.6.q.-.-.q.-.-.-.6.6.:.q.-.-.-.-.-.-.-.-.-.-.-.6.6.=.5.=.&.) ! @.6.6.6.-.6.6.8.",
"6.6.6.q.q.-.-.-.#.) ! Q O.=.-.6.6.6.q.-.q.q.-.-.-.q.-.-.-.-.q.-.6.:.6.6.6.6.q.-.-.-.-.-.-.#.-.-.6.=.-.+.~ Q ) *.-.6.6.6.6.6.8.8.",
"6.6.6.q.q.-.-.4.-.@.Q P O.=.6.6.6.:.-.q.-.-.q.-.-.-.q.q.q.q.-.-.q.6.:.6.6.:.-.6.-.-.-.-.-.-.-.-.-.=.:.+.~ Q O.6.6.6.6.6.6.r.8.8.",
"6.q.-.:.:.6.-.-.4.-.@.O.#.-.-.6.6.6.:.-.-.q.-.-.q.-.-.-.-.-.-.q.-.6.:.6.6.:.6.-.-.-.-.-.-.-.-.-.-.-.:.=.#.$.=.:.q.4.6.6.6.6.8.8.",
"-.-.-.-.-.-.*.4.4.6.-.-.-.%.-.-.-.q.-.-.:.6.-.q.6.:.:.6.q.-.-.-.-.q.-.-.q.q.-.-.-.-.-.-.-.-.-.-.-.;.:.:.:.:.:.q.6.4.6.6.6.6.8.8.",
"/ @.-.-.-.4.*.4.-.-.-.-.%.-.:.:.6.6.-.q.6.6.-.q.6.6.6.6.-.-.q.q.-.-.q.-.-.-.q.-.-.6.-.-.-.-.-.-.-.:.;.;.:.:.-.:.-.6.4.6.6.6.4.] ",
"j ' -.*.-.*.*.*.-.*.*.%.%.:.-.:.6.:.-.q.:.-.q.-.q.-.6.:.-.q.-.-.q.q.-.-.q.-.-.-.:.6.-.-.-.-.-.-.;.:.:.;.;.;.=.-.4.4.6.-.4.6.] R ",
"R ' *.-.-.-.-.-.-.*.%.%.%.;.:.-.:.6.-.-.6.6.-.6.:.6.-.q.-.6.q.-.-.-.-.q.-.-.q.-.-.-.-.6.-.-.-.-.-.-.;.;.;.;.-.6.6.4.6.-.6.4.*.R ",
"R ' *.-.-.-.*.4.-.-.%.%.;.;.;.-.:.6.6.4.-.6.6.6.6.6.6.6.6.q.-.6.6.:.:.6.-.-.q.-.:.6.-.-.-.-.:.-.-.:.;.;.-.-.-.4.8.6.4.4.-.*.&.! ",
"( ] -.-.-.-.4.4.-.-.;.;.;.;.;.:.-.6.6.6.4.6.-.6.6.q.6.q.6.q.6.q.6.6.6.6.q.-.q.-.6.-.-.-.-.-.-.-.:.-.-.-.-.-.-.4.4.6.4.*.-.*.] U ",
"U ` 4.4.-.-.-.-.-.-.:.;.;.;.-.-.-.6.6.6.6.6.6.6.6.6.6.q.6.6.q.6.q.-.:.6.-.q.-.-.-.-.-.-.-.-.-.-.-.%.-.%.-.-.4.8.8.4.-.*.#.-.+.U ",
". T r.6.*.-.-.-.-.%.%.%.%.:.;.-.-.4.-.6.-.6.-.6.q.q.6.6.q.6.-.6.q.6.-.q.-.-.-.q.q.-.-.-.q.-.-.-.-.-.-.%.*.-.-.4.4.4.-.-.4.7._ X "
};
