/* XPM */
static char *result[] = {
/* columns rows colors chars-per-pixel */
"64 64 98 2 ",
"   c #8C4905",
".  c #A25705",
"X  c #A45802",
"o  c #B86505",
"O  c #BC6801",
"+  c #B16C28",
"@  c #C16D04",
"#  c #C97306",
"$  c #CF7801",
"%  c #D47D01",
"&  c #CB7E24",
"*  c #B47446",
"=  c #BA7A47",
"-  c #D38007",
";  c #D88503",
":  c #DC8B02",
">  c #D88B09",
",  c #DE9304",
"<  c #DF9B11",
"1  c #E39805",
"2  c #E28C1C",
"3  c #E69019",
"4  c #ED9719",
"5  c #F49E1B",
"6  c #E5A615",
"7  c #EAB11F",
"8  c #D98A27",
"9  c #DE8C3D",
"0  c #E09427",
"q  c #E49C29",
"w  c #E08D3E",
"e  c #E7953B",
"r  c #F1AA22",
"t  c #EBB123",
"y  c #EABA2D",
"u  c #F6B429",
"i  c #ECAC3F",
"p  c #F0A23A",
"a  c #F1C234",
"s  c #F2C43E",
"d  c #B38154",
"f  c #C28655",
"g  c #D88D55",
"h  c #D3945E",
"j  c #DD965B",
"k  c #E88C42",
"l  c #EA8D4B",
"z  c #E59445",
"x  c #E89546",
"c  c #E49549",
"v  c #EA954A",
"b  c #E6994C",
"n  c #EC9A4B",
"m  c #F09D4E",
"M  c #E18D52",
"N  c #ED9E52",
"B  c #E29C5C",
"V  c #ED9E5E",
"C  c #F39E51",
"Z  c #F39C59",
"A  c #F4A04F",
"S  c #F0B247",
"D  c #EEA256",
"F  c #EDA15C",
"G  c #F4A354",
"H  c #F9A557",
"J  c #F5AC54",
"K  c #FBAE56",
"L  c #F3A559",
"P  c #FBA659",
"I  c #F4A95A",
"U  c #FEAD5D",
"Y  c #F9B156",
"T  c #FCB15A",
"R  c #D49D67",
"E  c #E19C62",
"W  c #ECA365",
"Q  c #E6A468",
"!  c #EAAA6D",
"~  c #F4A664",
"^  c #FCA760",
"/  c #F4AA63",
"(  c #FFAD61",
")  c #F4AB69",
"_  c #FEAE69",
"`  c #FFB162",
"'  c #FCB26B",
"]  c #F6D954",
"[  c #F6D55A",
"{  c #F9D75C",
"}  c #F7DB5D",
"|  c #F1C76E",
" . c #F4C96B",
".. c #F7D387",
"X. c #F6D38E",
"o. c #FBE786",
"O. c #FCEA81",
"+. c #FCED8B",
/* pixels */
"d h W ~ ( U U K U U ` _ _ _ ( ( ( ( ^ ( U ( ( P ( ( ( ( ^ ( U ( U U U U U ( U U U U U ( U U U ( U U T U U U T T U U T ` ( ~ E f ",
"R Q ) ^ ( U U U U U ( ( ( _ ' ( ( U ( ( U ( ( U ( ( U ( ( ( ( ( ( U ( U U U U U ( U U U U U U U U U U T T U U Y T U U ` ( _ ~ R ",
"! ) _ ( ( U U T U U ` ` ` _ ( ( ( ( ( ( ( ( U ( ( ( ( ^ ( U ( ( U ( U U U U U ( U U U U U U U ( U U U T T U ` I T U U U ( ( ( ~ ",
"' ' _ ( ( U U U T T ( ( ( ( ( ( ( ( U ( ( ^ ( ( ( U ( ( ( ( ( P U U U U ( ( T U U U U U ( U U T U K U U U T T T U T I U P ( ( ( ",
"' ' ( ( U ( ( ( T ` ( ` ( ( ( ( ( U ^ U ( U ( U U ( ( ( U ( ( ( U ( U U U U U ( U U U U U U U U U K K U U U T ( ` I U U U P U ( ",
"' ` ` ( ( U U U ( U ( U ( ( ( ( ( ( ( ( ( ( ( ( P ( ^ ( U ( ( U ` U U U U U ( T U U U U T U ( U U U U U U T ` I ` ( ( ( P P H U ",
"` U U U U H G G U U ( ( ( ( ( ( ( ( ( ( P ( ( ^ ( ( ( U ( ( U ( U U U ( U U U U H N m L ( U ( U U U U U U U U U U U U ( ( P P U ",
"U U U U U G x n H H U ( T ( ( ( ( ( P ( P ( ( ( ( ( ( ( ( ^ ( ( ( U ( T U ( U U G e w G U ( T U U U U U U U U U U U ( U ( ^ ( U ",
"U U U U U H m m m C P U U U U ( ( ( ( ( ( P ( ( ( ( ( U ( ( ( ( U U U T U ( U U H n v n m L U U ( ^ ( ^ ^ ( U U U U U ( ( ( ^ ( ",
"K U U U U U P C x v H P P P U ^ P ( P ( ( ( P ( ^ U ( ( U ( U ( ( U U ( U U T ( U U G z w m U U ( _ ^ ^ ( ^ U U U U U U ( ( ( ( ",
"U U U U U U ( H n m H P P H P ( ( ( ^ U U P ( U U ( ( ( U ( ( U U U U ( U U U U U U P n x G T ( ( ( ^ _ ^ ( U U U U U U ( ^ ( U ",
"( U ( U U ( ( U H P U ( ( U P U P ( U U U U U ( U U U U U U U ( ` U U U ( ( T U ` ( U K L U ( ( ( ( ( ^ _ ( U U U K U U U ( ( U ",
"( ( T / U U ( U U U ( ` ( ( I ( ( U U U U U U U U U U ( U U U T U U U U U U ( ( U U U U U ` T ( U ( ( ^ ( ( ( U U U U U ( ( U U ",
") ` ` ` ( ( P P P U ( ` ( I U ( ( I U U U U U U U U U U U ( ( U U U ( U ` U T U U U ( U U U U ` ( ( ( _ ( ( ( U U U U ( ( U U U ",
"' / / T U P P P P U ( ` ` I ( I U ( U P P U U U U U U U ( U U ( U ( U U U U U ( ( T ( U U U U ( ( ( ( ( ` ( P P K U U U U U U U ",
"( ( ( ( ( ^ P ^ P U ( ( ( ( U U ` ` H D m H U ( U U U ( T U U U U U T ( U U U U U U U U U U U ( ( ( ( ( ( P A n G U U U U U U U ",
"( ` ( U U ^ U P P ( ( ^ U U U H ( ` L z x G T U U U U U T ( U U U U U ( ( T U ( U U ` U ( U U U ( U ( U U H v 9 n U ( ( U T ( U ",
"( I ( ^ P ( ^ ( ( U U U U U U U G D D n G P ` U U U U U ( U U ( U ( U T U U U U U U U U U U U U ( U ( H m x n n L ` T U U U U U ",
"( U ( U P ( U ^ ^ U P U U U H H n 9 z L ( T U ` T U U U U U U T U U U U ( U U U U U U U T ( ` U U U U G z w n U U U U U ( T U ( ",
"( ( U U ( P U ( ( U ( U U U U U G b A K ( U U U U U U U U U U U U ` ( U U U U ( U ( U ( U U U U U ( ( H m n L T U U U U U U U U ",
"( ( U ^ ( ( U ^ ^ U U U U U U U ( I U U T U U U U U K U U U K U U U U U U U U T T U U ( U U ( U U ( T ( U H U ` ` U U U ( U U ( ",
"( P U ( P ( U ( ( U U U U U U U ` ` T U T U U U T U U U K U U U U U U U U ( U ( ( U U U U ( U U ( T ( U ( U ( ` U U U U U U T U ",
"^ U ( P ( P ^ U ( U U U U U U ( U U U U U K U K U U U U U U U U U U T ( U U U ( U U U U U T U U U U ( ` ` ` U U U U ` U U U ( U ",
"( P P U ( ( U ( P U U U U U ( T U U P U K U K U K U U K U U U K U U U ( ( T U U U ( ( T ( U U U ( U T ( T ( U U U U U U U ( U U ",
"U U U U ( U U U U U U U P U U U U P U U K P U U U U U K U U U U U U U U T U U U U U U U U ( ` U U U U ( ` ( U ( U ( ( ( U U U ( ",
"U P P U ( U U U U U U U U U U ( U U U U U K K P U U U U U U U U ( T U U ( ( U U ` U U U T U U U U ( U T U U U T T U T U U U U U ",
"U U U U U U P U U U U P U U P U U U K U P U K U U U U U U C & 2 2 e U ( U U ( U U U U U ( U ( U T ( U ( U U ( U ( U ( U U U T ( ",
"U U U U U ( U U U U U U U U U U K U U U U K U U U U U K K G 3 4 5 p U U ( ( T U U U ( ( U U U U ( U U U U U U U U U U U U ( U U ",
"U U U U U U U U U P U U U U U U P U U U K P K U K U U K U L 6 r u S U U U U U ` U U U T T ( U U U U U ( ` U U U U U ` U U U U U ",
"U U U U U U U U U U U U U U U U U U K U U U U U U U U U T L t s {  .U U U U U U U U ( U ( U U U U U ( T U U U U U U U U U ` U U ",
"U U U U U U U U U U I U U U U P U U U P U U K U U U U U U J a ] O...U ( U U U U ( ( U U U U U U U U U U U U U ( U U U U U ( U ( ",
"U U U U U U P U U U U U U U U U U U U U K U P U K U U K U L a } +.X.U ( T ( U U T U U ( U U ` U U ( U U U ( U T U ( U ( U T U U ",
"U U U U U U U U U U U U U U U U U K U U U U P U U U U U I L y [ o.X.T ( ( U U U U U U U T ( U U U U T ( U U ( U U U U U U U U U ",
"U U U U P U U U U U U P K U U P U U U P K K U U U U T U T D 7 s { | U U U U U ( U U U ( U U U U U ( U U ( T U U U ` ( T ( U ( T ",
"U U U U U U H U U U U K P U U K P U U K P U K U K U U U U L < 6 t i U U U ( T ( ` U U U U U U U T U U ( ( U U U U U U U U ( ( U ",
"( U U U U U U U U P U U K U U K U K U K U U U U U U U U T D > , 1 q U U U U U U U U U ( ( U U ` ( U U U U U U ( U U U ( U U U U ",
"U U U U P U U U U U U K U K U U U P U U U K U K U U U U U D - ; : 0 ( U U ( ( U U T ( U U U ( U ( U U U U U ( U U U ( T T U ( U ",
"U U U U U U U U U U P U U K P U K U U K U K U U K U U K U D # $ % 8 T U U T U U ( U U U U ( T U U U U ( T ( T U U ( U U ( U U U ",
"U P U U U U U U U U U U U U K U U K U K U U K U K U U T U D o O @ & U U ( T U U U U ( T U ( U U U U T U ( U U U U ( U U U U U U ",
"U U U U U U U U P U U K K U U U U U U P K U U U U U U U U N . X X & U ( U U U ( U ( U U U U U ( ( U ( U U U ( U U U ( U U ( T ( ",
"U U U U P U U U U U U U U U U U K P U U K U U U U U U U T N       + ( U ( U T U U U U U U U T U U U U U U U U U T ( U U U U U U ",
"U U U U U U U U U U K P U K U U U U U U H H A H U U U U U U K U U P U ( U U ( U U L L U P U ( U U ( U U U U ( ( U U U ( U ( U U ",
"U P U K U U K P K P U U U U U ` ` ` U P A n n G T ( U ( U U U ( U ( T ( U U ( T H m n G P U U U ( U U U U U U P U U U U ( U ( U ",
"U K U U K K U U U U K U K U U ` ` ` K G m n n G U U U U U U U U U U U U U ( U U H m n m G H U U U U U U U U U U U U U U U U U U ",
"U K U K P U K U U K U P U U U T U U L n x A G K ( U T U U U ( U U U ( U U ( U U K H A b x A P K P U U U U U U ( U U U U U ( U U ",
"U P U U U U K U U P U K K U P P U U G x x P U U U U ( U U ( T U ( T T U U U ( U U U P n z A U P H P P U P U U P U U U U U U ( T ",
"K U U U U U P U U K U K U U U P U U U G P I ` U U U ` U U ( U U ( U U U U T ( U U ( U L A L U P P P I U U U U P U P U U U U U U ",
"P U U U P U K U U K U U U K P P U U T U ` ` ` ` U U U U U U U U U U U ( U ( U U U U U U U U ` U P U U U U U U U U U U ` U U U ( ",
"U U U U U U K U U K U U K U U P U U U U ( ` ` U U T ( ( U U U U ( U U U U ( ( U U U P U U U ` U K P U U ( I U U U U U U U U ( U ",
"U U U U U U K P U U U U U I K P U ( U U U U ( U U U U U U ( U ` U U U ( U T U U K P H H U I ` U U U I ( ( ^ ( U P U U ( ( U ( ( ",
"` ( U U U U K P m G P ` ` I U P U T ` U U U U U ( U U U U U U ( U U ( U U ( U U U U H U U U ( U U I ( ( ( ( L C H U U U U ( ( ( ",
"` ` ( U U U P m x v I ` ` I ( ( ( U U U U U ` U T U U ` ( T ( T U ` T ( ( T U ` U U P U U U U U ( ( P ' ' ( C x C U P U P ^ ^ ( ",
"( ` ( ` T U P H n b D D I P ( ( ( ` U U U ` ` U ( ` ` U U ` ( ( T ` U U U ` U U U U ( U U U U U U ( ` / I F n n G ( ( ( ( ( ( ' ",
"( ( ` ` ` ( U P H D c c G / ( ( ( T U ` U U U U ( U U U U U ( T ( ( U ` U ` U U U U U U U U U P I ( I L b b G L P ( ( ( ( ( _ _ ",
"( ( ` ` ` U U ( U G b c G I I ` U ( ` U ` U ( ` T U ` ` ` ` U U U U U ` U U U ( U U U U U P U U ( T ( G b c D ( ( ( ( ( ' ( _ _ ",
"( ( U U T ( U U ( P G G H U ( ( ` U U U ` U ( T ( ( U U U U U ` ` ` U U ` U ( U U U U U U U U U U I T I L J K ` ( ( ( ( ( _ ( _ ",
"K U U P U P P ( U ( U T U U U U ( ( T ` U U ( ( ( ( ( T U ` ` U U U ` U U U ` U U U U U U U U P I T T Y T T T ` ( ( ( ( ( _ ^ _ ",
"m H U U U U ^ P P U U K U T U T T U ( ( U ` T ( T T ( ( U U U U U ` U U ` U U U ( U T ( U U U U U T Y Y T T T ( ( ( P ( ( ( ^ Z ",
"k m U U U P P ^ P P U K K Y T T U ( ( U U T ( U ( ( T ( ` U U ` U U ` ` U U ` U U U U ( U U U U T T Y Y Y Y P U U ^ ( ( ( ( Z l ",
"l C P U U U P ^ ( P P K K Y T U U ( U U ( U ( ` U ` ( ( U ` U ` ` U U U ` ` U U U U ( T U U U U U U T T Y Y U ( ( ^ ( U ( ^ P l ",
"l Z U U U U P ( U U K Y Y Y T U U ( ( ( ( ( ( ( ( ( ` ( ` ( ( ( ` U U U U U U ` U U U U U U U U U T Y T K I ( ( ( ^ ( U ^ P Z v ",
"M Z P U U U ( P U U U Y Y Y T T U ( U ( U U ( ( ` ( ` ( ( ( ` U ( U ` ` U ` ( U ` U U U T U U U T U K U P U ( ( ^ ^ ^ U U P L g ",
"g V ( ( U P U U U U Y Y Y Y K U U ( ( ( ( ( U ( ( ` ( ( ` ( ( ( U ` ( ( T ( T ( U U ( U ( U U U U U U K U U ^ ^ ^ _ U P P / F g ",
"* j _ ( U U U U U P K K K Y K U U ( U ( U ( ( ( ( ( U ` ( U ` ` ( U T ( ( ( T ( ` U U U U U U U K U K U U U ( _ ^ ^ ( P ^ ( B = "
};
