/* XPM */
static char *result[] = {
/* columns rows colors chars-per-pixel */
"64 64 161 2 ",
"   c #9B5403",
".  c #B26603",
"X  c #BA6F05",
"o  c #B56E28",
"O  c #BF7120",
"+  c #BC7534",
"@  c #CD7703",
"#  c #DD7F17",
"$  c #C07938",
"%  c #B47446",
"&  c #BA7A47",
"*  c #CD8A0B",
"=  c #D78201",
"-  c #D98B0A",
";  c #DF9203",
":  c #D4920C",
">  c #DC9708",
",  c #CC8716",
"<  c #D2831E",
"1  c #DE9412",
"2  c #DF9D14",
"3  c #E1920B",
"4  c #E8940D",
"5  c #F59C0D",
"6  c #E48417",
"7  c #E58814",
"8  c #EA8C14",
"9  c #E68818",
"0  c #EE9312",
"q  c #E79C10",
"w  c #ED9319",
"e  c #EC9D1C",
"r  c #F09313",
"t  c #F39910",
"y  c #E5A207",
"u  c #F6A40B",
"i  c #F8A50A",
"p  c #F8AD0B",
"a  c #EEB106",
"s  c #E4B00F",
"d  c #EABA0B",
"f  c #F2B102",
"g  c #F9B30A",
"h  c #FABD0C",
"j  c #E2A012",
"k  c #EFA216",
"l  c #E9AA16",
"z  c #E6A11F",
"x  c #EAAF1E",
"c  c #F8A617",
"v  c #F6AE17",
"b  c #F2A418",
"n  c #F9AF1B",
"m  c #F8B710",
"M  c #DA8625",
"N  c #DD992E",
"B  c #D58A38",
"V  c #DE8C3D",
"C  c #E29C25",
"Z  c #E08D3E",
"A  c #E5973C",
"S  c #DDAA3B",
"D  c #EBA923",
"F  c #EAAA29",
"G  c #F4A121",
"H  c #F7AC22",
"J  c #EBB027",
"K  c #EBBF25",
"L  c #EBB229",
"P  c #F7B628",
"I  c #F3BB29",
"U  c #E3AA34",
"Y  c #E3A438",
"T  c #E8AA3B",
"R  c #EFBD32",
"E  c #E5B739",
"W  c #EFBD38",
"Q  c #F2BB30",
"!  c #FABE36",
"~  c #EECA0D",
"^  c #F0C20A",
"/  c #FDC60C",
"(  c #F0CB0F",
")  c #FAC90F",
"_  c #FAD00D",
"`  c #FACA11",
"'  c #F7D414",
"]  c #FCD512",
"[  c #FBDD12",
"{  c #FDE015",
"}  c #F7C436",
"|  c #F9C035",
" . c #F2CA35",
".. c #B38154",
"X. c #DF9F4E",
"o. c #C28655",
"O. c #D88D55",
"+. c #D3945E",
"@. c #DD965B",
"#. c #E88C42",
"$. c #EA8D4B",
"%. c #E59445",
"&. c #E89546",
"*. c #E4954A",
"=. c #EA954A",
"-. c #E4984C",
";. c #EC9A4B",
":. c #F09D4E",
">. c #E18D52",
",. c #E09150",
"<. c #E59A53",
"1. c #EE9E51",
"2. c #E29C5C",
"3. c #ED9E5E",
"4. c #F39E51",
"5. c #F39C59",
"6. c #E0A745",
"7. c #E5AF41",
"8. c #E6A44C",
"9. c #F4A04F",
"0. c #EAB748",
"q. c #EDA055",
"w. c #ECA45A",
"e. c #F5A354",
"r. c #F9A557",
"t. c #F5AC54",
"y. c #FBAE56",
"u. c #F3A459",
"i. c #FBA659",
"p. c #F4AA5C",
"a. c #FEAD5D",
"s. c #EBBA50",
"d. c #F9B156",
"f. c #FCB15A",
"g. c #D49D67",
"h. c #E5AC61",
"j. c #E6A468",
"k. c #EBA769",
"l. c #F4A664",
"z. c #FCA760",
"x. c #F4AB62",
"c. c #FFAD61",
"v. c #F4AB69",
"b. c #FEAE69",
"n. c #FFB162",
"m. c #FCB26B",
"M. c #ECC246",
"N. c #FBCC4A",
"B. c #F7D144",
"V. c #F6D34D",
"C. c #EEC557",
"Z. c #F3CB5F",
"A. c #FAD252",
"S. c #FBD952",
"D. c #F4D45B",
"F. c #FCE25F",
"G. c #F4CD78",
"H. c #F3D574",
"J. c #FAE267",
"K. c #FBE478",
"L. c #FDE87A",
/* pixels */
"..+.k.l.c.a.i.a.y.a.c.b.b.b.b.c.c.c.c.c.c.a.a.c.c.c.c.z.c.c.a.c.a.a.a.a.a.a.a.f.a.a.a.a.a.f.c.a.a.a.f.a.a.a.f.y.a.f.f.c.c.v.2.o.",
"g.j.v.z.c.a.a.a.f.a.c.b.c.n.b.c.c.c.c.a.c.z.c.z.c.a.a.c.c.a.c.z.c.a.a.c.a.c.a.c.a.c.c.a.a.c.a.c.a.a.a.f.y.f.a.f.f.a.a.c.c.v.l.g.",
"k.v.b.c.c.a.a.a.a.n.n.n.c.b.c.c.c.a.z.a.c.c.c.c.a.c.c.c.c.c.c.c.a.a.a.a.a.a.a.c.c.f.a.a.c.a.a.f.a.a.a.a.f.a.n.f.a.f.c.a.a.c.b.l.",
"m.b.b.c.c.c.f.f.f.a.c.c.c.c.c.n.c.c.c.c.c.a.c.a.z.c.c.a.z.c.a.a.c.a.a.a.n.a.a.a.a.a.a.a.a.a.a.a.a.y.a.f.a.f.f.p.f.c.a.a.a.a.c.c.",
"m.m.b.c.a.a.c.c.a.n.c.c.c.n.c.c.z.c.c.c.c.a.c.a.c.c.c.a.c.c.c.c.c.a.a.c.a.a.a.a.a.a.a.a.a.a.a.a.a.y.a.y.a.a.f.a.n.a.a.a.a.i.a.a.",
"n.m.f.n.a.c.a.c.a.c.n.f.c.c.a.c.a.c.c.a.z.c.c.c.a.c.c.c.c.z.c.z.a.a.a.c.a.a.c.a.a.a.a.a.f.a.a.a.a.a.a.a.a.f.a.c.p.c.c.c.i.i.i.i.",
"n.a.a.c.a.r.4.e.i.a.c.c.a.c.c.c.c.c.a.c.a.c.z.c.c.c.z.a.a.a.c.a.c.f.a.f.c.a.a.f.r.;.:.e.c.a.n.a.a.a.a.a.a.a.a.a.f.c.a.c.a.a.a.a.",
"a.a.a.a.a.e.&.;.r.i.a.a.c.c.c.a.c.a.z.a.z.a.a.c.c.a.c.c.c.c.c.c.c.c.a.a.a.a.a.c.e.%.Z e.a.c.a.a.a.a.a.a.a.a.a.a.a.c.a.c.z.z.z.a.",
"y.a.a.a.a.5.4.:.:.4.i.a.a.a.a.c.a.a.z.z.a.z.z.c.c.c.c.c.c.a.a.c.a.c.a.a.a.a.c.c.r.;.;.;.:.r.c.c.a.c.z.c.z.c.a.a.a.a.a.c.c.z.c.c.",
"a.a.a.a.a.a.i.4.&.=.r.i.i.r.a.a.c.c.c.a.c.a.a.c.a.c.a.c.c.c.c.c.a.a.f.a.a.a.a.f.a.i.e.%.Z :.a.a.a.z.b.z.c.c.a.i.a.a.a.a.c.c.c.c.",
"a.a.a.a.a.a.a.r.:.:.r.a.r.a.i.z.i.c.i.a.a.a.a.z.a.c.c.a.a.c.a.c.a.a.c.a.c.a.a.a.a.a.i.;.%.e.n.a.c.z.b.z.z.b.c.a.a.a.a.a.c.c.c.a.",
"a.a.n.a.a.a.z.a.r.r.a.c.c.r.a.c.c.c.c.a.a.a.a.a.a.a.a.a.a.a.a.c.a.a.a.c.c.f.a.a.f.c.c.y.r.y.c.a.c.c.z.b.z.c.a.a.a.y.a.a.c.z.a.a.",
"c.n.x.f.a.a.z.a.a.a.n.c.z.p.a.c.z.c.a.a.a.a.a.a.a.c.a.a.a.a.a.a.c.f.c.a.a.a.a.n.c.c.c.a.a.n.n.c.c.c.c.b.c.c.c.a.a.a.a.c.c.c.a.a.",
"v.n.n.c.c.a.i.a.i.a.c.n.c.a.z.a.a.a.a.a.a.a.a.a.a.a.a.a.n.a.a.a.a.c.a.c.a.a.a.a.a.a.a.a.a.a.a.n.c.c.c.c.c.c.c.a.a.a.a.c.c.a.a.i.",
"m.v.x.f.c.a.i.i.a.a.c.n.n.a.c.a.a.c.a.a.i.a.a.a.c.a.a.c.a.a.a.a.a.c.a.f.c.a.a.c.a.f.c.a.a.a.a.a.c.c.b.c.c.a.i.r.y.a.f.c.a.a.a.a.",
"a.c.c.c.z.z.i.i.i.a.c.c.a.p.a.a.c.n.p.;.4.r.a.a.a.a.a.a.a.a.c.c.a.a.a.a.f.c.a.a.c.a.a.a.a.a.a.c.a.c.c.c.c.a.9.;.e.a.a.a.a.a.a.a.",
"c.c.c.c.a.z.a.a.z.c.a.z.a.a.a.r.c.n.t.%.&.e.a.c.a.a.n.a.a.a.a.f.c.f.a.a.c.a.c.f.a.a.a.c.c.f.a.a.a.a.c.a.a.u.&.V ;.c.f.c.a.a.c.a.",
"c.c.a.z.a.a.z.i.a.c.a.a.a.a.a.a.e.q.q.;.e.i.n.a.a.a.a.a.a.a.a.a.a.a.c.a.a.a.a.a.c.a.a.c.a.a.c.a.a.a.a.i.4.;.;.;.e.a.c.a.a.a.a.a.",
"a.z.a.a.z.i.c.a.a.a.i.a.a.a.r.r.;.V %.e.a.n.f.c.a.a.f.a.c.a.c.a.a.a.a.a.a.a.a.c.a.a.a.f.a.a.a.a.a.a.c.4.%.A :.r.a.a.n.a.c.a.f.c.",
"c.a.c.a.c.a.a.z.z.a.c.a.a.a.a.a.e.;.q.y.f.a.a.a.a.a.a.a.f.a.a.a.a.c.c.c.f.a.a.a.c.f.a.a.a.c.c.c.a.c.c.r.;.;.e.a.a.c.a.a.a.a.a.a.",
"c.c.i.a.i.z.a.c.a.a.c.a.a.a.a.a.a.a.a.f.n.a.a.a.y.a.a.y.a.y.a.a.a.f.c.a.a.f.c.a.a.a.a.a.c.a.a.f.a.c.n.a.i.i.a.n.c.a.f.a.a.c.a.c.",
"a.z.z.a.c.c.c.a.z.a.a.a.a.a.a.a.a.n.n.f.a.a.y.a.a.a.a.a.a.a.a.a.a.a.a.a.a.a.c.a.a.c.a.a.a.a.a.a.a.n.a.a.n.f.n.n.a.a.c.a.a.f.a.a.",
"z.a.a.a.c.a.a.z.c.a.a.a.a.a.a.c.a.a.a.a.a.a.a.a.a.a.a.a.a.a.a.y.c.f.c.a.c.a.c.f.a.a.n.a.c.a.a.a.a.a.f.n.c.c.c.a.a.a.c.a.a.c.a.a.",
"a.a.i.a.c.c.z.a.a.a.a.i.a.a.a.z.a.a.a.i.y.i.y.y.y.a.a.y.a.f.a.a.a.a.a.a.a.a.a.c.a.a.a.a.f.c.a.a.a.a.c.c.n.f.a.a.a.n.a.a.a.f.c.a.",
"a.a.a.a.c.a.a.a.a.a.a.a.a.a.a.a.a.p.i.a.y.a.y.a.a.a.a.a.a.a.y.a.a.a.a.c.a.a.c.a.c.a.a.a.c.f.c.a.a.a.a.n.c.a.c.a.a.a.a.a.a.a.c.a.",
"r.a.r.a.a.a.a.a.a.a.a.a.a.a.a.a.a.a.a.a.a.i.i.a.a.y.y.a.a.w.w.q.<.<.u.c.a.a.a.a.a.c.a.a.a.c.a.c.a.a.a.a.a.c.f.a.a.a.c.a.f.c.a.a.",
"a.a.a.c.a.a.a.a.a.a.a.a.a.a.i.a.a.a.a.y.a.y.y.a.a.a.a.a.G.J.F.D.C.M M -.a.a.a.a.a.f.a.a.a.c.a.f.a.n.a.a.a.f.a.a.a.f.c.a.a.a.a.a.",
"a.a.a.a.a.a.a.a.a.a.a.i.a.a.a.a.a.a.a.i.a.a.i.y.a.f.i.H.M., * E B.N.G e e.a.a.c.a.a.c.a.a.a.a.a.a.a.c.a.a.c.a.a.a.c.a.a.a.c.f.c.",
"a.a.a.c.a.a.a.a.a.a.a.a.a.a.a.a.a.a.a.a.y.a.a.a.a.a.h.S : d ^ a L N.! n z a.a.a.a.a.c.a.c.f.a.a.c.a.a.n.a.a.a.a.c.f.a.c.a.a.a.f.",
"a.a.a.a.a.a.a.a.a.i.a.i.a.a.a.a.a.a.i.a.y.a.y.a.y.a.Z., ~ [ _ / f x A.N.| T a.a.a.a.f.c.a.c.a.c.a.a.a.a.a.c.a.n.a.a.a.a.c.a.a.c.",
"a.a.a.a.a.a.a.a.a.a.a.a.a.i.a.a.i.a.a.y.i.a.y.a.a.v.U s [ { _ / g x } L.S.W a.a.c.a.a.a.a.a.a.a.a.c.a.a.a.a.a.c.c.a.a.a.c.a.c.a.",
"a.a.a.a.a.a.a.i.a.a.a.a.a.a.a.a.a.a.a.a.a.a.a.a.a.s.J ( { _ / g p u I K.J. .x.a.a.c.f.a.c.a.a.c.f.a.a.a.c.f.a.a.a.a.a.c.f.a.a.a.",
"a.a.a.a.a.a.a.a.a.a.a.a.a.i.a.a.y.a.a.y.a.y.y.a.c.s.q ' ] ) h i i t I D.J. .p.a.a.a.a.a.c.a.c.a.a.a.c.a.c.a.a.a.c.f.c.a.a.a.c.a.",
"a.a.a.a.a.a.a.a.i.a.a.a.a.a.y.a.i.a.a.a.a.a.a.a.a.0.2 ' ) h p i 5 t P M.V.K p.a.a.n.a.a.c.f.c.f.a.a.c.f.a.c.a.a.a.c.a.c.a.a.c.f.",
"a.a.a.a.a.i.a.a.a.a.a.a.a.y.a.a.a.a.a.i.y.i.y.a.a.7.j ` h g i 5 5 0 H R I l w.a.a.a.c.a.a.c.a.a.a.a.a.a.a.f.a.a.a.c.a.f.a.a.a.a.",
"f.a.a.a.a.a.i.a.a.a.i.y.a.a.i.y.y.a.y.a.a.a.a.a.a.Y L m p i 5 5 0 8 n Q y > w.f.a.a.a.a.a.a.a.a.a.a.c.a.a.a.c.a.a.a.a.a.a.a.a.c.",
"c.a.a.a.a.a.a.a.a.a.i.a.i.a.a.a.a.i.a.a.a.a.y.a.a.X.F u i 5 5 r 7 7 v D ; - p.a.a.c.a.c.f.a.a.a.f.c.c.a.a.a.c.a.a.a.c.a.n.a.a.a.",
"a.a.a.a.a.a.a.a.a.y.y.a.y.a.y.a.a.y.y.a.y.a.i.a.a.a.Y 4 5 5 r 8 6 w b - = < a.a.a.a.a.f.c.c.a.a.a.c.a.a.a.a.f.c.a.a.a.c.a.a.a.a.",
"a.a.a.a.i.a.a.a.a.a.a.a.y.a.a.y.y.a.a.i.a.a.y.a.a.a.8.6.8 r 8 6 # b 1 @ @ 1.c.a.c.a.a.a.a.a.c.a.a.c.a.c.n.a.a.a.c.f.a.f.a.a.c.f.",
"a.a.a.a.a.a.a.a.a.a.i.y.a.a.i.a.a.a.y.a.i.y.a.a.a.a.1.U N 9 9 6 c q X . O c.f.a.c.f.a.a.c.a.a.a.a.a.a.f.a.a.a.a.a.c.a.a.c.a.a.c.",
"a.a.a.a.a.a.a.a.a.a.a.a.a.a.a.a.i.a.a.a.a.y.a.a.a.a.a.-.C z z k 3 .   o a.a.a.a.a.f.c.c.a.a.a.a.a.a.a.a.a.a.a.a.a.a.a.a.a.a.a.a.",
"a.i.a.i.a.a.i.a.a.a.y.i.a.y.a.n.a.f.f.a.r.e.e.y.a.a.a.f.a.;.A B + $ <.a.a.a.c.a.a.e.r.i.a.a.a.a.a.a.c.a.a.z.a.a.c.a.a.a.c.a.c.a.",
"a.a.y.y.a.i.a.y.a.y.a.a.a.a.a.n.n.f.a.i.9.;.=.e.c.a.a.a.a.a.a.a.a.a.a.a.a.a.a.a.i.:.;.e.r.a.a.c.c.a.a.a.a.a.a.a.a.a.a.a.a.c.a.a.",
"i.a.a.a.a.y.a.a.i.a.y.a.y.a.f.n.n.n.a.e.:.=.;.e.f.a.c.a.a.a.a.a.a.c.a.a.a.a.n.a.r.;.;.:.e.r.a.a.a.a.a.a.a.a.a.i.a.a.a.a.a.a.a.a.",
"a.y.i.y.a.a.y.i.a.y.a.i.a.a.a.f.a.f.e.;.;.:.e.y.f.c.a.a.a.c.f.a.a.a.a.n.a.a.c.a.a.r.e.;.%.e.i.y.r.i.a.a.i.a.a.a.a.a.a.a.a.a.a.a.",
"a.a.a.a.y.a.a.a.a.a.a.y.a.a.i.i.a.a.e.&.;.e.a.a.a.a.c.a.a.a.c.a.a.c.a.a.a.a.a.a.f.a.i.;.%.;.a.i.r.a.a.a.a.a.a.a.a.a.a.c.a.n.a.a.",
"y.i.a.a.a.a.y.a.y.i.a.a.y.a.a.i.a.a.i.e.e.a.f.c.c.a.a.c.a.a.c.a.a.a.a.a.a.c.a.a.a.f.a.e.e.r.c.i.r.a.i.a.a.a.a.a.a.a.a.a.a.a.a.a.",
"a.a.a.a.a.i.y.a.a.y.a.i.y.a.i.r.a.n.n.c.n.n.n.n.a.a.a.f.c.a.a.a.f.c.c.a.a.a.f.c.a.c.c.a.i.f.n.a.i.r.a.a.a.a.a.a.i.a.a.a.a.c.f.c.",
"a.a.a.a.a.a.i.a.y.i.a.a.a.a.p.i.a.a.a.a.a.n.n.a.a.a.c.f.a.c.f.a.a.c.a.a.c.c.a.a.a.a.i.a.a.a.c.a.a.a.a.a.a.a.a.a.a.a.a.a.a.c.a.a.",
"a.a.a.a.a.y.y.a.a.a.a.a.a.y.i.i.a.a.a.a.a.a.a.a.a.a.a.c.a.a.c.a.a.a.a.a.a.f.a.a.a.i.r.p.i.a.n.z.a.i.a.a.a.c.a.a.a.a.a.a.a.z.c.c.",
"c.c.a.a.a.a.i.r.9.e.y.c.c.a.y.a.a.c.a.a.a.a.a.a.a.a.a.a.a.a.a.a.f.c.a.a.a.a.a.c.a.y.i.i.i.a.a.a.a.a.x.c.c.c.u.4.5.a.a.a.c.c.c.c.",
"n.n.n.f.a.a.a.4.&.;.p.n.x.p.c.c.a.a.n.n.a.n.a.n.f.c.a.n.a.n.a.n.a.c.n.a.a.n.c.f.a.a.a.a.a.a.a.a.a.c.x.c.m.b.4.%.4.a.a.i.a.i.a.b.",
"n.b.b.f.n.a.a.4.&.;.q.p.p.a.z.n.n.a.a.a.a.a.a.n.c.c.n.a.a.n.a.a.n.n.a.a.c.f.c.a.a.a.a.a.a.a.a.a.a.z.c.x.p.u.1.=.e.a.c.a.a.z.c.m.",
"c.c.f.n.n.c.a.i.e.q.%.*.e.p.a.c.c.c.n.a.n.n.a.a.c.f.a.a.a.a.n.a.a.a.a.n.a.n.c.a.a.a.a.a.a.a.a.a.a.x.p.t.<.*.1.r.a.c.c.c.z.c.b.b.",
"c.c.n.n.n.a.a.a.f.r.*.%.q.a.a.c.c.f.a.n.a.a.n.a.c.a.n.n.n.n.a.a.a.a.f.c.c.a.n.a.c.a.a.a.a.a.a.a.a.p.a.w.*.%.w.n.c.c.b.c.c.b.m.b.",
"c.a.a.a.a.a.a.a.c.a.e.w.r.p.a.c.a.n.a.a.a.n.a.a.n.a.a.a.a.a.a.n.n.n.a.c.c.f.a.a.a.a.a.a.y.a.a.a.a.a.d.p.t.e.y.c.c.c.c.c.c.c.b.b.",
"y.a.a.i.a.a.i.a.c.c.f.f.a.a.a.a.f.c.c.c.c.f.a.n.n.a.a.a.a.a.a.n.a.a.f.c.c.a.n.a.a.a.a.a.a.a.a.a.a.f.f.d.f.f.f.n.c.c.c.c.c.z.b.z.",
":.r.a.a.a.z.i.z.a.a.a.a.a.f.f.f.a.c.f.c.c.c.a.n.a.a.n.n.n.n.a.a.a.n.c.c.n.a.a.a.c.a.a.a.a.a.a.a.a.f.d.d.f.f.f.a.c.a.a.c.c.b.z.5.",
"#.4.i.a.a.i.z.i.i.i.i.y.y.f.a.f.a.c.a.a.f.a.n.a.a.n.a.a.a.a.n.a.f.c.f.f.a.a.f.c.c.a.c.a.a.a.a.i.a.d.d.d.d.d.i.a.a.z.c.c.c.c.5.$.",
"$.4.i.a.a.a.i.a.i.a.i.r.y.d.f.a.a.a.c.c.c.c.a.c.a.c.n.a.c.n.c.c.c.c.c.c.n.n.a.c.f.a.a.a.a.a.a.a.a.f.f.d.d.d.a.c.z.z.z.a.a.b.i.$.",
"$.5.i.i.a.a.a.a.i.a.y.y.d.d.d.a.a.c.c.a.a.c.a.c.n.n.c.c.c.c.n.f.f.c.a.a.a.a.a.n.a.a.a.a.a.a.a.f.a.y.f.f.y.a.a.c.z.z.z.a.a.i.5.=.",
">.5.c.a.a.a.a.z.a.a.f.d.d.d.d.f.a.a.c.c.c.c.c.c.c.c.c.n.n.c.c.c.c.a.n.n.a.n.a.a.n.a.a.a.a.a.a.a.a.f.a.y.a.a.z.c.z.z.a.a.r.i.5.,.",
"O.3.c.c.a.a.a.a.a.a.d.d.d.d.a.a.a.c.c.a.c.a.c.c.c.c.c.n.n.a.c.c.c.n.a.a.n.a.n.a.a.a.c.a.a.a.a.a.a.a.a.y.a.a.z.z.b.z.z.i.a.p.k.O.",
"% @.b.c.i.a.a.a.i.a.y.y.y.d.d.a.a.c.c.c.c.c.a.c.n.n.c.a.c.c.n.n.c.a.n.a.a.a.n.a.n.a.a.a.c.f.a.a.a.a.a.y.i.a.b.z.b.z.a.a.p.z.2.& "
};
