/* XPM */
static char *result[] = {
/* columns rows colors chars-per-pixel */
"64 64 165 2 ",
"   c #BA700C",
".  c #A96011",
"X  c #BD772F",
"o  c #CC7D12",
"O  c #C57821",
"+  c #B47446",
"@  c #BA7A47",
"#  c #CB8707",
"$  c #CD830F",
"%  c #D5840B",
"&  c #D99D09",
"*  c #DE801A",
"=  c #DA9B1F",
"-  c #E8940F",
";  c #E1990B",
":  c #EA9C0C",
">  c #F59D0C",
",  c #EB8D15",
"<  c #E3831A",
"1  c #E68919",
"2  c #E88918",
"3  c #EF9B11",
"4  c #E3951B",
"5  c #E99119",
"6  c #E89A1F",
"7  c #F19511",
"8  c #E5A005",
"9  c #EAA60C",
"0  c #E6AD08",
"q  c #F6A50A",
"w  c #F8A60B",
"e  c #F1AA08",
"r  c #F8AE0B",
"t  c #E4B60B",
"y  c #ECB50C",
"u  c #E2BA0C",
"i  c #F9B30C",
"p  c #FABC0D",
"a  c #ECA212",
"s  c #E7A11F",
"d  c #EEA318",
"f  c #ECAF1C",
"g  c #F4A414",
"h  c #F6AB12",
"j  c #FAAF11",
"k  c #F2A41E",
"l  c #F9B018",
"z  c #CF8423",
"x  c #DA972B",
"c  c #DA8D35",
"v  c #DE8C3D",
"b  c #CC953D",
"n  c #DA9A31",
"m  c #D3953B",
"M  c #E19520",
"N  c #E69E27",
"B  c #EB9F25",
"V  c #EA9E28",
"C  c #E08D3E",
"Z  c #E59B35",
"A  c #EC9D36",
"S  c #D7A121",
"D  c #DBA824",
"F  c #E5A425",
"G  c #E4AA27",
"H  c #EDAF29",
"J  c #F6AC23",
"K  c #F9A825",
"L  c #E4B02A",
"P  c #EDB32A",
"I  c #F8BC28",
"U  c #EDA637",
"Y  c #E6AA32",
"T  c #EBB535",
"R  c #E3B23B",
"E  c #F6BC3A",
"W  c #EEC20E",
"Q  c #FAC30C",
"!  c #FBC90F",
"~  c #FAD00F",
"^  c #FBC710",
"/  c #FBCA10",
"(  c #F4D411",
")  c #FCD411",
"_  c #F7DA12",
"`  c #FDDD13",
"'  c #FCE214",
"]  c #F9C02F",
"[  c #EFC334",
"{  c #FBC730",
"}  c #F3C33D",
"|  c #F9C538",
" . c #B38154",
".. c #D38A44",
"X. c #DF9543",
"o. c #C28655",
"O. c #D88D55",
"+. c #D3945E",
"@. c #DD965B",
"#. c #E88C42",
"$. c #EA8D4B",
"%. c #E59445",
"&. c #E89546",
"*. c #EC9B42",
"=. c #E49549",
"-. c #EA954A",
";. c #E6994C",
":. c #EC9A4B",
">. c #F09D4E",
",. c #E18D52",
"<. c #EE9E52",
"1. c #E29C5C",
"2. c #ED9E5E",
"3. c #F39E51",
"4. c #F39C59",
"5. c #D7A954",
"6. c #E1A745",
"7. c #E5AF42",
"8. c #E6AB4E",
"9. c #F4A04F",
"0. c #EBBE43",
"q. c #E6B54F",
"w. c #EFB54C",
"e. c #EEA253",
"r. c #E2AD52",
"t. c #E9AB52",
"y. c #F4A354",
"u. c #F9A557",
"i. c #F5AC54",
"p. c #FBAE56",
"a. c #F3A559",
"s. c #FBA659",
"d. c #F6A95B",
"f. c #FEAD5D",
"g. c #F9B156",
"h. c #FCB15A",
"j. c #D49D67",
"k. c #E6A468",
"l. c #EBA769",
"z. c #F4A664",
"x. c #FCA760",
"c. c #F3AA62",
"v. c #FFAD61",
"b. c #F4AB69",
"n. c #FEAE69",
"m. c #FFB162",
"M. c #FCB26B",
"N. c #F0BC69",
"B. c #EDC446",
"V. c #F2C641",
"C. c #FBCC44",
"Z. c #F5CC4D",
"A. c #FBCE48",
"S. c #F7D74D",
"D. c #F8D34D",
"F. c #F6D050",
"G. c #F9D655",
"H. c #FADD57",
"J. c #F4D05D",
"K. c #F9D95E",
"L. c #F7D669",
"P. c #F6D674",
"I. c #FCE177",
"U. c #F8E27E",
"Y. c #F8E28A",
/* pixels */
" .+.l.z.v.f.f.p.f.f.v.m.n.n.v.v.v.v.v.f.x.v.v.f.v.s.v.v.v.v.f.v.f.f.f.f.f.f.f.f.v.f.f.f.f.f.v.v.f.f.h.f.f.f.h.f.f.h.h.v.n.z.1.o.",
"j.k.b.x.v.f.f.f.f.f.v.n.n.n.n.v.v.f.v.v.f.v.v.f.v.v.v.v.v.f.x.v.v.f.f.v.f.v.h.f.h.f.f.v.h.f.h.f.f.f.h.f.h.f.p.h.h.f.f.v.v.n.z.j.",
"l.b.n.v.f.f.f.h.f.f.m.m.v.v.v.m.v.v.v.v.v.f.v.v.v.x.v.v.v.v.v.v.f.f.f.f.f.f.v.v.f.v.f.f.v.f.f.f.f.f.f.f.h.f.h.d.p.h.f.f.x.v.n.z.",
"M.n.n.v.v.v.f.f.h.h.v.v.v.n.v.v.v.v.v.v.v.v.x.v.v.v.f.v.f.v.x.f.v.f.f.f.v.f.f.f.f.f.f.f.v.f.f.f.f.p.f.h.h.f.m.h.h.v.f.f.f.f.f.v.",
"M.M.n.v.f.f.f.v.f.m.f.v.v.v.v.v.v.f.v.s.v.f.x.v.f.v.v.f.x.v.v.v.v.f.f.v.f.f.f.f.f.f.f.f.f.f.f.f.f.p.p.f.f.f.v.m.m.d.f.f.s.s.s.v.",
"m.M.m.h.v.f.f.v.f.f.m.v.v.m.v.v.v.v.v.v.v.v.v.f.f.v.v.f.v.v.v.f.v.f.f.h.h.v.f.v.f.f.f.f.f.f.f.f.f.f.f.f.h.f.h.d.f.v.v.v.f.s.s.f.",
"m.f.f.v.f.u.3.u.s.f.f.v.v.f.v.f.v.v.f.v.f.s.v.v.v.v.f.v.f.v.f.v.f.f.f.v.f.f.f.f.u.:.>.y.f.h.m.f.f.f.f.f.f.f.f.f.h.v.f.v.v.s.s.f.",
"f.f.f.f.f.y.&.:.u.f.f.f.m.v.v.v.v.s.v.x.v.v.f.v.v.x.v.v.v.v.v.x.v.h.f.f.f.f.m.f.y.%.C y.v.v.f.v.f.f.f.f.f.f.f.f.f.v.f.v.v.f.v.f.",
"f.f.f.h.f.s.>.>.:.3.s.f.f.f.f.f.f.x.v.s.v.v.x.v.v.f.v.f.v.v.v.v.v.v.f.f.f.f.f.h.u.:.&.:.3.y.m.f.f.f.x.v.x.v.f.f.f.f.f.v.v.v.v.v.",
"f.f.f.f.f.s.s.3.&.-.y.s.s.s.f.x.f.v.f.v.v.s.f.v.v.v.v.v.v.f.v.v.f.f.f.f.f.v.v.f.f.f.u.&.C :.f.f.v.x.n.x.v.x.f.f.f.f.f.f.v.x.x.v.",
"f.f.f.f.v.f.v.u.>.>.u.f.s.f.s.v.v.x.v.v.v.s.v.f.f.s.f.v.f.f.v.f.f.f.f.m.v.f.f.f.f.v.u.:.&.y.h.v.f.x.n.x.x.n.f.f.f.f.f.f.v.v.v.v.",
"d.f.f.f.f.v.v.f.u.s.f.v.v.s.s.f.v.s.f.s.f.f.f.v.v.v.v.f.f.f.f.f.f.f.f.f.h.f.f.f.m.d.f.f.y.f.m.f.v.v.x.n.x.v.f.f.f.p.f.f.f.v.f.f.",
"m.v.c.h.f.f.v.f.f.f.m.m.x.d.v.v.f.v.f.f.f.f.f.f.f.f.v.f.f.f.v.f.f.v.f.v.f.f.f.m.f.f.h.v.f.v.m.v.v.v.n.v.n.v.f.f.f.f.f.f.v.x.f.f.",
"n.v.m.m.v.f.s.s.s.f.v.m.v.d.v.f.v.f.f.f.f.f.f.f.f.f.f.f.f.f.h.v.v.h.v.h.f.f.f.v.f.f.v.f.f.f.f.v.v.v.v.n.v.v.f.f.f.h.f.v.v.f.f.f.",
"n.n.c.m.v.s.s.s.s.f.v.v.m.v.d.f.f.v.f.f.s.f.f.v.f.f.f.f.f.f.f.f.f.f.v.f.f.v.f.f.h.f.f.f.f.f.f.f.v.v.v.v.v.v.s.p.f.f.f.f.f.f.f.f.",
"v.v.m.d.v.x.s.f.s.x.v.m.d.f.f.f.v.m.d.:.>.u.h.v.f.f.f.v.f.m.f.f.f.f.f.f.v.h.f.f.v.v.f.f.f.f.f.m.f.v.v.v.x.f.3.:.9.f.f.f.f.f.f.f.",
"v.d.v.f.v.x.f.s.v.x.f.x.f.f.f.f.f.m.i.%.%.y.f.f.f.f.f.f.h.v.v.f.f.f.f.f.f.v.f.f.f.f.h.v.f.f.f.f.f.v.f.v.f.u.&.v <.f.m.f.f.f.f.f.",
"v.v.x.x.f.f.f.v.v.v.f.f.f.f.f.f.y.<.e.:.y.s.h.v.f.f.f.f.f.f.f.f.f.f.v.f.v.h.f.v.f.f.v.f.f.v.f.f.f.f.f.s.y.:.:.:.y.f.f.f.f.f.f.f.",
"v.v.f.f.v.s.x.f.v.s.f.f.f.f.u.u.:.v %.u.f.m.m.v.h.f.f.f.f.f.f.v.h.v.h.v.f.f.f.f.v.f.f.f.h.v.h.v.f.f.f.4.%.C :.s.f.v.f.m.f.f.f.h.",
"v.f.f.f.x.v.s.v.v.s.f.f.f.f.f.f.y.;.e.s.h.f.f.f.f.f.f.f.f.f.f.h.f.v.f.v.f.f.f.f.f.f.f.f.v.f.v.f.f.f.f.u.:.:.u.f.f.f.f.f.f.v.f.v.",
"v.v.s.f.f.v.v.s.x.f.f.f.f.f.f.f.f.d.f.f.m.f.f.f.f.f.f.f.f.f.f.f.f.f.f.f.f.f.f.v.h.v.f.f.f.v.f.f.v.h.v.f.s.p.f.m.h.f.v.f.f.h.v.f.",
"f.x.v.x.v.s.v.v.v.f.f.f.f.f.f.f.h.m.m.f.f.f.p.f.p.f.h.f.h.p.f.f.f.f.v.h.f.f.v.h.v.f.f.f.v.h.f.f.f.v.v.h.v.v.h.m.v.f.f.f.f.v.f.f.",
"f.s.f.f.x.f.v.s.s.v.f.f.f.f.f.v.f.f.f.f.f.p.f.f.f.f.f.f.f.f.p.f.f.f.f.v.f.v.f.f.f.f.f.v.f.f.f.f.v.h.v.f.m.m.f.f.f.v.f.f.v.h.f.v.",
"f.v.s.f.v.v.v.v.f.f.f.f.f.f.f.f.f.f.s.p.f.f.p.p.f.p.f.f.p.f.f.f.f.f.f.f.v.h.f.v.f.f.v.h.f.v.f.f.f.f.v.m.m.f.f.f.h.f.f.v.f.f.f.f.",
"s.f.u.v.f.v.f.f.f.f.f.f.f.f.f.f.f.f.s.f.p.s.f.f.f.f.f.p.f.f.f.f.h.v.f.f.f.v.f.f.h.v.f.f.v.f.h.v.f.f.f.m.f.m.f.f.v.f.f.f.f.h.v.f.",
"f.f.f.f.v.f.f.f.f.f.f.f.f.f.f.f.f.f.f.f.f.p.p.s.f.f.f.f.f.f.p.f.f.f.v.f.f.f.f.f.v.f.f.f.f.f.v.f.f.f.f.f.f.f.f.v.f.f.f.f.v.f.f.f.",
"f.f.f.f.f.f.f.f.f.f.f.f.f.f.s.f.f.f.f.p.s.f.p.f.f.f.f.d.Y.U.I.L.b ..u.f.h.f.f.v.f.f.f.m.h.v.f.f.v.f.f.f.f.f.f.f.v.f.f.v.f.m.v.f.",
"f.f.f.f.f.f.f.f.f.f.f.s.f.f.d.f.f.f.f.f.f.p.f.f.f.a.P.L.R S D B.G.Z.U *.f.f.f.f.f.f.f.f.v.f.f.f.h.f.f.v.v.h.f.v.f.f.h.v.f.f.f.f.",
"f.f.f.f.f.f.s.f.f.f.f.f.f.f.f.f.f.f.f.p.f.f.f.f.p.P.F.$ & 0 0 8 F F.A.K A d.v.f.f.v.f.f.f.f.f.f.v.v.f.f.f.f.f.h.f.v.f.f.f.f.f.v.",
"f.f.f.f.f.f.f.f.s.f.s.f.f.f.f.f.s.f.f.s.s.p.f.f.N.0.# t ( _ ! Q e & } A.E e.f.f.f.v.f.f.f.v.f.v.f.f.f.f.f.f.v.f.h.f.f.f.f.f.h.f.",
"f.f.f.f.f.f.f.f.f.f.f.f.f.s.f.f.f.f.f.f.f.f.f.u.J.= u _ ` ` ~ Q i q P { K.V.f.f.f.h.f.f.h.v.f.h.f.f.f.m.v.v.f.f.v.f.v.v.f.f.v.f.",
"f.f.f.f.f.f.f.f.f.f.f.f.f.f.f.f.f.f.f.p.f.p.p.5.0.& ( ' ` ~ Q p r q 3 ] S.S.t.v.f.v.f.f.v.f.v.f.f.f.f.f.h.f.f.v.f.f.h.f.f.v.f.f.",
"f.f.f.f.f.f.s.f.f.f.f.f.f.p.f.f.s.p.f.f.f.f.s.r.T y ' ` ) ! p r q > > } C.H.R f.f.f.f.v.f.h.f.f.f.v.f.f.v.f.f.f.v.h.v.f.f.v.f.h.",
"f.f.f.f.f.f.f.f.f.f.f.s.f.f.f.s.f.f.f.s.f.f.p.w.G W ` ) / p i w > > - F | D.Y v.v.v.f.f.f.v.v.v.f.f.v.h.f.v.f.f.f.v.f.v.f.f.f.v.",
"f.f.f.f.f.f.f.f.f.f.p.f.p.s.p.f.f.f.f.p.f.p.f.w.L W ) ! p i w > > 7 , s I [ N v.f.h.v.f.f.f.f.h.f.f.f.f.f.h.f.f.f.v.f.h.f.f.f.f.",
"v.f.s.f.f.f.f.f.s.p.f.f.f.f.f.f.f.p.f.p.f.f.f.6.E y ^ p i w > > 7 , 2 J I f x f.f.f.f.f.f.v.f.f.h.f.f.v.f.f.v.f.f.f.f.f.h.f.f.v.",
"f.f.f.f.f.s.f.f.f.f.f.f.p.f.f.p.f.f.f.f.p.f.f.m T 9 i r w > > 7 , 1 < l H ; m h.f.v.f.f.v.h.f.f.v.v.v.f.f.f.v.f.f.f.f.v.v.f.f.f.",
"f.f.f.f.f.f.f.f.f.f.s.p.f.f.s.f.p.s.f.p.f.f.p.y.T s q q > > 7 , 1 < 5 j s % s.v.f.f.h.v.f.v.f.f.f.f.f.f.f.f.h.v.v.f.f.v.v.f.v.f.",
"f.f.f.f.f.f.f.f.f.p.f.f.f.p.f.p.p.f.f.p.f.p.p.f.n q.- > > 7 , 2 < * g d % c f.f.f.f.f.f.f.f.v.f.f.v.f.v.m.f.f.f.f.h.f.h.v.f.f.h.",
"f.f.f.f.f.f.f.f.s.f.f.f.f.p.f.f.f.f.f.s.f.f.f.f.d.8.7.4 - , 2 < 1 g a o O f.v.h.v.v.h.f.f.v.f.f.f.f.f.h.f.f.f.f.f.v.f.f.f.f.f.v.",
"f.f.f.f.f.f.f.f.f.f.f.s.f.f.f.f.f.s.f.f.f.f.p.f.h.u.= H Y N 6 k h :   . d.m.f.f.f.f.v.f.f.f.f.f.f.v.f.f.f.f.f.f.f.f.f.f.v.f.f.f.",
"f.f.s.f.f.p.f.s.p.f.f.p.f.p.f.v.f.f.f.s.p.y.y.s.f.f.u.=.Z V B M z X ..f.f.f.f.f.f.y.y.f.f.f.f.f.f.f.f.f.f.f.v.f.f.v.f.f.f.f.f.v.",
"p.f.f.f.s.p.f.f.s.f.f.f.f.f.f.m.h.m.f.s.y.:.*.y.f.f.f.v.f.f.f.f.v.f.v.v.f.f.f.v.p.:.:.y.u.f.f.f.v.f.f.f.f.f.f.f.f.f.f.f.f.f.f.f.",
"s.f.p.f.f.f.f.p.f.p.f.s.p.f.f.m.m.m.p.u.>.:.-.y.f.f.v.h.f.f.f.v.f.f.f.f.v.f.f.h.u.>.:.>.y.u.f.f.f.f.f.f.f.f.f.v.f.f.f.f.f.v.f.f.",
"p.f.s.p.f.f.f.p.f.f.p.p.p.f.f.h.f.f.y.:.&.>.u.p.f.f.v.f.f.f.f.f.f.f.f.f.f.v.v.f.f.y.y.:.%.y.f.s.u.f.s.f.f.f.s.s.f.f.f.f.f.f.f.f.",
"f.f.f.f.f.p.f.s.f.s.f.f.f.f.f.s.f.f.y.:.:.y.f.f.f.f.f.f.f.v.f.f.v.h.v.h.f.f.f.f.f.f.s.:.%.:.p.s.u.f.f.f.f.f.f.f.f.f.f.v.f.m.f.f.",
"f.s.p.f.f.s.f.p.f.p.f.s.f.p.s.s.p.v.s.y.u.d.v.f.h.v.f.f.h.v.h.v.f.f.f.v.f.v.v.f.v.m.f.y.9.y.m.s.s.s.s.f.f.f.s.f.f.f.f.f.f.f.f.f.",
"f.f.f.f.f.f.f.f.f.p.f.p.f.f.f.u.f.m.f.m.m.m.m.m.v.f.f.f.v.f.v.f.v.f.f.f.f.h.f.f.f.f.f.f.f.f.m.f.s.s.f.f.f.f.f.f.f.s.f.f.f.v.h.v.",
"f.f.f.f.f.s.f.f.f.f.f.f.f.f.f.u.f.f.f.f.f.m.m.v.f.v.f.f.f.f.f.f.f.v.f.f.f.f.f.f.f.f.s.s.f.f.v.f.p.f.f.f.f.f.f.f.f.f.f.f.f.v.f.f.",
"f.f.f.f.f.p.p.s.f.p.p.f.d.f.u.p.f.v.f.f.f.f.f.f.f.h.f.f.m.f.f.f.h.f.f.f.f.m.f.f.p.s.s.u.s.f.m.f.f.d.f.v.f.v.v.s.v.s.f.v.v.f.v.v.",
"m.v.f.f.f.f.p.s.>.y.f.m.x.f.f.f.f.h.h.f.f.f.f.f.f.f.v.f.f.f.f.f.v.f.f.f.f.f.f.f.f.f.f.f.s.f.v.f.f.f.f.v.v.v.u.3.s.s.f.f.v.v.v.v.",
"m.m.f.f.f.f.f.3.&.-.d.m.v.d.f.v.v.v.v.f.v.f.m.f.m.v.v.h.f.f.m.f.h.v.m.f.f.m.m.f.f.f.f.f.d.f.f.f.f.f.c.n.M.n.<.&.3.f.f.s.f.s.f.n.",
"n.v.m.m.h.v.f.3.&.:.e.d.d.f.f.v.f.f.m.m.m.f.f.f.f.m.f.f.m.f.f.m.v.v.v.v.f.m.f.f.f.f.f.f.f.f.f.f.f.c.v.d.c.a.<.-.u.v.f.v.s.f.x.n.",
"v.m.v.m.m.v.f.s.u.<.=.=.e.c.v.v.m.v.f.f.f.f.m.m.f.f.m.f.m.f.f.m.v.h.v.h.f.m.f.f.f.f.f.f.f.f.f.p.v.f.c.a.;.=.<.u.f.v.v.v.n.n.n.m.",
"f.v.v.m.m.f.f.f.v.a.=.X.y.d.d.v.v.v.f.f.f.m.f.f.m.m.f.f.f.f.f.f.v.v.v.h.v.v.h.v.f.f.v.f.f.f.f.f.f.d.d.a.;.X.a.m.x.v.v.v.n.v.n.n.",
"v.f.f.h.f.f.f.f.v.f.y.y.s.d.f.m.h.f.m.m.f.f.m.f.f.f.f.m.f.m.m.f.m.h.v.v.h.v.v.f.f.f.f.f.s.f.f.f.f.d.h.p.i.y.d.m.v.v.v.v.v.n.n.n.",
"p.f.f.s.v.s.s.v.v.v.f.f.p.f.f.f.m.f.f.f.m.f.m.f.m.f.f.f.v.v.v.h.f.f.m.f.f.f.m.f.f.f.v.f.f.f.f.f.f.h.g.g.h.h.m.f.v.f.v.v.v.v.n.x.",
">.u.f.f.f.v.s.s.s.s.f.f.p.f.h.h.f.v.m.f.m.f.v.v.f.f.m.m.f.h.v.v.f.m.f.f.m.f.f.f.v.h.f.f.f.f.s.f.f.h.g.g.g.h.h.f.f.v.f.v.x.n.x.4.",
"#.>.f.f.f.s.s.x.x.s.f.p.p.h.f.h.h.v.f.v.f.h.v.h.f.m.f.f.m.f.h.v.f.f.m.m.f.f.m.f.f.f.f.f.f.f.f.f.f.h.g.g.g.g.s.f.f.x.v.v.v.n.4.$.",
"$.3.s.f.f.f.x.s.f.s.p.p.p.h.h.f.f.f.v.f.f.v.v.v.v.f.m.v.f.m.v.f.m.f.f.f.m.m.f.f.v.f.f.f.f.f.f.f.f.h.h.h.g.g.f.f.v.x.x.f.s.v.s.$.",
"$.4.f.f.f.f.s.f.f.f.p.g.g.g.g.p.f.v.v.x.v.v.v.v.m.m.v.v.f.v.m.m.m.v.v.v.f.f.f.m.h.v.f.f.f.f.f.f.f.h.h.h.h.d.f.v.x.x.x.v.f.s.4.-.",
",.4.s.f.f.f.v.x.f.f.p.g.g.g.h.f.f.v.f.v.v.f.v.v.v.v.f.m.m.v.v.v.f.v.h.v.f.m.h.f.v.f.v.f.f.f.h.f.p.f.p.p.s.f.v.n.n.x.v.f.s.f.a.O.",
"O.2.v.f.f.f.f.f.f.s.h.g.g.g.h.f.f.v.v.v.f.v.f.v.v.v.v.m.m.v.v.v.v.h.f.h.m.f.v.v.h.v.f.v.f.f.f.f.f.p.f.f.f.f.n.x.x.x.s.s.f.d.2.O.",
"+ @.n.v.s.f.f.f.f.f.p.p.p.g.p.f.f.v.f.f.v.v.v.f.m.m.v.v.v.v.m.m.v.v.m.f.f.f.m.f.v.f.f.h.v.f.f.f.f.f.p.f.f.f.s.x.n.x.v.s.c.v.1.@ "
};
