/* XPM */
static char *result[] = {
/* columns rows colors chars-per-pixel */
"64 64 154 2 ",
"   c #9D5710",
".  c #A85B02",
"X  c #AB5E0E",
"o  c #A55E13",
"O  c #A35D1B",
"+  c #AF6404",
"@  c #BA6600",
"#  c #BA6220",
"$  c #BE6A28",
"%  c #C77104",
"&  c #D17D02",
"*  c #CC7933",
"=  c #B47446",
"-  c #BA7A47",
";  c #D58406",
":  c #DA8B02",
">  c #D7860F",
",  c #D7880D",
"<  c #D8910C",
"1  c #D18012",
"2  c #DF8412",
"3  c #D18810",
"4  c #D98E18",
"5  c #E4860F",
"6  c #E19803",
"7  c #E1950C",
"8  c #E39C0C",
"9  c #F49B0D",
"0  c #E68617",
"q  c #E48815",
"w  c #EB8D13",
"e  c #E38519",
"r  c #E48A1A",
"t  c #EF9411",
"y  c #E59B12",
"u  c #ED9618",
"i  c #EB9E1D",
"p  c #F19411",
"a  c #DFAA1B",
"s  c #E5AC0C",
"d  c #EDAC08",
"f  c #F7A20B",
"g  c #F9A70A",
"h  c #F6AB0C",
"j  c #F9AC0A",
"k  c #F2BB06",
"l  c #FBB807",
"z  c #FAB30C",
"x  c #F9BC0A",
"c  c #E7A311",
"v  c #EEA317",
"b  c #E9AC13",
"n  c #F2A817",
"m  c #F3A119",
"M  c #F5AB1C",
"N  c #F9B912",
"B  c #D59227",
"V  c #D99B29",
"C  c #D6893C",
"Z  c #DE8C3D",
"A  c #D89137",
"S  c #DE9E34",
"D  c #E39120",
"F  c #E99521",
"G  c #E49E25",
"H  c #E49A2A",
"J  c #E08C36",
"K  c #E08D3E",
"L  c #ECAD21",
"P  c #F3AF25",
"I  c #EDB625",
"U  c #ECB929",
"Y  c #E0A93A",
"T  c #E2B635",
"R  c #F9B632",
"E  c #F9BC32",
"W  c #FBC107",
"Q  c #FBC40F",
"!  c #F0C80E",
"~  c #FCC90A",
"^  c #FBD20C",
"/  c #FCC713",
"(  c #FBD312",
")  c #FBDC10",
"_  c #EBC135",
"`  c #F1C13A",
"'  c #F0CC3C",
"]  c #B38154",
"[  c #DF9F49",
"{  c #C28655",
"}  c #D88D55",
"|  c #D3945E",
" . c #DD965B",
".. c #E88C42",
"X. c #EA8D4B",
"o. c #E59445",
"O. c #E89546",
"+. c #E49549",
"@. c #EA954A",
"#. c #E6994C",
"$. c #EC9A4B",
"%. c #F09D4E",
"&. c #E18D52",
"*. c #E09851",
"=. c #EE9E52",
"-. c #E29C5C",
";. c #ED9E5E",
":. c #F39E51",
">. c #F39C59",
",. c #DCAA5C",
"<. c #F4A04F",
"1. c #E7B945",
"2. c #EEBC46",
"3. c #ECA155",
"4. c #EEAC51",
"5. c #ECA35A",
"6. c #EEAC5B",
"7. c #F4A354",
"8. c #F9A557",
"9. c #F5AC54",
"0. c #FBAE56",
"q. c #F3A559",
"w. c #FBA659",
"e. c #F5AA5B",
"r. c #FEAD5D",
"t. c #F9B156",
"y. c #FCB15A",
"u. c #D49D67",
"i. c #E19C62",
"p. c #ECA365",
"a. c #E6A468",
"s. c #EAAA6D",
"d. c #F4A664",
"f. c #FCA760",
"g. c #F4AA63",
"h. c #FFAD61",
"j. c #F4AB69",
"k. c #FEAE69",
"l. c #ECB46C",
"z. c #FFB162",
"x. c #FCB26B",
"c. c #F2CA42",
"v. c #F8D14A",
"b. c #ECC15D",
"n. c #F6D254",
"m. c #F9DC5D",
"M. c #F4CA64",
"N. c #FBDB66",
"B. c #F6CD77",
"V. c #FCE264",
"C. c #FCE076",
"Z. c #FCE77C",
"A. c #F5D182",
"S. c #FAE482",
/* pixels */
"] | p.d.h.r.r.0.r.r.z.k.k.k.h.h.h.h.h.r.h.h.w.h.h.h.h.h.h.r.h.r.r.r.r.h.r.r.h.r.r.h.r.y.h.r.r.r.r.y.h.r.y.r.r.r.r.y.y.h.j.d.i.{ ",
"u.a.j.f.h.r.r.r.r.r.h.h.h.k.x.h.h.f.h.h.h.r.h.h.h.h.h.r.f.h.h.h.r.h.r.r.r.r.r.r.r.r.r.r.r.h.r.h.r.r.r.y.r.r.t.y.y.r.r.h.h.h.j.i.",
"s.j.k.h.h.r.r.y.r.r.z.z.h.x.h.h.h.r.r.h.h.r.h.r.h.h.h.f.r.h.h.h.h.r.r.r.r.h.r.r.h.r.r.r.r.r.h.r.r.r.r.y.r.y.z.y.0.y.r.r.h.h.d.g.",
"x.x.k.h.h.r.r.r.y.y.h.h.h.h.h.h.h.h.h.h.f.h.h.h.r.h.r.h.h.h.r.f.r.r.h.r.r.y.r.h.y.h.r.r.r.r.y.r.r.r.0.r.y.r.y.e.y.h.r.r.r.h.h.h.",
"x.x.h.h.r.h.h.h.h.y.r.z.h.h.h.z.r.f.h.h.h.h.h.h.h.h.h.r.h.h.r.h.z.r.r.h.r.r.r.r.r.r.r.r.z.r.r.r.r.0.0.r.r.0.y.z.z.h.h.r.w.w.r.r.",
"x.z.z.h.h.r.r.r.h.z.h.h.h.h.h.h.h.h.h.r.r.h.r.r.h.w.h.f.r.h.h.h.r.r.r.r.h.r.h.y.r.r.r.r.r.r.r.r.r.r.r.r.y.r.r.e.r.e.h.r.r.w.w.w.",
"z.r.r.r.r.8.7.7.r.r.r.h.h.h.h.h.h.h.h.h.f.r.h.h.h.h.h.h.h.h.h.h.h.r.r.r.h.r.h.r.8.$.%.7.r.r.r.r.r.r.r.r.r.r.r.r.r.r.h.h.r.w.r.r.",
"r.r.r.r.r.7.O.$.8.8.r.r.h.r.h.h.h.h.w.h.w.h.f.h.h.h.h.r.h.w.h.h.r.r.h.y.r.r.r.r.7.o.K 7.r.r.z.r.r.r.r.r.r.h.h.r.y.r.r.h.h.h.f.r.",
"r.r.r.r.h.8.:.$.%.%.w.r.r.r.r.h.f.h.r.h.r.f.h.h.r.h.r.h.h.r.h.r.h.r.z.r.r.y.h.h.8.$.O.$.%.7.h.h.h.h.f.f.f.h.r.r.h.r.r.h.r.h.h.h.",
"0.r.r.r.r.w.w.:.O.@.:.r.w.w.w.h.r.h.r.f.h.r.w.h.f.h.h.h.h.h.h.h.r.r.r.r.r.h.r.r.r.r.7.O.K %.r.r.w.f.k.f.h.f.r.r.r.r.r.h.h.f.f.h.",
"r.r.r.h.h.r.h.8.$.%.w.w.r.w.r.r.f.r.h.r.r.w.h.h.h.r.h.r.r.r.h.h.h.y.r.r.r.r.r.r.r.h.r.$.O.7.z.r.h.h.h.k.h.f.r.r.r.0.r.r.h.h.h.h.",
"h.r.y.h.r.r.h.r.w.w.r.r.h.8.r.f.h.h.w.r.r.r.r.r.r.r.r.h.r.r.r.h.r.h.r.r.r.r.r.z.z.y.e.8.7.r.y.h.h.h.f.k.h.h.r.r.r.r.r.r.h.h.r.r.",
"h.z.e.z.r.r.h.r.r.r.h.z.r.h.e.h.h.r.r.r.r.r.r.h.r.r.r.r.r.h.r.y.r.r.r.r.h.y.h.r.r.h.z.r.r.r.z.r.h.h.h.h.h.h.r.r.r.r.r.h.r.h.r.r.",
"j.z.g.h.h.h.w.w.w.r.z.z.f.e.r.h.r.r.w.h.r.r.r.r.r.h.r.r.r.r.r.r.h.r.r.r.r.h.r.h.r.r.r.r.r.r.r.z.h.h.h.k.j.h.h.r.r.y.r.r.f.h.r.r.",
"x.z.y.z.h.w.w.w.w.r.h.z.h.h.h.e.h.h.r.r.r.r.r.r.h.r.h.r.h.r.r.r.r.r.z.r.r.h.r.y.r.h.r.r.r.r.h.h.h.h.h.h.f.h.r.0.r.r.r.r.r.r.r.r.",
"h.g.h.h.h.w.h.w.w.f.h.h.e.r.r.r.r.z.e.$.%.7.r.r.r.r.r.r.y.h.r.r.r.r.r.r.r.r.r.r.r.y.h.r.r.r.r.r.h.h.h.h.r.r.:.O.<.r.r.r.r.r.r.r.",
"h.h.h.r.h.f.r.w.r.h.r.h.r.r.r.8.h.x.q.o.o.7.r.r.r.r.r.r.h.y.h.r.r.r.y.r.h.r.r.r.z.r.r.h.r.r.y.r.h.r.h.r.r.7.O.Z $.z.r.r.r.y.h.r.",
"h.e.r.f.w.h.h.h.h.r.w.h.r.r.r.r.7.=.3.$.7.0.z.r.r.r.r.r.r.h.r.h.r.h.h.r.r.r.r.r.r.r.r.r.r.h.h.r.h.r.r.w.7.$.$.$.7.r.z.r.r.h.r.r.",
"h.h.r.r.h.w.w.h.f.r.r.r.r.r.8.8.$.Z o.e.r.r.r.h.r.y.r.r.r.r.r.y.r.r.r.r.y.h.z.r.r.r.r.r.r.r.r.r.r.r.h.:.O.K $.w.r.z.r.r.h.y.r.r.",
"h.r.h.r.f.h.w.h.f.r.r.r.r.r.r.r.7.O.<.0.z.h.y.r.r.r.r.r.r.r.r.r.r.h.h.r.r.r.r.r.r.r.h.y.r.h.h.r.r.h.h.8.$.$.7.r.r.r.r.r.r.h.r.r.",
"h.h.w.r.r.h.h.w.f.r.r.r.r.r.r.r.r.e.r.r.y.r.r.r.y.r.r.r.r.r.r.r.y.r.r.r.r.r.r.r.r.r.y.h.h.r.y.r.r.h.z.r.r.w.r.z.y.r.h.r.r.r.r.r.",
"r.f.h.f.h.w.h.h.h.r.r.r.r.r.r.r.z.z.y.r.y.r.r.r.r.r.r.0.r.r.0.r.r.h.r.r.h.y.h.r.r.h.r.r.r.r.h.r.h.y.r.r.r.r.z.z.h.r.r.r.r.h.y.r.",
"r.w.r.r.f.r.h.w.w.f.r.r.r.r.r.h.r.r.r.r.r.0.r.0.0.r.r.0.0.r.r.r.r.r.h.r.h.r.r.r.y.r.r.h.r.r.z.r.r.r.z.z.z.z.r.r.r.h.h.r.r.r.h.h.",
"w.h.w.r.h.h.h.h.r.r.r.r.r.r.r.f.r.r.w.0.r.r.0.r.r.r.r.r.r.r.0.r.r.r.h.y.r.r.r.h.h.r.r.r.r.r.r.r.h.r.r.r.y.h.r.r.r.r.y.r.h.r.r.r.",
"r.w.r.r.h.r.r.r.r.r.r.r.r.r.r.r.r.r.r.r.r.w.0.r.r.r.r.r.0.r.r.r.r.r.y.h.r.h.r.r.r.r.r.h.h.r.r.r.z.r.r.h.r.z.r.h.r.r.h.r.r.r.r.r.",
"r.r.r.r.r.r.r.r.r.r.r.w.r.r.r.r.r.r.r.w.0.r.w.r.r.0.0.r.r.r.r.r.r.r.r.h.r.r.r.r.h.r.r.y.r.r.h.r.r.r.r.r.r.r.r.h.z.r.y.r.h.r.z.r.",
"r.r.r.r.r.r.r.r.r.r.r.r.r.r.w.r.r.r.r.0.w.r.0.r.r.r.r.r.r.A.S.,.$ # * r.r.r.y.h.r.r.h.r.r.r.y.r.r.r.y.h.r.r.r.y.r.r.r.r.r.r.r.r.",
"r.r.r.r.r.r.r.r.r.r.r.r.r.r.r.r.r.r.r.r.0.r.r.0.r.0.r.r.B.1.T n.2.F r J r.r.r.h.h.y.r.r.r.h.h.r.r.r.r.r.h.r.r.r.r.r.r.h.h.r.r.r.",
"r.r.r.r.h.r.r.r.r.w.r.r.r.r.r.r.w.r.r.0.r.0.r.r.r.0.r.l.1.< s a v.R m u q.r.r.r.z.r.r.r.r.r.y.r.r.h.r.r.h.r.r.r.r.h.h.y.r.r.r.r.",
"r.r.r.r.r.r.r.r.r.r.r.w.r.r.r.r.r.r.r.r.r.w.r.0.r.r.0.M.3 ! ^ k _ ' E P G r.r.r.r.r.r.r.r.h.h.r.y.h.r.r.y.r.r.h.r.r.r.r.y.h.r.h.",
"r.r.r.r.r.r.r.w.r.r.r.r.r.w.r.r.r.r.r.r.r.r.r.r.r.r.3.S s ) ^ W d v.N.v.U h.r.r.r.r.r.h.r.r.r.r.r.h.r.h.r.h.r.r.r.r.h.r.r.h.r.r.",
"r.r.r.r.r.r.r.r.r.r.r.r.r.r.r.r.r.r.0.w.r.0.w.r.r.0.5.1 ( ) ~ l j ` Z.V.' 4.r.r.h.r.r.y.r.h.r.r.h.y.r.r.r.r.r.r.z.r.r.r.r.h.y.r.",
"r.r.r.r.r.r.r.r.0.r.r.r.r.w.0.r.r.0.r.r.r.r.0.r.r.r.6.> ( ( x j g L S.V.' Y r.r.r.r.r.h.r.r.r.r.h.h.r.r.r.r.r.h.r.r.r.r.h.y.h.r.",
"r.r.r.r.r.r.r.r.w.r.r.r.r.r.r.r.w.r.r.w.0.0.r.r.r.r.6.y ( Q z g f M C.m.' Y r.r.r.r.h.y.r.r.r.r.r.y.h.r.r.r.h.y.r.r.r.r.r.r.h.r.",
"r.r.r.r.w.r.r.r.r.r.r.r.r.0.r.r.r.r.r.0.w.r.r.r.r.r.e.c / z j f 9 n n.c.I V r.r.r.h.r.r.h.r.y.r.r.z.r.r.r.r.r.r.h.r.y.r.r.z.r.r.",
"r.r.r.r.r.r.w.r.r.r.w.0.r.r.w.0.r.0.r.0.r.r.w.r.y.r.6.y N h 9 9 p v U b 6 B r.r.h.y.r.h.r.r.h.h.r.r.r.r.z.r.r.r.r.r.h.h.r.r.r.r.",
"r.r.r.r.r.r.r.r.r.r.w.r.r.r.r.r.r.r.r.r.r.0.r.0.r.0.q.y h f 9 t w v b : : A r.r.y.h.r.r.r.r.r.r.r.r.r.r.y.h.r.h.r.r.r.r.r.r.r.h.",
"r.r.r.r.r.r.r.r.r.r.r.0.w.0.0.r.0.w.r.0.r.0.r.r.r.r.3.G 9 9 p w 0 M 7 : ; q.r.r.h.r.r.r.r.r.h.r.r.r.r.h.r.h.r.r.y.h.r.r.r.r.h.y.",
"r.r.r.r.w.r.r.r.r.r.r.r.r.r.0.r.0.r.r.0.r.r.0.r.0.r.q.b.5 t w 0 2 v ; & % r.r.r.r.r.r.h.h.r.r.r.r.h.r.r.r.r.h.h.h.r.h.r.r.r.r.r.",
"r.r.r.r.r.r.r.r.r.r.w.0.0.r.r.r.r.r.r.w.0.r.r.r.r.r.r.[ S q e e M , % @ C r.r.r.r.r.h.y.r.r.h.r.h.y.r.r.r.r.r.y.h.r.h.y.r.h.r.r.",
"w.r.r.r.r.r.r.r.r.r.r.0.w.r.r.r.0.w.r.w.0.r.r.r.r.r.r.r.G H D m 8 + . X e.r.r.h.r.r.r.h.r.r.r.r.r.r.r.r.r.r.r.r.r.r.r.r.r.h.r.r.",
"r.r.r.r.r.w.r.r.r.r.0.r.r.r.r.y.r.r.r.r.8.8.<.8.r.h.r.r.q.H i 4 o   O *.r.h.r.r.r.7.7.r.r.r.r.r.r.h.r.h.r.r.h.r.r.r.h.r.r.r.r.r.",
"r.0.r.0.r.r.0.r.r.w.0.r.0.r.r.z.z.z.r.r.<.$.$.7.r.y.r.r.r.r.r.r.r.r.r.r.h.y.r.h.w.$.$.7.8.r.r.0.h.r.r.w.r.r.r.r.r.r.r.r.h.r.r.h.",
"r.r.w.r.0.0.w.r.0.r.r.w.r.r.r.z.z.z.0.7.%.$.$.7.r.h.r.r.r.r.r.r.r.r.h.r.r.r.r.r.w.%.$.%.7.8.r.r.r.r.r.r.r.r.h.w.r.r.r.r.r.r.r.r.",
"r.w.r.0.r.r.0.r.0.r.r.r.r.r.r.r.r.r.7.$.O.<.7.w.r.r.y.r.r.z.r.r.h.r.r.r.r.r.r.r.0.7.<.$.O.3.8.r.r.r.r.r.r.r.w.r.r.r.r.h.y.r.r.h.",
"r.0.r.r.r.w.0.r.w.r.0.r.w.r.8.r.r.r.7.O.$.7.r.y.r.r.h.h.r.r.r.r.r.r.h.r.h.y.h.y.h.r.r.$.o.$.r.w.7.r.8.r.r.r.r.r.r.r.r.r.h.r.r.r.",
"r.0.r.r.r.r.w.r.0.r.r.r.r.0.r.8.r.r.r.7.w.e.z.r.r.h.y.h.r.r.r.h.r.r.y.r.h.r.r.r.r.r.r.7.<.8.r.r.r.8.r.r.r.r.r.r.r.r.r.r.r.r.r.r.",
"r.r.w.r.r.0.r.r.r.r.0.0.r.r.r.8.r.y.h.z.y.z.z.z.r.r.h.r.r.r.r.h.r.h.h.r.r.r.r.h.r.z.r.r.r.r.z.r.8.8.r.r.r.r.w.r.w.r.r.r.r.h.h.y.",
"r.r.r.w.r.0.w.r.w.r.h.r.r.0.r.8.r.r.r.r.h.z.z.r.r.r.r.h.r.r.h.y.r.r.r.r.r.h.h.r.r.r.r.r.r.r.z.e.r.8.r.r.r.r.r.h.r.r.r.r.r.r.h.r.",
"r.r.r.r.r.r.r.0.0.r.y.e.r.r.r.8.r.r.r.r.r.r.h.r.r.r.y.r.r.r.r.r.h.r.r.r.r.y.r.r.8.r.7.8.r.r.h.h.r.r.r.r.r.h.r.w.h.w.r.h.r.h.h.h.",
"h.r.r.r.r.r.0.w.%.7.r.h.h.f.r.r.r.r.r.r.r.r.r.h.r.h.h.r.r.r.r.r.r.y.r.r.r.h.r.r.r.r.r.8.r.r.r.r.r.e.f.h.h.h.8.:.w.w.r.r.r.h.h.h.",
"z.z.z.h.r.r.r.%.O.$.8.z.g.e.r.r.r.z.r.z.r.z.r.y.r.h.y.h.z.r.r.z.h.h.z.h.h.y.r.z.r.r.r.r.8.r.r.w.h.h.h.g.x.k.=.O.:.r.r.w.r.f.f.h.",
"z.h.z.z.h.r.r.:.O.$.3.5.e.e.h.h.z.r.r.r.h.h.h.y.z.r.r.z.r.r.r.r.y.z.r.r.r.z.r.r.r.r.r.r.r.r.r.r.e.h.g.e.e.q.=.@.7.r.h.h.f.r.h.j.",
"h.h.h.z.z.r.r.w.8.=.O...3.r.e.h.h.h.z.r.z.y.h.h.z.r.r.z.r.z.z.r.h.h.r.z.r.z.r.r.r.r.r.r.r.r.r.r.h.h.h.q.*.+.3.8.r.h.h.h.h.x.h.z.",
"h.h.h.z.z.h.r.r.h.7.+.[ =.r.h.z.h.y.r.z.r.r.y.h.r.r.r.r.z.z.r.r.r.r.r.z.r.r.r.r.r.r.r.r.r.r.r.r.e.r.e.5.#.+.3.h.h.h.h.x.h.k.x.k.",
"h.z.r.y.y.h.r.r.h.r.q.7.e.r.r.h.r.z.r.r.r.z.h.h.r.z.z.r.r.r.r.z.z.z.r.r.z.r.h.h.r.r.r.r.r.r.8.r.y.r.y.0.8.9.0.z.h.h.h.h.h.h.k.k.",
"r.0.w.r.h.w.w.h.h.r.y.y.r.r.r.r.z.r.h.h.y.h.y.h.z.r.r.r.h.h.h.y.r.r.z.r.r.r.z.r.r.y.h.r.r.r.r.r.e.y.y.t.y.y.y.z.h.h.r.h.f.k.h.k.",
"%.8.r.r.r.h.w.f.h.w.r.0.r.y.r.y.r.h.y.h.y.h.h.h.r.r.z.z.z.y.h.h.r.z.r.r.z.r.r.r.r.h.r.r.r.r.r.r.r.y.t.t.y.y.y.h.r.f.h.h.h.h.f.>.",
"..%.r.r.r.w.w.w.w.w.w.w.0.t.y.r.y.h.r.h.h.y.h.y.r.z.r.r.r.r.y.h.r.r.z.z.y.r.z.r.r.r.r.r.r.r.r.r.y.r.t.t.t.t.0.f.h.f.h.h.h.h.>.X.",
"X.:.w.r.r.r.f.w.w.r.r.0.0.t.y.y.r.r.h.h.h.h.h.h.h.r.z.r.h.z.h.r.z.r.r.r.h.z.r.r.r.r.r.r.r.r.r.r.r.y.y.y.t.t.r.f.f.h.w.h.h.h.>.X.",
"X.:.w.r.r.r.w.h.r.r.0.t.t.t.y.r.r.h.h.w.h.r.r.h.z.z.h.h.h.h.z.z.z.r.r.r.h.h.h.y.r.r.r.z.r.r.r.r.r.t.y.y.0.r.r.h.h.f.f.r.r.w.>.@.",
"&.>.h.r.r.r.h.f.r.r.0.t.t.t.y.y.r.h.h.h.h.h.h.h.h.h.h.z.z.h.r.h.h.r.z.z.h.y.h.h.z.r.r.r.y.r.r.r.y.r.0.r.r.r.f.h.k.f.w.r.w.r.q.} ",
"} ;.h.h.r.r.h.w.r.r.0.t.t.t.0.r.r.h.h.r.h.r.h.h.h.h.h.z.z.h.h.h.r.z.r.r.z.r.y.h.r.r.r.r.r.r.r.r.r.0.r.0.r.r.f.f.f.f.r.r.r.g.;.} ",
"=  .j.h.w.r.r.r.r.0.0.t.0.t.r.r.r.r.h.h.h.h.r.h.z.z.h.r.h.r.z.z.h.r.z.r.r.r.z.h.z.r.r.h.r.r.r.r.r.r.r.0.r.h.h.f.k.f.f.8.r.f.-.- "
};
