/* XPM */
static char *result[] = {
/* columns rows colors chars-per-pixel */
"64 64 155 2 ",
"   c #B16C16",
".  c #DE7F1C",
"X  c #B47446",
"o  c #BA7A47",
"O  c #D18A06",
"+  c #D59807",
"@  c #DA9A07",
"#  c #D7970C",
"$  c #D59908",
"%  c #CD8510",
"&  c #DB8F17",
"*  c #DC901C",
"=  c #DD9F1C",
"-  c #E79F07",
";  c #ED9E0C",
":  c #F0970D",
">  c #F69D0D",
",  c #EA8B16",
"<  c #E48419",
"1  c #ED9013",
"2  c #E49816",
"3  c #EE9B15",
"4  c #EA961B",
"5  c #E0991A",
"6  c #F29610",
"7  c #F29911",
"8  c #F39F19",
"9  c #DFA60A",
"0  c #E5A209",
"q  c #F6A50B",
"w  c #F8A60B",
"e  c #F7AD0C",
"r  c #F8AD0A",
"t  c #EBB30E",
"y  c #E6BD0C",
"u  c #EBBC0E",
"i  c #F9B20C",
"p  c #F3B80C",
"a  c #FABC0D",
"s  c #EEA216",
"d  c #F2A415",
"f  c #F4AA17",
"g  c #F8AA14",
"h  c #F2A419",
"j  c #F6B21C",
"k  c #FBB51B",
"l  c #FDBA1D",
"z  c #CF8130",
"x  c #DE8C3D",
"c  c #D89033",
"v  c #E89B22",
"b  c #E08D3E",
"n  c #E29F34",
"m  c #E2963A",
"M  c #DBA62A",
"N  c #E2A724",
"B  c #EBA020",
"V  c #E5A924",
"C  c #E4A42A",
"Z  c #EAA429",
"A  c #E5AB2E",
"S  c #EFAB29",
"D  c #F0B32A",
"F  c #F2BB2C",
"G  c #E1AE34",
"H  c #E4AA3C",
"J  c #E9B534",
"K  c #E3B539",
"L  c #EBB53D",
"P  c #E7B938",
"I  c #FBC60F",
"U  c #F5CA0C",
"Y  c #FACC0F",
"T  c #F3D20E",
"R  c #EDCD10",
"E  c #FCCA10",
"W  c #F5D512",
"Q  c #FCD411",
"!  c #FBDC14",
"~  c #FDE215",
"^  c #FBC02E",
"/  c #ECC13E",
"(  c #F9CC3C",
")  c #B38154",
"_  c #D6914B",
"`  c #C28655",
"'  c #D88D55",
"]  c #D3945E",
"[  c #DD965B",
"{  c #E88C42",
"}  c #EA8D4B",
"|  c #E59445",
" . c #E89546",
".. c #E49549",
"X. c #EA954A",
"o. c #E6994C",
"O. c #EC9A4B",
"+. c #F09D4E",
"@. c #E18D52",
"#. c #E69B51",
"$. c #EE9E52",
"%. c #E29C5C",
"&. c #ED9E5E",
"*. c #F39E51",
"=. c #F39C59",
"-. c #D6A25A",
";. c #EBA343",
":. c #F4A04F",
">. c #ECB145",
",. c #E8BB4C",
"<. c #EFA155",
"1. c #EDA15C",
"2. c #ECA95A",
"3. c #F5A354",
"4. c #F9A557",
"5. c #F5AC54",
"6. c #FBAE56",
"7. c #F3A559",
"8. c #FBA659",
"9. c #F5AA5B",
"0. c #FEAD5D",
"q. c #EBBD5A",
"w. c #F9B156",
"e. c #FCB15A",
"r. c #D49D67",
"t. c #E19C62",
"y. c #DDB362",
"u. c #DDB469",
"i. c #ECA365",
"p. c #E5AC61",
"a. c #EBAC63",
"s. c #E6A468",
"d. c #EAAA6D",
"f. c #F4A664",
"g. c #FCA760",
"h. c #F3AA62",
"j. c #FFAD61",
"k. c #F4AB69",
"l. c #FEAE69",
"z. c #FFB162",
"x. c #FCB26B",
"c. c #EFCC4B",
"v. c #FAC745",
"b. c #F4CA44",
"n. c #F3CD4B",
"m. c #F5D04E",
"M. c #FBD04A",
"N. c #EBC457",
"B. c #F9D550",
"V. c #F7D25B",
"C. c #FBD75D",
"Z. c #EEC367",
"A. c #F2C964",
"S. c #FADE6B",
"D. c #F9DB7A",
/* pixels */
") ] i.f.j.0.0.6.0.0.z.l.l.l.j.j.j.j.0.j.0.j.j.j.j.j.0.g.j.j.j.g.0.0.0.0.0.e.j.0.j.0.0.0.0.0.0.j.0.0.e.0.e.0.6.0.0.e.0.z.j.f.t.` ",
"r.s.k.g.j.0.0.0.0.0.j.j.j.l.l.z.j.j.j.j.j.g.0.j.0.j.j.j.j.j.0.j.j.0.0.0.j.0.0.0.e.0.j.0.z.0.j.e.0.0.e.0.0.0.e.e.e.0.e.j.j.l.f.r.",
"d.k.l.j.j.0.0.e.e.0.z.z.j.x.j.j.j.j.g.j.j.j.0.g.g.0.j.0.j.j.j.0.0.0.0.j.j.e.j.0.j.0.0.0.0.0.0.0.0.0.0.0.0.e.e.9.0.e.0.0.0.j.j.f.",
"x.x.l.j.j.0.0.0.0.e.j.j.j.j.j.j.j.0.j.0.0.j.j.j.j.j.j.j.8.j.j.j.j.0.0.0.j.0.0.0.0.0.0.0.0.0.0.0.0.6.0.e.e.0.z.e.e.9.0.0.8.0.0.k.",
"x.x.j.j.0.j.j.j.j.e.j.z.j.j.j.j.j.j.0.j.j.8.j.j.j.0.j.j.j.8.0.j.0.j.0.0.0.0.0.j.0.0.0.0.0.0.0.0.0.6.6.0.0.0.j.z.z.9.0.0.j.8.8.0.",
"x.z.z.j.j.0.0.0.j.z.0.j.j.j.j.j.j.g.j.j.j.j.j.j.j.j.0.j.j.j.j.g.z.0.0.0.0.0.e.0.0.0.0.0.0.j.e.0.0.0.0.0.0.e.e.9.0.j.j.j.0.8.8.0.",
"z.0.0.0.0.4.3.3.0.0.0.j.j.0.j.j.j.0.g.0.j.j.j.j.j.j.g.j.j.j.j.j.0.0.0.0.0.0.j.0.4.+.O.4.0.j.0.0.0.0.0.0.0.0.0.0.9.z.j.j.0.8.8.0.",
"0.0.0.0.0.3. .O.4.4.0.0.j.z.j.j.j.0.j.j.j.8.8.j.0.j.j.0.j.j.0.j.j.0.z.0.0.0.j.0.3.b | *.j.e.z.0.0.0.0.0.0.0.0.0.0.0.0.j.j.j.j.0.",
"0.0.0.0.0.4.*.+.+.+.8.0.0.0.0.j.j.8.j.8.j.j.0.j.j.j.j.j.j.0.0.j.0.j.e.j.0.j.e.0.4.O.X.O.O.9.0.j.j.j.j.g.j.j.0.0.0.0.0.j.j.j.g.j.",
"6.0.0.0.j.8.8.*. .X.*.0.8.8.8.j.0.g.j.j.8.j.0.j.0.j.0.j.j.j.j.j.0.0.0.0.0.0.j.0.0.0.3. .{ O.0.0.j.g.l.g.g.g.0.0.0.0.0.0.j.j.j.j.",
"0.0.e.j.0.0.0.4.O.+.8.8.0.8.0.j.j.0.j.8.j.0.8.j.0.j.j.0.0.j.0.j.e.0.0.0.j.0.0.j.0.0.4.O. .3.e.0.j.j.l.g.g.g.0.0.0.0.0.0.j.g.j.0.",
"j.0.0.0.0.j.j.0.8.8.0.0.j.4.j.8.0.g.j.0.0.0.j.j.0.0.0.0.0.0.0.j.j.0.0.j.0.0.0.e.z.j.0.6.3.0.z.j.j.j.j.g.l.j.0.0.0.6.0.0.0.j.j.0.",
"j.j.h.e.0.0.j.j.0.0.j.z.0.j.9.j.j.0.0.0.0.0.0.0.0.j.0.0.e.j.0.0.0.j.j.0.0.0.0.j.0.j.z.0.0.0.z.0.0.j.g.j.j.j.j.0.0.0.0.0.j.j.0.0.",
"k.z.z.z.j.0.8.8.8.0.j.z.g.9.0.j.0.j.0.0.0.0.0.0.0.0.0.0.j.0.0.0.0.0.0.0.j.e.j.e.0.0.0.0.0.0.j.0.j.j.j.l.j.j.j.0.0.0.0.j.j.0.0.0.",
"z.h.h.0.j.8.8.8.8.0.j.z.j.j.j.9.9.j.0.9.8.0.0.0.0.0.0.j.0.0.0.j.0.j.e.0.0.0.0.j.0.0.0.0.0.0.0.z.z.j.j.j.j.j.0.4.6.0.0.0.0.0.0.0.",
"k.j.z.j.j.g.8.8.0.g.j.z.9.0.0.0.j.z.0.O.*.4.0.0.j.0.0.0.0.0.j.e.0.0.j.0.j.0.0.0.e.j.j.0.0.0.j.0.j.j.j.g.j.8.+.O.3.0.0.0.0.0.0.0.",
"z.0.j.0.j.g.8.j.j.j.j.0.0.0.0.4.j.z.5.|  .3.0.0.0.0.e.j.0.0.0.0.0.0.j.j.e.0.0.0.j.j.0.0.0.0.j.j.j.0.j.0.0.4.o.x O.0.0.0.0.j.0.0.",
"j.j.0.j.8.j.g.0.8.j.8.j.0.0.0.0.3.<.<.O.3.9.0.0.0.0.j.0.0.0.0.j.0.0.0.e.j.j.0.0.0.e.0.0.0.0.0.e.j.0.j.4.3.O.O.O.7.0.z.0.0.e.0.0.",
"j.0.0.j.g.j.0.8.j.j.0.0.0.0.4.4.O.x  .4.0.0.z.0.0.0.e.0.0.j.0.0.j.0.0.0.0.0.j.0.0.0.0.j.j.0.0.0.e.0.0.3. .x O.8.0.0.0.0.0.j.0.j.",
"0.j.j.8.0.8.j.j.8.0.j.0.0.0.0.0.3.o.:.9.z.z.0.0.0.0.0.0.0.e.0.0.e.0.0.0.j.0.j.e.0.0.0.0.j.e.0.0.j.j.j.4.O.O.4.0.0.0.0.j.0.e.0.0.",
"j.j.j.8.8.8.j.j.0.0.0.8.0.0.0.0.0.0.0.e.e.0.0.0.6.0.0.6.0.0.0.0.j.0.0.0.0.j.0.0.j.j.0.0.e.j.0.j.0.j.z.0.8.8.0.z.e.0.0.j.j.0.0.0.",
"j.8.0.j.j.j.j.j.g.0.j.0.0.0.0.0.j.z.e.0.0.0.6.0.0.0.0.0.0.6.0.0.0.0.0.j.0.0.0.0.0.e.j.0.0.j.0.0.j.e.0.0.z.e.e.z.j.0.0.0.0.0.0.z.",
"g.0.8.j.j.j.8.j.j.0.0.0.0.0.0.j.9.0.0.0.6.0.0.0.0.0.0.e.0.6.6.0.0.j.e.j.e.j.0.0.j.j.0.0.0.0.0.j.0.j.0.z.j.z.0.0.j.0.0.0.j.0.0.0.",
"j.8.0.8.j.j.8.j.8.0.0.0.0.0.0.0.0.0.8.0.0.0.6.6.0.6.0.0.0.0.0.0.0.0.0.0.0.j.0.0.0.e.0.0.0.0.j.e.0.0.z.0.z.0.0.0.0.0.0.j.e.0.0.0.",
"0.0.0.0.j.0.0.0.0.0.0.0.0.0.0.0.0.0.0.0.0.0.6.0.0.0.0.0.0.0.0.e.0.0.0.0.0.0.0.z.0.0.e.j.0.0.0.0.0.0.0.z.0.z.0.0.0.e.0.0.j.0.0.e.",
"0.8.8.0.j.0.0.0.0.0.0.0.0.0.0.0.0.0.0.6.8.6.8.0.6.0.0.6.e.e.0.0.0.e.0.e.0.0.0.0.0.j.j.0.0.0.0.j.j.0.0.0.0.0.0.0.j.j.0.j.0.0.j.j.",
"0.0.0.0.0.0.0.0.8.0.0.0.0.0.0.0.0.0.0.0.0.6.6.0.0.0.0.0.a.u.y.y.-._ 0.0.0.j.0.0.0.0.e.j.0.j.0.0.0.0.0.0.0.0.0.j.0.0.0.e.0.j.0.0.",
"0.0.0.0.0.0.0.8.0.0.0.0.8.0.0.0.0.0.0.8.0.8.0.0.0.0.9.D.C.m.b.b.B.C.>._ 0.0.0.0.0.0.j.0.j.e.0.0.0.0.0.j.e.j.j.e.0.0.j.0.e.0.0.0.",
"0.0.0.0.0.0.0.0.0.0.0.0.0.0.0.0.0.0.0.0.0.6.6.0.0.2.S.G = # @ 2 V P M.v.;.0.0.0.0.j.0.0.0.0.0.j.0.0.0.0.0.0.j.0.0.0.0.0.j.0.j.0.",
"0.0.0.0.0.0.0.0.0.0.0.0.0.0.8.0.8.6.0.8.0.0.0.0.p.S.M + y R T U p - K ( v.A 0.0.j.e.0.0.0.0.j.e.z.0.0.0.0.0.0.0.0.j.0.j.0.0.0.0.",
"0.0.0.0.0.0.0.0.0.0.8.0.0.0.0.0.0.0.0.6.6.0.6.0.A.G $ R W ~ ! Y a r ; J ( V.2.0.0.0.0.0.0.j.0.0.0.0.0.j.e.j.0.0.0.z.0.e.0.0.0.e.",
"0.0.0.0.0.0.0.0.0.0.9.0.0.0.0.0.0.0.0.0.8.0.0.9.n.O u ! ~ ! Q I i r q 3 F m.q.0.0.j.0.0.j.e.0.j.0.0.j.e.j.0.0.0.0.0.j.0.0.0.j.j.",
"0.0.0.0.0.0.0.0.0.0.0.0.0.8.0.0.0.6.0.0.0.0.9.q.G 9 W ~ ! Q I a r w > 7 D ^ V.9.0.j.e.0.0.0.0.j.0.0.0.0.0.j.e.0.0.0.0.j.e.0.0.0.",
"0.0.0.0.0.0.0.0.0.0.0.0.0.6.0.0.0.0.0.8.0.0.0.,.N t ! ! Q I a r w > > 6 S l c.4.0.0.j.0.0.j.0.0.e.j.0.j.0.0.j.0.0.j.0.0.j.0.0.j.",
"0.0.0.0.0.8.8.0.8.0.8.6.0.0.8.0.6.8.0.6.0.6.0.P V u Q Q E a r w > > : , s l / 7.0.0.e.0.0.j.0.0.0.j.0.0.0.0.0.0.0.j.0.0.0.j.0.0.",
"0.0.0.0.0.0.0.0.0.0.0.0.0.6.6.0.0.0.0.6.0.0.0.H V t E I a i w > > : 1 , B k J 9.j.0.j.0.0.e.j.0.0.0.j.e.0.0.z.0.0.e.j.0.0.0.j.e.",
"j.0.0.0.0.0.0.0.0.6.0.8.6.8.0.0.0.0.8.0.6.0.0.m J 0 a a r q q > 6 1 , < h j C 9.0.0.0.0.j.0.0.0.0.0.0.e.j.j.0.0.0.j.0.0.0.j.e.j.",
"0.0.0.0.0.0.0.0.0.0.0.0.0.0.0.6.6.0.0.6.0.6.6.4.L 5 q w q > > : 1 , . . g S c j.j.e.0.j.0.0.0.j.j.0.0.0.0.0.j.0.0.e.j.0.0.0.0.0.",
"0.0.0.0.0.8.0.0.8.6.0.6.0.6.0.6.0.6.0.6.0.0.0.0.;.N.2 > > > 6 , , . * 8 f * #.0.0.j.0.j.0.0.0.0.0.0.0.0.0.j.0.0.0.0.0.0.e.0.0.0.",
"0.0.0.0.0.0.0.0.0.0.0.0.0.6.0.0.0.0.8.0.6.0.0.9.<.H Z.2 : 7 1 , < < 3 e * z 0.0.0.0.0.0.j.e.0.0.e.j.0.j.0.0.e.j.0.j.j.0.j.0.0.j.",
"0.0.0.0.0.8.0.0.0.6.0.0.6.0.0.0.6.0.0.0.6.0.0.6.e.3.n A Z v 4 4 6 d d % _ 8.0.0.0.0.0.0.0.0.0.0.0.0.0.0.0.j.0.0.0.0.0.0.0.0.0.0.",
"8.0.0.0.0.6.0.0.0.0.0.8.6.0.0.z.0.0.0.6.8.3.3.8.0.0.0.x 2 s f d 7 &   o.e.0.0.0.0.7.4.6.0.0.0.0.j.0.0.0.0.0.0.j.0.0.0.j.0.j.0.0.",
"0.0.0.0.6.0.0.0.0.0.0.6.0.0.0.z.j.z.0.0.*.O. .3.j.0.0.j.e.0.0.j.j.0.0.0.0.0.0.0.4.O.X.3.4.0.0.0.0.0.0.0.0.0.0.8.0.0.0.0.j.e.j.0.",
"0.6.6.8.0.8.0.6.8.6.0.0.8.0.e.z.z.e.9.4.+.O.O.3.0.0.0.e.j.0.0.0.0.0.0.0.j.0.0.j.8.+.O.+.3.4.0.0.0.0.0.0.0.0.0.0.0.0.0.0.j.0.0.0.",
"6.0.0.0.0.0.0.0.0.0.6.0.6.0.6.0.0.e.7.O. .+.4.6.0.0.0.j.0.0.0.j.0.0.0.0.0.j.j.e.0.4.3.O. .:.0.4.8.6.0.0.0.0.0.j.0.0.0.z.0.0.0.j.",
"8.0.6.0.6.8.0.6.6.8.0.8.0.0.0.0.0.0.3. .O.4.0.0.0.0.0.0.j.0.0.j.0.0.0.j.0.0.0.0.0.0.4.O.| O.0.4.8.8.0.0.8.0.0.8.0.0.0.0.0.0.e.0.",
"0.0.6.8.0.0.0.6.0.0.0.8.0.6.0.4.0.0.8.3.4.9.0.0.0.z.j.0.0.e.0.e.j.0.0.e.0.0.j.0.0.j.0.7.3.7.0.0.4.4.0.0.0.0.0.8.0.8.0.0.0.0.j.0.",
"0.0.0.0.0.0.0.8.6.0.0.6.0.0.8.8.0.0.z.j.z.z.z.z.0.0.0.0.0.j.0.0.0.0.0.j.e.j.0.0.0.e.j.0.0.0.e.0.0.0.8.0.0.0.0.0.0.0.0.0.0.j.0.0.",
"0.0.0.0.0.0.6.6.0.0.0.0.0.0.8.8.0.0.0.0.0.z.z.e.j.0.0.0.j.0.0.0.0.0.0.z.e.0.0.0.0.0.0.9.0.0.j.9.0.8.9.j.0.0.0.0.0.8.0.0.0.j.0.j.",
"0.0.0.6.0.0.0.8.6.0.0.9.0.6.6.8.0.j.0.0.0.0.0.0.0.j.0.0.e.0.0.j.0.0.0.0.j.0.j.0.0.0.4.8.8.0.z.0.8.0.0.0.j.0.8.j.0.0.0.0.j.0.0.j.",
"z.j.0.0.0.0.6.8.+.3.0.z.j.0.9.0.0.e.z.0.0.0.0.0.0.0.j.0.0.0.0.0.0.j.0.0.0.0.0.0.0.4.4.8.0.0.0.0.0.0.j.j.j.j.4.*.4.8.j.j.0.g.j.j.",
"z.j.j.j.0.0.8.+. .X.8.z.z.9.j.j.j.0.0.j.j.0.z.0.j.z.j.e.j.0.z.j.j.e.0.0.z.j.z.0.0.0.0.0.0.0.0.0.0.j.9.k.x.l.$. .*.0.0.8.0.j.g.j.",
"j.z.j.e.z.0.8.4.X.X.$.2.9.0.0.j.j.e.j.j.0.z.j.e.0.z.0.0.z.0.e.j.z.e.j.j.0.e.j.0.0.0.0.0.0.0.0.0.j.j.h.h.9.7.$.X.3.0.j.j.g.j.k.z.",
"j.j.z.z.z.j.0.8.7.*.o...$.h.j.j.0.z.j.e.0.0.j.0.0.0.z.0.j.e.0.z.0.j.j.e.z.0.j.0.0.0.0.0.8.0.0.0.j.9.0.7.o...<.4.0.j.j.j.j.z.j.l.",
"j.j.z.z.z.j.0.0.0.7.o.| $.0.9.j.j.j.j.e.z.0.0.z.z.j.j.0.j.0.0.0.j.j.j.0.z.0.e.j.0.0.0.0.0.0.0.8.0.0.9.2.o...<.j.j.j.j.x.j.l.x.l.",
"j.j.0.0.e.0.0.0.0.0.3.3.9.9.0.z.e.j.j.0.z.0.0.z.0.e.0.z.0.z.z.0.j.e.0.z.0.j.j.0.0.0.0.0.0.0.0.0.0.9.e.w.3.5.9.z.j.j.j.j.j.j.l.l.",
"6.0.0.8.j.8.8.j.0.j.e.e.0.0.0.0.j.e.j.j.j.z.j.0.0.0.0.z.0.z.e.j.e.j.0.z.0.0.0.0.0.j.0.0.0.0.0.0.0.e.w.w.e.e.e.j.j.0.g.j.j.l.g.l.",
"+.4.0.0.0.j.8.8.j.8.0.6.0.e.0.e.j.e.j.e.0.0.j.e.z.z.0.0.0.j.j.j.e.j.0.z.0.z.z.0.0.0.e.0.0.0.0.0.0.e.w.w.e.e.e.j.j.g.0.j.j.g.g.=.",
"{ +.0.0.0.8.8.g.8.8.8.4.6.e.e.e.0.j.0.j.z.j.0.0.0.0.z.0.z.0.0.e.j.j.j.j.0.z.0.0.0.0.0.0.0.0.0.0.0.e.w.w.w.w.6.j.0.g.j.j.j.j.8.} ",
"} *.8.0.0.0.g.8.8.0.0.6.6.w.e.0.0.0.j.0.0.0.j.z.j.z.j.j.e.j.j.z.j.e.e.j.0.0.0.z.0.0.z.0.0.0.0.0.0.e.e.e.w.w.j.j.g.j.g.0.j.g.=.} ",
"} *.8.0.0.0.8.j.0.0.6.w.w.w.w.0.0.j.j.j.j.0.j.0.j.j.z.0.z.0.j.0.j.0.0.z.z.z.0.0.j.0.j.0.0.0.0.0.0.e.e.6.6.9.j.g.g.g.j.j.0.9.=.X.",
"@.=.j.0.0.0.j.g.0.0.6.w.w.w.e.e.0.j.j.0.j.j.j.j.z.j.z.j.j.j.z.j.z.z.0.0.0.0.0.z.e.j.0.0.0.0.0.0.0.w.e.0.e.0.j.j.l.g.8.8.0.0.=.' ",
"' &.g.j.0.0.j.8.0.0.6.w.w.w.6.0.0.j.j.j.j.0.j.j.j.z.j.j.j.z.j.j.0.0.z.0.0.0.0.z.j.0.0.0.e.0.0.0.6.0.6.0.0.0.g.g.g.g.g.0.0.9.1.' ",
"X [ l.j.8.0.0.0.0.6.6.w.6.w.0.0.0.0.j.0.j.j.0.j.j.j.j.z.j.z.j.z.0.z.0.0.z.z.0.0.e.j.0.0.0.j.0.0.0.0.6.0.0.j.g.g.g.l.j.8.9.j.%.o "
};
