/* XPM */
static char *result[] = {
/* columns rows colors chars-per-pixel */
"64 64 144 2 ",
"   c #B47446",
".  c #BA7A47",
"X  c #CA8404",
"o  c #CF8B05",
"O  c #D59807",
"+  c #DF9B07",
"@  c #DA9B09",
"#  c #D68D17",
"$  c #D49510",
"%  c #D99A11",
"&  c #E39D08",
"*  c #EB9C0E",
"=  c #F1940E",
"-  c #F59C0C",
";  c #E68717",
":  c #E58A16",
">  c #EB8D15",
",  c #E3831A",
"<  c #E88818",
"1  c #EB9E13",
"2  c #EA941C",
"3  c #EB9B1B",
"4  c #F09411",
"5  c #F49910",
"6  c #DFAA07",
"7  c #DDAE0A",
"8  c #EAA10B",
"9  c #F7A20B",
"0  c #F8A30B",
"q  c #F6AB09",
"w  c #F9AA0A",
"e  c #E7B50C",
"r  c #F2B40A",
"t  c #FAB50C",
"y  c #FABA0D",
"u  c #F2A515",
"i  c #F7A811",
"p  c #F2AE1C",
"a  c #F9B116",
"s  c #DE8C3D",
"d  c #D9953A",
"f  c #DE9B3C",
"g  c #E19321",
"h  c #E29928",
"j  c #E08D3E",
"k  c #DEA424",
"l  c #EBA324",
"z  c #E3A925",
"x  c #E5A42D",
"c  c #EAAA2A",
"v  c #EDB22D",
"b  c #F5B821",
"n  c #F7BD28",
"m  c #E4A835",
"M  c #E8AC31",
"N  c #E9B63B",
"B  c #ECBC3D",
"V  c #F5BC31",
"C  c #EDC40F",
"Z  c #F6C60D",
"A  c #FAC30E",
"S  c #FBC310",
"D  c #F4CF13",
"F  c #FBCD11",
"G  c #F4D512",
"H  c #FDD612",
"J  c #FDDB13",
"K  c #FDE115",
"L  c #FCE518",
"P  c #EDC03E",
"I  c #F9CE36",
"U  c #F9C73F",
"Y  c #F8CB3C",
"T  c #B38154",
"R  c #DB9C4B",
"E  c #C28655",
"W  c #D88D55",
"Q  c #DB9F57",
"!  c #D3945E",
"~  c #DD965B",
"^  c #E88C42",
"/  c #EA8D4B",
"(  c #E59445",
")  c #E89546",
"_  c #E49549",
"`  c #EA954A",
"'  c #E59A4A",
"]  c #EC9A4B",
"[  c #F09D4E",
"{  c #E18D52",
"}  c #E79E52",
"|  c #EE9E52",
" . c #E29C5C",
".. c #ED9E5E",
"X. c #F39E51",
"o. c #F39C59",
"O. c #F4A04F",
"+. c #EDBD42",
"@. c #E6A255",
"#. c #EDA255",
"$. c #EBAC57",
"%. c #EEA35B",
"&. c #F5A354",
"*. c #F9A557",
"=. c #F5AC54",
"-. c #FBAE56",
";. c #F3A559",
":. c #FBA659",
">. c #F6A95B",
",. c #FEAD5D",
"<. c #F9B156",
"1. c #FCB15A",
"2. c #D49D67",
"3. c #E19C62",
"4. c #DDB363",
"5. c #ECA365",
"6. c #E6A468",
"7. c #EAAA6D",
"8. c #F4A664",
"9. c #FCA760",
"0. c #F4AA63",
"q. c #FFAD61",
"w. c #F4AB69",
"e. c #FEAE69",
"r. c #EBB966",
"t. c #E1B46C",
"y. c #FFB162",
"u. c #FCB26B",
"i. c #EDC343",
"p. c #F3CB44",
"a. c #F4CC4D",
"s. c #F9D249",
"d. c #F7C253",
"f. c #F5CC55",
"g. c #F2CF5C",
"h. c #F9D655",
"j. c #E8C166",
"k. c #EECB6B",
"l. c #F3C168",
"z. c #FDD963",
"x. c #F2D56F",
"c. c #FBDF6F",
"v. c #EECE72",
"b. c #F3CE7E",
/* pixels */
"T ! 5.8.q.,.,.-.,.,.y.e.e.e.q.q.q.q.9.,.q.q.q.:.q.q.q.q.q.:.q.q.q.,.,.q.,.,.,.q.,.,.,.q.q.,.,.,.q.,.,.1.,.,.1.1.,.,.1.y.q.8.3.E ",
"2.6.w.9.q.,.,.,.,.,.q.q.q.e.e.y.q.,.q.q.,.q.q.q.q.q.,.q.q.q.q.q.,.,.,.,.,.,.,.,.q.,.,.1.,.,.,.,.,.1.,.,.1.,.1.,.<.,.,.y.q.e.8.2.",
"7.w.e.q.q.,.,.,.1.,.y.q.q.u.q.q.q.q.q.q.q.q.,.,.q.q.q.q.q.,.q.9.q.,.,.,.,.,.1.q.,.,.q.,.,.,.1.,.,.,.1.,.1.,.1.q.1.,.,.,.q.9.9.w.",
"u.u.e.q.q.,.,.1.,.1.q.y.q.q.q.q.q.q.,.q.q.9.q.q.,.,.q.9.q.q.,.q.,.,.q.,.,.q.,.,.q.1.,.,.,.q.q.,.-.,.1.,.1.1.>.1.,.1.>.,.,.,.q.q.",
"u.u.q.q.,.q.q.q.q.1.q.y.q.q.q.y.q.,.9.,.q.,.q.,.q.q.q.,.q.q.q.,.q.,.1.q.,.q.,.,.,.,.,.,.,.,.1.,.,.,.-.,.,.-.y.,.y.>.,.,.,.:.,.q.",
"u.y.y.q.q.,.,.,.q.y.,.q.q.q.q.q.q.q.q.q.q.q.q.q.:.q.9.q.,.q.q.q.,.,.q.,.q.1.,.,.,.,.,.,.q.,.q.,.-.,.,.,.,.,.1.>.1.q.q.q.:.:.:.,.",
"y.,.,.,.,.*.&.&.,.,.,.q.q.,.q.q.q.q.q.q.:.q.q.q.q.q.q.,.q.:.q.q.q.,.,.,.,.q.q.,.*.] ] *.,.,.,.,.,.,.,.,.,.,.,.,.q.q.,.q.q.:.:.,.",
",.,.,.,.,.&.) ] *.*.,.,.q.q.q.q.q.q.:.q.:.q.9.q.q.q.q.q.q.q.q.q.,.,.,.,.q.1.,.,.&.j ( O.,.y.y.,.,.,.,.q.,.,.q.,.,.,.,.q.q.9.,.,.",
",.,.,.,.,.*.X.[ [ [ :.,.,.,.,.q.q.q.q.q.q.:.q.q.9.q.q.q.q.q.q.q.y.,.,.,.,.,.,.q.*.] ' [ X.*.,.q.q.q.9.q.q.9.,.,.,.,.,.q.q.q.9.q.",
"-.,.,.,.,.,.:.X.) ` X.,.:.:.:.q.:.q.:.q.q.q.:.q.q.,.q.q.,.q.,.q.,.,.,.q.q.,.,.,.,.-.&.) j ] ,.,.q.9.e.9.9.q.,.,.,.,.,.,.q.q.q.q.",
",.,.,.,.,.,.q.*.] [ :.:.,.*.,.q.q.q.q.:.,.q.,.,.,.,.q.,.,.q.q.q.,.q.,.,.1.q.q.,.,.,.*.[ ( &.1.q.q.q.e.9.9.9.,.,.,.,.,.,.q.9.q.,.",
"q.,.q.,.,.q.q.:.:.:.,.,.q.:.q.:.:.q.q.,.,.:.,.q.q.,.,.,.,.,.1.,.,.,.q.1.,.,.,.q.q.q.,.*.*.,.q.,.q.q.q.9.e.q.,.,.,.-.,.,.,.q.q.,.",
"q.q.1.0.q.q.,.,.,.,.q.y.,.q.>.q.q.,.,.,.,.,.,.,.,.,.,.q.,.,.,.,.,.,.1.q.,.q.q.1.1.q.,.,.,.y.y.q.,.q.9.q.q.q.q.,.,.,.,.,.q.q.,.,.",
"w.y.y.y.q.:.:.,.:.,.q.y.9.>.,.q.,.q.,.,.,.,.,.,.,.,.,.,.,.q.q.,.q.,.,.,.,.,.,.,.,.,.q.,.,.,.,.y.q.q.q.e.q.q.q.,.,.,.,.q.q.,.,.,.",
"y.0.0.1.,.:.:.:.:.,.q.y.q.q.q.>.>.q.,.>.:.,.,.,.,.,.,.,.q.1.,.q.1.,.,.,.,.y.,.,.q.,.1.,.,.,.,.,.q.q.q.q.q.q.,.*.-.,.,.,.,.,.,.,.",
"w.y.q.q.q.q.:.9.:.,.q.y.>.,.,.,.q.y.,.] O.*.q.,.,.,.q.,.,.,.,.,.q.,.,.q.,.,.,.,.,.,.q.,.,.,.,.q.q.q.q.q.q.:.[ ] &.,.,.,.,.,.,.,.",
"q.y.q.q.:.q.9.,.q.,.9.q.,.,.,.:.,.y.;.( ) &.1.q.,.,.q.,.,.,.q.,.,.,.,.q.,.,.,.,.q.,.,.,.,.q.q.,.q.,.q.,.,.;.` s ] ,.,.,.,.,.q.1.",
"q.,.,.q.q.:.,.9.,.9.,.,.,.,.,.,.&.#.| ] &.:.y.,.1.,.,.,.1.q.1.,.,.q.1.,.,.q.,.q.,.,.,.q.,.1.,.,.q.,.q.*.&.] ] ] *.,.y.,.,.,.,.,.",
"q.,.q.q.,.9.:.q.q.,.,.,.:.,.:.*.] s ( =.q.q.1.q.,.,.,.,.q.,.,.,.q.,.,.,.,.1.q.1.1.q.1.q.,.q.,.,.,.,.,.&.( j ] :.,.1.q.,.,.,.,.q.",
",.q.,.:.,.q.:.q.q.:.,.,.,.,.,.,.&.' &.:.y.1.,.,.,.,.,.,.,.,.,.,.,.,.,.,.q.q.,.,.,.,.,.,.,.,.,.q.,.q.q.*.] ] *.,.,.,.,.q.y.,.,.,.",
"q.q.q.:.:.9.,.q.,.:.q.,.,.,.,.,.,.,.,.1.1.,.,.,.,.,.,.-.,.,.,.,.,.,.,.,.q.,.q.,.,.,.,.1.,.,.,.q.1.q.y.,.:.:.,.y.1.,.,.,.,.,.,.,.",
":.,.9.q.q.q.q.:.q.q.q.,.,.,.,.,.q.y.1.,.,.,.-.,.,.-.1.,.,.,.-.,.1.q.q.,.1.,.,.,.q.,.,.q.q.,.,.1.,.q.,.,.q.1.1.y.q.,.,.q.,.,.q.,.",
"q.:.:.q.,.q.q.q.,.:.,.,.,.,.,.q.>.,.,.,.-.,.,.,.,.,.,.,.1.,.,.,.,.q.,.,.,.,.,.,.q.,.q.,.,.,.q.,.,.q.,.y.y.y.,.,.q.,.1.q.q.,.1.q.",
",.q.,.:.q.q.q.:.,.,.,.,.,.,.q.>.,.,.:.,.,.,.-.-.,.,.-.,.,.-.-.,.,.q.1.,.q.,.,.q.1.,.,.,.q.1.,.,.1.q.y.,.y.,.,.,.,.,.,.,.,.,.,.,.",
",.,.,.,.q.,.,.,.,.,.,.,.,.,.,.,.,.,.,.,.:.,.-.-.,.,.,.-.,.,.,.,.,.,.,.,.,.,.,.1.,.,.,.q.1.q.,.,.1.,.,.q.q.1.,.,.,.q.q.q.,.,.,.q.",
":.,.:.,.,.,.,.,.,.,.,.,.,.,.,.,.,.,.,.-.,.-.:.,.,.,.,.,.,.,.1.,.,.,.,.y.,.q.,.q.q.,.,.,.,.,.,.q.q.,.,.q.q.,.q.q.,.,.1.,.,.,.1.,.",
",.,.,.,.,.,.,.,.,.:.,.,.,.:.,.,.,.,.,.,.,.,.-.,.,.,.,.,.>.t.4.4.4.Q >.1.,.,.,.q.1.q.q.,.,.,.,.q.,.q.,.1.,.,.,.1.1.,.q.,.,.,.q.,.",
",.,.,.,.,.,.,.:.,.,.,.,.,.,.,.,.,.,.,.:.:.-.,.,.,.,.-.b.c.h.p.p.p.h.z.$.>.,.,.,.,.,.,.,.q.,.,.1.,.,.q.,.,.,.q.,.q.,.,.,.,.q.,.,.",
",.,.,.,.q.,.,.,.,.,.,.,.,.,.,.,.,.,.,.,.,.-.-.,.-.;.k.a.k $ O O % z i.s.d.;.q.q.,.q.1.,.,.q.,.,.,.q.1.q.q.q.,.,.,.,.q.1.,.q.,.,.",
",.,.,.,.,.,.,.,.,.,.,.,.:.,.:.,.-.,.,.:.,.,.,.,.,.x.i.X 7 C D D Z r & N I f.>.,.,.,.q.,.,.1.q.,.,.,.,.,.1.,.,.,.,.,.q.,.1.q.,.,.",
",.,.,.,.,.,.,.,.,.,.:.,.,.,.,.,.:.,.,.-.-.,.,.,.r.a.$ e G K J H F t q 1 i.Y l.q.,.,.1.,.,.,.,.,.1.,.,.,.,.,.,.,.,.q.,.,.,.,.,.q.",
",.,.,.,.,.,.,.,.,.,.,.,.,.,.,.,.,.,.,.,.:.,.-.;.g.k 6 G L L J F y t q - 3 Y z.>.q.,.q.,.,.q.q.,.q.,.,.q.,.q.,.q.1.,.,.q.,.q.1.,.",
",.,.,.,.,.,.,.:.,.,.,.,.-.,.,.,.,.,.,.:.-.,.,.} a.o C K K J F S y q 0 - = v U r.q.,.,.1.q.q.q.,.,.1.q.q.q.,.,.q.,.q.q.,.,.q.,.q.",
",.,.,.,.,.,.,.,.,.,.-.,.:.,.,.,.,.,.,.-.,.,.,.R P @ D K J F S y q 9 - = = l n j.,.,.,.,.,.,.,.,.,.,.,.,.,.,.,.1.,.,.,.,.,.1.,.,.",
",.,.,.,.,.,.,.,.:.,.,.:.,.,.-.:.-.,.,.,.,.-.-.R B & F H F S y w 9 - - = > 3 a j.q.,.,.,.,.q.,.,.q.1.,.,.,.,.,.,.,.q.1.,.,.q.,.,.",
",.,.,.:.,.,.,.,.,.,.,.,.-.,.,.,.,.:.-.,.,.:.,.R +.+ S F A y w 0 - - = > > 3 b r.1.,.q.,.,.,.1.q.,.,.q.,.q.1.q.,.,.,.q.,.,.1.q.,.",
",.,.,.,.,.,.,.,.,.,.-.:.,.-.:.-.-.-.,.:.,.-.,.} P @ r y t w 0 0 - 4 > ; , u V $.,.1.q.,.,.q.,.,.,.,.,.q.,.1.,.,.1.,.q.,.,.,.,.,.",
",.,.,.,.:.,.,.,.,.,.,.,.,.-.,.,.,.,.-.,.,.-.,.*.m N 8 t 0 0 - 5 4 > ; , : a +.9.,.,.q.,.,.q.1.,.,.q.,.,.,.q.,.,.q.,.,.,.,.q.q.1.",
",.,.,.,.,.,.,.,.:.,.,.,.,.,.-.,.,.,.,.,.,.,.,.,.' N x - 0 - 5 1 > ; , , u p @.q.q.,.q.1.,.,.,.,.,.1.q.,.,.,.,.y.,.q.,.,.,.,.,.q.",
",.,.,.,.,.,.,.,.,.,.,.-.-.,.,.,.-.:.,.-.-.,.,.,.-.f v.h = 5 4 > < , , u i f ,.q.,.,.,.,.q.,.,.,.,.,.q.,.q.,.,.,.,.,.q.1.q.,.,.,.",
",.,.:.,.,.,.,.,.,.,.-.-.:.,.,.,.,.,.,.-.,.,.-.,.,.:.f M c l 3 2 2 3 i 1 d ,.,.q.,.,.,.,.,.,.,.,.,.,.,.,.,.,.q.,.,.,.,.,.,.,.,.,.",
",.,.,.,.,.,.,.-.,.:.,.,.-.,.,.1.,.,.,.,.*.*.&.-.,.,.,.#.g 3 u u u * # } ,.,.,.,.,.*.;.*.:.,.,.,.,.q.,.,.,.,.,.,.,.q.,.,.q.,.,.q.",
"*.-.,.,.-.,.:.,.,.,.,.:.,.,.,.y.1.y.,.:.&.[ ) &.1.q.q.,.y.,.,.q.,.q.,.,.1.q.,.,.*.[ ] &.,.,.,.,.q.,.,.,.,.,.q.,.,.,.,.,.1.,.,.,.",
",.,.,.-.:.,.-.,.-.,.,.-.,.,.,.y.y.y.:.&.[ ) ] &.,.,.,.,.,.,.,.1.,.,.,.,.,.,.q.,.*.[ ] [ &.;.,.,.,.,.,.,.,.,.:.,.,.,.,.,.q.q.,.,.",
",.,.-.,.,.,.,.-.,.,.,.,.,.,.,.,.,.,.*.' ) [ &.-.,.q.1.,.q.1.,.,.,.,.,.,.q.,.q.,.,.*.&.] ) O.,.:.*.,.:.,.,.,.,.,.,.,.,.,.,.q.,.,.",
"-.,.:.-.,.-.,.:.:.-.-.,.-.,.-.,.,.,.&.) ] *.,.,.,.,.q.,.,.,.q.,.q.,.,.,.q.1.q.1.,.,.*.' ( ] -.:.*.,.,.,.,.,.:.,.,.,.,.,.,.,.,.,.",
",.,.,.,.:.,.,.,.,.,.:.-.,.,.:.*.,.,.,.&.*.>.q.,.,.,.,.,.,.,.,.,.,.,.1.,.,.q.,.,.,.q.,.*.&.*.,.:.:.:.:.,.,.,.,.,.,.,.,.,.,.,.1.q.",
",.:.,.,.,.,.,.-.-.,.,.,.,.-.,.*.,.q.q.1.y.y.y.y.,.,.y.,.,.q.,.,.,.,.q.q.,.,.,.,.,.1.q.,.,.,.y.,.-.:.,.,.,.,.:.,.:.,.,.q.,.,.,.q.",
",.,.,.,.,.,.-.-.,.,.,.,.-.,.,.:.,.,.,.,.q.y.y.y.,.,.,.,.,.,.,.y.q.1.,.q.,.,.,.y.,.,.,.,.,.q.y.1.,.:.,.,.,.,.,.q.,.,.,.,.q.,.q.,.",
",.,.,.,.,.-.,.:.-.,.,.>.,.>.,.*.,.,.,.,.,.,.,.,.,.,.,.,.,.,.,.,.,.,.,.,.,.,.,.,.,.;.*.:.:.,.q.,.,.,.,.,.,.q.,.:.q.:.,.q.,.q.q.q.",
"y.,.,.,.,.,.,.*.[ &.,.q.9.,.-.,.,.q.y.,.,.,.,.,.,.,.y.,.,.,.,.,.q.,.,.,.,.q.,.,.,.:.:.-.:.,.,.,.,.,.0.q.y.q.;.X.*.,.:.:.,.q.q.q.",
"y.y.q.,.,.,.:.X.) ` ,.y.y.>.,.q.q.1.,.,.,.,.y.,.,.,.y.,.y.,.y.,.y.,.,.y.q.1.,.,.,.,.,.,.,.,.,.,.,.>.,.w.y.w.X.) X.,.,.,.,.9.q.q.",
"q.y.q.y.1.,.:.*.] ' #.;.>.,.,.q.,.y.,.,.,.y.y.,.y.,.q.y.,.,.y.,.,.,.y.,.y.,.,.,.,.,.,.,.,.,.,.,.q.q.q.0.>.;.| ` &.q.q.q.,.q.q.e.",
"q.q.y.y.y.q.,.:.&.#._ _ | 0.0.q.q.y.,.y.,.,.,.,.q.1.q.1.,.y.,.,.y.,.y.,.,.,.y.,.,.,.,.,.,.,.,.:.q.>.>.;.} ' | >.,.q.q.q.0.q.q.e.",
"q.q.y.y.y.,.,.,.,.&._ _ | ,.>.y.,.,.y.,.y.,.q.y.q.q.q.q.,.,.y.y.,.y.,.,.q.y.q.1.,.,.,.,.:.,.,.,.,.,.>.%._ R &.q.q.q.q.e.q.e.u.e.",
"q.q.,.,.1.q.,.,.,.,.&.#.*.,.,.y.y.,.,.,.y.,.q.1.q.1.1.q.y.,.,.,.,.,.,.y.q.1.q.,.q.,.,.,.,.,.,.,.,.>.1.<.=.&.:.q.q.q.q.q.q.q.e.e.",
"-.,.,.:.q.:.:.q.q.q.,.1.,.,.,.1.q.,.1.y.,.,.q.q.,.,.,.y.y.,.1.q.y.,.,.y.,.,.,.,.q.,.q.,.,.,.:.,.,.<.<.1.1.1.1.q.q.,.q.q.q.9.e.e.",
"[ *.,.,.,.,.:.9.:.:.,.,.-.1.1.,.q.1.q.q.,.y.1.q.y.y.,.,.,.q.q.q.y.,.,.y.,.y.y.,.1.,.,.,.,.,.,.,.,.<.1.1.1.1.1.q.,.q.q.,.q.q.9.o.",
"^ [ ,.,.,.:.:.:.9.:.:.-.-.1.,.1.,.q.q.,.,.y.,.q.,.,.y.,.,.y.q.1.,.,.,.,.,.y.,.,.,.,.,.,.,.,.,.,.,.<.<.1.<.<.-.q.9.9.q.q.q.9.o./ ",
"/ X.:.,.,.,.9.:.,.,.-.*.<.<.,.1.,.q.,.,.q.,.q.1.q.y.,.q.y.,.,.y.,.y.y.,.,.,.,.y.q.,.,.,.,.,.,.,.,.<.<.<.<.<.,.q.q.9.9.,.q.9.:./ ",
"/ o.,.,.,.,.:.q.,.,.-.<.<.<.<.,.,.q.q.q.q.q.q.q.q.q.y.q.y.q.q.,.q.q.q.1.y.y.,.,.,.,.q.,.,.,.,.,.,.,.<.1.1.>.q.q.9.9.q.,.,.:.o.` ",
"{ o.:.,.,.,.q.9.,.,.-.<.<.-.<.1.,.q.,.q.q.,.q.q.y.,.y.q.q.q.y.q.y.1.q.q.,.,.,.y.q.,.1.q.,.1.,.,.,.1.<.,.-.,.q.9.9.9.,.,.,.:.;.W ",
"W ..q.,.,.,.,.:.,.,.<.<.<.<.,.1.,.q.q.q.,.q.,.q.,.y.q.q.q.y.q.y.q.,.1.q.,.q.,.y.1.q.q.1.,.,.,.,.-.,.,.,.,.,.9.9.e.9.9.:.,.9.%.W ",
"  ~ e.q.:.,.,.,.,.,.-.-.-.<.,.,.,.q.,.q.,.q.q.q.q.q.q.y.q.y.q.q.q.1.q.,.y.q.1.,.q.,.,.,.q.,.,.,.,.,.-.,.,.q.9.9.e.9.9.:.,.0. .. "
};
