/* XPM */
static char *result[] = {
/* columns rows colors chars-per-pixel */
"64 64 151 2 ",
"   c #B47446",
".  c #BA7A47",
"X  c #D1910F",
"o  c #D79F0E",
"O  c #DB8614",
"+  c #DB9B19",
"@  c #E2890A",
"#  c #EA9507",
"$  c #ED970E",
"%  c #E59C0A",
"&  c #EB980C",
"*  c #F59C0D",
"=  c #E68617",
"-  c #EA8D14",
";  c #E4841A",
":  c #E5891C",
">  c #EF9312",
",  c #E59C16",
"<  c #EA9C16",
"1  c #E5941B",
"2  c #F19410",
"3  c #F49910",
"4  c #DAA40B",
"5  c #DDA80B",
"6  c #DEA219",
"7  c #E1A50A",
"8  c #EAA60B",
"9  c #E3AF0A",
"0  c #F3A807",
"q  c #F7A20B",
"w  c #F8A10A",
"e  c #F6AA0A",
"r  c #F8AA0A",
"t  c #F1B008",
"y  c #F9B50C",
"u  c #FABA0D",
"i  c #F1A61A",
"p  c #F4AE1D",
"a  c #CD8A27",
"s  c #DC8727",
"d  c #D18C2A",
"f  c #DF9020",
"g  c #D49428",
"h  c #DD962A",
"j  c #DE8C3D",
"k  c #DA9033",
"l  c #DC933A",
"z  c #E3902E",
"x  c #E08D3E",
"c  c #E19D39",
"v  c #D4A42C",
"b  c #D7A734",
"n  c #EAA423",
"m  c #ECAC20",
"M  c #F2AD21",
"N  c #EBB02C",
"B  c #FAB823",
"V  c #F0B229",
"C  c #E4A034",
"Z  c #E9AC37",
"A  c #E7AB3B",
"S  c #ECA83F",
"D  c #E8B337",
"F  c #E1B53C",
"G  c #E8BC3A",
"H  c #F7BD33",
"J  c #EBC10D",
"K  c #F6C40F",
"L  c #FBC20E",
"P  c #FBCD0F",
"I  c #F1CD10",
"U  c #FCCC11",
"Y  c #F6D010",
"T  c #FCD413",
"R  c #FCDB14",
"E  c #FDE115",
"W  c #EBC03C",
"Q  c #F1C43E",
"!  c #F8C63B",
"~  c #B38154",
"^  c #D78D44",
"/  c #D69045",
"(  c #DA9145",
")  c #C28655",
"_  c #D88D55",
"`  c #D3945E",
"'  c #DD965B",
"]  c #EA8D4B",
"[  c #E59445",
"{  c #E89546",
"}  c #E49549",
"|  c #EA954A",
" . c #E6994C",
".. c #EC9A4B",
"X. c #F09D4E",
"o. c #E18D52",
"O. c #EE9E52",
"+. c #E29C5C",
"@. c #F39E51",
"#. c #F39C59",
"$. c #DBAF42",
"%. c #EDAD43",
"&. c #E6A24B",
"*. c #EEA24E",
"=. c #F4A04F",
"-. c #EAB34B",
";. c #ECA153",
":. c #EDA15C",
">. c #EEAD5A",
",. c #F5A354",
"<. c #F9A557",
"1. c #F5AC54",
"2. c #FBAE56",
"3. c #F4A559",
"4. c #FBA659",
"5. c #F6A95B",
"6. c #FEAD5D",
"7. c #F9B156",
"8. c #FCB15A",
"9. c #D49D67",
"0. c #E19C62",
"q. c #ECA365",
"w. c #E6A468",
"e. c #EAAA6D",
"r. c #F4A664",
"t. c #FCA760",
"y. c #F4AA63",
"u. c #FFAD61",
"i. c #F4AB69",
"p. c #FEAE69",
"a. c #F6B163",
"s. c #FEB162",
"d. c #FCB26B",
"f. c #EEC44C",
"g. c #F7C644",
"h. c #ECCD57",
"j. c #F0CC53",
"k. c #FAD050",
"l. c #F9D45A",
"z. c #F6D95E",
"x. c #FCD95D",
"c. c #EBC46A",
"v. c #F2DA65",
"b. c #FBDD60",
"n. c #F3DD71",
"m. c #FBDF7C",
"M. c #FBE26A",
"N. c #F7E172",
"B. c #F9E37B",
"V. c #FCE878",
"C. c #FDEC8C",
/* pixels */
"~ ` q.r.u.6.6.2.6.6.u.s.p.p.u.u.u.u.u.u.u.u.u.u.u.t.u.u.6.u.u.6.6.6.6.u.6.6.6.u.u.u.6.6.6.u.u.6.6.6.8.6.8.6.6.6.6.8.8.u.u.r.0.) ",
"9.w.i.t.u.6.6.6.2.6.u.d.u.p.u.p.u.u.u.4.u.u.u.u.6.u.u.6.u.u.t.u.6.u.6.6.6.6.u.8.8.6.6.6.8.6.8.6.6.6.8.6.6.6.8.8.8.6.6.u.u.p.r.9.",
"e.i.p.u.u.6.6.8.6.8.u.u.p.u.s.u.u.6.u.u.u.u.u.u.6.u.u.u.6.u.u.6.u.6.6.6.6.6.6.6.6.6.6.6.u.6.u.6.6.6.6.6.8.8.8.8.6.8.6.6.u.u.t.i.",
"d.d.p.u.u.6.u.6.8.u.s.u.u.p.u.u.u.u.u.u.u.6.4.u.u.t.u.6.u.t.u.u.6.6.u.6.6.u.6.6.6.6.6.6.6.6.6.6.2.6.6.8.5.8.u.u.8.5.8.6.4.u.u.u.",
"d.d.u.u.6.u.u.6.6.s.u.u.u.s.u.u.6.u.u.u.u.u.4.u.u.u.6.u.t.u.u.u.u.6.6.u.8.u.6.6.6.6.6.6.u.6.6.6.6.6.6.2.6.6.u.8.s.5.6.6.6.4.4.u.",
"d.s.s.u.u.6.6.6.u.u.8.s.u.u.u.u.u.u.u.4.u.u.u.u.u.6.u.u.u.6.u.u.6.6.u.8.u.6.6.6.6.6.6.6.6.6.6.6.2.6.6.6.8.6.8.5.u.u.u.u.6.4.4.6.",
"s.6.6.6.6.<.,.,.4.6.6.u.u.6.u.u.u.6.u.6.6.t.u.6.u.u.u.u.u.u.u.u.u.6.6.6.6.6.6.u.<...X.,.6.6.8.u.6.6.6.6.6.6.6.u.5.s.6.u.u.4.4.6.",
"6.6.6.6.6.,.{ ..,.6.6.6.u.u.u.6.u.t.6.t.6.u.u.u.u.4.u.u.u.6.u.4.u.8.6.u.6.6.u.8.,.[ x ,.6.s.u.6.6.6.6.6.6.6.6.6.6.6.6.u.u.6.u.6.",
"6.6.6.8.u.<.@.X.X.X.4.6.6.6.6.6.4.u.u.u.u.u.u.u.u.6.u.6.u.u.u.u.u.6.6.u.6.6.6.u.<.X.....X.,.8.u.u.u.u.t.t.4.6.6.6.6.6.u.u.u.t.u.",
"2.6.6.6.6.4.4.@.{ | ,.4.4.4.6.t.u.6.u.4.u.4.4.u.u.u.u.u.6.u.6.u.6.6.6.6.u.6.6.6.6.5.,.{ x X.u.6.4.u.p.t.t.u.6.6.6.6.6.6.u.u.u.u.",
"6.6.6.6.6.6.6.<.X.X.<.6.4.6.4.u.6.t.u.6.u.4.u.u.6.6.u.u.u.6.u.6.6.6.8.u.8.u.u.6.6.6.<...[ ,.6.u.u.u.t.p.t.p.u.6.6.6.6.6.u.t.u.6.",
"u.6.u.6.6.u.u.6.<.4.6.u.u.4.4.6.u.u.4.u.6.6.6.6.6.6.6.6.6.6.6.6.6.u.6.6.6.6.6.u.s.6.8.4.,.6.s.6.u.u.t.p.u.u.6.6.6.2.6.6.u.u.6.6.",
"u.u.y.s.6.6.u.u.6.u.s.s.t.5.u.u.6.u.6.6.6.6.6.6.u.6.6.6.6.6.8.6.6.6.6.6.6.u.u.8.6.u.s.6.6.6.6.s.u.u.t.u.u.u.u.6.6.6.6.u.u.u.6.6.",
"u.a.y.s.u.6.4.4.4.6.u.s.u.5.u.6.u.6.4.6.6.6.6.6.6.6.6.u.6.6.u.u.6.s.u.8.6.6.6.6.6.6.6.6.6.6.s.u.u.u.u.p.u.u.u.6.6.6.6.6.6.u.6.6.",
"s.y.s.5.u.4.4.4.4.6.6.s.s.5.5.u.6.u.6.4.4.6.6.u.6.6.6.6.6.u.8.6.6.6.6.6.6.u.u.6.8.6.6.6.6.6.6.6.s.u.u.u.u.6.6.<.2.6.6.6.6.6.6.6.",
"u.s.s.u.u.t.4.4.u.4.u.u.u.6.6.6.s.s.5.X.@.,.6.6.6.u.6.6.6.6.u.u.6.6.6.u.6.8.6.6.u.6.u.6.6.6.s.6.u.u.u.t.u.4.X...,.6.6.6.6.6.6.6.",
"u.u.6.u.6.u.t.6.u.4.u.4.u.6.6.<.u.s.5.[ { ,.8.6.6.6.6.6.6.6.6.6.u.8.6.u.6.6.s.6.6.u.6.u.8.6.6.u.u.6.u.6.6.<.| j ..6.6.6.6.6.6.6.",
"u.u.u.u.6.4.6.t.u.u.u.6.6.6.6.6.,.;.;...,.4.u.6.6.6.6.8.6.u.6.6.6.6.6.6.6.6.6.6.6.6.6.8.u.6.6.6.u.6.u.<.,...| ..,.s.s.6.6.6.u.8.",
"u.u.5.6.6.t.4.u.6.4.6.6.6.6.4.<...j [ <.6.6.s.6.6.6.6.6.6.6.8.u.u.6.6.6.6.6.6.6.6.6.u.6.u.6.6.6.6.6.6.,.[ x ..6.6.8.u.u.6.6.6.6.",
"u.t.u.6.4.u.4.u.u.u.4.6.6.6.6.6.,...*.5.s.u.8.6.6.8.6.6.6.6.6.6.6.6.6.u.8.u.u.6.u.8.6.6.6.6.u.8.8.u.u.<.....,.6.6.6.6.6.6.6.6.u.",
"u.u.6.u.u.4.u.u.4.u.6.6.6.6.6.6.6.5.6.6.8.8.6.6.6.2.6.6.6.2.6.6.6.8.u.6.u.6.8.6.u.6.6.6.6.6.6.6.u.u.s.6.4.4.6.s.8.6.6.6.s.6.6.6.",
"t.u.4.4.u.u.u.4.u.6.u.6.6.6.6.6.s.s.8.6.6.6.6.6.6.8.6.6.6.6.8.6.6.6.u.6.6.6.u.6.6.6.6.u.6.u.6.u.6.6.6.6.u.8.8.s.u.6.6.s.6.6.6.6.",
"6.4.6.u.4.u.u.u.4.u.6.6.6.6.6.u.6.6.6.6.6.2.6.2.6.6.6.6.6.6.6.6.8.6.6.6.6.6.8.6.6.u.8.u.8.u.6.u.6.6.6.s.s.s.6.6.6.u.6.6.6.6.u.6.",
"6.u.4.u.u.u.u.4.6.6.6.6.6.6.6.6.6.6.6.4.2.6.2.6.6.6.2.6.6.2.2.6.6.u.6.6.6.u.u.6.6.6.6.6.6.6.6.6.s.6.s.6.s.6.6.6.6.6.6.6.u.6.u.8.",
"4.6.4.6.u.6.6.6.6.6.6.6.6.6.6.6.6.4.6.6.2.4.6.6.6.6.2.6.6.6.2.6.6.6.6.6.6.6.6.6.6.6.6.6.6.6.6.6.u.6.6.6.8.u.u.8.6.6.6.8.u.6.6.6.",
"6.6.6.6.u.6.6.6.6.6.6.6.6.6.6.6.6.6.6.6.6.6.2.4.6.6.6.6.6.6.6.6.6.u.s.8.6.u.8.6.u.8.u.6.6.s.u.8.6.6.6.s.u.6.6.u.u.6.6.6.u.6.u.6.",
"6.6.6.6.6.6.6.6.6.6.6.6.6.6.5.6.6.6.6.2.6.2.2.6.6.6.,.;.c.B.v.f.W Q k.a.s.6.u.u.u.6.6.6.6.6.6.6.8.u.6.6.6.6.6.6.6.6.6.6.u.6.6.8.",
"6.6.6.6.6.6.6.6.6.6.6.4.6.6.6.6.6.6.6.6.2.6.6.2.6.3.S B.N.$.X o 7 7 % N g.a.6.6.6.6.6.u.6.6.6.u.6.6.6.6.6.u.6.6.8.u.6.u.6.6.6.u.",
"6.6.6.6.6.6.6.4.6.6.6.6.6.6.6.6.4.6.6.2.6.2.6.6.5.S m.n.v 4 J I Y K 0 % m H u.6.6.6.6.u.8.6.6.u.6.6.6.6.6.s.6.6.6.u.6.6.6.8.u.u.",
"6.6.6.6.6.6.6.6.6.4.6.6.6.4.6.6.6.6.6.6.6.4.6.6.>.B.B.b 5 I E R R P u e & m %.6.u.6.6.8.u.6.6.6.u.6.u.8.6.6.6.6.6.u.8.6.6.6.6.6.",
"6.6.6.6.6.6.6.6.6.6.6.6.6.6.6.u.6.6.6.6.6.6.6.6.j.C.h.4 I E E R P L y r q @ M u.6.6.u.6.u.6.6.6.u.6.u.6.u.6.u.8.6.6.u.6.u.8.6.6.",
"6.6.6.6.6.6.6.6.6.6.6.4.6.6.6.4.6.6.2.4.6.2.4.,.b.V.F 9 R E R U L y e q * 2 i *.u.8.6.6.6.6.u.8.6.6.6.6.6.6.6.6.u.6.6.6.6.6.u.6.",
"6.6.6.6.6.6.6.4.6.6.6.6.6.6.6.6.6.6.6.2.6.6.6.&.z.M.h J R R T L y e q * * > , f 6.6.u.6.6.8.6.6.u.6.6.8.6.6.u.6.6.8.6.6.u.6.6.8.",
"6.6.6.6.6.6.6.6.6.6.6.4.6.2.6.4.6.4.6.6.2.2.6.&.j.z.6 J T P L u e q * 3 2 - , O 6.u.6.6.u.u.6.u.6.6.u.u.6.u.6.6.u.u.6.u.6.6.u.u.",
"6.6.6.6.6.6.6.6.6.2.2.6.2.4.6.6.2.6.2.6.6.6.6...G x.6 t U L y r q * * 2 - : n z 6.8.6.6.6.6.6.8.6.u.6.6.6.8.6.6.6.6.6.8.6.u.6.6.",
"u.6.6.4.6.6.6.6.6.4.6.6.6.6.2.6.2.6.4.6.6.2.6.4.v l.H 8 u y r q * * > - = : n ,.u.6.6.6.6.6.u.6.8.6.6.6.u.6.6.6.6.6.u.6.8.6.6.6.",
"6.6.6.6.4.6.6.6.6.6.6.6.2.6.6.6.4.6.2.6.2.6.6.6.h f.! & e e w * 3 2 - ; ; A : 6.6.6.6.u.u.8.6.6.u.6.6.6.6.u.u.u.6.6.6.6.u.6.u.6.",
"6.6.6.6.6.6.6.6.6.6.4.2.6.6.4.2.6.6.2.6.6.6.2.6.3.h g.m # q * * 2 - ; ; l Z ;.6.6.u.8.u.u.6.6.6.6.6.6.6.8.6.8.6.6.6.u.u.6.6.6.6.",
"6.6.6.6.6.6.6.6.6.2.6.6.6.2.6.2.2.6.4.6.6.2.6.6.6.( g H p $ 2 2 - ; ; c -.k 6.6.6.6.6.u.6.6.6.6.u.6.6.6.u.6.u.6.6.s.6.8.6.6.6.8.",
"6.6.6.6.6.6.6.6.4.6.6.6.6.2.6.6.4.6.2.6.6.2.6.6.6.6.^ a V B M 1 O C D < s u.6.6.6.u.8.6.6.6.6.6.6.6.s.6.6.6.6.6.6.6.6.u.6.6.u.u.",
"6.6.4.6.6.6.6.6.6.6.4.6.6.2.6.6.6.6.6.2.6.6.6.6.6.6.6.;./ d + < < 1 { ;.6.6.6.6.6.8.u.u.6.6.6.6.u.6.6.6.6.u.6.6.6.6.u.6.6.u.6.6.",
"6.6.6.6.6.6.4.2.6.6.6.2.4.6.6.s.6.6.6.6.2.,.=.<.6.6.6.6.6.6.6.6.u.6.8.8.6.6.u.6.6.,.,.6.6.6.6.6.6.6.6.6.6.6.6.6.6.6.6.6.6.6.6.6.",
"<.2.6.6.2.6.6.6.6.2.2.6.6.6.6.s.8.s.6.5.=.....,.6.8.6.6.6.6.6.u.u.8.u.u.u.u.6.6.<.....,.<.6.6.6.u.6.u.6.6.6.6.6.6.6.6.6.6.6.6.u.",
"6.6.6.2.4.6.2.6.6.6.4.6.6.2.6.s.s.s.4.,.X.{ ..,.u.6.6.6.6.6.6.8.6.6.6.6.8.6.6.u.<.X...X.,.<.6.6.6.6.4.6.6.6.6.u.6.6.6.6.u.6.6.6.",
"6.6.6.6.6.2.6.6.6.2.4.2.6.6.6.4.6.6.,.....X.<.2.6.6.6.u.u.8.6.u.u.6.6.6.6.8.6.6.6.<.,...[ ,.5.6.4.5.6.6.6.6.4.4.6.6.6.6.6.6.6.6.",
"2.2.4.2.6.6.4.2.6.2.6.6.2.2.6.6.6.6.,.....,.6.6.6.u.8.u.6.6.6.6.6.6.u.6.u.u.6.u.6.6.4...{ ..4.4.4.4.6.6.6.6.6.6.6.6.6.6.8.u.6.u.",
"6.6.6.6.4.6.6.6.4.6.6.6.6.6.6.<.5.8.4.,.,.6.u.6.6.6.6.u.u.6.6.6.6.8.u.6.6.6.6.8.6.u.6.,.=.<.u.6.<.2.6.6.6.6.4.6.6.6.6.6.6.u.6.6.",
"6.4.6.6.6.6.6.2.6.6.2.6.4.2.6.4.6.s.u.8.s.s.s.s.6.u.8.6.6.6.6.u.6.u.6.6.6.6.u.6.6.8.u.6.5.8.s.6.6.<.6.6.6.6.u.6.6.4.6.6.6.u.8.6.",
"6.6.6.6.6.6.2.6.6.2.6.6.6.5.6.2.6.6.6.6.u.s.s.6.6.6.6.u.6.6.6.8.6.6.u.6.6.u.6.6.6.6.6.6.4.6.u.6.4.4.6.6.u.6.6.4.6.6.6.6.6.6.u.6.",
"6.6.6.6.6.6.2.4.6.6.8.5.6.6.6.<.6.6.6.6.6.6.u.6.6.6.8.6.6.6.6.u.6.6.6.6.6.8.u.6.6.<.<.<.4.6.s.6.6.6.u.4.u.u.6.6.4.6.6.u.u.6.u.u.",
"s.u.6.6.6.6.2.4.X.,.6.s.u.u.6.<.6.6.6.6.6.u.6.u.u.6.u.6.6.6.6.6.s.6.u.6.6.6.u.6.6.4.6.<.5.8.6.6.5.u.5.s.u.u.3.@.<.6.6.6.6.u.u.u.",
"s.s.u.6.6.6.4.X.[ | 4.s.y.4.6.u.6.s.6.s.6.8.u.8.6.u.8.u.s.6.s.6.s.6.8.u.6.s.u.8.6.6.6.6.6.6.6.6.u.u.u.u.d.u.O.{ @.u.4.6.4.t.t.u.",
"u.s.u.s.8.6.4.<.{ ..;.5.5.u.5.s.s.6.6.6.u.u.6.6.s.6.6.s.6.6.s.6.6.6.6.8.6.s.6.6.6.u.6.6.6.6.6.6.u.u.u.y.5.:.O.| ,.u.u.t.u.u.u.d.",
"u.u.s.s.s.u.6.4.,.,.} } ;.5.u.u.u.u.s.6.8.u.8.s.s.6.6.s.6.s.6.u.6.s.u.u.6.s.6.6.6.6.6.6.6.6.6.6.u.5.4.>. .} O.4.t.u.u.u.u.u.p.p.",
"u.u.s.s.s.6.6.u.6.,.} ( ,.5.u.u.u.8.u.8.u.u.6.6.6.6.6.6.6.6.s.u.u.u.u.8.6.6.s.6.6.6.6.6.6.6.6.6.5.u.5.3. .} ;.u.s.u.u.s.p.u.p.p.",
"u.6.6.6.8.u.6.6.u.6.,.3.4.5.6.u.6.s.u.u.u.8.s.u.6.s.s.6.s.6.6.8.8.8.u.u.s.6.6.u.6.6.6.6.5.6.6.6.8.6.8.5.3.1.8.8.u.u.u.u.u.p.u.p.",
"6.6.6.6.6.6.4.u.u.u.6.8.6.6.6.8.s.6.6.6.s.6.8.u.s.6.6.6.u.u.u.8.u.u.s.6.6.6.s.6.u.6.6.6.6.6.6.6.8.8.7.8.8.8.8.s.u.6.u.u.u.t.p.p.",
"X.,.6.4.6.4.t.4.4.6.6.6.8.2.8.6.6.6.s.6.s.6.u.u.6.6.s.s.s.8.u.u.6.s.6.6.s.6.6.6.6.6.6.6.6.6.4.6.5.8.7.7.8.8.6.6.6.u.t.u.u.u.t.#.",
"x @.6.6.6.4.4.t.4.4.4.2.2.8.6.8.6.u.6.u.6.6.s.8.6.s.6.6.6.6.8.u.6.6.s.s.6.6.8.u.6.6.6.6.6.6.6.6.6.8.7.7.7.7.4.6.u.t.u.6.u.t.#.] ",
"] @.4.6.6.6.t.4.u.6.2.<.7.7.6.8.6.u.6.6.6.u.6.u.u.6.s.6.u.s.u.6.s.6.6.6.s.s.6.u.u.8.u.6.6.6.6.6.6.8.8.7.7.7.6.u.u.t.u.6.u.t.4.] ",
"] @.4.6.6.6.t.6.6.6.7.7.7.7.7.6.6.u.u.u.u.u.u.u.s.s.u.u.u.u.s.s.s.6.6.6.6.6.6.s.u.u.6.6.6.6.6.6.6.8.8.6.8.6.6.u.t.t.t.6.6.4.#.| ",
"o.#.6.6.6.6.6.t.6.6.7.2.7.2.8.8.6.u.6.u.u.6.u.u.u.u.6.s.s.u.6.u.u.6.s.s.6.s.6.6.8.6.6.6.6.6.6.6.8.6.8.2.5.6.6.u.t.t.u.u.6.4.3._ ",
"_ 0.t.u.6.6.6.4.6.6.7.2.7.8.5.8.6.u.u.u.6.u.6.u.u.u.u.s.s.u.u.u.6.8.6.6.s.6.s.6.u.u.6.6.6.8.6.6.6.6.6.2.6.6.t.t.p.t.4.4.5.4.:._ ",
"  ' p.u.4.6.6.6.6.2.2.2.2.2.8.6.6.u.6.u.6.u.u.6.s.s.u.u.u.u.s.s.u.u.s.6.6.6.s.6.8.u.6.6.6.u.6.6.2.6.2.6.6.u.t.p.t.t.u.6.u.y.+.. "
};
