/* XPM */
static char *result[] = {
/* columns rows colors chars-per-pixel */
"64 64 157 2 ",
"   c #AB5F06",
".  c #BD7A27",
"X  c #C17312",
"o  c #B47446",
"O  c #BA7A47",
"+  c #D98A06",
"@  c #D79C0D",
"#  c #DE990D",
"$  c #CB8517",
"%  c #C98A1F",
"&  c #DD8A15",
"*  c #D0811E",
"=  c #CD9115",
"-  c #CD941A",
";  c #D49310",
":  c #E88F0B",
">  c #ED9406",
",  c #EA9F06",
"<  c #EA910C",
"1  c #E59908",
"2  c #EF9D08",
"3  c #F59D0C",
"4  c #E18316",
"5  c #E68C13",
"6  c #EB8C14",
"7  c #E38219",
"8  c #EC9312",
"9  c #E89915",
"0  c #E1971A",
"q  c #E59C19",
"w  c #EB9F19",
"e  c #F19511",
"r  c #DFA30B",
"t  c #E4A30B",
"y  c #ECA608",
"u  c #F7A50B",
"i  c #F8A50A",
"p  c #F9AD0A",
"a  c #E2B30B",
"s  c #EFB70C",
"d  c #F7B10A",
"f  c #F9B10C",
"g  c #F4B90B",
"h  c #FABC0D",
"j  c #E5A114",
"k  c #EDA31B",
"l  c #EFAE1F",
"z  c #F1A919",
"x  c #F6B21E",
"c  c #DE892A",
"v  c #D39127",
"b  c #DA9420",
"n  c #DE8C3D",
"m  c #DE9534",
"M  c #E49329",
"N  c #E39C29",
"B  c #E08D3E",
"V  c #E69B3C",
"C  c #D2A432",
"Z  c #D7AA34",
"A  c #E4A426",
"S  c #E6AD2A",
"D  c #EAB429",
"F  c #F2B326",
"G  c #FCB722",
"H  c #F1B128",
"J  c #F2B82D",
"K  c #EFAD35",
"L  c #F2A831",
"P  c #E2B03E",
"I  c #ECB739",
"U  c #F7B631",
"Y  c #F6BC32",
"T  c #F1C10E",
"R  c #FCC20C",
"E  c #F6CB0F",
"W  c #FBCA0F",
"Q  c #F0D20F",
"!  c #FCCA10",
"~  c #F5D312",
"^  c #FCD511",
"/  c #FDDD14",
"(  c #FDE214",
")  c #F4C43B",
"_  c #FCC93D",
"`  c #B38154",
"'  c #D08A44",
"]  c #C28655",
"[  c #D88D55",
"{  c #D3945E",
"}  c #DD965B",
"|  c #EA8D4B",
" . c #E59344",
".. c #E89546",
"X. c #E49549",
"o. c #EA954A",
"O. c #E5994B",
"+. c #EC9A4B",
"@. c #F09D4E",
"#. c #E18D52",
"$. c #E39C57",
"%. c #EC9E52",
"&. c #ED9E5E",
"*. c #F39E51",
"=. c #F39C59",
"-. c #DDA246",
";. c #EAAE45",
":. c #EAA14B",
">. c #F4A04F",
",. c #ECB645",
"<. c #EEB843",
"1. c #EBB24E",
"2. c #EDA154",
"3. c #EFA950",
"4. c #EDA15C",
"5. c #F5A354",
"6. c #F9A557",
"7. c #F5AC54",
"8. c #FBAE56",
"9. c #F3A559",
"0. c #FBA659",
"q. c #F6A95B",
"w. c #FEAD5D",
"e. c #F9B156",
"r. c #FCB15A",
"t. c #D49D67",
"y. c #E6A468",
"u. c #EBA769",
"i. c #F4A664",
"p. c #FCA760",
"a. c #F4AA63",
"s. c #FFAD61",
"d. c #F4AB69",
"f. c #FEAE69",
"g. c #F6B260",
"h. c #FEB162",
"j. c #FCB26B",
"k. c #ECC243",
"l. c #EFCD49",
"z. c #F7C545",
"x. c #F3C946",
"c. c #F8CA59",
"v. c #EFD159",
"b. c #F8D155",
"n. c #F9DD53",
"m. c #F5DB5F",
"M. c #F9DB5C",
"N. c #F3D663",
"B. c #FBDD63",
"V. c #F1D96C",
"C. c #F0CD72",
"Z. c #F8E261",
"A. c #FBE475",
"S. c #FBE47C",
"D. c #FDE97E",
"F. c #F9E484",
"G. c #FBEC8E",
/* pixels */
"` { u.i.s.w.w.8.w.w.s.f.f.f.f.s.s.s.w.s.w.p.s.s.w.s.w.p.w.s.s.w.s.w.s.w.w.w.s.w.r.w.s.w.w.w.r.s.w.w.r.w.r.w.8.r.w.w.w.h.f.i.$.] ",
"t.y.d.p.s.w.w.w.w.w.s.f.s.h.f.s.s.s.s.s.s.s.w.s.s.s.s.s.s.s.p.s.w.w.w.w.w.w.s.r.w.w.w.w.w.s.w.w.w.w.r.w.w.w.r.w.r.r.r.s.s.f.i.t.",
"u.d.f.s.w.w.r.w.w.r.h.h.s.f.s.s.s.s.s.p.w.s.w.p.p.w.s.w.s.w.w.s.s.w.s.w.w.w.w.w.w.w.w.w.r.w.w.w.w.8.w.w.w.r.w.w.w.r.w.w.p.s.p.d.",
"j.f.f.s.s.s.w.w.r.w.s.s.s.s.s.h.s.w.s.s.s.s.s.s.s.s.s.s.s.p.s.s.w.w.w.w.w.w.s.w.w.w.w.w.s.w.s.w.w.w.w.r.8.r.r.g.r.a.w.w.w.w.w.f.",
"j.j.s.s.w.s.w.s.w.h.w.s.s.s.s.h.s.s.w.w.p.s.s.s.s.w.s.s.s.w.w.s.s.w.s.s.r.w.w.w.w.w.w.w.w.s.r.w.w.w.w.8.w.w.r.w.w.s.s.w.w.0.0.w.",
"j.h.h.h.s.w.w.s.w.w.h.h.s.s.s.s.s.p.s.s.s.s.w.s.s.s.w.s.s.p.s.s.w.w.w.r.s.s.w.w.w.w.w.w.w.w.s.w.8.w.w.w.r.w.w.s.q.w.s.w.w.0.0.0.",
"h.w.w.w.w.6.5.5.0.w.w.s.s.s.w.s.s.w.p.w.w.w.s.w.s.p.s.s.s.s.s.s.s.w.w.w.w.w.s.w.0.@.@.9.w.w.w.w.w.w.w.w.w.w.w.w.g.s.s.s.w.0.w.w.",
"w.w.w.w.w.5...+.5.w.w.w.s.w.s.s.s.s.w.s.w.p.p.w.w.s.s.w.s.w.w.p.h.w.w.w.s.w.s.r.5.B B 5.w.h.w.w.w.w.w.w.w.w.w.w.w.w.w.s.s.s.p.w.",
"8.w.w.w.w.5.@.@.@.*.0.w.w.w.w.s.w.p.s.w.s.w.s.s.s.s.s.s.w.s.w.s.w.w.w.s.w.w.w.w.0.+.+.+.@.9.w.w.w.s.p.f.p.s.w.w.r.w.w.w.s.p.s.s.",
"w.w.w.w.w.w.0.*...o.5.0.0.0.w.w.w.s.w.p.w.p.w.p.w.s.w.s.s.s.s.s.w.w.w.w.s.w.w.s.w.0.5...B @.w.w.s.p.s.p.f.p.w.0.w.w.w.w.s.s.p.s.",
"w.w.w.w.s.w.w.=.+.@.6.w.6.w.0.p.w.p.s.w.w.w.w.s.s.w.s.w.w.s.w.s.w.w.r.s.r.s.s.w.w.w.0.+...5.h.w.w.s.p.p.p.s.w.w.w.w.w.w.s.s.s.s.",
"s.w.w.h.w.w.p.w.6.0.w.s.s.6.w.s.w.s.w.w.w.w.p.w.w.w.w.w.w.w.w.s.w.s.w.w.w.w.w.s.h.w.w.8.9.w.r.s.p.s.f.f.p.s.w.w.w.w.w.w.w.s.w.w.",
"s.s.g.w.w.p.s.w.w.w.s.h.s.q.w.s.p.w.w.s.w.w.w.s.w.w.w.w.w.r.s.w.w.w.w.w.w.s.s.r.w.w.r.s.w.s.h.w.s.s.f.s.s.s.w.w.w.w.w.w.s.s.w.w.",
"g.f.g.s.w.w.0.w.w.s.s.g.p.w.w.p.w.s.w.q.w.w.w.w.w.s.w.w.s.w.w.w.w.h.s.r.w.w.w.w.s.w.w.w.w.w.s.s.s.s.f.s.f.s.s.w.w.w.w.s.s.w.w.w.",
"s.f.a.s.s.w.0.0.0.w.s.s.g.s.s.w.w.s.w.w.0.w.w.w.s.w.s.w.w.w.w.h.w.w.w.w.w.s.s.w.r.w.w.w.w.w.w.s.s.s.s.s.s.s.w.8.8.w.w.w.w.w.w.w.",
"s.g.s.s.s.p.0.0.0.w.s.s.w.w.q.w.w.h.6.@.@.9.w.w.w.w.w.w.w.w.w.w.w.w.w.s.w.r.w.w.s.w.w.s.w.w.s.r.w.s.s.s.s.0.*...5.w.w.w.w.w.w.w.",
"s.s.s.w.s.p.w.0.p.s.w.p.w.w.w.0.w.h.q.....9.r.w.w.w.w.w.w.w.w.w.w.w.w.w.r.w.w.w.s.s.w.w.w.w.w.s.w.w.s.s.w.6.o.n +.s.r.s.w.w.s.w.",
"s.s.w.s.w.w.p.p.w.p.w.w.w.w.w.w.9.%.+.+.5.0.w.w.w.w.r.s.w.w.w.w.w.w.w.h.s.s.w.w.w.r.w.w.w.w.s.r.w.w.w.0.*.+.+.+.9.w.s.w.w.w.w.w.",
"s.s.s.s.p.w.w.w.p.w.w.w.w.w.6.6.+.n  .9.w.s.h.w.w.w.w.w.s.r.s.w.s.w.w.w.w.w.s.w.w.w.w.s.s.w.w.w.w.w.w.*. .B +.w.w.w.r.w.s.w.w.r.",
"s.q.w.q.w.w.w.p.w.w.w.w.w.w.w.w.5.+.:.w.r.s.r.w.w.r.w.w.w.w.w.w.s.r.w.w.w.s.s.r.w.w.w.w.s.r.w.s.w.s.s.6.+.+.5.r.w.w.w.s.w.w.w.s.",
"s.p.p.0.w.w.p.w.w.w.w.w.w.w.w.w.w.w.w.w.h.r.w.w.w.w.w.w.w.w.w.w.w.w.w.w.w.s.w.w.s.s.w.w.r.s.w.w.s.r.w.w.0.8.w.h.s.w.w.w.w.r.s.s.",
"w.w.p.w.p.p.w.p.p.s.s.w.w.w.w.w.w.h.r.w.w.w.w.w.w.w.8.w.w.8.w.w.w.w.w.s.w.w.w.w.w.r.s.w.s.w.w.w.s.s.h.w.s.s.s.h.w.s.r.w.w.w.w.w.",
"s.w.w.w.p.w.s.w.0.p.w.w.w.w.w.s.w.w.w.w.w.w.8.w.w.8.8.w.w.8.8.w.w.s.r.s.r.s.w.w.s.s.w.w.w.w.w.s.w.w.h.h.h.h.w.w.w.w.s.w.s.r.w.w.",
"w.w.w.w.s.w.s.p.w.w.w.w.w.w.w.w.w.q.w.0.8.8.8.w.w.w.w.w.w.w.w.w.w.w.w.w.w.s.w.w.w.r.w.w.w.w.s.r.w.w.w.w.r.s.w.w.w.h.w.w.w.w.s.w.",
"0.w.w.w.w.s.w.w.w.w.w.w.w.w.w.w.w.q.w.w.w.0.8.8.w.w.8.w.0.w.w.w.w.w.w.w.w.w.s.w.w.w.r.s.w.w.w.w.w.w.w.h.w.h.w.s.w.w.w.w.w.s.s.w.",
"w.6.q.w.s.w.w.w.w.w.w.w.w.w.w.w.w.w.w.w.8.w.w.w.w.w.w.w.w.w.w.w.w.r.w.w.w.w.s.r.w.s.s.w.w.w.w.s.w.w.w.w.w.w.w.w.w.w.s.w.w.r.w.w.",
"w.w.w.w.w.w.w.w.w.w.w.w.w.0.w.w.w.w.w.8.8.0.8.w.w.w.6.+.P C.S.v.k.k.x.c.j.w.w.w.w.w.r.s.w.s.w.w.w.s.w.w.w.w.w.w.w.w.r.w.w.s.w.w.",
"w.w.s.w.w.w.w.w.w.w.w.6.w.w.w.w.w.w.w.w.w.w.w.8.8.w.V L S.A.C @ t t # A _ g.w.s.w.w.s.w.s.r.w.w.r.w.s.w.s.r.w.s.w.s.s.w.w.r.w.s.",
"w.w.w.w.w.w.0.w.w.w.w.w.0.w.w.w.w.w.w.8.w.w.w.w.w.3.U F.V.- r Q E E g , 0 J r.s.w.s.w.w.w.w.w.w.s.w.s.w.w.w.w.r.r.w.w.s.w.w.w.w.",
"w.w.w.w.w.w.w.w.w.w.w.w.w.w.w.w.0.w.w.0.0.8.w.w.q.) A.A.Z a ~ ( / ^ R d 2 k K w.s.r.w.w.w.s.w.s.w.w.w.w.w.s.w.s.s.w.w.w.s.w.s.r.",
"w.w.w.w.w.w.w.w.w.w.0.w.w.w.q.w.w.w.w.w.w.w.w.w.-.n.G.N.@ Q ( ( ^ W g p i 9 x q.w.w.w.w.w.r.w.r.w.w.w.r.s.w.s.w.s.w.w.w.s.w.s.w.",
"w.w.w.w.w.w.w.w.w.w.w.w.w.w.w.w.w.w.w.8.w.8.8.0.,.Z.D.Z a / ( ^ E h p u u : x 2.s.w.w.w.s.s.s.w.w.w.s.s.r.w.w.w.w.w.s.r.w.w.w.w.",
"w.w.w.w.w.w.w.w.0.w.w.8.0.8.w.w.0.w.w.w.w.8.w.0.I m.A.= T / / ! h f i 3 3 e z :.w.s.w.w.r.s.s.w.w.w.h.w.w.s.w.w.h.w.w.s.w.w.r.s.",
"w.w.w.w.w.w.w.w.w.w.w.w.w.w.w.8.w.w.8.w.w.w.w.6.S l.B.; T ^ ! h f i 3 3 e 6 F :.w.w.w.w.w.s.w.w.w.w.w.w.w.w.w.w.w.w.w.w.w.w.w.s.",
"w.w.w.w.w.0.0.w.w.w.w.w.w.w.w.w.w.w.8.0.8.w.w.0.N D M.; s ! h f i 3 3 e 5 5 H +.r.s.w.w.w.w.s.s.r.w.w.w.r.s.w.w.w.w.s.s.r.w.w.w.",
"w.w.w.w.w.w.w.w.w.w.0.w.8.w.0.w.w.8.w.w.8.w.8.w.m j b.J y h d u i 3 e 6 5 M k %.w.s.w.w.w.w.w.r.s.s.w.w.w.s.w.w.w.w.w.r.s.s.w.w.",
"w.w.w.w.w.w.w.w.w.w.8.0.0.w.8.8.w.w.w.8.8.w.w.w.O.+ <._ 1 i i 3 e e e e 7 N 5 w.w.w.r.w.w.w.w.w.w.w.w.w.s.w.s.w.w.w.w.w.w.s.w.w.",
"w.w.w.w.w.w.w.w.w.w.w.w.w.w.w.w.8.0.w.w.w.w.8.w.w.* b z.l > u 3 e 6 6 X c ;.B w.w.w.s.s.w.h.w.w.s.w.w.w.s.r.s.r.w.w.s.w.w.w.w.w.",
"w.w.w.w.w.0.w.w.w.w.w.8.w.8.w.w.w.8.8.0.w.8.w.8.w.9.X v Y z < 8 e 6 & m 1.V w.w.w.s.r.w.w.w.w.w.w.w.r.w.w.s.w.w.r.s.r.s.w.w.r.s.",
"w.w.w.w.w.w.w.w.w.0.w.w.w.8.w.w.w.w.w.w.w.8.w.w.w.w.$.  % F G k 7 c ;.k 4 w.w.w.w.w.s.s.w.w.w.w.w.w.s.s.w.w.w.w.w.s.w.s.w.w.w.s.",
"w.w.w.w.w.w.w.w.w.8.0.w.8.w.w.w.8.0.w.w.8.w.w.w.w.w.w.9.' . $ q w 9 M %.w.w.r.w.w.w.w.w.w.w.w.w.w.w.w.w.w.w.w.w.w.w.w.w.w.w.w.w.",
"w.0.w.w.8.0.w.w.w.w.w.w.8.w.r.r.w.w.w.w.6.5.>.8.w.w.w.w.w.r.w.w.s.s.s.w.w.w.s.s.w.9.5.w.w.w.w.w.w.w.s.w.w.w.p.w.w.w.w.s.w.s.s.w.",
"w.w.8.w.8.w.w.8.8.w.w.8.0.w.w.h.h.r.w.0.5.@...5.r.s.w.w.w.w.w.w.w.w.w.w.w.s.r.w.0.@.+.5.0.w.w.w.s.w.w.w.w.w.w.w.w.w.w.w.w.s.w.w.",
"8.w.0.w.w.w.0.w.w.0.w.w.w.w.w.h.h.h.w.5.@...+.5.s.w.w.w.w.w.w.w.s.w.w.w.w.w.s.s.0.@...@.5.6.w.w.w.w.w.w.w.w.w.0.w.w.w.w.w.w.w.w.",
"0.8.8.w.w.w.w.w.8.w.w.w.8.w.w.w.w.r.5.+...>.5.0.w.w.w.w.s.s.w.w.w.w.r.s.w.w.w.w.8.9.>.+...>.8.0.6.w.6.w.0.w.w.w.w.w.w.w.w.w.s.w.",
"w.w.w.w.8.0.w.8.w.w.8.0.w.w.w.0.w.w.5.....0.w.r.w.w.h.w.w.r.w.w.w.w.w.w.w.s.w.w.w.w.0.+...:.0.0.6.w.w.w.w.w.w.w.w.w.w.s.r.s.w.w.",
"w.w.8.0.w.w.8.0.0.w.8.w.w.8.8.6.w.w.0.9.9.w.h.w.w.s.w.w.w.w.w.s.r.w.w.s.w.w.h.w.w.s.w.9.*.9.w.w.6.w.w.w.w.w.w.w.w.w.w.w.w.w.w.w.",
"w.w.w.w.w.w.w.w.8.w.w.w.w.0.w.6.w.h.h.s.r.h.h.h.w.s.r.s.w.w.w.w.s.s.w.w.w.w.w.w.w.r.s.w.w.w.h.w.0.0.q.w.w.w.w.0.w.w.w.w.w.s.r.s.",
"8.w.w.0.w.w.8.8.w.w.w.w.w.w.8.0.w.w.w.w.r.s.h.s.w.w.w.w.w.w.s.s.w.w.w.h.r.w.w.w.w.w.0.w.w.w.s.w.w.0.w.w.w.w.w.w.w.w.w.w.w.s.w.s.",
"w.w.w.w.w.w.0.w.8.w.w.w.w.0.0.0.w.w.w.w.w.s.w.w.w.w.s.r.w.w.w.r.w.w.w.w.s.w.s.w.8.0.0.6.0.w.s.w.w.w.q.w.s.w.w.w.0.w.w.s.s.w.w.s.",
"s.w.w.s.w.w.8.0.@.5.w.g.s.w.w.8.w.s.w.w.w.s.w.s.w.w.s.w.w.w.w.w.w.s.w.w.w.w.w.w.w.q.w.0.8.s.s.w.w.w.s.s.s.s.6.*.0.w.0.0.w.w.p.s.",
"h.h.h.s.w.w.0.*...o.0.h.a.q.s.s.w.w.h.w.s.r.s.r.h.w.h.w.h.w.w.h.s.r.w.w.h.s.h.w.w.w.w.w.q.w.w.w.q.s.q.f.j.f.*. .*.w.w.w.0.w.s.f.",
"h.f.s.h.r.w.w.*...+.2.9.q.q.s.s.s.w.r.h.r.s.s.s.w.w.h.w.w.h.w.w.h.h.w.w.s.r.s.w.s.w.w.w.w.w.w.w.s.s.g.s.a.4.%.o.5.w.w.w.p.p.f.f.",
"s.s.h.h.h.s.w.0.9.2.X.X.2.w.s.h.h.w.s.s.s.s.r.r.w.h.w.w.w.w.h.w.w.w.w.h.s.r.s.w.w.w.w.w.w.w.8.w.w.p.q.9.O.X.%.q.q.s.s.s.f.s.s.f.",
"s.w.h.h.h.s.w.w.w.9... .2.w.w.s.h.w.s.s.s.h.s.s.w.w.h.h.h.h.w.w.w.w.w.h.s.s.h.w.w.w.w.w.w.w.w.w.w.q.q.4.O.X.2.s.f.s.s.f.s.f.h.f.",
"s.w.w.w.r.w.w.w.w.w.9.2.q.q.w.s.w.w.h.r.w.w.s.r.h.w.w.w.w.w.w.h.h.h.w.w.r.s.w.w.w.s.w.w.0.w.w.w.w.w.r.e.7.7.0.h.s.w.s.s.s.f.f.f.",
"w.w.w.w.w.w.w.p.w.w.w.r.w.w.w.w.s.s.r.h.w.w.s.s.w.w.w.h.w.h.h.w.w.w.h.w.w.w.h.w.s.w.w.w.w.w.w.w.8.r.e.r.r.r.r.s.s.w.p.s.s.f.f.p.",
"@.5.w.w.w.p.0.0.w.w.w.8.w.r.w.r.r.w.s.s.w.h.r.s.h.h.w.w.w.w.w.w.w.h.w.w.h.w.w.w.r.w.s.w.w.w.0.w.w.r.r.e.r.r.w.w.w.s.s.s.s.s.p.=.",
"B *.w.0.0.w.0.p.0.0.0.7.8.e.r.w.w.s.w.s.w.r.s.w.w.w.h.w.h.w.s.h.w.w.h.h.w.w.h.w.s.w.w.w.w.w.w.w.8.r.e.e.e.e.w.w.s.s.p.w.s.f.=.| ",
"| *.w.6.w.w.0.w.0.w.w.0.8.e.r.r.w.s.w.w.s.w.s.h.s.h.s.s.r.s.s.r.h.w.w.w.h.h.w.w.w.w.w.w.w.w.w.w.w.w.r.e.e.e.q.s.p.p.s.w.w.p.0.| ",
"| *.w.0.w.w.0.s.w.w.8.e.e.e.r.w.w.s.s.s.s.s.s.s.s.s.h.w.h.s.s.s.h.w.w.w.w.w.w.h.w.w.w.w.w.w.w.w.r.r.r.r.8.w.w.s.p.p.p.w.w.0.9.| ",
"#.=.p.w.w.w.p.p.w.w.w.e.e.e.r.r.w.s.w.s.s.w.s.s.h.s.h.s.s.s.h.w.w.w.h.h.w.h.w.w.w.w.h.w.w.r.w.w.w.8.8.w.0.w.s.s.p.p.p.w.0.0.9.[ ",
"[ &.s.s.0.w.w.w.w.w.e.e.e.e.8.w.w.s.s.s.w.s.w.s.w.h.s.s.h.s.s.s.s.r.w.w.h.w.h.w.h.w.r.w.w.w.w.w.8.w.w.8.w.w.f.p.f.p.w.0.q.q.4.[ ",
"o } f.s.w.w.w.w.w.8.8.8.8.e.8.w.w.s.w.s.w.s.s.s.s.s.s.h.s.s.h.h.s.s.h.w.w.w.h.w.s.w.s.w.w.s.w.w.w.w.w.w.w.w.p.p.f.p.w.w.p.f.$.O "
};
