/* XPM */
static char *result[] = {
/* columns rows colors chars-per-pixel */
"64 64 160 2 ",
"   c #9D5A11",
".  c #A95908",
"X  c #AD6809",
"o  c #D37904",
"O  c #C37318",
"+  c #B47446",
"@  c #BA7A47",
"#  c #DE9405",
"$  c #D69C07",
"%  c #D2970F",
"&  c #D59D0D",
"*  c #DA9C0A",
"=  c #E38A09",
"-  c #EE9C06",
";  c #E8930D",
":  c #EE9A0F",
">  c #F49C0C",
",  c #E18316",
"<  c #E78916",
"1  c #EC8F14",
"2  c #E2811A",
"3  c #E48A19",
"4  c #E88819",
"5  c #EF9311",
"6  c #E99E15",
"7  c #E59318",
"8  c #EA9C18",
"9  c #F09511",
"0  c #F49D1A",
"q  c #E2A20C",
"w  c #F6A40B",
"e  c #F9A60B",
"r  c #F6AF08",
"t  c #FAAD0B",
"y  c #E6B90D",
"u  c #F1B705",
"i  c #F5B40D",
"p  c #F8B20C",
"a  c #FABB0C",
"s  c #E7A711",
"d  c #E5A61F",
"f  c #EDAB1D",
"g  c #DD8B23",
"h  c #D4862F",
"j  c #DE9027",
"k  c #DF9827",
"l  c #D3902F",
"z  c #CC8C31",
"x  c #C7823D",
"c  c #DF8633",
"v  c #DE8C3D",
"b  c #D09135",
"n  c #D5983E",
"m  c #E39024",
"M  c #E08D3E",
"N  c #E79732",
"B  c #E89A3F",
"V  c #DDAA21",
"C  c #EDAD24",
"Z  c #E3A62D",
"A  c #EAAA2E",
"S  c #F5A725",
"D  c #F4AE27",
"F  c #F0A72D",
"G  c #EEBE29",
"H  c #F9B521",
"J  c #F6BA24",
"K  c #EEB131",
"L  c #E3B338",
"P  c #EDB438",
"I  c #F3B631",
"U  c #F9BE39",
"Y  c #EEC30C",
"T  c #EEC90D",
"R  c #FAC20D",
"E  c #F6CB0E",
"W  c #FBCB0F",
"Q  c #FCD00F",
"!  c #FAC514",
"~  c #F4CF12",
"^  c #FCCE12",
"/  c #FCD412",
"(  c #FBDC12",
")  c #FDE114",
"_  c #EDC03F",
"`  c #F9C63B",
"'  c #F9CF3E",
"]  c #F7D03E",
"[  c #B38154",
"{  c #D59142",
"}  c #C28655",
"|  c #D88D55",
" . c #D3945E",
".. c #DD965B",
"X. c #E88C42",
"o. c #EA8D4B",
"O. c #E59445",
"+. c #E89546",
"@. c #E49549",
"#. c #EA954A",
"$. c #E6994C",
"%. c #EC9A4B",
"&. c #F09D4E",
"*. c #E18D52",
"=. c #EE9E52",
"-. c #E49C58",
";. c #F39E51",
":. c #F39C59",
">. c #ECA548",
",. c #F4A04F",
"<. c #EAB543",
"1. c #ECB94F",
"2. c #EDA154",
"3. c #EDA15C",
"4. c #F4A354",
"5. c #F9A557",
"6. c #F5AC54",
"7. c #FBAE56",
"8. c #F3A459",
"9. c #FBA659",
"0. c #F6A95B",
"q. c #FEAD5D",
"w. c #E9B556",
"e. c #E3BD50",
"r. c #F2B256",
"t. c #F9B156",
"y. c #FCB15A",
"u. c #D49D67",
"i. c #E19C62",
"p. c #E6A468",
"a. c #EBA769",
"s. c #F4A664",
"d. c #FCA760",
"f. c #F4AA63",
"g. c #FFAD61",
"h. c #F4AB69",
"j. c #FEAE69",
"k. c #FFB162",
"l. c #FCB26B",
"z. c #DFC054",
"x. c #EAC445",
"c. c #F9C549",
"v. c #F4CB49",
"b. c #F9D542",
"n. c #FBD049",
"m. c #F8C558",
"M. c #F6CD59",
"N. c #F9D552",
"B. c #F7D859",
"V. c #F6C662",
"C. c #E9D060",
"Z. c #F3D764",
"A. c #F8DD6F",
"S. c #F9E86E",
"D. c #FAE272",
"F. c #F6E07E",
"G. c #FAE67C",
"H. c #FCEA84",
"J. c #FDEA8D",
"K. c #FEEB96",
/* pixels */
"[  .a.s.g.q.9.q.7.q.g.j.j.j.j.g.g.g.g.q.g.g.g.q.d.g.q.g.g.g.g.g.q.q.q.q.q.q.q.q.g.q.q.g.q.g.q.q.q.y.q.q.q.q.y.7.q.y.y.j.g.s.-.} ",
"u.p.h.d.g.q.q.q.y.q.g.j.g.k.j.g.g.g.d.g.q.g.g.g.g.g.q.g.d.q.q.g.g.q.q.g.g.q.g.q.q.q.q.y.q.q.q.g.g.q.q.y.y.7.q.y.y.q.q.g.g.h.h.i.",
"a.h.j.g.g.q.q.q.q.k.k.k.g.j.g.g.g.q.g.g.g.d.g.q.g.g.g.d.g.g.g.q.q.q.q.q.q.k.q.q.q.q.q.q.q.g.q.q.q.q.q.y.y.q.y.y.g.y.q.q.q.g.h.s.",
"l.j.j.g.g.g.y.y.y.q.g.g.g.g.g.k.g.g.q.g.g.q.g.g.g.q.g.g.q.g.g.g.g.q.q.q.q.q.q.q.g.y.g.q.q.q.y.q.q.q.7.q.q.y.y.f.y.g.q.q.q.q.q.j.",
"l.l.j.g.q.q.g.g.q.k.g.g.g.g.k.g.q.g.g.q.q.g.q.g.q.g.g.g.q.g.g.d.y.g.q.q.q.q.q.g.q.q.q.q.q.q.y.q.q.y.q.y.q.q.y.q.q.g.g.q.q.9.9.q.",
"k.l.y.k.q.g.q.g.q.g.k.y.g.g.q.g.g.g.d.g.g.g.d.g.q.g.d.q.g.g.g.q.g.q.q.q.q.q.g.y.q.9.q.q.q.q.g.q.7.q.q.9.y.q.q.q.0.q.g.q.q.9.9.9.",
"k.q.q.g.q.5.;.4.9.q.g.g.q.g.g.g.g.q.g.d.q.d.g.g.d.g.q.g.q.g.g.g.g.q.q.g.q.q.q.q.5.&.%.5.g.q.q.q.q.q.q.q.q.q.q.g.k.q.g.g.q.9.q.9.",
"q.q.q.q.q.4.+.%.5.9.q.q.g.g.g.q.g.d.q.q.q.g.q.g.g.g.g.g.g.d.q.g.g.q.g.y.q.g.q.q.4.O.M 4.g.y.k.q.q.q.q.q.q.q.q.q.g.q.q.g.g.g.g.g.",
"7.q.q.q.q.:.;.&.&.;.9.q.q.q.q.g.q.g.q.d.g.q.q.d.d.q.q.g.g.g.g.q.q.q.q.y.q.q.q.q.5.%.+.%.%.0.q.g.q.g.j.d.d.g.q.q.q.q.q.g.g.g.d.g.",
"9.q.q.q.q.q.9.;.+.#.5.9.9.5.q.q.d.q.d.q.q.g.g.d.g.g.g.g.g.q.g.g.g.q.q.g.g.q.y.g.q.q.4.+.X.%.q.q.q.d.d.j.g.g.q.9.q.q.q.q.g.g.g.g.",
"q.q.q.q.q.q.q.5.&.&.5.q.5.q.9.d.q.g.g.9.q.q.q.d.q.g.q.g.q.q.g.g.g.q.g.q.q.q.g.q.q.g.9.%.+.4.y.g.g.d.d.d.d.j.g.q.q.q.q.q.g.d.g.q.",
"g.y.k.q.q.q.d.q.5.5.q.g.g.5.q.g.d.g.q.q.q.q.q.q.q.q.q.g.q.q.g.y.y.q.q.q.q.g.y.q.k.g.y.9.4.q.k.g.g.g.g.j.d.g.q.q.q.7.q.q.g.g.q.q.",
"j.k.y.g.q.g.q.q.q.q.k.k.d.0.g.q.q.q.q.q.q.q.q.q.q.g.q.q.q.g.q.q.g.q.q.q.q.q.g.g.q.y.y.g.q.g.g.g.g.g.g.j.g.g.q.9.q.q.q.g.g.g.q.9.",
"j.f.f.k.d.q.q.9.q.q.g.k.g.q.q.d.g.q.g.q.q.q.q.q.q.q.q.q.q.q.q.q.q.q.q.g.y.g.y.q.q.g.g.q.q.q.y.g.g.g.j.g.j.g.g.q.q.q.q.q.q.g.q.q.",
"f.k.y.g.g.q.9.9.9.q.g.g.k.q.g.q.q.g.q.9.9.q.q.q.q.q.q.g.y.g.q.q.q.q.q.q.g.q.q.q.q.q.q.q.q.q.q.q.g.g.g.g.g.q.9.7.7.q.q.g.q.y.q.q.",
"k.k.f.g.d.9.d.9.9.q.g.k.0.g.0.q.g.k.0.&.&.0.q.q.g.q.q.q.q.g.q.q.g.q.y.g.q.q.g.q.q.g.q.q.q.q.q.k.q.g.g.g.g.q.&.%.4.q.q.g.q.q.q.q.",
"g.g.g.q.q.d.q.q.q.g.q.d.q.q.q.q.q.l.4.O.+.4.y.g.q.q.q.q.g.q.g.q.g.y.q.q.g.q.y.q.q.q.q.q.y.q.q.q.q.q.g.q.q.5.+.v %.g.q.q.q.g.q.y.",
"g.g.g.d.q.q.q.d.d.q.q.q.q.q.q.5.4.%.2.%.4.9.k.q.y.q.q.q.g.y.g.y.q.g.q.q.q.q.g.q.q.q.q.k.g.q.g.q.q.q.g.9.;.%.%.%.4.g.k.q.q.q.g.q.",
"g.q.q.q.q.q.9.d.g.q.g.q.q.9.q.q.%.v O.0.q.g.k.q.q.q.q.q.q.q.q.q.q.q.q.q.q.q.q.g.g.y.q.q.q.q.q.q.q.q.q.;.O.M %.7.q.k.q.q.q.g.q.q.",
"g.g.d.q.9.d.q.g.d.q.q.9.q.q.q.9.4.$.,.7.k.y.q.q.q.q.q.q.q.q.q.q.g.q.q.k.q.q.q.q.q.g.q.q.q.g.g.g.q.g.g.5.&.%.4.q.q.q.q.q.y.q.q.q.",
"g.g.q.q.d.q.d.q.g.q.q.q.q.q.q.q.q.q.g.y.y.q.q.q.q.q.y.q.7.q.q.q.q.y.g.q.q.y.g.q.q.g.q.q.q.g.q.y.q.g.g.g.9.9.q.k.k.q.q.g.g.q.g.q.",
"d.d.9.d.g.g.q.g.d.q.q.q.q.q.q.q.q.k.k.y.q.q.q.q.q.q.q.7.q.q.q.7.q.q.q.q.q.q.g.q.q.q.y.q.q.q.q.q.q.k.y.q.k.y.k.k.q.q.q.y.q.q.q.q.",
"g.q.9.q.q.g.d.q.g.q.q.q.q.q.q.g.q.q.q.q.q.9.7.q.7.q.q.7.q.y.q.q.g.y.q.g.q.g.g.y.q.q.g.q.g.q.q.q.q.q.k.k.k.g.g.q.q.q.q.q.q.q.q.y.",
"q.q.q.q.g.q.g.d.9.q.q.q.q.q.q.g.q.9.9.7.q.7.7.q.q.q.q.q.q.q.q.q.q.q.q.q.q.q.q.g.q.q.q.g.y.g.q.q.q.q.q.q.g.y.q.q.q.q.g.q.q.q.g.g.",
"9.q.q.q.g.q.q.q.q.q.q.q.q.9.q.q.q.q.7.q.q.q.7.q.q.q.q.7.q.q.y.7.q.q.q.g.q.q.g.q.g.q.q.q.g.y.g.q.q.q.q.q.k.q.q.k.g.q.q.y.g.g.q.q.",
"q.9.5.q.g.q.q.q.q.q.q.q.q.q.q.q.q.q.q.q.9.7.7.9.q.q.q.q.q.q.q.q.q.q.q.q.q.q.q.q.q.g.q.q.q.g.q.g.y.q.g.g.q.q.q.q.q.q.g.q.q.q.q.q.",
"q.q.q.g.q.q.q.q.q.q.q.q.q.q.q.q.q.q.9.7.7.q.7.q.q.q.7.%.m w.F.Z.x._ v.V.k.q.q.y.q.y.q.q.q.g.q.y.g.q.g.y.q.q.q.q.q.g.q.q.q.q.q.k.",
"q.q.q.q.q.q.q.9.q.9.q.q.q.q.q.9.q.q.q.q.q.q.9.q.7.q.B 0 m.G.e.% q q * K c.g.g.g.q.q.g.q.q.q.q.q.q.g.q.q.q.q.q.g.y.g.q.q.q.q.q.q.",
"q.q.q.q.q.q.q.q.q.q.q.q.q.q.q.q.q.q.q.7.q.9.7.q.q.6.D U G.z.$ Y ~ E u = C r.g.q.q.q.g.q.y.q.q.q.q.q.g.y.q.y.g.q.q.q.q.g.q.g.q.q.",
"q.q.q.q.q.q.q.q.q.q.q.q.q.5.q.q.q.q.q.q.q.q.q.y.q.P n.J.C.% T ( ( Q R r = I q.q.q.q.y.g.g.g.q.q.q.q.q.g.g.q.q.q.q.g.y.q.g.y.q.q.",
"q.q.q.q.q.q.q.q.q.9.q.q.q.q.q.q.q.q.9.q.7.7.9.q.2.] S.K.L y ( ) / E a t w 7 >.q.q.q.q.q.q.q.g.q.q.q.q.q.q.q.g.y.g.q.q.q.q.g.g.q.",
"q.q.q.q.q.q.q.q.q.q.q.q.q.q.q.q.q.q.q.9.q.q.q.q.n b.H.D.V ~ ) ( W a r w > 0 d g.q.k.q.q.q.g.q.g.y.q.g.q.q.q.g.q.q.q.q.q.g.y.q.q.",
"q.q.q.q.q.q.q.q.q.q.q.q.q.q.q.q.7.q.9.q.q.q.q.q.b ' H.B.& / / ^ R r e > > S 6 q.g.y.g.q.g.q.q.q.y.q.g.q.q.y.g.q.g.q.q.q.y.q.g.q.",
"q.q.q.q.7.q.q.q.q.q.9.q.7.q.9.q.q.q.q.q.q.9.7.7.b G A.N.* / ^ R p e > > 9 S 6 q.q.q.q.q.q.q.g.q.g.q.q.q.g.q.q.q.q.q.g.q.g.q.q.q.",
"q.q.q.q.9.q.q.q.q.q.q.7.q.q.q.7.q.7.q.7.7.q.q.q.z s v.N.* ! R p e > > 9 1 F 7 q.q.q.g.y.q.g.q.q.q.q.q.q.q.q.g.y.q.g.q.q.q.q.q.q.",
"q.q.q.q.q.q.q.9.q.q.q.q.9.7.q.q.q.9.q.9.7.q.q.7.{ # C B.f i p w w > 9 1 < 8 g q.q.g.q.q.y.g.q.q.q.q.q.k.q.q.g.q.y.g.q.q.q.q.q.k.",
"g.q.q.q.q.q.q.q.q.9.q.q.q.7.q.9.q.q.q.7.q.7.q.q.q.o # M.C - e > > 9 5 4 , A 9.g.q.q.q.q.q.q.q.g.q.q.g.q.g.q.q.q.q.q.q.g.q.y.g.q.",
"q.q.q.q.q.q.q.q.q.7.q.q.q.9.q.7.q.7.q.9.9.q.q.q.q.h o k ` ; > > 9 1 4 2 l j g.q.q.g.g.q.q.g.q.y.y.g.y.q.q.q.q.g.q.g.y.q.q.g.q.q.",
"q.9.q.q.q.q.q.q.q.q.q.7.7.q.q.9.q.9.q.7.q.7.q.q.9.7.O X Z J : ; 1 4 o M 1.2.q.q.g.y.q.q.q.q.q.q.g.q.q.q.q.y.g.q.g.q.q.q.g.y.q.g.",
"q.q.q.q.9.q.q.q.q.q.q.9.q.q.7.q.q.7.q.q.q.7.q.q.q.q.=.. X A H S 3 j <.s c g.q.q.q.q.q.q.q.k.g.q.q.q.g.q.q.g.q.q.q.q.q.q.g.q.q.q.",
"q.q.q.q.9.q.q.q.q.q.q.q.q.7.q.q.q.7.q.q.7.9.q.q.q.q.y.4.x   X C 8 8 N 2.q.g.y.q.q.g.q.q.y.g.q.q.q.q.q.q.q.q.q.q.q.y.q.q.q.q.q.q.",
"q.q.q.q.q.q.7.q.q.q.7.9.q.q.y.k.y.q.q.q.5.5.4.7.q.q.q.q.q.q.q.q.g.g.q.g.q.q.g.q.q.4.7.9.9.q.q.q.q.g.q.q.q.d.q.q.g.g.q.q.g.q.g.q.",
"q.9.q.7.q.q.q.9.7.9.q.q.7.q.y.k.k.k.q.9.,.%.%.4.q.q.q.g.q.g.q.q.q.q.q.q.q.q.y.q.5.&.%.4.9.q.q.q.g.q.q.q.q.q.q.q.q.q.q.q.q.g.q.q.",
"q.7.q.q.7.7.q.q.q.q.7.q.9.q.k.k.k.k.7.4.&.%.#.4.q.g.y.q.q.q.q.q.q.g.q.q.g.q.g.q.5.&.%.%.4.5.q.q.q.q.q.q.q.q.q.q.q.q.q.q.q.q.q.q.",
"q.q.q.q.9.7.q.q.q.7.q.9.q.q.q.y.q.q.4.%.%.&.4.7.q.q.q.q.q.q.g.y.q.q.q.k.q.q.g.q.q.5.4.%.O.4.q.9.5.9.q.q.q.q.q.9.q.q.q.q.q.g.q.q.",
"q.9.7.7.q.q.9.7.q.q.q.7.q.q.9.9.q.y.4.+.+.5.q.q.k.q.q.q.q.q.g.q.q.g.q.q.q.q.q.q.q.q.9.%.O.%.9.5.5.q.q.q.9.q.q.q.q.q.q.q.q.q.g.y.",
"7.q.q.q.q.q.q.q.7.9.q.q.7.q.q.9.q.q.9.4.4.q.k.q.q.q.q.q.q.g.q.q.q.q.q.q.q.g.y.q.g.k.q.4.,.4.y.q.5.q.5.q.q.q.q.q.q.q.q.q.q.q.q.q.",
"9.q.q.q.9.q.7.q.q.q.7.9.7.q.9.5.q.k.k.q.k.k.k.k.q.q.g.g.y.q.q.g.y.g.g.q.q.q.g.q.q.q.q.q.q.q.k.g.9.9.q.q.q.q.q.q.9.q.q.k.q.q.q.g.",
"q.q.q.q.q.q.7.7.9.q.q.q.q.q.9.0.q.q.k.q.q.k.k.y.g.g.q.q.q.y.g.q.q.q.q.q.q.q.q.q.q.q.q.7.q.g.k.g.q.q.q.q.q.q.9.q.q.q.q.q.q.q.g.q.",
"q.q.q.q.q.q.9.q.q.q.q.q.q.7.9.5.9.g.q.q.q.q.q.q.q.q.q.q.g.q.q.q.q.k.q.q.g.q.q.q.q.9.5.9.9.7.k.q.9.q.q.q.q.q.g.q.q.q.q.q.g.q.g.g.",
"k.q.y.q.q.q.7.9.,.4.7.k.g.q.q.q.q.y.k.q.q.q.q.q.q.g.y.g.q.q.q.q.q.q.g.q.y.g.q.q.q.9.9.9.9.q.q.q.q.q.f.g.g.g.5.;.:.q.q.q.q.g.g.g.",
"k.k.g.k.q.q.9.&.O.%.0.k.f.0.q.g.g.q.q.q.q.k.q.g.g.y.g.g.g.g.y.q.q.k.g.y.q.g.k.q.q.q.q.q.q.q.q.q.q.g.f.g.l.j.=.O.;.q.q.9.9.9.q.j.",
"j.g.k.k.g.q.q.;.+.%.2.0.0.0.g.g.g.y.g.k.k.q.q.q.y.g.g.g.y.g.q.k.q.q.k.q.g.g.y.g.q.q.q.q.q.q.9.q.q.f.f.f.0.0.=.%.4.q.q.q.g.9.h.j.",
"g.k.g.k.k.y.q.9.5.=.@.@.2.q.g.g.q.k.g.q.q.q.k.k.y.g.y.g.y.g.q.k.k.q.k.q.y.g.g.q.g.q.q.q.q.q.q.q.q.q.0.8.$.@.=.5.q.g.g.g.j.j.g.j.",
"g.g.q.k.k.g.q.q.g.4.@.O.2.q.g.k.k.q.q.q.y.g.q.q.g.k.q.g.g.q.q.q.q.k.q.q.y.g.q.q.k.q.q.q.q.q.q.q.q.q.0.8.@.{ 5.j.g.g.g.j.g.j.k.j.",
"g.q.q.y.g.q.q.q.g.q.4.2.0.0.q.q.q.q.k.k.q.g.k.q.g.q.y.g.g.k.k.q.q.q.q.k.g.q.k.q.q.q.q.q.q.q.q.9.q.0.y.0.6.6.q.k.g.g.g.g.g.j.j.j.",
"7.q.q.q.q.q.9.q.g.g.q.y.q.q.y.q.g.g.y.y.g.g.k.q.q.q.q.k.q.k.y.g.k.q.g.y.g.g.g.q.g.y.g.q.q.q.q.q.q.y.y.t.y.y.y.g.g.g.q.g.g.d.j.d.",
"&.5.q.9.q.d.9.d.q.q.q.9.y.q.q.y.y.g.g.g.g.y.q.q.k.k.q.q.q.g.g.g.k.q.g.y.g.y.k.q.q.q.q.q.q.q.q.q.q.y.t.t.y.y.q.q.q.g.g.g.g.j.d.:.",
"X.;.9.q.9.q.9.d.9.9.9.7.7.7.y.q.q.g.q.q.g.y.g.k.q.g.k.q.k.q.q.y.q.q.q.g.q.k.q.q.q.q.q.q.q.q.q.q.7.q.y.t.t.r.0.q.q.d.g.g.g.g.:.o.",
"o.;.9.q.q.q.9.q.9.q.9.7.t.y.y.y.q.q.g.g.q.g.g.g.g.y.g.g.y.g.g.k.q.k.k.q.q.q.q.k.q.q.q.k.q.q.q.9.q.t.y.t.t.t.q.g.d.d.d.q.q.j.9.o.",
"o.;.q.q.q.q.q.d.q.q.7.t.t.t.t.q.q.g.g.q.q.g.q.g.g.g.k.g.k.q.g.q.g.q.q.k.k.k.q.q.g.g.q.q.q.q.q.q.q.y.y.y.y.q.q.g.d.d.d.q.q.q.:.#.",
"*.:.q.q.q.q.d.q.q.q.7.t.t.7.y.y.q.q.g.g.g.g.g.g.k.g.k.g.g.g.k.g.y.k.q.q.q.q.q.k.y.q.q.q.y.q.q.q.y.q.q.7.9.q.g.g.j.d.d.q.5.9.:.| ",
"| i.d.g.9.q.q.q.q.q.7.t.t.t.7.q.q.g.g.q.g.g.g.g.k.g.g.g.g.k.g.k.g.g.k.q.q.q.q.k.q.q.g.q.q.q.q.q.q.7.7.q.q.q.j.d.d.d.d.q.q.0.3.| ",
"+ ..j.g.q.q.q.q.q.9.7.t.7.7.y.q.q.g.g.g.g.q.q.g.g.g.g.k.g.k.g.g.q.k.q.q.k.k.q.q.k.q.q.q.q.q.q.q.q.q.q.7.9.q.q.d.j.d.g.9.0.j.-.@ "
};
