/* XPM */
static char *result[] = {
/* columns rows colors chars-per-pixel */
"64 64 139 2 ",
"   c #8D4B03",
".  c #985406",
"X  c #9B5610",
"o  c #A55A01",
"O  c #AA5E01",
"+  c #BB6704",
"@  c #BF6B01",
"#  c #B06418",
"$  c #C37103",
"%  c #CE7600",
"&  c #C27C0F",
"*  c #D47E00",
"=  c #CA7D13",
"-  c #B47446",
";  c #BA7A47",
":  c #D78502",
">  c #DE8D03",
",  c #D98A0D",
"<  c #DF9406",
"1  c #D9950E",
"2  c #DB980C",
"3  c #D38B15",
"4  c #DE9419",
"5  c #E69B07",
"6  c #E3960D",
"7  c #EC920F",
"8  c #F0970E",
"9  c #F39B0D",
"0  c #E58C11",
"q  c #EA8E14",
"w  c #E38218",
"e  c #E68D1D",
"r  c #E3941A",
"t  c #E8931F",
"y  c #E3991B",
"u  c #E8991B",
"i  c #DEA20E",
"p  c #DBA414",
"a  c #F6A10B",
"s  c #F8A70A",
"d  c #F7AB0B",
"f  c #E3B40F",
"g  c #FBB008",
"h  c #FBBA0B",
"j  c #E6A712",
"k  c #E4A21D",
"l  c #EEA41D",
"z  c #F7A21C",
"x  c #ECB21B",
"c  c #DB8F2A",
"v  c #DE8C3C",
"b  c #DE9132",
"n  c #E59D23",
"m  c #E08D3E",
"M  c #E29934",
"N  c #DEAF30",
"B  c #EBA424",
"V  c #E3AF23",
"C  c #E9A42C",
"Z  c #E9B72C",
"A  c #E3B82C",
"S  c #F4B227",
"D  c #E0A233",
"F  c #E9A237",
"G  c #EEAD38",
"H  c #EFB630",
"J  c #ECB438",
"K  c #F9BC35",
"L  c #FCC60B",
"P  c #F4CB0C",
"I  c #FCD108",
"U  c #F9D310",
"Y  c #F2C132",
"T  c #B38154",
"R  c #C28655",
"E  c #D88D55",
"W  c #D3945E",
"Q  c #DD965B",
"!  c #E88C42",
"~  c #EA8D4B",
"^  c #E59445",
"/  c #E89546",
"(  c #E39549",
")  c #EA954A",
"_  c #E59A4D",
"`  c #EC9A4B",
"'  c #F09D4E",
"]  c #E18D52",
"[  c #E09150",
"{  c #E19850",
"}  c #EE9E52",
"|  c #E29C5C",
" . c #ED9E5E",
".. c #F39E51",
"X. c #F39C59",
"o. c #E7A244",
"O. c #EEAE4D",
"+. c #F4A04F",
"@. c #EABC45",
"#. c #EFA155",
"$. c #EDA15C",
"%. c #F5A354",
"&. c #F9A557",
"*. c #F5AC54",
"=. c #FBAE56",
"-. c #F3A459",
";. c #FBA659",
":. c #F6AA5B",
">. c #FEAD5D",
",. c #F9B156",
"<. c #FCB15A",
"1. c #D49D67",
"2. c #E19C62",
"3. c #ECA365",
"4. c #E6A468",
"5. c #EAAA6D",
"6. c #F4A664",
"7. c #FCA760",
"8. c #F4AA63",
"9. c #FFAD61",
"0. c #F4AB69",
"q. c #FEAE69",
"w. c #FFB162",
"e. c #F3B966",
"r. c #FCB26B",
"t. c #E7C64A",
"y. c #F7CE48",
"u. c #F6D345",
"i. c #F6D24E",
"p. c #F9D64F",
"a. c #F0CE58",
"s. c #F1D563",
"d. c #F2D768",
"f. c #F9DC69",
"g. c #FBE56F",
"h. c #FDE070",
"j. c #FCE975",
"k. c #F9E681",
"l. c #FDEE8D",
/* pixels */
"T W 3.6.9.>.>.=.>.>.w.q.q.q.9.9.9.9.9.9.9.9.9.>.9.>.9.9.9.>.9.>.9.>.9.>.>.>.9.>.9.>.>.w.>.>.>.>.>.<.>.>.<.<.>.<.>.>.<.9.q.6.Q R ",
"1.4.0.7.9.>.>.>.>.>.9.9.9.q.r.9.9.9.9.>.7.>.9.7.9.9.9.;.9.>.9.9.>.>.>.>.>.>.>.>.>.>.>.>.>.>.>.9.9.>.>.<.:.>.<.>.>.<.>.9.9.q.0.2.",
"5.0.q.9.9.>.>.<.>.>.w.w.9.r.9.9.9.9.;.9.9.9.9.9.>.9.9.9.7.9.9.9.9.>.9.>.>.>.>.>.9.>.>.>.>.9.>.>.>.>.>.<.>.<.<.<.<.<.>.>.>.9.8.6.",
"r.r.q.9.9.>.>.>.<.<.9.9.9.9.9.9.9.9.9.9.9.>.9.>.9.9.9.9.9.9.>.9.>.>.>.>.9.>.>.9.<.>.>.>.>.>.<.>.>.>.=.>.,.>.w.:.<.>.>.>.;.>.>.r.",
"r.r.9.9.>.9.>.9.9.<.>.w.9.9.9.w.9.9.9.9.9.7.9.9.7.9.9.>.9.9.9.>.9.>.9.<.<.>.>.>.>.>.>.>.9.<.>.>.>.=.=.>.>.<.<.w.<.>.>.>.9.;.>.>.",
"r.w.w.9.9.>.>.9.9.w.9.9.9.9.9.9.9.9.9.>.9.9.>.>.>.9.9.9.;.9.7.9.9.>.>.>.9.>.>.9.>.>.>.>.9.>.>.>.>.>.>.>.>.>.>.>.9.9.9.9.;.;.;.>.",
"w.>.>.>.>.&.%.%.>.>.>.9.9.>.9.9.9.;.9.;.>.>.9.9.9.>.9.>.9.9.9.9.>.>.>.9.>.9.>.>.&.` ' %.>.>.>.>.<.>.>.>.>.>.>.>.>.9.9.9.>.;.;.>.",
">.>.>.>.>.%./ ` &.&.>.>.9.9.9.9.9.9.9.9.>.7.7.>.9.9.7.9.9.9.9.>.w.>.>.>.>.>.9.<.%.^ m %.>.9.w.>.>.>.>.7.>.>.>.>.>.>.>.9.9.7.9.>.",
">.>.>.>.>.&...' ' ' ;.>.>.>.>.9.9.9.;.9.;.9.9.9.9.9.9.>.9.9.9.9.>.9.>.>.>.>.>.<.&.` ) ` ' %.9.9.9.7.9.7.9.9.>.>.>.>.>.9.9.9.7.9.",
"=.>.>.>.>.>.;.../ ) ..>.;.;.;.9.9.;.9.9.>.9.>.9.7.>.9.9.>.9.>.9.>.>.>.>.>.>.>.9.>.>.%.^ m ' >.>.9.7.7.q.7.7.>.>.>.>.>.>.9.9.9.9.",
">.>.>.>.>.9.9.&.` ' ;.;.>.;.>.9.>.9.>.7.;.>.9.7.>.9.9.9.>.9.9.>.>.>.>.w.w.>.>.>.9.>.=.` ^ %.9.>.9.9.q.7.7.7.>.>.>.>.>.>.9.7.9.>.",
"9.>.9.>.>.>.9.;.;.;.>.>.7.;.>.;.7.9.>.>.9.>.>.>.>.>.>.>.>.>.9.<.>.>.>.>.>.>.>.>.>.>.9.;.&.=.w.9.9.9.9.7.q.9.9.>.:.<.>.>.9.9.>.>.",
"9.9.<.8.9.9.>.>.>.>.9.w.9.>.>.7.9.;.9.>.>.>.>.>.>.>.>.9.>.>.>.>.>.9.>.>.>.>.>.w.w.>.9.>.>.w.w.>.9.9.9.9.9.9.9.>.>.>.>.9.9.9.>.>.",
"0.w.w.w.9.;.>.;.;.>.9.w.9.:.>.9.>.>.>.>.>.>.>.>.>.>.>.>.>.9.9.>.9.<.w.>.>.>.>.9.>.>.>.>.>.>.>.w.9.9.9.9.9.9.9.>.>.>.>.>.9.>.>.>.",
"r.8.8.<.>.;.;.;.;.>.9.w.<.8.:.9.9.9.>.&.=.>.>.>.>.>.>.>.9.>.>.9.>.9.>.>.>.9.>.>.>.9.>.>.>.>.>.>.w.9.q.9.9.7.;.;.=.>.>.>.>.>.>.>.",
"9.w.9.9.9.9.;.7.;.>.9.9.9.>.>.>.9.w.:.} ..&.>.9.>.>.>.9.<.>.>.>.>.>.>.>.9.<.>.>.>.>.<.9.>.>.>.9.9.9.9.7.9.=.+.` %.>.>.>.>.>.>.>.",
"9.9.9.9.>.7.>.>.>.9.>.9.>.>.>.>.>.r.-.^ / %.>.>.>.>.9.>.>.>.>.>.>.9.>.>.9.>.>.9.>.>.>.9.>.9.>.>.9.>.9.>.>.&./ v ` 9.9.>.>.9.9.>.",
"9.>.>.7.>.>.9.;.9.7.>.>.>.>.>.&.%.` #.` %.=.>.9.>.<.>.>.>.w.>.9.>.<.9.>.>.>.>.9.w.>.>.>.>.9.<.>.>.>.9.&.%.) ` ` %.>.9.<.>.<.>.>.",
"9.>.7.>.9.;.7.>.>.>.>.>.>.;.>.>.` v ^ *.>.9.w.>.>.>.>.>.>.>.>.<.>.>.>.>.>.<.>.<.>.>.9.>.>.>.9.>.>.>.>.%./ m } =.>.9.9.>.9.9.>.>.",
"9.>.7.>.9.9.;.9.7.>.>.>.>.>.>.&.%._ +.:.<.9.<.>.>.>.>.>.>.>.>.>.>.9.9.>.>.9.>.>.>.>.<.>.>.9.>.>.<.9.9.&.' ) %.>.>.>.>.>.>.<.>.>.",
"9.9.>.9.;.;.9.9.>.>.>.>.>.>.>.>.>.>.>.>.w.<.>.>.=.>.>.=.>.>.<.>.>.9.>.>.9.>.>.>.>.9.>.<.>.9.>.>.9.9.>.>.=.>.>.w.w.>.>.>.>.9.>.>.",
"7.9.;.;.9.9.9.7.7.>.7.>.>.>.>.>.9.w.<.>.>.>.>.>.>.<.>.>.>.=.>.>.>.<.>.>.<.>.>.9.>.>.>.9.>.>.<.9.>.>.9.>.9.>.<.w.>.>.>.>.>.>.9.<.",
">.;.>.9.;.9.>.>.7.9.>.>.>.>.>.7.>.>.>.>.>.=.=.>.>.>.>.>.>.>.>.>.>.9.9.>.>.9.>.>.>.>.>.>.>.>.>.>.9.>.9.w.9.w.>.>.>.>.>.>.>.>.>.>.",
">.9.;.9.9.>.9.7.;.>.>.>.>.>.>.>.>.=.>.;.=.>.=.>.>.>.=.>.>.=.>.=.>.<.>.>.>.>.>.>.w.>.>.9.>.>.w.>.<.9.<.9.w.>.>.>.9.>.>.w.>.>.>.9.",
">.>.;.>.>.>.>.>.>.>.>.>.>.>.>.>.>.>.;.>.=.;.=.>.>.=.>.>.<.>.>.>.>.>.<.9.>.>.9.>.>.>.>.w.>.>.9.>.>.9.>.9.>.w.9.>.>.<.>.>.>.>.9.<.",
";.>.>.>.9.>.>.>.>.>.9.;.>.>.>.>.>.>.=.>.>.>.;.>.>.>.>.>.>.>.>.>.>.>.9.>.>.>.>.>.9.>.>.>.>.>.>.>.>.<.>.>.>.>.>.>.>.9.>.w.>.>.>.9.",
">.>.>.>.>.>.>.>.>.>.>.>.>.>.;.>.>.9.>.>.>.=.=.=.>.=.=.>.>.v w e F s.@.e.>.>.<.9.9.>.>.>.>.9.>.>.>.9.>.>.>.>.<.9.>.>.>.>.>.>.>.>.",
">.>.>.>.>.>.>.>.>.>.>.>.>.>.>.>.>.;.=.>.>.;.>.>.>.>.>.>.%.t z z a.N 2 D >.>.9.>.<.>.9.>.>.>.<.9.>.>.w.>.>.>.>.9.>.9.>.>.<.>.>.9.",
">.>.>.>.9.>.&.>.>.;.>.>.>.>.>.>.>.>.>.;.=.>.>.>.>.>.>.>._ l S K d.f P 4 :.>.>.>.<.9.>.>.>.>.>.>.>.w.>.>.>.>.>.>.>.>.>.>.9.>.>.>.",
">.>.>.>.>.>.>.>.>.>.>.;.>.>.>.>.>.>.>.>.=.>.=.>.>.=.>.=.o.Y p.g.t.P I 6 O.w.>.>.>.>.9.>.>.>.w.>.>.>.>.>.>.w.>.>.9.>.>.w.9.>.9.>.",
">.>.>.>.>.>.>.>.>.>.>.>.>.;.>.>.>.;.>.>.>.;.>.>.>.=.>.>.J u.g.l.A U L 5 G >.9.<.9.>.>.9.>.>.9.>.>.9.>.>.>.>.9.>.>.>.>.>.9.>.>.>.",
">.>.>.>.>.>.>.>.>.>.>.>.>.>.>.>.>.>.>.>.>.=.>.>.>.>.>.>.Z p.j.l.p I h a n >.>.9.>.>.>.<.9.>.>.>.>.<.9.>.>.>.>.>.9.<.>.>.>.>.9.<.",
">.>.>.>.>.>.>.>.>.;.>.=.>.;.>.>.>.>.;.=.>.>.=.>.>.>.>.<.V u.h.k.i L g 9 r >.>.>.>.<.9.>.9.>.>.<.9.9.>.>.>.>.<.9.>.>.>.>.<.9.>.>.",
">.>.>.>.>.>.>.>.>.>.>.>.>.>.>.>.>.>.>.>.=.>.;.>.=.>.>.>.p Y i.f.p h s 9 y >.>.>.9.>.>.>.>.>.>.9.>.>.>.>.>.9.9.>.>.>.>.9.9.>.>.>.",
">.>.>.>.;.>.>.>.>.>.>.>.=.>.>.=.=.;.=.>.>.>.=.>.>.>.>.>.1 j x y.6 d a 8 n >.>.>.>.>.>.w.>.9.>.>.>.>.>.w.>.>.9.<.>.9.>.>.>.>.9.>.",
">.>.>.>.>.>.;.>.>.>.>.;.>.=.>.;.>.>.>.>.;.=.>.>.>.>.>.9.3 < 5 H 6 a 9 7 C >.>.9.>.>.>.>.<.9.>.>.>.>.>.>.>.>.9.>.9.<.>.>.9.>.9.<.",
">.>.>.>.>.>.>.>.>.>.;.=.;.>.=.=.>.>.=.;.=.>.>.>.=.>.<.>.b : > k l 9 8 0 M >.>.>.>.>.9.>.>.>.>.>.>.9.>.>.>.>.>.>.9.9.>.>.>.>.>.w.",
">.>.>.>.>.>.>.>.>.>.>.>.>.>.>.>.=.>.>.>.>.>.=.>.>.>.>.>.( % * , S q q c ( <.>.>.>.9.>.>.>.>.9.>.<.>.w.>.>.>.>.9.>.<.>.>.>.>.>.>.",
">.>.>.>.;.>.>.>.>.>.>.=.>.=.>.=.>.>.=.>.>.=.=.>.>.=.=.>.{ + @ $ B 0 w c >.>.>.>.>.<.>.>.>.w.9.>.9.>.9.>.>.<.9.>.>.>.>.9.<.9.>.>.",
">.>.>.>.>.>.>.>.>.>.;.>.>.=.>.>.>.;.=.>.>.=.>.>.>.>.>.>.=.# o O & n = b >.>.>.w.9.>.>.>.>.>.>.>.>.>.>.>.9.>.>.>.>.>.>.>.9.>.>.>.",
";.>.>.>.>.>.>.>.>.>.>.>.;.>.>.>.=.>.>.>.=.>.>.>.>.>.>.>.<._ X   . 3 u %.>.9.<.>.>.9.>.>.>.>.>.>.>.>.>.>.>.>.>.>.9.>.9.>.>.9.>.>.",
">.>.>.>.>.;.=.>.>.;.>.=.=.>.>.w.>.>.>.>.&.%.+.;.>.>.>.>.>.>.>.>.>.>.>.>.>.>.9.>.>.%.%.>.>.>.>.>.>.9.>.>.>.>.9.>.>.>.>.>.>.>.>.>.",
">.>.>.=.=.>.>.>.>.=.>.>.>.=.>.w.<.w.>.=.+.` ` +.>.w.9.>.>.>.>.>.>.>.>.>.>.>.9.<.;.` ` %.&.>.>.9.9.>.>.>.>.>.>.>.>.>.>.>.<.>.>.9.",
">.=.;.>.>.>.;.=.>.=.>.;.>.>.>.w.9.w.:.&.' ` ` %.>.>.>.>.>.>.>.>.>.>.>.9.9.>.>.>.;.' ` ' %.&.>.>.>.>.>.>.>.>.9.;.>.>.>.>.9.>.>.>.",
">.>.>.>.>.>.>.>.>.>.=.=.>.>.>.>.>.>.%.` / +.%.=.>.9.<.>.>.9.>.>.9.>.9.>.>.>.9.>.:.;...` ) ..>.&.&.>.=.;.>.>.;.>.>.>.>.>.9.>.>.>.",
">.;.=.=.=.;.>.=.;.=.>.>.>.>.&.>.>.>.%./ ` %.>.>.>.>.9.>.>.<.9.>.>.>.<.>.>.9.>.>.>.<.=.` ^ ` >.&.&.>.>.9.>.>.>.>.>.>.>.>.>.>.>.9.",
"=.>.>.>.>.>.;.>.>.>.>.>.>.=.>.&.>.>.>.%.%.>.9.9.>.>.<.>.>.>.9.>.>.>.>.9.>.<.9.>.>.<.>.%.%.%.9.=.&.>.>.>.>.>.>.>.>.>.>.>.>.9.<.9.",
">.>.;.>.>.>.=.>.=.>.;.=.>.>.&.=.>.9.<.w.w.w.w.w.9.>.9.>.>.9.>.>.9.>.>.>.>.>.9.>.>.>.9.>.>.>.w.>.>.;.;.>.>.9.;.>.;.>.>.>.>.>.>.>.",
">.>.;.>.>.>.=.>.>.>.>.:.>.>.>.&.>.>.>.>.w.>.w.>.>.<.9.>.>.9.>.9.w.>.>.>.>.>.9.<.>.>.>.>.>.>.9.>.&.=.9.>.>.>.>.>.>.>.>.>.>.>.9.>.",
">.>.>.>.>.>.=.;.=.>.>.>.<.>.>.&.>.>.>.>.>.>.>.>.9.>.>.>.>.>.>.<.>.>.>.>.>.>.9.>.>.&.&.-.=.>.9.>.>.>.>.7.7.>.>.>.9.;.>.>.9.9.9.9.",
"9.9.>.>.>.>.=.;.' %.>.9.7.>.=.>.>.>.<.>.>.>.>.>.>.>.9.>.>.>.>.>.>.>.>.>.9.>.>.>.>.&.&.>.;.>.9.>.>.>.7.9.q.>.-...&.;.>.9.9.7.>.9.",
"w.w.w.>.>.>.;.../ ) :.w.9.:.>.>.9.9.9.>.w.>.w.>.w.9.9.<.>.w.>.w.w.>.w.9.9.<.9.>.>.>.>.>.>.>.>.>.>.9.:.q.w.q.../ ..>.>.;.>.9.7.9.",
"w.9.w.w.>.>.>.../ _ #.-.:.8.>.9.>.>.w.w.w.>.>.>.>.9.w.>.>.w.>.>.>.>.>.w.<.9.9.>.>.>.>.>.>.;.>.>.7.8.w.8.:.$.} ) %.>.9.9.>.7.9.r.",
"9.9.9.w.w.9.>.;.&.#.( ( #.:.9.9.w.9.>.>.>.>.w.w.9.<.9.9.>.>.w.>.>.w.>.>.9.9.<.9.9.>.>.>.>.>.>.>.>.>.:.-._ ( #.&.>.9.9.9.q.9.r.9.",
"9.9.9.w.w.9.>.>.>.%.( ^ } :.>.9.w.>.>.>.>.w.>.>.9.9.<.<.w.w.>.>.<.9.w.>.<.9.9.>.>.9.>.>.>.>.>.9.>.:.:.-.( ( #.w.7.9.9.q.9.r.9.q.",
"9.w.>.<.<.>.>.>.9.>.%.%.:.>.>.w.>.>.w.w.>.>.w.>.<.9.9.9.>.>.>.w.9.9.<.9.>.w.>.>.>.>.>.>.>.>.>.;.>.<.<.:.*.*.:.w.9.9.9.9.9.9.q.q.",
"=.>.>.>.>.>.;.9.9.9.<.<.>.>.>.>.w.>.>.>.w.>.w.>.<.9.9.>.>.>.>.w.9.<.>.>.w.w.>.>.>.>.<.>.>.>.>.=.:.<.<.,.<.<.<.9.9.9.>.9.9.q.7.q.",
"' &.>.=.>.;.7.;.;.>.>.=.>.<.<.<.>.9.w.>.w.>.>.>.9.9.<.w.w.w.>.>.9.9.w.>.>.>.9.>.9.>.9.>.>.>.>.>.<.<.,.,.<.<.>.9.>.9.9.9.9.7.7.X.",
"! ..>.>.>.;.;.7.;.;.>.;.=.<.>.<.<.9.>.9.>.<.9.w.9.<.>.>.>.>.w.>.<.w.>.>.>.9.<.9.>.>.>.9.>.>.>.>.>.<.<.,.,.,.=.>.9.7.9.9.9.9.X.~ ",
"~ ..;.>.>.>.7.;.9.;.;.=.=.,.<.>.>.>.9.>.>.9.9.9.9.9.w.>.9.w.9.9.9.9.>.w.w.9.<.9.>.>.9.<.>.>.>.>.>.>.<.,.,.,.>.9.9.7.;.9.9.7.;.~ ",
"~ X.;.;.>.>.7.>.>.>.=.,.,.,.,.>.>.9.9.7.9.9.9.9.w.w.9.9.9.9.w.<.w.>.>.>.>.>.>.w.9.9.>.>.>.>.>.>.<.<.<.<.>.:.>.9.7.7.7.>.>.;.X.[ ",
"] X.7.>.>.>.>.7.>.>.=.,.,.,.,.<.>.9.>.9.9.>.9.9.9.9.9.w.w.9.9.9.9.>.w.w.>.w.>.>.<.>.>.>.<.>.>.>.>.=.=.>.:.>.>.9.7.7.9.>.>.;.-.[ ",
"E  .9.9.>.>.9.;.>.>.=.,.,.<.>.<.>.9.9.9.>.9.>.9.9.9.9.w.w.>.9.9.9.<.>.>.w.>.w.>.>.>.>.>.>.9.>.>.>.>.>.=.>.>.7.q.q.7.9.;.;.:.$.E ",
"- Q q.9.;.>.>.>.>.=.=.,.=.=.=.>.>.9.>.9.>.9.9.>.w.w.9.9.9.9.w.w.9.9.w.>.>.9.9.<.w.>.9.>.>.>.>.>.=.>.=.>.>.>.9.7.7.7.7.;.>.q.| ; "
};
