/* XPM */
static char *result[] = {
/* columns rows colors chars-per-pixel */
"64 64 151 2 ",
"   c #95510B",
".  c #A95B01",
"X  c #A5620B",
"o  c #B5740E",
"O  c #CB7503",
"+  c #C77A0E",
"@  c #D27707",
"#  c #D67C01",
"$  c #DE7B19",
"%  c #B47446",
"&  c #BA7A47",
"*  c #DC8B03",
"=  c #D2870C",
"-  c #D99807",
";  c #D28B14",
":  c #D49C18",
">  c #E08109",
",  c #E78E0A",
"<  c #E09805",
"1  c #E49E09",
"2  c #F1910E",
"3  c #F49C0C",
"4  c #E58615",
"5  c #EB8D14",
"6  c #E68619",
"7  c #E08C1C",
"8  c #E19413",
"9  c #E99916",
"0  c #ED9C19",
"q  c #F09412",
"w  c #E4A10A",
"e  c #E0AA0C",
"r  c #F7A50B",
"t  c #F9AD0A",
"y  c #E7B30D",
"u  c #F7B009",
"i  c #FAB40C",
"p  c #F9BD09",
"a  c #E5A113",
"s  c #E5AB12",
"d  c #EBAE13",
"f  c #E4AF19",
"g  c #F1A819",
"h  c #E5B214",
"j  c #D78620",
"k  c #DF8622",
"l  c #D38A2F",
"z  c #DA8B2E",
"x  c #D39D24",
"c  c #D4883A",
"v  c #DE8C3D",
"b  c #E09C23",
"n  c #E59529",
"m  c #E08D3E",
"M  c #E59C33",
"N  c #EA993B",
"B  c #D7A930",
"V  c #EDA523",
"C  c #ECA42C",
"Z  c #F0AA2F",
"A  c #EFB027",
"S  c #EDB925",
"D  c #E5B72B",
"F  c #EDB32F",
"G  c #F5B322",
"H  c #F8B428",
"J  c #E6AD35",
"K  c #E9A832",
"L  c #F1AC34",
"P  c #EFBA3A",
"I  c #F3BD3E",
"U  c #FAC30C",
"Y  c #F5CC0C",
"T  c #FBCB0E",
"R  c #FCD10D",
"E  c #EFCA11",
"W  c #FBC212",
"Q  c #FCD211",
"!  c #F7D912",
"~  c #FCDB12",
"^  c #F8C02E",
"/  c #F3C434",
"(  c #B38154",
")  c #C28655",
"_  c #D88D55",
"`  c #D3945E",
"'  c #DD965B",
"]  c #EA8D4B",
"[  c #E59445",
"{  c #E89546",
"}  c #E69943",
"|  c #E49549",
" . c #EA954A",
".. c #E6994C",
"X. c #EC9A4B",
"o. c #F09D4E",
"O. c #E18D52",
"+. c #E09150",
"@. c #ED9E52",
"#. c #E29C5C",
"$. c #ED9E5E",
"%. c #F39E51",
"&. c #F39C59",
"*. c #EAA742",
"=. c #F4A04F",
"-. c #EDBF41",
";. c #EABB48",
":. c #EFA155",
">. c #EDA15C",
",. c #EBA958",
"<. c #F4A354",
"1. c #F9A557",
"2. c #F4AB55",
"3. c #FBAE56",
"4. c #F4A559",
"5. c #FBA659",
"6. c #F6A95B",
"7. c #FEAD5D",
"8. c #F9B156",
"9. c #FCB15A",
"0. c #D49D67",
"q. c #E6A468",
"w. c #EBA769",
"e. c #F4A664",
"r. c #FCA760",
"t. c #F4AA63",
"y. c #FFAD61",
"u. c #F4AB69",
"i. c #FEAE69",
"p. c #F2B765",
"a. c #FFB162",
"s. c #FCB26B",
"d. c #ECC648",
"f. c #F2C142",
"g. c #FAC649",
"h. c #F7D947",
"j. c #F7D44B",
"k. c #FBD04C",
"l. c #F9DC4F",
"z. c #EFC953",
"x. c #F7CF59",
"c. c #FCD353",
"v. c #EFCA6A",
"b. c #F0D160",
"n. c #F1D864",
"m. c #FAD873",
"M. c #F6E174",
"N. c #FEE873",
"B. c #FBE47D",
"V. c #FEEB7F",
"C. c #FBEB8B",
/* pixels */
"( ` w.e.y.7.5.7.3.7.y.i.i.i.i.y.y.y.y.7.r.y.y.y.7.5.y.y.y.y.7.y.7.7.7.7.7.7.7.7.7.7.7.7.7.7.y.7.7.7.9.7.9.7.7.7.7.9.9.i.y.e.#.) ",
"0.q.u.r.y.7.7.7.9.7.y.i.y.a.i.y.y.7.y.y.y.y.y.7.y.y.y.y.y.7.r.y.y.7.7.y.7.y.y.9.y.9.y.7.y.9.y.9.7.7.9.7.7.7.8.9.9.7.7.y.y.i.e.0.",
"w.u.i.y.y.7.7.7.7.a.a.a.y.i.y.a.y.y.y.y.7.7.y.y.y.r.y.y.y.y.y.y.7.7.7.7.7.7.7.y.y.7.7.7.y.7.7.7.7.7.7.7.7.9.6.9.7.9.7.7.5.y.i.e.",
"s.i.i.y.y.y.9.9.9.7.y.y.y.y.y.y.y.y.y.y.y.y.r.y.y.y.7.y.y.r.7.7.y.7.7.7.y.7.7.7.7.7.7.7.7.7.7.7.7.3.7.9.9.9.a.y.9.6.9.7.y.7.y.y.",
"s.s.i.y.7.7.y.y.7.a.y.y.y.a.y.y.y.y.7.5.y.7.r.y.7.y.y.y.5.y.y.y.7.y.y.9.7.7.7.7.7.7.7.7.7.y.7.7.7.3.9.7.7.9.9.9.a.6.7.7.5.5.5.7.",
"a.s.9.a.7.y.7.y.7.y.a.9.y.y.7.y.y.7.y.y.y.y.y.7.7.y.y.7.y.y.y.7.y.7.7.7.9.y.7.y.7.7.7.7.7.7.7.7.7.7.7.5.7.7.a.6.6.y.y.y.y.5.5.5.",
"a.7.7.y.7.1.%.<.5.7.y.y.7.y.y.y.y.y.y.y.5.y.y.y.y.y.7.y.y.7.y.y.7.7.y.7.7.y.7.7.1.X.X.1.7.9.9.y.7.7.7.7.7.7.7.7.9.y.y.y.7.5.7.7.",
"7.7.7.7.7.<.{ X.1.5.7.7.y.y.y.7.y.r.7.5.y.y.7.y.y.r.y.y.y.y.y.r.a.7.7.7.7.7.y.9.<.[ m <.y.y.7.y.7.7.7.7.7.7.7.7.9.y.7.y.y.y.y.7.",
"3.7.7.7.y.1.%.o.o.%.5.7.7.7.7.y.y.5.y.5.y.y.r.y.y.7.y.7.y.y.y.y.7.y.7.7.7.7.7.9.1.X.X.X.%.1.7.y.7.r.y.r.r.7.7.7.y.7.7.y.y.y.y.y.",
"5.7.7.7.7.5.5.%.{  .1.5.5.1.5.7.y.y.y.y.y.5.7.y.y.y.y.y.y.7.y.y.7.7.7.7.7.7.y.7.y.5.<.{ m X.7.7.7.i.r.i.y.y.7.7.7.7.7.y.y.y.r.y.",
"7.7.7.7.7.7.y.1.o.o.1.7.7.1.7.r.y.5.y.5.y.5.y.7.7.7.7.y.7.7.y.7.7.7.9.y.7.7.7.7.7.7.5.X.[ <.9.7.y.r.r.r.r.i.y.7.7.5.7.7.7.y.y.7.",
"y.9.a.7.7.y.y.5.1.1.7.y.7.7.5.y.7.y.y.7.7.7.7.y.y.7.y.7.7.7.7.7.7.7.7.y.a.7.7.7.a.y.9.5.1.7.a.y.y.y.y.i.r.y.7.7.7.3.7.7.y.y.y.7.",
"i.t.9.6.y.y.7.7.7.y.y.a.r.6.y.y.7.r.7.7.7.7.7.7.7.7.7.y.7.9.y.7.y.7.y.7.7.7.7.a.7.9.9.y.7.y.7.y.y.y.y.i.y.y.7.5.7.7.7.7.y.r.7.7.",
"i.a.a.a.y.5.5.7.5.7.y.a.y.6.y.7.7.y.7.7.7.7.7.7.7.7.7.7.7.7.y.7.y.9.y.9.7.7.7.7.7.y.7.y.7.7.a.y.y.y.y.y.i.y.y.7.7.9.7.y.y.7.7.7.",
"s.t.t.a.y.5.5.5.5.7.7.a.a.y.6.y.7.y.7.7.5.7.7.7.7.7.7.7.y.7.y.9.7.y.7.7.y.y.7.7.7.7.7.7.7.7.7.y.y.y.i.y.y.y.5.3.7.7.7.7.7.7.7.7.",
"y.a.y.7.y.7.r.5.5.7.y.y.7.6.7.7.y.a.6.X.o.1.y.7.7.7.y.7.7.7.7.7.7.7.7.7.7.9.7.y.y.7.7.7.7.7.y.9.7.y.y.y.y.5.%.X.=.7.7.7.7.7.7.7.",
"y.6.y.y.7.y.5.y.y.5.y.y.7.7.7.5.7.a.2.}  .4.7.7.7.7.7.7.7.7.7.y.7.7.y.9.7.7.7.7.9.7.7.7.7.7.9.7.7.7.y.7.7.4.{ m X.y.7.7.7.9.y.7.",
"y.y.y.5.7.r.y.5.y.y.y.7.7.7.7.7.<.:.@.X.%.1.y.7.7.7.9.7.7.y.7.7.y.7.7.y.9.7.y.7.y.y.7.7.y.7.y.y.7.7.7.5.%.X.X.X.1.7.a.7.7.7.7.7.",
"y.y.7.7.7.r.5.y.y.5.7.7.5.7.5.1.X.v } 2.y.y.a.7.7.7.7.7.7.9.y.7.7.7.7.7.y.7.y.7.7.7.y.7.7.7.7.7.7.7.y.%.[ m X.3.7.7.7.y.y.9.7.y.",
"y.7.y.7.5.y.5.y.y.5.7.7.7.7.7.7.<...:.5.9.9.7.7.7.7.9.7.7.7.7.7.9.7.7.7.7.y.9.y.y.7.7.y.9.7.7.7.7.y.y.1.X.X.1.7.7.7.7.7.7.7.7.7.",
"y.y.y.y.y.5.y.y.7.5.y.7.7.7.7.7.7.6.7.9.a.7.7.7.7.3.7.7.7.3.7.9.y.7.7.y.7.7.7.7.7.7.9.y.7.7.a.7.7.a.y.y.5.5.7.a.a.7.7.7.y.7.7.7.",
"5.y.5.5.y.y.y.5.y.7.y.7.7.7.7.7.a.a.a.9.7.7.3.7.7.7.7.7.7.7.7.7.7.7.7.7.7.a.7.7.7.7.7.y.7.7.7.7.7.7.9.7.a.9.a.a.7.7.7.y.7.7.9.y.",
"y.5.5.y.5.y.y.y.7.7.7.5.7.7.7.y.7.7.7.7.7.7.7.7.3.7.7.7.7.7.7.7.7.7.7.9.7.7.7.7.9.7.7.7.7.y.9.7.7.7.9.a.a.y.y.7.7.7.y.7.7.y.y.7.",
"7.y.7.y.y.y.y.5.y.7.7.7.7.7.7.7.7.5.5.7.3.5.3.3.7.9.7.7.7.3.3.7.7.y.7.y.7.7.y.7.y.y.7.7.7.7.y.y.7.y.y.y.y.9.7.7.7.7.9.7.7.7.7.7.",
"7.7.5.7.y.7.7.7.7.7.7.7.7.7.7.7.7.7.5.7.7.3.5.7.7.7.7.9.7.7.7.7.7.7.7.7.7.7.7.7.7.7.y.y.7.7.7.7.y.y.7.y.7.a.7.7.7.7.7.7.y.7.7.9.",
"5.7.7.7.7.7.7.7.7.7.7.7.7.7.7.7.7.7.7.7.3.7.5.7.7.3.7.7.7.7.7.7.9.7.7.7.7.y.7.7.7.7.7.9.y.7.7.7.7.9.7.7.7.7.7.7.7.a.7.y.7.7.y.y.",
"7.7.7.7.7.7.7.7.7.7.7.7.7.7.6.7.7.7.7.3.5.7.3.7.7.3.7.X.7 n v.M.d.-.k.p.7.7.a.7.y.7.7.7.7.7.9.7.7.7.7.7.7.7.y.y.7.7.7.9.7.y.7.7.",
"7.7.7.7.7.7.7.7.7.7.7.5.7.7.7.7.5.7.7.7.3.7.7.3.7.7.<.0 V m.n.x w w ; P p.7.7.7.y.9.7.7.7.7.y.y.7.7.y.9.7.y.9.7.7.7.7.y.7.7.7.7.",
"7.7.7.7.y.7.7.7.7.7.7.7.7.7.7.7.7.7.7.3.7.5.7.7.7.7.C H g.B.B y Y Y p ; I 5.7.7.9.y.7.y.y.7.9.7.y.y.7.7.7.7.y.7.7.y.7.7.9.7.y.7.",
"7.7.7.7.7.7.7.7.7.5.7.7.y.5.7.7.7.7.7.7.3.7.3.7.7.2./ l.B.;.e ! ~ R p r V ,.7.7.7.y.7.7.7.7.y.y.7.9.y.7.7.y.7.7.7.7.7.y.y.7.7.7.",
"7.7.7.7.7.7.7.7.7.7.7.7.7.7.7.7.7.7.7.7.7.7.5.7.7.D h.N.C.: E ~ ~ U i t @ *.7.y.7.7.7.7.7.7.7.7.y.y.7.7.y.9.7.7.7.9.y.9.7.7.7.7.",
"7.7.7.7.7.7.5.7.7.7.7.5.7.7.7.5.7.7.3.5.7.3.7.7.3.S l.V.B.f ! ! T p t r > L y.9.7.7.7.a.7.7.7.7.7.9.7.7.7.7.7.y.7.y.7.7.7.7.7.a.",
"7.7.7.7.5.7.7.7.7.7.7.3.7.7.7.7.7.7.7.7.7.5.7.9.5.S j.B.b.h ! Q U u r 3 2 Z 6.7.7.7.9.7.7.7.7.7.9.7.7.7.7.7.9.7.7.7.7.7.a.7.7.7.",
"7.7.7.7.7.7.7.7.7.7.5.7.7.7.5.3.7.5.3.3.7.3.7.7.7.s / b.z.e Q W i r 3 3 2 Z 6.7.7.7.y.y.7.7.7.7.y.y.7.7.7.7.y.y.7.7.7.7.7.7.7.7.",
"7.7.7.7.7.7.7.7.7.7.7.7.3.7.7.7.7.7.7.7.3.7.5.7.7.- d S x.d W i r 3 3 q 5 K y.7.7.y.9.7.y.y.7.y.y.7.y.7.7.y.9.7.y.y.7.y.7.7.y.7.",
"7.7.7.7.7.7.7.7.7.7.7.5.3.7.7.5.5.3.7.5.3.7.3.7.7.= < 1 c.a i r r 3 q 5 , M 7.7.7.7.y.y.7.9.7.7.7.y.9.7.7.7.y.y.7.9.7.7.y.7.y.9.",
"7.7.7.7.7.7.7.5.7.7.7.3.7.7.3.3.7.7.7.3.7.7.3.7.7.l * * f.8 r r 3 q 5 4 K } 7.7.y.7.7.7.7.7.7.y.7.7.9.y.7.7.7.7.y.y.7.7.7.7.9.y.",
"7.7.7.7.7.7.7.7.7.5.7.7.7.5.7.7.7.3.7.5.3.7.7.7.9.7.O # b ^ , 3 q 5 6 k J #.7.7.y.9.7.7.7.7.y.9.7.7.7.y.y.7.7.7.7.9.7.7.7.7.7.y.",
"7.7.7.7.7.7.7.7.7.7.7.3.7.3.7.7.5.3.7.7.7.5.7.7.7.7.c O + F g 5 5 6 $ *.z 7.7.7.7.7.7.7.y.7.7.7.a.7.7.7.7.7.9.7.7.7.7.y.9.7.7.7.",
"5.7.7.7.7.5.7.7.7.7.7.5.7.3.7.5.7.7.7.3.3.7.7.7.5.7.4.X . o A G 7 j ;.7 7.7.7.9.7.7.y.7.y.9.7.y.7.7.7.7.7.7.y.y.7.7.7.7.y.y.7.7.",
"7.7.7.7.7.7.7.7.7.7.7.7.3.5.7.7.7.7.3.7.7.5.7.7.7.7.7.1.c   X ; 0 9 N 6.7.7.7.y.y.7.9.y.9.y.7.7.7.7.7.7.y.7.7.y.y.7.y.7.7.7.y.7.",
"7.7.7.7.3.5.7.7.7.7.3.7.7.7.9.a.9.7.7.7.3.<.<.3.7.7.7.9.5.6.5.7.y.y.6.7.y.7.7.9.5.5.1.5.5.7.7.7.y.7.7.7.7.7.7.y.7.7.7.7.7.7.7.7.",
"7.7.3.7.3.7.7.3.3.5.7.7.7.7.9.a.9.a.7.5.=.X. .=.y.7.y.7.y.7.7.a.7.y.y.7.7.7.y.7.5.X.X.<.5.7.7.7.7.7.7.7.7.7.7.5.7.7.7.7.7.y.7.y.",
"3.7.5.7.7.7.7.5.7.7.3.5.3.7.7.a.a.a.7.<.o.X.X.<.9.7.7.7.y.7.7.7.7.9.y.7.y.9.7.7.3.o.X.o.<.1.7.9.7.7.7.7.7.7.7.7.7.7.7.7.7.9.7.7.",
"7.7.7.7.7.7.7.7.7.7.3.3.7.7.6.7.7.7.4.{ X.o.1.3.9.y.y.7.7.y.9.7.7.7.7.y.9.y.7.7.5.4.=.X.} %.7.5.5.7.5.7.7.7.7.7.7.7.7.7.y.7.7.7.",
"3.5.3.3.3.5.7.3.5.7.7.7.3.7.7.1.7.7.1.} { 1.7.7.7.7.7.7.7.7.y.7.7.y.7.7.7.7.y.7.7.7.6.X.[ X.5.5.5.5.6.7.5.7.7.5.7.7.7.7.7.7.7.a.",
"7.7.7.7.7.7.5.7.7.3.3.7.5.7.7.3.7.7.5.1.3.6.y.7.y.7.7.y.7.7.y.7.7.y.7.7.7.7.7.y.7.7.7.1.<.4.7.5.7.5.7.7.7.7.y.5.7.5.7.y.y.7.7.7.",
"7.7.5.7.7.7.7.3.7.7.5.7.3.7.5.5.7.y.a.7.y.a.a.a.7.7.7.9.y.7.7.7.7.9.y.7.7.y.7.9.7.a.7.7.7.7.a.7.3.5.7.7.7.7.7.7.7.7.7.9.7.7.7.7.",
"3.5.7.7.7.5.7.7.7.3.7.7.7.7.7.3.5.a.7.7.7.a.a.y.7.7.7.7.7.y.9.7.7.7.y.y.y.9.7.7.7.5.5.7.7.7.a.7.5.7.7.7.7.7.7.7.7.7.7.7.7.y.7.7.",
"7.7.7.7.7.7.3.5.7.7.7.6.7.6.5.1.7.y.7.7.7.7.7.7.7.7.a.7.7.7.y.7.7.7.7.9.7.7.y.7.6.5.3.5.5.6.a.7.7.5.7.6.7.7.y.5.y.5.7.y.y.7.y.y.",
"a.y.7.a.7.7.5.1.=.<.5.9.a.6.7.5.7.9.a.7.7.y.7.y.7.7.7.7.7.7.7.7.y.7.7.7.7.7.7.7.7.7.5.7.7.7.7.7.7.6.y.y.y.y.1.%.5.5.7.7.y.y.y.y.",
"a.a.y.9.7.7.3.o.{ X.3.s.a.6.7.y.y.7.7.7.y.9.y.9.a.7.a.7.7.a.7.a.y.9.7.7.a.y.a.7.7.7.5.7.7.7.7.7.y.y.6.i.s.i.@.{ %.7.7.5.5.5.7.i.",
"i.y.a.a.y.7.5.1.X...:.4.6.y.y.y.7.9.y.7.y.9.9.y.7.7.a.7.7.a.7.7.a.9.y.y.7.a.7.7.7.9.y.7.7.5.7.7.7.y.y.t.6.,.@.{ <.7.7.7.r.y.y.s.",
"y.y.y.a.a.7.7.5.1.:.| | :.5.t.y.y.a.y.a.y.y.y.y.7.a.7.7.7.7.a.7.7.y.y.9.7.a.7.7.7.7.7.7.7.7.7.7.y.6.r.,.+.| @.6.5.y.y.y.i.y.i.i.",
"y.y.y.a.a.7.7.y.7.<.| | :.5.6.a.7.7.a.7.a.7.y.9.7.7.a.a.a.a.7.7.7.7.y.a.7.7.a.7.7.7.7.7.7.7.7.7.7.y.6.4.X.| <.y.i.y.y.i.a.y.y.i.",
"y.9.y.9.9.y.7.7.y.5.<.<.2.7.7.a.a.7.7.7.a.7.y.y.a.7.7.7.7.7.7.a.a.a.7.7.a.7.7.7.y.7.7.7.7.7.7.5.9.6.9.8.2.2.6.y.y.y.7.y.i.i.i.i.",
"7.9.7.7.y.5.5.y.y.y.7.9.7.7.7.7.7.9.y.7.7.a.y.9.y.y.y.y.7.7.7.a.7.7.a.7.7.7.a.7.7.9.y.7.7.7.7.7.6.9.9.8.9.9.9.y.7.y.y.y.i.i.r.i.",
"o.<.7.7.7.y.5.r.7.7.7.7.8.9.7.9.7.a.y.a.7.7.y.9.9.y.9.9.a.a.7.7.7.a.7.7.a.7.7.7.7.7.y.7.7.7.7.7.7.9.8.8.9.9.9.7.7.y.5.y.y.y.r.&.",
"m %.5.7.5.7.5.5.5.5.5.3.3.9.9.7.y.7.y.7.a.y.9.y.y.y.y.y.7.7.a.7.7.7.a.a.7.7.a.7.y.7.7.7.7.7.7.7.9.9.8.8.8.8.5.7.7.y.r.y.y.y.&.] ",
"] %.7.5.7.7.r.5.5.7.5.3.3.9.9.9.7.7.7.y.7.7.y.y.7.a.9.y.y.a.y.y.a.7.7.7.a.a.7.7.7.7.7.y.7.5.7.7.7.7.9.9.8.8.7.7.r.r.y.7.7.r.5.] ",
"] %.5.7.7.7.5.y.7.7.3.8.8.8.8.9.7.y.y.7.7.y.7.y.y.y.a.y.7.y.a.9.a.y.y.y.7.7.7.a.7.7.7.9.7.7.7.7.7.9.9.3.7.3.6.y.i.r.y.y.5.5.4.] ",
"O.&.r.7.7.7.y.r.7.7.3.3.8.3.8.7.7.7.y.y.y.y.y.y.a.y.a.y.a.y.y.y.7.y.9.y.7.a.7.7.a.7.7.y.9.7.7.7.9.7.8.7.7.7.y.i.r.r.7.5.7.5.4._ ",
"_ $.y.y.7.7.y.5.7.7.9.8.3.8.7.9.7.y.7.y.y.y.y.y.y.a.7.y.a.y.y.y.y.9.7.9.a.7.a.7.y.7.7.7.7.7.7.7.7.3.7.3.7.7.i.r.r.r.y.5.5.6.>._ ",
"% ' i.y.5.7.7.7.7.3.3.3.8.8.3.7.7.y.y.y.y.7.7.y.y.y.y.a.y.y.a.a.y.y.a.7.7.7.a.7.y.9.7.7.y.7.7.7.7.7.7.3.7.7.5.r.r.i.y.5.r.i.#.& "
};
