/* XPM */
static char *result[] = {
/* columns rows colors chars-per-pixel */
"64 64 147 2 ",
"   c #8E4A04",
".  c #9B5511",
"X  c #A45603",
"o  c #A8650D",
"O  c #BB6802",
"+  c #B36D0A",
"@  c #BF7003",
"#  c #CB7203",
"$  c #D27B02",
"%  c #CE7C13",
"&  c #C67624",
"*  c #B47446",
"=  c #BA7A47",
"-  c #D48200",
";  c #DC8B03",
":  c #DC870A",
">  c #DB9102",
",  c #C9831D",
"<  c #D78F14",
"1  c #DA8A13",
"2  c #D08C1C",
"3  c #DB9116",
"4  c #DB921D",
"5  c #D69E18",
"6  c #E48D0B",
"7  c #F1960F",
"8  c #F49C0C",
"9  c #E68714",
"0  c #E68915",
"q  c #EC8E12",
"w  c #E2871A",
"e  c #EB961A",
"r  c #E49C1C",
"t  c #F09512",
"y  c #DDAD0B",
"u  c #E4A40C",
"i  c #F6A30B",
"p  c #F7AB0B",
"a  c #F8A90A",
"s  c #EDB007",
"d  c #F9B309",
"f  c #FBBB0B",
"g  c #EDA616",
"h  c #ECA51E",
"j  c #ECB01D",
"k  c #FBBC10",
"l  c #DB8A20",
"z  c #D59522",
"x  c #D18834",
"c  c #DB8A30",
"v  c #DE8C3D",
"b  c #D99F33",
"n  c #E59325",
"m  c #E08D3E",
"M  c #E69739",
"N  c #D0A324",
"B  c #DBA22D",
"V  c #DCAD35",
"C  c #E3A12E",
"Z  c #ECAA2B",
"A  c #F4AD24",
"S  c #E7B625",
"D  c #EDB523",
"F  c #E4B42C",
"G  c #E8B229",
"H  c #ECBA2A",
"J  c #F1B024",
"K  c #F1BA2E",
"L  c #E4A535",
"P  c #F9BA32",
"I  c #FAC20A",
"U  c #FACB0D",
"Y  c #FCD70E",
"T  c #EECC12",
"R  c #FDCB11",
"E  c #FDD513",
"W  c #FBDA13",
"Q  c #F1CC3F",
"!  c #B38154",
"~  c #DF964E",
"^  c #C28655",
"/  c #D88D55",
"(  c #D3945E",
")  c #DD965B",
"_  c #E88C42",
"`  c #EA8D4B",
"'  c #E59445",
"]  c #E89546",
"[  c #E29B44",
"{  c #E49549",
"}  c #EA954A",
"|  c #E6994C",
" . c #EC9A4B",
".. c #F09D4E",
"X. c #E18D52",
"o. c #E69952",
"O. c #EE9E52",
"+. c #E29C5C",
"@. c #ED9E5E",
"#. c #F39E51",
"$. c #F39C59",
"%. c #EBAB40",
"&. c #F4A04F",
"*. c #EEA253",
"=. c #E9AB55",
"-. c #EDA15C",
";. c #F4A354",
":. c #F9A557",
">. c #F5AC54",
",. c #FBAE56",
"<. c #F4A55A",
"1. c #FBA659",
"2. c #F6A95B",
"3. c #FEAD5D",
"4. c #F9B156",
"5. c #FCB15A",
"6. c #D49D67",
"7. c #E19C62",
"8. c #ECA365",
"9. c #E6A468",
"0. c #EAAA6D",
"q. c #F4A664",
"w. c #FCA760",
"e. c #F4AA63",
"r. c #FFAD61",
"t. c #F4AB69",
"y. c #FEAE69",
"u. c #F6B466",
"i. c #FFB162",
"p. c #FCB26B",
"a. c #EBC044",
"s. c #F1C440",
"d. c #F3CE40",
"f. c #F4CB4B",
"g. c #F4D345",
"h. c #F8D04A",
"j. c #F8C757",
"k. c #F3CB51",
"l. c #EFCA6B",
"z. c #EDD265",
"x. c #F4D864",
"c. c #F6DC6A",
"v. c #F8DC72",
"b. c #FDE265",
"n. c #FDE56F",
"m. c #FBE78A",
"M. c #FBEE8C",
/* pixels */
"! ( 8.q.r.3.3.,.3.3.i.y.y.y.r.r.r.r.r.r.3.r.w.r.r.r.r.3.r.3.r.3.3.3.3.r.3.3.3.r.3.r.3.3.3.3.3.3.3.3.3.5.5.3.3.,.3.3.3.i.r.q.6.^ ",
"6.9.t.w.r.3.3.3.3.3.r.r.r.y.p.r.r.r.3.r.r.r.r.3.3.r.w.r.r.r.r.r.3.r.3.3.3.3.3.3.3.3.5.r.3.r.3.3.5.r.3.3.3.3.5.5.3.5.3.r.r.y.q.7.",
"0.t.y.r.r.3.3.5.5.3.i.i.r.y.r.r.r.w.r.r.3.r.r.r.r.3.r.r.3.w.3.r.r.3.3.3.3.3.3.3.r.3.3.3.3.5.r.3.3.,.5.3.5.5.5.5.5.5.3.3.r.r.w.t.",
"p.p.y.r.r.3.3.3.3.5.r.r.r.r.r.i.r.3.r.3.w.r.3.r.r.r.r.3.r.r.r.r.3.3.r.3.5.3.r.3.3.3.3.3.3.3.r.3.3.3.5.3.5.2.i.2.3.5.3.3.3.2.r.r.",
"p.p.r.r.3.r.3.r.i.3.r.i.r.r.r.r.w.r.r.r.r.r.r.r.r.3.3.r.r.r.r.3.r.3.3.r.r.3.3.3.3.3.3.3.r.5.3.3.3.3.3.,.3.3.5.i.5.r.r.3.3.1.3.3.",
"p.i.i.r.r.3.3.r.3.i.3.3.r.r.r.r.r.3.3.r.r.3.r.w.r.w.r.r.r.3.w.r.3.3.3.r.r.3.r.3.3.3.3.3.r.3.3.3.3.,.3.3.3.3.3.3.r.w.3.r.3.1.:.1.",
"i.3.3.3.3.:.;.;.1.3.r.r.3.r.r.r.r.r.3.r.3.3.r.3.r.r.r.r.w.r.r.r.r.3.3.5.r.3.3.5.<.....;.3.3.3.3.3.3.3.3.3.3.3.3.3.r.3.r.3.3.1.3.",
"3.3.3.3.3.;.]  .;.3.3.3.r.i.r.r.r.w.3.w.3.w.3.r.r.3.3.w.r.3.r.3.r.5.3.3.3.3.3.r.*._ M ;.3.r.r.3.3.3.3.3.3.3.3.3.3.3.3.r.w.3.r.r.",
",.3.3.3.r.;.#.#.....1.3.3.3.3.r.r.3.w.3.r.3.w.r.r.r.r.r.3.r.r.r.r.3.r.3.3.3.3.5.:. .}  .O.<.3.r.r.r.r.w.w.w.3.3.3.5.3.3.r.r.r.r.",
"3.3.3.3.3.3.1.#.] } ;.1.1.1.3.3.w.3.3.w.r.w.3.r.w.3.r.r.r.r.3.r.3.3.3.3.3.3.r.3.r.3.;.] M  .3.3.w.w.y.w.r.w.3.3.3.3.3.3.r.w.w.r.",
"3.3.3.3.3.3.w.;.....:.3.1.3.1.w.r.3.r.3.3.3.3.w.3.3.r.3.3.r.r.3.3.3.5.r.3.3.3.3.3.3.,. .] ;.r.3.r.r.y.w.w.r.3.3.3.3.3.3.r.r.r.r.",
"3.3.r.3.3.r.r.1.:.:.3.r.3.:.3.r.w.3.3.r.3.3.3.3.r.3.3.3.3.3.3.r.3.3.3.r.i.3.3.3.r.r.3.:.:.1.i.r.r.r.r.w.y.r.3.3.3.3.3.3.3.r.3.3.",
"r.r.e.i.3.3.w.3.3.w.r.i.w.3.w.r.r.3.3.2.3.3.3.3.3.3.3.r.3.3.3.5.r.3.r.3.3.3.3.i.5.r.r.3.3.5.i.3.r.r.r.r.r.r.r.3.3.3.3.3.r.r.3.3.",
"u.r.2.i.3.3.3.1.3.3.r.i.r.2.r.3.r.2.3.3.3.3.3.3.3.3.3.3.3.3.3.r.r.5.r.5.3.3.3.3.3.r.3.r.3.r.3.i.3.r.r.y.r.r.r.3.3.5.3.3.w.3.3.3.",
"i.t.i.e.r.3.1.1.1.3.r.i.i.2.2.r.r.r.3.3.1.3.3.3.3.3.3.3.i.3.3.3.3.r.3.3.r.r.3.r.3.3.r.3.3.r.3.3.r.r.r.r.r.r.,.:.3.3.3.r.3.3.3.3.",
"r.i.r.5.w.3.1.1.3.3.3.r.r.3.3.3.i.i.:. .&.:.r.3.3.3.r.3.3.3.3.r.3.3.3.3.3.5.3.3.3.3.3.5.3.3.3.r.r.r.w.r.r.3... .;.3.3.3.3.3.3.3.",
"r.r.r.3.r.3.1.w.r.3.w.w.3.3.3.:.3.i.>.{ ] ;.3.3.3.3.r.3.3.5.3.3.r.3.3.3.3.r.3.r.3.3.5.3.r.3.3.3.r.3.r.r.r.:.} m  .3.i.3.3.3.3.3.",
"r.r.3.r.3.3.r.w.w.3.3.3.3.3.3.3.;.*.*. .;.:.i.3.3.3.3.3.r.r.3.r.3.3.3.3.3.5.3.3.3.r.r.3.3.3.3.3.r.3.r.:.#.| |  .;.3.3.3.3.3.5.3.",
"r.3.r.3.w.1.3.3.w.3.3.3.3.3.1.:. .v ] :.3.i.r.5.3.5.3.3.3.3.3.5.5.r.i.3.r.3.3.3.3.3.3.3.5.r.i.3.3.3.3.;.' M  .1.3.r.i.3.3.3.r.3.",
"r.w.2.r.w.3.3.w.w.3.3.3.3.3.3.3.;.| &.2.3.3.3.r.3.3.3.3.3.3.3.3.3.3.3.3.3.3.3.r.3.r.r.3.3.3.3.3.r.3.r.:. . .:.3.3.3.3.3.3.3.r.3.",
"r.r.w.w.3.3.w.w.r.3.3.3.3.3.3.3.3.3.3.3.5.3.3.3.,.3.3.,.3.,.3.3.3.3.r.3.3.3.3.r.5.3.r.3.3.3.r.3.3.5.r.3.1.1.3.i.3.3.5.3.r.3.3.3.",
"3.w.3.1.r.3.3.r.w.3.3.3.3.3.3.3.r.i.5.3.5.3.3.3.3.5.3.3.3.3.3.3.3.3.r.5.r.3.3.5.r.3.3.3.r.5.3.3.r.r.5.3.5.i.i.i.i.3.r.r.5.r.r.3.",
"3.3.3.3.3.3.3.w.3.3.3.3.3.3.3.r.3.3.3.3.3.,.3.,.3.3.3.3.3.3.3.,.3.3.3.3.3.3.r.3.3.3.3.3.r.3.3.3.3.3.i.i.i.3.3.3.3.3.3.3.r.3.3.3.",
"1.3.3.3.w.r.3.r.w.3.3.1.3.3.3.3.3.2.1.,.3.3.,.3.3.3.,.3.3.,.3.3.3.3.r.3.r.5.3.3.3.3.3.i.3.3.3.r.3.3.3.r.r.i.3.3.3.3.3.3.3.r.5.3.",
"3.3.1.r.r.3.3.3.3.3.3.3.3.3.3.3.3.3.1.3.,.1.3.,.3.3.3.,.3.3.3.3.5.r.3.3.3.3.3.3.i.3.3.3.3.3.5.r.3.r.r.5.i.3.3.3.3.3.3.r.3.3.3.3.",
"3.1.3.3.r.3.3.3.3.3.3.3.3.3.3.3.3.3.3.3.3.,.1.3.3.3.3.3.3.3.3.3.3.3.3.3.3.i.3.3.3.3.3.3.3.r.3.3.3.3.3.r.3.3.i.3.r.3.3.3.5.r.3.r.",
"3.3.3.3.3.3.3.3.3.3.3.3.3.3.1.3.3.3.3.,.3.3.,.3.3.,.3.,.c w n l.x.a.k.u.3.3.3.3.3.3.3.r.5.3.3.3.3.3.3.3.3.3.r.3.3.5.r.3.3.r.3.3.",
"3.3.3.3.3.3.3.3.3.3.3.1.3.3.3.3.3.3.3.3.1.,.3.3.3.3.3. .q A j.c.5 u < s.r.r.5.r.3.r.3.5.r.3.r.3.r.5.3.3.3.3.3.3.3.3.r.3.3.r.5.3.",
"3.3.3.3.3.3.3.1.3.3.3.3.3.2.3.3.3.3.3.3.,.1.,.3.3.3.3.r J P c.N T U s 4 =.3.3.3.3.3.3.3.r.3.3.3.r.3.3.3.3.r.3.3.r.5.3.3.3.r.3.5.",
"3.3.3.3.3.3.3.3.3.1.3.3.3.3.3.3.3.1.,.3.3.3.3.3.3.,.;.K h.b.z.y Y Y I : %.3.3.3.3.r.3.r.3.3.3.3.3.3.3.r.3.3.5.r.3.3.r.3.3.3.3.r.",
"3.3.3.3.3.3.3.3.3.3.3.3.3.3.3.3.3.3.3.3.3.3.,.3.3.,.b Q b.M.V T W U f i z 3.r.3.5.r.3.r.5.r.i.3.3.3.5.r.3.3.3.3.3.3.3.3.3.3.3.3.",
"3.3.3.3.3.3.3.3.3.3.3.1.3.3.3.3.3.3.3.,.,.3.1.3.3.3.B g.n.M.F E Y I d i 1 2.3.3.3.3.3.3.3.3.3.3.3.r.3.3.r.r.5.3.3.r.3.3.i.3.3.r.",
"3.3.3.3.3.3.3.3.3.3.3.3.3.1.3.3.3.1.3.3.3.3.3.,.3.3.B d.n.m.S E I d a i : 2.r.3.3.3.3.5.r.3.3.3.3.5.r.3.3.3.r.3.5.r.3.3.r.3.5.r.",
"3.3.3.3.3.3.3.3.1.3.3.3.3.,.3.3.3.3.,.,.1.,.3.3.,.3.z H f.v.D R f p i 8 6 2.r.3.3.3.r.3.3.3.3.3.3.r.3.3.3.3.3.3.r.3.3.3.3.3.r.3.",
"3.3.3.3.3.,.3.1.3.3.1.,.3.3.1.3.3.3.1.3.,.3.3.3.3.3.2 u j f.j k p i 7 7 0 2.3.3.r.r.3.3.r.3.3.3.r.5.r.3.5.r.3.3.3.3.3.r.5.3.3.3.",
"3.r.3.3.3.1.3.3.3.3.3.3.3.,.,.3.3.,.3.3.,.3.,.3.3.3., > > G h p i 8 7 q n 2.3.3.5.3.3.r.3.3.3.i.r.3.3.3.r.3.3.r.3.3.r.5.r.r.3.3.",
"3.3.3.3.3.3.3.3.3.,.1.3.,.1.3.3.3.3.3.,.3.,.1.3.,.3.x - ; r Z 8 8 t 9 9 L 3.3.3.r.5.r.3.3.3.3.3.3.3.3.3.3.5.3.3.3.3.3.3.3.r.3.3.",
"3.3.3.3.3.1.3.3.3.3.3.3.3.3.3.,.,.1.3.3.3.,.3.3.3.3.,.# $ : K 6 t q 9 l [ 5.3.3.3.3.3.3.3.3.r.3.3.3.3.r.r.r.r.5.3.3.r.r.3.3.3.3.",
"3.3.3.3.3.3.3.3.3.1.3.,.3.,.3.3.3.,.,.1.3.3.,.3.3.3.3.& O @ n g 9 0 1 %.o.3.3.3.3.3.r.5.3.r.3.3.3.5.r.3.3.3.3.3.3.i.3.5.3.3.5.r.",
"3.3.3.3.3.3.3.3.3.3.3.3.3.,.3.3.3.3.3.3.,.3.3.3.3.3.3.;.X o + D h % C l 3.3.3.i.3.r.3.3.3.3.r.3.r.3.3.3.3.3.r.3.3.3.3.r.3.3.3.r.",
"3.3.3.3.3.1.3.3.3.3.1.,.3.3.3.3.1.3.3.3.,.3.3.,.3.3.5.3.{ .   o 3 e M 3.3.3.3.3.3.i.3.3.3.3.3.3.3.3.3.3.3.3.3.3.3.3.3.3.3.3.3.3.",
"3.1.3.3.3.3.3.3.,.3.3.3.1.,.5.5.3.3.3.3.:.:.#.,.3.3.3.3.3.3.3.3.3.r.3.3.3.r.r.3.3.;.;.3.3.3.3.3.3.r.3.3.3.3.r.3.3.3.3.r.3.r.3.3.",
"3.,.3.,.3.3.,.3.3.3.3.3.3.3.3.i.5.i.3.1.&. .} :.3.r.5.3.3.r.3.3.3.3.3.3.r.5.3.3.,. . .;.,.2.3.3.r.3.3.3.3.3.3.3.3.3.3.3.r.3.r.3.",
"3.3.3.1.,.3.1.,.3.1.,.,.3.3.3.i.i.i.,.;... .] :.3.3.r.r.3.5.3.r.r.3.3.3.3.3.3.r.:... ...;.1.3.3.3.3.3.3.3.3.w.1.3.3.3.3.3.3.3.3.",
"3.1.3.,.3.1.3.3.3.3.,.3.3.,.3.r.3.5.;.| ] ..:.1.r.3.3.3.3.3.3.r.3.3.3.3.3.3.r.3.3.;.;.| ] &.3.1.:.3.:.3.3.3.3.3.3.3.3.3.3.3.3.r.",
"3.,.3.3.3.,.,.3.,.3.1.3.3.3.3.:.3.3.;. . .;.3.3.r.5.3.3.3.3.r.5.3.3.3.3.5.r.5.3.3.3.1. .' ..,.1.:.3.3.3.3.3.1.3.3.3.3.3.5.r.3.3.",
",.3.1.3.3.3.3.1.1.3.3.,.,.3.3.,.3.3.1.;.;.r.i.5.3.3.3.3.r.3.3.3.3.3.3.3.r.3.3.3.3.r.3.;.;.;.3.1.:.3.3.3.3.3.3.3.3.3.3.3.3.3.3.3.",
"3.3.3.3.3.3.,.3.3.,.3.3.1.3.1.1.3.3.i.3.i.i.i.i.3.3.r.3.r.5.3.r.r.3.3.i.3.3.r.3.r.3.3.3.3.3.i.3.1.2.1.3.3.3.1.3.3.3.3.3.3.3.i.3.",
"3.3.3.3.3.3.,.,.3.1.3.3.3.,.2.1.3.3.3.3.i.5.i.r.3.5.r.3.5.r.3.3.3.i.3.3.3.3.3.3.3.3.3.2.3.3.r.3.3.1.3.3.3.3.3.3.3.3.3.3.3.3.r.3.",
"3.3.3.1.3.3.1.3.3.3.3.5.3.3.3.:.3.3.3.3.3.r.3.3.3.3.r.3.r.3.3.3.3.3.3.3.3.3.3.i.3.3.:.,.1.3.i.3.3.3.2.3.r.w.3.3.3.3.3.3.3.r.r.r.",
"i.r.3.3.3.3.,.:...;.1.5.r.2.3.1.3.3.5.3.3.3.3.3.3.3.3.3.3.3.3.3.3.3.3.r.r.5.3.3.3.:.1.1.1.3.r.3.3.3.r.r.r.r.:.#.$.3.3.3.r.w.3.r.",
"i.i.i.3.3.3.,.&.]  .:.p.i.3.3.r.r.r.r.3.r.3.i.3.i.3.3.i.3.3.i.3.3.i.r.5.r.r.3.3.3.3.3.3.3.3.3.2.2.r.w.r.y.y.O.] #.3.1.3.2.w.r.r.",
"r.r.i.i.i.3.1.$.|  .*.2.<.2.r.r.r.5.r.i.i.3.3.3.3.i.3.3.i.3.3.i.3.3.i.3.i.3.3.3.3.3.3.3.3.3.3.3.r.r.e.e.2.2.O. .;.r.r.r.r.r.r.y.",
"r.i.r.i.i.3.3.3.:. .{ { *.e.3.i.3.i.r.3.3.3.i.i.3.3.i.3.i.3.3.i.i.3.i.3.3.3.i.3.3.3.3.3.3.1.3.3.3.e.2.<.| { O.2.2.r.r.r.r.r.r.y.",
"r.r.r.i.i.3.3.3.3.;.{ { *.2.3.r.i.3.3.3.3.i.3.3.i.i.3.3.3.3.3.3.3.i.3.3.3.i.r.3.3.3.3.3.3.3.3.3.3.2.5.-.{ ~ ;.r.r.r.r.y.r.y.p.y.",
"r.r.3.5.3.3.3.3.r.3.<.*.:.3.3.r.3.3.i.i.3.3.i.3.3.3.3.i.3.i.i.3.3.3.3.i.3.i.3.3.r.3.3.3.3.3.3.1.3.3.5.>.>.>.2.5.r.r.r.r.r.r.y.y.",
"1.3.3.3.3.3.1.w.r.r.3.5.3.,.3.3.r.r.3.3.i.3.i.3.3.i.i.r.5.r.5.r.i.3.3.i.3.3.3.3.3.r.3.3.3.3.3.3.3.5.5.4.5.5.5.r.r.r.3.w.r.y.r.y.",
"..;.3.3.3.w.1.w.3.3.3.,.3.5.3.5.5.r.i.3.r.5.3.3.3.3.3.r.r.r.r.r.i.3.3.i.3.i.5.r.3.3.5.3.3.3.3.3.,.5.4.4.5.5.5.r.3.r.r.r.r.r.w.$.",
"_ ..1.3.3.3.1.1.1.1.1.:.,.3.5.3.3.3.r.3.r.5.r.i.i.3.3.5.r.5.3.5.3.3.3.3.r.5.r.3.3.3.3.3.3.3.3.3.3.5.4.4.4.4.,.r.r.w.r.w.r.r.$.` ",
"` #.3.3.:.3.3.3.3.1.3.,.4.5.5.5.3.r.3.3.3.r.r.r.5.r.r.i.r.r.r.i.3.i.i.3.r.r.3.i.3.3.i.3.3.3.3.3.3.,.5.5.4.4.2.r.w.r.3.3.r.r.$.` ",
"` #.3.3.3.3.1.w.3.3.,.4.4.4.4.,.3.r.3.r.r.r.r.r.r.r.r.i.i.3.r.3.r.3.3.i.5.5.r.r.r.3.r.3.3.3.3.3.3.3.5.5.,.3.3.r.w.w.w.r.3.1.$.} ",
"X.$.3.3.3.3.w.w.3.3.,.4.4.4.5.3.3.r.r.r.3.r.3.r.r.i.r.r.r.r.i.r.i.i.3.3.r.r.3.i.5.r.3.3.3.3.3.3.3.5.5.,.3.3.w.r.r.w.3.3.3.1.<./ ",
"/ @.w.r.3.3.3.3.3.3.5.4.4.4.5.3.3.r.3.r.r.r.r.r.i.r.i.r.r.i.r.i.3.3.i.3.3.3.3.i.r.3.3.3.5.3.3.3.3.3.,.3.3.3.w.w.y.w.r.:.1.e.@./ ",
"* ) y.r.1.3.3.3.3.,.,.,.,.4.,.3.3.r.r.r.3.r.3.r.r.r.i.r.r.i.r.r.3.i.3.3.i.i.3.3.5.r.3.3.3.3.3.3.3.3.,.3.3.w.r.y.w.w.3.2.3.w.+.= "
};
