/* XPM */
static char *result[] = {
/* columns rows colors chars-per-pixel */
"64 64 137 2 ",
"   c #934B01",
".  c #965002",
"X  c #A75B03",
"o  c #AE6609",
"O  c #B36804",
"+  c #B76E2B",
"@  c #BF7735",
"#  c #C16A01",
"$  c #C67102",
"%  c #D37C01",
"&  c #CD7D12",
"*  c #C97721",
"=  c #C17434",
"-  c #BA7A47",
";  c #D88301",
":  c #DA8C02",
">  c #D3840B",
",  c #CF8613",
"<  c #DB8915",
"1  c #DC8B1C",
"2  c #E19204",
"3  c #E29A05",
"4  c #E09E0C",
"5  c #F39D0E",
"6  c #E48E16",
"7  c #E98A16",
"8  c #E2841D",
"9  c #EB9313",
"0  c #E49C14",
"q  c #E6931C",
"w  c #EA9319",
"e  c #F29D1B",
"r  c #DFAB1B",
"t  c #E7A10A",
"y  c #F6A20B",
"u  c #F7A80B",
"i  c #F9AC0C",
"p  c #E9B30D",
"a  c #F8B30D",
"s  c #FAB908",
"d  c #ECA011",
"f  c #EDA01F",
"g  c #EBAC1A",
"h  c #F4A811",
"j  c #EBB315",
"k  c #EFB913",
"l  c #E8B01F",
"z  c #F3B311",
"x  c #F8BA11",
"c  c #D28629",
"v  c #DD872C",
"b  c #DE8C3D",
"n  c #D79D3B",
"m  c #DF983B",
"M  c #E78F20",
"N  c #E69820",
"B  c #E08D3E",
"V  c #ECAE20",
"C  c #F7A928",
"Z  c #EEBD2A",
"A  c #F8B424",
"S  c #F3BB2E",
"D  c #F6C306",
"F  c #FBC307",
"G  c #FACD04",
"H  c #FCC00C",
"J  c #FBCC0D",
"K  c #FBD70F",
"L  c #EEC12A",
"P  c #EEC536",
"I  c #EEC830",
"U  c #F7C63A",
"Y  c #FAC439",
"T  c #F3CB3F",
"R  c #B38154",
"E  c #C28655",
"W  c #D88D55",
"Q  c #D3945E",
"!  c #DD965B",
"~  c #EA8D4B",
"^  c #E59445",
"/  c #E89546",
"(  c #E49549",
")  c #EA954A",
"_  c #E69B4C",
"`  c #EC9A4B",
"'  c #F09D4E",
"]  c #E18D52",
"[  c #ED9E52",
"{  c #E29C5C",
"}  c #F39E51",
"|  c #F39C59",
" . c #D4A559",
".. c #E6A14C",
"X. c #E9A14F",
"o. c #F4A04F",
"O. c #ECB442",
"+. c #EDA356",
"@. c #EEA45A",
"#. c #EEA85B",
"$. c #F4A354",
"%. c #F9A557",
"&. c #F5AC54",
"*. c #FBAE56",
"=. c #F3A459",
"-. c #FBA659",
";. c #F6A95B",
":. c #FEAD5D",
">. c #EABE5E",
",. c #F9B156",
"<. c #FCB15A",
"1. c #D49D67",
"2. c #E19C62",
"3. c #ECA365",
"4. c #E6A468",
"5. c #E6AF69",
"6. c #EAAA6D",
"7. c #F4A664",
"8. c #FCA760",
"9. c #F4AA63",
"0. c #FFAD61",
"q. c #F4AB69",
"w. c #FEAE69",
"e. c #EEB069",
"r. c #FFB162",
"t. c #FCB26B",
"y. c #F6C848",
"u. c #F5D456",
"i. c #FAD554",
"p. c #F5D855",
"a. c #FAD951",
"s. c #FBDC5B",
"d. c #F7DA61",
"f. c #F9DB64",
"g. c #FDE77C",
"h. c #FEE978",
"j. c #FEED85",
/* pixels */
"R Q 3.7.0.:.:.*.:.:.r.w.w.w.0.0.0.0.0.8.0.0.0.:.0.0.:.0.0.0.-.0.0.:.:.:.:.0.:.:.:.:.:.r.:.:.:.:.0.<.:.:.<.:.:.*.:.<.<.0.0.7.1.E ",
"1.4.q.8.0.:.:.:.:.:.0.0.0.w.t.0.0.0.0.:.:.0.0.0.0.8.:.0.0.:.0.0.0.:.0.:.:.:.:.:.0.:.:.:.:.:.:.:.:.:.:.<.:.*.<.<.<.:.:.0.0.w.7.2.",
"6.q.w.0.0.:.:.<.:.:.r.r.r.w.0.0.0.:.0.0.0.:.0.:.0.0.0.0.0.0.8.0.:.0.:.:.:.:.<.0.0.:.0.:.:.:.<.:.:.:.:.<.<.:.<.9.:.<.0.:.0.0.8.q.",
"t.t.w.0.0.:.0.:.<.<.0.0.0.0.0.0.0.0.:.0.0.0.8.0.0.8.:.0.0.:.0.:.:.:.:.:.0.:.:.0.<.:.:.:.:.0.0.:.:.:.*.:.:.<.<.<.<.0.:.:.:.;.0.0.",
"t.t.0.0.:.0.0.:.<.0.0.r.0.0.0.0.:.0.0.8.:.0.:.0.:.0.0.-.0.0.0.0.0.:.<.:.:.0.:.:.:.:.:.:.:.:.0.<.:.<.*.:.:.*.<.0.r.:.:.:.:.-.:.0.",
"t.r.r.0.0.:.:.:.0.r.:.:.0.0.0.0.0.0.0.:.0.8.0.0.:.0.0.:.0.0.0.:.:.:.0.0.:.<.:.0.:.:.:.:.0.:.:.:.*.:.:.:.:.:.:.:.:.8.0.0.-.-.%.:.",
"r.:.:.:.:.%.$.$.:.:.0.0.0.0.0.0.0.:.0.8.:.8.0.0.0.0.:.0.0.:.0.0.0.:.:.:.:.:.:.:.%.` ` %.:.:.:.:.:.:.:.:.:.:.:.:.:.:.0.0.:.-.-.:.",
":.:.:.:.:.$./ ` %.%.:.0.<.0.0.0.0.8.:.:.:.0.:.8.8.0.0.0.0.0.8.0.0.:.:.:.:.r.:.:.$.B ^ o.:.r.0.:.:.:.:.0.:.:.0.:.<.:.:.0.0.0.0.:.",
"*.:.:.:.:.%.} ' ' } -.:.:.:.:.0.0.-.0.-.0.0.:.0.0.0.0.0.:.0.:.0.<.0.:.:.:.:.:.:.;.` / ` $.%.:.0.0.0.8.8.0.8.:.:.0.:.:.0.:.0.0.0.",
":.:.:.:.:.:.-.} / ) %.-.-.-.:.-.:.8.0.0.-.0.:.0.:.0.:.0.0.0.0.0.0.:.:.:.0.<.0.:.:.:.$./ b ` :.:.0.8.0.8.8.0.-.:.:.:.:.0.0.8.8.0.",
":.:.:.:.:.:.0.%.` ' %.-.-.-.-.0.0.:.0.-.0.:.-.0.0.:.0.:.:.0.:.0.:.:.:.0.0.:.:.:.:.:.-.` / $.<.:.0.0.8.w.8.0.:.:.:.*.:.:.0.0.0.0.",
":.:.0.:.:.0.0.-.%.-.:.0.0.:.-.0.:.8.0.:.:.:.0.0.:.:.:.:.:.:.:.0.:.0.<.:.:.:.:.:.<.:.:.;.%.:.0.0.0.0.w.8.w.0.0.:.:.:.:.:.0.0.:.:.",
"0.0.9.<.0.0.:.:.:.8.0.r.0.:.8.0.0.:.:.:.:.:.:.0.:.:.:.:.0.:.:.:.0.:.:.<.0.:.:.r.0.:.<.0.:.0.r.:.0.0.8.0.0.0.0.:.:.:.:.0.:.0.:.:.",
"q.r.r.r.0.-.-.:.:.:.0.r.0.;.0.:.0.;.:.:.:.:.:.:.:.0.:.:.0.<.:.:.:.:.0.:.:.:.:.:.:.:.:.:.:.:.:.r.0.0.0.w.0.0.0.:.<.:.:.:.8.0.:.:.",
"r.q.9.<.0.-.-.-.-.:.:.r.0.r.;.0.:.0.:.:.;.:.:.:.0.:.0.:.:.:.:.:.:.0.:.:.0.:.:.:.0.:.:.:.:.:.:.0.0.0.0.0.0.0.-.-.:.:.:.:.:.:.:.:.",
"0.0.0.0.0.0.-.-.-.:.0.0.:.;.:.:.0.r.%.' ' %.:.:.:.:.:.:.:.:.0.:.<.0.:.:.:.:.r.:.<.0.:.0.:.:.0.:.0.0.0.0.0.*.o.` o.:.:.:.:.:.:.:.",
"r.0.0.:.8.0.8.:.0.0.-.:.:.:.:.;.0.r.=./ / $.:.:.<.:.:.0.:.:.<.0.:.0.:.0.r.:.:.:.:.:.0.:.0.:.:.:.0.:.0.:.:.%./ b ` 0.:.:.:.:.<.:.",
"0.0.:.0.:.-.0.-.0.-.0.0.:.:.:.:.$.+.X.` $.;.<.:.:.:.:.:.:.:.:.0.:.:.:.<.:.:.:.0.:.0.<.:.:.:.:.0.0.:.0.%.} ` ` ` %.:.r.:.:.0.0.:.",
"0.0.0.0.0.-.0.-.0.:.:.:.:.:.:.%.` b ^ %.0.0.r.:.:.:.:.:.<.:.:.:.:.:.0.:.:.:.:.:.:.0.:.:.:.<.<.0.:.:.:.%./ B ` :.:.:.0.:.<.:.:.:.",
"0.;.:.;.0.:.8.0.8.:.:.:.:.-.:.-.$.` o.;.<.<.:.:.:.:.:.<.0.:.:.:.0.<.:.:.:.:.0.<.:.:.0.:.:.0.:.:.:.:.0.%.` ` $.<.:.:.:.:.0.0.:.:.",
"0.0.0.-.-.-.0.0.0.:.:.:.:.:.:.:.:.:.:.<.r.:.:.:.:.:.*.:.*.:.:.:.:.0.:.:.:.:.:.:.:.:.0.:.:.:.:.:.0.<.0.:.;.:.:.r.<.:.0.:.:.0.:.:.",
"-.0.-.0.0.0.-.0.0.-.-.0.:.:.:.:.r.0.<.:.:.:.*.:.:.:.:.:.:.:.:.*.:.:.:.:.:.0.0.:.<.0.:.:.0.<.0.:.0.0.0.<.:.:.0.r.0.:.:.0.:.:.:.:.",
"0.:.-.0.0.0.0.0.0.:.:.:.:.:.0.:.:.:.:.:.*.:.:.:.:.*.:.*.:.:.:.:.:.:.<.0.<.0.:.0.:.:.:.:.0.:.:.:.:.:.r.:.r.<.0.:.:.0.:.<.:.:.<.0.",
"0.-.:.-.0.0.-.0.0.-.:.:.:.:.:.:.:.;.-.:.:.:.*.*.:.:.:.:.:.<.:.:.:.:.:.0.:.:.:.:.:.0.<.0.:.:.:.:.:.:.:.r.:.r.:.:.:.:.:.0.:.:.:.0.",
":.:.:.:.0.:.:.:.:.:.:.:.:.:.:.:.:.:.:.:.:.-.*.*.:.:.*.:.:.:.<.*.:.:.0.:.:.:.0.<.<.0.0.:.:.:.r.:.:.0.0.<.r.0.<.:.:.:.:.<.0.:.:.:.",
":.-.;.:.:.:.:.:.:.:.:.-.:.:.:.:.:.:.:.-.:.-.:.:.:.:.:.:.:.:.:.:.0.<.:.:.:.:.:.0.:.:.:.:.:.0.:.:.:.:.:.:.:.:.0.:.0.:.:.:.0.:.0.:.",
":.:.:.:.:.:.:.:.:.:.:.:.:.-.:.:.:.:.:.*.:.*.*.:.*.:.:.*.:.5. .@ = = [ :.:.:.:.:.:.:.:.0.<.:.:.:.:.:.:.0.:.:.0.:.:.:.:.:.0.:.:.<.",
":.:.:.:.:.:.:.:.;.:.:.:.:.:.:.:.:.:.:.:.*.:.:.:.:.:.:.:.e.u.p.O.M 8 v 0.<.:.0.:.0.:.:.<.0.:.0.:.:.r.:.:.:.:.:.:.<.0.:.0.:.:.:.0.",
":.:.:.0.:.:.:.:.:.:.:.:.:.-.:.:.:.:.:.:.:.*.-.:.:.:.<.:.>., r u.C e w =.0.:.:.:.:.:.:.:.0.:.:.:.:.:.:.:.:.0.<.:.:.0.:.:.:.r.:.:.",
":.:.:.:.:.:.:.:.:.:.:.:.:.:.:.-.:.:.-.*.-.:.*.:.*.:.:.+.c p D P Y A g N :.0.:.:.:.:.:.0.:.:.:.0.:.:.<.0.:.:.0.:.:.0.<.:.:.:.:.:.",
":.:.:.:.:.:.:.:.:.0.:.:.:.:.:.:.-.:.:.:.:.:.:.:.:.:.*.@.& K G k s.i.U V :.:.0.<.r.:.:.0.<.0.0.:.:.0.0.:.0.:.<.:.:.:.0.:.0.<.:.:.",
":.:.:.:.:.:.-.:.:.-.:.:.:.:.:.:.:.:.*.:.:.*.*.:.:.:.:.=.0 K F x f.h.a.L ;.:.:.0.:.:.:.:.:.:.<.:.:.:.:.:.:.:.0.:.0.:.:.:.:.:.0.:.",
":.:.:.:.:.:.;.:.:.:.:.:.:.:.:.:.:.:.-.*.*.:.*.:.:.:.:.+.j J s a f.j.s.I $.0.:.:.:.0.:.0.:.:.0.:.:.0.:.0.0.:.:.<.0.0.:.:.:.r.:.:.",
":.:.:.-.:.:.:.:.:.:.:.:.-.:.*.:.:.:.:.:.:.:.-.:.:.*.:...z H i u i.g.u.Z X.<.:.:.:.:.:.<.:.0.:.:.:.<.:.:.:.:.:.:.:.:.0.:.:.:.:.:.",
":.0.:.:.:.:.:.:.:.-.-.:.:.*.:.-.*.-.*.:.:.*.:.:.:.*.:...z s u y y.d.T l X.:.0.:.:.:.:.:.:.0.<.:.:.0.:.:.0.:.:.:.:.0.:.:.0.<.:.:.",
":.:.:.:.:.:.%.:.:.:.:.*.:.:.*.:.:.:.:.:.:.-.*.:.:.:.:...h u 5 5 S S g 4 _ :.0.<.0.0.<.:.:.:.0.:.:.<.0.:.<.:.0.:.:.:.<.0.:.:.0.:.",
":.:.:.:.:.:.:.:.:.:.:.*.:.:.-.:.*.*.-.:.*.:.:.:.:.:.*.X.5 5 5 5 V t 3 : $.:.:.:.0.:.:.:.:.:.:.0.:.:.:.0.:.<.:.:.:.:.:.0.:.:.:.:.",
":.:.:.:.:.-.:.:.:.*.:.-.*.:.:.*.:.:.:.:.:.:.*.:.<.:.:.+.9 5 9 7 g 2 : ; ;.0.:.r.<.:.:.0.0.:.:.:.:.0.:.:.:.0.:.:.0.:.:.:.:.0.<.:.",
":.:.:.:.:.:.:.:.:.-.:.:.*.:.:.:.:.:.*.:.:.*.:.*.:.:.:.+.< 7 7 6 0 ; % $ 0.:.:.:.:.0.:.0.:.:.:.:.:.<.0.:.:.:.:.r.<.0.<.0.:.:.0.0.",
":.:.:.:.:.:.:.:.:.*.:.:.:.:.*.:.*.-.*.:.:.*.:.:.:.:.<.$.n < 8 f > # # * :.:.:.:.:.:.:.0.<.:.:.:.:.:.0.:.0.:.:.:.:.:.:.:.0.:.:.:.",
":.:.:.:.:.-.:.:.:.:.:.:.*.-.:.:.:.:.:.:.*.:.:.:.:.:.:.:.m 1 q f O o X [ :.:.:.<.0.:.:.:.:.:.:.:.:.:.0.:.:.:.:.0.:.:.:.:.0.:.:.:.",
";.:.:.:.:.*.:.:.-.:.*.:.:.:.:.<.:.:.:.:.-.$.o.%.0.<.:.:.%.0 d o .   + :.:.:.0.:.:.%.%.;.:.:.:.:.:.:.:.:.0.:.:.:.:.0.:.:.:.:.:.0.",
":.:.:.:.:.:.:.:.*.:.-.*.*.:.:.r.<.r.:.;.o.` ` $.:.:.:.:.:.:.:.:.:.:.:.:.:.0.:.:.%.' ` $.%.:.:.:.0.:.:.:.:.:.:.:.:.:.:.:.:.:.:.:.",
":.*.*.-.*.:.-.*.:.:.:.:.:.:.:.r.0.r.*.$.' ` ` $.:.:.0.:.:.:.:.:.:.:.:.:.0.<.:.0.%.' ` ' $.%.:.:.:.:.:.-.:.:.:.0.:.:.:.:.:.0.:.:.",
":.-.:.:.:.*.:.:.-.:.:.:.*.:.:.:.:.:.%.` ` ' $.*.:.:.0.0.<.:.:.:.0.:.:.:.<.0.:.:.:.%.$.` / ' :.-.;.:.:.:.:.:.-.-.:.:.:.:.:.:.:.:.",
":.:.*.*.:.-.:.*.*.:.:.*.:.:.:.-.:.:.$./ / $.:.:.:.:.:.<.0.0.:.:.:.:.:.0.0.:.:.:.:.:.;.` ^ ` -.*.-.:.:.-.:.:.:.:.:.:.:.:.r.:.:.:.",
"*.:.-.:.:.:.:.-.*.:.*.:.-.:.*.%.:.:.;.$.%.:.r.:.:.:.:.:.:.:.0.:.:.0.:.:.:.:.:.0.:.:.:.%.$.%.:.;.-.-.;.:.:.:.-.:.:.:.:.:.:.:.:.0.",
":.:.:.:.:.:.*.:.:.:.-.:.*.:.:.;.:.0.<.:.r.r.r.r.:.r.:.:.0.:.:.0.<.0.:.:.:.:.0.<.:.:.:.:.:.:.r.:.-.-.:.:.:.:.:.:.:.-.:.0.:.0.<.:.",
":.:.:.-.:.:.*.:.:.:.:.:.*.:.;.;.:.:.:.:.<.0.r.:.:.:.:.<.:.0.:.<.0.:.:.:.:.:.:.0.:.:.:.:.;.:.0.:.:.:.:.:.:.0.:.-.:.:.:.:.:.:.0.:.",
":.:.:.:.:.:.*.-.*.:.:.:.:.:.;.%.:.:.:.:.:.0.:.:.0.:.:.0.:.:.:.:.<.:.:.:.:.0.<.:.:.-.%.;.:.:.:.:.*.:.:.;.0.0.:.:.-.:.:.0.0.:.0.0.",
"0.0.:.:.:.:.*.-.' $.:.0.0.:.:.:.:.0.:.:.:.:.:.0.:.:.0.:.0.:.:.:.0.:.:.:.0.:.:.:.:.%.%.%.:.:.:.:.0.;.:.0.0.0.%.} %.:.:.:.:.0.0.0.",
"r.r.r.:.:.:.-.} / ` %.r.0.;.:.:.:.:.r.:.r.:.0.<.r.:.r.:.<.0.:.r.<.0.r.:.:.r.:.:.:.:.:.:.:.:.:.:.:.0.0.8.t.8.[ / } 0.-.:.;.8.8.0.",
"r.0.r.r.0.:.:.} ) ) +.=.;.;.0.0.0.:.<.r.<.0.<.:.:.:.r.:.:.r.0.0.0.0.0.:.<.0.0.:.:.:.:.:.:.-.:.:.0.0.;.9.;.=.[ ` $.0.0.0.0.8.0.t.",
"0.0.0.r.r.:.:.-.=.[ ( ( [ 9.:.0.r.:.0.0.0.0.0.r.:.r.:.:.0.:.<.0.0.<.:.r.0.0.r.:.:.:.:.:.:.:.:.:.0.;.:.#._ ( [ ;.;.0.0.0.0.0.0.t.",
"0.0.0.r.r.0.:.:.<.%.( ( [ ;.0.0.r.:.0.0.0.<.:.:.:.:.r.r.<.<.0.0.:.:.:.r.0.<.0.:.:.:.:.:.:.:.:.:.:.:.;.#.( ( +.0.0.0.0.w.0.t.w.w.",
"0.r.:.<.<.:.:.:.0.;.$.%.;.*.:.r.:.:.r.<.0.0.r.:.r.:.:.:.0.0.0.<.r.r.:.:.0.<.0.:.:.:.:.:.:.:.:.:.:.;.<.;.&.&.;.0.0.0.0.0.0.0.w.w.",
":.:.:.;.0.-.-.0.0.:.<.<.:.*.:.:.0.0.<.r.:.:.0.0.0.0.0.<.:.r.<.0.:.:.<.0.0.:.r.:.0.:.:.:.:.:.:.:.:.<.,.<.<.<.<.r.0.0.0.0.8.w.w.w.",
"' $.:.:.:.:.-.8.-.:.:.-.:.<.:.<.<.:.0.0.:.r.<.0.<.<.0.0.:.0.0.0.:.r.0.0.r.:.:.:.<.:.0.:.:.:.:.;.:.<.,.,.<.<.<.:.:.0.-.0.0.0.8.| ",
"B } :.:.:.-.-.-.-.-.:.*.*.<.<.:.:.0.0.:.:.r.:.0.0.0.<.0.r.:.0.<.<.0.<.<.:.:.<.0.0.:.:.:.:.:.:.:.:.,.,.,.,.,.:.:.:.0.8.0.0.0.| ~ ",
"~ } -.:.:.:.8.-.8.:.-.*.*.<.<.<.:.0.:.:.0.:.0.<.:.r.0.:.r.0.0.0.0.0.0.0.r.r.:.0.:.:.:.:.:.:.:.:.:.<.<.,.,.,.:.0.8.8.0.:.:.8.-.~ ",
"~ } -.:.:.:.-.0.:.:.*.,.,.,.,.<.:.0.0.0.0.0.0.0.0.0.0.r.:.0.r.<.r.0.0.:.:.:.:.r.<.0.:.:.:.:.:.:.:.<.<.<.*.:.0.8.8.8.8.:.-.-.| ) ",
"] | -.:.:.0.0.8.:.:.*.*.,.*.<.:.:.0.:.0.:.:.0.0.r.0.0.0.r.0.0.0.:.0.<.r.:.r.:.:.0.:.:.0.:.:.<.:.:.*.:.*.*.:.8.0.8.8.8.:.:.-.=.W ",
"W 2.8.0.:.:.0.-.:.*.<.,.,.,.*.:.:.0.0.0.0.0.:.0.r.0.r.0.r.0.0.0.0.<.:.:.r.:.r.:.<.0.0.<.:.:.:.:.:.:.:.*.:.:.8.8.w.8.:.-.;.9.@.W ",
"- ! t.0.-.:.:.:.:.:.*.*.*.,.,.:.:.0.:.0.:.0.0.0.0.:.r.0.0.0.r.r.0.0.r.:.:.:.r.:.0.:.:.0.:.:.:.:.:.:.:.*.:.0.0.w.8.8.8.:.0.8.{ - "
};
