/* XPM */
static char *result[] = {
/* columns rows colors chars-per-pixel */
"64 64 154 2 ",
"   c #A45C06",
".  c #B76805",
"X  c #B16009",
"o  c #B26A21",
"O  c #CC7604",
"+  c #C47C0A",
"@  c #D37F08",
"#  c #CA7A20",
"$  c #C17A36",
"%  c #B47446",
"&  c #BA7A47",
"*  c #C98306",
"=  c #CE8209",
"-  c #CD8A0C",
";  c #D18D0B",
":  c #DD9004",
">  c #D69A0C",
",  c #DE8F1C",
"<  c #DE9414",
"1  c #E1900E",
"2  c #E09C08",
"3  c #EB9B0C",
"4  c #F59C0D",
"5  c #F89F0C",
"6  c #E58716",
"7  c #E68B16",
"8  c #EB8D14",
"9  c #E88D19",
"0  c #EF9512",
"q  c #F09511",
"w  c #F09A1B",
"e  c #DDA309",
"r  c #DDA11F",
"t  c #E4A008",
"y  c #E1AB0E",
"u  c #F6A50B",
"i  c #F8A60B",
"p  c #F9AC0A",
"a  c #EBB206",
"s  c #EBBB0B",
"d  c #F6B605",
"f  c #F0B30D",
"g  c #FAB20B",
"h  c #FABC0D",
"j  c #E8A511",
"k  c #EFA51B",
"l  c #F5AC14",
"z  c #F2A419",
"x  c #F9B51B",
"c  c #DE9829",
"v  c #DD8A34",
"b  c #DE8C3D",
"n  c #DD9034",
"m  c #DD983B",
"M  c #E08D3E",
"N  c #E19532",
"B  c #E09D37",
"V  c #E7993B",
"C  c #DFA62D",
"Z  c #DBAA2E",
"A  c #E6A222",
"S  c #E8A625",
"D  c #EBAF20",
"F  c #E2A52D",
"G  c #E5AF29",
"H  c #E9AA28",
"J  c #ECBC22",
"K  c #F7B124",
"L  c #FBB422",
"P  c #F2B32E",
"I  c #FAB32B",
"U  c #E5AE35",
"Y  c #EBB436",
"T  c #ECBA3D",
"R  c #EDCE0E",
"E  c #FAC50C",
"W  c #FDD50F",
"Q  c #F2C311",
"!  c #FCCB10",
"~  c #FDD612",
"^  c #FCDD14",
"/  c #FEE114",
"(  c #F3C739",
")  c #F7CE3E",
"_  c #F9C83E",
"`  c #B38154",
"'  c #D29045",
"]  c #D6994E",
"[  c #DF9C4B",
"{  c #C28655",
"}  c #D88D55",
"|  c #D3945E",
" . c #DD965B",
".. c #EA8D4B",
"X. c #E59445",
"o. c #E89546",
"O. c #E59B45",
"+. c #E49549",
"@. c #EA954A",
"#. c #E6994C",
"$. c #EC9A4B",
"%. c #F09D4E",
"&. c #E18D52",
"*. c #E69B52",
"=. c #EE9E52",
"-. c #E29C5C",
";. c #ED9E5E",
":. c #F39E51",
">. c #F39C59",
",. c #F4A04F",
"<. c #EEB04E",
"1. c #E4B94B",
"2. c #EFBE4E",
"3. c #E3A351",
"4. c #EEA154",
"5. c #E4A25A",
"6. c #EDA25A",
"7. c #F5A354",
"8. c #F9A557",
"9. c #F4AC54",
"0. c #FBAE56",
"q. c #F4A55A",
"w. c #FBA659",
"e. c #F5A95B",
"r. c #FEAD5D",
"t. c #F9B156",
"y. c #FCB15A",
"u. c #D49D67",
"i. c #E19C62",
"p. c #ECA365",
"a. c #E6A468",
"s. c #EAAA6D",
"d. c #F4A664",
"f. c #FCA760",
"g. c #F4AA63",
"h. c #FFAD61",
"j. c #F4AB69",
"k. c #FEAE69",
"l. c #FFB162",
"z. c #FCB26B",
"x. c #EFC346",
"c. c #F0C543",
"v. c #F7CC43",
"b. c #FACD4A",
"n. c #F6D044",
"m. c #F2D34B",
"M. c #FCD34C",
"N. c #F8D456",
"B. c #FADC51",
"V. c #FCD758",
"C. c #F4D367",
"Z. c #FADC64",
"A. c #F5CD75",
"S. c #FCE165",
/* pixels */
"` | p.d.h.r.r.0.r.r.l.k.k.k.h.h.h.h.f.h.h.h.r.f.h.h.h.h.h.h.r.h.r.r.r.r.r.h.r.r.h.r.r.r.r.r.r.h.r.r.y.r.y.r.r.r.r.y.y.l.k.d. .{ ",
"u.a.j.f.h.r.r.r.r.r.h.h.h.k.z.h.h.h.h.r.h.r.h.h.h.r.h.r.h.f.h.h.h.r.h.r.r.r.r.r.y.r.h.r.l.r.h.y.r.r.y.r.y.e.y.y.y.r.r.r.h.k.d.i.",
"s.j.k.h.h.r.r.y.y.r.l.l.h.k.h.h.h.h.r.h.h.h.h.h.r.h.h.f.h.r.h.h.r.r.h.r.h.y.r.h.h.r.r.r.r.r.r.r.r.r.r.r.y.r.y.g.r.r.r.r.h.h.j.g.",
"z.z.k.h.h.r.r.r.r.y.h.h.h.h.h.l.r.h.h.h.r.f.h.r.h.h.r.h.h.r.h.f.r.r.r.r.r.r.r.r.r.r.r.r.r.r.r.r.r.0.r.y.r.y.y.y.y.y.r.r.r.r.r.k.",
"z.z.h.h.r.h.h.h.l.r.h.l.h.h.h.h.h.h.f.h.h.r.f.r.h.h.h.r.h.h.h.r.h.r.r.r.h.r.r.r.r.r.r.r.r.r.r.r.r.0.0.r.r.r.y.h.y.h.r.r.r.w.w.r.",
"z.l.l.h.h.r.r.r.r.l.r.h.h.h.h.h.r.h.h.r.h.h.h.h.f.r.h.f.r.h.h.h.l.r.r.h.r.r.y.h.r.r.r.r.r.h.y.r.r.r.r.r.y.r.r.r.h.f.h.h.r.w.w.w.",
"l.r.r.r.r.8.7.7.w.r.r.h.h.r.h.h.r.h.r.f.r.f.h.h.h.r.h.h.h.h.r.r.r.r.h.r.r.h.h.r.8.%.$.8.r.h.r.r.r.r.r.r.r.r.r.r.r.h.r.h.r.r.w.r.",
"r.r.r.r.r.7.o.$.7.r.r.r.h.l.h.h.h.h.f.r.h.r.r.h.h.h.h.r.f.h.h.h.r.r.y.r.r.r.r.r.7.M X.:.h.y.l.r.r.r.r.r.r.r.r.r.r.r.r.h.f.r.h.h.",
"0.r.r.r.h.7.%.%.%.%.w.r.r.r.r.h.r.f.r.f.r.h.f.h.f.h.h.h.h.r.r.h.h.r.l.r.y.h.r.r.w.$.$.$.$.q.r.h.r.h.k.f.f.h.r.r.y.r.r.r.h.f.h.h.",
"r.r.r.r.r.r.w.:.o.@.7.w.w.w.r.r.h.f.h.r.f.r.r.h.h.h.r.h.h.h.h.h.r.r.r.r.h.r.r.r.r.w.7.X.X.$.r.r.h.f.f.f.k.f.r.r.r.r.r.r.h.h.h.h.",
"r.r.r.r.r.r.r.>.%.%.8.r.8.r.w.f.r.r.f.r.r.r.r.f.r.r.h.r.r.h.r.h.y.r.r.r.r.r.r.r.r.h.w.$.o.7.y.h.r.h.f.k.f.h.r.w.r.r.r.r.h.h.h.r.",
"r.r.l.r.r.h.f.r.8.8.r.h.h.8.r.h.h.f.r.r.r.r.r.r.r.r.r.r.r.r.h.y.h.h.r.r.r.r.r.l.l.y.r.e.7.r.h.h.f.h.h.f.k.h.r.r.r.r.r.r.r.h.f.r.",
"h.l.y.g.r.r.f.r.r.h.h.l.h.e.h.r.h.r.r.r.r.r.r.r.r.r.r.r.r.r.r.h.r.r.r.r.h.y.h.r.r.r.y.h.r.h.y.h.h.h.k.h.k.h.r.r.r.r.r.r.h.h.r.r.",
"j.l.l.l.r.r.w.r.w.e.l.l.f.r.r.f.r.r.r.r.r.r.r.h.h.r.h.r.h.r.r.r.r.h.r.r.r.h.r.h.r.r.h.r.r.r.r.l.h.h.k.h.h.h.h.r.r.r.r.h.h.r.r.r.",
"j.l.e.h.h.r.w.w.w.r.h.l.h.h.h.r.h.h.r.w.w.r.r.r.r.h.r.r.y.h.h.r.r.r.l.r.r.h.r.y.h.h.r.r.r.r.r.h.h.h.h.h.h.h.r.0.0.r.r.r.r.r.r.r.",
"l.g.l.h.h.f.w.w.r.r.h.h.r.r.r.e.h.l.q.%.:.9.r.r.r.r.r.r.r.r.r.r.r.r.r.r.r.r.r.r.r.y.r.r.r.r.r.h.r.h.h.h.h.w.:.o.7.r.r.r.r.r.r.r.",
"h.h.h.r.h.h.r.r.r.f.h.r.r.r.e.r.r.l.q.X.o.7.y.h.r.r.r.r.r.r.r.r.h.r.r.h.y.r.h.r.h.y.r.r.h.r.h.y.r.r.h.r.r.q.o.M $.r.h.r.r.r.h.r.",
"h.r.f.h.r.e.w.r.f.f.r.r.r.r.r.r.7.=.=.$.7.w.y.r.y.r.h.r.l.r.h.y.r.r.r.y.h.r.r.r.r.r.h.r.r.r.r.r.r.r.h.w.:.$.$.$.7.r.h.y.y.h.r.r.",
"h.r.h.h.f.r.f.f.r.r.r.r.r.w.r.w.$.b X.9.h.y.h.h.r.r.r.r.r.r.r.r.r.r.r.h.r.h.r.r.r.r.r.r.r.r.r.h.r.r.r.7.o.M $.r.r.h.h.r.r.r.r.r.",
"h.r.r.w.r.r.r.h.f.r.r.r.r.r.r.w.7.$.4.w.h.r.l.r.r.r.r.r.r.r.r.r.h.y.r.r.r.r.h.y.r.h.h.r.h.y.r.r.h.r.h.8.$.$.7.y.r.r.r.r.h.h.y.r.",
"f.f.r.f.w.h.h.r.h.r.r.r.r.r.r.r.r.r.r.r.y.r.r.r.r.r.r.0.r.r.0.r.r.r.h.r.r.r.r.h.r.y.h.h.y.h.r.r.r.r.h.r.w.e.r.l.l.r.r.r.r.r.r.l.",
"h.r.r.w.f.f.r.f.f.r.r.r.r.r.r.r.h.l.y.r.y.r.r.r.r.0.y.r.y.r.r.r.r.r.r.r.r.r.r.r.r.r.r.r.r.r.h.r.r.h.y.r.r.l.h.l.r.r.r.r.r.r.r.r.",
"r.r.r.r.f.r.h.r.f.r.r.r.r.r.r.h.r.r.r.r.r.0.0.r.r.r.r.r.r.r.r.r.r.r.y.h.r.l.h.r.h.y.r.r.h.r.r.h.r.r.l.l.l.l.r.r.r.r.r.h.r.h.r.r.",
"r.r.r.r.h.h.r.f.r.r.r.r.w.r.r.r.r.w.w.r.0.r.0.r.r.r.0.r.r.0.r.r.r.r.h.r.r.r.r.r.r.r.h.r.r.r.r.y.r.r.r.h.y.h.r.r.r.r.r.h.y.r.r.r.",
"w.r.r.r.r.h.r.r.r.r.r.r.r.r.r.r.r.r.e.r.0.w.r.0.r.r.0.r.r.r.r.r.r.r.r.r.h.r.r.r.h.r.r.r.r.h.r.h.r.r.h.y.h.y.r.r.y.h.r.h.r.r.y.h.",
"r.w.w.r.h.r.r.r.r.r.r.r.r.r.r.r.r.r.r.r.r.0.w.r.r.r.r.r.r.q.9.q.q.q.r.h.r.r.r.h.r.r.y.h.r.r.r.r.r.h.r.r.r.h.r.r.r.h.r.r.r.r.r.h.",
"r.r.r.h.r.r.r.r.r.r.r.r.r.r.w.r.r.r.r.0.r.r.r.0.0.r.r.5.A.S.S.Z.1.B v *.r.r.r.r.r.r.r.r.r.l.r.r.r.r.r.h.h.r.r.r.r.r.h.h.y.r.r.r.",
"r.r.r.r.r.r.r.w.r.r.r.w.r.r.r.r.r.r.r.r.w.0.r.r.r.r.5.S.T + * Z m.B.P w $.h.r.r.h.h.y.r.r.r.r.r.r.h.r.h.y.r.r.l.r.r.r.y.h.h.r.r.",
"r.r.r.r.r.r.r.r.r.r.r.r.r.r.r.r.r.r.r.r.0.w.r.r.r.q.C.C > s s a 2 c.M.I k 4.r.r.h.r.r.r.h.r.h.y.r.r.r.h.r.h.r.r.r.r.r.r.r.h.r.r.",
"r.r.r.r.r.r.r.r.r.w.r.r.r.r.r.r.r.r.r.0.r.r.0.r.r.C.U e R W W E d j ( b._ Y e.r.y.r.r.h.r.r.r.r.y.h.r.r.r.r.r.r.r.r.h.r.r.r.r.r.",
"r.r.r.r.r.r.r.r.r.r.r.r.r.r.w.r.r.r.r.r.r.r.w.r.5.N.; R / / W E g u T ) S.n.e.r.r.h.r.h.r.r.r.h.r.r.r.r.y.h.r.r.y.h.y.h.r.r.y.h.",
"r.r.r.r.r.r.r.r.r.r.r.e.r.r.r.r.w.r.r.0.0.r.0.r.] _ y ^ / ~ E h p i 3 ( Z.B.<.r.r.r.r.h.y.r.r.r.r.r.l.r.r.h.r.r.r.h.r.h.r.r.r.h.",
"r.r.r.w.r.r.r.r.r.r.r.w.r.r.r.r.0.r.r.r.r.0.0.r.3.; J ^ ~ ! h p i u 4 _ Z.B.Y r.r.h.r.r.y.h.r.h.r.r.y.h.r.h.r.r.l.r.r.h.r.r.y.h.",
"r.r.r.r.r.w.r.r.r.r.r.0.0.r.r.w.w.r.r.w.r.r.r.r.9.= Q ~ ! E p i 4 4 q P V._ G r.r.r.r.r.r.h.r.r.r.r.r.h.r.r.r.r.r.r.r.r.r.r.r.h.",
"r.r.r.r.r.r.r.r.r.r.r.r.r.w.r.0.r.r.r.0.0.w.0.r.9.- Q ! h g i 5 4 q 8 K v.J r r.y.h.r.r.r.r.h.h.y.r.r.r.y.h.r.r.r.r.h.h.y.r.r.r.",
"r.r.r.r.r.r.r.r.w.r.r.0.r.r.r.0.0.r.0.r.r.r.r.r.[ T f h g i 5 q 0 8 6 L D t c r.r.h.r.r.r.r.r.y.h.h.r.r.r.h.r.r.r.r.r.y.h.h.r.r.",
"r.r.r.r.r.r.w.r.r.r.r.0.r.0.r.r.r.w.r.r.r.r.0.r.' x.3 g i 5 4 q 8 9 , x r : $.r.r.r.l.r.h.r.r.r.r.r.r.r.h.r.h.r.r.r.r.r.r.h.r.r.",
"r.r.r.r.r.r.r.r.r.r.r.r.r.0.w.r.r.0.0.r.0.r.w.r.q.H F u 5 4 q 8 6 @ z l 1 @ 4.r.r.r.r.r.r.r.r.r.h.r.r.r.h.y.h.y.r.r.h.r.r.r.r.r.",
"r.r.r.r.r.r.r.w.r.r.w.r.0.r.r.r.0.r.r.r.0.r.r.r.r.O.1.7 q q 9 9 # 8 l < O # r.y.r.h.y.r.r.r.r.r.r.r.y.r.r.h.r.r.y.h.y.h.r.r.y.h.",
"r.r.r.r.r.r.r.r.r.r.r.0.r.r.0.r.r.r.0.w.r.r.0.r.0.r.m 2.9 6 9 @ 9 l < . X r.r.r.r.r.h.h.r.r.r.r.r.r.h.h.r.r.r.r.r.h.r.h.r.r.r.h.",
"r.r.r.w.r.r.r.0.r.0.w.0.r.r.r.r.r.w.r.0.r.r.r.r.r.r.q.N S A k k i @   o 6.r.r.r.y.r.h.r.r.r.r.r.r.r.r.r.r.r.r.r.r.r.r.r.r.r.r.r.",
"r.r.r.r.r.r.r.r.r.r.r.r.w.0.r.y.r.r.r.0.8.7.,.8.r.y.r.r.4.O.V n $ $ *.h.r.h.r.r.r.8.7.r.r.r.r.r.r.h.r.r.r.f.r.r.r.r.r.h.r.h.r.r.",
"w.r.r.r.w.0.w.r.r.r.r.0.r.r.r.l.y.l.r.r.8.$.o.8.r.h.r.r.r.r.r.r.r.r.h.r.r.r.h.h.8.$.$.7.w.r.r.r.h.r.r.r.r.r.r.r.r.r.r.r.h.r.h.r.",
"r.0.0.r.r.r.r.0.0.w.r.r.r.r.r.l.l.l.e.8.%.o.o.8.r.r.r.r.r.r.r.r.r.h.r.r.r.r.r.y.w.%.$.%.7.7.r.r.r.r.r.r.r.r.w.r.r.r.r.r.r.r.r.r.",
"0.r.0.r.r.r.r.0.r.r.0.r.r.r.e.r.r.y.7.$.o.,.7.8.r.r.r.l.y.r.r.h.r.r.h.r.r.r.r.r.r.7.7.$.X.7.w.r.8.r.8.r.r.r.r.r.r.r.r.h.y.r.r.h.",
"r.r.w.r.r.0.r.w.0.r.w.r.0.0.r.r.r.e.8.X.$.8.r.y.h.r.r.r.h.r.r.r.r.h.r.r.r.r.r.r.r.r.w.$.X.$.0.r.8.r.r.r.w.r.r.r.r.r.r.r.h.r.r.r.",
"r.r.r.0.w.r.r.0.r.r.r.0.r.r.r.8.r.r.w.8.7.h.l.y.h.r.h.r.h.r.r.r.r.r.h.r.h.h.r.h.r.r.r.7.7.7.r.e.8.r.r.r.r.r.r.r.r.r.r.r.r.r.r.r.",
"r.w.r.r.r.r.r.r.w.0.r.r.r.0.w.w.r.h.l.h.l.l.l.l.y.r.r.r.r.r.h.y.r.r.r.r.r.y.r.r.r.l.r.r.r.r.l.r.w.e.w.r.r.r.r.r.w.r.r.r.r.h.h.y.",
"r.r.r.r.r.r.0.r.r.r.r.r.e.r.r.8.r.r.r.r.h.l.l.l.r.r.r.r.r.r.r.r.r.r.h.r.r.h.r.r.r.r.w.r.e.r.l.r.r.w.r.r.r.r.r.r.r.r.r.r.r.r.h.r.",
"r.r.r.r.r.r.0.w.r.0.r.r.y.r.r.8.r.r.r.r.r.r.r.r.r.r.r.r.r.h.r.h.r.r.r.r.r.y.h.r.r.w.8.8.r.r.l.r.r.r.e.r.h.e.r.r.r.r.r.r.r.f.h.h.",
"l.h.r.r.r.r.0.w.%.7.w.h.h.r.w.r.r.r.l.r.r.r.r.r.r.r.l.r.h.r.r.r.h.y.h.r.r.r.h.r.r.w.8.w.r.r.r.r.r.h.h.h.h.h.q.:.>.r.w.r.r.f.h.h.",
"l.l.r.r.r.r.w.:.o.$.e.l.g.e.r.r.r.l.r.r.r.r.l.r.h.r.l.r.y.r.l.r.h.h.y.h.r.l.h.y.r.r.r.r.r.r.r.r.r.h.f.h.k.k.:.o.:.r.r.r.r.f.h.h.",
"h.l.h.y.l.r.r.:.$.$.6.q.e.e.r.h.h.l.r.r.r.l.l.r.y.h.r.l.r.r.l.r.y.y.h.h.r.l.r.r.r.r.h.r.r.r.r.r.e.h.r.g.e.6.=.$.7.h.h.h.e.h.h.k.",
"h.h.l.l.l.h.r.w.7.$.+.+.6.r.h.h.h.y.r.l.r.r.r.r.y.h.r.l.r.l.r.r.h.h.r.l.r.l.r.r.y.r.r.r.r.r.r.w.h.h.g.e.#.#.=.8.e.h.h.h.h.k.h.z.",
"h.h.l.l.l.h.r.r.h.7.+.+.4.e.r.h.h.h.l.r.l.r.r.l.h.h.h.r.r.r.l.l.r.r.r.l.r.r.y.h.r.r.r.r.w.r.r.r.e.e.y.4.#.+.6.h.h.h.h.h.h.z.k.k.",
"h.h.r.r.y.r.r.r.h.r.7.7.9.r.r.l.h.y.r.r.l.r.r.l.h.y.l.r.l.r.r.r.l.l.r.r.l.h.h.r.r.r.r.r.r.r.r.r.r.r.y.e.9.9.8.l.h.h.h.h.h.h.k.k.",
"r.r.r.r.r.r.r.f.h.r.y.y.r.r.r.y.r.l.r.r.h.y.h.h.r.r.r.l.h.h.h.y.r.r.l.r.r.r.l.r.r.y.h.r.r.r.w.r.e.y.y.y.y.y.y.h.h.h.f.h.h.h.k.f.",
"%.7.r.r.r.f.w.w.r.r.0.r.r.y.y.r.h.y.r.l.h.h.y.h.l.l.r.h.h.y.h.h.r.l.r.r.l.r.r.r.r.r.h.r.r.r.r.r.y.y.t.t.y.y.y.r.h.h.r.h.h.k.f.>.",
"M :.r.w.w.r.w.f.w.w.w.8.0.y.r.y.r.h.h.r.y.r.h.h.r.r.y.h.y.h.y.h.r.r.l.l.y.r.l.r.h.r.r.r.r.r.r.r.r.y.t.t.t.t.w.r.r.f.h.h.h.f.>...",
"..:.r.8.r.r.w.r.w.r.r.8.t.t.r.y.r.h.r.r.h.h.h.y.r.l.h.r.l.h.h.r.l.r.r.r.h.l.r.r.r.r.r.h.r.r.r.r.r.r.y.y.t.t.r.h.f.h.f.r.r.k.w...",
"..:.r.w.r.r.w.h.r.r.0.t.t.t.y.e.r.h.h.h.h.h.h.h.h.h.l.h.h.h.l.l.l.r.r.r.h.r.h.y.r.r.r.y.y.r.r.r.y.y.y.y.e.r.r.h.f.f.w.r.r.w.>.@.",
"&.>.f.r.r.r.f.f.r.r.0.t.t.0.y.y.r.h.r.h.r.r.h.h.l.h.l.h.l.h.r.h.h.r.l.l.r.l.h.h.l.r.r.h.r.r.r.r.r.0.0.r.r.r.r.h.k.f.f.r.r.w.7.} ",
"} ;.h.h.w.r.r.r.r.r.0.t.t.t.y.r.r.h.h.h.h.h.r.h.h.l.h.h.l.h.h.h.r.l.r.r.y.h.y.h.h.r.r.r.r.r.r.r.r.0.r.0.r.r.f.f.f.f.r.r.e.e.;.} ",
"%  .k.h.r.r.r.r.r.0.0.t.0.y.0.r.r.h.r.h.r.h.h.h.h.h.r.l.h.r.l.l.h.r.l.h.h.h.y.h.h.y.r.r.h.r.r.r.r.r.r.0.w.r.k.f.f.k.f.r.e.k.-.& "
};
