/* XPM */
static char *result[] = {
/* columns rows colors chars-per-pixel */
"64 64 147 2 ",
"   c #B47446",
".  c #BA7A47",
"X  c #D79806",
"o  c #DD9B0D",
"O  c #DA8A19",
"+  c #D19012",
"@  c #E09204",
"#  c #ED960A",
"$  c #E59B0B",
"%  c #EE9E0E",
"&  c #F1950F",
"*  c #F59D0C",
"=  c #E48B12",
"-  c #EA8B15",
";  c #E4841A",
":  c #ED9013",
">  c #EB9A14",
",  c #E5921B",
"<  c #E99A1D",
"1  c #F19511",
"2  c #DBA30B",
"3  c #ECA307",
"4  c #E2A20A",
"5  c #EAA608",
"6  c #F2A807",
"7  c #F6A40A",
"8  c #F8A50A",
"9  c #F7AE0A",
"0  c #F8AD0B",
"q  c #E6B30C",
"w  c #EBBC0D",
"e  c #F9B20C",
"r  c #F4BA0C",
"t  c #FABB0D",
"y  c #EBA017",
"u  c #E1A318",
"i  c #EBA71C",
"p  c #F6AE1D",
"a  c #F4B11E",
"s  c #DD8B24",
"d  c #D2992D",
"f  c #DE8C3D",
"g  c #E18C2B",
"h  c #E6962D",
"j  c #E29B2F",
"k  c #E08D3E",
"l  c #E29337",
"z  c #DCA82C",
"x  c #D8A530",
"c  c #EBA320",
"v  c #E9AD24",
"b  c #E9A82E",
"n  c #F2AC20",
"m  c #EFB423",
"M  c #F7BA27",
"N  c #FAB923",
"B  c #EDA932",
"V  c #E3A439",
"C  c #EAA239",
"Z  c #F0B331",
"A  c #EEC20F",
"S  c #EECA0F",
"D  c #F0C20E",
"F  c #FBC40F",
"G  c #F7CA0F",
"H  c #EECE10",
"J  c #FCC710",
"K  c #F2CD12",
"L  c #FCCC11",
"P  c #F5D012",
"I  c #FCD313",
"U  c #FCDC15",
"Y  c #FDE215",
"T  c #ECC03F",
"R  c #FAC835",
"E  c #F3C33B",
"W  c #F9C038",
"Q  c #B38154",
"!  c #C28655",
"~  c #D88D55",
"^  c #D3945E",
"/  c #DD965B",
"(  c #E88C42",
")  c #EA8D4B",
"_  c #E59445",
"`  c #E89546",
"'  c #E49549",
"]  c #EA954A",
"[  c #E6994C",
"{  c #EC9A4B",
"}  c #F09D4E",
"|  c #E18D52",
" . c #E09150",
".. c #EE9E52",
"X. c #E29C5C",
"o. c #ED9E5E",
"O. c #F39E51",
"+. c #F39C59",
"@. c #DBB244",
"#. c #E7A641",
"$. c #E5A74E",
"%. c #F4A04F",
"&. c #EBBD4B",
"*. c #F1B546",
"=. c #EEA354",
"-. c #EDA15C",
";. c #F5A354",
":. c #F9A557",
">. c #F5AC54",
",. c #FBAE56",
"<. c #F3A559",
"1. c #FBA659",
"2. c #F5AA5C",
"3. c #FEAD5D",
"4. c #F9B156",
"5. c #F5BD53",
"6. c #FCB15A",
"7. c #D49D67",
"8. c #E19C62",
"9. c #ECA365",
"0. c #E6A468",
"q. c #EAAA6D",
"w. c #F4A664",
"e. c #FCA760",
"r. c #F4AA63",
"t. c #FFAD61",
"y. c #F4AB69",
"u. c #FEAE69",
"i. c #FFB162",
"p. c #F7B967",
"a. c #F6B56E",
"s. c #FCB26B",
"d. c #F7BE76",
"f. c #EEC74E",
"g. c #F7CC44",
"h. c #F5C64D",
"j. c #FACE54",
"k. c #F9D854",
"l. c #F9D65D",
"z. c #F5DE6C",
"x. c #F7E274",
"c. c #FCE473",
"v. c #F7E47B",
"b. c #F6CC82",
"n. c #F8DA92",
"m. c #F9E383",
"M. c #FAE491",
/* pixels */
"Q ^ 9.w.t.3.3.,.3.3.i.u.u.u.t.t.t.t.3.3.e.t.t.t.3.e.t.3.t.t.3.t.3.3.3.3.3.3.3.6.t.3.3.3.3.3.3.t.3.3.6.3.6.3.3.3.3.6.6.t.t.w.8.! ",
"7.0.y.e.t.3.3.3.,.3.t.t.t.u.t.u.t.t.t.t.t.t.t.3.t.t.t.t.t.t.t.e.t.3.3.t.3.t.3.t.6.3.t.3.i.3.t.6.3.3.6.3.3.6.6.6.6.3.3.t.t.u.w.7.",
"q.y.u.t.t.3.3.3.3.t.i.i.u.t.i.t.t.t.t.t.3.t.3.t.t.t.t.3.t.t.t.t.3.3.3.3.3.3.3.t.t.3.3.3.3.3.3.3.3.3.3.3.6.2.6.6.2.6.3.3.t.t.e.y.",
"a.s.u.t.t.t.3.6.6.6.t.t.t.u.t.t.t.3.t.e.t.t.e.t.t.1.t.t.t.1.t.3.t.3.3.3.i.3.3.3.3.3.3.3.3.3.3.3.3.,.3.6.3.6.i.2.6.6.3.3.1.t.t.t.",
"s.u.t.t.3.t.t.3.3.i.t.t.t.i.t.t.t.t.3.3.t.3.t.3.t.t.t.t.1.t.t.t.t.3.3.t.3.3.3.3.3.3.3.3.3.t.3.3.3.,.,.3.3.3.6.t.3.3.3.3.3.1.1.t.",
"s.i.i.t.3.3.3.3.3.t.i.6.t.t.t.t.t.t.t.t.t.t.e.t.t.t.t.3.t.t.3.t.3.3.3.t.3.3.t.3.3.3.3.3.3.6.3.3.3.3.3.3.6.3.3.3.r.t.t.t.3.1.1.3.",
"i.3.3.3.t.:.;.;.1.3.t.t.3.t.t.t.t.t.t.t.3.e.t.t.3.e.t.t.t.t.3.t.t.6.3.6.t.3.3.6.:.} { :.3.t.t.t.3.3.3.3.3.3.3.3.6.t.3.t.3.1.1.3.",
"3.3.3.3.3.;.` { ;.3.3.3.t.t.3.t.t.1.t.1.t.3.t.t.t.t.3.t.t.t.t.e.t.t.3.3.3.3.3.t.;.k _ O.t.6.6.3.3.3.3.3.3.3.3.3.3.3.t.t.t.t.3.3.",
"3.3.3.6.t.:.O.} } O.:.3.1.3.t.t.t.1.t.1.t.t.1.t.t.t.t.t.3.t.3.t.3.t.3.3.3.3.t.t.:.{ ` { { 2.3.t.3.t.t.e.e.1.3.3.3.6.3.3.t.t.t.t.",
",.3.3.3.3.1.1.O.` ] :.1.1.1.1.3.t.t.t.t.e.3.t.t.3.t.3.t.t.t.t.t.3.3.6.3.3.3.3.6.3.3.;.` ( { 3.3.e.t.u.e.e.t.3.3.3.3.3.3.t.e.e.t.",
"3.3.3.3.3.3.3.:.} } :.3.3.1.3.t.t.1.t.3.3.3.1.3.1.t.t.3.3.t.3.t.3.3.t.3.3.t.3.3.3.t.1.{ ` ;.6.3.t.t.e.u.e.u.t.3.3.3.3.3.3.t.t.3.",
"t.3.t.3.3.t.t.3.:.:.3.t.e.1.1.3.t.t.1.t.3.3.t.t.3.t.3.3.3.3.3.3.3.3.3.t.t.6.3.3.i.6.3.1.;.3.i.t.t.t.e.u.t.t.3.3.3.3.3.3.t.t.t.3.",
"t.i.i.2.3.t.3.t.3.3.t.i.t.3.3.t.t.3.3.1.3.3.3.t.3.3.3.3.3.3.3.3.t.6.t.3.3.3.3.i.3.t.i.3.3.3.i.3.t.t.e.e.e.t.t.3.3.3.3.t.t.t.3.3.",
"t.y.i.i.t.3.1.1.:.3.i.i.t.2.2.t.3.3.3.3.3.3.3.6.3.t.3.3.3.t.3.i.3.t.3.t.3.3.3.3.3.3.3.3.3.3.t.3.3.t.t.u.t.t.t.t.3.3.3.3.t.3.3.3.",
"s.i.r.6.t.1.1.1.1.3.t.i.t.t.t.3.t.t.3.1.1.3.3.3.t.3.t.3.3.3.3.t.3.t.3.6.t.3.3.t.3.3.3.3.3.3.3.i.t.t.t.u.t.t.3.,.,.3.3.3.3.3.3.3.",
"t.r.t.t.t.e.1.1.3.e.t.t.3.2.3.3.i.i.2.{ O.:.3.3.3.3.3.3.t.6.3.3.3.3.3.3.6.t.3.3.6.t.t.3.3.3.t.3.t.t.t.t.t.:.O.` ;.3.3.3.3.3.3.3.",
"t.t.t.t.3.e.3.3.3.t.3.e.3.3.3.:.t.i.<.` ` ;.3.3.3.3.3.3.6.t.3.3.t.6.3.3.3.3.t.6.3.3.3.3.t.6.3.3.3.3.t.t.3.;.` f { i.t.t.3.3.3.6.",
"t.3.3.e.3.3.t.1.t.3.3.3.3.3.3.3.;.=...{ ;.2.6.3.3.3.t.3.3.3.3.3.t.3.3.t.3.3.t.3.3.t.3.t.t.3.3.t.3.3.3.:.;.{ { { ;.3.6.t.3.3.3.t.",
"t.e.3.3.3.e.e.3.e.3.3.3.3.3.:.:.{ f ` ;.t.6.t.i.3.6.3.3.t.3.3.t.3.3.3.3.3.t.3.3.3.6.3.6.3.3.3.3.3.3.t.;.` k { 1.3.i.3.3.3.3.3.3.",
"t.3.e.3.1.3.3.e.e.3.3.3.3.3.3.3.;.[ =.,.i.3.3.3.3.3.3.3.3.3.3.6.3.3.3.t.6.3.3.t.t.t.t.3.3.3.3.t.t.t.6.1.{ { ;.3.3.3.3.3.6.3.3.t.",
"t.t.e.t.e.3.e.3.t.3.3.3.3.3.3.3.3.3.3.3.6.3.3.3.,.3.3.,.3.3.6.3.3.6.t.t.3.6.t.3.3.3.3.t.3.3.3.6.3.3.6.t.3.1.3.i.6.3.3.3.t.3.3.3.",
"t.1.3.1.t.t.3.t.e.3.3.3.3.3.3.3.3.i.6.3.3.3.3.3.3.6.3.3.3.,.3.3.3.3.3.3.t.3.3.3.3.3.6.3.3.3.t.3.3.i.t.3.3.3.i.i.t.3.3.3.t.3.t.3.",
"t.1.t.3.t.1.e.3.3.3.3.3.3.3.3.t.3.3.3.3.3.3.,.3.3.3.3.3.3.3.3.3.3.6.3.3.3.3.3.i.3.3.t.3.t.t.3.3.3.3.i.i.i.i.3.3.t.3.3.i.3.t.3.6.",
"e.3.1.3.t.t.3.t.e.3.3.1.3.3.3.3.3.2.1.3.,.,.3.,.3.3.,.3.3.,.,.3.3.3.t.3.3.3.3.3.3.t.3.3.6.3.3.t.3.3.3.3.6.t.3.3.3.3.3.3.3.3.3.t.",
"3.3.3.3.3.t.3.3.3.3.3.3.3.3.3.3.3.2.3.3.,.3.1.3.3.3.3.3.6.3.3.3.3.t.3.3.3.3.3.3.3.3.t.3.3.6.3.3.3.t.3.t.i.t.3.t.3.3.3.i.3.3.3.3.",
"3.1.1.3.t.3.3.3.3.3.3.3.3.3.3.3.3.3.3.3.3.1.,.3.3.,.,.3.3.3.3.3.3.3.3.3.3.3.3.t.3.t.3.3.t.t.3.t.6.3.3.t.3.3.3.6.3.t.3.3.3.3.t.3.",
"3.3.3.3.3.3.3.3.3.3.3.3.3.3.3.3.3.3.,.3.3.,.1.,.3.3.3.d.m.z.f.T E g.j.p.t.3.6.t.3.6.3.3.3.3.3.6.t.3.3.6.3.3.t.3.3.3.3.3.t.3.6.t.",
"3.3.3.3.3.3.3.1.3.3.3.1.3.3.1.3.3.3.3.3.3.,.3.3.3.:.n.x.@.+ o 4 4 o i R 5.t.3.3.t.3.3.3.3.3.t.3.3.3.3.3.3.3.3.3.6.t.t.3.3.3.3.3.",
"3.3.3.3.3.3.3.3.3.3.3.1.3.3.3.3.,.3.3.3.3.,.3.3.3.b.z.x 2 w K K G r 3 $ M *.3.3.3.3.3.3.t.6.3.3.t.3.3.6.6.t.t.3.3.t.6.3.3.t.3.t.",
"3.3.3.3.3.3.3.3.3.3.3.3.3.3.3.3.3.3.1.3.,.3.,.3.a.v.d 2 H Y Y U L F 0 3 % M =.3.3.t.3.i.t.3.3.t.3.3.t.t.3.3.3.3.3.3.t.3.3.6.3.3.",
"3.3.3.3.3.3.3.3.3.3.3.3.3.3.3.3.1.3.3.,.1.3.,.3.M.&.X S Y Y U I F t 0 7 # p B 2.3.3.3.t.3.3.3.3.3.t.3.3.3.3.3.t.3.3.t.3.3.t.3.3.",
"3.3.3.3.3.3.3.3.1.3.3.3.3.3.1.3.3.3.3.3.3.3.3.3.c.z q U Y U P G t 9 7 * * > n 3.t.6.3.3.3.3.3.t.6.3.3.3.t.3.3.6.t.3.3.3.3.6.t.3.",
"3.3.3.3.3.3.3.1.3.3.3.3.3.,.3.3.3.3.3.3.3.1.3.,.z.o A Y U I L t e 8 * * & - p <.3.t.6.3.3.3.t.3.6.3.3.t.3.t.6.3.3.3.3.t.6.3.3.t.",
"3.3.3.3.3.3.3.3.3.3.3.1.3.3.3.1.,.3.1.,.3.,.3.3.k.u D I I J t 0 8 * & & : = n <.3.3.t.3.3.t.3.3.t.3.3.3.3.3.t.3.3.t.3.3.t.3.3.3.",
"3.3.3.3.3.3.3.3.3.3.,.3.,.1.,.3.3.3.3.3.,.3.3.3.k.u w L F t e 8 * * & : - O i 2.3.3.6.3.3.t.t.3.3.3.3.3.3.3.3.3.3.t.3.3.3.3.3.3.",
"t.3.1.3.3.3.3.3.1.,.3.3.3.3.3.3.1.,.3.1.,.3.,.3.l.v 5 t e 0 8 * * & : - ; V h 1.t.3.t.3.3.6.3.3.3.t.t.6.3.3.i.3.3.6.t.3.3.t.t.6.",
"3.3.3.3.1.3.3.3.3.3.3.3.,.3.3.,.3.3.3.,.3.3.,.3.p.E @ 6 0 8 * * & - - ; g b l 3.3.3.3.3.t.3.3.3.3.3.6.t.t.3.3.3.3.t.t.3.3.3.6.t.",
"3.3.3.3.3.3.3.3.3.3.1.,.3.3.1.3.3.,.3.1.,.3.3.3.3.h.m # * * * 1 1 ; ; s $., <.3.t.6.3.t.3.3.3.t.3.t.3.3.3.3.t.3.3.6.3.3.3.t.3.3.",
"3.3.3.3.3.3.3.3.3.,.3.3.3.,.3.,.1.,.3.3.,.3.3.3.6.2.W a # # > : - ; s $.#.=.3.t.3.t.3.t.3.3.3.3.3.3.3.3.3.3.3.3.3.t.3.3.6.3.3.t.",
"3.3.3.3.3.3.3.3.1.3.3.3.3.,.3.3.3.3.3.,.3.3.,.3.3.3.2.Z N p < O j &.v = ..3.3.3.3.3.3.3.t.6.3.3.6.t.t.3.3.t.6.t.3.3.3.t.t.3.3.3.",
"3.3.3.3.3.3.3.1.3.3.3.1.3.3.3.3.3.3.3.3.,.3.,.3.3.3.3.1.>.C c y > h [ t.3.3.i.3.3.3.3.t.3.3.3.3.3.t.3.3.3.3.3.3.3.3.3.3.3.3.3.3.",
"3.3.3.1.3.,.3.3.3.3.3.,.3.,.3.t.3.3.6.3.1.;.;.,.3.3.3.6.3.3.3.3.t.3.3.3.3.3.3.3.3.;.;.3.3.3.3.3.3.3.3.3.3.t.3.t.t.3.3.3.t.3.t.3.",
"1.3.3.3.1.,.3.3.,.1.3.3.3.3.3.i.6.i.3.1.%.} ] ;.t.3.3.3.3.3.3.3.t.3.t.3.t.3.6.3.,.{ { ;.:.3.3.3.t.3.3.3.3.3.3.1.3.3.3.3.3.i.3.3.",
"3.,.,.3.3.3.3.,.3.3.,.1.,.3.3.i.i.i.1.;.} ` ] ;.t.6.3.3.3.3.t.3.3.3.3.3.3.3.t.t.:.} { } ;.:.3.3.3.3.3.3.3.3.3.3.3.3.3.3.3.3.3.3.",
",.3.3.1.3.3.3.1.3.3.,.,.3.1.3.3.3.3.>.{ ` %.;.3.6.t.3.t.3.3.6.3.3.3.6.t.3.3.3.3.3.;.;.{ ` %.3.,.1.2.3.3.3.3.3.t.3.3.3.3.3.3.3.t.",
"3.3.,.3.3.,.3.,.3.1.3.3.3.,.3.3.3.3.;.` { :.3.3.3.t.3.3.t.3.t.t.3.3.3.t.t.3.3.3.3.3.1.{ ` { 2.1.1.1.3.3.3.1.3.1.3.3.3.3.3.3.t.6.",
"1.3.3.,.3.3.3.,.3.,.3.1.3.,.2.,.3.3.1.;.;.3.6.t.3.3.t.t.3.3.3.3.i.3.3.3.3.3.6.3.3.i.3.;.=.;.3.1.:.,.3.3.3.3.t.1.3.1.3.3.3.3.3.3.",
"3.3.3.3.3.1.3.3.3.,.3.,.3.3.1.1.3.t.i.3.i.i.i.i.3.3.3.6.3.3.3.3.3.3.3.3.3.3.t.t.t.3.3.3.3.3.i.3.1.:.3.3.3.3.3.3.3.3.t.6.3.t.3.3.",
"3.3.3.3.3.3.,.3.3.3.3.2.3.3.,.:.3.3.3.3.t.i.i.3.3.3.3.i.3.3.i.3.t.3.3.3.3.3.t.3.3.3.3.2.3.3.t.3.3.:.3.3.t.3.3.3.3.1.3.3.3.3.t.3.",
"3.3.3.3.3.3.,.1.,.3.3.3.3.3.3.:.3.3.3.3.3.3.3.3.3.3.3.3.3.3.3.3.3.3.3.t.3.t.6.3.3.:.,.1.2.3.t.3.3.3.3.3.t.e.3.3.3.3.3.t.t.3.t.t.",
"i.t.3.3.3.3.,.1.} ;.3.i.t.2.3.1.3.3.3.3.3.3.3.3.3.3.3.3.3.3.3.3.6.t.t.3.3.t.3.3.3.1.1.1.1.3.3.3.3.3.e.t.t.t.:.O.:.1.t.3.3.t.t.t.",
"i.i.3.3.3.3.1.} ` ] 2.i.t.3.3.3.3.3.i.i.3.i.3.i.i.3.3.i.3.i.3.i.3.t.6.t.t.6.3.i.3.3.3.3.3.3.3.3.3.t.r.t.s.t.O.` O.3.3.1.3.e.e.t.",
"t.i.i.i.i.3.3.;.{ { =.-.2.2.t.t.i.3.3.3.3.3.3.i.3.t.i.3.3.i.3.3.6.i.3.3.6.t.t.3.3.3.3.3.3.3.3.3.t.r.i.2.2.-...] ;.t.t.t.e.3.t.t.",
"t.t.t.i.i.3.3.1.;...` ' =.2.t.t.t.t.i.3.i.i.3.3.t.6.3.3.3.3.i.3.t.t.3.i.t.t.3.3.3.3.3.3.3.3.3.3.3.3.r.<.[ ' =.<.3.t.t.t.t.s.t.s.",
"t.t.t.i.i.t.3.t.3.;.' ' =.3.t.t.t.6.t.t.3.3.i.3.t.t.6.i.i.i.3.3.3.3.3.i.t.6.6.t.3.3.3.3.1.3.3.3.3.3.2.<.[ ' =.t.t.t.t.u.t.s.u.u.",
"t.t.6.3.6.3.3.1.t.3.;.;.>.2.3.t.3.i.3.6.3.i.3.3.6.t.t.t.3.3.3.i.i.i.3.3.3.i.t.3.3.3.3.3.3.3.3.3.3.2.6.>.>.>.2.i.t.t.t.t.t.t.u.u.",
"3.6.3.1.t.1.1.t.t.t.3.3.2.3.3.3.i.3.t.t.6.t.3.i.i.3.3.3.3.3.t.6.3.3.i.3.3.6.t.t.3.6.t.3.3.3.1.3.3.6.4.4.6.6.6.i.t.3.t.t.t.t.u.u.",
"} ;.3.3.3.t.1.1.e.1.3.3.,.6.6.6.3.3.6.t.6.t.3.i.3.3.i.i.i.i.t.t.3.i.3.3.i.3.t.3.3.t.3.3.3.3.3.3.3.6.4.4.6.6.6.3.3.t.t.t.e.e.e.+.",
"( } 3.3.3.1.1.e.1.1.1.,.,.6.3.6.3.t.3.t.t.t.6.t.3.i.3.3.3.3.6.t.3.6.t.i.t.t.6.t.3.3.t.3.3.3.3.3.3.6.4.4.4.4.1.3.e.e.t.3.e.e.+.) ",
") O.1.3.3.3.e.1.3.3.,.,.,.4.6.3.3.3.t.3.t.3.t.t.t.3.i.t.3.i.t.3.i.3.t.3.i.6.t.3.3.3.3.3.3.3.3.3.3.6.6.6.4.4.3.e.e.t.e.3.t.t.1.) ",
") O.1.3.3.3.1.3.3.3.,.4.4.4.4.3.3.t.t.t.t.3.t.3.i.i.t.t.t.t.i.i.i.3.3.3.3.3.3.i.3.3.3.t.6.3.3.3.3.6.6.6.6.3.3.t.e.e.t.t.3.1.+.' ",
"| +.t.3.3.3.t.e.3.3.,.4.4.4.6.6.3.t.t.3.t.t.t.t.t.t.3.i.i.t.3.t.t.3.i.i.3.i.3.3.i.3.3.6.3.3.3.3.2.6.3.,.2.3.t.t.e.e.e.1.3.3.+. .",
"~ o.t.t.3.3.3.1.3.3.,.4.4.4.2.6.3.t.t.t.t.3.t.t.t.t.t.i.i.t.t.t.3.6.3.3.i.3.i.3.t.3.3.t.3.3.3.3.3.,.3.,.3.3.e.e.u.e.1.3.3.e.-.~ ",
"  / u.t.1.3.3.3.3.3.,.4.,.6.,.3.3.3.t.3.t.t.t.3.i.i.t.t.t.t.i.i.t.t.i.3.3.3.i.3.t.6.3.3.3.3.3.3.3.3.3.,.3.3.t.u.e.e.t.3.2.r.X.. "
};
