/* XPM */
static char *result[] = {
/* columns rows colors chars-per-pixel */
"64 64 158 2 ",
"   c #0E071B",
".  c #0F091D",
"X  c #120B1D",
"o  c #180E1E",
"O  c #24111F",
"+  c #251724",
"@  c #2D1621",
"#  c #2F1D21",
"$  c #321C25",
"%  c #3C1D23",
"&  c #331E29",
"*  c #122A34",
"=  c #13393E",
"-  c #3F2026",
";  c #3D2826",
":  c #34202B",
">  c #3A252C",
",  c #392A32",
"<  c #442226",
"1  c #4F2626",
"2  c #442A27",
"3  c #422329",
"4  c #462B2C",
"5  c #502626",
"6  c #522A2B",
"7  c #5C2D2A",
"8  c #57392D",
"9  c #583A2C",
"0  c #4B2D32",
"q  c #4A3333",
"w  c #503435",
"e  c #593334",
"r  c #573832",
"t  c #5E3A3B",
"y  c #633431",
"u  c #673A36",
"i  c #683B37",
"p  c #693D3A",
"a  c #65432D",
"s  c #684230",
"d  c #67433E",
"f  c #0E3257",
"g  c #073761",
"h  c #144D4C",
"j  c #15514D",
"k  c #1C6A4F",
"l  c #1E6F50",
"z  c #25754C",
"x  c #5D4A41",
"c  c #6E4441",
"v  c #674B41",
"b  c #704643",
"n  c #6E5145",
"m  c #765543",
"M  c #835738",
"N  c #875A38",
"B  c #8A5C39",
"V  c #94633C",
"C  c #845E43",
"Z  c #85624E",
"A  c #8B654B",
"S  c #806853",
"D  c #9D785D",
"F  c #AF7644",
"G  c #B07745",
"H  c #B97E47",
"J  c #A27A5B",
"K  c #A87E5E",
"L  c #997861",
"P  c #9C7F6C",
"I  c #2F904C",
"U  c #33984B",
"Y  c #6E9559",
"T  c #D7883C",
"R  c #DD8B3C",
"E  c #E38E3F",
"W  c #BF8147",
"Q  c #989D7C",
"!  c #AC8362",
"~  c #A1826F",
"^  c #B58B65",
"/  c #B1926A",
"(  c #A98973",
")  c #B6947A",
"_  c #C28347",
"`  c #C38449",
"'  c #CD8B4D",
"]  c #DD8E41",
"[  c #D18E4E",
"{  c #D6914F",
"}  c #D8934F",
"|  c #D38D53",
" . c #D79151",
".. c #D99351",
"X. c #DD935A",
"o. c #E49143",
"O. c #E89646",
"+. c #E39448",
"@. c #EB954A",
"#. c #E6994E",
"$. c #ED9A4B",
"%. c #F0974D",
"&. c #F19D4E",
"*. c #E79450",
"=. c #EE9654",
"-. c #E29953",
";. c #ED9E53",
":. c #E79659",
">. c #F19752",
",. c #F19E50",
"<. c #EDA14F",
"1. c #EEA253",
"2. c #F5A354",
"3. c #F9A656",
"4. c #F5AA57",
"5. c #F9AD56",
"6. c #F4A55A",
"7. c #FBA65A",
"8. c #F7AA5C",
"9. c #FEAC5D",
"0. c #F9B056",
"q. c #FCB15B",
"w. c #D39762",
"e. c #D29F70",
"r. c #C9A77E",
"t. c #D6A476",
"y. c #D9A87A",
"u. c #EBA466",
"i. c #E8A569",
"p. c #F6AA64",
"a. c #FEAD61",
"s. c #F4AC6B",
"d. c #FEAE69",
"f. c #FFB162",
"g. c #FCB26A",
"h. c #086296",
"j. c #0A6DA3",
"k. c #0A76B0",
"l. c #0078BA",
"z. c #0F8395",
"x. c #199693",
"c. c #3F9A9C",
"v. c #0281BE",
"b. c #6C868A",
"n. c #5A93A0",
"m. c #0E87C0",
"M. c #0092D6",
"N. c #0098DC",
"B. c #808180",
"V. c #B2AD86",
"C. c #CDA888",
"Z. c #D0A885",
"A. c #CCB989",
"S. c #E9BB8F",
"D. c #EABC90",
"F. c #D3C190",
"G. c #F2C59A",
"H. c #F6CA9F",
/* pixels */
"w.i.p.p.a.9.9.9.q.9.a.d.f.d.a.f.a.a.a.a.a.7.a.a.9.a.7.a.a.7.a.a.9.9.9.9.9.9.9.9.9.9.a.a.9.9.a.9.9.9.9.q.9.9.q.q.5.9.q.f.d.d.u.w.",
"i.s.p.a.9.9.9.5.9.q.d.f.d.a.d.a.a.a.9.a.a.a.a.a.a.a.a.a.a.a.a.a.9.9.9.a.9.a.a.9.9.9.9.q.9.9.9.9.q.9.9.9.q.9.q.9.q.9.a.q.a.p.p.u.",
"s.d.d.a.a.9.9.9.q.f.a.a.a.d.f.9.a.9.a.a.a.a.a.a.a.a.a.a.a.9.a.a.9.9.9.9.9.9.9.q.9.a.9.9.a.9.q.9.5.9.9.q.q.5.8.q.9.a.9.9.7.a.a.p.",
"g.d.a.a.9.a.q.9.a.f.f.a.a.a.a.a.a.a.a.a.a.a.7.a.a.9.a.a.a.9.a.a.9.a.9.9.a.9.9.a.a.q.9.9.9.9.a.9.9.9.9.5.9.q.q.a.f.q.8.9.9.9.9.a.",
"g.a.a.a.9.f.9.9.q.a.f.a.a.a.a.a.a.9.a.7.a.a.a.7.7.a.a.a.a.a.a.7.a.9.9.9.9.q.a.9.9.9.9.9.9.a.9.9.9.q.9.7.9.q.9.q.9.9.a.9.9.9.7.9.",
"f.f.f.9.9.9.9.9.a.a.a.q.a.a.a.9.a.a.a.a.a.a.a.a.a.a.a.a.7.a.a.a.9.a.q.9.9.9.9.a.9.3.3.9.9.q.9.9.9.9.9.9.9.9.9.9.q.p.a.a.7.7.3.7.",
"a.9.9.9.7.2.,.2.9.9.a.a.9.a.a.a.a.a.a.7.9.7.a.a.a.9.a.7.a.a.a.9.9.9.9.a.a.q.9.9.2.$.$.2.a.9.9.9.9.9.9.9.9.9.9.9.9.a.9.a.a.7.9.9.",
"9.9.9.9.3.$.@.&.3.7.9.9.a.a.a.9.7.a.a.a.a.a.9.a.a.a.a.a.a.a.a.9.9.9.9.9.9.a.9.9.,.o.E 2.9.9.f.9.9.9.9.9.9.9.9.9.9.9.9.a.a.a.a.9.",
"9.9.9.f.7.2.,.&.%.2.9.9.7.9.9.7.a.a.7.a.7.a.a.a.9.a.a.a.a.9.a.9.a.9.9.9.9.9.a.9.3.&.$.$.$.2.f.9.a.p.7.p.a.a.9.9.9.9.9.9.a.a.a.a.",
"5.9.9.9.9.9.7.%.E %.3.9.3.9.9.a.a.7.a.a.9.a.7.a.a.a.9.a.a.a.a.a.q.a.a.9.9.a.9.9.f.9.2.o.R $.9.9.a.a.p.p.a.a.9.9.9.9.9.9.a.a.a.a.",
"9.9.9.9.a.9.7.,.%.2.9.9.7.7.7.a.a.a.9.9.7.9.9.a.9.a.a.9.9.9.a.9.9.9.9.9.9.q.9.9.9.9.3.&.$.2.9.a.7.a.p.p.a.a.9.9.9.9.9.9.a.a.a.a.",
"9.f.9.9.a.a.a.9.7.9.9.9.7.9.7.a.7.a.9.9.a.9.a.9.9.9.9.9.a.9.9.a.a.a.q.9.9.a.9.9.q.f.9.3.3.9.f.9.a.a.a.a.d.a.9.9.9.5.9.9.a.a.a.7.",
"a.q.f.9.a.9.9.7.9.a.f.a.a.9.a.9.p.9.9.9.9.9.9.a.9.9.9.9.9.9.9.q.9.9.9.q.a.9.9.f.a.a.a.9.9.f.9.f.a.a.a.d.d.a.9.9.9.9.9.a.7.a.a.9.",
"g.p.p.9.a.7.7.7.9.a.f.a.a.9.9.p.9.9.9.9.9.9.9.9.9.a.9.9.9.a.a.9.9.9.9.a.a.9.9.9.9.9.9.9.9.9.9.f.a.a.a.a.a.a.9.9.9.9.9.9.a.a.9.9.",
"f.p.f.9.9.7.7.7.7.9.f.f.p.9.9.9.a.a.9.2.3.9.9.9.a.9.a.9.a.9.9.9.a.9.9.9.9.9.q.9.9.a.9.9.9.9.9.a.a.a.a.d.a.a.3.3.7.q.9.a.9.9.9.9.",
"f.f.f.8.a.7.9.7.7.9.a.9.q.8.9.9.a.f.2.$.2.3.9.9.9.9.9.9.q.9.9.a.q.a.9.9.9.9.a.a.a.q.9.9.9.9.9.9.a.a.a.a.9.9.,.O.,.9.9.9.9.9.9.9.",
"9.a.p.9.9.a.7.a.9.a.7.a.9.7.9.9.q.a.1.o.$.3.a.q.a.9.9.9.a.q.9.9.a.q.9.a.q.9.a.9.9.9.9.9.a.q.9.9.7.a.a.7.9.2.@.R $.9.a.9.9.9.a.9.",
"9.a.a.a.9.7.7.a.a.9.a.9.9.9.9.3.1.#.$.2.2.9.a.a.9.a.9.9.9.a.9.9.9.9.9.9.a.9.9.9.9.9.a.a.9.a.9.9.a.7.a.7.&.$.$.$.2.9.a.q.q.a.9.9.",
"a.a.a.a.a.a.a.a.7.a.9.9.9.7.7.2.O.T $.9.a.f.9.9.9.q.9.9.9.a.9.a.a.9.9.9.9.a.9.9.9.f.9.q.9.9.9.a.9.a.9.2.o.R $.9.9.f.9.9.9.9.9.9.",
"7.a.8.7.7.7.a.7.a.9.9.9.9.9.9.3.<.$.2.q.q.a.q.9.9.9.9.9.1.F F F F G F F ` 9.9.9.9.9.9.a.9.9.9.a.9.9.9.7.<.$.2.9.a.9.9.9.a.a.q.9.",
"a.a.a.7.a.a.a.a.a.9.9.9.9.9.9.9.9.9.9.q.a.9.9.9.9.9.5.1.V @ @ : : : : & < | 9.9.9.9.a.q.9.a.9.q.9.f.a.9.9.3.9.f.f.9.9.9.9.9.9.f.",
"7.7.a.a.a.7.a.7.9.a.7.9.9.9.9.9.f.f.q.9.q.9.9.9.9.9.3.M 3 y y b b b b d 7 O ..9.9.9.9.a.9.9.9.9.9.9.q.a.a.f.f.f.9.a.q.a.9.9.9.9.",
"a.7.7.a.a.a.a.9.a.9.9.9.9.9.f.9.9.3.9.9.9.5.5.9.9.9.e w b b b b b b b b c 7 + ..9.9.9.9.a.9.9.9.9.f.9.a.f.q.a.9.9.9.9.9.a.q.9.9.",
"7.9.9.a.7.a.7.a.7.9.9.9.9.9.9.9.9.9.9.9.5.7.9.5.7.; t c b b b b b b b b c c + ..q.a.9.9.q.a.9.9.9.9.q.a.9.f.9.9.a.9.9.9.9.a.9.9.",
"9.7.9.9.9.9.9.9.9.9.9.7.9.9.9.9.9.7.9.9.9.7.5.5.7.. u c b b b b b b c b b c 6 s ..a.9.9.a.9.a.9.a.9.a.q.9.a.9.9.9.9.a.9.9.9.a.9.",
"9.9.9.9.9.9.9.9.9.9.9.9.9.9.9.9.9.9.9.9.5.5.9.9.3.. t b p p b b i 0 > 4 p c y @ G 9.9.9.a.q.9.a.9.9.9.a.9.a.q.9.q.9.q.a.9.9.q.9.",
"9.9.9.9.9.9.9.7.7.9.9.9.7.9.9.9.9.9.9.5.9.9.9.5.4.. e p y y b p 1 w r w < 0 6 @ G 9.9.a.9.a.9.q.9.9.9.9.q.a.9.a.a.a.9.9.9.9.a.9.",
"9.9.9.a.9.9.9.9.9.9.9.9.9.9.9.9.9.9.9.9.5.7.9.9.7.. 1 7 5 e p 1 > D y.! : . - 8 ' 9.9.q.9.9.9.9.a.q.9.9.9.a.9.9.9.9.9.9.9.9.a.9.",
"9.9.9.a.9.9.9.9.9.9.9.9.7.9.9.9.9.9.5.9.9.5.9.9.4.  1 7 $ @ 1 X K S.H.D.^ o o ..a.9.9.a.9.9.9.a.9.9.9.9.9.9.a.9.9.9.9.9.9.9.9.9.",
"9.9.9.9.9.9.9.9.9.9.9.9.9.9.9.9.9.9.9.7.9.9.5.9.7.  t & v C & ! q ( H.) +   -.9.9.9.9.9.a.9.9.9.a.9.a.9.9.9.q.a.9.9.a.a.f.9.9.9.",
"9.9.9.9.9.9.9.9.9.7.9.9.9.9.9.9.9.9.9.9.7.9.5.9.4.  u & n w.L S., ~ H.)   . 6.9.q.a.a.9.q.a.q.a.a.9.q.a.9.9.9.9.f.9.9.q.9.9.a.q.",
"9.9.9.9.9.9.9.9.9.9.9.9.9.9.9.7.9.7.5.9.5.9.9.9.9.` r x J e.t.H.P C.H.Z.v X 6.9.9.9.9.9.9.9.9.9.9.9.9.9.9.f.9.9.9.9.9.9.a.9.9.a.",
"9.9.9.9.9.9.9.9.9.9.9.9.9.9.9.9.9.9.9.5.9.7.5.9.9.5.H A ! e.t.S.G.H.G.r.Z V 7.9.a.9.9.9.f.9.9.a.9.a.9.9.9.9.a.9.9.9.9.9.a.9.9.9.",
"9.9.9.7.9.9.9.9.9.9.9.9.9.7.9.9.7.9.9.9.5.9.9.9.9.9.9.V v / / / A.F.r.S 2 9.9.a.9.9.9.9.9.9.9.9.9.q.9.a.9.9.q.a.a.9.9.9.q.a.a.9.",
"9.9.9.9.9.9.9.9.9.7.9.5.5.9.5.9.5.9.5.9.9.9.5.9.9.9.q.V * h j l I U z = 4 9.9.q.q.a.9.9.9.a.q.9.9.a.9.9.a.9.9.9.9.q.a.9.a.9.9.9.",
"9.9.9.9.9.9.5.9.9.9.9.5.9.7.9.9.5.9.7.9.9.5.9.9.5.9.B L C.Q k l I U Y / J 9 8.a.9.9.a.9.9.9.a.9.9.a.q.9.9.a.q.9.9.9.9.a.9.a.q.9.",
"9.9.9.9.9.9.9.9.9.9.9.7.5.9.9.5.9.9.5.9.9.5.9.5.9.9.9 ( H.V.l l I U Q e.^ o 6.9.9.a.q.9.9.9.a.9.9.9.9.q.a.9.9.a.9.9.a.q.9.9.f.9.",
"9.9.9.9.9.7.9.9.9.5.9.5.9.9.7.9.9.7.5.9.9.5.9.9.9.9.{ A B.n.z.z.x.x.c.b.m W 9.9.9.9.a.9.9.9.9.9.a.9.9.9.9.a.9.9.a.9.9.9.9.9.9.9.",
"9.9.9.9.9.9.9.9.9.7.9.5.9.5.9.9.5.7.9.9.7.9.9.q.5.9.7.N g l.N.N.v.M.N.j.; 8.9.a.9.9.9.9.f.9.q.a.9.9.9.9.9.a.9.9.9.9.9.a.9.9.9.9.",
"9.9.9.9.9.9.9.9.9.9.9.9.9.5.7.9.9.9.9.5.9.9.5.9.9.9.#.a f j.m.v.h.k.v.h.# { 7.9.9.f.9.9.9.9.9.9.q.a.9.a.9.9.q.a.a.q.9.9.9.f.9.9.",
"9.9.9.9.9.9.9.9.9.5.9.5.9.9.9.9.9.5.9.9.9.9.5.9.9.} } a % 7 6 . . ; 7 2 # [ } 8.9.a.9.9.f.9.9.a.9.9.9.9.a.9.9.9.9.9.9.9.a.9.9.a.",
"9.9.9.5.9.9.9.7.9.9.9.7.5.9.q.q.9.9.9.9.3.2.3.9.9...} ` _ _ _ W W W _ W `  ...7.9.3.3.9.3.9.9.9.a.9.9.9.9.9.9.a.9.a.9.9.9.9.9.9.",
"9.9.5.9.9.5.5.9.9.7.9.5.9.9.f.f.q.q.9.3.,.O.&.3.9.3.-.} } {  . . .} } } ....6.a.3.$.$.2.9.9.9.9.9.9.9.9.9.9.9.9.9.9.9.9.a.q.9.9.",
"7.7.9.9.9.9.7.9.9.5.9.9.5.9.f.f.f.f.3.3.&.O.$.3.a.9.4.6.4.6.4.6.4.6.6.4.6.6.9.q.3.$.$.2.2.3.9.9.a.9.9.9.9.9.9.9.9.9.9.9.9.9.a.9.",
"9.9.7.9.5.7.9.5.9.9.7.9.9.9.a.a.f.9.2.$.$.&.3.5.9.9.9.f.a.9.9.9.9.9.9.a.9.9.9.9.3.2.&.$.$.2.9.9.9.3.9.9.7.9.9.7.9.9.9.9.9.9.9.9.",
"5.5.9.5.9.9.9.9.5.9.9.5.5.9.9.3.9.3.$.E $.7.9.9.a.9.9.9.q.9.9.9.9.a.a.q.9.9.9.a.q.9.2.O.o.$.7.3.3.7.9.9.9.9.9.9.9.9.9.a.9.a.a.q.",
"9.9.7.9.9.9.5.9.5.9.5.9.9.9.3.9.9.9.2.;.2.a.9.q.a.9.a.9.a.9.9.f.9.a.9.9.a.a.9.9.a.9.9.2.$.2.9.7.3.7.9.9.9.9.9.7.9.7.9.9.9.9.9.9.",
"9.9.9.9.9.9.5.9.7.9.9.9.5.7.9.3.a.q.q.9.f.f.f.a.q.9.9.9.9.9.9.9.9.9.9.9.9.q.9.9.a.a.9.9.9.9.q.9.3.9.3.9.9.9.9.9.9.9.9.q.a.9.9.a.",
"9.9.9.7.9.5.9.9.9.5.9.5.9.5.3.9.9.f.9.9.f.f.f.9.9.9.9.9.9.f.9.9.f.9.9.9.f.9.9.9.9.9.7.9.9.9.f.9.9.9.9.9.9.9.9.9.9.9.9.9.9.a.9.a.",
"9.9.9.9.9.5.7.5.9.9.9.9.9.9.7.3.9.9.9.9.9.9.f.9.9.9.q.a.9.9.9.9.9.9.9.9.9.9.9.9.9.9.3.9.3.9.f.9.9.3.9.a.a.7.9.9.a.7.9.9.a.9.9.a.",
"f.9.9.9.9.7.7.3.2.3.q.a.8.9.9.7.9.a.9.9.9.9.9.9.9.9.a.9.9.9.9.9.9.9.9.9.9.9.f.9.9.4.3.3.9.9.a.9.9.7.9.p.9.a.7.3.7.9.9.9.9.a.a.a.",
"a.9.f.q.9.9.3.&.O.2.f.f.a.9.9.a.a.q.a.a.f.9.f.9.a.a.q.a.9.f.a.a.a.q.f.9.9.f.9.9.9.9.9.9.7.9.9.9.a.9.a.a.d.d.2.@.,.9.9.7.9.7.9.d.",
"f.f.a.f.9.9.7.@.o.1.8.p.8.p.a.a.a.9.q.q.f.9.q.9.q.a.9.f.9.q.9.q.a.a.a.q.a.9.f.9.9.9.9.9.9.9.9.3.8.a.a.p.f.8.;.o.,.9.9.9.7.7.p.f.",
"a.f.f.f.q.9.9.,.;.$.#.;.8.8.9.f.f.9.a.a.9.a.a.f.f.a.a.a.a.a.f.9.a.q.a.a.a.q.9.9.9.9.9.9.9.9.9.9.q.p.p.8.;.-.;.2.3.a.a.a.d.a.d.d.",
"a.f.a.f.f.a.9.9.9.$.T +.6.7.a.a.f.9.a.a.q.a.a.9.9.9.9.q.9.f.9.9.q.9.q.a.a.a.f.9.9.a.9.9.9.9.9.9.a.a.8.1.] ] 1.a.d.a.f.d.a.d.f.g.",
"a.9.q.f.a.9.9.9.9.2.$.1.4.9.a.q.a.a.q.q.a.a.a.q.9.f.f.9.f.9.9.f.a.f.9.a.q.a.9.9.9.9.9.9.9.9.9.3.9.5.8.4.1.<.4.f.a.a.a.a.a.d.d.d.",
"q.9.9.9.p.,.7.a.a.a.9.q.9.9.q.9.9.f.9.9.q.a.f.9.9.f.q.a.a.q.q.a.a.9.q.a.a.9.q.a.a.a.9.9.9.9.9.9.9.q.0.0.q.q.q.f.9.9.a.a.a.p.d.d.",
"3.9.3.9.a.a.7.7.a.7.9.9.5.9.q.9.9.f.9.f.a.a.9.9.9.a.a.a.a.a.a.a.9.f.a.a.9.f.a.9.q.9.9.9.9.9.9.9.9.q.q.0.q.q.q.f.9.a.a.a.a.p.a.7.",
"&.9.9.9.7.a.7.a.9.7.3.5.q.9.9.q.a.9.a.9.q.9.f.f.f.9.9.q.a.q.a.q.q.a.q.q.9.f.9.9.9.9.9.9.9.9.9.9.q.5.0.0.0.0.3.9.a.a.a.7.a.p.p.>.",
"%.7.9.9.7.7.a.7.7.9.5.5.0.q.q.9.q.a.9.9.a.a.9.9.q.a.a.f.a.a.a.q.a.a.a.a.9.9.f.9.9.a.9.9.9.9.9.9.9.q.q.0.0.q.9.a.a.7.a.a.a.p.>.=.",
"%.7.9.9.9.7.a.7.9.9.5.5.5.0.q.9.9.a.a.a.9.a.9.a.a.a.a.f.f.a.a.a.a.a.f.9.f.a.a.9.9.9.9.a.9.9.q.9.9.9.0.q.5.5.a.7.7.a.a.7.7.7.7.*.",
"=.7.7.9.9.9.a.a.9.5.0.0.0.0.q.9.9.a.9.a.a.a.a.f.a.f.a.a.a.a.f.9.9.q.9.a.9.q.9.f.a.9.9.q.9.9.9.9.9.q.5.q.9.9.a.d.d.a.a.9.9.7.,.*.",
":.7.a.9.9.9.9.9.9.5.0.0.0.0.q.9.9.a.9.a.a.a.9.a.a.f.f.a.a.f.a.q.f.9.q.a.a.a.q.a.q.a.9.a.9.9.9.9.9.q.9.9.7.a.a.p.p.p.a.7.7.a.p.X.",
"X.p.d.9.7.9.9.9.9.9.5.0.0.q.5.9.9.a.a.a.a.9.a.a.a.9.f.a.a.f.a.a.9.f.a.a.q.q.a.a.a.9.a.q.9.9.9.9.9.9.5.5.7.7.p.7.p.p.d.7.7.p.;.| "
};
