/* XPM */
static char *result[] = {
/* columns rows colors chars-per-pixel */
"64 64 147 2 ",
"   c #0F091C",
".  c #180F20",
"X  c #161226",
"o  c #281623",
"O  c #341A22",
"+  c #3B1D23",
"@  c #311D28",
"#  c #2F2129",
"$  c #372427",
"%  c #39222B",
"&  c #442226",
"*  c #4C2727",
"=  c #42262C",
"-  c #492629",
";  c #4D292C",
":  c #552827",
">  c #5C2D2A",
",  c #573B2F",
"<  c #442931",
"1  c #4B2E34",
"2  c #443133",
"3  c #4E3231",
"4  c #45353A",
"5  c #48383C",
"6  c #5F3331",
"7  c #623C2E",
"8  c #643632",
"9  c #663835",
"0  c #683C38",
"q  c #204F33",
"w  c #485535",
"e  c #66432F",
"r  c #6D413E",
"t  c #704B33",
"y  c #71513E",
"u  c #0A2D4E",
"i  c #153A57",
"p  c #223F41",
"a  c #493A44",
"s  c #154F49",
"d  c #1B654F",
"f  c #2F674F",
"g  c #2F7248",
"h  c #267C4D",
"j  c #286755",
"k  c #334863",
"l  c #465C40",
"z  c #404C5E",
"x  c #6F4542",
"c  c #704643",
"v  c #6E5144",
"b  c #745647",
"n  c #436C48",
"m  c #4D7246",
"M  c #825838",
"N  c #8E5F3B",
"B  c #95643D",
"V  c #98653E",
"C  c #9C693D",
"Z  c #9A6941",
"A  c #886650",
"S  c #80665A",
"D  c #8F6D58",
"F  c #98735A",
"G  c #A46F41",
"H  c #A77042",
"J  c #B47944",
"K  c #A47C5D",
"L  c #876D60",
"P  c #807D63",
"I  c #2B884E",
"U  c #2F904C",
"Y  c #2E8963",
"T  c #75825F",
"R  c #759470",
"E  c #D7883C",
"W  c #DD8B3C",
"Q  c #E38E3F",
"!  c #BF8147",
"~  c #BE864D",
"^  c #BE884F",
"/  c #898C76",
"(  c #889577",
")  c #B48863",
"_  c #BD8F67",
"`  c #C18347",
"'  c #C2844A",
"]  c #CE8C4C",
"[  c #DD8E41",
"{  c #D28F4F",
"}  c #D5914F",
"|  c #D8934F",
" . c #D38D53",
".. c #D99350",
"X. c #DD935A",
"o. c #E49143",
"O. c #E89646",
"+. c #E39448",
"@. c #EB954A",
"#. c #E6994E",
"$. c #ED9A4B",
"%. c #F0974D",
"&. c #F19D4E",
"*. c #E79450",
"=. c #EE9654",
"-. c #E49B53",
";. c #EB9E54",
":. c #E79659",
">. c #F19752",
",. c #F19E50",
"<. c #EDA14F",
"1. c #EEA254",
"2. c #F5A354",
"3. c #F9A656",
"4. c #F5AA57",
"5. c #F9AD56",
"6. c #F4A55A",
"7. c #FBA65A",
"8. c #F7A95C",
"9. c #FEAD5D",
"0. c #F9B056",
"q. c #FCB15B",
"w. c #D39762",
"e. c #CB9D71",
"r. c #D29F70",
"t. c #D7A77B",
"y. c #EBA466",
"u. c #E8A569",
"i. c #F6AA64",
"p. c #FEAD61",
"a. c #F4AC6B",
"s. c #FEAE69",
"d. c #FFB162",
"f. c #FCB26A",
"g. c #006BAC",
"h. c #008DCF",
"j. c #0090D3",
"k. c #B6AF88",
"l. c #C9A486",
"z. c #DFAE81",
"x. c #D2AC8A",
"c. c #DDB185",
"v. c #E4B68A",
"b. c #E5BC96",
"n. c #EBC39A",
"m. c #F3C69B",
"M. c #F6CA9F",
/* pixels */
"w.u.i.i.9.9.9.q.5.9.s.p.d.s.p.d.p.9.p.9.p.p.p.p.p.p.p.p.p.p.p.p.9.9.9.p.9.9.p.9.q.p.p.9.9.9.q.p.9.9.q.9.9.0.q.9.5.9.p.d.s.i.y.w.",
"u.a.i.p.p.9.9.9.9.d.p.d.s.s.p.p.p.p.p.p.7.p.p.p.p.9.p.7.9.p.7.p.9.9.9.9.9.9.9.9.9.9.9.9.9.p.9.9.9.9.9.9.9.9.9.q.9.q.q.9.9.s.i.y.",
"a.s.s.p.9.9.q.9.q.d.p.s.p.s.d.p.p.p.7.p.p.p.p.7.9.p.p.p.p.p.p.p.p.9.9.9.9.9.q.p.9.9.9.9.q.9.9.9.9.9.q.9.q.q.8.q.q.q.8.9.9.p.i.p.",
"f.s.p.p.p.9.p.q.q.p.d.p.p.p.p.p.p.p.p.p.p.p.p.p.p.p.p.p.9.p.p.p.9.9.p.9.9.9.p.9.p.9.9.9.p.9.p.9.5.9.q.5.9.q.d.p.q.p.p.9.7.9.9.p.",
"f.p.p.p.9.d.9.p.p.d.d.p.p.d.p.9.p.p.p.p.p.p.p.p.p.p.p.p.p.p.p.7.9.9.9.d.9.p.9.9.9.9.q.9.p.9.9.9.9.9.9.9.q.9.9.q.8.9.9.p.9.7.7.7.",
"d.d.d.9.9.9.7.9.9.9.9.p.p.p.p.p.p.p.p.9.p.7.p.p.p.7.7.p.p.p.p.9.9.9.9.9.p.q.9.9.7.3.7.9.9.9.9.9.9.9.7.9.5.9.9.9.d.p.p.9.p.7.7.9.",
"p.9.9.9.7.2.,.2.7.9.9.p.p.p.9.p.p.7.7.p.p.7.p.p.p.p.p.p.p.p.p.p.p.9.9.9.9.d.p.9.2.$.$.3.9.9.q.p.9.9.9.9.9.9.9.9.9.p.p.p.9.9.7.9.",
"9.9.9.9.3.$.@.&.3.7.9.p.9.9.p.p.p.p.p.9.p.p.7.p.p.p.9.p.7.p.p.9.p.q.9.9.9.9.9.9.2.o.W 2.9.9.p.9.9.9.9.9.9.p.9.9.q.9.9.p.p.p.9.9.",
"9.9.9.9.7.2.,.%.&.2.7.9.7.9.9.9.7.p.p.p.p.7.p.p.p.p.p.p.p.9.p.9.9.p.9.9.9.9.p.p.7.&.$.$.$.3.9.p.p.p.i.i.p.9.9.9.9.9.9.9.p.p.p.p.",
"9.9.9.p.9.9.7.$.Q &.7.7.7.7.9.9.p.9.7.p.p.p.9.p.9.p.9.p.p.p.p.p.9.9.9.9.9.9.9.q.9.9.2.o.W $.9.9.p.7.i.p.p.p.9.9.9.9.9.9.p.p.p.p.",
"9.9.q.9.9.p.7.2.&.,.9.9.9.7.9.p.p.p.i.9.9.7.p.9.p.9.p.9.9.9.p.9.9.9.q.p.p.9.9.9.9.p.3.&.$.2.d.9.p.p.i.i.p.p.p.9.9.9.9.9.9.p.p.7.",
"p.q.p.9.9.p.p.7.3.9.p.p.8.9.7.9.7.9.9.9.9.9.9.p.9.9.9.9.p.9.9.p.9.9.9.p.9.p.q.9.9.q.9.7.7.9.q.p.p.p.p.p.s.p.9.9.7.9.9.9.p.p.p.p.",
"p.d.d.8.p.9.9.9.9.p.d.d.i.9.9.9.p.9.9.9.9.9.9.9.9.9.9.9.9.9.9.q.p.9.9.9.9.9.9.d.d.9.p.9.9.d.d.9.p.p.p.i.p.p.9.7.9.9.9.p.p.p.9.9.",
"i.d.q.d.p.7.7.7.7.p.d.p.9.9.9.i.9.p.9.9.9.9.9.9.p.9.p.9.9.p.p.9.p.q.9.d.9.9.9.9.9.9.9.9.9.9.9.p.p.p.i.p.s.p.p.9.9.9.9.9.p.9.9.9.",
"d.i.i.9.7.7.7.7.7.p.p.d.i.9.9.9.p.9.7.3.7.7.9.p.9.9.9.9.p.9.9.p.9.p.9.9.p.9.9.p.9.9.q.9.9.9.9.p.p.p.p.s.p.p.3.3.5.9.d.9.9.9.9.7.",
"d.d.p.p.p.9.7.7.9.9.9.9.9.9.9.9.d.d.2.O.2.9.9.9.9.p.9.9.q.9.9.9.9.9.9.9.q.p.9.9.9.p.p.9.9.9.9.9.7.p.p.p.9.7.2.O.,.9.9.9.p.9.9.9.",
"8.d.p.7.p.p.7.p.7.p.p.9.9.9.9.9.9.d.1.Q $.9.9.9.9.9.p.9.9.9.9.9.9.d.9.9.9.9.p.q.9.p.9.9.d.9.9.p.p.7.p.9.9.6.@.W $.9.9.9.9.9.p.9.",
"9.p.9.p.p.7.7.p.p.9.9.9.9.9.7.3.1.#.$.<.3.9.q.9.9.q.9.9.9.d.9.9.9.9.9.p.9.9.p.9.9.9.9.p.9.9.9.9.9.p.9.7.,.$.$.$.3.9.d.9.q.p.9.9.",
"p.9.9.p.p.7.p.p.7.p.9.7.7.9.7.2.o.E $.9.d.d.p.9.9.9.9.9.9.9.9.p.9.9.9.9.9.p.9.9.9.q.p.q.9.9.9.9.9.9.9.2.o.W $.9.9.9.p.9.p.9.9.9.",
"9.i.9.7.7.p.7.p.p.9.9.9.9.9.9.7.<.$.4.9.9.9.9.9.9.9.9.9.9.9.9.q.9.9.9.p.q.9.9.p.9.p.9.9.9.9.p.q.9.9.p.7.$.$.3.9.9.9.9.9.9.p.q.9.",
"p.7.p.p.p.7.p.p.p.9.9.9.9.9.9.9.9.p.q.q.q.9.9.9.9.9.q.5.9.9.9.9.9.p.9.9.q.p.9.9.p.9.9.p.9.9.9.9.p.9.p.9.9.7.9.d.q.p.9.9.9.p.9.9.",
"p.p.7.7.p.p.p.7.9.i.9.9.9.9.9.p.d.p.q.9.9.9.9.9.9.5.9.9.9.9.9.q.p.q.9.9.p.9.9.9.9.9.9.9.9.p.9.p.9.p.q.p.p.q.q.d.p.q.p.9.9.9.p.q.",
"7.p.7.p.7.p.p.p.9.7.9.9.9.9.9.9.9.9.9.9.9.7.5.9.9.9.9.9.5.9.5.9.9.p.p.9.9.9.d.9.9.9.q.p.q.p.9.p.9.9.p.p.d.9.9.9.9.p.9.9.9.9.9.9.",
"9.7.9.p.p.p.p.7.9.9.9.9.9.9.9.9.9.7.9.9.5.5.9.5.9.9.5.q.9.9.9.9.p.q.9.9.9.9.9.9.9.p.9.9.9.9.9.9.q.p.q.p.p.d.d.9.9.9.9.d.9.9.9.p.",
"9.7.9.9.9.9.9.9.9.9.9.9.9.9.9.9.9.7.9.9.9.5.9.9.9.9.9.9.9.9.9.9.8.M M M M M M M M 7.9.p.9.9.9.9.9.9.9.p.d.p.p.q.9.9.9.p.9.9.9.9.",
"9.7.9.9.9.9.9.9.9.9.9.9.9.9.9.9.9.9.5.9.7.5.5.9.9.5.9.9.9.9.9.2.B + O = < < < < O Z 6.9.9.9.p.q.9.p.9.q.9.9.9.9.9.p.9.9.q.p.9.p.",
"9.9.9.9.9.9.9.9.9.7.9.9.9.9.9.9.9.7.9.9.9.5.9.9.9.q.5.9.q.9.2.C = 8 8 x c c c c 9 + C 6.p.9.9.9.q.p.p.9.9.9.9.9.9.p.9.9.9.9.9.9.",
"9.9.9.p.9.9.9.9.9.9.9.9.9.9.7.9.9.9.9.5.9.7.5.9.5.9.9.9.9.7.N < x x x x c c c c x 9 O H 9.9.9.p.p.9.9.9.9.9.p.9.9.q.p.9.9.9.d.9.",
"9.9.9.9.9.9.9.9.9.9.9.9.9.9.9.9.9.9.9.9.5.9.5.9.9.9.9.9.9.e 1 c c c c c c c c c c c % G 9.9.9.9.9.9.p.9.p.q.p.9.9.9.q.9.9.d.9.9.",
"9.9.9.9.9.9.9.7.9.9.9.9.9.9.9.9.9.9.9.5.9.7.9.9.9.9.9.q.5.e 1 c c c c c c c c c c c 6 * B p.9.9.9.9.p.q.9.9.9.9.9.p.p.9.9.9.9.9.",
"9.9.9.9.9.9.9.9.9.9.9.9.9.9.9.9.9.9.9.9.5.5.9.5.5.9.9.9.9.e 3 c r 8 c c 0 ; o @ 8 r 9 + t q.9.p.9.9.9.9.9.9.p.q.9.9.9.9.9.p.9.9.",
"9.9.p.9.9.9.9.9.9.9.7.9.8.9.9.7.9.9.7.9.9.9.9.9.9.9.5.9.9.e = 9 8 > c 0 - 3 b v + % ; + t p.p.q.9.p.9.9.p.9.9.9.9.p.p.9.9.q.9.p.",
"9.9.9.9.9.9.9.9.7.9.9.9.9.9.9.9.7.9.9.9.9.9.9.9.5.9.9.9.9.e + > : & 0 - 3 D z.t.v X o 7 ` q.9.9.p.9.9.d.9.p.9.q.p.9.9.p.9.9.d.9.",
"q.9.9.9.9.9.9.7.9.9.9.9.9.7.5.9.9.9.5.9.5.7.5.9.9.9.9.5.9.e = > & % * $ F v.M.m.c.% $ ` 9.9.9.p.9.9.9.9.9.9.9.9.9.p.9.9.9.9.9.9.",
"p.9.9.9.9.9.9.9.9.9.5.9.9.9.9.9.9.5.7.9.9.9.9.5.9.9.9.9.9.e 1 < 2 _ . K v.M.M.M.M.5 { 9.9.9.9.q.9.d.9.9.p.9.9.9.9.9.p.p.9.9.9.9.",
"9.9.9.7.9.9.9.9.9.9.9.7.9.5.5.9.9.9.5.9.9.5.9.5.9.q.9.9.9.e 1 < 2 r.) v.S L M.b.4 . { p.9.9.p.9.9.9.9.9.q.p.9.9.9.9.9.q.9.d.9.9.",
"9.9.9.9.9.9.9.9.9.9.9.5.5.9.9.9.5.5.7.9.9.5.9.9.9.9.9.9.q.e o , K r.r.b.l.l.M.n.F # { q.9.p.9.p.9.9.9.9.q.p.9.p.p.q.9.9.9.p.9.q.",
"9.9.9.9.9.7.9.9.5.9.9.7.9.9.5.7.9.9.5.9.9.7.9.9.5.9.9.5.' w q m / P v.m.k.( / / e.A V 1.9.9.9.q.9.9.9.9.9.p.9.p.9.9.p.9.9.9.9.p.",
"9.9.9.9.9.9.9.9.7.5.9.5.9.5.9.9.9.9.9.9.9.5.9.5.9.7.-.| i I U I h f n.M.R d s p _ t.x G 9.9.9.9.p.p.9.p.9.9.p.q.9.9.9.9.9.9.9.9.",
"9.9.9.9.9.9.9.9.9.9.9.9.7.9.5.9.5.9.7.5.9.5.9.9.9.J X u h.Y g j d f l.x.T n l , K ) y ' p.q.9.9.9.q.9.9.9.9.9.9.9.p.p.p.q.9.9.p.",
"9.9.9.9.9.9.9.9.9.9.9.9.5.7.9.9.9.9.5.9.9.5.9.9.C O z j.g.a > k i       V } ;.8.#   ] 9.9.9.9.9.9.p.9.9.9.p.9.9.9.9.9.9.9.9.9.9.",
"9.7.9.9.5.7.9.9.9.7.5.9.9.9.9.q.9.9.9.9.3.3.7.5.-.! ' ^ ~ ` ` ~ ) ^ ! ~ ] ..1.p.8.2.3.9.9.9.9.9.9.9.9.9.9.9.9.p.p.9.9.9.p.9.9.p.",
"9.7.9.9.9.9.9.9.9.5.9.9.9.q.d.d.q.d.9.3.,.$.&.7.9.1.| | | | | | } } | | ..;.9.9.7.$.$.2.7.9.9.9.p.9.9.9.9.9.9.9.9.9.9.9.9.p.9.q.",
"9.9.5.9.5.9.7.5.9.9.5.7.5.9.d.d.d.q.7.2.&.o.$.3.9.9.6.8.8.6.6.6.6.4.4.4.6.9.9.9.3.$.$.,.3.7.9.q.9.9.9.9.9.9.9.7.9.9.9.9.9.9.9.p.",
"9.5.7.5.9.7.9.9.9.9.5.5.9.7.9.9.9.q.2.#.$.&.3.5.9.9.9.9.p.q.9.p.d.9.9.p.9.9.p.9.7.3.<.$.$.2.9.7.7.9.9.9.9.9.7.9.9.9.9.9.9.d.9.9.",
"9.9.9.9.9.5.5.9.5.9.9.9.9.0.9.9.9.7.$.o.$.3.9.9.p.9.9.d.9.9.9.9.9.p.9.9.q.9.q.9.9.9.3.o.o.$.7.7.7.7.7.9.9.9.9.9.9.9.9.p.9.9.9.9.",
"5.9.5.9.9.9.9.9.7.9.9.5.9.5.9.7.9.9.2.$.3.9.9.9.9.9.p.9.p.9.9.9.9.9.p.9.p.9.9.p.9.9.7.2.$.8.9.7.3.7.9.9.9.9.7.9.9.9.9.9.9.p.9.9.",
"9.7.9.9.9.7.9.5.9.5.9.9.9.7.7.7.9.d.p.9.q.d.d.d.9.p.q.9.9.9.9.p.9.9.q.p.9.p.9.9.9.9.d.9.7.q.9.9.9.3.9.9.9.9.9.9.9.7.9.9.9.q.9.p.",
"9.9.9.9.9.5.5.9.5.9.9.9.9.9.3.3.9.d.9.9.d.d.d.q.p.9.p.9.9.9.9.q.9.9.q.p.q.9.9.9.q.9.9.9.7.9.d.9.5.7.9.9.9.9.9.p.9.9.9.9.9.p.9.9.",
"9.9.9.9.9.9.7.9.9.9.9.9.9.9.5.8.9.p.9.9.9.9.9.9.9.9.9.9.9.9.9.p.9.9.p.9.p.9.p.9.9.7.3.3.9.9.d.9.7.9.9.9.9.9.9.7.9.7.9.9.9.p.p.p.",
"q.p.9.9.9.7.3.2.2.3.q.9.9.8.7.9.9.q.9.9.9.9.9.9.9.9.9.9.9.9.9.9.p.9.9.9.9.9.p.9.9.7.3.8.7.9.q.p.9.9.8.p.s.p.7.2.7.9.9.p.p.7.p.p.",
"s.d.p.q.9.5.3.&.O.2.d.d.9.9.9.9.9.p.p.p.p.d.9.d.9.d.9.d.d.9.d.9.p.q.p.p.q.p.9.9.9.9.9.9.9.9.9.9.9.9.i.d.d.s.,.O.,.9.9.7.9.9.9.s.",
"d.d.d.d.9.9.7.&.o.1.8.i.8.9.p.p.d.9.9.q.p.q.9.p.d.9.p.q.p.p.d.9.p.9.d.9.9.d.9.9.9.9.9.9.9.9.9.7.p.i.d.i.d.i.;.o.,.9.9.9.7.9.i.s.",
"p.p.d.d.9.9.7.2.$.$.#.1.6.i.p.d.p.p.d.9.p.9.d.p.d.9.p.q.p.q.9.d.d.9.p.q.9.d.q.p.9.9.9.9.9.9.9.9.9.9.i.6.<.#.;.2.7.p.p.9.s.p.p.s.",
"p.p.d.d.d.p.9.9.9.#.E +.1.9.9.p.p.q.p.p.p.q.9.q.9.9.q.p.p.9.q.9.9.d.p.9.9.9.q.9.9.9.9.9.9.9.9.9.9.8.8.1.[ [ 1.p.p.p.d.s.p.s.d.s.",
"9.d.9.q.9.9.9.p.9.3.$.1.8.8.9.d.p.p.q.q.p.p.d.9.9.d.p.p.9.d.p.p.q.9.9.d.d.p.p.p.9.9.9.9.9.9.7.9.8.9.q.4.1.1.4.d.p.p.p.p.p.s.s.s.",
"9.9.9.9.7.p.,.p.p.9.9.q.9.9.q.9.q.p.p.p.q.p.d.9.9.9.9.d.d.9.9.9.p.p.p.9.d.d.9.9.9.p.9.9.9.9.9.9.9.q.0.q.q.q.q.d.p.p.7.p.p.s.s.s.",
"2.9.9.9.7.p.p.p.p.9.9.9.5.9.q.9.p.9.q.p.9.p.9.9.d.d.9.9.9.9.d.d.q.p.p.q.9.9.d.9.p.q.9.9.9.9.9.9.q.q.0.0.q.q.q.9.p.9.p.p.p.p.p.6.",
"&.5.9.7.p.7.7.7.7.9.3.5.q.9.9.q.9.d.9.p.d.9.q.d.9.q.d.9.q.p.9.9.p.p.p.p.p.q.9.9.9.9.9.9.9.9.9.9.9.q.0.0.0.0.9.9.9.p.7.p.p.i.7.=.",
"%.7.9.7.7.p.p.7.7.7.5.5.0.q.9.q.9.9.p.9.9.p.p.p.p.p.9.d.p.p.d.9.p.q.q.p.p.9.d.9.9.p.9.9.9.9.9.7.9.9.q.0.0.0.7.p.p.p.p.p.7.i.7.=.",
">.7.9.9.9.7.p.7.7.9.5.5.0.0.9.q.9.p.p.p.p.p.p.q.p.d.9.p.9.p.d.d.q.p.p.p.p.p.q.p.9.p.q.9.9.9.q.9.9.0.q.0.9.4.9.p.i.p.p.p.p.p.>.=.",
">.7.9.9.9.p.p.p.9.5.0.0.0.0.q.9.9.p.p.9.p.p.p.p.d.p.p.d.d.p.p.9.p.p.q.p.q.p.q.p.9.9.p.9.9.9.9.9.q.9.0.9.9.9.p.p.i.7.p.p.7.7.,.*.",
":.p.9.9.9.7.9.9.9.q.0.0.0.0.9.9.9.p.p.p.9.p.p.p.p.p.p.d.d.p.p.d.p.q.9.q.p.q.p.p.d.9.9.p.9.9.9.9.9.0.9.9.7.p.p.i.i.i.p.7.7.i.i.X.",
"X.i.s.7.9.9.p.9.9.5.5.0.0.0.9.q.9.9.p.9.p.p.p.9.d.d.p.p.p.9.d.p.p.p.d.9.p.9.d.9.9.9.p.q.9.9.9.9.9.9.9.5.7.p.7.i.i.7.p.7.7.p.;. ."
};
