/* XPM */
static char *result[] = {
/* columns rows colors chars-per-pixel */
"64 64 152 2 ",
"   c #0E091E",
".  c #140B1D",
"X  c #1A0D1E",
"o  c #1E111F",
"O  c #28131F",
"+  c #1C1221",
"@  c #2A1C27",
"#  c #351A22",
"$  c #3B1E25",
"%  c #112C35",
"&  c #392326",
"*  c #38262C",
"=  c #3D262E",
"-  c #4A2325",
";  c #492427",
":  c #432927",
">  c #41252A",
",  c #482F28",
"<  c #542827",
"1  c #562D2D",
"2  c #5C2D29",
"3  c #53372A",
"4  c #5A3B2D",
"5  c #572F30",
"6  c #453132",
"7  c #4A3635",
"8  c #423238",
"9  c #513236",
"0  c #583931",
"q  c #573638",
"w  c #5A3A38",
"e  c #5C3C3A",
"r  c #60302C",
"t  c #663936",
"y  c #683B37",
"u  c #653F3E",
"i  c #6A3F3C",
"p  c #1E4730",
"a  c #2A643B",
"s  c #5D402E",
"d  c #5B423C",
"f  c #475736",
"g  c #66422F",
"h  c #694330",
"j  c #6E4934",
"k  c #6C413E",
"l  c #7B5236",
"z  c #7F5438",
"x  c #0E3961",
"c  c #18574B",
"v  c #195E4E",
"b  c #1C6A4F",
"n  c #1E6B54",
"m  c #2A7F49",
"M  c #13476F",
"N  c #044B7E",
"B  c #2F4967",
"V  c #166460",
"C  c #146E6E",
"Z  c #147C7D",
"A  c #5D4844",
"S  c #6F4441",
"D  c #704643",
"F  c #6C5044",
"G  c #715446",
"H  c #7D5D4B",
"J  c #6F5852",
"K  c #516857",
"L  c #536859",
"P  c #5D7466",
"I  c #96653C",
"U  c #835D42",
"Y  c #876B57",
"T  c #926E54",
"R  c #94735E",
"E  c #B07645",
"W  c #B57A45",
"Q  c #B87C46",
"!  c #BB7F48",
"~  c #2D894A",
"^  c #648669",
"/  c #D7883C",
"(  c #DD8B3C",
")  c #E38E3F",
"_  c #BF8146",
"`  c #BE854B",
"'  c #A78563",
"]  c #AB8465",
"[  c #B78A64",
"{  c #92A07B",
"}  c #C3844A",
"|  c #DD8E41",
" . c #D28E4E",
".. c #D6914F",
"X. c #D8934F",
"o. c #D38D53",
"O. c #D99350",
"+. c #DD935A",
"@. c #E49143",
"#. c #E89646",
"$. c #E39448",
"%. c #EB954A",
"&. c #E6994E",
"*. c #ED9A4B",
"=. c #F0974D",
"-. c #F19D4E",
";. c #E29651",
":. c #EE9654",
">. c #E19853",
",. c #ED9E53",
"<. c #E79659",
"1. c #EB9F58",
"2. c #F19752",
"3. c #F19E50",
"4. c #EDA14F",
"5. c #EEA252",
"6. c #EDA35F",
"7. c #F5A354",
"8. c #F9A656",
"9. c #F5AA57",
"0. c #F9AD56",
"q. c #F3A55A",
"w. c #FBA65A",
"e. c #F7AA5C",
"r. c #FEAD5D",
"t. c #F9B056",
"y. c #FCB15B",
"u. c #CE9C6E",
"i. c #D29966",
"p. c #D29F70",
"a. c #D6A375",
"s. c #D9A87A",
"d. c #EBA466",
"f. c #E8A569",
"g. c #F6AA64",
"h. c #FEAD61",
"j. c #F4AC6B",
"k. c #FEAE69",
"l. c #FFB162",
"z. c #FCB26A",
"x. c #065E98",
"c. c #0869A4",
"v. c #0783BE",
"b. c #638E8A",
"n. c #A6B0A9",
"m. c #CCAB84",
"M. c #CAB48F",
"N. c #E6B78A",
"B. c #E9BB8E",
"V. c #EBBD90",
"C. c #F2C69A",
"Z. c #F6CA9F",
/* pixels */
"i.d.g.g.r.r.r.t.r.r.l.k.k.k.l.h.h.w.h.h.h.h.w.h.h.h.h.h.h.h.h.h.r.r.r.h.r.r.l.r.h.r.y.r.r.h.y.h.r.r.y.r.y.r.y.r.r.y.y.l.k.g.d.i.",
"f.j.g.h.h.r.r.r.y.y.h.k.k.h.l.h.h.h.h.h.r.h.h.h.h.h.h.r.h.h.w.h.h.r.r.r.r.r.r.r.r.r.h.r.r.r.r.r.r.r.r.r.r.r.r.t.t.r.r.r.h.h.g.d.",
"j.k.k.r.r.r.y.r.y.h.l.l.h.k.h.h.h.h.h.r.h.w.h.h.h.h.h.h.w.h.h.r.r.r.r.r.r.r.r.r.r.r.r.r.r.r.r.r.r.r.y.r.r.y.y.e.y.e.y.r.w.h.h.g.",
"z.k.h.h.h.r.h.y.h.l.h.h.h.h.h.h.r.h.h.h.h.h.h.h.h.h.h.w.h.h.h.h.r.r.h.r.r.l.r.r.r.r.r.r.r.l.r.r.0.r.y.0.y.r.y.l.r.l.h.r.h.r.r.h.",
"z.k.h.h.r.l.r.h.l.l.h.l.h.h.h.r.h.h.h.h.h.h.h.h.h.h.h.h.h.w.h.r.h.y.r.r.r.h.r.y.r.r.r.r.h.h.r.r.r.r.r.0.r.r.e.y.l.h.h.r.r.w.r.r.",
"l.r.l.r.r.r.w.r.r.r.r.h.l.h.h.h.w.h.h.h.w.h.h.h.h.r.r.h.h.h.h.r.r.r.h.r.r.r.r.h.r.8.8.r.r.y.r.r.r.r.r.r.r.r.r.r.e.w.h.h.w.w.w.w.",
"h.r.r.r.w.7.-.8.r.r.r.h.h.r.h.r.h.h.h.h.h.h.h.w.h.h.h.h.h.h.h.h.r.r.r.r.r.r.r.r.7.*.*.8.r.r.h.r.r.r.r.r.r.r.r.r.y.h.r.h.h.r.r.r.",
"r.r.r.r.8.*.%.-.8.w.r.h.r.h.h.h.h.w.h.w.h.r.h.r.h.w.h.h.h.h.w.h.r.h.h.h.y.r.r.h.7.| @.3.r.r.y.h.r.r.r.r.r.r.r.r.r.h.r.h.h.h.w.r.",
"r.r.r.r.w.3.3.-.%.7.r.r.w.r.r.r.h.w.h.w.h.h.h.h.h.h.h.h.r.h.h.r.r.y.h.h.r.r.r.h.8.3.*.*.*.8.r.r.h.w.h.g.h.h.r.r.r.r.r.r.h.h.h.h.",
"r.r.y.r.h.r.w.%.) -.w.w.w.w.r.r.h.h.h.h.h.w.r.h.h.r.h.h.h.h.h.h.r.r.r.r.r.l.r.r.y.r.7.@.( *.r.r.h.g.g.h.h.h.r.r.r.r.r.r.h.h.h.h.",
"r.r.r.r.r.h.r.3.=.7.r.r.w.w.w.h.h.w.r.r.h.r.r.h.r.r.h.r.r.h.h.r.h.y.r.r.r.r.r.r.r.r.w.*.*.7.h.r.h.h.g.g.h.h.r.r.r.r.r.r.h.h.h.h.",
"h.y.l.r.r.h.h.w.w.r.r.r.w.r.w.h.h.h.w.r.r.r.w.h.r.r.r.r.r.r.r.r.r.r.h.r.r.r.r.l.r.r.r.r.8.r.l.h.h.h.h.g.g.h.r.r.r.0.r.r.h.h.h.w.",
"g.g.l.y.r.h.r.r.r.h.l.h.h.h.e.h.r.h.r.r.r.r.r.r.r.r.r.r.r.r.r.r.r.r.r.h.r.r.r.r.h.y.y.h.r.h.r.l.h.h.h.h.k.h.r.r.r.r.r.h.w.h.r.r.",
"l.l.h.h.h.w.w.w.w.r.l.l.h.e.h.r.h.r.r.r.r.r.r.r.h.r.r.h.h.y.r.h.r.h.r.r.h.y.r.l.r.h.h.r.r.r.h.h.h.h.g.g.h.h.r.r.r.r.r.r.h.h.r.r.",
"h.l.g.y.w.w.w.w.w.h.l.h.e.h.r.h.e.h.r.9.w.r.r.r.r.r.r.r.h.r.r.h.r.y.h.r.r.r.r.r.r.r.r.r.r.r.r.h.h.h.h.k.h.h.8.8.w.y.r.h.r.r.r.r.",
"h.l.h.e.h.r.w.w.r.h.l.r.h.y.r.e.l.h.7.#.7.w.h.r.r.h.r.r.r.r.r.r.r.r.h.r.r.h.r.r.r.h.r.r.r.r.r.y.w.h.h.h.r.r.3.#.3.r.r.h.r.r.r.r.",
"h.h.h.h.h.h.w.h.w.h.h.r.r.w.w.r.e.l.5.@.*.r.r.r.y.r.h.r.r.r.y.h.l.r.r.r.r.r.h.r.r.r.r.r.h.y.r.r.h.r.h.w.r.7.%.( *.r.l.r.r.r.r.r.",
"h.h.e.h.r.w.w.h.h.h.r.r.r.r.r.9.5.*.*.7.8.e.r.r.r.r.r.r.r.h.r.r.r.r.r.r.r.h.y.r.r.r.h.h.r.h.r.r.r.h.r.w.,.*.*.*.8.r.r.r.r.r.h.y.",
"h.h.w.h.h.w.h.h.h.w.r.r.r.w.r.8.#.( *.e.h.l.h.r.r.r.r.y.y.h.r.r.r.r.l.r.r.h.r.r.h.r.r.y.r.r.r.r.r.r.h.7.#.( *.r.w.r.l.r.r.r.r.r.",
"e.h.h.w.w.h.h.w.r.r.r.h.r.r.w.w.*.*.q.y.y.r.y.r.r.r.r.r.r.r.r.r.r.r.r.r.r.r.r.h.h.y.r.r.h.r.l.r.h.r.r.w.*.*.8.r.l.r.r.r.r.r.r.h.",
"h.h.w.h.h.w.h.h.r.r.r.w.r.r.r.r.h.e.r.y.h.r.r.r.r.r.r.r.0.r.r.r.r.r.r.h.r.r.r.r.r.h.r.r.r.h.r.r.r.h.h.r.r.w.r.l.l.r.r.h.l.r.r.r.",
"w.w.h.h.h.h.h.w.h.h.r.r.r.r.r.h.l.l.y.r.y.r.r.r.r.0.r.0.r.r.r.q.q.q.q.q.q.q.q.e.r.r.r.r.r.h.r.r.h.y.h.h.h.y.y.l.r.r.r.h.r.r.h.r.",
"h.w.h.w.r.h.h.h.r.w.r.r.r.r.r.r.r.r.r.r.r.0.0.r.r.r.r.r.r.r.8.o . . . . . . .  .r.r.y.h.r.y.r.r.r.r.h.y.l.l.r.r.r.r.r.y.h.r.r.y.",
"w.r.w.h.r.h.h.w.r.r.r.r.r.r.r.r.r.r.r.0.r.w.0.r.r.r.0.r.r.5.: < < w e k u u 1 : } r.h.r.r.h.r.r.r.r.l.r.y.h.h.r.l.r.r.r.r.r.r.h.",
"h.w.r.r.r.r.r.r.r.w.h.r.r.r.r.r.r.w.r.w.0.r.w.r.r.r.r.r.;.h q i i S D D D D i 1 4 ! r.r.r.r.h.r.r.r.r.h.l.h.h.y.r.r.h.r.y.r.r.h.",
"r.r.r.r.r.r.r.r.r.r.r.r.r.w.r.r.r.r.r.0.r.0.0.r.r.0.r.&.U 9 D D D D D S D D D i > l r.r.r.h.h.y.r.h.r.y.r.r.r.r.r.r.r.r.h.r.r.r.",
"r.r.r.r.r.r.r.r.r.r.r.r.r.r.r.r.r.r.r.r.r.0.0.r.r.0.r.I = D D D D D D S D D D D 9 g >.h.r.h.r.r.y.h.r.h.r.r.h.r.r.l.r.r.r.h.r.r.",
"r.r.r.r.r.r.r.w.r.r.w.r.r.r.r.r.r.r.r.0.w.r.r.r.r.r.r.I > D D i S D S i e e i S y ; & e.r.r.r.r.r.r.r.r.r.r.r.r.r.r.r.r.r.r.h.y.",
"r.r.r.r.r.r.r.r.r.r.r.r.r.r.r.r.r.r.r.0.r.r.0.r.r.r.r.I = k k r i D t ; . . ; y y - & r.y.h.r.r.h.r.r.h.h.y.h.r.h.y.h.r.r.r.y.h.",
"r.r.r.r.r.r.r.r.r.r.r.w.r.r.r.r.r.r.r.r.r.0.r.r.r.0.r.I $ r r 2 i t $ 7 [ [ = X # - & 0.h.r.r.h.r.r.h.y.r.r.r.r.r.r.r.r.r.h.r.r.",
"r.h.r.r.r.r.r.r.w.r.r.r.e.r.r.r.r.r.r.0.r.0.r.0.y.r.r.I # 2 < O 1 $ e ] V.V.] 6 X h 5.r.r.r.r.r.r.r.r.r.r.r.r.r.r.h.r.r.y.r.r.h.",
"r.r.r.r.r.r.r.r.r.r.r.r.r.r.r.r.r.r.w.w.w.r.r.r.r.r.0.I & 1 & G > u F R Z.Z.Y * j +.h.h.r.r.h.y.r.h.r.r.r.r.l.r.r.r.h.r.h.r.r.r.",
"r.r.r.r.r.r.w.r.r.r.r.r.r.r.r.r.r.r.r.r.0.r.0.r.r.r.r.I = 9 @ u.F ] Y A Z.Z.=   E r.y.r.r.h.h.r.y.r.r.h.h.r.y.r.r.h.h.r.y.r.r.h.",
"r.r.r.r.r.r.r.r.r.r.r.r.w.r.r.r.r.0.r.0.r.w.r.r.r.0.r.Q 0 7 6 u.p.B.R J Z.Z.A + E h.h.r.r.r.r.r.h.r.r.r.r.r.h.r.r.r.r.r.h.r.r.r.",
"r.r.r.r.r.r.r.r.r.w.r.0.0.r.0.r.r.w.r.w.r.0.r.r.r.0.r.r.} 7 u.a.p.B.Z.Z.Z.Z.m.d E r.r.r.r.h.h.r.r.r.r.r.r.r.h.y.r.h.r.r.r.h.r.r.",
"r.r.r.r.w.r.r.r.r.r.r.0.w.r.r.r.r.0.r.0.r.r.0.r.r.r.r.W f a 8 u.p.a.N.Z.C.s.e + E r.r.h.r.y.r.r.r.r.l.r.h.r.r.r.r.y.h.r.r.r.h.y.",
"r.r.r.r.r.r.w.r.r.r.0.r.r.w.0.0.r.r.w.r.0.r.r.r.r.0.Q f m ~ a K M.N.m.^ P L Y T U } h.h.r.h.h.y.r.r.h.r.r.h.h.r.h.y.h.r.r.r.y.h.",
"y.r.r.r.r.r.r.r.r.w.0.r.r.0.r.r.0.r.r.0.r.w.0.r.r.r.4 a ~ ~ m v M.C.{ b c % ' p.H z r.y.r.r.r.r.y.h.y.r.r.r.r.r.r.r.r.r.r.h.r.r.",
"r.r.r.r.r.r.r.r.r.r.r.r.r.r.r.r.r.0.r.0.r.r.0.r.0.r.s p n C C Z b.n.b.V p s H T U } r.r.r.r.r.r.h.r.r.r.r.y.h.r.r.h.r.r.y.r.r.h.",
"r.r.r.r.r.r.r.r.r.r.0.w.0.r.w.r.r.w.r.r.0.r.r.r.r.r.3 X x c.x.v.v.c.x.M 3 ..g , } r.r.r.l.r.r.r.r.r.r.h.r.h.r.r.r.r.h.r.h.r.r.r.",
"r.r.r.r.r.r.r.r.r.0.r.0.r.r.r.r.0.r.r.0.r.r.w.r.w.X < 2 B N     w 5 $ 4 ......e.h.r.r.r.r.r.r.r.h.r.r.r.r.h.r.r.r.r.r.r.r.r.r.r.",
"r.r.0.r.r.r.r.w.r.r.r.w.0.r.y.y.r.r.r.r.8.8.w.0.e._ _ _ ` ` _ _  .} } } O.O.O.w.r.w.w.w.r.r.r.r.r.r.r.r.r.r.r.h.h.r.r.r.h.r.r.h.",
"r.r.r.r.r.r.r.w.r.r.r.0.r.r.y.l.y.y.r.8.3.*.-.8.r.w.>.O.X...X.X.O.O.X.X...O.e.h.8.*.4.8.w.r.r.r.h.r.r.r.r.r.r.r.r.r.r.r.r.h.y.h.",
"w.w.0.r.0.r.r.0.0.w.r.r.r.r.l.l.l.l.w.8.*.#.*.8.h.r.w.e.e.9.q.q.q.q.q.q.9.q.r.r.8.*.*.-.7.w.r.r.r.r.r.r.r.r.r.w.r.r.r.r.r.r.r.r.",
"r.r.r.0.r.r.w.r.r.r.w.r.r.r.r.h.y.e.7.*.*.-.7.0.h.r.r.y.r.r.h.r.y.h.r.y.h.r.r.r.w.8.*.*.*.7.r.8.r.w.r.r.r.r.w.r.r.r.r.r.r.h.r.h.",
"0.0.r.w.0.r.r.0.0.r.r.0.r.0.r.0.r.w.*.@.*.w.r.r.r.r.r.r.y.r.r.r.r.r.h.r.r.r.r.r.r.r.8.#.@.*.r.8.8.w.w.r.r.r.r.r.r.r.r.h.r.y.r.r.",
"r.r.r.r.r.0.r.0.0.r.0.r.r.r.w.w.r.r.8.*.8.r.y.r.h.r.r.r.h.r.h.r.r.r.r.r.h.r.r.h.r.r.w.7.*.8.r.r.8.w.r.r.r.r.w.r.r.r.r.r.r.h.r.r.",
"r.r.r.r.r.w.r.r.w.r.r.r.0.w.r.w.r.l.r.e.l.l.l.l.y.r.h.r.r.h.y.r.r.l.r.r.r.r.y.h.r.r.l.r.0.h.l.e.w.r.0.r.r.r.r.r.r.w.r.r.r.y.r.h.",
"r.r.r.r.0.r.w.r.0.r.r.r.r.r.8.w.r.l.r.r.l.l.l.r.r.r.r.h.r.r.r.h.y.h.r.r.r.l.r.r.r.r.r.r.r.r.l.r.w.w.e.y.r.r.r.r.r.r.r.r.r.r.h.r.",
"r.r.r.r.r.r.0.r.w.r.y.e.r.r.0.w.r.r.r.r.r.r.l.r.r.r.r.r.r.l.r.r.h.r.r.r.r.r.r.r.e.w.8.8.w.r.l.r.r.r.r.h.h.r.r.w.h.w.r.h.r.h.h.h.",
"y.r.r.r.r.0.w.8.8.8.y.r.e.r.w.r.r.h.r.r.r.r.r.r.r.r.y.h.r.r.r.r.r.r.r.r.r.r.r.r.r.r.8.r.w.r.h.r.0.r.h.h.k.r.w.8.w.r.r.r.r.h.r.h.",
"k.h.r.r.r.w.8.-.#.7.l.l.r.h.e.r.h.y.h.h.l.r.l.r.r.l.r.h.r.r.l.h.y.h.l.r.r.l.l.r.r.r.r.r.e.r.r.r.h.r.g.h.l.k.3.%.3.r.w.r.r.w.r.k.",
"l.l.l.y.h.r.8.*.@.5.e.g.e.r.r.h.r.h.y.y.l.r.y.r.l.r.y.h.h.h.y.h.h.h.h.r.r.l.r.r.r.r.r.r.r.r.r.0.h.g.g.e.k.e.,.@.3.r.r.r.w.g.r.k.",
"l.h.l.l.r.r.w.8.*.,.#.5.e.g.h.h.l.r.h.h.r.h.h.l.h.y.r.l.h.y.r.l.h.y.r.l.l.r.r.r.r.r.r.r.r.r.r.r.r.r.g.e.5.*.,.7.8.h.h.h.k.h.h.k.",
"h.h.l.l.l.h.r.r.w.*./ $.q.r.h.l.l.r.h.h.y.h.r.r.h.r.y.r.h.h.y.r.l.r.l.r.h.h.y.r.r.r.r.r.r.w.r.r.r.l.e.5.X.( 5.h.h.k.l.k.k.l.k.k.",
"r.r.l.r.r.r.r.h.h.q.#.7.e.e.h.r.h.h.y.y.h.h.l.r.r.l.h.h.y.h.h.h.r.r.l.r.y.h.h.r.r.r.r.r.r.r.r.r.w.e.t.e.4.4.e.h.h.r.h.h.h.h.k.k.",
"r.r.r.r.h.3.h.h.h.r.y.r.r.r.y.r.y.h.h.h.r.l.l.r.y.r.r.l.l.r.y.r.r.l.r.l.r.r.r.r.r.h.r.r.r.r.r.w.y.t.y.y.y.y.y.l.h.r.h.h.h.k.k.k.",
"8.r.r.r.h.h.w.h.h.e.r.r.0.r.r.y.h.r.y.h.y.r.r.r.h.l.r.r.r.h.h.l.y.r.l.r.r.l.l.r.r.r.r.r.r.r.r.r.r.y.t.t.y.y.l.r.r.h.h.h.h.h.h.q.",
"-.8.r.w.h.w.h.3.r.w.8.0.t.r.y.r.r.l.r.h.h.r.y.l.h.r.l.r.y.h.h.r.h.l.r.h.r.l.r.r.y.h.r.r.r.r.r.r.r.t.t.t.t.t.0.h.h.h.h.w.h.k.w.:.",
"%.r.r.w.w.h.w.w.w.r.0.0.t.y.r.y.r.r.h.r.h.h.h.h.h.l.r.l.h.h.h.y.h.r.y.h.r.r.l.r.r.h.r.r.r.r.r.r.r.y.y.t.t.t.w.h.h.w.h.h.h.h.:.:.",
"=.w.r.r.w.h.h.h.r.0.0.t.t.y.r.y.r.h.h.r.h.h.h.y.h.y.h.h.y.h.h.h.h.h.h.y.l.h.h.r.r.r.r.r.r.r.r.y.r.y.y.0.e.r.r.h.g.h.h.w.w.w.1.2.",
"2.w.r.r.r.h.h.w.r.r.t.t.t.t.t.r.r.h.h.h.h.h.h.h.l.h.l.h.h.h.l.h.r.y.h.h.r.y.r.l.l.r.r.r.r.r.r.r.y.r.t.r.r.w.h.h.g.h.h.h.w.h.3.:.",
"<.h.h.w.r.r.r.r.r.r.t.t.t.t.r.y.r.h.h.h.r.h.h.h.h.h.h.h.h.l.l.h.l.r.y.h.y.r.y.h.r.r.r.r.r.r.r.r.r.0.r.y.h.w.w.g.w.g.h.w.w.w.6.<.",
"+.g.k.r.r.w.r.r.r.0.0.t.t.t.r.r.r.r.h.r.h.h.h.r.l.l.h.l.h.l.h.h.h.y.h.h.h.l.r.h.l.r.h.h.y.r.r.r.r.r.r.0.w.h.h.g.g.h.h.w.w.g.6.o."
};
