/* XPM */
static char *result[] = {
/* columns rows colors chars-per-pixel */
"64 64 134 2 ",
"   c #0E071B",
".  c #0F081B",
"X  c #11091C",
"o  c #1B0E1E",
"O  c #1F101F",
"+  c #1E1121",
"@  c #221423",
"#  c #2A1520",
"$  c #341A23",
"%  c #3A1C23",
"&  c #1A362B",
"*  c #11363D",
"=  c #2E2029",
"-  c #3D2825",
";  c #34242B",
":  c #39232D",
">  c #3F292E",
",  c #392B34",
"<  c #472224",
"1  c #4F2526",
"2  c #40292F",
"3  c #492E28",
"4  c #522726",
"5  c #522A29",
"6  c #5D2D29",
"7  c #51332A",
"8  c #4E3936",
"9  c #573536",
"0  c #5B3736",
"q  c #523C39",
"w  c #61322E",
"e  c #643532",
"r  c #623D3D",
"t  c #6A3E3B",
"y  c #184A3D",
"u  c #5F463E",
"i  c #6B442F",
"p  c #64423D",
"a  c #6C413E",
"s  c #754E33",
"d  c #0D3650",
"f  c #09365A",
"g  c #4E3D40",
"h  c #1A5F4C",
"j  c #1E6F50",
"k  c #1E7050",
"l  c #704643",
"z  c #67524E",
"x  c #765848",
"c  c #5D664A",
"v  c #865A39",
"b  c #876550",
"n  c #886956",
"m  c #81685C",
"M  c #A26C40",
"N  c #A57040",
"B  c #AB7443",
"V  c #B07947",
"C  c #BB7F49",
"Z  c #937767",
"A  c #31934C",
"S  c #33984B",
"D  c #D7883C",
"F  c #DD8B3C",
"G  c #E38E3F",
"H  c #BE8147",
"J  c #BF854B",
"K  c #988567",
"L  c #968B65",
"P  c #AF8361",
"I  c #A3816A",
"U  c #AA8A74",
"Y  c #B08F77",
"T  c #B49279",
"R  c #C18347",
"E  c #C18549",
"W  c #CC8A4C",
"Q  c #D38945",
"!  c #DD8E41",
"~  c #D7924F",
"^  c #D8934F",
"/  c #D38D53",
"(  c #DB9451",
")  c #DD935A",
"_  c #E49143",
"`  c #E89646",
"'  c #E39448",
"]  c #EB954A",
"[  c #E6994E",
"{  c #ED9A4C",
"}  c #F0974D",
"|  c #F19D4E",
" . c #E59651",
".. c #EE9654",
"X. c #E49A54",
"o. c #EC9E53",
"O. c #E79659",
"+. c #F19752",
"@. c #F19E50",
"#. c #EDA14F",
"$. c #EEA252",
"%. c #F5A354",
"&. c #F9A656",
"*. c #F5AA57",
"=. c #F9AD56",
"-. c #F4A65A",
";. c #FBA65A",
":. c #F7A95C",
">. c #FEAD5D",
",. c #F9B056",
"<. c #FCB15B",
"1. c #D59661",
"2. c #D19863",
"3. c #D09E6F",
"4. c #D29F70",
"5. c #EBA466",
"6. c #E4A469",
"7. c #EBA568",
"8. c #F6AA64",
"9. c #FEAD61",
"0. c #F4AC6B",
"q. c #FEAE69",
"w. c #FFB162",
"e. c #FCB26A",
"r. c #0B7397",
"t. c #29688C",
"y. c #0B92B7",
"u. c #0086C9",
"i. c #0095D9",
"p. c #C29E81",
"a. c #C4A082",
"s. c #D2AB8A",
"d. c #E9BF98",
"f. c #F6CA9F",
/* pixels */
"2.7.8.8.9.>.>.>.>.<.9.e.q.q.9.w.9.9.9.>.9.9.;.9.9.9.9.9.9.9.9.9.>.>.>.9.>.>.>.w.<.9.>.>.9.>.<.9.>.>.<.>.<.>.<.>.>.<.<.w.9.8.7.1.",
"6.0.8.9.>.>.>.=.<.>.w.9.9.9.e.9.9.9.9.9.;.9.9.9.9.9.9.>.9.9.;.9.>.>.>.>.>.>.>.>.9.>.>.>.>.>.>.>.>.>.>.>.<.:.>.<.<.>.>.>.9.q.8.5.",
"0.q.q.>.9.>.>.<.<.9.w.9.q.9.9.9.9.9.9.>.9.9.9.9.9.9.9.9.9.9.9.>.9.>.>.>.9.<.>.>.>.>.>.>.<.>.9.>.>.>.<.>.<.>.:.<.:.w.>.>.>.9.8.8.",
"e.q.9.9.>.w.>.>.9.w.w.9.9.9.9.9.;.9.9.9.9.9.9.>.9.9.9.;.;.9.9.9.>.>.>.9.>.9.>.>.>.9.>.>.9.>.>.>.>.>.<.=.>.<.<.9.<.<.>.>.;.>.>.9.",
"e.9.w.9.>.9.>.9.w.9.<.9.9.9.w.9.9.9.9.9.9.9.9.9.9.>.9.9.9.9.9.>.>.>.>.>.>.9.>.>.>.>.<.>.>.9.>.>.=.>.>.=.>.>.>.<.w.>.>.>.9.;.;.>.",
"w.w.9.>.>.>.;.>.>.9.9.9.9.9.9.9.9.9.>.9.;.9.>.9.9.9.;.9.9.9.9.>.>.>.9.>.>.>.<.>.;.&.;.>.>.>.>.>.>.>.>.>.>.>.>.>.:.9.9.9.>.;.;.>.",
"9.>.>.9.;.%.@.&.>.>.9.9.>.9.9.9.9.;.;.9.9.9.9.9.9.9.9.9.>.9.;.9.w.>.<.9.>.>.9.>.%.{ { &.>.>.<.9.>.>.>.>.>.>.>.>.<.9.>.9.9.;.;.>.",
">.>.>.>.&.{ ` @.&.;.>.>.9.9.9.>.9.9.9.9.9.;.;.9.;.9.9.9.9.9.9.9.>.>.>.9.>.>.>.9.%._ F %.>.>.9.>.>.>.>.>.>.>.>.>.>.9.9.>.9.9.>.>.",
">.>.>.>.;.%.@.} { %.;.>.>.>.>.>.;.9.9.;.9.9.9.9.9.>.9.>.9.9.9.9.>.>.w.>.>.>.w.>.;.{ { { { &.>.>.9.9.8.9.9.9.>.>.>.>.>.>.9.9.9.9.",
">.>.>.>.>.>.;.{ G } >.;.&.;.;.>.9.9.>.9.>.9.>.9.9.9.9.9.>.9.>.>.>.>.>.>.>.>.>.>.>.>.%._ F { >.9.@.8.8.8.9.9.>.>.>.>.>.>.9.9.9.9.",
">.>.<.9.>.9.>.@.} %.>.>.;.;.>.9.;.9.9.;.>.9.>.9.>.>.9.9.>.9.9.9.9.<.>.>.9.>.>.9.>.>.;.| { %.w.>.q.9.9.8.9.9.>.>.>.>.>.>.9.9.9.9.",
"9.<.9.>.>.9.9.;.;.>.>.>.9.;.9.;.9.>.9.>.;.>.>.>.9.>.>.>.>.>.>.>.>.>.9.>.>.>.>.<.w.<.>.:.;.>.<.9.9.9.8.9.8.9.>.>.>.=.>.>.9.9.9.;.",
"9.w.w.:.>.>.;.9.>.9.w.w.>.>.9.>.9.;.9.>.>.>.>.>.>.>.9.>.>.9.<.>.>.>.>.9.>.>.>.9.>.>.9.>.<.9.9.9.9.9.9.9.9.9.9.>.>.>.>.9.;.9.>.>.",
"8.w.w.w.9.>.;.;.;.9.w.<.9.:.>.9.>.9.>.>.>.>.>.>.>.>.>.>.>.>.9.>.>.9.>.>.9.<.9.<.>.>.>.>.>.>.<.9.9.q.9.q.9.9.9.>.>.>.>.>.9.9.>.>.",
"8.w.8.>.;.;.;.;.;.9.w.8.>.w.:.9.>.>.;.&.;.>.>.>.>.>.>.>.>.>.<.>.>.<.9.>.>.>.>.9.>.>.>.>.>.>.>.9.9.9.9.q.9.9.;.&.=.>.>.9.>.>.>.>.",
"w.w.:.>.>.9.;.;.>.>.9.9.>.:.>.>.w.w.-.` %.;.>.>.9.>.>.9.9.>.9.>.>.>.9.>.>.9.>.>.w.>.>.>.>.9.>.>.;.9.9.;.9.>.| ` | >.>.9.>.>.>.>.",
"w.>.9.9.;.9.9.>.;.9.9.;.9.>.>.>.<.9.$._ { ;.>.>.>.>.>.>.>.9.9.>.9.>.<.>.>.>.9.>.9.<.>.>.>.>.9.<.9.9.>.>.>.-.` G { >.>.>.>.9.>.>.",
"9.9.9.9.9.;.;.9.9.>.>.>.>.>.:.&.%.[ { #.&.>.<.>.>.>.<.>.>.>.>.>.>.>.9.>.<.>.>.>.>.>.9.>.9.>.>.9.>.>.>.;.@.{ { { %.>.w.>.>.>.>.<.",
"9.9.9.;.9.;.9.>.9.9.>.>.>.>.;.%._ D { >.>.w.9.>.>.>.>.>.>.<.9.>.>.>.>.9.9.9.9.>.>.>.9.>.>.>.>.>.>.>.>.%._ F { >.>.9.9.>.>.9.9.>.",
">.;.;.9.9.9.;.9.;.>.>.>.;.>.>.;.#.{ *.>.<.w.>.>.>.>.<.>.>.>.>.>.9.>.>.>.>.>.<.>.9.>.>.9.<.>.>.>.>.>.9.;.{ { &.<.>.>.>.>.>.>.>.>.",
"9.9.;.9.;.;.9.9.>.>.>.9.>.>.>.>.>.>.>.<.9.>.>.>.>.=.>.>.>.>.>.>.<.>.>.>.9.>.>.9.>.>.w.>.>.>.w.>.9.>.9.>.>.;.9.w.<.>.>.>.<.>.9.>.",
"9.;.9.;.9.9.;.9.9.9.>.;.>.>.>.w.9.w.<.>.>.>.>.<.>.<.>.>.<.=.>.>.9.>.>.9.>.9.>.>.>.>.>.>.>.>.>.>.>.9.<.9.9.<.9.<.9.9.>.9.9.>.>.>.",
";.;.9.9.>.9.9.9.>.;.>.>.>.>.>.>.>.>.>.>.>.>.=.>.>.>.>.>.>.>.>.>.>.9.>.>.>.<.9.>.>.9.>.>.>.9.<.>.>.>.9.9.w.>.>.>.9.>.>.<.>.>.>.>.",
"9.>.;.>.9.9.;.9.>.>.>.>.>.>.>.>.>.;.;.>.=.=.=.>.>.=.>.>.=.>.>.>.>.>.9.<.>.>.>.>.>.<.9.>.>.>.9.9.<.9.<.9.9.w.w.>.>.>.9.>.>.>.>.w.",
">.;.>.>.9.>.>.>.>.>.>.>.>.;.>.9.>.:.>.>.;.=.>.>.=.>.>.>.>.>.=.<.>.>.>.<.9.>.>.>.>.>.9.<.9.>.>.>.<.>.>.9.9.<.>.>.>.<.>.>.9.>.>.9.",
";.>.>.>.>.>.>.>.;.>.>.>.>.>.<.>.>.>.>.>.>.=.=.>.>.>.>.=.>.>.>.>.9.>.>.>.>.9.9.>.>.>.>.>.9.>.>.>.9.>.>.>.>.9.>.>.9.9.>.9.>.>.9.<.",
">.>.>.>.>.>.>.>.>.>.>.;.>.>.:.>.>.>.=.>.=.>.>.>.>.>.>.>.>.=.<.>.>.-.( ( ( ( ( ( ( X.>.>.>.>.>.>.>.>.<.9.9.>.<.9.>.>.>.<.>.9.>.>.",
">.>.>.>.>.>.>.;.>.>.>.>.>.>.>.>.>.>.=.>.>.>.=.>.>.>.=.>.>.>.>.>.>.M O O @ @ @ @ @ 7 -.>.>.>.w.>.>.9.9.>.>.>.9.>.>.>.9.>.>.>.>.>.",
">.>.>.>.>.>.>.>.>.>.>.>.>.>.>.>.>.>.>.=.>.=.;.>.=.>.>.>.=.>.>.>.v % w w l l l l t 4 X &.9.<.>.>.>.9.>.<.>.>.>.>.>.>.9.<.<.>.9.>.",
">.>.>.>.>.>.>.>.9.;.;.>.>.>.>.>.>.>.>.>.>.;.=.>.>.>.>.>.>.>.>.s 9 a a l l l l l l a 4 3 o.>.9.>.>.>.>.9.w.>.>.>.>.>.9.>.9.>.>.>.",
">.>.>.>.>.>.>.>.>.>.>.>.>.>.>.>.>.>.>.=.>.>.>.>.>.>.>.=.>.=.v 9 p l l l l l l l l a t o X.9.9.>.>.>.>.>.>.>.>.>.>.9.>.>.>.>.>.9.",
">.9.>.>.>.>.>.>.>.>.>.>.>.>.;.>.>.>.;.>.>.=.=.>.=.>.>.>.<.&.X r l l l l l l l l l l l < b o.>.9.<.>.9.>.>.9.>.9.<.>.>.9.>.>.9.<.",
">.>.>.>.>.>.>.;.;.>.>.>.>.>.>.>.>.>.>.>.>.>.>.=.=.>.>.>.>.&.X r l a a l l t 9 9 9 t l w # C >.>.>.<.9.>.>.>.>.<.9.>.>.>.>.<.9.>.",
">.>.>.>.>.>.>.>.>.=.>.>.>.>.;.=.>.>.=.>.=.=.>.>.>.<.>.>.>.-.X r a e e l a 5 > , , 1 r 6 # C >.9.>.9.>.>.>.>.9.>.>.>.>.>.9.>.>.>.",
">.>.>.>.>.>.>.>.>.>.>.>.>.=.>.>.=.;.=.;.;.>.>.>.>.>.>.=.>.&.X 4 6 6 e a 6 o U f.U .   1 # C 9.>.9.<.>.9.w.>.>.>.9.>.>.9.<.9.9.>.",
">.>.>.;.>.>.>.>.>.>.;.=.>.>.=.>.>.>.>.>.=.>.=.>.=.>.>.>.>.-.X 4 6 % $ 5 o T d.f.d.Y . o W >.>.>.>.>.>.>.>.>.>.9.>.>.<.9.9.>.>.>.",
">.>.>.>.>.>.>.>.>.>.=.;.>.>.=.>.>.>.=.;.;.>.=.>.>.>.>.<.>.*.X 0 - p a 2 U z p.f.p.g . W >.9.>.>.9.>.>.>.>.<.>.>.>.>.>.>.>.>.9.>.",
">.>.>.>.;.>.>.>.>.>.>.>.=.>.>.;.=.>.>.>.>.=.>.>.>.>.[ R E N . : + x P b f.Z s.f.a.u . B *.>.>.>.>.>.9.>.>.9.9.<.>.9.>.>.>.>.>.>.",
">.>.>.>.>.>.>.>.>.;.=.>.=.>.>.>.;.>.=.>.>.>.>.>.>.o.i * f d & & & c L K Y f.f.s.I n 8 8 C :.>.9.>.<.9.>.9.>.>.>.>.<.<.9.>.>.<.9.",
">.>.>.>.>.>.>.>.>.>.=.>.>.>.=.>.=.>.=.>.=.>.>.>.>.% < t.i.y.S S A A h d X s.f.x . $ 3.4.q C >.>.>.9.>.>.>.>.9.>.9.9.9.>.>.9.>.>.",
">.>.;.>.>.>.>.>.>.>.>.>.>.=.>.>.>.>.=.>.>.>.=.>.>.- < t.u.r.S k j j y   X s.f.m . = 3.4.q J >.>.9.>.>.>.9.>.>.>.>.>.>.>.>.>.>.>.",
">.>.>.>.>.>.>.>.>.>.=.;.>.>.>.<.>.>.>.>.&.%.&.>.<.W R E J J J J H J J C H 8 , V -.X.; ; W ;.>.>.>.>.>.>.>.>.>.9.>.>.>.9.>.9.9.>.",
";.>.=.=.>.>.=.;.>.=.>.>.>.>.>.w.>.w.>.=.| { } =.>.;.X.( ( ^ ^ ^ ^ ^ / ~ ^ B W ;.=.{ Q ~ *.>.>.>.>.>.>.>.>.>.>.>.>.>.>.>.9.9.>.>.",
">.>.>.>.>.=.>.>.>.;.=.=.=.>.w.w.w.<.;.%.} _ { &.9.<.;.-.:.-.-.-.-.-.-.-.-.-.9.>.&.{ { { %.;.>.>.>.9.>.>.>.>.>.>.>.>.>.>.>.<.>.>.",
"=.>.>.>.=.>.>.=.>.=.;.>.>.>.>.<.<.<.-.` { | %.>.>.<.9.>.9.>.<.>.w.>.>.9.<.9.>.>.;.%.{ { { %.>.;.>.;.>.>.>.>.>.>.>.>.>.<.>.>.9.>.",
">.>.=.;.;.>.>.>.>.=.>.>.=.>.>.:.>.:.{ G { =.>.>.>.>.9.>.>.>.9.>.>.>.>.>.>.>.9.>.>.>.&.` _ { ;.&.&.;.;.>.;.>.>.;.>.>.>.9.>.>.<.>.",
";.>.>.=.>.=.=.>.>.>.>.=.>.>.;.;.>.>.-.{ &.>.>.>.9.>.9.<.>.>.9.>.>.w.>.>.>.>.>.9.>.>.>.%.{ -.>.>.=.:.>.>.>.>.9.;.>.;.>.>.>.>.9.>.",
">.>.>.>.>.>.>.;.=.;.>.>.>.=.;.>.>.9.9.>.>.w.w.w.>.>.>.>.9.>.>.>.>.>.>.>.>.9.>.<.>.>.>.>.;.<.9.>.>.;.;.>.>.>.>.>.>.>.>.>.>.>.9.>.",
">.>.>.>.=.;.>.>.=.;.>.>.:.>.=.;.>.w.>.>.w.w.w.<.9.>.9.>.>.9.<.>.>.9.<.>.9.>.>.>.>.>.>.>.>.>.w.>.=.>.>.>.>.>.>.;.9.>.>.>.>.9.>.>.",
">.>.>.>.>.>.=.>.>.>.>.>.<.>.;.;.>.9.>.>.>.>.>.>.>.>.>.>.>.>.9.>.>.>.9.>.>.>.>.9.>.;.&.&.;.>.9.>.;.>.;.>.9.>.>.>.;.>.>.>.>.9.9.9.",
"9.>.>.>.>.=.=.&.%.&.>.>.>.>.;.:.>.<.>.>.>.>.>.>.>.>.>.9.>.>.>.>.>.>.>.>.<.9.<.9.;.:.=.;.>.:.<.9.>.>.9.9.9.8.;.%.;.>.>.9.9.9.9.9.",
"w.9.>.>.>.>.;.} ` %.w.w.9.>.>.<.>.9.9.9.9.w.>.w.w.9.9.<.>.w.>.w.>.w.>.w.>.9.>.>.>.>.>.>.>.>.>.>.>.;.8.9.w.q.%.` @.>.>.;.>.;.9.9.",
"w.w.w.w.>.>.&.{ _ $.:.8.:.;.w.9.w.>.>.<.9.<.>.9.>.<.<.9.9.<.>.>.9.9.<.9.>.>.w.>.>.>.>.>.>.>.>.>.9.9.>.8.w.8.o._ @.>.9.9.;.9.8.9.",
"9.w.w.w.<.>.;.&.o.{ [ o.-.8.9.w.9.9.w.>.9.>.w.9.9.9.9.9.9.9.w.>.<.9.<.9.w.>.>.>.>.>.>.>.>.>.:.>.9.:.8.:.#.[ o.%.;.9.9.9.9.9.9.q.",
"9.9.w.w.9.9.>.>.>.{ D ' -.:.>.9.9.<.9.9.9.<.>.<.<.<.9.<.>.<.9.w.9.<.9.9.w.>.9.>.9.<.>.>.;.>.>.>.>.:.8.$.! ! $.w.9.9.9.9.9.e.e.e.",
"9.>.<.9.9.>.>.>.;.%.{ $.*.>.>.w.9.9.<.<.9.9.w.>.9.9.9.9.w.>.9.>.9.>.w.>.9.9.<.>.>.>.>.>.>.>.>.>.>.:.<.*.$.$.-.w.9.9.9.9.q.9.q.q.",
">.<.>.>.;.q.;.9.9.9.>.:.<.>.>.>.<.9.9.>.<.9.w.>.<.9.9.9.<.9.9.9.9.<.9.9.>.w.>.>.9.>.>.>.>.>.;.>.>.<.<.,.<.<.w.w.9.9.9.9.q.q.q.q.",
"&.:.;.>.>.@.9.;.9.>.>.>.=.<.>.<.9.>.>.w.9.9.>.>.9.9.<.<.9.9.<.<.9.9.<.>.w.>.<.>.>.>.>.>.>.>.>.>.:.<.,.<.<.<.<.<.>.9.9.9.;.q.q.@.",
"| >.>.>.;.;.@.q.;.>.=.=.<.>.<.9.>.w.>.>.<.>.w.w.9.>.9.9.9.>.>.9.<.<.9.w.9.>.9.9.9.>.>.>.>.>.>.>.<.<.,.,.,.,.:.>.9.;.9.;.9.q.9.+.",
"} ;.;.>.>.9.9.;.;.>.&.=.,.<.>.<.>.>.9.9.9.9.>.>.9.w.<.9.9.w.w.>.9.9.9.>.<.w.>.>.<.>.9.>.>.>.>.>.>.<.<.,.,.,.;.9.9.9.9.9.;.q.+.] ",
"} ;.>.>.>.>.9.9.>.>.=.,.,.,.>.<.>.9.9.>.9.9.9.<.9.<.9.9.9.<.9.9.w.>.>.>.9.9.9.<.>.>.>.>.>.>.>.>.>.<.<.<.:.<.>.9.9.;.9.9.;.9.-...",
"..;.>.>.9.;.9.;.>.=.,.,.,.,.,.>.>.9.9.9.9.9.9.9.w.9.w.9.9.w.9.w.>.>.w.w.9.<.9.9.w.>.>.>.>.>.>.<.=.>.=.=.>.>.9.9.8.9.9.;.>.;.@. .",
"O.8.>.>.>.>.>.>.>.>.,.,.,.,.>.<.>.9.9.9.>.9.9.9.9.9.9.9.>.9.9.9.<.9.w.>.>.9.>.w.>.>.9.>.>.>.>.>.>.=.>.<.;.;.;.8.8.8.9.;.;.;.o.O.",
") 9.q.;.>.;.>.>.>.=.=.,.,.,.>.>.>.>.9.>.9.9.9.>.w.w.9.w.w.9.w.w.>.9.>.>.w.9.<.>.w.>.>.>.9.<.>.>.>.>.>.=.;.9.9.8.8.8.9.;.>.8.5./ "
};
