/* XPM */
static char *result[] = {
/* columns rows colors chars-per-pixel */
"64 64 170 2 ",
"   c #0F0F26",
".  c #0F1027",
"X  c #101027",
"o  c #13142A",
"O  c #141B2D",
"+  c #161D31",
"@  c #1A1C33",
"#  c #1E1F39",
"$  c #172030",
"%  c #1A2634",
"&  c #1B2837",
"*  c #1D2339",
"=  c #1D2B3C",
"-  c #23253E",
";  c #222C3D",
":  c #2B303A",
">  c #333335",
",  c #3B3635",
"<  c #4C362E",
"1  c #473D33",
"2  c #4B3F3E",
"3  c #543E36",
"4  c #4E4034",
"5  c #4C423C",
"6  c #514134",
"7  c #5E4936",
"8  c #52433D",
"9  c #5B463E",
"0  c #624C39",
"q  c #68513D",
"w  c #735538",
"e  c #7B5A3A",
"r  c #1F2E40",
"t  c #222E41",
"y  c #2A2D46",
"u  c #2D2F49",
"i  c #223245",
"p  c #293346",
"a  c #25364B",
"s  c #2D324A",
"d  c #27394E",
"f  c #2A3A4D",
"g  c #3D3E44",
"h  c #33364F",
"j  c #313A4E",
"k  c #293C51",
"l  c #333653",
"z  c #353A53",
"x  c #393D57",
"c  c #393D59",
"v  c #2B4057",
"b  c #2E435C",
"n  c #314257",
"m  c #31455C",
"M  c #3C435C",
"N  c #34485F",
"B  c #304760",
"V  c #3F4362",
"C  c #334A65",
"Z  c #394C63",
"A  c #354E6A",
"S  c #36506E",
"D  c #3B526C",
"F  c #3B5471",
"G  c #444344",
"H  c #4E4642",
"J  c #4F4843",
"K  c #584C42",
"L  c #524848",
"P  c #40445E",
"I  c #4F4E5F",
"U  c #524E5D",
"Y  c #5B5257",
"T  c #5A5158",
"R  c #624E47",
"E  c #645140",
"W  c #64534E",
"Q  c #6D594E",
"!  c #725840",
"~  c #7E5F41",
"^  c #735B4D",
"/  c #645553",
"(  c #6A5751",
")  c #424661",
"_  c #464B65",
"`  c #484D66",
"'  c #464B6A",
"]  c #494E69",
"[  c #43536D",
"{  c #4C526E",
"}  c #4E5473",
"|  c #425A74",
" . c #495F77",
".. c #435E7B",
"X. c #495F78",
"o. c #505674",
"O. c #525876",
"+. c #505678",
"@. c #555B7A",
"#. c #585E7E",
"$. c #4B6077",
"%. c #46617E",
"&. c #4C637A",
"*. c #845F3B",
"=. c #93673E",
"-. c #96693E",
";. c #AD6C3F",
":. c #8C6541",
">. c #83634A",
",. c #8A6649",
"<. c #8F6848",
"1. c #966C43",
"2. c #9B6E44",
"3. c #926A48",
"4. c #AE6F41",
"5. c #AE7843",
"6. c #A57448",
"7. c #A97748",
"8. c #B57442",
"9. c #B47C45",
"0. c #BD7F47",
"q. c #B57E48",
"w. c #B87F4B",
"e. c #BF8247",
"r. c #BD8249",
"t. c #C1854A",
"y. c #C6884B",
"u. c #CE8D4E",
"i. c #D18D4E",
"p. c #D5914F",
"a. c #D79250",
"s. c #DD9753",
"d. c #DF9853",
"f. c #EB8B4C",
"g. c #E3924F",
"h. c #EC904F",
"j. c #F0904E",
"k. c #E39B54",
"l. c #EA9E56",
"z. c #F29450",
"x. c #F69C54",
"c. c #EEA157",
"v. c #F3A559",
"b. c #FBA559",
"n. c #F7A85A",
"m. c #FFAD5D",
"M. c #585F81",
"N. c #476381",
"B. c #4D6682",
"V. c #4D6886",
"C. c #4E6B89",
"Z. c #5D6385",
"A. c #546C86",
"S. c #5F668A",
"D. c #536E8B",
"F. c #5D748E",
"G. c #577493",
"H. c #587695",
"J. c #5C7999",
"K. c #60678A",
"L. c #62698D",
"P. c #656D91",
"I. c #686F95",
"U. c #697196",
"Y. c #6B7399",
"T. c #647E99",
"R. c #65809E",
"E. c #6C849E",
"W. c #6C86A0",
"Q. c #718AA3",
/* pixels */
"h.b.m.m.m.m.m.m.m.m.m.m.m.m.m.m.m.m.m.m.m.m.m.m.m.m.m.m.m.m.m.m.m.m.m.m.m.m.m.m.m.m.m.m.m.m.m.m.m.m.m.m.m.m.m.m.m.m.m.m.m.m.b.f.",
"x.m.m.m.m.m.m.m.m.m.m.m.m.m.m.m.m.m.m.m.m.m.m.m.m.m.m.m.m.m.m.m.m.m.m.m.m.m.m.m.m.m.m.m.m.m.m.m.m.m.m.m.m.m.m.m.m.m.m.m.m.m.n.x.",
"m.m.m.m.m.m.m.m.m.m.m.m.m.m.m.m.m.m.m.m.m.m.m.m.m.m.m.m.m.m.m.m.m.m.m.m.m.m.m.m.m.m.m.m.m.m.m.m.m.m.m.m.m.m.m.m.m.m.m.m.m.m.m.m.",
"m.m.m.m.m.m.m.m.m.m.m.m.m.m.m.m.m.m.m.m.m.m.m.m.m.m.m.m.m.m.m.m.m.m.m.m.m.m.m.m.m.m.m.m.m.m.m.m.m.m.m.m.m.m.m.m.m.m.m.m.m.m.m.m.",
"m.m.m.m.m.m.m.m.m.m.m.m.m.m.m.m.m.m.m.m.m.m.m.m.m.m.m.m.m.m.m.m.m.m.m.m.m.m.m.m.m.m.m.m.m.m.m.m.m.m.m.m.m.m.m.m.m.m.m.m.m.m.m.m.",
"m.m.m.m.m.b.b.b.m.m.m.m.m.m.m.m.m.m.m.m.m.m.m.m.m.m.m.m.m.m.m.m.m.m.m.m.m.m.m.m.m.n.b.n.m.m.m.m.m.m.m.n.m.m.m.m.m.m.m.m.m.m.m.m.",
"p.q.q.9.9.4.4.8.q.q.q.q.q.r.r.q.y.c.m.m.m.m.m.m.m.m.m.m.m.m.m.m.m.m.m.m.m.m.m.m.b.z.z.n.m.n.s.r.r.r.r.r.r.r.r.9.r.r.r.7.r.r.y.l.",
"1.J L L 5 5 2 H J J J J J J J J ! y.m.m.m.m.m.m.m.m.m.m.m.m.m.m.m.m.m.m.m.m.m.m.x.f.f.v.n.c.-.5 5 J J J J J n 5 J G J J J 5 w y.",
"~ a k B B B C C B C B B B B m k g *.e.r.r.r.r.r.r.t.t.r.t.t.t.r.r.r.r.r.r.r.y.r.r.r.5.5.9.5.q : v N B B B B B B N N B B b v J r.",
"~ k S B.V.V.B.N.V.V.V.V.V.V.| m v 5 0 K K K K K K K K K K K K K W K K E J J K K K K 8 7 5 5 n v S B.V.V.V.V.V.V.V.V.V.V.F m J 5.",
"~ k | J.J.J.J.J.J.J.H.J.J.J.V.B v v b b C B B B N m m m m m b b B B B B B B B B B B B B B B k d | J.J.J.J.J.J.J.J.J.J.J.V.C J r.",
"~ a F J.J.J.J.J.J.J.J.J.J.J.V.Z v | N.%.&.V.%.&.N.B.N.B.N.B.V.N.%.C.&.%.N.N.%.N.&.&.%.&.%.%.C k F J.J.J.J.J.J.J.J.J.H.J.V.B J 5.",
"~ a | J.J.J.J.J.J.J.J.J.J.J.B.B b V.R.G.J.J.J.J.J.J.J.J.J.J.J.J.R.R.R.R.C.R.R.G.R.R.R.G.R.C.F k | J.J.J.J.J.J.J.J.J.J.J.B.N J 9.",
"~ k F J.J.J.J.J.H.J.J.J.J.J.V.B b V.G.R.J.J.H.J.J.J.J.J.J.J.H.J.G.R.C.R.G.G.G.G.G.R.C.R.R.G.S d | J.J.J.J.J.J.H.J.J.J.J.V.C J 9.",
"~ d | J.J.J.J.J.J.J.J.J.J.T.A.C m &.J.R.J.R.R.J.J.R.J.R.J.J.T.J.R.R.R.R.R.R.R.R.R.R.R.R.G.G.S k | J.J.J.J.J.J.R.J.J.J.R.V.N J q.",
"~ d X.W.W.W.W.W.W.W.W.W.W.W.D.Z B C.R.W.R.R.W.E.R.W.E.R.W.W.W.W.R.R.R.R.R.R.R.R.R.R.R.R.R.R.F k $.W.W.W.W.W.E.W.E.R.W.E.D.C J q.",
"~ a  .E.W.W.W.W.Q.E.Q.E.E.Q.F.N N A.Q.E.Q.E.Q.Q.E.W.Q.E.W.W.W.W.Q.E.Q.W.Q.E.Q.E.Q.E.Q.Q.E.E.| d $.E.Q.Q.E.Q.E.E.Q.Q.W.Q.F.N L r.",
"e t Z V.A.B.&.A.B.B.B.A.&.A.| k f [ B.B.&.A.A.&.A.&.B.A.A.&.B.B.A.A.&.B.B.&.A.B.&.B.B.&.&.&.m r C B.A.&.B.B.A.B.A.&.B.B.[ f 5 9.",
"e % d C C C C C C C C A C C v r ; v N C B C C C C C C C Z C C C B C C C C C C C C C C C C C a % d C C C C A C C C C C C b r 1 5.",
"e & a C C A C C A C C C C C b i & i a a a a a a a a a a a a a a a a a a a a a a d d a a a a = % d C C C C C A C C C C A v = 1 9.",
"e % d C A C C C C C C C A C v r % % % % % % % % % % % % % % % % % % % % % % % $ % % % % % % % & d C C C C C C C C C C C b = 5 9.",
"e % r d f d d k d d d d d d i = % O @ ; f M M p O O O O O - u x M l % O O O O % p j n M y O $ % i d d d d d d d k d d a i = 1 9.",
"e % % & % % % % & & & & & & % % O O + h ] M.S.x X X   X   ; P O.P.' * . X X X @ z { Z.Z.l . O % % % & & & & & & & & % & % % 1 9.",
"5.w 1 % r d d a i a i i = & % O O X O h { Z.P.c       X X - P @.P.{ -         @ z { Z.K.l . o O $ % = r i a i a a a i & > 7 =.p.",
"v.k.e % d S C C C B b v a = $ o . . O h ] K.L.x           y P @.P.} #         @ z { K.K.z     X O % i k b B C C C S b r 4 5.c.n.",
"m.n.*.% k S S C C C C b d = = s l l x P { K.P.{ l l l l l c _ @.P.M.V l l l l c ) { K.L.] l l l r % i k b C C C S S B i 4 r.m.m.",
"m.n.*.% d S S A C C B b d = a } K.K.M.o.] M.Y.P.K.K.K.K.K.@.` @.P.I.L.S.S.S.S.M.} { Z.U.P.S.S.Z.C $ i b b C A C C S B r 4 r.m.m.",
"m.n.*.% k S S C A C B b d = p } Z.K.M.o.{ K.I.P.Z.Z.Z.K.K.@.` @.P.P.S.S.S.Z.S.M.} { S.U.L.S.Z.Z.N % r b B C C C S S b r 6 r.m.m.",
"m.n.*.% f D S C C C B b d = i ) { } { ] { K.I.M.} { } { { { ` @.P.K.@.{ { { { { ] { K.I.Z.{ { { l % i v b C C C S S b i 6 r.m.m.",
"m.n.*.% k S S C A C B b d = = s z z x P { M.P.} z z z z h P ` @.P.M.P z z z z x ) { Z.P.] z z z t % i v B C C C S F b = 6 r.m.m.",
"m.n.*.% k S S A C A B b d = % $ @ @ - z { #.P.P @ @ @ @ @ u P @.P.@.y @ @ @ @ - x { S.L.c @ @ @ % % i k B C C C A S m i 6 e.m.m.",
"m.n.*.% k S S C C C B b d = + o     O h ] K.P.x         X y P #.P.} -   X     @ z } Z.K.l X   . o % a v B C C C S S m i 6 e.m.m.",
"m.n.*.% k S S C C C B b d = + o     @ h ] Z.L.c         X - ) @.P.} #         @ z { K.K.l       o % t k b A C C A S b r 2 r.m.m.",
"m.n.*.% k S S A C C C b d = & = - - y c ] Z.P._ - - - t - h _ @.P.+.u t - y - y P { K.K.) - - t - % a k b C A C S S C r 5 r.m.m.",
"m.n.*.% d S S C A C B v d = p ) o.o.} ` } Z.I.Z.+.} o.o.O.{ ` @.P.L.@.o.+.+.+.} ` { K.I.M.o.} } z & i k b A C C A S C r 6 e.m.m.",
"m.n.*.& k S S C C C C b d = s  .P.P.K.@.] Z.Y.P.P.P.P.P.P.#.] @.P.I.I.P.L.P.P.M.o.{ K.I.I.P.P.K.V $ a b b A A C A S b r 6 r.m.m.",
"m.n.*.% k S S A C C B b d = i _ O.O.o.] { Z.I.K.+.O.@.@.@.{ ` @.P.P.#.@.@.+.@.o.{ { K.P.M.@.+.o.z & i v B B C C S S B r 6 r.m.m.",
"m.n.*.% k S S C A C B b d = t l P P ) ` { Z.I.@.P P P P P ) ` @.P.M.` P V P P P _ { K.P.+.P P c p % i v B C C C S S m r 6 r.m.m.",
"m.n.*.% k S S A C C B B d = % = - - y c ] Z.P.` - - - - - h ) @.P.@.h - - - - u c { Z.K.) y y t = % i v B C C C S S m r 6 r.m.m.",
"m.b.*.% d S S C A C B b d = + o     @ h ] Z.P.c X         y ) @.P.} - X X   X @ l } K.K.l   . . O % i k B C C C S S C ; 6 r.m.m.",
"m.n.*.& f S S C C C B b d = + o     @ h { Z.P.c           y ) @.P.} -         @ l ] K.K.l . . . O % a k B C B A S S B r 4 r.m.m.",
"n.c.e % k S S S C A B b d r $ o X o @ z ] Z.P.c o o o o . y ) @.P.} - X o o o # x } K.K.l o o . O % i b B C A B S S m r 4 r.n.n.",
"r.~ 5 % f S S C C C B b d = % * y l V ) { Z.P.@.) V V ) V _ ' @.I.Z.' V ) ) ) ) _ o.Z.P.+.V s & % % i k B B C A A S m r > q 2.a.",
"~ a = & k S S C C A B b d = = i c M.P.@.{ Z.Y.U.Y.Y.U.Y.Y.M.] @.I.Y.Y.Y.Y.Y.I.P.o.] K.Y.Y.P.[ a r % a k B C C A A S m i = i J r.",
"~ d b Z S S S S C C C b b Z C d z } @.o.] Z.U.L.#.Z.#.Z.Z.O.` @.P.P.K.#.#.M.#.#.] o.Z.I.K.#.V d k A B b B B A B S S D S m k J r.",
"~ d F J.V.F S C C C C v S V.B.N k M ` ] { Z.I.#.` ` ` ` ` ` ` @.P.K.o.] ] ` ] ` ` { K.P.#._ m d F J...b B C C A S S %.C.V.m J 7.",
"~ d F J.C.N.%.%.%.....| %.G.V.C d s z c ] Z.P.] h u h u s x ` @.P.#.c u u h u h P o.Z.P.' s s d F J.V...F N.F %.%.%.C.G.V.N J r.",
"~ d F J.J.J.G.J.H.H.G.G.G.J.V.B i * @ z { Z.P.M o o X o o y P @.P.} - X o o o # x ] Z.K.z o r d | J.H.G.G.J.J.G.G.J.J.J.B.C J 7.",
"~ f $.R.E.E.R.R.W.R.E.R.R.R.D.Z r + @ l ] Z.K.c           - P @.P.{ #         @ z { S.S.z . * d  .W.T.T.R.R.R.R.R.R.R.R.D.Z 5 r.",
"~ d $.Q.Q.Q.Q.Q.Q.Q.Q.Q.Q.Q.F.Z r + + l ] Z.P.c           y ) @.P.} #         @ z } Z.K.l o * f $.Q.Q.Q.Q.Q.Q.Q.Q.Q.Q.Q.F.Z G r.",
"~ i D F.F.F.F.F.G.F.F.F.F.F.&.N i s z M ] @.Z.' l #   # s c ) o.M.+.c y o @ y l P ] @.M.V l s i [ H.H.H.F.F.F.F.F.F.F.F.&.n 5 r.",
"e & v F F F F F F F F F F F N a p ] Z.{ ] ] } @.M.l . l M.O.{ ] ] +.M.' # t ' M.} ] [ } @.M.n = n F F [ | F F F F | F | C i , r.",
"e % d C C C A C C C C A A C v ; p { Z.} ` _ ] @.Z.z . l Z.@.] ` ' o.M.] - - ] Z.o._ ` ] @.Z.n % f C A C C C C C C C A C v i 4 r.",
"e % d C C A C C A C C C Z A v i p M { ] _ ` ] { } u   u ] { ' _ ` ] { V # @ ) ] ` ` _ ` { { j % d C C C C C A C A C C C v ; 1 5.",
"e % i b v v v v v v v b b v v = : L / U ` _ ` T ( 9 < 9 ( T ` ` ' I / R 3 3 R / U ` ` _ Y W g % p b v v b v b v v v v b v = 1 5.",
"e % & ; = i ; i i = ; i = = = & , :.7.( _ ` ] ~ t.t.0.t.y.>.U _ ` ( 4.t.t.r.t.6./ ` ` U ,.q.0 & & r = i = i = i i = ; = & & , r.",
"-.4 4 , 4 5 4 1 4 1 1 1 4 , 4 4 q t.d.3./ / ( q.m.m.m.m.m.q.Q / / <.s.m.m.m.m.a.,./ / ^ r.c.=.1 1 1 1 1 1 1 1 1 4 1 1 1 1 4 0 e.",
"u.r.;.r.5.5.5.r.5.r.5.r.5.r.r.5.t.c.v.a.w.r.r.s.m.m.m.m.m.k.r.r.q.i.v.m.m.m.m.c.u.r.r.r.k.n.a.q.9.9.9.9.9.9.9.r.r.r.5.r.r.5.t.g.",
"z.n.m.m.m.m.m.m.m.m.m.m.m.m.n.m.m.m.m.m.m.m.m.m.m.m.m.m.m.m.m.m.m.m.m.m.m.m.m.m.m.m.m.m.m.m.m.m.m.m.m.m.m.m.m.m.v.m.m.m.m.m.n.z.",
"z.m.m.m.m.m.m.m.m.m.m.m.m.m.m.m.m.m.m.m.m.m.m.m.m.m.m.m.m.m.m.m.m.m.m.m.m.m.m.m.m.m.m.m.m.m.m.m.m.m.m.m.m.m.m.m.m.m.m.m.m.m.b.j.",
"z.m.m.m.m.m.m.m.m.m.m.m.m.m.m.m.m.m.m.m.m.m.m.m.m.m.m.m.m.m.m.m.m.m.m.m.m.m.m.m.m.m.m.m.m.m.m.m.m.m.m.m.m.m.m.m.m.m.m.m.m.m.b.j.",
"z.n.m.m.m.m.m.m.m.m.m.m.m.m.m.m.m.m.m.m.m.m.m.m.m.m.m.m.m.m.m.m.m.m.m.m.m.m.m.m.m.m.m.m.m.m.m.m.m.m.m.m.m.m.m.m.m.m.m.m.m.m.b.j.",
"z.n.m.m.m.m.m.m.m.m.m.m.m.m.m.m.m.m.m.m.m.m.m.m.m.m.m.m.m.m.m.m.m.m.m.m.m.m.m.m.m.m.m.m.m.m.m.m.m.m.m.m.m.m.m.m.m.m.m.m.m.m.b.j.",
"h.m.m.m.m.m.m.m.m.m.m.m.m.m.m.m.m.m.m.m.m.m.m.m.m.m.m.m.m.m.m.m.m.m.m.m.m.m.m.m.m.m.m.m.m.m.m.m.m.m.m.m.m.m.m.m.m.m.m.m.m.m.b.h."
};
