/* XPM */
static char *result[] = {
/* columns rows colors chars-per-pixel */
"64 64 118 2 ",
"   c #0F0F26",
".  c #101027",
"X  c #12142A",
"o  c #151C2F",
"O  c #171E33",
"+  c #1A1B32",
"@  c #172132",
"#  c #1A2634",
"$  c #1B2837",
"%  c #1C2539",
"&  c #1C2A3A",
"*  c #3F302D",
"=  c #272930",
"-  c #22243C",
";  c #222C3D",
":  c #383533",
">  c #3E3835",
",  c #42322D",
"<  c #4C362D",
"1  c #453C35",
"2  c #483D34",
"3  c #4A3F3E",
"4  c #4B403F",
"5  c #504033",
"6  c #5A4735",
"7  c #5D4936",
"8  c #53433D",
"9  c #5E4C3B",
"0  c #644C36",
"q  c #684F36",
"w  c #6D5137",
"e  c #715438",
"r  c #7C5A3A",
"t  c #1F2B41",
"y  c #202F40",
"u  c #2A2C45",
"i  c #223244",
"p  c #2A3346",
"a  c #25364A",
"s  c #2D3249",
"d  c #27394E",
"f  c #2E384B",
"g  c #31344D",
"h  c #333D48",
"j  c #2A3E54",
"k  c #363A53",
"l  c #393D56",
"z  c #2D4056",
"x  c #2D4259",
"c  c #304156",
"v  c #31455C",
"b  c #3D425A",
"n  c #304761",
"m  c #334B65",
"M  c #394E65",
"N  c #364F6B",
"B  c #3C5067",
"V  c #36506C",
"C  c #3D536C",
"Z  c #3B5471",
"A  c #3F5873",
"S  c #4E4642",
"D  c #4F4843",
"F  c #564940",
"G  c #584C42",
"H  c #40455F",
"J  c #605041",
"K  c #7E5F41",
"L  c #424660",
"P  c #464B65",
"I  c #445B74",
"U  c #495E75",
"Y  c #455E7B",
"T  c #47617D",
"R  c #4A637E",
"E  c #51677E",
"W  c #845E3B",
"Q  c #97693E",
"!  c #AD6C3F",
"~  c #9D6F43",
"^  c #AE6F41",
"/  c #A77545",
"(  c #B47442",
")  c #B57C45",
"_  c #B67E48",
"`  c #BF8247",
"'  c #C0854A",
"]  c #C98A4C",
"[  c #D38F4F",
"{  c #D4914F",
"}  c #DF9852",
"|  c #EB8B4C",
" . c #EC904F",
".. c #F0904E",
"X. c #E19A53",
"o. c #EC9F55",
"O. c #F29450",
"+. c #F69C54",
"@. c #EEA157",
"#. c #F2A458",
"$. c #FBA559",
"%. c #F7A85A",
"&. c #FFAD5D",
"*. c #466281",
"=. c #4D6682",
"-. c #4F6882",
";. c #4F6B89",
":. c #546B83",
">. c #516E8C",
",. c #55708D",
"<. c #5D758F",
"1. c #567493",
"2. c #597696",
"3. c #5C7999",
"4. c #627991",
"5. c #65809E",
"6. c #6D86A0",
"7. c #718AA3",
/* pixels */
" .$.&.&.&.&.&.&.&.&.&.&.&.&.&.&.&.&.&.&.&.&.&.&.&.&.&.&.&.&.&.&.&.&.&.&.&.&.&.&.&.&.&.&.&.&.&.&.&.&.&.&.&.&.&.&.&.&.&.&.&.&.#. .",
"+.&.&.&.&.&.&.&.&.&.&.&.&.&.&.&.&.&.&.&.&.&.&.&.&.&.&.&.&.&.&.&.&.&.&.&.&.&.&.&.&.&.&.&.&.&.&.&.&.&.&.&.&.&.&.&.&.&.&.&.&.&.%.o.",
"&.&.&.&.&.&.&.&.&.&.&.&.&.&.&.&.&.&.&.&.&.&.&.&.&.&.&.&.&.&.&.&.&.&.&.&.&.&.&.&.&.&.&.&.&.&.&.&.&.&.&.&.&.&.&.&.&.&.&.&.&.&.&.&.",
"&.&.&.&.&.&.&.&.&.&.&.&.&.&.&.&.&.&.&.&.&.&.&.&.&.&.&.&.&.&.&.&.&.&.&.&.&.&.&.&.&.&.&.&.&.&.&.&.&.&.&.&.&.&.&.&.&.&.&.&.&.&.&.&.",
"&.&.&.&.&.&.&.&.&.&.&.&.&.&.&.&.&.&.&.&.&.&.&.&.&.&.&.&.&.&.&.&.&.&.&.&.&.&.&.&.&.&.&.&.&.&.&.%.&.&.&.&.&.&.&.&.&.&.&.%.&.&.&.&.",
"&.&.&.&.&.$.$.$.&.&.&.&.&.&.&.&.&.&.&.&.&.&.&.&.&.&.&.&.&.&.&.&.&.&.&.&.&.&.&.&.&.%.$.&.&.&.&.%.&.&.%.%.&.&.&.&.&.&.&.%.&.&.&.&.",
") _ _ _ ) ^ ^ ( _ _ _ _ _ _ _ ] #.&.&.&.&.&.&.&.&.&.&.&.&.&.&.&.&.&.&.&.&.&.&.&.%.O.o.%.%.] ` ` ) ` ` ` ` ` ` ` ` ` ` ` ` ] @.&.",
"D D D D S 3 3 S D D D D D D F K { &.&.&.&.&.&.&.&.&.&.&.&.&.&.&.&.&.&.&.&.&.&.&.+.|  .#.X.K D 8 6 4 D D D D c 4 S S D S S W { &.",
"j j m n n m n n n m n n m x j S ~ ' ' ' ' ' ` ' ` ` ` ` ` ` ` ` ' ' ' ' ' ' ' ' ' ) ) ) Q G d x v m n v n m n n n n v x d J ] &.",
"j Z =.*.=.=.=.;.=.=.=.=.=.A j h b 4 J G G G G G G G G G G G G F J G G G G D G G G G 6 5 1 h j C =.*.;.;.=.=.=.;.*.;.;.Z x J ] &.",
"j Y 3.3.3.3.3.3.3.3.3.3.3.R x j n n n n v v v n m v v v m n n n v m m v m v x n v n v v x j j T 5.3.3.3.5.2.3.2.3.3.3.*.x J ] &.",
"j Y 3.3.3.3.2.3.3.3.3.3.3.R x v A *.*.*.R R R R =.=.=.*.=.*.=.*.-.*.*.R *.*.*.*.R R R R Y v j T 3.2.3.2.3.3.3.3.3.3.3.*.x J ] &.",
"j Y 3.3.3.3.3.3.3.3.3.3.3.*.x m *.5.5.2.1.5.5.1.5.2.5.1.3.3.3.3.5.5.5.1.1.5.3.3.5.5.1.5.;.V j T 3.3.3.3.3.3.3.2.3.3.3.R x J ] &.",
"j Y 3.3.3.3.2.3.3.3.3.3.3.R v m *.5.1.1.5.1.1.5.2.3.3.3.3.3.3.3.>.5.1.1.3.1.3.3.5.1.1.5.;.V j T 3.2.5.2.3.2.3.3.3.3.3.T x J ] &.",
"j Y 3.3.3.3.3.3.3.3.3.3.4.R c M *.5.5.5.5.1.5.5.5.5.5.2.3.3.4.4.5.5.5.5.5.5.3.5.5.5.1.5.>.V j T 5.5.2.5.5.3.3.5.3.3.5.T v J ] &.",
"j =.6.6.6.6.6.6.6.6.6.6.6.:.v M 5.5.5.5.5.5.5.5.5.6.5.5.6.6.7.5.5.5.5.5.5.5.5.5.5.5.5.5.5.m j -.5.5.5.5.6.6.5.6.6.5.6.;.v J ] &.",
"k -.6.6.7.5.7.7.5.7.5.5.7.:.v M <.5.7.5.7.5.7.7.6.6.7.5.7.7.5.7.7.6.6.6.6.6.6.6.7.5.7.5.4.B z E 6.6.6.6.5.7.7.5.7.7.5.:.v 9 ] &.",
"i B -.-.-.-.:.E =.;.:.:.E I d z U E E E -.-.:.E -.E -.-.:.E -.-.E -.-.-.-.-.-.-.E -.:.E T z i B =.=.E ;.=.;.E ;.E E E C z 6 ] &.",
"& d V m m m m m m m m m m z & ; c m m m m m m m m m m m m m m m m m m m m m m m M m m m v ; & j V m m m m m m m m m m z & 6 ] &.",
"& d m m m m m m m m m m m z & & i d a a a a a d a a a a a a a a a a a d a a a a a a a d a & $ j m m m m m m m m m m m z & 6 ] &.",
"& d m m m m m m m m m m m z & # # # # # # # # # # # @ # @ # # # # @ # @ # # @ # # # # # $ # & d m m m m m m m m m m m z & 6 ] &.",
"$ i d d d d d d d d d d d i & & p f f h f f f p - o ; f g h g g g h u O # p h g f f f f p & $ i d d d d d d d d z a z ; & 6 ] &.",
"# # # $ $ # & # # # # & # # # y b L P P P P H b u X u P P P P P P P s + - b P P P P P P b p @ # $ $ $ $ $ # # # # # $ # $ 6 ] &.",
"w > $ y d a a a a a i & # @ o @ p g H P P H l p + . - g b P P P b g - X + p g P P P H g u % o @ # & i i a a a a d & $ : q Q } &.",
"] w $ d V m n n n n j a $ @ . X X - k P P H u X .   . + s P P P g + . . . X - b P P b y X X X O $ i x x m n n m V z & 6 ` #.%.&.",
"X.e & x Z V m m m n x a $ @ . X . + u g g s +   .       - s g g - .     . . + u g g u O     . X # a x n m m m V V x & q { &.&.&.",
"} e $ j Z V m m m n x a $ @ X   . . X + X X .           . + X + X .     . . . X o X o .     . O $ a x n m m m V Z x & 9 { &.&.&.",
"} e & j Z V N m N n x a $ o X             . .                   .         . . .             . + # a x n m m m V Z x & 9 { &.&.&.",
"X.e & j Z N m m m n x a t o X                                                                 o # a x n m m m V Z x & 0 { &.&.&.",
"X.e & j Z N m m m n x a $ O .                                                               . o # a x x m m m V Z x & 0 { &.&.&.",
"X.e & z Z N m m m n x a $ o .                                                               . @ # a x n m m m V Z x & 0 { &.&.&.",
"X.e $ j Z N m m m n x d $ O X                                                               . o $ a x n m m m V V x & 9 { &.&.&.",
"X.e O x Z V m m m m x a & o .                                                               . o # a z x N m m N Z x & 0 { &.&.&.",
"X.q & j Z V V m m v x a $ @ X .                                                             . o & a x n m m m N V x & 7 { &.&.&.",
"X.e O x Z V m m m m x d $ @ . .                                                             X o # a x n m m m N Z x t 9 { &.&.&.",
"X.e t j Z V m m m v z a $ o X                                                               . o # a x n m m m N Z x $ 9 { &.&.&.",
"X.e & x Z V m m m n x d $ @ .                                                                 o $ a x n m m m V Z x & 0 [ &.&.&.",
"X.e $ x Z V m m m n x a $ @ .                                                                 o # a x n m m m N Z x & 0 [ &.&.&.",
"} e $ x Z V m m m n x d & o X                                                                 O # a x x m N m N Z x & 0 [ &.&.&.",
"} q # z Z V m m m n x a $ o X                                                                 o # a x n m m m V Z x & 0 [ &.&.&.",
"X.e $ x V V m m m n n a % O .                                                               X o # a x n m m m V V x & 9 { &.&.&.",
"{ e $ z Z V m m m n x a $ O X                                                             . X O $ a x n m m m V Z x & 6 ] %.%.&.",
"K > & z Z V m m m n x a $ # % O X                                                       X O % % # a x n m m m V Z x & : K / X.&.",
"a & & x Z V m m m n x a & & a t o                                                       X % a & $ a x n m m m V Z x & t i J ] &.",
"d n V V Z V m m m n x n M v j t X                                                       X t d v m n x n m m m V Z V V v d J ] &.",
"j A 1.*.Z V m m n n x A >.Y x t O                                                       X & j Y >.A x n m m m V Z T ,.T x G ] &.",
"x A 2.>.*.*.*.*.Y Y I -.1.*.x t X                                                       + t j Y 3.*.A A *.Y Y *.*.>.1.T v J ] &.",
"x *.3.3.2.1.1.1.3.1.1.2.3.*.x t o                                                       X t j Y 3.3.1.3.1.2.2.2.2.2.5.*.v G ] &.",
"j T 5.5.5.5.5.5.5.5.5.5.5.E v & o                                                       o & z E 6.3.6.6.5.5.5.5.5.5.5.-.v J ] &.",
"x :.7.7.7.7.7.7.7.7.7.5.7.<.v i o                                                       X & c E 6.7.7.6.7.7.7.7.7.7.7.:.v J ] &.",
"f I <.<.<.<.<.<.<.<.<.<.<.T f & o                                                       X & z C <.<.1.2.<.<.<.2.<.<.<.U j 9 ] &.",
"& v Z Z A Z A Z Z A A A C v i @ X                                                       X @ & z Z I Z Z Z C I Z A C I v i 6 ] &.",
"& d m m m V m m m m m m m z & @ X .                                                     X o $ z m m m m m m m m m m m z & 6 ] &.",
"$ j m m m m m m m m m m m z & @ X             .                                         X @ & z m m m m m m m m m m m z & 6 ] &.",
"$ a z x x x x x x x z z x a & = * < < < < < < < , < < < < < < < < < < < < < < < < < < < , = $ a x x z x x x x x x z x a $ 6 ] &.",
"$ & ; y ; y & i y y i & i & # 2 Q ` ` ` ` ` ` ` ` ` ` ` ` ` ` ` ` ` ` ` ` ` ` ` ` ` ` ` Q 5 # $ y y y y y y y y y y ; & $ 6 ] &.",
"5 > > 5 > 5 1 5 4 2 2 2 2 2 2 r { &.&.&.&.&.&.&.&.&.&.&.&.&.&.&.&.&.&.&.&.&.&.&.&.&.&.&.} W > 1 5 1 5 > 1 5 1 1 4 > 5 5 > r { &.",
"! ) ` ) ` ) ) ) ) ) ) ) ) ) ) ] #.&.&.&.&.&.&.&.&.&.&.&.&.&.&.&.&.&.&.&.&.&.&.&.&.&.&.&.@.{ ` ` / ` / ` ` ` ! ` ) ) ) ) ` ' o.#.",
"o.&.&.&.%.&.&.&.&.&.&.&.&.&.&.&.&.&.&.&.&.&.&.&.&.&.&.&.&.&.&.&.&.&.&.&.&.&.&.&.&.&.&.&.&.&.&.&.&.&.&.&.%.&.&.&.&.&.&.&.&.&.$...",
"..%.&.&.&.&.&.&.&.&.&.&.&.&.&.&.&.&.&.&.&.&.&.&.&.&.&.&.&.&.&.&.&.&.&.&.&.&.&.&.&.&.&.&.&.&.&.&.&.&.&.&.&.&.&.&.&.&.&.&.&.&.$...",
"O.&.&.&.&.&.&.&.&.&.&.&.&.&.&.&.&.&.&.&.&.&.&.&.&.&.&.&.&.&.&.&.&.&.&.&.&.&.&.&.&.&.&.&.&.&.&.&.&.&.&.&.&.&.&.&.&.&.&.&.&.&.$...",
"O.&.&.&.&.&.&.&.&.&.&.&.&.&.&.&.&.&.&.&.&.&.&.&.&.&.&.&.&.&.&.&.&.&.&.&.&.&.&.&.&.&.&.&.&.&.&.&.&.&.&.&.&.&.&.&.&.&.&.&.&.&.$...",
"..&.&.&.&.&.&.&.&.&.&.&.&.&.&.&.&.&.&.&.&.&.&.&.&.&.&.&.&.&.&.&.&.&.&.&.&.&.&.&.&.&.&.&.&.&.&.&.&.&.&.&.&.&.&.&.&.&.&.&.&.&.$...",
" .$.&.&.&.&.&.&.&.&.&.&.&.&.&.&.&.&.&.&.&.&.&.&.&.&.&.&.&.&.&.&.&.&.&.&.&.&.&.&.&.&.&.&.&.&.&.&.&.&.&.&.&.&.&.&.&.&.&.&.&.&.$. ."
};
