/* XPM */
static char *result[] = {
/* columns rows colors chars-per-pixel */
"64 64 145 2 ",
"   c #0F0F26",
".  c #0F1027",
"X  c #101027",
"o  c #13142B",
"O  c #151A2D",
"+  c #161D31",
"@  c #1A1B33",
"#  c #1E1F39",
"$  c #172030",
"%  c #1A2634",
"&  c #1B2837",
"*  c #1C243A",
"=  c #1D2B3C",
"-  c #2F2B2F",
";  c #3B2F2E",
":  c #232731",
">  c #22243C",
",  c #232C3E",
"<  c #333335",
"1  c #383332",
"2  c #47342E",
"3  c #4C362D",
"4  c #473D33",
"5  c #483D34",
"6  c #4B3F3E",
"7  c #4E4034",
"8  c #4C423C",
"9  c #514134",
"0  c #5E4936",
"q  c #53423D",
"w  c #6C5137",
"e  c #68513D",
"r  c #735538",
"t  c #7B5A3A",
"y  c #1F2E40",
"u  c #252741",
"i  c #202F41",
"p  c #292C45",
"a  c #2B2D49",
"s  c #233245",
"d  c #293246",
"f  c #25374B",
"g  c #2D334A",
"h  c #27394E",
"j  c #2A3A4D",
"k  c #31344D",
"l  c #31394E",
"z  c #293C51",
"x  c #343750",
"c  c #363B54",
"v  c #393E57",
"b  c #3B3E59",
"n  c #2B4057",
"m  c #2E435C",
"M  c #314357",
"N  c #31455C",
"B  c #3C435C",
"V  c #34485F",
"C  c #304760",
"Z  c #3D4760",
"A  c #334A65",
"S  c #394C63",
"D  c #354E6A",
"F  c #36506E",
"G  c #3B526C",
"H  c #3B5471",
"J  c #434143",
"K  c #4E4642",
"L  c #4F4843",
"P  c #554941",
"I  c #584C42",
"U  c #40445E",
"Y  c #645140",
"T  c #725840",
"R  c #7E5F41",
"E  c #424661",
"W  c #454B65",
"Q  c #484D67",
"!  c #464C6A",
"~  c #494E6A",
"^  c #40556C",
"/  c #4B516D",
"(  c #4A4F70",
")  c #4E5473",
"_  c #425A74",
"`  c #435E7B",
"'  c #495F78",
"]  c #505674",
"[  c #535977",
"{  c #515778",
"}  c #555B7A",
"|  c #585F7E",
" . c #4B6077",
".. c #46617E",
"X. c #4C637A",
"o. c #845F3B",
"O. c #88603E",
"+. c #93673E",
"@. c #96693E",
"#. c #AD6C3F",
"$. c #9B6E44",
"%. c #AE6F41",
"&. c #AE7843",
"*. c #B57C45",
"=. c #B67E48",
"-. c #BF8247",
";. c #BE8348",
":. c #C0854A",
">. c #C6884B",
",. c #D5924F",
"<. c #D69250",
"1. c #EB8B4C",
"2. c #EC904F",
"3. c #F0904E",
"4. c #E59C54",
"5. c #EB9F56",
"6. c #F29450",
"7. c #F69C54",
"8. c #ECA056",
"9. c #F3A559",
"0. c #FBA559",
"q. c #F7A85A",
"w. c #FFAD5D",
"e. c #575D80",
"r. c #476381",
"t. c #4D6682",
"y. c #4D6886",
"u. c #4E6B89",
"i. c #5C6384",
"p. c #546C86",
"a. c #5F6689",
"s. c #536E8B",
"d. c #5D748E",
"f. c #577493",
"g. c #587695",
"h. c #5C7999",
"j. c #62698C",
"k. c #666D92",
"l. c #686F94",
"z. c #697096",
"x. c #6A7298",
"c. c #65809E",
"v. c #6C849E",
"b. c #6C86A0",
"n. c #718AA3",
/* pixels */
"2.0.w.w.w.w.w.w.w.w.w.w.w.w.w.w.w.w.w.w.w.w.w.w.w.w.w.w.w.w.w.w.w.w.w.w.w.w.w.w.w.w.w.w.w.w.w.w.w.w.w.w.w.w.w.w.w.w.w.w.w.w.9.1.",
"7.w.w.w.w.w.w.w.w.w.w.w.w.w.w.w.w.w.w.w.w.w.w.w.w.w.w.w.w.w.w.w.w.w.w.w.w.w.w.w.w.w.w.w.w.w.w.w.w.w.w.w.w.w.w.w.w.w.w.w.w.w.q.7.",
"w.w.w.w.w.w.w.w.w.w.w.w.w.w.w.w.w.w.w.w.w.w.w.w.w.w.w.w.w.w.w.w.w.w.w.w.w.w.w.w.w.w.w.w.w.w.w.w.w.w.w.w.w.w.w.w.w.w.w.w.w.w.w.0.",
"w.w.w.w.w.w.w.w.w.w.w.w.w.w.w.w.w.w.w.w.w.w.w.w.w.w.w.w.w.w.w.w.w.w.w.w.w.w.w.w.w.w.w.w.w.w.w.w.w.w.w.w.w.w.w.w.w.w.w.w.w.w.w.w.",
"w.w.w.w.w.w.w.w.w.w.w.w.w.w.w.w.w.w.w.w.w.w.w.w.w.w.w.w.w.w.w.w.w.w.w.w.w.w.w.w.w.w.w.w.w.w.w.w.w.w.w.w.w.w.w.w.w.w.w.w.w.w.w.w.",
"w.w.w.w.w.0.0.w.w.w.w.w.w.w.w.w.w.q.w.w.w.w.w.w.w.w.w.w.w.w.w.w.w.w.w.w.w.w.w.w.w.0.0.w.w.w.w.w.w.w.w.q.w.w.w.w.w.w.w.w.w.w.w.w.",
">.=.=.=.*.%.%.%.=.=.=.=.=.=.=.=.;.q.w.w.w.w.w.w.w.w.w.w.w.w.w.w.w.w.w.w.w.w.w.w.0.6.6.q.w.4.;.;.*.;.;.;.;.;.;.;.;.&.;.&.;.;.,.q.",
"r L L L K 6 6 K L L L L L L L L ;.q.w.w.w.w.w.w.w.w.w.w.w.w.w.w.w.w.w.w.w.w.w.w.7.1.1.9.w.;.T 8 q 8 L L L L M 8 L L L L L P @.9.",
"L z m C C C C C A A C C A C z h Y *.;.;.;.;.;.;.;.;.>.;.>.;.;.;.>.;.>.;.:.:.:.:.;.=.&.&.*.o.J n m C C N C C A C A C C C n f R 8.",
"L c ` r.y.y.y.u.t.y.y.t.t.t.G h M 8 0 I I I I I I I I q I I I I I I I I I L I I I I 0 9 9 J M M _ y.y.y.y.y.y.r.y.y.y.r.F f R 8.",
"L A y.h.h.h.h.h.h.h.h.h.h.h._ h n m m n A C C C A V m m N N N N C C D C C C C C C C C C C n z V u.h.h.h.h.h.h.h.h.h.h.h.H h R 8.",
"K A y.h.h.h.h.g.h.h.h.h.h.h._ h A ..r.` y.....X.t...y...y.y.r.r...u.....r.r...r...y.X....._ n V y.h.h.h.h.h.h.h.h.h.h.h._ h R 8.",
"K V y.h.h.h.h.h.h.h.h.h.h.h._ h H c.c.c.c.f.f.c.c.f.g.c.h.h.h.h.c.c.u.c.f.f.h.g.c.c.u.c.f.` C V y.h.h.h.h.h.h.h.h.h.h.h.H h R 8.",
"K A t.h.h.h.h.h.h.h.h.h.h.h._ h F u.c.u.f.f.c.f.g.c.c.f.h.h.h.h.c.c.c.c.f.c.f.c.c.c.c.c.c.r.C C y.h.h.h.h.h.h.h.h.h.h.h...h R 8.",
"P C y.h.h.h.h.h.h.h.h.h.h.h._ z H c.c.c.c.f.c.c.c.c.g.c.h.h.c.h.c.c.u.c.c.c.g.c.c.c.u.c.c.r.C A y.h.h.h.h.h.h.h.h.h.h.h._ h R 8.",
"K S s.b.b.b.b.b.b.b.b.b.b.b.' h H c.c.c.c.c.b.c.c.c.c.c.b.b.v.v.c.c.c.c.c.c.c.c.c.c.c.c.c.r.C A s.b.b.b.b.b.b.b.b.v.v.v. .h R 8.",
"K S d.v.b.b.b.n.n.v.n.b.b.b. .j _ v.n.v.b.n.n.v.v.n.v.n.v.n.v.n.v.n.n.v.b.b.v.n.v.n.v.n.n.p.V V d.n.n.v.v.v.n.n.v.n.v.v. .j t 8.",
"8 j _ t.X.p.X.p.t.t.t.t.p.X.V s N  .t.t.p.X.X.p.t.t.p.X.X.p.t.t.p.X.p.t.p.t.p.X.X.y.y.X.X.G j n _ X.X.p.t.u.p.X.t.t.t.p.V s t 8.",
"4 = n A A A A A A A A D A A j & s V C A A A A A A A A A A A A A C A A A V A A A D A A A S n , y n D A D A A A A A A A A h & t 8.",
"4 s n D A D A A D A A A A A j & , f h f f f f h f f f f h f f f h f f f f f f f f h f f f s & , n A A A A D A D A A D A f & t 8.",
"4 i n A D A A A A A A A A A h & % % % % % % % % % % % % % % % % % % % % % % % % % % % % % % % s n D A A D A A A A A A A h % t 8.",
"4 = s h j h h z h h h h h h i % d B B l c V S E W U S E B v k U S E W S W S S B l M B U E M , & s h h h h h h h h h h h i % t 8.",
"4 % % % & % % % & & % & & & % % V j.i.~ ] j.z.l.z.z.z.z.j.] Q | k.k.k.l.l.l.l.| ~ [ k.l.k.) d % % % % % % = & & & & & % % % t 5.",
"+.0 < = s h f f f s s i = % , g E | [ ~ } j.k.j.i.i.| i.| / Q j.x.j.i.i.i.i.| [ Q } k.k.j./ v s = = y s s s s f f h = % 4 r *.9.",
"8.&.5 s m D A C C C m z y % g E Q ~ ~ Q [ k.j.] ~ ~ ~ / ~ Q / i.z.| ! ! / ! / ~ ~ } k.a.] Q W v = = h n m C C C D D j & t <.q.w.",
"w.;.9 i C F D D A A C n s % i g k k v W [ k.e.U k k k k x U / j.k./ k x x k k b W } k.e.b k k d = = h m A A D D F F j % O.q.w.w.",
"w.;.9 y C F D A A A C z s * + O o O p U [ k.{ p @ o @ @ # x / j.j.b O o O o O a W } k.) u o o @ % = h m C D A A F F h % O.q.w.w.",
"w.;.9 i C F D A A A C m y % O . X   , U { k.) >         @ k / i.k.c     X     p E } k.( #   X o $ = h m C A A D F F h % O.q.w.w.",
"w.;.9 = C H D D A A C n y y o . X   u U [ k.) u         @ k / i.j.c           p E } l.( #   . o $ = h m V A A A D G n % t q.w.w.",
"w.;.9 s C F D A A A C z s + y a a a c E [ k.e.b a u a a k b / i.k.! a a a a a c W } l.} c a a i & = h m A A A D D G f % O.q.w.w.",
"w.;.9 = C F D A A A C m s % c e.| | ] ~ [ k.k.i.| e.e.| | ) ( j.x.a.| e.e.e.e.] ! } k.k.i.e.i.! s = h m A A A D F F j % O.q.w.w.",
"w.;.9 s m H D D A A C z s % A a.j.j.| ~ [ k.l.j.j.j.j.j.e.] / i.x.k.j.j.j.j.j.} ! } k.k.k.j.a.) h = h n V A A A F F n % t q.w.w.",
"w.;.7 y C F F A A A C n s % c ) ] ] ~ Q { k.j.} ] ] ] ] ] ~ Q j.x.e.] ] ] ] ] / ~ } k.j.} ) ] U d = f m A A A D F F z % O.q.w.w.",
"w.;.9 y C F D A A A C n s % s c v v U Q [ k.i.! b b v b U E ~ i.l.] b b b b b U W } l.i.E v B k , = f m C A A A F F z % t q.w.w.",
"w.;.8 y C F D A A A m n s % * * # > a Q } k.} k : > > # > b / i.k.E # # > # > k W } k.{ g > > * % = h m A A A A F F h % O.q.w.w.",
"w.;.8 y C F F A A A m n s % O .     u U } j.{ >         @ x / i.j.c       X X u E } k.) #     X $ = h m A A A D F F z % O.q.w.w.",
"w.;.9 s C F F A A A C n s % O .   X u U [ k.) u         @ k / j.j.b       X   , E } l.! #   . o $ = h m C D A A D D n % R q.w.w.",
"w.;.9 y C F D A A A C n y % O . o @ a U [ j.) a @ X X @ > v / i.a.b @ o   o @ k W [ j.) u @ o o + = f m C A A D F G f % O.9.w.w.",
"w.;.9 i C F D A A A C z s % O . p E Q Q / [ { ( b @ @ v ! W Q ] { ) ! p   a ! ! Q / [ { ~ c @ o $ = f m A A A D F F f % O.q.w.w.",
"w.;.9 i C F D A A A C m y % O . c j.i.~ W ! ) a.{ p > ) j.[ W Q ( e.k.b   b k.| ~ W ! { j.) > o $ = h m C A A D F F n $ O.q.w.w.",
"w.;.9 i C F D D A A C z f * O . k ] ] ~ W W / [ W > # E } / Q W ! ] [ k X k } ) Q Q Q ~ [ Z # o $ = h m C A A A F F f % o.q.w.w.",
"q.=.7 y m H D A A A C z s $ O . u U W Q W Q W W c > @ x W Q Q W ! W U p X p E Q Q Q Q Q W x @ o $ = h m C D A D F F n % t 8.q.w.",
"$.e < y C F D A A A C m s % * * u p x E Q W U k > o o > k b Q Q E v u # X @ > v U Q Q v g u * * % = h m A A A D F F n % 7 O.*.q.",
"L s = s C F D D A A C z s % y f # o u U W Q x @         @ k Q Q U u     X X X p Q Q Q k @ @ i f = = h m A A A A F F n $ = f R 8.",
"L z A D F H D A A A C m A S N f > X @ p a a > @         o > d p p @           @ p p a > o @ i z m A C m C A A D F H F A M s R 8.",
"L V r.s.` F D A A A C m _ f._ h > X X X o X X           X X X X X X           X X X X X   @ i C r.u.F m C A D A F H ..f._ n R 8.",
"L V y.f.u.r.r.r.` ` ` _ u.h._ h * X                     X       X X             X         o p S r.f..._ ` ` ` ` ..y.u.c.H n R 8.",
"P C u.h.g.g.f.f.g.g.f.f.g.h._ z * X                             X X                       @ i C y.f.f.c.f.f.f.f.f.c.f.c.H f R 8.",
"K C s.v.v.v.c.c.c.c.c.c.c.c. .f * o .                                                   . + i S s.c.c.c.c.c.c.c.c.c.c.c._ n t 4.",
"L S d.n.n.n.n.n.n.n.n.n.n.n.X.h & X                                                     . $ i S d.n.n.n.n.v.n.n.n.n.n.n. .n R 8.",
"8 M X.d.d.d.d.f.g.d.d.d.d.d.G s % .                                                     . + = n  .c.c.s.c.d.s.c.d.c.d.d.^ , t 8.",
"8 d C H H H H H H H H  .H H n = $ .                                                     . o % j V H H G H H ^ H ^ H G G M & t 8.",
"7 , n D A A A D A A A A S A n % O . .   . . . .                                         . o $ , n A A A A D A D A A A A n % t 8.",
"7 , n D A A A A D A D A D A f % $ .     . . . .                                         . o $ = M A D A A A A D A A A A s % t 8.",
"4 = h n n m n m m n m n m m s % - 3 3 3 3 3 3 3 3 3 3 3 3 3 3 3 3 3 3 3 3 3 3 3 3 3 2 2 3 ; : = n M n C n n n n m m C m , % t 8.",
"4 & = y y y y y = = s = = = & % 0 #.-.-.-.-.;.;.-.-.-.-.-.-.-.-.-.-.-.-.-.-.-.-.-.-.:.:.-.O.1 & & = = = = s = s = = = = = % t 8.",
"e 7 7 1 7 7 1 7 7 7 7 1 7 7 1 7 @.8.w.w.w.w.w.w.w.w.w.w.w.w.w.w.w.w.w.w.w.w.w.w.w.w.w.w.w.:.w 4 4 4 4 4 4 4 7 7 8 7 4 7 4 4 @.8.",
";.&.;.;.&.&.;.;.&.;.&.;.;.&.&.;.,.w.w.w.w.w.w.w.w.w.w.w.w.w.w.w.w.w.w.w.w.w.w.w.w.w.w.w.w.8.:.*.*.*.*.;.&.;.&.*.*.*.*.*.;.&.,.8.",
"6.q.w.w.w.w.w.w.w.w.w.w.w.w.w.w.w.w.w.w.w.w.w.w.w.w.w.w.w.w.w.w.w.w.w.w.w.w.w.w.w.w.w.w.w.w.w.w.w.w.w.w.w.w.w.w.w.w.w.w.w.w.q.7.",
"3.w.w.w.w.w.w.w.w.w.w.w.w.w.w.w.w.w.w.w.w.w.w.w.w.w.w.w.w.w.w.w.w.w.w.w.w.w.w.w.w.w.w.w.w.w.w.w.w.w.w.w.w.w.w.w.w.w.w.w.w.w.q.2.",
"6.q.w.w.w.w.w.w.w.w.w.w.w.w.w.w.w.w.w.w.w.w.w.w.w.w.w.w.w.w.w.w.w.w.w.w.w.w.w.w.w.w.w.w.w.w.w.w.w.w.w.w.w.w.w.w.w.w.w.w.w.w.q.3.",
"6.w.w.w.w.w.w.w.w.w.w.w.w.w.w.w.w.w.w.w.w.w.w.w.w.w.w.w.w.w.w.w.w.w.w.w.w.w.w.w.w.w.w.w.w.w.w.w.w.w.w.w.w.w.w.w.w.w.w.w.w.w.0.3.",
"3.w.w.w.w.w.w.w.w.w.w.w.w.w.w.w.w.w.w.w.w.w.w.w.w.w.w.w.w.w.w.w.w.w.w.w.w.w.w.w.w.w.w.w.w.w.w.w.w.w.w.w.w.w.w.w.w.w.w.w.w.w.0.3.",
"2.w.w.w.w.w.w.w.w.w.w.w.w.w.w.w.w.w.w.w.w.w.w.w.w.w.w.w.w.w.w.w.w.w.w.w.w.w.w.w.w.w.w.w.w.w.w.w.w.w.w.w.w.w.w.w.w.w.w.w.w.0.q.1."
};
