/* XPM */
static char *result[] = {
/* columns rows colors chars-per-pixel */
"64 64 137 2 ",
"   c #0F0F26",
".  c #101027",
"X  c #12142A",
"o  c #151C2E",
"O  c #171B32",
"+  c #1B1C34",
"@  c #172131",
"#  c #1A2634",
"$  c #1B2837",
"%  c #1B2439",
"&  c #1C2A3A",
"*  c #292A2F",
"=  c #21233A",
"-  c #202D3D",
";  c #3B3633",
":  c #3F3A37",
">  c #41312D",
",  c #4C362D",
"<  c #423C37",
"1  c #483D34",
"2  c #4B3F3E",
"3  c #4B403F",
"4  c #5D4836",
"5  c #53443D",
"6  c #5F4B3A",
"7  c #654D37",
"8  c #634F3C",
"9  c #6D5237",
"0  c #67513D",
"q  c #68533F",
"w  c #72573E",
"e  c #7E5B3A",
"r  c #1E2B40",
"t  c #252740",
"y  c #222D41",
"u  c #292C45",
"i  c #2B2E49",
"p  c #223244",
"a  c #2A3346",
"s  c #25364A",
"d  c #2F324B",
"f  c #27394E",
"g  c #2D394C",
"h  c #32354D",
"j  c #313A4B",
"k  c #2A3D53",
"l  c #323651",
"z  c #353B53",
"x  c #3A3E57",
"c  c #3B3F59",
"v  c #2C4057",
"b  c #2D4259",
"n  c #30455C",
"m  c #3C425B",
"M  c #304760",
"N  c #3E4260",
"B  c #334B65",
"V  c #394E66",
"C  c #364F6C",
"Z  c #3D5167",
"A  c #3C526B",
"S  c #3B5471",
"D  c #4E4642",
"F  c #4F4843",
"G  c #584C42",
"H  c #40445E",
"J  c #625142",
"K  c #414662",
"L  c #464B65",
"P  c #484D67",
"I  c #484E69",
"U  c #4C516D",
"Y  c #4E5472",
"T  c #445B74",
"R  c #485D74",
"E  c #455F7B",
"W  c #505674",
"Q  c #525876",
"!  c #505678",
"~  c #555B7C",
"^  c #585F7E",
"/  c #46607C",
"(  c #49627E",
")  c #52677E",
"_  c #52687F",
"`  c #845F3B",
"'  c #986A3E",
"]  c #AD6C3F",
"[  c #836141",
"{  c #9D6E42",
"}  c #AE6F41",
"|  c #A27143",
" . c #A97646",
".. c #B57442",
"X. c #B57C45",
"o. c #B67E48",
"O. c #BF8247",
"+. c #C0854A",
"@. c #CD8C4D",
"#. c #D7924F",
"$. c #D8934F",
"%. c #DB9551",
"&. c #DE9852",
"*. c #EB8B4C",
"=. c #EC904F",
"-. c #F0904E",
";. c #E39B54",
":. c #EB9953",
">. c #F29450",
",. c #F69C54",
"<. c #EFA257",
"1. c #F1A458",
"2. c #FBA559",
"3. c #F7A85A",
"4. c #FFAD5D",
"5. c #585E81",
"6. c #466280",
"7. c #4D6682",
"8. c #4F6B88",
"9. c #506780",
"0. c #5B6283",
"q. c #546A83",
"w. c #5E6688",
"e. c #526E8C",
"r. c #54718F",
"t. c #5D758F",
"y. c #577493",
"u. c #597695",
"i. c #5C7999",
"p. c #606789",
"a. c #62698C",
"s. c #676F94",
"d. c #617890",
"f. c #6B7399",
"g. c #65809E",
"h. c #6D86A0",
"j. c #718AA3",
/* pixels */
"=.2.4.4.4.4.4.4.4.4.4.4.4.4.4.4.4.4.4.4.4.4.4.4.4.4.4.4.4.4.4.4.4.4.4.4.4.4.4.4.4.4.4.4.4.4.4.4.4.4.4.4.4.4.4.4.4.4.4.4.4.3.3.&.",
",.4.4.4.4.4.4.4.4.4.4.4.4.4.4.4.4.4.4.4.4.4.4.4.4.4.4.4.4.4.4.4.4.4.4.4.4.4.4.4.4.4.4.4.4.4.4.4.4.4.4.4.4.4.4.4.4.4.4.4.4.4.3.1.",
"4.4.4.4.4.4.4.4.4.4.4.4.4.4.4.4.4.4.4.4.4.4.4.4.4.4.4.4.4.4.4.4.4.4.4.4.4.4.4.4.4.4.4.4.4.4.4.4.4.4.4.4.4.4.4.4.4.4.4.4.4.4.4.4.",
"4.4.4.4.4.4.4.4.4.4.4.4.4.4.4.4.4.4.4.4.4.4.4.4.4.4.4.4.4.4.4.4.4.4.4.4.4.4.4.4.4.4.4.4.4.4.4.4.4.4.4.4.4.4.4.4.4.4.4.4.4.4.4.4.",
"4.4.4.4.4.4.4.4.4.4.4.4.4.4.4.4.4.4.4.4.4.4.4.4.4.4.4.4.4.4.4.4.4.4.4.4.4.4.4.4.4.4.4.4.4.4.4.4.4.4.4.4.4.4.4.4.4.4.4.3.4.4.4.4.",
"4.4.4.4.4.2.2.2.4.4.4.4.4.4.4.4.4.4.4.4.4.4.4.4.4.4.4.4.4.4.4.4.4.4.4.4.4.4.4.4.4.2.3.2.4.4.4.4.4.4.3.1.4.4.4.4.4.4.4.3.4.4.4.4.",
"<.@.X.o.X.} } ..o.o.o.o.o.o.o.o.O.@.3.4.4.4.4.4.4.4.4.4.4.4.4.4.4.4.4.4.4.4.4.4.3.>.:.3.4.4.1.@.O.O.O.O.O.o.o.O.O.O.O.O.O.O.X.@.",
"%.[ D F D 2 2 D F F F F F F F F F e &.4.4.4.4.4.4.4.4.4.4.4.4.4.4.4.4.4.4.4.4.4.,.*.*.<.4.4.$.e 5 5 F F m 5 5 5 5 m 5 5 m F 6 ` ",
"@.J f n M B M B M B M B M M M n v 4 ' O.O.O.O.O.O.O.O.O.+.+.O.O.O.O.O.@.+.+.+.+.O.o.X.X.X.O.' G k M M M B M B B M M M B M b k J ",
"@.J k S 8.7.7.6.7.7.7.7.7.8.7.A v v 3 6 G G F 6 G G G G G G G G J G G F G F G G F G 5 5 3 5 3 v b S 6.6.6.8.6.6._ _ 6.6.6.S v J ",
"@.J b 6.i.i.i.i.i.i.i.i.i.i.i.E b f b b B M M M B n n n M n b M M B C B M M M M M M n n M M b k b / u.g.g.g.i.i.g.r.g.g.g./ v q ",
"@.J k 6.i.i.i.u.i.i.i.i.i.i.i.E b M T E 8.( ( ( 6.8.7.6.7.7.7.6.( 6.6.6.6.6./ 6.( ( ( ( ( / T b b / u.y.g.y.i.i.g.g.r.y.g./ v q ",
"@.J n E i.i.i.i.i.i.i.i.i.i.i.E v V 8.g.u.u.u.g.g.i.i.i.i.i.i.i.g.g.y.g.y.y.i.i.g.g.g.r.g.r.8.B b / g.g.u.i.i.i.g.r.g.r.g./ v J ",
"@.J n E i.i.i.i.i.i.i.i.i.i.i.E v C 8.g.g.g.u.u.u.i.i.i.i.i.i.i.g.g.r.g.y.g.y.g.g.g.r.g.g.y.8.B b / r.g.y.g.u.i.r.g.r.g.e.S v q ",
"@.J n ( i.i.i.i.i.i.i.i.i.i.i.6.b C e.g.u.g.g.u.i.g.i.i.i.i.d.g.e.g.g.g.g.g.u.g.g.g.e.g.y.g.r.B M / g.y.g.g.g.g.g.y.g.g.g./ v q ",
"@.J z q.h.h.h.h.h.h.h.h.h.h.h.9.b C y.g.g.g.h.h.g.g.h.h.h.h.h.g.g.g.g.g.g.g.g.g.g.g.g.g.g.g.g.M M 8.g.g.g.g.g.g.g.g.h.h.g._ v q ",
"@.J b q.h.j.h.h.j.h.h.h.h.h.g._ n Z t.g.j.g.j.j.j.g.j.h.h.h.h.h.h.j.j.g.h.j.g.j.h.j.h.g.h.g.t.V b _ h.h.h.h.h.h.j.h.j.j.h._ v q ",
"@.6 f A 9.9.q.9.6.8.8.7.7.q.( Z a n / _ _ _ _ _ 7.7.q._ 9.q.7.7.9.9.9.7.9.9.q.9.9.9.q._ q.) R v s A _ _ 8.6._ _ 6._ 6._ _ C s 8 ",
"@.4 & k B B B B B B B B B B B v & p b B B B B B M B B M B M B B B B B B B B n B B B B B B B b p & k C B B B B B C B C B B f & 7 ",
"@.4 & k B B B B B B B B B B B v & & p f s s f s f s f s s f f s s s s f s s s s s s f s s s p & & v B B C B B B B B B B B v $ 7 ",
"@.4 & k B B B B B B B B B B B k $ # # # # # # # # # # # # @ # + # # # # # # # # # # # # $ # # # & b B B B B B B B B B B B k $ 7 ",
"@.6 $ p k f f k f f f f f f f r $ - a j g j m m j d j g g j j h m K m g j g g g j g z m m z a & $ p f k f f f s f f f f f p $ 7 ",
"@.4 # # $ $ # # $ # $ $ $ $ # # # a m L L U w.t.W L L L L L L L ~ s.) L H L L L L L Y p.w.Y m a # # # # $ $ $ $ $ # # $ # # # 6 ",
";.{ 7 ; # r f s p s s p p & $ @ o # u z H Y p.w.K d d h u h c I ^ f.Y j d d d d z L Q a.0.N u + @ # # $ p p p s s s s p # ; 9 | ",
"3.<.+.7 & v C B M M M M k s $ o X X X = c W a.5.h X X X X + d I ^ f.K + X X X X = H Q a.^ d . . o @ $ s k M B M M B C k $ 7 O.3.",
"4.4.#.7 & b S C B B B M b s $ o X     = x W a.^ i . . . . X d I 5.f.K X . . . . = H Q a.Q u       @ $ s b M B B B C S v & 9 &.4.",
"4.4.#.7 & b S C B B B M b s $ o .     = x W p.^ i       . X d P ^ f.K X . . . . = c Q a.~ u .     @ $ s b M B B B C S v & 9 &.4.",
"4.4.#.7 r k C C B B B M b s $ o . + u z K U ^ ~ N i + X = l c P Q a.I l = . + i x K W 5.! c u +   @ $ s b M B B B C S b & 9 &.4.",
"4.4.$.7 & b S C B B B M b s $ o . u W ~ I I U W ~ ! i + c 5.! P U U ~ 5.N + i ! ~ I I U Q ~ U u   o # p v M B B B C S v & 9 &.4.",
"4.4.$.7 & b S C B B B M b s $ o . i Q ^ Y I P U ^ ! i + N w.Q L P I Q w.N X i 5.^ I P P Y ) W - X @ $ s M M B B B C S v $ 9 &.4.",
"4.4.$.7 & b S C B B B M b s % o . t K U I P P P U L t + z Y I L L P U Y l X t I U P P P P U V $   @ $ s b M B B B C S v & 9 &.4.",
"4.4.$.7 & b S C B B B B b s $ o . % h m K P P K m h + X u x K L P L N x i X + l c L L P L c s #   # $ s M M B B B C S v $ 9 &.4.",
"4.4.#.8 r b C C B B B M b s $ o X X + u H L L H u + X   + = j H P L l = +   X + i H P P c u + X X o # a b M C B B C C v & 0 &.4.",
"4.4.#.0 r b S C B B B M b s $ o X . . + d m x h =       . X u m x c =           = l x x h +     X o $ s b M B B C C S v & 8 &.4.",
"4.4.#.8 $ b S C B B B M b s $ o .     X + = = + X         X o # = = +           X + = % + X     X o $ s b M B B B C S v & 9 &.4.",
"4.4.@.6 $ b S C B B B M b s $ o .                                                   .           X o & s b M B B B C S v & 9 &.4.",
"4.4.$.8 & b C C B B B M b p $ o X . .                                                           X o $ s n n B B B C S v $ 9 &.4.",
"4.4.$.7 & b S C B C B M b s $ o . .                                                             . o & s n n B C B C S v & 9 &.4.",
"4.4.$.7 & b S C B B B M b s $ o .                                                               X o $ s n M B B B C S v $ 9 &.4.",
"4.4.#.7 r b S C B B B M b s $ o .                                                               . o $ s b n B B B C S v $ 9 &.4.",
"4.4.#.8 $ b S C B B C M k s $ o .                                                                 o & s b M B B B C S b & 0 &.4.",
"4.3.@.6 & b S C B B B M b s $ O X .                                                             X o & s b M C B B C C v & 6 #.3.",
"<. .w : & b S B B B B M b s % # # O X                                                       . O $ # & s b M B B B C S v & : w O.",
"+.0 s & & b S C B B B M b s % r s & o                                                       O r s & & s b M B B B C S b & & s 8 ",
"@.J f n C C S C B B C M k n V n f r X                                                       O r f n B n b M B B B C S S B n v 8 ",
"@.J b / r.( S C B C B M b T e.E k & O .                                                     X r b / r.S b M B B B C S 6.y.E v 8 ",
"@.J b ( u.e.6./ 6.S E E E 7.u.6.k r X .                                                     + y b / y.8.E E / / E / ( e.u./ v q ",
"@.J b / i.i.u.u.y.u.u.y.u.u.i.6.k r X                                                       X t b E g.y.y.y.u.u.y.y.y.y.g./ v q ",
"@.J n _ g.g.g.g.g.g.g.g.g.g.g._ v - o                                                       o & b _ g.g.g.g.g.g.g.g.g.g.g.) v 9 ",
"@.J n q.j.j.j.j.j.j.j.j.j.j.j._ v & o                                                       o & n e.j.j.j.h.j.j.j.j.h.h.j._ v q ",
"@.0 f / t.t.t.u.t.t.t.t.t.t.t./ v # X                                                       o # v / y.t.g.t.r.g.t.g.t.g.t.R v 7 ",
"@.6 - n S S S S S T S S A T A n & @ X                                                       . @ - n S S S S A S A A Z S S v - 7 ",
"@.4 & v B B B B C B B B B B B v $ @ X                                                         o & v B B B B B B B B B B B v # 7 ",
"@.4 & v B B B B B B B B B B B v $ o X                                                       o o & v B B B B B B B B B B B v $ 7 ",
"@.4 # s v v v v v b b b v n v s # * , , , , , , , , , , , , , , , , , , , , , , , , 4 > , , > * $ v v v v n b n b b n b v s $ 7 ",
"@.4 # & - p p - p - - p - - - $ @ 4 ' O.O.O.O.O.O.O.O.O.O.O.O.O.O.O.O.O.O.O.O.O.O.O.O.O.O.O.' 1 $ & & - - - - - p - - - - & # 7 ",
"$.e 1 3 1 3 ; 4 < 3 < 3 3 > 3 , 3 e $.4.4.4.4.4.4.4.4.4.4.4.4.4.3.4.4.4.4.4.4.4.4.4.4.4.4.4.$.e 1 3 , 3 > 4 3 3 < 3 1 1 1 1 1 e ",
";.@.X.X.X.X.X.X.X.] X.O.X.X.X.X.X.#.1.4.4.4.4.4.4.4.4.4.4.4.4.4.4.4.4.4.4.4.4.4.4.4.4.4.4.4.1.@.X.X.X.X.X.X.] X.X.X.X.X.X.X.X.@.",
",.3.4.4.3.4.4.4.4.4.4.4.4.4.3.4.4.4.4.4.4.4.4.4.4.4.4.4.4.4.4.4.4.4.4.4.4.4.4.4.4.4.4.4.4.4.4.4.3.4.4.4.3.4.4.4.4.4.4.4.4.4.3.:.",
">.4.4.4.4.4.4.4.4.4.4.4.4.4.4.4.4.4.4.4.4.4.4.4.4.4.4.4.4.4.4.4.4.4.4.4.4.4.4.4.4.4.4.4.4.4.4.4.4.4.4.4.4.4.4.4.4.4.4.4.4.4.2.-.",
">.4.4.4.4.4.4.4.4.4.4.4.4.4.4.4.4.4.4.4.4.4.4.4.4.4.4.4.4.4.4.4.4.4.4.4.4.4.4.4.4.4.4.4.4.4.4.4.4.4.4.4.4.4.4.4.4.4.4.4.4.4.2.-.",
">.3.4.4.4.4.4.4.4.4.4.4.4.4.4.4.4.4.4.4.4.4.4.4.4.4.4.4.4.4.4.4.4.4.4.4.4.4.4.4.4.4.4.4.4.4.4.4.4.4.4.4.4.4.4.4.4.4.4.4.4.4.2.-.",
">.3.4.4.4.4.4.4.4.4.4.4.4.4.4.4.4.4.4.4.4.4.4.4.4.4.4.4.4.4.4.4.4.4.4.4.4.4.4.4.4.4.4.4.4.4.4.4.4.4.4.4.4.4.4.4.4.4.4.4.4.4.2.-.",
"-.3.4.4.4.4.4.4.4.4.4.4.4.4.4.4.4.4.4.4.4.4.4.4.4.4.4.4.4.4.4.4.4.4.4.4.4.4.4.4.4.4.4.4.4.4.4.4.4.4.4.4.4.4.4.4.4.4.4.4.4.4.3.*."
};
