/* XPM */
static char *result[] = {
/* columns rows colors chars-per-pixel */
"64 64 58 1 ",
"  c #E88046",
". c #E88146",
"X c #E98147",
"o c #E98247",
"O c #EA8348",
"+ c #EA8548",
"@ c #EB8549",
"# c #EC874A",
"$ c #EC884A",
"% c #ED894B",
"& c #ED8A4B",
"* c #EE8B4C",
"= c #EE8C4C",
"- c #EE8D4C",
"; c #EF8D4D",
": c #EF8E4D",
"> c #F08F4E",
", c #F0904E",
"< c #F1914F",
"1 c #F1924F",
"2 c #F29350",
"3 c #F29450",
"4 c #F39551",
"5 c #F39651",
"6 c #F49752",
"7 c #F49852",
"8 c #F59953",
"9 c #F59A53",
"0 c #F69A54",
"q c #F69B54",
"w c #F69C54",
"e c #F79C55",
"r c #F79D55",
"t c #F79E55",
"y c #F89E56",
"u c #F89F56",
"i c #F8A056",
"p c #F9A057",
"a c #F9A157",
"s c #F9A257",
"d c #FAA258",
"f c #FAA358",
"g c #FAA458",
"h c #FBA459",
"j c #FBA559",
"k c #FBA659",
"l c #FCA65A",
"z c #FCA75A",
"x c #FCA85A",
"c c #FDA85B",
"v c #FDA95B",
"b c #FDAA5B",
"n c #FDAA5C",
"m c #FEAA5C",
"M c #FEAB5C",
"N c #FEAC5C",
"B c #FFAC5D",
"V c #FFAD5D",
/* pixels */
",sVVVVVVVVVVVVVVVVVVVVVVVVVVVVVVVVVVVVVVVVVVVVVVVVVVVVVVVVVVVVVV",
"ixVVVVVVVVVVVVVVVVVVVVVVVVVVVVVVVVVVVVVVVVVVVVVVVVVVVVVVVVVVVVVV",
"VVVVVVVVVVVVVVVVVVVVVVVVVVVVVVVVVVVVVVVVVVVVVVVVVVVVVVVVVVVVVVVV",
"VVVVVVVVVVVVVVVVVVVVVVVVVVVVVVVVVVVVVVVVVVVVVVVVVVVVVVVVVVVVVVVV",
"VVVVVVVVVVVVVVVVVVVVVVVVVVVVVVVVVVVVVVVVVVVVVVVVVVVVVVVVVVVVVVVV",
"VVVVBgwavVVVVVVVVVVVVVVVVVVVVVVVVVVVVVVVVzutkVVVVVVVVVVVVVVVVVVV",
"VVVVN9$2jVVVVVVVVVVVVVVVVVVVVVVVVVVVVVVVVa>=rVVVVVVVVVVVVVVVVVVV",
"VVVVNw=<qfvVVVVVVVVVVVVVVVVVVVVVVVVVVVVVVd1;6alBVVVVVVVVVVVVVVVV",
"VVVVVki6>2sVVVVVVVVVVVVVVVVVVVVVVVVVVVVVVvsq1-wMVVVVVVVVVVVVVVVV",
"VVVVVVVt=-uVVVVVVVVVVVVVVVVVVVVVVVVVVVVVVVVk2@7mVVVVVVVVVVVVVVVV",
"VVVVVVVkrrkVVVVVVVVVVVVVVVVVVVVVVVVVVVVVVVVvp8dNVVVVVVVVVVVVVVVV",
"VVVVVVVVVVVVVVVVVVVVVVVVVVVVVVVVVVVVVVVVVVVVVVVVVVVVVVVVVVVVVVVV",
"VVVVVVVVVVVVVVVVVVVVVVVVVVVVVVVVVVVVVVVVVVVVVVVVVVVVVVVVVVVVVVVV",
"VVVVVVVVVVVVVVVVVVVVVVVVVVVVVVVVVVVVVVVVVVVVVVVVVVVVVVVVVVVVVVVV",
"VVVVVVVVVVVVVVVVVVbfrjBVVVVVVVVVVVVVVVVVVVVVVVVVVVVVVVVktsvVVVVV",
"VVVVVVVVVVVVVVVVVVk4%9MVVVVVVVVVVVVVVVVVVVVVVVVVVVVVVVVw*2hVVVVV",
"VVVVVVVVVVVVVVVVbjr<%9MVVVVVVVVVVVVVVVVVVVVVVVVVVVVVNzs5&2gVVVVV",
"VVVVVVVVVVVVVVVVf4,5rjBVVVVVVVVVVVVVVVVVVVVVVVVVVVVVvq;30svVVVVV",
"VVVVVVVVVVVVVVVVi=%eVVVVVVVVVVVVVVVVVVVVVVVVVVVVVVVVz3X4cVVVVVVV",
"VVVVVVVVVVVVVVVVkw0hVVVVVVVVVVVVVVVVVVVVVVVVVVVVVVVVni5pMVVVVVVV",
"VVVVVVVVVVVVVVVVVBBVVVVVVVVVVVVVVVVVVVVVVVVVVVVVVVVVVBNBVVVVVVVV",
"VVVVVVVVVVVVVVVVVVVVVVVVVVVVVVVVVVVVVVVVVVVVVVVVVVVVVVVVVVVVVVVV",
"VVVVVVVVVVVVVVVVVVVVVVVVVVVVVVVVVVVVVVVVVVVVVVVVVVVVVVVVVVVVVVVV",
"VVVVVVVVVVVVVVVVVVVVVVVVVVVVVVVVVVVVVVVVVVVVVVVVVVVVVVVVVVVVVVVV",
"VVVVVVVVVVVVVVVVVVVVVVVVVVVVVVVVVVVVVVVVVVVVVVVVVVVVVVVVVVVVVVVV",
"VVVVVVVVVVVVVVVVVVVVVVVVVVVVVVVVVVVVVVVVVVVVVVVVVVVVVVVVVVVVVVVV",
"VVVVVVVVVVVVVVVVVVVVVVVVVVVVVVVVVVVVVVVVVVVVVVVVVVVVVVVVVVVVVVVV",
"VVVVVVVVVVVVVVVVVVVVVVVVVVVVVVVVVVVVVVVVVVVVVVVVVVVVVVVVVVVVVVVV",
"VVVVVVVVVVVVVVVVVVVVVVVVVVVVVVVVVVVVVVVVVVVVVVVVVVVVVVVVVVVVVVVV",
"VVVVVVVVVVVVVVVVVVVVVVVVVVVVVVVVVVVVVVVVVVVVVVVVVVVVVVVVVVVVVVVV",
"VVVVVVVVVVVVVVVVVVVVVVVVVVVVVVVVVVVVVVVVVVVVVVVVVVVVVVVVVVVVVVVV",
"VVVVVVVVVVVVVVVVVVVVVVVVVVVVVVVVVVVVVVVVVVVVVVVVVVVVVVVVVVVVVVVV",
"VVVVVVVVVVVVVVVVVVVVVVVVVVVVVVVVVVVVVVVVVVVVVVVVVVVVVVVVVVVVVVVV",
"VVVVVVVVVVVVVVVVVVVVVVVVVVVVVVVVVVVVVVVVVVVVVVVVVVVVVVVVVVVVVVVV",
"VVVVVVVVVVVVVVVVVVVVVVVVVVVVVVVVVVVVVVVVVVVVVVVVVVVVVVVVVVVVVVVV",
"VVVVVVVVVVVVVVVVVVVVVVVVVVVVVVVVVVVVVVVVVVVVVVVVVVVVVVVVVVVVVVVV",
"VVVVVVVVVVVVVVVVVVVVVVVVVVVVVVVVVVVVVVVVVVVVVVVVVVVVVVVVVVVVVVVV",
"VVVVVVVVVVVVVVVVVVVVVVVVVVVVVVVVVVVVVVVVVVVVVVVVVVVVVVVVVVVVVVVV",
"VVVVVVVVVVVVVVVVVVVVVVVVVVVVVVVVVVVVVVVVVVVVVVVVVVVVVVVVVVVVVVVV",
"VVVVVVVVVVVVVVVVVVVVVVVVVVVVVVVVVVVVVVVVVVVVVVVVVVVVVVVVVVVVVVVV",
"VVVVVVVVVVVVVVVVVVVVVVVVVVVVVVVVVVVVVVVVVVVVVVVVVVVVVVVVVVVVVVVV",
"VVVVVVVVVVVVVVVVVVVVBxfzMVVVVVVVVVVVVVVVVbkjvVVVVVVVVVVVVVVVVVVV",
"VVVVVVVVVVVVVVVVVVVVMr>9zVVVVVVVVVVVVVVVVg52aVVVVVVVVVVVVVVVVVVV",
"VVVVVVVVVVVVVVVVVVBmk3o<jVVVVVVVVVVVVVVVVi=#8vMVVVVVVVVVVVVVVVVV",
"VVVVVVVVVVVVVVVVVVcr245uvVVVVVVVVVVVVVVVVkw434iMVVVVVVVVVVVVVVVV",
"VVVVVVVVVVVVVVVVVVh>.4vNVVVVVVVVVVVVVVVVVBNf> 4bVVVVVVVVVVVVVVVV",
"VVVVVVVVVVVVVVVVVVxq1yMVVVVVVVVVVVVVVVVVVVVxq<tMVVVVVVVVVVVVVVVV",
"VVVVVVVVVVVVVVVVVVNckvVVVVVVVVVVVVVVVVVVVVVNckvBVVVVVVVVVVVVVVVV",
"VVVVVVVVVVVVVVVVVVVVVVVVVVVVVVVVVVVVVVVVVVVVVVVVVVVVVVVVVVVVVVVV",
"VVVVVVVVVVVVVVVVVVVVVVVVVVVVVVVVVVVVVVVVVVVVVVVVVVVVVVVVVVVVVVVV",
"VVVVVVVmzzmVVVVVVVVVVVVVVVVVVVVVVVVVVVVVVVVVVVVVVVVVVVVvkxMVVVVV",
"VVVVVVVf55fVVVVVVVVVVVVVVVVVVVVVVVVVVVVVVVVVVVVVVVVVVVVi28lVVVVV",
"VVVVVVVr$$wMBVVVVVVVVVVVVVVVVVVVVVVVVVVVVVVVVVVVVVVVVNM6O;sVVVVV",
"VVVVVVVg8347dVVVVVVVVVVVVVVVVVVVVVVVVVVVVVVVVVVVVVVVbi443wzVVVVV",
"VVVVVVVNbi:+8BVVVVVVVVVVVVVVVVVVVVVVVVVVVVVVVVVVVVVVz2 1jmBVVVVV",
"VVVVVVVVVk7<uVVVVVVVVVVVVVVVVVVVVVVVVVVVVVVVVVVVVVVVvq:wbVVVVVVV",
"VVVVVVVVVMlhvVVVVVVVVVVVVVVVVVVVVVVVVVVVVVVVVVVVVVVVNzfxNVVVVVVV",
"jbVVVVVVVVVVVVVVVVVVVVVVVVVVVVVVVVVVVVVVVVVVVVVVVVVVVVVVVVVVVVVV",
"4fVVVVVVVVVVVVVVVVVVVVVVVVVVVVVVVVVVVVVVVVVVVVVVVVVVVVVVVVVVVVVV",
"%uVVVVVVVVVVVVVVVVVVVVVVVVVVVVVVVVVVVVVVVVVVVVVVVVVVVVVVVVVVVVVV",
"%uVVVVVVVVVVVVVVVVVVVVVVVVVVVVVVVVVVVVVVVVVVVVVVVVVVVVVVVVVVVVVV",
"%uVVVVVVVVVVVVVVVVVVVVVVVVVVVVVVVVVVVVVVVVVVVVVVVVVVVVVVVVVVVVVV",
"%uVVVVVVVVVVVVVVVVVVVVVVVVVVVVVVVVVVVVVVVVVVVVVVVVVVVVVVVVVVVVVV",
"%uVVVVVVVVVVVVVVVVVVVVVVVVVVVVVVVVVVVVVVVVVVVVVVVVVVVVVVVVVVVVVV"
};
