/* XPM */
static char *result[] = {
/* columns rows colors chars-per-pixel */
"64 64 159 2 ",
"   c #0E071B",
".  c #140A1C",
"X  c #1A0F1E",
"o  c #20141E",
"O  c #28181F",
"+  c #0F1525",
"@  c #1F1825",
"#  c #111731",
"$  c #231522",
"%  c #2E1620",
"&  c #2B1C25",
"*  c #361B23",
"=  c #112C35",
"-  c #3A2224",
";  c #34252C",
":  c #3D242C",
">  c #38282E",
",  c #2F3E3F",
"<  c #37383B",
"1  c #401F23",
"2  c #452325",
"3  c #4F2627",
"4  c #44252B",
"5  c #4A2C2F",
"6  c #532929",
"7  c #5B2D2A",
"8  c #4D322A",
"9  c #53342A",
"0  c #5E302B",
"q  c #5C3A2B",
"w  c #452A32",
"e  c #4D2F34",
"r  c #4E3435",
"t  c #4F3937",
"y  c #583836",
"u  c #63332A",
"i  c #633633",
"p  c #673935",
"a  c #6A3D3A",
"s  c #6D413E",
"d  c #67493E",
"f  c #744E35",
"g  c #134B4B",
"h  c #16564D",
"j  c #1C654E",
"k  c #1E6F50",
"l  c #257D4E",
"z  c #246B52",
"x  c #326D50",
"c  c #154567",
"v  c #5A4746",
"b  c #6E4441",
"n  c #604842",
"m  c #704643",
"M  c #7C5C4B",
"N  c #725A52",
"B  c #616D5B",
"V  c #65795C",
"C  c #6C7A7A",
"Z  c #895C39",
"A  c #96653C",
"S  c #99663E",
"D  c #9C6A3D",
"F  c #81604D",
"G  c #9E6B40",
"H  c #936E55",
"J  c #9C7457",
"K  c #9F7759",
"L  c #A06D40",
"P  c #A77042",
"I  c #B67B45",
"U  c #A37A5B",
"Y  c #867167",
"T  c #9C7A62",
"R  c #33984B",
"E  c #4D8261",
"W  c #6C8261",
"Q  c #719163",
"!  c #D7883C",
"~  c #DD8B3C",
"^  c #E38E3F",
"/  c #BE8149",
"(  c #979963",
")  c #A7836A",
"_  c #A8876F",
"`  c #BC997E",
"'  c #83AD6D",
"]  c #C58547",
"[  c #C48549",
"{  c #CB8A4B",
"}  c #D28E4E",
"|  c #D5904E",
" . c #D8934F",
".. c #D38D53",
"X. c #D99350",
"o. c #DD935A",
"O. c #E49143",
"+. c #E89646",
"@. c #E39448",
"#. c #EB954A",
"$. c #E6994E",
"%. c #ED9A4B",
"&. c #F0974D",
"*. c #F19D4E",
"=. c #E99554",
"-. c #E29953",
";. c #EC9E53",
":. c #F19752",
">. c #F19E50",
",. c #EDA14F",
"<. c #EEA252",
"1. c #EDA15A",
"2. c #F5A354",
"3. c #F9A656",
"4. c #F5AA57",
"5. c #F9AD56",
"6. c #F4A559",
"7. c #FBA65A",
"8. c #F7A95B",
"9. c #FEAD5D",
"0. c #F9B056",
"q. c #FCB15B",
"w. c #C4966D",
"e. c #C6986C",
"r. c #CF9D6F",
"t. c #D39762",
"y. c #D09D6F",
"u. c #D29F70",
"i. c #D6A475",
"p. c #EBA466",
"a. c #E8A569",
"s. c #F6AA64",
"d. c #FEAD61",
"f. c #F4AC6B",
"g. c #FEAE69",
"h. c #FFB162",
"j. c #FCB26A",
"k. c #075286",
"l. c #1A5683",
"z. c #046399",
"x. c #0E73A7",
"c. c #1A73A3",
"v. c #1B79A9",
"b. c #088CB5",
"n. c #0A90B4",
"m. c #0E98B3",
"M. c #449BB4",
"N. c #7B99A3",
"B. c #0083C6",
"V. c #1D98CF",
"C. c #0095D8",
"Z. c #939D86",
"A. c #DAAD83",
"S. c #E3B386",
"D. c #E4B689",
"F. c #E4BB94",
"G. c #EBC198",
"H. c #F2C69A",
"J. c #F6CA9F",
/* pixels */
"t.a.s.s.9.9.9.5.q.9.d.g.g.g.g.d.d.d.d.d.d.9.d.d.d.d.d.d.d.9.d.d.9.9.9.9.9.d.9.9.9.9.9.9.9.h.9.9.9.9.9.q.9.9.q.q.9.9.d.h.g.s.p.t.",
"a.f.s.d.d.9.9.9.9.q.g.h.d.h.d.h.d.d.9.d.d.d.9.d.7.d.d.d.d.d.d.9.9.9.d.9.9.9.9.9.h.9.9.9.9.9.9.9.q.9.9.9.q.9.9.q.0.9.q.d.9.d.s.p.",
"f.g.g.d.9.9.9.9.q.h.d.d.g.d.d.h.d.d.d.d.d.d.d.d.d.d.9.d.d.d.d.d.9.d.9.9.q.9.9.d.9.9.9.9.9.9.9.9.5.9.9.q.q.5.q.q.q.9.9.9.9.d.g.s.",
"j.g.d.d.d.d.q.q.d.h.h.d.d.d.d.d.d.7.d.9.7.d.d.d.d.7.d.d.d.7.d.9.9.9.9.9.d.9.9.9.9.9.9.9.9.9.h.9.9.9.9.5.9.q.9.s.9.h.8.q.7.9.9.d.",
"j.d.d.d.9.h.9.d.h.d.q.d.d.d.d.9.d.d.d.d.d.9.d.d.d.d.d.7.d.d.d.9.9.9.9.d.d.9.9.9.9.9.d.9.9.9.d.9.9.q.9.9.5.9.q.q.q.9.9.9.9.7.7.9.",
"h.h.h.9.9.9.7.9.9.d.d.h.d.d.d.d.d.d.d.d.d.d.d.d.d.d.d.d.d.d.d.d.d.9.9.9.9.9.9.d.5.3.7.9.9.9.9.q.9.9.9.9.9.9.9.d.d.s.d.d.9.7.7.9.",
"d.9.9.9.7.2.*.3.9.9.d.d.d.d.9.d.d.7.d.d.7.d.d.d.7.d.d.9.d.9.d.d.q.d.q.d.d.9.q.d.3.%.%.2.d.9.9.9.9.9.9.7.9.9.9.9.9.d.9.d.d.7.7.9.",
"9.9.9.9.3.%.#.*.3.7.9.9.9.9.d.d.d.d.7.d.7.d.7.d.d.d.d.d.d.d.d.7.9.9.9.9.9.9.9.9.>.O.^ 2.9.9.9.h.9.9.9.9.9.9.9.9.9.9.d.9.d.d.9.9.",
"9.9.9.9.7.>.>.*.%.2.9.9.9.9.9.9.d.7.d.d.d.d.d.d.9.d.9.d.d.d.d.9.9.d.9.9.9.9.d.d.3.>.%.%.%.3.9.9.d.d.s.s.d.d.9.9.9.9.9.9.d.d.d.d.",
"9.9.9.9.d.9.7.#.^ &.7.7.3.7.7.9.d.d.d.7.d.7.7.d.d.d.d.d.d.9.d.d.9.9.d.q.9.9.9.q.9.9.2.O.~ %.9.9.d.7.s.s.d.d.7.9.9.9.9.9.d.d.d.d.",
"9.q.d.9.d.9.9.>.&.2.9.9.7.9.9.d.d.7.9.9.d.9.9.d.9.d.9.d.9.9.d.9.9.9.9.9.d.9.9.9.9.9.7.%.%.2.h.d.d.7.d.s.d.d.9.9.9.9.9.9.9.d.d.7.",
"d.q.q.9.d.d.d.7.7.9.9.9.8.7.d.7.d.d.7.9.9.9.9.9.9.9.9.d.9.9.9.9.9.9.9.d.d.q.9.9.9.9.9.9.7.9.9.d.d.d.d.d.g.d.9.9.9.5.9.9.d.d.d.d.",
"g.h.8.h.9.9.9.9.9.d.h.h.d.8.d.9.9.d.9.9.9.9.9.9.9.9.d.9.q.d.9.d.h.9.9.9.h.9.9.h.q.d.9.9.9.h.q.d.d.d.g.d.g.9.9.9.9.9.9.d.d.d.9.9.",
"s.h.h.9.d.7.7.7.7.d.h.d.d.9.8.d.d.9.9.9.9.9.9.9.9.9.9.9.9.9.9.9.9.9.9.9.9.9.9.9.9.9.d.9.9.9.9.d.d.d.d.g.d.d.d.9.9.9.9.9.d.9.9.9.",
"g.h.s.q.d.7.7.7.7.d.d.h.9.9.d.d.d.d.9.4.7.9.9.9.9.9.9.d.9.d.9.d.9.9.h.9.9.9.h.9.d.9.9.9.9.9.9.d.d.d.d.d.d.s.7.3.5.9.9.d.9.9.9.9.",
"s.q.s.9.7.d.7.7.9.9.q.s.9.9.9.9.q.s.2.+.2.7.9.9.d.9.9.9.9.9.9.9.9.9.9.9.9.9.9.9.9.9.q.d.9.9.9.9.d.d.d.d.9.9.>.+.*.9.9.9.9.9.9.9.",
"9.q.d.9.d.7.d.d.d.7.d.9.9.9.9.7.q.h.<.O.%.7.9.9.9.9.9.d.9.9.9.9.9.d.9.9.9.9.9.d.9.9.9.9.9.9.9.9.d.7.d.d.7.3.+.~ ;.5.9.9.9.9.q.9.",
"d.d.d.d.7.d.d.7.d.d.9.d.9.9.9.3.2.$.%.<.3.9.d.9.d.9.9.9.9.9.d.d.9.9.9.9.d.9.9.9.9.h.9.9.9.h.9.9.7.d.9.7.2.%.%.%.3.d.h.9.9.d.d.9.",
"d.9.d.7.7.d.7.d.9.7.9.9.9.7.7.2.O.! %.9.h.h.q.d.d.9.G 8 8 8 8 8 8 8 9 8.9.9.9.9.9.9.9.9.9.9.9.9.d.9.9.2.O.~ %.9.9.d.9.9.q.d.9.9.",
"9.d.7.d.d.7.d.d.d.7.9.9.9.9.9.3.<.%.2.q.9.9.9.9.7.G 6 5 e e e e 5 * 2 Z 1.9.9.9.9.9.9.h.9.9.9.h.9.9.9.7.%.%.3.9.9.9.9.9.d.9.9.9.",
"d.9.d.7.d.d.d.7.7.d.9.9.9.9.9.9.9.9.9.q.q.9.9.4.I * y a m m m m a p p 4 G ;.d.d.d.9.9.9.9.9.9.9.9.d.d.9.9.7.9.h.h.9.9.9.9.9.d.9.",
"d.d.7.d.7.d.d.d.d.9.9.9.9.9.9.9.h.h.q.9.9.9.9.| X 0 s m m m m m m m m m w Z 8.d.q.d.d.9.9.h.9.9.9.9.q.9.q.d.d.h.q.9.9.9.9.9.9.9.",
"7.7.7.d.d.d.d.7.7.d.9.9.9.9.9.9.9.8.9.9.9.5.5.| $ b m m m m m m m m m m b r 9 9.9.9.9.9.9.9.9.9.9.9.q.h.d.h.9.9.d.9.h.9.9.9.q.d.",
"d.9.d.7.d.7.d.d.9.9.9.9.9.9.9.9.9.9.9.5.9.9.[ u 6 m m m m m m m m m m m b r 8 9.d.d.q.9.9.9.9.h.9.d.d.d.h.d.q.9.9.9.9.9.9.d.9.9.",
"7.7.9.9.9.9.9.9.9.9.9.8.9.9.9.9.9.7.9.9.5.9.D % u m p e : 4 i a m b p s m e 8 9.d.9.9.9.h.9.9.9.9.9.9.h.9.h.9.9.d.9.h.9.9.9.9.9.",
"9.9.9.9.9.9.9.9.9.9.9.9.9.9.9.9.9.9.5.9.9.7.D % 7 e 2 5 t r 2 y s a 7 p a 5 5 9.9.9.9.9.9.9.9.9.9.9.9.9.9.9.9.9.9.9.9.9.9.9.9.h.",
"9.9.9.9.9.9.9.7.7.9.9.9.9.9.9.9.9.9.9.9.9.5.I 2 1 . $ F i.w.> 2 i a 6 7 7 2 9 9.q.d.d.9.9.9.h.9.9.d.9.9.9.9.9.h.9.9.9.9.h.9.9.9.",
"9.9.9.9.9.9.9.9.9.9.9.9.9.9.7.9.9.9.9.5.5.9.9.] . . H A.H.G.w.r * 3 . 3 7 * 8 9.9.9.9.9.9.9.9.9.q.9.d.d.q.9.9.9.9.h.9.9.9.9.9.9.",
"9.9.9.9.9.9.9.9.9.9.9.9.9.9.9.9.9.9.5.7.9.9.5.9.{ . > _ J.F.v M d 4 H : 6 5 8 9.9.d.q.9.9.9.9.9.d.9.9.d.9.h.9.9.d.q.9.d.9.9.9.9.",
"9.9.9.9.9.9.9.9.9.9.9.9.9.9.9.9.9.9.9.9.9.5.9.9.7.X   Y J.F.& T ) F r.; w e 8 9.9.9.d.9.h.9.9.9.9.9.9.9.9.9.9.9.9.9.9.9.9.9.9.h.",
"9.9.d.9.9.9.9.9.9.9.9.7.9.7.9.9.9.9.9.9.9.9.7.9.8.X ; ) J.F.v ` D.y.y.d r y S 9.9.9.9.9.9.9.9.h.9.d.9.q.9.9.9.9.9.d.9.9.d.9.9.9.",
"9.9.9.9.9.9.9.9.9.9.9.9.9.9.9.9.9.7.9.5.5.9.5.9.8.o K S.J.J.J.J.D.u.y.y.n L 9.9.9.9.h.9.9.9.9.9.9.9.9.d.9.9.h.9.9.9.9.d.q.9.9.9.",
"9.9.9.9.9.9.7.9.9.9.9.9.9.9.9.9.9.9.9.9.9.7.5.9.9.7.f H S.J.J.D.i.u.r.t / 9.9.d.9.9.9.9.9.9.9.9.9.9.h.9.9.9.d.9.9.9.9.9.9.9.9.9.",
"9.9.9.7.9.9.9.9.7.9.9.5.9.9.7.9.7.5.9.5.9.5.9.9.9.q.f < W ' ' Q V B B @ ..9.9.9.d.q.9.d.d.q.9.h.9.9.9.9.9.9.q.d.d.9.9.9.h.9.9.9.",
"9.9.9.9.9.9.9.9.9.9.9.9.5.9.9.5.9.9.7.9.9.5.9.9.9.9.f = j R R l j h g + } 9.9.9.9.d.9.9.9.9.9.9.9.9.9.9.9.9.9.9.9.q.d.d.9.9.9.h.",
"9.9.9.9.9.9.9.9.9.9.9.7.5.9.9.5.9.5.9.5.9.9.5.9.9.4.f , x R R l z z x < [ 9.d.9.9.9.9.9.9.d.9.9.9.h.9.9.9.h.9.9.9.9.9.9.9.9.9.9.",
"9.9.9.9.5.7.9.9.9.9.9.7.9.5.9.9.9.9.5.7.5.9.9.9.4.- J e.( R R l k E G.F.N P 9.9.9.9.9.h.9.9.9.9.9.9.9.9.9.9.9.9.9.h.9.9.9.9.9.9.",
"9.9.9.9.9.9.9.9.9.5.5.9.9.5.9.7.5.9.9.9.9.9.5.9.7.X U y.Z.m.m.n.b.M.J.J.N G 9.d.9.9.9.9.9.9.h.9.9.9.9.h.9.9.9.h.9.9.9.9.h.9.9.9.",
"9.9.9.9.9.9.9.9.9.9.9.9.5.9.9.9.9.9.5.9.9.5.9.9.5.Z d C M.C.B.C.C.V.N.Y M { 9.9.9.h.9.9.9.9.9.9.h.9.9.9.h.9.9.9.9.9.9.9.9.9.9.h.",
"9.9.9.9.9.9.9.9.7.9.9.5.9.9.5.9.9.7.5.9.9.5.9.9.5. .9 c v.c.k.z.x.c.l.# A ;.9.9.9.9.9.9.h.9.d.9.9.9.9.9.9.9.9.9.9.9.h.9.9.9.9.9.",
"9.9.9.9.9.9.9.9.9.9.5.9.9.5.9.9.5.9.5.9.9.5.9.3. . .q 2 u 0 $ o - u u O D  .-.d.9.9.q.9.9.d.9.9.9.9.9.9.9.9.9.d.9.h.9.9.9.9.9.9.",
"9.9.9.9.7.9.5.9.9.9.7.9.9.9.9.q.9.9.9.9.3.3.3.3. . .[ ] ] ] [ [ [ { { [ { X.-.d.9.7.7.9.9.9.9.9.9.9.9.9.d.9.9.9.9.9.9.9.9.d.9.9.",
"9.9.9.9.9.9.9.9.9.5.9.9.5.9.9.h.9.h.9.4.2.%.*.3.8.|  .X. . . . . .|  .X.X.;.9.9.3.%.%.3.7.5.9.9.d.9.9.9.9.9.9.9.9.9.9.9.h.9.d.9.",
"5.7.9.5.9.9.7.5.9.7.5.5.9.9.h.h.h.q.7.2.%.O.%.3.9.6.6.6.4.6.6.<.6.6.6.6.6.8.9.9.3.%.%.*.3.7.9.q.9.9.9.9.9.9.9.7.9.9.9.9.9.9.9.9.",
"5.9.7.5.5.5.7.9.9.7.9.9.9.9.9.9.q.9.2.%.%.*.3.7.9.h.9.9.9.d.d.9.9.9.9.9.9.d.h.9.7.3.;.%.%.2.9.7.9.7.9.9.9.9.7.9.9.9.9.9.9.9.9.9.",
"9.9.9.9.9.9.5.9.9.5.5.9.5.9.9.9.9.7.%.O.%.3.9.9.9.9.9.9.9.q.9.9.d.9.9.9.9.9.9.9.9.9.3.+.^ %.7.7.3.7.7.9.9.9.9.9.9.9.9.9.9.9.9.h.",
"5.9.5.9.9.7.9.9.9.9.7.5.9.9.5.8.9.9.3.%.3.d.h.9.9.9.d.q.9.d.9.9.9.9.9.d.q.9.d.9.9.9.7.2.*.3.5.8.7.7.9.9.9.9.7.9.9.9.9.9.h.9.9.9.",
"7.9.9.9.9.9.9.5.5.9.9.9.9.5.7.7.9.d.q.9.s.h.h.q.d.9.9.9.9.9.9.d.9.9.d.q.d.9.9.9.9.d.q.9.9.9.d.9.7.9.5.9.9.9.9.9.9.7.9.9.9.9.9.9.",
"9.9.9.9.9.7.5.5.9.9.9.9.9.7.7.5.9.h.9.9.h.h.h.9.9.d.9.d.9.9.9.9.q.9.9.9.9.9.q.d.q.9.9.9.9.d.d.9.7.8.9.9.9.9.9.d.9.9.9.9.9.9.d.9.",
"9.9.9.9.9.5.9.9.7.9.9.9.5.9.7.7.9.d.9.9.9.9.d.9.9.q.9.9.9.9.q.d.d.9.9.9.9.9.d.9.8.7.7.7.9.9.q.9.5.9.9.d.9.9.9.7.9.7.9.d.9.d.d.d.",
"d.q.9.9.9.9.5.3.2.4.9.9.9.9.5.9.9.q.9.9.9.9.9.d.9.9.9.9.9.9.9.d.9.d.9.9.d.9.9.9.9.9.7.5.7.9.9.9.9.9.9.s.d.d.7.>.7.9.9.9.9.d.d.d.",
"h.d.d.9.9.5.7.*.+.2.h.h.s.8.9.d.9.9.h.9.h.9.d.q.9.h.9.h.h.9.d.q.h.9.h.d.d.q.9.9.9.9.7.9.7.9.9.9.8.9.d.d.g.g.2.%.>.9.9.7.9.8.d.d.",
"h.h.h.h.9.9.7.&.O.<.8.s.8.s.9.d.h.9.d.d.9.d.9.h.q.d.h.9.q.d.d.d.9.9.q.d.h.9.q.d.9.9.9.9.9.9.7.9.d.s.g.s.s.8.;.O.>.9.9.9.7.d.s.g.",
"d.g.h.h.q.9.7.>.;.%.$.<.8.9.9.h.d.d.q.d.h.d.q.9.d.d.9.d.9.d.q.d.9.h.d.d.9.d.d.9.9.9.9.9.9.9.9.9.9.9.8.8.,.,.;.2.7.d.d.9.g.d.d.g.",
"9.d.h.h.h.9.9.9.9.%.! @.6.8.d.d.d.q.9.h.9.q.d.d.q.q.d.d.h.d.d.d.q.d.q.d.q.d.d.9.9.9.9.9.9.9.9.9.9.8.s.<. .~ <.d.d.d.d.g.g.h.g.g.",
"9.d.q.d.d.9.9.d.8.2.+.2.8.9.9.h.d.d.q.9.d.d.q.9.d.d.d.q.9.q.d.q.d.d.q.d.9.h.9.9.9.9.9.9.9.9.9.9.9.9.q.4.,.,.8.h.d.d.d.d.g.h.d.g.",
"9.q.9.9.d.d.d.g.g.9.9.9.9.9.9.q.9.9.h.h.9.q.9.h.d.q.q.d.d.q.q.d.d.9.h.9.h.h.9.9.9.h.9.9.9.9.9.4.q.0.0.q.q.h.q.d.d.d.d.d.d.g.g.g.",
"3.7.9.9.7.d.>.>.9.9.9.9.q.5.9.9.h.d.9.9.d.d.9.h.d.d.d.d.d.d.d.9.9.h.9.d.9.9.q.9.9.9.9.9.9.9.9.9.9.q.0.q.q.q.q.d.9.9.d.d.d.d.d.6.",
"*.9.9.7.7.7.7.d.7.7.5.5.5.9.q.q.q.d.9.9.9.h.9.d.q.d.q.d.q.d.9.h.q.9.h.d.q.9.d.d.9.9.9.9.9.9.9.9.9.q.0.0.0.0.5.d.d.7.d.7.d.s.7.:.",
"&.7.9.9.7.d.7.d.7.9.4.5.q.q.q.9.9.9.d.d.d.9.q.d.d.d.9.h.d.d.9.h.d.d.9.q.d.h.9.9.d.9.9.d.9.9.9.9.9.q.0.0.0.0.7.d.d.d.d.d.7.s.7.=.",
"&.7.9.9.9.7.d.7.9.9.5.5.0.0.9.q.9.d.d.9.d.9.9.h.h.9.d.q.q.d.d.9.d.d.d.d.d.d.d.q.9.9.9.q.9.q.9.9.9.5.q.q.5.9.9.d.d.7.d.d.d.d.:.:.",
":.7.7.9.9.9.d.d.9.5.0.0.0.0.q.9.9.d.d.d.d.d.d.d.d.h.d.d.d.d.h.d.q.q.d.q.d.q.d.d.h.9.9.9.9.9.9.9.9.q.q.5.9.7.d.d.s.d.d.7.>.d.>.=.",
"=.7.d.9.9.9.9.9.9.5.0.0.0.0.5.9.9.d.d.9.d.9.d.d.h.d.d.h.d.h.h.d.d.d.h.9.q.9.q.d.9.9.9.d.9.9.9.9.9.9.9.5.7.d.7.s.s.s.d.7.7.d.s.o.",
"o.s.g.9.9.7.9.9.9.9.0.5.0.q.9.q.9.9.d.d.d.d.d.d.d.d.h.d.h.d.d.d.d.q.9.d.d.h.9.d.d.d.q.9.9.9.9.q.9.9.5.9.d.7.d.s.s.s.d.7.7.s.1..."
};
