/* XPM */
static char *result[] = {
/* columns rows colors chars-per-pixel */
"64 64 163 2 ",
"   c #0E071B",
".  c #150B1C",
"X  c #1B0F1D",
"o  c #1D111E",
"O  c #26141F",
"+  c #291A1E",
"@  c #190E20",
"#  c #171020",
"$  c #1F1424",
"%  c #221522",
"&  c #2B1621",
"*  c #241926",
"=  c #2C1A26",
"-  c #2D1D28",
";  c #331B22",
":  c #3A1D24",
">  c #2B222B",
",  c #3B2127",
"<  c #37222C",
"1  c #3A2A2F",
"2  c #322530",
"3  c #452425",
"4  c #492324",
"5  c #442C25",
"6  c #492A29",
"7  c #532A28",
"8  c #5D2E2A",
"9  c #4C3327",
"0  c #4F3528",
"q  c #57392A",
"w  c #493238",
"e  c #543434",
"r  c #5A3939",
"t  c #62322E",
"y  c #623532",
"u  c #653835",
"i  c #643E3E",
"p  c #6A3E3B",
"a  c #62412D",
"s  c #6D482F",
"d  c #734E2D",
"f  c #6C4B36",
"g  c #63433D",
"h  c #6D413E",
"j  c #744E31",
"k  c #775237",
"l  c #7B5333",
"z  c #163D62",
"x  c #164A4A",
"c  c #185A4E",
"v  c #2C5650",
"b  c #1E6E50",
"n  c #277D4B",
"m  c #5A4544",
"M  c #6E4341",
"N  c #624941",
"B  c #694D43",
"V  c #704643",
"C  c #62584B",
"Z  c #725446",
"A  c #7A5A49",
"S  c #685851",
"D  c #7A6F59",
"F  c #5A7265",
"G  c #815734",
"H  c #865B33",
"J  c #8A5C33",
"K  c #8E613A",
"L  c #946436",
"P  c #94643B",
"I  c #9B6939",
"U  c #A36F3F",
"Y  c #8F6B53",
"T  c #82685D",
"R  c #926E55",
"E  c #9B7559",
"W  c #A97340",
"Q  c #B47A43",
"!  c #BA7E45",
"~  c #A67D5D",
"^  c #967968",
"/  c #2F904C",
"(  c #33984B",
")  c #D7883C",
"_  c #DD8B3C",
"`  c #E38E3F",
"'  c #AC815F",
"]  c #8C8263",
"[  c #908E64",
"{  c #B28764",
"}  c #BB9068",
"|  c #A4AA78",
" . c #C48548",
".. c #CB894A",
"X. c #D5914E",
"o. c #D9934F",
"O. c #D38D53",
"+. c #DE9452",
"@. c #DD935A",
"#. c #E49143",
"$. c #E89646",
"%. c #E39448",
"&. c #EB954A",
"*. c #E6994E",
"=. c #ED9A4B",
"-. c #F0974D",
";. c #F19D4E",
":. c #E99554",
">. c #E49A53",
",. c #EC9E53",
"<. c #F19752",
"1. c #F19E50",
"2. c #EDA14F",
"3. c #EEA253",
"4. c #EEA25C",
"5. c #F5A354",
"6. c #F9A656",
"7. c #F5AA57",
"8. c #F9AD56",
"9. c #F4A45A",
"0. c #FBA65A",
"q. c #F7AA5C",
"w. c #FEAD5D",
"e. c #F9B056",
"r. c #FCB15B",
"t. c #C6956B",
"y. c #D39762",
"u. c #C59C76",
"i. c #C19A7B",
"p. c #D29F70",
"a. c #CEA27A",
"s. c #D5A374",
"d. c #D9A97B",
"f. c #EBA466",
"g. c #E8A569",
"h. c #F6AA64",
"j. c #FEAD61",
"k. c #F4AC6B",
"l. c #FEAE69",
"z. c #FFB162",
"x. c #FCB26A",
"c. c #045488",
"v. c #176896",
"b. c #2B6990",
"n. c #046EA5",
"m. c #1878A9",
"M. c #098DB5",
"N. c #0C93B3",
"B. c #0E98B3",
"V. c #2287AA",
"C. c #558495",
"Z. c #0085C8",
"A. c #108EC7",
"S. c #008ED1",
"D. c #0098DC",
"F. c #D5AE8C",
"G. c #DEB188",
"H. c #E1B184",
"J. c #E5BC95",
"K. c #EABC90",
"L. c #EDC196",
"P. c #F2C599",
"I. c #F6CA9F",
/* pixels */
"y.g.h.h.j.w.w.w.r.w.j.l.l.l.j.z.j.j.w.w.j.j.j.0.j.j.j.j.w.j.j.j.w.w.w.j.w.w.w.j.w.w.w.z.w.w.w.w.w.w.w.r.w.w.r.8.w.r.r.z.h.l.f.y.",
"g.k.h.j.w.w.w.8.w.r.l.z.j.z.l.j.j.j.j.j.0.j.j.j.j.j.0.j.j.j.j.0.j.w.w.w.w.w.r.w.j.w.w.w.w.w.w.w.w.r.w.w.r.8.w.r.r.w.w.w.j.h.h.f.",
"k.l.l.j.j.w.w.w.r.z.j.j.j.l.j.z.j.j.0.j.j.j.j.w.w.j.j.j.j.j.j.0.w.w.w.w.w.w.j.w.j.w.w.w.w.j.r.w.w.w.w.r.r.w.r.q.j.r.w.w.w.j.j.h.",
"x.l.j.j.j.w.r.w.j.z.z.j.j.j.j.w.j.j.j.j.j.j.j.j.j.j.j.j.j.j.j.j.w.w.j.w.w.j.w.w.r.w.w.w.w.w.j.w.8.w.8.w.w.r.r.j.r.j.j.w.w.w.j.j.",
"x.j.j.j.w.z.w.w.z.j.z.j.j.j.j.j.j.j.j.j.j.j.j.j.j.j.0.j.j.j.w.w.w.w.j.r.w.j.w.w.w.w.w.w.w.w.j.r.w.r.w.w.w.r.w.r.q.w.w.j.0.0.w.w.",
"z.z.z.w.w.w.w.w.w.w.w.z.j.j.j.w.j.j.j.w.0.j.w.j.j.0.j.j.j.j.j.j.w.j.w.w.r.j.w.w.w.6.6.w.j.w.w.w.w.w.w.w.w.w.w.w.z.j.j.w.j.0.0.0.",
"j.w.w.w.0.5.1.5.w.w.w.j.j.w.j.j.j.0.0.j.j.j.j.j.j.j.j.j.j.j.j.w.w.w.w.w.w.w.w.j.5.=.&.7.w.w.w.w.w.w.w.0.w.w.w.w.r.j.j.j.j.0.8.0.",
"w.w.w.w.6.=.&.;.6.0.w.j.w.j.j.w.j.j.j.j.0.j.0.j.j.j.j.w.0.j.j.j.w.j.j.w.w.j.r.w.1.#.` 5.w.w.j.w.w.w.w.w.w.w.w.w.w.w.w.j.j.j.w.j.",
"w.w.w.w.0.5.1.-.=.5.0.w.w.w.w.w.0.j.j.j.j.0.j.j.w.j.w.j.j.w.j.w.r.w.w.w.w.j.w.r.0.1.=.=.=.7.w.w.j.j.0.h.j.0.w.w.w.w.w.j.j.j.j.0.",
"w.w.w.w.w.w.0.=.` -.w.0.6.0.0.w.j.j.0.j.j.j.w.j.j.j.j.j.j.j.j.j.j.w.w.j.w.w.w.w.w.w.5.#._ =.w.w.0.j.h.h.j.j.w.w.w.w.w.w.j.j.j.l.",
"w.w.r.j.w.j.0.5.-.5.w.w.0.w.j.w.0.j.j.w.w.0.j.j.w.j.j.w.w.w.j.w.w.j.w.w.j.w.w.w.w.j.0.=.=.5.z.j.j.j.j.h.j.j.w.w.w.8.w.w.j.j.j.0.",
"j.r.j.w.w.j.j.0.0.w.w.w.q.0.0.j.j.j.0.w.w.w.w.w.w.w.w.j.w.w.w.w.w.w.j.r.r.j.w.w.j.r.w.0.0.w.w.j.j.j.l.j.j.l.w.w.w.w.w.w.j.j.j.w.",
"j.z.z.q.w.w.w.w.w.j.z.z.j.w.w.j.j.w.w.w.w.w.w.w.w.j.w.w.w.w.w.w.w.w.r.j.w.w.w.z.r.j.j.w.w.z.r.j.j.j.l.j.j.j.w.w.w.w.w.j.w.j.w.w.",
"h.z.q.z.j.0.0.0.0.w.z.j.j.q.q.j.j.q.w.w.w.w.w.w.w.w.w.w.w.w.z.w.j.w.w.w.w.j.w.w.w.w.w.w.w.w.w.j.j.j.l.j.l.j.j.w.w.w.w.w.j.w.w.w.",
"h.z.z.j.j.0.0.0.0.j.z.j.j.w.w.j.w.j.w.7.0.w.w.w.w.w.w.j.w.w.w.w.r.w.w.w.w.w.z.w.w.w.w.w.w.w.w.j.j.j.j.j.z.w.6.6.8.w.w.j.w.w.w.w.",
"r.z.h.w.0.j.0.0.w.w.j.j.w.q.w.w.z.j.5.$.5.0.w.w.j.w.w.w.z.w.w.w.j.w.w.j.w.w.w.w.j.w.r.j.w.w.w.w.j.j.h.j.j.0.1.&.;.w.w.j.w.w.w.w.",
"j.j.j.w.0.j.j.0.j.0.j.w.w.w.0.w.r.j.3.` =.0.w.w.w.w.j.r.j.w.w.w.w.w.w.j.w.w.w.w.j.r.j.w.w.w.j.r.0.j.j.0.w.5.&._ =.w.r.j.w.w.w.w.",
"j.j.j.j.j.0.j.j.j.j.w.j.w.w.w.0.3.*.=.5.7.w.w.w.w.w.w.w.j.w.z.w.j.w.w.r.j.w.w.w.w.w.w.w.w.j.w.w.j.0.w.0.;.=.=.=.7.w.j.w.w.j.w.w.",
"j.h.w.0.0.j.0.j.w.0.w.w.w.0.0.5.$.) =.w.r.z.z.w.w.w.w.w.w.w.w.w.w.w.w.j.w.w.w.w.w.j.w.w.w.w.w.w.j.w.j.5.#._ =.w.w.w.j.w.w.j.w.r.",
"w.w.w.w.j.j.0.j.j.0.w.w.w.w.w.6.2.=.5.r.j.w.w.w.w.w.w...a a a a a a a a P w.w.w.w.w.w.j.r.j.j.w.w.w.w.0.2.=.5.w.w.w.w.w.w.w.w.j.",
"j.j.j.0.0.j.0.j.0.j.w.w.w.w.w.w.w.w.w.w.r.w.w.w.w.w...s = : 2 : < < ; = 6 W 4.w.w.z.w.w.w.r.j.w.w.z.w.w.w.0.w.z.r.w.w.w.w.j.r.j.",
"0.0.j.j.j.j.j.j.j.j.w.w.w.w.w.w.z.z.r.w.w.w.w.w.w.o.s ; y M V V V V y t 6 < ! 4.w.w.w.w.j.w.w.w.w.w.w.z.j.r.z.z.j.z.w.w.w.w.w.w.",
"j.0.0.j.j.j.0.j.w.q.w.w.w.w.w.w.w.q.8.w.w.w.8.w.w.0 ; y V V V V V V V V V i # Q w.w.w.w.w.w.z.w.w.j.j.w.z.j.z.w.w.w.j.w.r.w.w.w.",
"0.w.0.j.w.j.0.j.w.w.w.w.w.w.w.w.w.w.w.w.8.8.8.w.j.0 , h V V V V V V V V V M r 6 I w.z.w.w.w.w.w.w.r.w.z.j.r.w.w.w.j.w.w.j.w.w.j.",
"w.0.w.w.w.w.w.w.j.w.w.w.w.w.w.w.w.0.w.w.8.0.w.,.l 4 e V V V V M V V V V V V V - l w.w.w.w.w.w.w.w.w.w.z.w.z.w.w.w.w.j.w.w.j.w.w.",
"w.w.w.w.w.w.w.w.w.q.w.w.w.w.w.w.w.w.w.8.w.8.8.X.X 4 u h p e e r p V V h h V V - l w.w.j.w.w.w.j.w.w.w.w.w.w.w.w.w.w.r.w.w.w.r.w.",
"w.w.w.w.w.w.w.w.w.w.w.w.w.0.w.w.w.w.w.w.0.w.w.X.X 4 y u 4 = * , 8 M V y y p V = l j.w.j.j.w.r.w.j.r.w.w.w.w.w.j.z.w.w.j.w.w.j.w.",
"w.w.j.w.w.w.w.0.w.w.0.w.w.w.w.w.w.w.w.8.8.w.w.X.X 4 : . % ~ t.A O 8 h u 8 t 8 O l r.w.w.w.w.j.w.w.j.w.w.w.z.j.r.w.w.w.w.w.w.w.j.",
"w.w.w.w.w.w.w.w.w.w.w.w.w.w.0.w.w.0.w.8.w.w.8.5.Q 5 o < E G.K.u.A & 7 3 : 8 8 O l w.w.w.w.w.w.w.w.j.w.w.w.w.j.w.w.w.w.z.j.w.w.w.",
"w.w.w.w.w.w.w.w.w.w.w.w.w.0.w.w.w.w.w.w.w.8.w.w.w.I , - A J.I.i.Z B 6 e r 3 t & l w.w.w.r.j.w.w.w.w.r.w.w.w.w.w.w.w.w.w.r.j.w.w.",
"w.w.w.w.w.w.w.w.w.w.w.w.w.w.w.w.w.w.w.0.0.8.w.w.w.w.G   * F.I.^ 1 F.N Y R @ i - l z.w.w.j.w.j.w.w.w.j.w.r.j.w.w.w.z.w.w.w.w.j.w.",
"w.w.w.w.w.w.w.w.w.0.w.w.w.w.w.w.w.w.w.8.w.w.w.8.w.w.G . * F.I.] w P.d.p.R $ p - l w.w.w.j.w.r.j.w.w.j.w.w.j.w.w.w.w.w.w.j.j.r.w.",
"w.w.w.w.w.w.w.w.w.0.w.w.w.w.0.w.0.8.w.8.0.8.8.w.w.w.G 1 { L.I.J.F.P.d.p.t.E - P >.w.w.r.j.w.w.w.w.r.j.w.j.w.w.j.w.j.w.j.w.j.w.w.",
"w.w.w.w.w.w.w.0.w.w.w.8.w.w.w.w.w.w.w.w.w.w.w.w.w.w...l B a.L.I.P.H.s.s.' g K +.w.j.j.w.w.w.w.w.j.w.w.w.w.w.w.r.w.w.w.w.w.r.w.j.",
"w.w.w.w.w.8.w.w.w.w.w.w.8.w.w.8.w.w.w.w.w.8.8.w.w.w.X.d # D | | | [ ] ] C $ P +.w.w.w.w.j.w.w.j.j.r.w.j.w.w.w.w.w.j.r.w.w.w.w.w.",
"w.w.w.w.0.w.w.w.w.w.w.0.8.w.w.8.8.w.0.8.w.w.w.w.w.*.j > > x n ( / b c x x 2 2 I ,.w.w.w.w.w.r.j.w.w.w.w.j.r.j.w.w.w.j.w.w.z.w.w.",
"w.w.w.w.w.w.w.w.w.0.w.w.w.8.w.w.w.0.w.w.8.w.w.w.r.q Z t.} v n ( / b b b F J.J.m G w.w.w.w.w.w.w.j.w.w.w.w.r.w.w.w.z.w.w.w.w.j.r.",
"w.w.w.w.w.0.w.w.w.8.8.w.w.8.0.w.w.8.w.8.w.w.8.w.w.9 Z p.u.V.N.B.M.M.M.n.C.I.I.m G 8.w.w.w.w.j.w.w.w.j.w.w.j.w.w.w.w.w.w.w.w.w.j.",
"w.w.w.w.w.w.w.w.w.0.w.w.w.w.8.w.w.8.w.8.w.8.8.w.w.U f Z S A.D.S.Z.D.D.n.b.D T k ' 8.w.w.w.j.w.w.w.r.j.w.w.w.w.z.w.w.w.j.w.w.w.w.",
"w.w.w.w.w.w.w.w.w.w.w.8.8.w.w.w.w.0.w.w.w.8.w.w.w.,.H + # v.m.v.c.n.m.v.z . , W 9.w.w.w.j.r.w.w.w.j.w.w.j.w.w.w.w.w.w.j.r.w.j.w.",
"w.w.w.w.w.w.w.w.w.8.w.8.w.w.w.w.8.w.w.8.w.w.8.w.r.! I d X 7 8 : @ # 6 8 3 % K I ..w.w.w.w.w.w.w.w.w.w.w.w.w.w.j.j.r.w.w.j.w.w.w.",
"w.w.0.8.w.w.w.w.w.w.0.w.8.w.w.r.w.w.w.w.6.6.0.8.w.Q I L H J J H G H J J J H I I  .6.6.w.w.w.w.w.w.w.w.w.j.w.w.w.w.j.w.w.w.w.w.j.",
"0.w.8.w.w.8.8.0.w.w.w.8.w.w.j.z.w.z.w.6.1.=.;.0.w.>.! I I I I I I I I I I I I  .*.;.;.5.0.w.w.w.j.w.w.w.w.w.w.w.w.w.w.w.w.w.w.w.",
"w.w.w.w.w.w.w.w.8.0.w.w.8.w.z.z.z.r.0.5.;.#.=.6.w.w.>. . . . . . . . . . . . .3.7.=.=.;.7.0.w.w.w.w.w.w.w.w.w.0.w.w.w.w.w.j.w.w.",
"8.w.w.w.8.w.w.8.w.0.w.w.w.w.w.w.r.w.5.&.=.-.6.8.w.w.r.w.w.z.w.w.w.w.w.j.w.w.w.w.0.5.-.=.=.5.w.8.w.0.w.w.w.w.0.w.w.w.w.w.r.j.w.w.",
"0.w.8.0.0.w.w.w.8.w.w.8.w.w.8.w.w.0.=.#.=.8.w.w.w.j.j.w.w.w.w.w.w.w.w.w.w.w.z.w.w.w.7.$.#.=.0.0.6.0.0.w.w.w.w.w.w.w.w.j.j.w.w.w.",
"w.w.w.8.w.8.8.0.8.w.8.w.8.w.0.0.q.w.7.=.7.w.w.w.w.w.r.j.w.w.w.j.w.w.w.w.w.w.w.w.w.w.w.5.=.7.0.0.0.0.w.w.w.w.w.w.w.w.w.w.w.w.w.j.",
"w.w.w.w.w.w.w.w.w.w.0.w.8.w.0.w.w.z.w.w.j.z.z.j.w.w.j.w.w.w.w.j.w.w.w.j.z.w.w.w.w.w.w.w.w.w.w.w.0.w.8.w.w.w.0.w.0.w.w.w.w.j.r.w.",
"w.w.w.w.w.w.8.w.0.w.w.w.8.0.0.8.w.z.w.w.z.z.z.r.j.j.w.w.w.w.j.r.w.w.w.w.j.r.w.w.w.w.w.w.w.w.z.w.0.q.w.w.w.w.w.0.j.w.w.w.w.j.w.w.",
"w.w.w.w.0.8.w.8.8.w.w.w.w.w.0.0.w.w.w.w.w.w.w.w.w.w.w.w.w.w.w.w.w.w.j.j.w.w.j.w.0.0.6.6.0.w.j.w.8.w.w.j.w.j.w.w.0.w.w.w.w.j.j.j.",
"w.w.w.w.w.w.8.6.5.0.w.w.w.w.w.8.w.z.w.w.w.w.j.w.w.w.w.j.w.w.w.w.w.j.w.r.w.w.w.w.w.0.0.w.8.j.w.w.w.q.w.h.j.j.0.5.0.w.w.j.w.w.j.j.",
"z.j.w.w.w.8.0.;.$.5.z.z.j.q.j.j.w.w.z.w.r.j.w.z.z.j.j.r.z.j.r.j.j.r.w.w.z.j.j.w.w.w.w.q.w.w.j.w.w.w.j.j.z.l.1.&.1.w.w.0.0.q.w.l.",
"z.z.z.r.j.w.0.-.#.3.q.q.q.j.j.j.r.j.j.w.r.w.j.j.w.r.r.j.j.r.j.j.z.r.j.j.w.z.w.w.w.r.w.w.w.w.w.8.j.h.h.j.h.h.,.#.1.w.w.w.j.0.j.l.",
"l.z.z.z.w.w.0.5.=.=.*.3.9.q.j.j.j.w.w.z.j.z.w.r.j.j.j.j.j.j.r.w.w.j.j.r.j.j.r.j.w.w.w.w.w.w.w.w.w.w.q.q.3.*.,.5.9.j.j.w.j.l.j.l.",
"w.j.z.z.z.j.w.w.w.=.) %.4.w.j.z.j.z.j.r.j.j.z.w.r.r.j.r.w.r.j.z.j.j.j.w.w.r.z.w.w.w.w.w.w.0.w.w.w.q.q.3.o.` 2.z.j.j.j.l.l.z.x.l.",
"w.w.z.w.w.w.w.w.j.5.*.5.7.q.w.j.j.r.j.j.j.r.w.j.j.j.j.j.z.w.j.w.w.r.w.z.z.w.w.w.j.w.w.w.w.w.w.w.w.w.w.7.2.2.7.z.j.j.w.j.l.j.l.l.",
"r.w.w.w.j.0.0.j.j.j.w.w.w.w.r.w.w.r.j.z.w.z.r.j.j.r.r.j.z.w.w.w.z.w.z.w.r.w.z.w.j.w.w.w.w.w.w.0.8.r.r.r.r.z.r.z.j.j.j.j.j.h.l.l.",
"6.0.w.w.j.j.0.j.j.w.r.w.e.w.r.w.z.w.j.w.w.w.w.z.j.j.j.j.w.w.z.z.j.r.w.w.j.j.w.w.r.w.w.w.w.w.w.w.w.r.e.e.r.r.r.w.w.j.j.j.j.j.j.9.",
"-.w.w.w.0.0.1.j.0.0.6.8.e.w.w.r.z.w.j.w.z.j.r.w.r.j.r.j.r.j.w.w.j.w.z.z.w.w.z.w.w.j.w.w.w.w.w.w.w.r.e.e.e.e.8.j.w.j.j.j.j.h.0.<.",
"&.w.0.0.0.j.j.0.0.w.8.8.r.r.r.w.w.w.w.j.w.w.j.j.j.j.w.z.j.j.z.w.w.z.w.w.z.z.w.w.w.w.w.w.w.w.w.w.w.r.r.e.e.e.w.0.j.j.0.j.j.h.0.:.",
"<.0.w.w.w.0.j.0.w.w.8.8.8.e.r.w.w.j.j.w.j.w.w.z.z.w.j.r.w.j.z.z.w.j.j.j.w.j.w.z.w.w.r.j.w.w.r.w.w.w.e.r.8.w.q.j.j.0.j.j.1.0.<.<.",
"<.0.w.w.w.w.j.j.w.8.e.e.e.e.r.w.w.w.j.j.j.j.j.j.j.z.j.j.z.j.j.w.z.j.r.r.r.j.r.w.w.w.j.w.w.w.w.w.w.e.8.r.w.w.j.l.h.j.j.0.j.j.1.:.",
":.h.0.w.w.w.w.w.w.8.e.e.e.e.r.w.w.j.j.w.j.w.j.j.z.j.z.j.z.j.j.z.w.r.j.j.j.r.j.j.z.w.w.j.w.w.w.w.w.r.w.8.j.0.0.h.h.h.j.0.0.0.h.@.",
"@.h.l.w.w.0.w.w.w.w.e.e.e.e.w.w.w.j.j.j.j.j.j.j.j.j.z.j.j.w.z.j.j.j.r.j.j.w.z.w.j.w.w.r.w.w.w.w.w.w.8.w.0.j.0.h.h.h.j.0.j.h.4.O."
};
