/* XPM */
static char *result[] = {
/* columns rows colors chars-per-pixel */
"64 64 163 2 ",
"   c #0E071B",
".  c #160C1D",
"X  c #1B0E1D",
"o  c #23121F",
"O  c #28131F",
"+  c #1A1020",
"@  c #101C2A",
"#  c #2F1D22",
"$  c #2A1824",
"%  c #331E22",
"&  c #3C1E24",
"*  c #102531",
"=  c #27262E",
"-  c #2F2029",
";  c #362323",
":  c #3C2822",
">  c #3B222B",
",  c #2E3035",
"<  c #333437",
"1  c #411F23",
"2  c #442A24",
"3  c #4B2926",
"4  c #45262A",
"5  c #4B272A",
"6  c #472C2A",
"7  c #4B2A2E",
"8  c #522726",
"9  c #592A27",
"0  c #532C2D",
"q  c #5C2E29",
"w  c #4C3227",
"e  c #4F3528",
"r  c #543729",
"t  c #5D3E2C",
"y  c #4C2E34",
"u  c #4F3937",
"i  c #543233",
"p  c #563538",
"a  c #61322E",
"s  c #653733",
"d  c #683B37",
"f  c #643E3D",
"g  c #6A3E3A",
"h  c #5F4130",
"j  c #5A423D",
"k  c #68462C",
"l  c #664237",
"z  c #744F33",
"x  c #755033",
"c  c #7F5533",
"v  c #132A48",
"b  c #343F42",
"n  c #144F4C",
"m  c #17564D",
"M  c #315E51",
"N  c #1D6A4F",
"B  c #1E6F50",
"V  c #316357",
"C  c #544243",
"Z  c #6E4441",
"A  c #644A42",
"S  c #6A4E43",
"D  c #604C49",
"F  c #704643",
"G  c #695147",
"H  c #745546",
"J  c #7C5C4A",
"K  c #755B51",
"L  c #616E5B",
"P  c #865A32",
"I  c #8A5D34",
"U  c #8F6135",
"Y  c #94633A",
"T  c #9B6939",
"R  c #A26E3C",
"E  c #AB743F",
"W  c #866958",
"Q  c #B17844",
"!  c #BA7E46",
"~  c #927666",
"^  c #2A864D",
"/  c #2F8E4B",
"(  c #33904C",
")  c #33984B",
"_  c #479850",
"`  c #779B66",
"'  c #D7883C",
"]  c #DD8B3C",
"[  c #E38E3F",
"{  c #BF8247",
"}  c #9F806C",
"|  c #BA8D66",
" . c #A78872",
".. c #83AD6D",
"X. c #C48548",
"o. c #CC8A4B",
"O. c #DD8E41",
"+. c #D38F4D",
"@. c #D4904E",
"#. c #D38D53",
"$. c #DD9551",
"%. c #DD935A",
"&. c #E49143",
"*. c #E89646",
"=. c #E39448",
"-. c #EB954A",
";. c #E6994E",
":. c #ED9A4B",
">. c #F0974D",
",. c #F19D4E",
"<. c #E99554",
"1. c #E39A53",
"2. c #EC9E53",
"3. c #F19752",
"4. c #F19E50",
"5. c #EDA14F",
"6. c #EDA156",
"7. c #EEA25A",
"8. c #F5A354",
"9. c #F9A656",
"0. c #F5AA57",
"q. c #F9AD56",
"w. c #F5A55A",
"e. c #FBA65A",
"r. c #F7A95C",
"t. c #FEAD5D",
"y. c #F9B056",
"u. c #FCB15B",
"i. c #CB9A6E",
"p. c #D39762",
"a. c #C69E77",
"s. c #D29F70",
"d. c #CEA077",
"f. c #D6A476",
"g. c #DAAA7C",
"h. c #EBA466",
"j. c #E8A569",
"k. c #F6AA64",
"l. c #FEAD61",
"z. c #F4AC6B",
"x. c #FEAE69",
"c. c #FFB162",
"v. c #FCB26A",
"b. c #0C5D8F",
"n. c #1B5F8D",
"m. c #045B91",
"M. c #0971A6",
"N. c #1B79A9",
"B. c #088CB5",
"V. c #0D96B4",
"C. c #2899AA",
"Z. c #609BAA",
"A. c #6099B1",
"S. c #008ACD",
"D. c #0E98D5",
"F. c #0098DC",
"G. c #BBB089",
"H. c #E9BB8F",
"J. c #C1BCA4",
"K. c #EEC195",
"L. c #E8C098",
"P. c #F2C69A",
"I. c #F6CA9F",
/* pixels */
"p.j.k.k.l.t.t.t.u.t.l.x.x.x.l.c.l.l.l.l.l.t.l.l.l.l.t.l.l.e.l.t.t.l.t.t.t.l.t.t.t.t.t.t.t.l.t.t.t.t.t.u.t.t.y.y.t.t.l.c.x.x.h.p.",
"j.z.k.l.t.t.t.q.t.u.x.c.c.l.x.l.l.l.t.l.l.l.l.e.l.l.l.l.l.l.l.l.t.t.l.t.t.t.l.u.l.t.u.l.t.t.t.t.u.t.t.t.u.t.u.t.t.u.u.t.t.k.k.h.",
"z.x.x.l.l.t.t.t.u.c.l.l.l.x.l.c.l.l.l.l.l.l.l.l.l.l.e.l.l.l.l.l.t.l.t.t.t.t.t.t.t.t.t.t.t.u.l.t.t.t.u.t.u.t.u.u.u.k.u.t.t.t.l.k.",
"v.x.l.l.l.t.u.t.l.c.c.l.l.l.l.t.l.l.e.l.e.l.l.l.t.l.l.l.l.l.e.t.t.t.t.t.t.t.t.l.t.l.u.t.t.l.t.t.t.q.u.t.t.u.u.k.t.u.t.t.e.t.t.l.",
"v.l.l.l.t.c.t.t.c.l.l.l.l.l.l.l.l.l.l.t.l.e.l.l.l.l.l.e.l.l.l.t.t.t.l.t.c.t.t.t.t.t.t.t.t.l.t.t.t.q.t.q.t.t.t.t.u.t.t.t.l.e.e.t.",
"c.c.c.t.t.t.t.t.t.t.c.u.l.l.l.t.l.l.l.l.l.l.l.l.e.l.l.l.l.l.l.l.t.t.t.t.t.t.l.t.e.9.e.t.t.u.l.t.t.t.t.t.t.t.t.t.l.k.l.l.t.e.e.t.",
"l.t.t.t.e.8.4.8.t.t.l.l.t.l.l.l.l.e.l.l.l.t.l.l.l.l.l.t.l.e.l.t.c.t.u.l.t.t.u.l.8.:.:.9.t.t.l.t.t.t.t.t.t.t.t.t.t.l.t.l.l.e.e.t.",
"t.t.t.t.9.:.-.,.9.e.t.l.t.l.l.t.l.l.e.l.e.l.e.l.l.l.l.l.l.l.l.l.t.t.t.t.l.t.t.t.8.&.] 8.t.t.u.t.t.t.t.t.t.t.t.t.t.t.l.t.l.l.t.t.",
"t.t.t.l.t.4.4.,.:.8.e.t.t.t.t.t.e.l.l.l.l.t.t.l.l.l.l.l.t.l.l.t.t.t.c.t.t.t.t.t.e.4.:.:.:.9.t.t.l.l.k.k.l.l.t.t.t.t.t.t.l.l.l.l.",
"t.t.t.t.l.t.e.-.[ >.t.e.9.e.e.t.l.l.l.e.e.l.l.l.l.t.l.l.l.l.l.t.t.t.t.t.c.t.t.t.t.t.8.&.] :.t.t.l.e.k.k.l.l.e.t.t.t.t.t.l.l.l.l.",
"t.u.t.t.t.t.t.4.>.8.t.t.e.t.l.e.e.l.l.t.l.e.l.t.t.t.l.t.t.l.l.l.l.u.t.t.t.t.t.t.u.t.9.:.:.8.l.t.l.e.l.k.l.l.t.t.t.t.t.t.l.l.l.e.",
"l.t.t.t.l.l.l.e.e.t.t.t.r.e.l.l.l.l.e.t.t.t.l.t.t.t.t.t.t.t.t.t.t.l.t.t.t.t.t.c.l.t.t.t.e.t.c.t.l.l.l.l.x.l.t.t.t.q.t.t.t.l.l.l.",
"c.k.u.c.t.t.t.t.t.l.c.c.t.l.t.t.t.t.t.t.t.t.t.t.l.t.t.t.t.l.u.t.t.t.t.t.l.u.t.l.t.c.t.t.t.l.l.c.l.l.x.l.x.t.t.t.t.t.t.t.l.l.t.t.",
"k.c.c.t.l.e.e.e.e.l.c.u.l.r.r.l.t.t.t.t.t.t.t.t.t.t.t.l.t.t.l.t.l.t.t.t.t.l.t.l.t.t.t.l.t.t.t.l.l.l.l.x.l.l.l.t.t.t.t.l.l.t.t.t.",
"c.c.k.t.l.e.e.e.e.l.c.k.k.t.l.t.t.k.e.9.e.t.t.l.t.t.t.t.t.t.u.t.t.u.l.t.t.l.t.u.t.t.l.t.t.t.u.t.l.l.l.l.l.k.e.9.q.t.t.t.t.t.t.t.",
"k.k.u.t.e.l.e.e.t.t.l.t.t.t.t.t.c.c.0.*.8.e.t.t.t.l.t.t.l.t.l.t.t.t.t.l.t.t.t.t.t.t.t.u.t.t.l.l.l.l.l.l.l.t.,.*.,.t.t.l.t.t.t.t.",
"c.t.l.e.l.l.e.l.e.l.l.t.t.t.e.t.t.t.6.[ 5.e.t.t.t.l.t.t.t.t.k.t.t.l.t.l.t.t.t.l.t.t.l.t.t.l.t.t.l.e.l.l.t.9.-.] :.t.t.t.t.t.c.t.",
"t.l.t.t.l.e.e.l.l.t.t.t.t.r.t.e.6.;.:.4.9.t.t.u.t.t.t.r.6.6.2.7.6.6.6.6.r.t.t.t.t.t.t.t.t.u.l.t.e.l.t.e.,.:.:.:.9.t.c.t.t.t.t.t.",
"l.t.l.t.l.e.l.l.e.l.t.t.t.e.t.8.*.' :.t.l.c.l.t.l.t.l.Y # # # ; # # # # Q r.t.t.c.t.u.l.t.t.t.t.t.l.t.8.&.] :.t.r.u.l.t.t.l.t.t.",
"t.l.e.k.e.l.e.l.l.t.t.t.t.t.t.9.5.:.8.u.c.u.t.t.t.t.I 3 4 y y y y y 1 1 3 Y t.l.t.t.t.t.t.l.l.t.t.t.t.e.5.:.8.t.t.t.t.l.t.u.t.t.",
"l.e.l.e.l.e.l.l.l.l.t.e.t.t.t.t.t.t.t.t.u.t.t.t.6.T 2 5 d F F F Z Z s s y e Q w.t.t.t.t.l.t.t.l.t.l.u.l.t.e.t.c.c.t.c.t.l.t.t.t.",
"l.l.e.l.l.l.e.l.l.e.t.t.t.t.t.l.c.c.u.t.t.t.q.t.+.X 5 d F F F F F F F F F p # ! w.t.l.t.t.t.t.u.t.t.l.l.t.t.c.c.t.t.t.t.t.t.t.c.",
"e.l.e.l.e.l.l.l.t.t.t.t.t.t.t.t.t.e.t.t.q.t.t.q.+.X p F F F F F F F F F F Z f + Q t.t.t.t.t.l.t.t.t.c.l.c.l.l.t.t.t.t.t.c.t.t.t.",
"l.e.t.l.l.l.l.e.t.t.t.t.t.t.t.t.t.t.q.t.t.q.t.Q 2 3 f F F F F Z F F F F F Z f + Q l.u.t.l.u.t.t.t.l.t.u.c.u.t.t.t.t.t.t.t.t.t.t.",
"t.t.t.t.t.t.t.t.t.t.e.t.e.t.t.t.t.t.t.t.q.q.e.T X 9 g g i > > i l F F d g F f . Q t.t.t.t.u.t.t.t.t.t.c.l.l.l.t.t.u.t.t.t.t.t.u.",
"t.e.t.t.t.t.t.t.t.t.t.t.t.t.t.t.t.e.t.q.t.e.t.T X 9 i 7 6 u u 6 0 Z F a s g s . Q t.t.l.t.l.t.t.t.t.t.t.t.u.t.t.l.l.t.l.l.t.t.l.",
"t.t.t.t.t.t.t.t.t.t.t.t.t.t.t.t.t.t.t.t.t.q.t.E # 8 o X j f.f.D & 0 g 9 9 q 8 . Q l.l.u.t.t.t.c.t.t.l.t.t.t.t.t.t.t.t.u.l.t.l.t.",
"t.t.t.t.t.t.t.t.t.r.t.t.t.t.t.t.t.t.t.q.t.q.t.9.{ o   S d.P.P.g.H $ a $ & 9 8 . Q t.t.t.l.t.t.t.t.c.t.t.l.u.t.t.t.t.l.t.u.t.t.t.",
"t.t.t.t.t.t.e.t.t.t.t.t.t.t.e.t.t.t.q.t.t.q.q.t.8.Q ; - K I.I.W S J O J p & f . Q t.t.t.t.l.t.l.t.t.t.t.t.t.t.c.l.t.t.t.l.t.t.l.",
"t.t.t.t.t.t.t.t.t.t.t.t.t.e.t.t.t.t.t.t.t.e.t.t.t.t.w   C I.I.D G d.l | A % f . Q l.t.l.t.u.t.t.t.t.t.c.t.t.t.t.t.t.t.l.t.t.t.t.",
"t.t.t.t.t.t.t.t.t.t.t.t.t.t.t.t.t.t.e.t.t.t.q.t.t.t.w $ K I.I.W ~ K.s.s.W y p 6 X.t.c.t.l.t.t.t.u.l.t.t.t.c.t.l.t.u.l.u.t.l.t.u.",
"t.t.t.t.t.t.t.t.t.e.t.t.t.t.t.t.t.t.t.q.q.t.e.t.t.t.e H g.I.I.I.I.K.s.s.i.W % 1.t.t.t.t.t.t.t.t.l.t.t.t.t.t.t.t.t.l.t.t.t.t.t.l.",
"t.t.t.t.t.t.t.t.t.t.t.t.t.t.t.t.t.t.e.q.q.t.t.t.t.t.$.z A g.P.I.H.f.s.s.J h +.r.t.t.t.t.t.u.t.t.t.t.t.t.l.t.t.t.c.t.t.l.t.t.t.t.",
"t.t.t.t.t.t.t.t.t.e.q.t.t.t.t.e.t.t.t.t.t.t.q.q.t.t.t.c = L ....` ` L L < h t.t.t.l.l.t.t.l.l.u.t.l.l.u.t.t.t.t.t.t.t.t.u.l.l.t.",
"t.t.t.t.t.t.t.e.t.t.t.t.q.t.t.q.q.t.q.t.e.t.t.t.t.t.t.P @ n / ) B N m n * h t.t.l.u.t.t.t.t.t.t.t.t.t.l.u.l.t.t.t.t.c.t.l.t.t.t.",
"t.t.t.t.e.q.t.t.t.t.q.t.t.e.t.q.e.t.t.t.q.t.t.q.t.q.1.x , M ( ) ^ N B V b h $.t.t.t.t.l.l.t.t.l.l.t.t.t.t.t.l.t.t.t.t.t.t.l.u.t.",
"l.t.t.t.t.t.t.t.t.e.q.t.t.q.e.t.q.q.t.t.t.t.q.t.t.q.r H i.| _ ) ^ B N G.L.} ; 6.t.t.t.t.t.l.l.u.u.l.l.t.t.t.t.t.l.t.t.t.t.t.c.t.",
"t.t.t.t.t.t.t.t.t.t.q.t.t.q.t.t.t.t.e.q.q.t.t.t.t.t.w H i.a.C.V.B.B.B.J.I. .O 1.l.t.u.l.t.t.t.t.t.t.t.t.t.t.l.u.t.l.u.t.t.t.t.t.",
"t.t.t.t.t.e.t.t.t.t.t.t.t.t.q.t.t.q.t.t.q.t.t.t.t.t.P t L Z.D.S.S.F.F.A.` G k 7.t.t.t.t.t.t.l.t.t.t.t.l.c.t.t.l.t.t.t.l.l.u.t.t.",
"t.t.t.t.t.t.t.t.t.t.e.q.q.t.t.t.e.t.t.q.t.t.q.t.e.1.E w v N.C.b.m.M.N.n.v : R $.r.t.t.t.c.t.t.t.t.l.t.u.t.t.t.t.t.t.t.t.t.l.t.t.",
"t.t.t.t.t.t.t.t.t.q.e.q.t.t.t.t.t.t.t.q.t.t.t.t.7.R T r O q q O + $ q q % 2 T T 1.t.t.t.t.u.l.t.t.t.t.t.t.l.t.t.l.u.t.t.l.t.t.t.",
"e.t.t.e.t.t.e.q.t.t.t.t.q.t.u.t.t.t.t.t.9.8.9.q.7.T T U P I I P I P I I P U T T $.9.9.t.e.t.t.t.l.t.t.t.t.t.t.l.t.l.t.t.t.t.t.l.",
"t.t.t.t.t.t.t.t.t.t.e.q.t.t.l.c.u.l.t.q.4.-.>.q.e.$.Q T T T T T T T Y T T T R @.2.,.,.8.e.t.u.t.t.t.t.t.t.t.t.t.t.t.t.t.t.t.t.t.",
"t.q.t.q.q.q.t.t.q.t.t.t.q.t.c.c.c.u.e.8.,.*.:.9.t.t.+.X.' { { X.X.X.X.X.X.X.o.r.9.:.:.,.9.e.t.t.l.t.t.t.t.t.e.t.t.t.t.t.t.t.l.t.",
"t.q.q.t.e.t.q.t.t.q.t.t.t.t.t.u.u.t.8.:.:.,.8.q.u.l.t.t.t.l.t.t.l.t.t.t.t.l.t.c.e.8.:.:.:.8.t.e.t.e.t.t.t.t.e.t.t.t.t.t.u.l.t.t.",
"e.t.t.t.t.t.q.t.t.q.t.q.t.t.e.t.t.e.:.&.:.e.t.t.t.l.t.t.l.u.t.t.t.t.t.t.t.t.t.t.t.t.9.*.&.:.e.9.9.e.t.t.t.t.t.t.t.t.t.t.l.t.t.t.",
"t.t.q.e.t.t.t.e.t.t.q.t.q.t.t.e.t.t.9.:.9.t.t.t.t.t.t.c.t.t.t.l.t.t.t.l.t.c.t.t.t.t.t.8.:.9.r.t.9.t.e.t.t.t.t.t.t.t.t.t.t.t.t.l.",
"t.t.t.t.t.t.q.t.q.t.t.t.t.9.e.e.t.t.u.t.k.c.c.c.t.t.t.t.t.t.t.t.t.l.t.t.t.t.t.t.u.l.t.t.t.t.t.t.e.9.t.t.t.t.e.t.e.t.t.l.t.t.l.u.",
"t.t.t.t.t.e.t.t.q.t.t.t.t.t.9.t.t.c.t.t.c.c.c.t.t.t.t.t.t.t.l.l.t.t.t.l.t.t.l.u.t.t.t.t.t.t.c.t.t.t.t.t.t.t.t.t.e.t.t.t.t.t.l.t.",
"t.t.t.q.t.q.q.t.e.t.t.t.t.e.t.9.t.t.t.t.t.t.c.t.t.t.c.t.t.t.t.u.c.t.t.t.t.t.l.t.t.0.9.e.e.t.c.t.q.e.t.t.t.t.t.t.t.t.t.l.t.l.l.l.",
"l.t.t.t.t.q.q.9.8.9.t.u.r.t.r.e.t.l.t.t.t.t.t.t.t.t.t.t.l.t.t.t.t.t.l.t.t.l.t.t.t.e.9.e.e.t.u.t.t.t.r.k.l.k.e.9.e.t.t.t.t.t.l.l.",
"c.l.l.t.t.t.e.,.*.8.c.c.t.t.t.t.l.u.l.l.c.t.c.t.c.t.c.t.l.u.t.c.c.t.u.l.l.u.t.t.t.t.t.t.t.t.t.t.t.k.l.l.x.x.4.:.4.e.t.e.t.r.t.x.",
"c.c.l.c.l.t.e.>.&.6.r.r.r.k.u.l.t.l.u.u.t.c.l.u.t.u.u.l.l.u.t.t.t.l.t.c.l.l.t.t.t.t.t.t.t.t.t.e.t.t.r.k.c.k.2.&.4.t.t.t.e.t.k.x.",
"l.l.u.c.u.t.e.4.2.:.;.5.r.r.l.l.c.t.l.l.c.t.l.t.l.l.l.l.l.l.c.t.u.l.u.t.u.t.c.t.t.t.t.t.t.t.t.t.t.t.k.r.6.;.2.8.e.t.l.l.x.l.l.x.",
"l.x.u.c.c.l.t.t.t.:.' =.7.t.l.c.c.t.t.c.t.t.t.c.t.u.l.u.t.u.l.c.u.l.l.l.t.c.l.t.t.t.t.t.t.e.t.t.k.t.r.6.O.[ 6.c.l.l.c.x.x.c.x.x.",
"l.u.l.c.l.t.t.t.t.8.:.6.r.t.t.l.t.c.t.t.t.c.l.l.c.t.l.l.c.t.l.t.l.l.u.l.l.l.u.l.u.t.t.t.t.t.t.t.t.t.y.0.5.6.0.u.l.l.l.l.l.l.x.x.",
"u.t.t.t.l.e.e.l.l.t.u.t.t.t.t.t.l.l.t.c.t.t.l.u.u.t.t.c.l.u.u.l.l.u.l.l.l.l.u.l.t.t.t.t.t.t.e.t.u.u.y.u.u.u.u.c.l.l.l.l.l.x.x.x.",
"e.e.t.t.l.l.e.l.l.t.t.t.q.u.t.u.u.t.c.t.t.c.l.u.l.c.t.t.l.l.l.l.l.l.u.t.u.l.l.t.t.t.c.t.t.t.t.t.t.u.y.u.u.u.u.t.t.l.l.l.l.l.l.w.",
",.t.t.t.e.e.4.l.e.e.9.q.u.t.u.l.t.c.t.l.t.u.l.l.l.t.c.t.t.c.l.u.t.u.l.c.l.u.t.t.t.t.t.t.t.t.t.t.t.u.y.y.y.y.t.t.l.l.l.e.e.k.e.3.",
">.9.e.e.e.l.e.l.e.t.q.q.y.u.t.u.t.t.l.t.l.t.c.t.l.c.t.l.c.t.t.c.c.t.l.t.l.t.c.t.c.t.t.t.t.t.t.t.t.u.u.y.y.y.e.t.l.e.l.l.l.k.e.<.",
"3.e.t.t.t.e.l.e.t.t.q.y.y.y.t.u.t.l.l.l.l.l.l.c.u.l.c.l.u.l.l.t.l.l.l.u.c.c.t.u.l.t.t.t.t.t.t.t.t.u.u.y.t.t.t.l.l.e.l.t.l.l.3.3.",
"3.e.e.t.t.t.l.l.t.q.y.y.y.y.y.t.t.l.t.l.t.l.t.l.l.l.l.c.l.l.c.l.u.u.l.l.t.t.l.l.u.l.l.t.u.t.t.t.t.q.u.t.t.l.r.l.k.l.l.l.4.l.4.<.",
"<.k.l.t.t.t.t.t.t.t.y.y.y.y.t.u.t.l.l.l.l.l.t.l.l.l.l.c.l.c.l.c.l.l.l.l.t.l.t.c.l.t.t.t.t.t.u.t.t.q.q.t.e.e.e.k.k.k.l.e.e.l.k.%.",
"%.k.l.t.t.e.t.t.t.q.q.y.y.y.t.t.t.l.t.l.t.l.l.t.c.c.l.l.l.c.l.t.c.t.u.t.c.l.u.t.u.l.t.t.t.l.t.t.t.t.t.q.l.e.l.k.k.k.e.e.k.k.2.#."
};
