/* XPM */
static char *result[] = {
/* columns rows colors chars-per-pixel */
"64 64 156 2 ",
"   c #0E071B",
".  c #150B1C",
"X  c #1B0E1E",
"o  c #22151F",
"O  c #1E1122",
"+  c #2F1720",
"@  c #241825",
"#  c #2B1923",
"$  c #2D1F28",
"%  c #301721",
"&  c #311A23",
"*  c #3B1E25",
"=  c #11213C",
"-  c #2B232C",
";  c #3B2324",
":  c #37222C",
">  c #3D292E",
",  c #272931",
"<  c #332631",
"1  c #3D2C30",
"2  c #421F23",
"3  c #432225",
"4  c #462427",
"5  c #432A27",
"6  c #482826",
"7  c #472F28",
"8  c #542826",
"9  c #592A27",
"0  c #5D2D2A",
"q  c #54382B",
"w  c #5C3D2D",
"e  c #472E32",
"r  c #453436",
"t  c #4D3336",
"y  c #48373B",
"u  c #5D3432",
"i  c #543837",
"p  c #5C3A39",
"a  c #63332C",
"s  c #643632",
"d  c #653B39",
"f  c #5B423D",
"g  c #66442E",
"h  c #654638",
"j  c #6C413E",
"k  c #724B35",
"l  c #7D573E",
"z  c #143051",
"x  c #134D4C",
"c  c #16554D",
"v  c #1D6D50",
"b  c #6D4341",
"n  c #6C4D42",
"m  c #704643",
"M  c #65504D",
"N  c #715446",
"B  c #755748",
"V  c #7C5E4E",
"C  c #725B54",
"Z  c #566368",
"A  c #82593B",
"S  c #8B5D3A",
"D  c #94643C",
"F  c #9A683E",
"G  c #87644F",
"H  c #8D6850",
"J  c #83685C",
"K  c #98735B",
"L  c #A06D41",
"P  c #A97241",
"I  c #B27A47",
"U  c #A67D5D",
"Y  c #2C894C",
"T  c #33984B",
"R  c #7B8470",
"E  c #D7883C",
"W  c #DD8B3C",
"Q  c #E38E3F",
"!  c #8B8163",
"~  c #8F8B64",
"^  c #9D8564",
"/  c #A78062",
"(  c #AD896D",
")  c #B88F6E",
"_  c #BE9067",
"`  c #BD936E",
"'  c #A5AA78",
"]  c #C58647",
"[  c #C58549",
"{  c #CD8B4B",
"}  c #DD8E41",
"|  c #D8934F",
" . c #D38D53",
".. c #DA9451",
"X. c #DD935A",
"o. c #E49143",
"O. c #E89646",
"+. c #E39448",
"@. c #EB954A",
"#. c #E6994E",
"$. c #ED9A4B",
"%. c #F0974D",
"&. c #F19D4E",
"*. c #EE9654",
"=. c #E49A53",
"-. c #EC9E54",
";. c #E79659",
":. c #F19752",
">. c #F19E50",
",. c #EDA14F",
"<. c #EEA253",
"1. c #EDA35F",
"2. c #F5A354",
"3. c #F9A656",
"4. c #F5AA57",
"5. c #F9AD56",
"6. c #F3A55A",
"7. c #FBA65A",
"8. c #F7A95B",
"9. c #FEAD5D",
"0. c #F9B056",
"q. c #FCB15B",
"w. c #C3936A",
"e. c #D39762",
"r. c #C59871",
"t. c #D29F70",
"y. c #D4A173",
"u. c #EBA466",
"i. c #E8A569",
"p. c #F6AA64",
"a. c #FEAD61",
"s. c #F4AC6B",
"d. c #FEAE69",
"f. c #FFB162",
"g. c #FCB26A",
"h. c #04598E",
"j. c #1B618F",
"k. c #0A6796",
"l. c #3F6984",
"z. c #0770A5",
"x. c #1A79A9",
"c. c #0077B9",
"v. c #088CB5",
"b. c #0C94B4",
"n. c #0E98B3",
"m. c #7B9497",
"M. c #008ACD",
"N. c #0098DC",
"B. c #DFAE81",
"V. c #DAB28F",
"C. c #DDB490",
"Z. c #E1B184",
"A. c #EABC90",
"S. c #ECC197",
"D. c #F1C498",
"F. c #F6CA9F",
/* pixels */
"e.i.p.p.9.9.9.5.q.9.a.d.d.d.d.a.a.a.a.a.a.9.a.a.a.a.9.a.a.9.a.a.9.a.9.9.9.a.9.q.9.9.9.9.9.9.q.a.9.9.q.9.9.q.9.0.9.9.q.f.a.s.u.e.",
"i.s.p.a.a.9.9.9.9.q.d.f.a.f.a.f.a.a.9.a.a.a.a.7.a.a.a.a.a.a.a.7.9.9.a.9.9.9.9.a.9.9.9.f.9.9.9.9.9.9.q.9.9.q.q.9.q.q.9.9.a.a.p.i.",
"s.d.d.a.9.9.9.9.q.f.a.a.d.a.a.f.a.a.a.a.a.a.a.a.a.a.7.a.a.a.a.a.9.a.9.9.9.9.9.9.f.9.9.9.9.9.9.9.9.9.9.9.8.q.q.8.9.q.9.9.9.a.d.p.",
"g.d.a.a.a.a.q.q.a.f.f.a.a.a.a.a.a.a.7.a.7.a.a.a.a.a.a.a.a.a.7.9.9.9.9.9.q.9.9.a.9.9.9.9.9.f.9.9.5.9.q.5.q.9.q.f.q.a.a.9.7.7.9.a.",
"g.a.a.a.9.f.9.a.f.a.9.a.a.a.a.9.a.a.a.9.a.7.a.a.9.a.a.7.a.a.a.9.9.9.9.9.a.9.9.9.q.9.9.9.9.9.q.9.9.9.7.5.9.q.9.q.8.9.9.a.9.7.7.9.",
"f.f.f.9.9.9.7.9.9.9.f.f.a.a.a.a.a.a.a.a.a.a.a.a.7.a.a.a.a.a.a.a.9.9.a.a.9.a.9.9.8.7.7.9.9.9.a.9.9.9.9.9.9.9.9.9.f.a.a.9.a.7.3.9.",
"a.9.9.9.7.2.&.3.9.9.a.a.a.a.9.a.a.7.a.a.a.9.a.a.a.a.a.9.a.7.a.9.9.f.9.q.9.9.a.q.2.O.$.3.9.a.9.9.9.9.9.9.9.9.9.9.q.a.a.a.a.7.7.9.",
"9.9.9.9.3.$.@.&.3.7.9.9.9.9.a.a.a.a.7.a.7.a.7.a.a.a.a.a.a.a.a.a.9.9.9.9.a.9.9.a.2.Q o.>.9.9.f.9.9.9.9.9.9.9.a.9.a.9.9.a.a.a.9.9.",
"9.9.9.q.9.2.>.%.$.2.7.9.9.9.9.9.7.a.a.a.a.a.9.a.9.a.9.a.a.a.a.a.9.9.9.f.9.9.9.9.3.&.$.$.$.3.9.9.a.a.7.p.a.a.9.9.9.9.9.9.a.a.a.a.",
"9.9.9.a.9.9.7.%.Q %.9.7.3.3.7.9.a.a.a.7.a.7.9.a.a.a.a.a.a.9.a.9.9.9.9.9.9.9.9.f.9.9.2.o.W $.9.9.a.7.d.p.a.a.9.9.9.9.9.9.a.a.a.a.",
"9.9.9.9.9.a.7.>.%.2.9.9.7.7.a.a.a.7.7.9.9.7.a.a.9.a.9.a.9.9.a.9.9.f.9.9.f.9.9.9.9.9.7.$.$.2.9.9.a.7.p.p.a.a.7.9.9.9.9.9.7.a.a.7.",
"a.q.9.9.9.a.a.7.3.9.a.9.9.9.a.7.9.a.a.9.9.9.a.9.9.9.a.9.9.9.9.9.9.9.9.9.9.9.9.9.q.9.9.9.7.9.f.a.a.a.p.a.d.a.9.9.9.5.9.9.a.a.a.a.",
"a.f.f.8.a.9.9.9.9.a.f.p.9.9.9.9.9.9.9.9.9.9.9.9.9.9.a.9.9.9.9.9.9.9.9.9.q.a.9.f.a.a.9.9.9.f.9.f.a.a.d.a.d.a.9.9.9.9.9.a.a.a.9.9.",
"p.f.f.f.a.7.7.7.9.9.f.f.p.9.p.9.p.9.9.9.9.9.9.9.9.9.9.9.9.9.9.f.9.9.9.a.9.9.9.9.9.9.9.9.9.9.9.a.a.a.a.d.a.a.9.9.9.9.9.9.a.a.9.9.",
"p.f.p.9.9.7.7.7.7.9.f.a.a.8.9.9.9.a.7.3.7.9.9.9.9.9.9.9.f.9.9.9.9.a.9.9.a.9.9.9.9.9.9.9.9.9.9.f.a.a.a.a.a.a.5.3.7.q.9.a.9.9.9.9.",
"f.f.8.9.a.7.7.9.7.9.a.9.9.9.9.9.f.f.4.O.2.7.9.a.9.9.9.a.9.9.9.a.a.q.9.9.9.9.9.f.q.a.9.a.9.9.9.9.a.a.a.a.a.9.&.O.>.9.9.9.9.9.9.9.",
"f.a.9.9.a.7.a.a.7.a.a.9.9.9.8.9.f.q.<.o.$.7.9.q.9.9.9.f.9.9.9.9.9.9.9.a.9.a.9.a.9.9.9.9.9.9.9.9.a.7.a.a.9.2.@.W $.9.9.9.9.9.9.9.",
"9.a.p.a.7.a.a.7.a.9.9.9.9.7.7.7.2.#.$.-.3.9.a.9.a.9.9.9.9.9.9.9.a.9.9.9.9.9.9.q.a.a.q.9.9.9.9.f.7.a.9.7.>.$.$.$.3.a.a.a.q.a.9.9.",
"a.9.9.7.7.a.7.a.7.a.9.9.9.9.7.2.o.E $.9.9.f.a.9.9.9.a.9.9.9.9.9.9.9.9.9.9.9.a.9.9.9.9.a.a.q.9.9.9.9.9.2.o.W $.9.9.9.a.q.9.9.a.9.",
"9.p.9.9.a.7.a.a.a.9.9.9.9.9.9.3.2.O.3.q.q.a.q.9.9.9.-.F F F L F F F L =.a.q.9.9.9.9.9.9.9.a.9.9.9.9.a.7.$.$.3.q.9.9.9.9.9.a.q.9.",
"a.a.7.a.a.a.a.7.a.9.9.9.9.9.9.9.9.9.q.q.a.9.9.9.9.-.D % * < * < : % % S =.a.a.9.9.9.9.9.9.9.f.9.9.a.q.a.9.7.9.f.a.q.9.a.a.9.9.q.",
"a.7.a.7.7.a.a.a.a.7.9.7.9.9.9.f.f.a.f.9.q.9.9.9.7.A * s m m m m b a a 3 k 3.9.9.f.9.9.9.9.9.9.9.9.a.a.a.9.9.f.f.f.9.9.9.9.9.a.a.",
"7.7.a.a.a.a.a.7.9.9.9.9.9.9.9.9.9.8.9.9.5.9.5.9.7 4 d m m m m m m m b b i # 8.a.9.9.9.f.9.9.9.9.9.9.f.a.f.a.a.9.9.9.9.9.9.a.9.9.",
"a.9.7.9.a.7.a.a.9.9.9.9.9.9.9.9.9.9.5.9.9.7.5.7.4 e b m m m m m m m m m b p h <.9.9.9.9.9.f.9.9.9.9.9.q.f.q.9.9.9.9.9.a.q.9.9.9.",
"7.7.9.9.9.9.9.9.9.9.9.9.9.9.9.9.9.7.9.5.9.7.3.P 6 d m m b m m b m m m m m b @ ..9.9.f.9.9.9.9.9.q.9.9.9.q.a.9.a.9.a.a.q.a.9.9.9.",
"9.9.9.9.9.9.9.9.9.9.9.9.9.9.9.9.9.9.9.9.5.9.#.. 8 d j d t t s j m m j d m m O ..9.9.9.9.9.9.9.f.a.9.9.f.a.9.9.q.9.9.9.9.9.9.9.a.",
"9.9.9.9.9.9.9.7.9.9.9.9.8.9.9.9.9.9.9.5.9.5.#.. 8 d u 6 # # ; u b m s s b j O ..9.9.9.9.f.9.9.9.a.9.9.9.9.9.9.a.9.9.a.9.9.a.9.q.",
"9.9.9.9.9.9.9.9.9.9.9.7.9.9.9.9.9.9.9.9.9.q.=.. 8 + . > ) w.f + s m s 0 0 9 X ..9.f.9.9.9.9.9.9.9.9.9.9.a.9.9.9.q.a.9.9.9.9.9.a.",
"9.9.9.9.9.9.9.9.9.9.9.9.9.9.9.9.9.9.5.9.9.7.7.| 5 . y / A.A.) n % u * 2 0 9 X ..9.9.f.9.9.a.9.9.9.9.q.a.9.f.9.9.9.9.9.9.9.f.9.9.",
"9.9.9.9.9.9.9.9.9.9.9.7.9.9.7.9.9.9.9.9.5.9.9.9.[ q 1 K F.F.( N h * p t 4 s O ..9.9.9.9.9.q.a.9.9.a.9.9.9.9.9.9.f.9.9.9.9.9.9.9.",
"9.9.a.9.9.9.9.9.7.9.9.9.9.9.9.9.9.7.9.9.9.9.7.5.9.D   r F.F.C f r.y U N @ b O ..a.9.q.9.9.9.9.9.q.9.9.9.9.9.9.9.9.9.9.f.9.9.9.9.",
"9.9.9.9.9.9.9.9.9.9.9.9.7.9.9.9.9.9.7.5.5.9.9.9.9.D   y F.F.C M D.y.t.B $ j # ..9.9.a.9.a.9.a.9.a.9.9.a.9.9.f.9.9.9.9.9.9.9.f.9.",
"9.9.9.9.9.9.9.9.9.9.9.9.9.9.9.9.9.5.9.5.9.5.5.9.9.D i ` F.F.C.Z.D.y.t._ G - ,.9.9.a.9.9.9.f.9.9.9.9.9.9.9.9.9.9.9.9.f.9.9.9.9.9.",
"9.9.9.9.9.7.9.9.9.9.5.9.9.9.9.5.9.9.9.9.9.9.9.9.9.<.L V Z.F.F.D.B.t.t.K l | 9.9.9.a.9.9.9.9.9.9.f.9.9.9.9.9.9.f.9.9.9.9.9.9.q.a.",
"9.9.9.9.9.9.9.9.9.9.9.7.7.5.9.9.9.7.9.7.7.5.5.9.q.6.D - ! ' ' ' ~ K ! f w X.9.9.9.q.9.9.9.9.9.9.9.9.9.a.f.9.9.9.9.9.9.9.9.a.a.9.",
"9.9.5.9.9.9.9.7.9.9.9.5.9.9.5.9.5.9.9.5.9.9.9.9.7.S $ , c Y T Y v c c z < 1 <.9.9.a.9.9.9.9.f.9.9.9.a.q.9.9.9.9.9.f.9.9.9.9.9.9.",
"9.9.9.9.9.9.9.9.9.9.5.9.9.9.5.7.9.9.7.9.5.9.9.9.w H r.^ x Y T Y v v c R S.V.r ..9.9.a.9.a.q.9.9.9.a.f.9.9.9.f.9.9.9.9.9.9.9.9.a.",
"9.9.9.9.9.9.9.9.9.7.9.7.5.7.9.9.5.9.9.5.9.9.7.5.5 H t.' c.b.n.n.v.v.z.m.F.S.< ..9.9.q.a.9.9.a.9.9.9.9.9.9.9.9.9.f.9.9.9.q.a.9.9.",
"9.9.9.9.9.7.9.9.9.9.5.9.9.9.5.9.9.9.9.5.9.5.9.9.{ A n Z N.N.M.M.N.N.c.l.J J I 8.a.9.9.9.9.9.9.9.q.9.a.9.9.9.9.9.9.9.9.f.9.9.9.9.",
"9.9.9.9.9.9.9.9.9.9.5.9.5.9.9.9.7.5.9.9.7.9.9.9.9.P : = x.x.k.h.z.x.j.z o g 6.a.9.a.q.9.a.9.9.q.a.9.9.9.9.f.9.9.9.9.9.9.9.9.f.9.",
"9.9.9.9.9.9.9.9.9.5.9.9.9.7.9.9.5.9.9.7.9.5.9.9...| D & a a * o o a a 6 g | | 8.a.9.9.9.9.9.9.9.a.9.9.9.9.9.9.9.9.9.9.9.9.9.9.9.",
"9.9.5.9.9.9.9.7.9.7.9.5.5.9.a.q.9.9.9.9.3.2.3.5.=.| { ] ] ] ] [ ] ] ] ] [ ..| 8.9.7.3.9.9.9.9.9.9.9.9.9.9.a.9.9.9.a.9.9.a.9.f.9.",
"9.9.9.9.5.9.5.9.9.9.9.5.9.q.q.f.q.q.9.5.>.$.&.3.9.=.| ..| | | ..| ..| | ....8.9.7.$.$.2.7.9.9.9.9.9.9.9.9.9.a.9.9.9.9.9.9.9.9.9.",
"7.5.9.7.9.9.7.9.9.5.9.7.9.9.f.f.f.f.7.3.&.O.$.3.9.8.6.6.4.3.4.<.6.<.6.4.6.6.9.9.3.$.$.>.2.7.9.9.a.9.9.9.9.9.7.9.9.9.9.9.a.9.9.9.",
"9.9.7.9.9.9.7.5.5.9.9.9.7.9.9.q.9.9.2.$.$.&.3.9.f.9.9.9.9.a.9.9.9.9.a.9.9.9.9.9.7.3.$.$.$.6.9.7.9.7.9.9.9.9.9.9.9.9.9.9.q.9.9.9.",
"5.5.9.5.5.9.9.9.9.7.5.9.5.9.9.8.7.9.$.} $.3.9.9.9.9.9.9.9.q.9.a.a.9.9.9.a.q.9.f.9.9.3.O.o.$.7.7.3.7.8.9.9.9.7.9.9.9.9.9.a.9.9.a.",
"9.9.7.9.9.9.5.9.9.9.5.9.9.9.8.9.9.9.4.$.3.q.9.9.9.9.f.9.a.9.9.9.9.9.9.9.9.9.9.9.9.9.9.<.$.3.8.9.3.5.9.9.9.9.9.9.9.9.9.9.a.9.9.9.",
"9.9.9.9.9.9.5.9.5.9.9.9.5.7.7.7.9.f.9.9.a.f.f.9.9.9.9.9.9.9.9.9.9.9.a.9.9.a.9.9.9.9.9.9.9.9.q.9.9.7.9.9.9.9.7.9.7.9.9.9.9.9.a.q.",
"9.9.9.7.9.9.7.5.9.9.9.9.9.8.9.5.9.f.9.9.f.f.f.9.9.9.9.9.9.9.9.a.9.f.9.9.9.9.9.9.9.9.7.9.9.9.a.9.7.5.7.9.9.9.9.9.9.7.9.9.9.a.9.a.",
"9.9.9.9.9.5.5.9.7.9.9.9.9.7.5.7.9.a.9.9.9.9.f.9.9.9.f.9.9.9.a.q.9.9.9.9.9.f.9.9.7.9.3.5.7.9.a.9.9.9.9.9.a.9.7.9.9.a.9.9.a.9.9.a.",
"a.a.9.9.9.5.7.3.2.5.9.q.9.9.9.7.9.q.9.9.9.9.9.9.9.9.9.9.9.9.9.a.9.9.9.9.9.9.9.9.9.7.7.9.8.9.9.9.9.9.p.9.a.a.7.2.7.9.9.9.9.a.a.a.",
"f.a.q.q.9.9.3.&.O.2.f.f.8.9.9.9.a.9.a.a.f.9.f.9.f.9.f.9.f.9.a.q.9.f.f.9.9.f.9.f.9.9.9.8.9.9.9.9.9.9.p.a.g.a.2.@.>.9.7.9.7.7.9.d.",
"f.f.f.f.9.9.7.%.o.-.p.8.p.9.p.9.a.9.q.q.a.q.9.a.9.9.q.a.a.q.f.9.9.q.a.a.q.a.a.9.9.9.9.9.9.9.9.9.9.p.p.a.p.8.-.o.>.9.9.9.a.7.p.d.",
"a.f.f.f.q.9.7.>.$.<.O.-.6.9.a.a.f.9.a.a.a.9.f.a.9.f.a.a.a.a.9.a.f.9.f.9.a.a.9.9.9.9.9.9.9.9.9.9.9.9.p.8.<.=.-.2.7.a.a.9.a.d.a.d.",
"a.a.f.f.f.a.9.9.9.$.E +.6.9.a.a.f.9.a.a.a.q.9.q.q.9.f.a.q.9.f.a.9.f.9.q.a.q.f.9.9.9.9.9.9.7.9.9.9.8.8.<.} } <.f.a.a.a.d.d.f.f.g.",
"a.9.q.a.a.9.9.9.9.4.#.<.3.9.a.q.a.a.q.q.a.a.f.9.a.a.9.q.a.a.9.q.q.9.a.a.a.q.9.9.9.9.9.9.9.9.9.9.9.9.9.4.<.,.4.f.a.a.a.a.a.d.d.d.",
"q.9.9.9.a.a.a.a.a.9.q.9.9.9.9.9.f.9.9.9.f.9.a.a.a.a.a.q.9.f.f.9.a.a.9.q.a.f.9.9.9.9.9.9.9.9.9.5.q.0.0.0.q.q.q.f.a.a.a.a.a.d.d.d.",
"3.7.9.9.7.7.7.a.a.9.9.9.5.q.9.q.9.f.f.9.f.9.q.a.9.q.a.a.q.9.9.9.q.a.f.9.a.9.f.9.f.9.9.9.9.9.9.9.9.q.q.q.q.q.q.a.a.9.7.a.a.a.a.6.",
"%.9.9.9.7.a.a.>.7.7.7.5.5.q.q.a.a.9.9.a.9.q.a.a.f.9.q.a.a.a.9.f.a.a.a.a.a.q.9.9.9.9.9.9.9.9.9.9.8.q.0.0.q.q.8.q.9.a.7.a.a.d.p.:.",
"@.9.7.9.7.7.7.7.7.7.5.5.q.q.9.q.q.9.a.9.9.a.a.q.9.f.a.9.f.a.f.9.a.q.q.a.a.9.f.9.9.9.9.9.9.9.9.9.9.q.q.0.0.0.7.a.a.a.a.a.a.a.:.:.",
"%.7.9.9.9.9.a.a.9.9.5.0.0.0.9.q.9.a.a.a.a.a.a.a.a.a.q.a.a.f.9.9.a.q.9.a.9.q.a.a.9.9.9.f.q.9.9.9.9.9.q.q.8.8.9.a.p.7.a.a.7.7.>.*.",
"*.7.7.9.a.7.a.7.9.5.0.0.0.0.q.9.9.a.9.a.9.a.9.a.f.a.f.a.9.f.a.f.a.9.f.a.f.9.q.a.f.9.9.9.9.9.9.9.q.5.q.5.9.9.a.a.p.a.a.7.7.a.>.;.",
";.7.a.9.9.9.9.9.9.5.0.0.0.q.9.9.9.a.a.a.a.a.f.9.a.f.a.a.f.a.a.9.a.q.9.q.a.q.a.a.9.9.9.9.9.9.9.9.5.q.5.9.a.7.a.p.p.p.a.7.7.p.6.X.",
"X.p.d.9.9.9.7.9.9.9.5.0.0.5.5.q.9.a.9.a.9.a.a.a.a.a.a.f.a.a.f.f.a.a.f.9.a.a.a.q.a.a.q.9.a.9.9.9.9.9.9.5.7.a.7.p.7.p.a.7.7.a.1. ."
};
