/* XPM */
static char *result[] = {
/* columns rows colors chars-per-pixel */
"64 64 158 2 ",
"   c #0E071B",
".  c #11081C",
"X  c #1A0D1E",
"o  c #21111E",
"O  c #1B1121",
"+  c #2B1520",
"@  c #2C1B25",
"#  c #331D21",
"$  c #3A2023",
"%  c #35232C",
"&  c #3A232D",
"*  c #2D2D33",
"=  c #411F23",
"-  c #452527",
";  c #4D2525",
":  c #45262A",
">  c #472C2A",
",  c #4C2A2E",
"<  c #562927",
"1  c #542C2D",
"2  c #5C2C29",
"3  c #4D322A",
"4  c #58322C",
"5  c #4C2E34",
"6  c #4C3334",
"7  c #4F3937",
"8  c #523033",
"9  c #583333",
"0  c #5C3C33",
"q  c #573F3B",
"w  c #5D3A3B",
"e  c #63332A",
"r  c #643E2E",
"t  c #653733",
"y  c #673A36",
"u  c #6A3E3B",
"i  c #5F402E",
"p  c #62412F",
"a  c #694631",
"s  c #6C413E",
"d  c #734D32",
"f  c #784E34",
"g  c #7D5434",
"h  c #7F5539",
"j  c #132542",
"k  c #092B50",
"l  c #133150",
"z  c #093D63",
"x  c #1C5B4F",
"c  c #1C694F",
"v  c #1E6F50",
"b  c #2C7555",
"n  c #585046",
"m  c #6F4542",
"M  c #674D46",
"N  c #704643",
"B  c #6F5345",
"V  c #735546",
"C  c #715548",
"Z  c #765848",
"A  c #785D50",
"S  c #547257",
"D  c #616E5B",
"F  c #7A6156",
"G  c #677B5D",
"H  c #475866",
"J  c #5B7666",
"K  c #92633C",
"L  c #9B6A3F",
"P  c #815F4B",
"I  c #82614D",
"U  c #956946",
"Y  c #9B6A42",
"T  c #876B5B",
"R  c #AA7243",
"E  c #967968",
"W  c #28834D",
"Q  c #33984B",
"!  c #3D984D",
"~  c #759865",
"^  c #D7883C",
"/  c #DD8B3C",
"(  c #E38E3F",
")  c #B99E6A",
"_  c #82AB6D",
"`  c #C68647",
"'  c #C48549",
"]  c #CC8A4B",
"[  c #DD8E41",
"{  c #D5904E",
"}  c #D8934F",
"|  c #D38D53",
" . c #D99350",
".. c #DD935A",
"X. c #E49143",
"o. c #E89646",
"O. c #E39448",
"+. c #EB954A",
"@. c #E6994E",
"#. c #ED9A4B",
"$. c #F0974D",
"%. c #F19D4E",
"&. c #E79450",
"*. c #EE9654",
"=. c #E39A53",
"-. c #EC9E53",
";. c #E79659",
":. c #F19752",
">. c #F19E50",
",. c #EDA14F",
"<. c #EEA252",
"1. c #EDA35F",
"2. c #F5A354",
"3. c #F9A656",
"4. c #F5AA57",
"5. c #F9AD56",
"6. c #F3A459",
"7. c #FBA65A",
"8. c #F7AA5C",
"9. c #FEAD5D",
"0. c #F9B056",
"q. c #FCB15B",
"w. c #C9986C",
"e. c #D39762",
"r. c #C79B74",
"t. c #D29F70",
"y. c #D6A475",
"u. c #D7A97D",
"i. c #EBA466",
"p. c #E8A569",
"a. c #F6AA64",
"s. c #FEAD61",
"d. c #F4AC6B",
"f. c #FEAE69",
"g. c #FFB162",
"h. c #FCB26A",
"j. c #0A598C",
"k. c #1B5D8A",
"l. c #045E93",
"z. c #0A72A6",
"x. c #1B77A6",
"c. c #1B79A9",
"v. c #0070B2",
"b. c #0A8CB5",
"n. c #0D95B4",
"m. c #1198B4",
"M. c #3C86A9",
"N. c #349ABC",
"B. c #0087CA",
"V. c #008CCF",
"C. c #0095D9",
"Z. c #0098DC",
"A. c #DCAC80",
"S. c #D5BC93",
"D. c #E7B98C",
"F. c #ECBE92",
"G. c #F2C69A",
"H. c #F6CA9F",
/* pixels */
"e.p.a.a.s.9.9.9.q.9.s.f.f.f.s.g.s.s.s.s.s.9.s.s.s.s.s.s.s.s.9.s.s.9.9.9.9.9.q.s.9.s.q.9.9.9.9.9.q.9.9.q.9.q.9.0.9.q.q.g.f.f.i.e.",
"p.d.a.s.9.9.9.5.9.q.f.g.g.s.f.s.s.s.9.s.s.s.9.s.7.s.s.s.s.s.s.7.9.9.9.s.s.9.9.9.9.9.s.9.s.9.s.9.9.9.9.9.q.8.q.9.q.9.9.9.s.a.a.i.",
"d.f.f.s.s.9.9.9.q.g.s.s.s.f.s.g.s.s.s.s.s.s.s.s.s.s.7.s.s.s.s.s.9.9.9.9.g.9.9.s.9.9.9.9.9.s.9.9.q.9.q.9.q.9.q.8.9.q.9.9.9.s.a.a.",
"h.f.s.s.s.9.q.9.s.g.g.s.s.s.s.9.s.7.s.9.7.s.s.s.s.s.s.s.s.7.s.9.9.s.9.9.9.9.9.9.9.9.9.9.9.q.9.9.9.9.9.5.9.q.q.s.q.s.s.9.7.9.9.9.",
"h.s.s.s.9.g.9.9.g.s.s.s.s.s.s.s.s.s.s.s.s.9.s.s.9.s.s.s.7.s.s.9.9.9.g.9.9.9.9.9.9.9.9.9.9.9.9.9.5.9.9.5.9.9.9.q.a.9.s.9.9.7.7.9.",
"g.g.g.9.9.9.9.9.9.9.g.q.s.s.s.9.s.s.s.s.s.s.s.s.s.s.s.9.s.s.s.s.9.9.9.9.9.9.9.g.9.3.3.9.9.9.9.9.9.9.9.9.9.9.9.9.q.9.s.s.9.7.7.9.",
"s.9.9.9.7.2.>.2.9.9.s.s.s.9.s.s.s.7.s.s.7.s.s.s.7.s.s.s.s.9.s.s.9.s.9.9.g.9.9.9.2.#.@.3.q.s.g.9.9.9.9.9.9.9.9.9.q.s.9.s.s.7.7.9.",
"9.9.9.9.3.#.+.%.3.7.9.s.9.s.s.9.s.s.7.s.7.s.7.s.s.s.s.s.s.s.s.7.q.9.9.9.9.9.9.9.2.( X.>.9.9.9.9.9.9.9.9.9.9.9.9.s.9.s.9.s.s.9.9.",
"9.9.9.9.7.2.>.$.#.2.7.9.9.9.9.9.7.s.s.s.s.s.9.s.s.s.s.s.s.9.s.9.s.9.9.s.9.9.9.g.3.%.#.@.#.2.9.9.s.s.7.a.s.s.9.9.9.9.9.9.s.s.s.s.",
"9.9.9.9.9.9.7.#.( $.9.7.3.7.7.9.s.s.s.7.s.7.9.s.9.s.9.s.s.s.s.s.9.9.9.9.s.9.9.9.9.9.2.X./ %.q.9.s.a.a.a.s.s.9.9.9.9.9.9.s.s.s.s.",
"9.9.q.s.s.9.7.2.$.2.9.9.7.9.s.7.s.7.7.9.9.7.s.s.s.9.s.9.9.s.s.9.9.9.9.q.s.9.s.9.9.9.5.$.@.2.s.9.s.7.a.a.s.s.9.7.9.9.9.9.7.s.s.7.",
"s.q.s.9.9.s.s.7.7.9.9.9.8.7.s.s.9.s.s.9.9.9.s.9.9.9.9.9.9.9.9.9.9.s.9.s.q.9.9.s.9.9.9.9.7.9.g.s.s.s.s.s.f.s.9.9.9.5.9.9.s.s.s.s.",
"s.g.g.8.9.9.9.9.9.s.g.g.9.9.9.s.9.9.9.9.9.9.9.9.9.9.9.9.s.9.9.9.9.9.9.9.9.s.s.q.q.s.9.9.9.s.g.9.s.s.s.f.f.s.9.9.9.9.9.9.s.s.9.9.",
"a.g.g.g.s.7.7.7.7.9.g.s.s.8.8.s.s.8.s.9.9.9.9.s.s.9.s.9.q.9.9.s.9.g.9.s.9.9.9.9.s.9.9.s.9.9.9.s.s.s.f.s.s.s.9.9.9.9.9.s.s.s.9.9.",
"a.g.8.s.s.7.7.7.7.s.s.g.s.9.9.s.9.s.7.3.7.9.9.9.9.s.9.9.s.9.9.9.9.9.9.q.9.9.s.9.9.9.9.9.9.9.q.s.s.s.s.s.s.s.5.2.5.9.9.s.9.9.9.9.",
"q.g.a.9.7.s.7.7.9.9.s.s.9.8.9.9.g.g.4.o.2.7.9.9.9.9.9.9.9.9.9.s.9.9.s.9.q.s.9.9.9.9.s.q.9.9.s.9.s.s.s.s.s.9.%.+.>.9.9.9.9.9.9.9.",
"s.s.s.9.7.s.s.7.s.s.7.9.9.9.7.9.q.g.<.X.#.7.9.q.s.9.9.9.9.9.9.9.9.s.9.9.s.q.9.9.9.s.9.9.g.9.9.9.7.s.s.7.9.3.+.( #.9.g.9.9.9.9.9.",
"s.s.s.s.s.7.s.s.s.7.s.9.9.9.9.3.<.@.#.>.3.9.9.9.q.9.s.9.s.9.9.s.9.9.9.s.9.9.9.9.9.9.9.9.9.9.9.9.s.7.s.7.%.o.@.#.2.9.s.9.9.9.9.9.",
"s.a.9.7.7.s.7.s.s.9.9.9.9.7.9.2.X./ @.9.9.g.s.9.s.9.9.' 3 3 3 3 3 3 3 3 =.s.9.9.q.s.q.s.9.9.g.9.9.9.9.2.X.( #.9.9.9.q.9.9.9.q.s.",
"9.9.9.9.s.7.s.s.s.7.9.9.9.9.7.7.2.@.2.q.g.s.q.9.q.g.R r : 6 5 5 5 5 = = g  .9.9.9.9.s.9.9.9.9.9.9.9.s.7.%.@.3.q.9.9.s.9.9.s.9.9.",
"s.s.s.7.7.s.7.s.s.7.9.9.9.9.9.9.9.9.q.9.q.9.9.9.9.] 4 , u N N N m s t t 5 h =.9.s.9.9.9.9.9.s.9.s.q.q.s.9.7.9.g.q.s.9.9.9.9.9.9.",
"7.7.s.s.s.s.s.s.s.8.9.9.9.9.9.s.g.s.g.9.9.9.5.9.<.. 1 y N N N N N N N N N 6 0 6.9.9.9.s.s.q.9.9.9.s.s.s.9.9.g.g.s.9.9.9.9.g.9.9.",
"s.7.7.s.s.s.7.s.9.9.9.9.9.9.9.9.9.9.9.5.9.9.9.9.1.. w N N N N N N N N N N N w X 6.s.q.s.9.9.9.9.s.9.g.s.g.s.s.9.9.s.g.9.9.9.9.9.",
"7.9.7.s.9.s.7.s.9.9.9.9.9.9.9.9.8.7.9.9.5.5.9.O.r ; u N N N N N N N N N N m w   6.9.9.9.s.9.9.9.9.9.9.q.g.q.9.9.s.q.9.9.9.9.9.g.",
"9.7.9.s.9.9.9.9.9.9.8.9.9.7.9.9.9.9.9.9.5.7.9.] o 2 u u 8 & & 9 u N N y s N w . 6.9.9.9.s.9.q.s.9.g.9.9.g.s.s.q.9.9.9.9.9.9.9.9.",
"9.9.9.9.9.9.9.9.9.9.9.9.9.9.9.9.9.9.9.5.9.7.5.] o 2 8 ; , 7 7 : 1 s N 2 t u 9 . 6.9.9.9.9.9.s.9.9.9.9.9.9.9.9.9.9.9.9.s.9.g.9.9.",
"9.9.9.9.9.9.9.7.9.9.9.9.9.9.9.7.9.9.9.9.9.5.5.{ - < X O M y.t.n $ 9 u 2 2 2 ; . 6.9.9.9.q.9.s.9.9.9.9.g.9.9.s.9.9.9.q.9.9.9.9.9.",
"9.9.9.9.9.9.9.9.9.7.9.9.9.9.9.9.9.9.9.5.5.9.9.9.=.X . Z t.G.G.r.B + 2 o = 2 ; . 6.9.9.9.s.9.9.9.9.9.9.9.9.9.9.9.s.9.s.9.9.9.9.g.",
"9.9.9.s.9.9.9.9.9.9.9.9.9.9.9.9.9.9.9.9.7.9.9.9.9.=.> % T H.H.A B V + A 8 : 9 . <.s.9.s.9.9.9.9.9.9.9.9.s.q.s.9.9.9.s.9.9.q.s.9.",
"9.9.9.9.9.9.9.9.9.9.9.9.9.9.9.9.9.9.9.5.9.5.5.9.9.9.i   M H.G.n Z r.V w.q % w . 6.9.9.9.9.9.s.s.g.9.9.9.9.9.9.9.9.s.q.9.s.9.9.9.",
"9.9.9.9.9.9.9.9.9.9.7.9.9.9.9.9.9.9.9.9.9.9.5.9.9.5.p @ T H.H.F E G.t.t.C 6 9 d 8.9.9.9.9.g.9.q.9.9.s.q.9.9.s.q.9.s.9.9.s.q.9.s.",
"9.9.9.9.9.9.9.9.9.9.9.9.7.9.9.9.9.7.9.5.5.9.7.9.9.9.a P A.H.H.H.H.F.t.t.t.I a s.g.9.9.9.9.9.9.s.9.9.9.s.9.s.9.9.9.9.9.s.9.9.9.9.",
"9.9.9.9.9.9.9.9.9.9.9.9.9.9.9.9.7.9.9.9.9.7.9.5.9.9.8.Y V u.H.H.D.y.t.t.B L 7.9.9.s.9.s.9.9.9.9.g.9.9.9.s.9.9.s.9.9.s.9.9.9.s.9.",
"9.9.9.9.9.9.9.9.9.7.9.9.5.9.9.7.9.9.5.5.9.5.9.9.9.9.9.R * G _ _ ~ G D D * R 9.9.9.9.9.q.9.s.9.9.9.9.s.9.q.s.9.9.q.9.q.s.9.9.q.9.",
"9.9.9.9.9.9.7.9.9.5.5.9.9.5.9.9.9.9.9.9.5.9.9.9.9.5.<.K n S Q Q W c x J D U -.s.9.9.9.9.9.9.g.9.9.9.9.q.9.9.s.9.s.s.9.9.9.9.s.9.",
"9.9.9.9.7.9.9.9.9.9.9.9.9.7.5.9.9.5.7.9.5.9.5.9.9.9.i I t.) ! Q W v b S.H.E p s.s.q.s.9.9.9.9.9.s.9.9.s.9.9.9.s.9.9.9.9.9.9.s.9.",
"9.9.9.9.9.9.9.9.9.9.9.5.9.7.9.9.9.7.9.5.9.9.5.9.q.9.p I t.) ! Q W v b S.H.E r 9.9.9.g.9.9.s.9.9.9.9.9.9.9.9.9.q.9.9.9.9.9.9.9.9.",
"9.9.9.9.9.9.9.9.9.7.9.9.5.9.9.5.5.9.9.9.5.9.9.9.9.9.2.K H N.m.n.b.b.b.M.H Y 6.9.9.9.9.9.9.q.s.9.q.9.9.g.s.9.9.9.q.s.9.9.g.9.9.9.",
"9.9.9.9.7.9.9.9.9.9.5.9.5.9.9.9.9.9.5.9.5.9.9.9.9.9.5.K z Z.Z.B.V.Z.C.v.k K 7.s.s.9.q.9.9.9.s.9.s.9.9.9.9.9.9.s.s.9.s.9.9.9.9.g.",
"9.9.9.9.9.9.9.9.9.7.5.9.9.9.5.9.9.7.5.9.9.5.9.q.9.7.@.d l c.c.j.l.z.x.k.j f =.8.9.9.s.9.s.9.9.9.9.s.9.9.q.s.9.9.s.9.q.s.9.9.9.9.",
"9.9.7.9.9.9.9.9.9.9.5.5.7.9.9.9.5.9.5.9.9.9.9.q.8.} } g $ e e # o # e e $ g  .{ 9.9.9.9.9.9.9.9.9.s.9.9.9.9.9.9.9.9.9.9.9.s.9.9.",
"9.9.9.9.9.9.9.5.9.9.9.9.9.9.q.9.9.9.9.9.2.2.7.5.9.} } ] ` ` ` ` ' ' ` ` ' ]  . .8.7.8.9.9.9.9.q.9.9.9.9.9.s.9.9.9.9.s.9.9.9.9.9.",
"9.9.9.9.9.9.7.9.9.7.5.9.5.9.q.g.9.g.9.3.%.#.%.7.9.7.=.} } } } }  .}  . . . .=.8.3.%.#.2.7.8.9.9.s.9.9.9.9.9.9.9.9.9.9.9.9.9.s.9.",
"7.5.9.5.5.9.5.9.5.9.9.9.9.9.g.g.g.q.7.2.%.o.#.2.9.9.8.6.6.6.6.6.6.6.6.6.6.6.7.s.3.#.#.%.3.7.9.q.9.9.9.9.9.9.s.7.9.9.9.9.9.9.s.q.",
"9.5.5.9.9.9.5.9.9.5.9.7.9.9.9.9.9.q.2.#.#.%.2.5.9.9.9.9.s.9.9.s.9.9.9.9.9.9.9.q.7.2.%.@.#.2.9.7.9.7.9.9.9.9.7.9.9.9.9.9.s.q.s.9.",
"9.9.9.7.7.9.5.9.9.5.9.5.5.7.9.7.9.8.#.( #.3.9.9.s.q.9.s.9.9.9.q.q.9.g.9.9.9.9.s.9.9.3.X.( %.7.7.3.7.7.9.9.9.9.9.9.9.9.9.9.9.s.9.",
"5.7.5.9.9.9.9.9.7.9.9.9.9.9.7.9.9.9.6.#.3.9.q.s.9.s.9.s.9.9.s.9.s.s.9.9.s.9.9.9.9.9.9.2.%.2.9.7.3.3.9.9.9.9.9.9.9.9.9.9.9.g.9.9.",
"9.9.9.9.9.9.7.5.9.9.5.5.9.5.9.8.9.q.9.9.g.g.g.s.9.9.9.9.s.q.9.9.9.9.9.9.q.s.9.9.q.s.9.9.9.9.q.9.9.9.8.9.9.9.7.9.9.7.9.9.9.9.9.9.",
"9.9.9.9.5.9.5.9.5.9.9.8.9.9.3.3.9.g.9.9.g.g.g.9.9.9.9.s.q.s.9.9.q.9.9.9.9.9.q.s.9.9.9.9.9.9.g.9.9.7.9.9.9.9.9.9.9.9.9.9.9.9.s.9.",
"9.9.9.9.9.9.7.9.5.9.9.9.9.9.8.7.9.s.9.9.9.9.g.9.9.9.q.9.9.9.s.9.s.9.9.9.9.9.s.9.9.7.3.3.7.9.9.9.5.9.9.9.9.9.9.7.s.7.9.s.9.s.s.s.",
"s.9.9.9.9.5.5.2.2.7.9.9.9.8.9.5.9.q.9.9.9.9.9.9.9.9.s.9.9.9.9.9.s.9.9.9.s.9.9.9.9.7.5.9.9.9.9.9.9.9.8.s.s.s.7.3.7.9.9.9.9.s.s.s.",
"g.s.s.9.9.9.7.%.o.2.g.g.9.9.9.9.9.s.s.s.g.9.g.9.9.g.9.s.9.g.9.g.g.9.g.s.s.q.9.9.9.9.8.9.8.9.9.9.9.9.8.f.f.f.>.#.>.9.9.7.7.8.s.s.",
"g.g.g.g.9.9.7.$.X.<.8.a.8.9.9.s.s.9.q.q.q.9.9.g.g.9.q.s.s.9.s.9.9.9.s.q.g.9.q.s.9.9.9.9.9.9.9.9.8.s.a.9.a.a.-.X.>.9.9.9.s.7.s.f.",
"s.g.g.g.q.9.7.>.,.#.@.#.8.a.s.s.g.9.s.s.s.g.9.9.s.q.9.g.9.g.s.q.9.g.s.s.9.9.s.9.9.9.9.9.9.9.9.7.9.a.a.8.<.@.-.2.7.s.s.9.s.f.s.f.",
"s.s.g.g.g.9.9.9.9.@.^ O.6.8.s.s.g.9.s.s.s.9.g.9.s.9.q.9.g.g.9.9.q.s.q.s.9.g.s.9.9.9.9.9.9.9.9.9.9.9.8.<.[ [ <.g.s.s.s.f.f.g.g.f.",
"9.s.q.s.s.9.9.s.9.2.@.2.8.9.9.s.9.g.9.q.9.g.9.g.9.g.s.s.9.9.9.g.s.s.q.s.9.g.9.9.9.9.9.9.9.9.9.9.9.8.9.3.<.,.4.g.s.s.s.9.f.f.f.f.",
"q.9.9.9.s.7.7.s.s.9.q.9.9.9.q.9.9.9.g.g.9.9.s.9.9.9.9.g.g.9.q.9.s.9.q.s.s.9.q.s.9.9.g.9.9.9.9.3.q.q.q.0.q.q.g.g.s.s.s.s.s.f.f.f.",
"7.7.9.9.s.s.7.s.s.9.9.9.5.9.9.q.g.9.9.9.9.g.s.q.g.g.9.9.9.s.s.g.9.g.s.s.9.g.s.9.9.9.9.9.9.9.9.9.9.q.0.q.q.q.q.q.s.9.7.s.s.s.f.6.",
"$.9.9.9.7.7.>.s.7.7.5.5.q.9.q.s.9.g.9.s.q.9.s.s.9.q.g.9.q.s.s.9.q.s.q.q.9.g.9.9.9.9.9.9.9.9.9.9.9.0.0.0.0.0.8.9.9.s.7.s.s.s.7.*.",
"$.3.7.7.7.s.7.s.7.9.3.5.0.q.9.q.9.9.s.9.s.s.q.s.s.s.9.g.s.s.s.q.s.s.s.s.9.9.g.9.9.g.9.9.9.9.9.9.9.q.q.0.0.0.7.s.s.s.s.s.s.s.:.*.",
">.7.7.9.9.7.s.7.9.9.5.0.0.0.9.q.9.s.s.s.s.s.s.q.s.g.9.s.q.s.s.s.s.s.s.q.g.g.9.q.s.9.9.9.q.9.9.9.9.q.q.0.8.9.9.s.s.s.f.7.s.s.*.*.",
"*.7.9.9.9.9.s.s.9.5.0.0.0.0.0.9.9.s.s.9.s.s.s.s.g.s.s.g.s.s.s.g.9.q.s.s.9.9.s.s.q.9.s.9.9.9.9.9.9.5.q.9.9.9.9.s.s.s.7.9.7.7.>.&.",
";.a.s.9.9.9.9.9.9.9.0.0.0.0.9.q.9.s.s.s.9.s.s.s.s.s.s.g.s.g.g.s.g.9.q.s.s.s.9.g.s.9.9.9.9.s.9.9.9.5.5.9.7.7.7.a.a.a.s.7.7.7.a...",
"..a.s.9.9.7.9.9.9.5.5.0.0.0.9.9.9.9.s.9.s.s.s.9.g.g.s.s.g.s.s.s.s.q.s.s.q.s.q.9.s.q.s.9.9.9.q.9.9.9.9.5.7.s.s.a.a.a.9.7.a.f.-.| "
};
