/* XPM */
static char *result[] = {
/* columns rows colors chars-per-pixel */
"64 64 160 2 ",
"   c #0E071B",
".  c #140B1D",
"X  c #1E0E1D",
"o  c #1D111F",
"O  c #24141F",
"+  c #1F1121",
"@  c #1F1C28",
"#  c #111F38",
"$  c #221523",
"%  c #2D1621",
"&  c #2A1A23",
"*  c #341C24",
"=  c #381D26",
"-  c #3E2223",
";  c #3A232D",
":  c #3E2F36",
">  c #3B3E3D",
",  c #411F23",
"<  c #432226",
"1  c #402926",
"2  c #4E2827",
"3  c #462529",
"4  c #492C2B",
"5  c #512726",
"6  c #582A27",
"7  c #542B2B",
"8  c #5B2B28",
"9  c #4D322A",
"0  c #5D312C",
"q  c #5B3C2C",
"w  c #442F32",
"e  c #4D2F35",
"r  c #522E31",
"t  c #493535",
"y  c #4F3937",
"u  c #593738",
"i  c #5B3938",
"p  c #643429",
"a  c #643531",
"s  c #673936",
"d  c #663B39",
"f  c #6A3D3A",
"g  c #57413E",
"h  c #62412F",
"j  c #6A4531",
"k  c #6C403D",
"l  c #62483F",
"z  c #734C33",
"x  c #745038",
"c  c #0B2543",
"v  c #153254",
"b  c #073B68",
"n  c #1E6E50",
"m  c #574841",
"M  c #434750",
"N  c #6D4442",
"B  c #644C44",
"V  c #704643",
"C  c #765542",
"Z  c #72564A",
"A  c #775848",
"S  c #755E56",
"D  c #5A6A59",
"F  c #66675C",
"G  c #616E5B",
"H  c #62705B",
"J  c #4E7062",
"K  c #4A6477",
"L  c #96653A",
"P  c #99673D",
"I  c #9D6A3D",
"U  c #805D46",
"Y  c #86634E",
"T  c #886650",
"R  c #9F7759",
"E  c #A77243",
"W  c #B57B45",
"Q  c #967967",
"!  c #2C8A4D",
"~  c #3C8E4E",
"^  c #33984B",
"/  c #579A53",
"(  c #7B9E69",
")  c #D7883C",
"_  c #DD8B3C",
"`  c #E38E3F",
"'  c #BD8048",
"]  c #B18562",
"[  c #83AD6D",
"{  c #C58647",
"}  c #C58549",
"|  c #CA894C",
" . c #DD8E41",
".. c #D18E4C",
"X. c #D8934F",
"o. c #D38D53",
"O. c #D69151",
"+. c #DA9451",
"@. c #DD935A",
"#. c #E49143",
"$. c #E89646",
"%. c #E39448",
"&. c #EB954A",
"*. c #E6994E",
"=. c #ED9A4B",
"-. c #F0974D",
";. c #F19D4E",
":. c #E79450",
">. c #EE9654",
",. c #E49A53",
"<. c #EB9E52",
"1. c #E79659",
"2. c #F19752",
"3. c #F19E50",
"4. c #EDA14F",
"5. c #EDA153",
"6. c #EDA25C",
"7. c #F5A354",
"8. c #F9A656",
"9. c #F5AA57",
"0. c #F9AD56",
"q. c #F6A65A",
"w. c #FBA65A",
"e. c #F7A95C",
"r. c #FEAD5D",
"t. c #F9B056",
"y. c #FCB15B",
"u. c #D29966",
"i. c #C99B72",
"p. c #D29F70",
"a. c #D5A374",
"s. c #D5A57B",
"d. c #D8A678",
"f. c #EBA466",
"g. c #E8A569",
"h. c #F6AA64",
"j. c #FEAD61",
"k. c #F4AC6B",
"l. c #FEAE69",
"z. c #FFB162",
"x. c #FCB26A",
"c. c #04588D",
"v. c #0E6193",
"b. c #1B6290",
"n. c #0770A5",
"m. c #1A78A8",
"M. c #0078BA",
"N. c #088CB5",
"B. c #0D96B4",
"V. c #1898B6",
"C. c #3287AB",
"Z. c #3B99BD",
"A. c #008ACD",
"S. c #0097DA",
"D. c #0098DC",
"F. c #B2AD86",
"G. c #ECBE92",
"H. c #EFC296",
"J. c #F2C599",
"K. c #F6CA9F",
/* pixels */
"u.f.h.h.r.r.r.t.r.r.z.l.l.l.j.z.j.r.j.w.j.j.j.j.j.j.j.j.w.j.j.r.r.r.r.j.r.r.r.j.j.y.j.r.r.r.r.y.j.r.r.y.r.y.r.y.r.r.j.z.l.l.f.u.",
"g.k.h.j.j.r.r.r.y.y.j.l.l.j.z.j.j.j.j.j.j.j.j.j.j.r.j.w.j.j.j.j.j.r.r.r.r.r.r.r.r.r.r.r.r.j.r.r.r.r.r.r.r.r.y.0.y.r.y.j.r.h.h.f.",
"k.l.l.r.r.r.y.r.y.z.z.z.j.l.j.j.j.j.j.w.j.r.j.w.r.j.j.j.r.j.j.j.r.r.r.r.r.j.y.j.r.r.r.y.r.r.r.r.r.r.y.0.y.y.r.y.y.r.r.r.w.r.r.h.",
"x.l.j.j.j.r.j.y.j.j.j.j.j.j.j.j.j.j.j.j.j.j.j.j.j.j.j.j.j.j.j.j.r.r.j.r.r.r.r.r.r.j.r.r.y.j.j.r.y.0.r.r.0.r.y.y.r.z.e.y.j.r.r.j.",
"x.l.z.r.j.r.j.j.z.z.j.z.j.j.j.r.j.j.j.j.j.j.j.j.j.j.j.j.j.r.r.w.r.j.y.r.r.j.j.r.r.r.r.r.r.r.r.r.r.r.r.r.r.t.y.h.h.r.r.r.r.w.w.w.",
"z.r.j.r.r.r.8.r.r.r.r.j.z.j.j.j.j.j.r.j.j.j.w.j.j.w.j.j.j.j.j.j.r.r.j.r.r.y.r.r.w.8.w.r.r.j.y.r.r.0.w.r.r.r.r.r.y.j.j.j.r.w.w.w.",
"z.r.r.r.w.7.3.8.w.r.r.j.j.r.j.r.j.w.w.j.j.w.j.j.j.j.j.j.j.j.j.r.r.r.j.r.r.j.r.r.7.=.=.8.r.r.r.r.r.r.r.r.r.r.r.r.r.j.j.j.j.r.r.r.",
"r.r.r.r.8.=.&.;.8.w.r.j.r.j.j.j.j.j.j.r.j.j.j.w.j.j.j.w.w.j.j.j.j.r.r.r.r.y.r.j.7.#._ 7.r.r.z.r.r.r.r.j.r.r.j.r.r.r.r.r.j.r.j.r.",
"r.r.r.r.r.3.3.;.-.7.r.r.w.r.r.r.j.j.j.j.j.w.j.j.j.j.j.j.r.j.j.r.y.r.r.r.r.r.r.y.8.;.=.=.=.8.r.r.j.l.w.l.j.j.r.r.r.r.r.j.j.j.j.j.",
"r.r.r.r.r.r.w.&.` ;.w.w.0.w.w.r.w.j.w.j.j.j.r.j.j.r.j.j.j.j.j.r.j.r.j.r.r.r.r.j.j.r.7.#._ =.r.r.w.w.h.h.j.j.r.w.r.r.r.r.j.j.j.j.",
"r.y.r.r.r.j.r.3.-.7.w.r.w.w.j.j.w.j.j.w.w.r.r.j.r.r.j.r.r.j.j.j.r.r.r.r.z.r.r.r.r.r.w.=.=.7.r.r.j.j.l.w.j.j.j.r.r.r.w.r.j.j.j.r.",
"j.r.j.r.r.j.j.w.w.r.z.r.j.r.w.r.j.j.r.r.j.r.r.r.r.r.r.r.r.r.r.j.j.r.j.y.r.r.r.r.z.j.y.w.w.r.z.j.j.j.j.l.l.j.r.w.r.0.r.r.j.j.r.r.",
"z.h.y.z.r.r.j.r.r.j.z.z.r.r.r.r.j.r.r.r.r.r.r.j.r.r.r.r.r.j.r.y.r.r.y.j.r.r.r.z.r.y.r.y.j.r.r.z.j.l.j.j.j.j.j.r.r.r.r.j.j.j.j.r.",
"h.z.z.r.j.w.w.w.w.r.z.e.h.r.j.r.r.j.r.r.r.r.r.r.j.r.j.r.r.r.r.r.r.r.r.j.r.r.r.r.r.j.j.r.r.r.j.r.j.j.j.l.l.j.r.r.y.r.r.r.w.j.r.w.",
"z.z.h.r.j.w.w.w.w.j.z.e.r.r.r.e.h.y.w.8.8.r.r.r.r.j.r.r.j.r.r.r.y.r.r.r.j.r.y.j.r.r.r.r.r.j.r.z.j.j.j.j.j.j.0.8.0.w.r.j.j.y.r.r.",
"h.h.y.r.w.r.w.w.r.j.h.e.r.r.r.h.z.z.8.$.7.w.r.r.r.r.r.r.y.r.j.r.j.j.r.r.r.r.j.r.r.j.r.r.r.r.r.r.w.j.j.j.j.w.3.$.7.r.r.j.r.r.r.r.",
"z.r.j.j.h.r.w.j.j.w.j.q.j.r.r.r.r.y.5.#.=.w.r.y.r.r.r.r.r.r.r.r.j.r.r.r.j.r.r.r.r.r.r.r.j.y.r.r.j.j.r.r.r.q.&._ =.r.y.j.r.r.j.r.",
"j.j.w.j.w.r.w.j.j.j.r.w.r.r.w.8.7.*.=.4.8.r.j.r.r.r.r.j.r.r.j.j.r.r.r.j.y.r.r.j.r.r.j.j.r.j.r.r.w.j.r.w.3.=.=.=.7.r.j.r.r.r.r.r.",
"r.r.j.r.j.w.j.j.r.w.j.q.r.8.r.7.#.) =.r.z.z.y.j.r.r.,.9 9 9 9 9 9 9 9 | j.r.j.r.r.z.r.y.r.r.r.r.r.r.r.7.#._ =.r.r.r.z.r.r.r.y.j.",
"j.r.w.j.j.j.w.j.j.r.r.8.r.r.r.q.5.=.8.r.r.r.r.r.r...z 3 e e e e e < , j } r.y.r.r.r.r.j.r.r.r.z.r.j.j.8.=.=.8.y.r.r.r.r.j.r.r.r.",
"w.j.j.w.w.w.j.j.w.j.r.q.r.r.r.r.r.r.y.z.y.r.r.r.+.z 3 s V V V V N s a r d O.r.r.r.r.r.y.r.r.r.r.j.r.j.r.r.w.r.z.z.r.j.y.r.j.r.r.",
"j.j.w.j.j.j.w.j.j.r.r.q.r.r.r.z.z.z.z.y.r.r.0.r.4 < s V V V V V V V V N i & +.j.r.r.j.j.r.z.r.r.r.j.y.j.z.r.j.z.r.r.r.j.r.y.r.j.",
"j.w.w.j.w.j.j.j.r.r.r.q.r.r.r.r.r.w.w.r.r.r.r.0.4 e V V V V V V V V V V V N & O.r.j.r.r.r.r.r.r.r.y.j.r.y.j.r.r.r.r.r.r.r.r.r.r.",
"w.r.r.j.j.j.w.j.r.r.r.q.r.r.r.r.r.0.0.r.0.w.7.j 2 d V V V V V V V V V V N N $ O.y.r.r.r.r.r.r.z.r.r.j.z.j.z.y.j.r.r.r.r.r.z.r.r.",
"r.8.r.j.r.r.r.r.r.r.r.q.r.r.r.r.r.r.w.r.r.0.<.. 5 f f a ; ; r f V V f f V N + O.r.j.r.j.r.r.r.r.r.r.r.z.j.r.j.r.r.z.r.r.r.r.r.r.",
"r.r.r.r.r.r.r.r.r.r.r.q.r.r.r.r.r.r.r.r.0.r.<.. 5 r 4 3 y u w 7 f V a a f f + O.r.r.r.y.r.j.r.r.r.r.r.r.r.j.y.r.r.r.r.r.z.r.r.r.",
"r.r.r.r.r.r.r.r.r.r.r.q.r.r.r.r.r.r.r.0.w.0.<.1 2 % . t g.p.Z = 6 k 0 6 8 6 X O.r.r.r.r.r.r.z.r.r.y.j.r.r.y.r.r.r.r.r.r.r.r.r.z.",
"r.j.r.r.r.r.r.r.r.r.r.q.w.r.r.r.r.r.r.w.r.r.r.0.4 . g i.J.K.F.T + 6 % * 8 6 X O.j.y.j.r.r.r.r.r.r.j.r.r.r.j.r.r.r.r.z.r.r.r.r.r.",
"r.r.r.r.r.r.r.r.w.r.r.q.r.r.r.r.r.r.r.0.w.r.0.r.<.z & Z K.K.Q B Y * C l = f + o.r.z.r.r.r.r.r.j.j.r.r.r.r.r.r.r.r.r.z.r.r.j.r.r.",
"r.r.r.r.r.r.r.w.r.r.r.q.r.r.r.w.r.r.r.r.0.r.r.r.r.P   : K.K.S m s.Z ] A & N $ O.r.r.r.r.z.r.r.r.r.r.y.j.r.r.r.z.r.r.r.r.j.y.r.r.",
"r.r.r.r.r.r.r.r.r.r.r.q.w.r.r.r.r.r.r.r.r.r.w.0.r.P $ B K.K.Q S J.a.p.T w u j 1.r.r.r.r.r.r.j.r.r.j.j.r.z.r.r.r.r.r.r.r.r.j.j.r.",
"r.r.r.r.r.r.r.r.r.r.r.q.r.r.r.r.w.r.r.0.r.0.r.r.r.I l d.K.K.K.K.J.a.p.i.R & r.y.r.r.z.r.r.r.y.r.r.r.r.r.r.r.r.r.r.z.r.j.r.y.r.r.",
"r.r.r.r.r.r.w.r.r.r.r.q.r.r.r.r.r.r.r.0.0.r.0.r.r.0.' g d.H.K.G.d.p.p.T x q.j.r.r.r.r.j.r.r.r.r.r.j.j.r.r.r.y.r.r.r.r.r.y.j.r.r.",
"r.y.r.w.r.r.r.r.r.r.w.8.r.r.r.r.r.w.r.r.r.r.w.r.r.r...@ G ( [ ( H G G > z j.r.r.r.r.j.y.r.r.j.r.r.y.r.r.r.r.j.j.r.r.r.j.j.r.r.r.",
"j.r.r.r.r.r.r.r.r.r.r.0.0.w.0.w.0.r.0.r.r.0.0.r.r.7.E g D ~ ^ ! n n J F U +.r.j.r.r.r.r.r.r.y.r.r.j.r.r.r.r.r.r.j.j.r.r.r.r.r.j.",
"r.r.r.r.r.r.r.r.w.r.w.0.r.r.r.r.0.r.r.r.w.r.r.r.r.P l p.p./ ^ ! n n F.K.F.o e.r.z.r.r.r.j.r.j.r.r.y.r.j.r.z.r.r.r.y.r.r.r.r.j.y.",
"r.r.r.r.r.r.w.r.r.r.r.9.r.r.0.0.r.r.r.r.r.0.r.r.r.P l p.a./ ^ ! n n F.K.i.+ h.r.r.y.j.j.j.r.r.r.r.r.r.j.y.j.j.r.r.r.z.r.r.r.y.j.",
"r.r.r.r.r.r.r.r.r.r.r.8.w.0.r.r.0.w.r.0.r.r.r.0.r.9.W M Z.V.B.B.N.N.C.K C >.r.r.r.j.r.r.r.j.y.r.r.j.r.r.r.r.r.r.r.r.r.r.j.r.r.r.",
"r.r.r.r.r.r.r.r.r.r.r.8.r.r.r.r.r.0.r.0.0.w.r.r.y.w.W c S.D.A.A.D.D.M.b h q.r.r.r.r.j.y.r.r.r.j.r.j.r.r.r.j.r.j.r.r.r.r.z.r.j.r.",
"r.r.r.r.r.r.w.r.r.0.r.8.0.r.r.w.r.r.r.w.r.r.0.r.r.<.L # m.m.v.c.n.m.b.v 9 O.w.r.r.r.r.j.r.r.r.r.r.y.j.r.r.r.r.y.y.j.r.r.r.r.r.r.",
"r.w.r.r.r.r.w.r.r.r.0.8.r.r.r.r.0.r.r.r.r.w.r.r.+.X.I O p p - o & 0 p < q X.O.e.r.r.r.r.r.r.r.r.r.j.r.r.r.r.r.r.j.r.r.j.r.r.r.j.",
"r.r.0.r.r.r.r.r.r.r.r.8.0.r.y.y.r.r.w.w.0.8.8.0.,.X...{ { | { { } } { { | +.X.r.r.q.w.w.r.r.j.r.r.r.r.r.r.r.j.r.r.r.r.r.r.r.r.r.",
"r.0.r.r.r.w.r.0.r.r.r.q.r.r.y.z.y.y.r.0.;.=.;.0.r.,.X.+.X.X.X.O.X.X.+.X.O.O.q.r.0.;.;.7.w.0.r.r.j.r.r.r.r.r.r.r.r.r.r.r.j.y.r.r.",
"r.r.w.r.r.0.r.r.w.0.r.e.r.r.z.z.z.z.w.8.;.$.&.8.r.e.q.q.9.7.q.q.q.6.q.q.q.q.r.j.8.=.=.;.8.w.r.r.r.r.r.r.r.r.r.r.r.r.r.r.r.r.j.r.",
"r.r.0.r.r.r.0.r.0.r.0.8.r.r.r.r.j.y.7.=.=.;.7.w.r.r.r.r.r.z.r.r.r.r.r.r.j.r.j.y.8.7.=.=.=.7.w.r.w.r.w.r.r.r.r.r.r.r.r.y.r.r.r.r.",
"0.w.r.0.0.r.r.w.r.r.r.8.w.r.0.r.r.w.=._ -.0.r.r.z.r.r.r.r.r.r.r.r.r.r.j.r.r.r.r.r.r.8.$.#.=.8.q.8.w.r.r.w.r.r.w.r.r.r.r.r.j.y.r.",
"r.r.r.r.r.r.0.r.w.r.r.8.r.0.0.w.r.r.7.4.8.r.y.j.r.r.r.z.r.r.r.r.r.r.r.y.r.r.j.r.r.r.w.7.=.8.r.r.w.0.r.r.r.r.j.w.r.w.r.r.r.r.j.r.",
"r.r.r.r.w.r.0.r.0.r.r.q.r.r.w.w.r.z.r.r.z.z.z.j.r.r.r.r.r.r.z.r.r.r.j.r.y.j.r.r.j.r.z.r.r.r.y.r.w.w.w.r.r.r.r.r.r.r.r.j.r.r.r.j.",
"r.r.r.r.r.r.0.r.r.r.r.8.r.r.w.w.r.j.r.r.z.z.z.r.r.r.r.y.r.j.r.r.r.z.r.r.r.r.r.r.r.r.r.r.r.r.z.r.0.w.r.r.r.r.r.r.r.w.r.r.r.j.r.j.",
"r.r.r.0.r.r.0.w.0.r.y.e.r.0.w.w.j.y.r.r.j.y.z.r.r.r.r.j.r.r.r.r.r.r.r.r.r.z.r.r.r.8.q.r.w.r.z.r.r.r.r.j.j.r.w.r.r.j.r.j.r.r.j.j.",
"y.r.r.r.r.w.0.8.8.0.r.w.r.r.0.r.r.r.r.r.r.r.r.r.r.r.j.r.j.r.r.r.r.r.r.r.r.r.r.r.r.8.8.8.0.r.r.r.r.r.r.h.j.j.8.8.w.r.r.r.r.j.r.j.",
"l.z.j.r.w.0.w.;.$.7.z.h.h.e.r.r.j.r.z.r.j.r.z.r.z.j.y.j.y.r.z.j.r.z.z.r.r.z.r.z.r.r.r.r.r.r.r.r.r.r.h.j.z.l.7.&.3.r.w.r.r.w.r.l.",
"z.z.z.z.r.r.8.&.#.5.e.e.e.r.h.j.j.z.r.j.j.j.j.y.r.j.r.z.r.y.y.j.r.y.j.j.y.j.j.r.r.r.j.r.r.r.r.r.r.r.h.r.h.h.<.#.3.r.r.r.w.w.h.l.",
"j.j.z.z.j.r.w.8.<.=.*.<.e.r.r.z.j.y.j.y.r.y.j.j.j.y.j.j.j.j.j.j.z.r.z.r.r.z.r.r.r.r.r.r.w.r.r.r.r.h.h.e.5.*.5.7.8.j.j.j.l.j.l.z.",
"j.j.z.z.z.r.r.r.r.=.) %.q.r.h.y.j.j.z.r.z.r.y.j.j.j.r.y.r.y.j.y.r.z.r.y.j.r.r.j.r.r.r.r.r.0.r.r.r.r.e.5. . .5.z.l.j.l.j.l.z.z.l.",
"r.z.r.y.r.r.r.j.r.7.=.5.e.r.r.j.j.y.r.j.j.y.j.j.y.j.z.r.z.r.j.j.y.r.j.j.j.y.j.r.r.r.r.r.r.r.r.r.r.e.y.9.4.4.e.z.j.j.j.j.j.l.l.l.",
"y.r.r.r.w.j.3.j.j.h.r.r.r.r.r.r.y.j.j.j.y.j.y.j.y.j.j.j.y.j.j.j.j.j.r.y.j.z.r.r.r.r.r.r.r.r.r.r.y.y.t.y.y.y.z.z.r.j.j.j.j.l.l.l.",
"8.r.r.r.w.w.l.j.r.r.r.r.0.y.r.y.j.j.y.j.r.j.j.j.j.j.y.y.j.j.y.y.y.j.z.r.j.r.z.r.r.r.j.r.r.r.r.w.r.y.t.y.y.y.y.y.j.r.w.j.j.j.l.q.",
";.0.r.w.j.w.w.w.w.w.0.0.0.y.y.r.y.j.r.j.z.j.y.y.j.y.r.j.j.y.j.j.j.j.j.j.z.r.r.r.r.r.r.r.r.r.r.r.0.y.t.t.t.t.r.r.r.w.j.j.j.l.w.>.",
"-.w.w.r.j.w.j.w.r.w.0.0.t.y.r.y.r.r.j.r.r.r.j.j.j.j.z.j.j.j.j.y.j.y.y.j.r.r.z.r.z.r.r.r.r.r.r.r.r.r.y.t.t.t.w.j.j.j.j.j.j.j.2.:.",
"2.w.r.r.r.w.j.w.r.0.0.0.t.y.r.y.r.j.j.j.j.j.r.z.j.j.z.r.j.z.r.j.z.r.y.j.y.r.z.r.j.r.r.r.r.r.r.r.r.t.y.t.0.0.j.w.l.3.j.w.w.w.3.>.",
"2.w.w.r.r.j.j.j.r.r.t.t.t.t.r.r.r.j.j.r.j.r.j.j.z.j.j.z.r.z.z.r.r.j.j.j.j.j.j.y.y.r.j.r.r.r.r.r.y.r.y.r.r.j.j.l.l.l.j.j.w.j.3.:.",
"1.h.j.r.r.r.r.r.r.r.t.t.t.t.t.r.r.j.j.j.r.j.j.j.j.j.j.z.j.j.z.j.y.j.j.y.j.j.j.r.j.j.r.r.y.j.y.r.r.0.r.0.w.w.l.h.w.h.j.w.w.h.h.@.",
"@.h.j.r.w.r.r.r.r.0.0.t.t.t.r.y.r.r.j.r.j.j.j.r.z.z.j.j.z.j.j.z.r.j.j.y.j.y.r.z.y.r.j.r.r.r.r.r.r.r.0.r.w.j.w.w.h.l.j.w.w.j.6.o."
};
