/* XPM */
static char *result[] = {
/* columns rows colors chars-per-pixel */
"64 64 159 2 ",
"   c #0E071B",
".  c #140B1D",
"X  c #26131F",
"o  c #25181F",
"O  c #1F1422",
"+  c #241422",
"@  c #251825",
"#  c #2C1A26",
"$  c #281D2A",
"%  c #341922",
"&  c #3C1D23",
"*  c #301D28",
"=  c #12373D",
"-  c #352224",
";  c #3F2127",
":  c #35232B",
">  c #401F25",
",  c #4A2626",
"<  c #412A27",
"1  c #44272E",
"2  c #442A2B",
"3  c #542B2A",
"4  c #5C2C29",
"5  c #47312E",
"6  c #55332A",
"7  c #5C382C",
"8  c #462D32",
"9  c #492C32",
"0  c #562F30",
"q  c #4B3334",
"w  c #523735",
"e  c #5E3331",
"r  c #513B38",
"t  c #61322E",
"y  c #633531",
"u  c #653836",
"i  c #693C39",
"p  c #59413C",
"a  c #624231",
"s  c #694531",
"d  c #67453D",
"f  c #704B31",
"g  c #7D5434",
"h  c #083157",
"j  c #2B334A",
"k  c #16574D",
"l  c #2E4443",
"z  c #1B654F",
"x  c #1E6F50",
"c  c #21734E",
"v  c #3E6655",
"b  c #084068",
"n  c #2A4D6A",
"m  c #374F68",
"M  c #28516F",
"N  c #375872",
"B  c #19796A",
"V  c #5C5F50",
"C  c #6E4441",
"Z  c #704643",
"A  c #6F564A",
"S  c #745D55",
"D  c #477C5A",
"F  c #6A7164",
"G  c #845534",
"H  c #8C5935",
"J  c #86593A",
"K  c #8B5D3A",
"L  c #815F4C",
"P  c #957056",
"I  c #9C7558",
"U  c #A36D41",
"Y  c #AE7642",
"T  c #B27845",
"R  c #B97D47",
"E  c #A57C5C",
"W  c #A37D60",
"Q  c #31944B",
"!  c #33984B",
"~  c #299767",
"^  c #498153",
"/  c #5CA35D",
"(  c #D7883C",
")  c #DD8B3C",
"_  c #E38E3F",
"`  c #BE8148",
"'  c #809C6B",
"]  c #A98263",
"[  c #B08461",
"{  c #BB8D66",
"}  c #BE9067",
"|  c #AD8C75",
" . c #B7957A",
".. c #C3844A",
"X. c #CD8B4C",
"o. c #DD8E41",
"O. c #D08E4E",
"+. c #D8934F",
"@. c #D38D53",
"#. c #D89350",
"$. c #DD935A",
"%. c #E49143",
"&. c #E89646",
"*. c #E39448",
"=. c #EB954A",
"-. c #E6994E",
";. c #ED9A4B",
":. c #F0974D",
">. c #F19D4E",
",. c #E99554",
"<. c #E49B53",
"1. c #EC9E54",
"2. c #F19752",
"3. c #F19E50",
"4. c #EDA14F",
"5. c #EFA253",
"6. c #EDA35F",
"7. c #F5A354",
"8. c #F9A656",
"9. c #F5AA57",
"0. c #F9AD56",
"q. c #F5A55A",
"w. c #FBA65A",
"e. c #F7AA5C",
"r. c #FEAC5D",
"t. c #F9B056",
"y. c #FCB15B",
"u. c #C8976B",
"i. c #D39762",
"p. c #D29F70",
"a. c #CEA47F",
"s. c #D8A678",
"d. c #EBA466",
"f. c #E8A569",
"g. c #F6AA64",
"h. c #FEAD61",
"j. c #F4AC6B",
"k. c #FEAE69",
"l. c #FFB162",
"z. c #FCB26A",
"x. c #376787",
"c. c #307595",
"v. c #0076B8",
"b. c #6D9CA3",
"n. c #78B0BD",
"m. c #198BC2",
"M. c #008DD1",
"N. c #0094D8",
"B. c #0098DA",
"V. c #1799D0",
"C. c #859F84",
"Z. c #C59F80",
"A. c #CDA888",
"S. c #DAAE85",
"D. c #E7B88B",
"F. c #E3BA95",
"G. c #EABD91",
"H. c #F3C69B",
"J. c #F6CA9F",
/* pixels */
"i.f.g.g.h.r.r.r.y.r.h.k.l.k.h.l.h.r.h.w.h.h.r.h.h.h.h.h.h.h.h.r.r.r.r.h.r.r.r.h.r.r.r.l.r.r.r.r.r.r.r.y.y.r.y.0.r.r.y.l.h.g.d.i.",
"f.j.g.h.r.r.r.0.r.y.k.l.k.h.k.h.h.h.h.h.h.h.h.h.h.w.h.h.h.h.r.h.r.r.r.r.r.r.r.r.h.r.r.r.r.r.r.r.y.r.r.r.r.r.r.y.r.y.r.r.h.g.g.f.",
"j.k.k.h.h.r.r.r.y.l.h.h.h.k.h.l.h.h.h.h.h.w.h.h.w.h.h.h.h.h.h.r.h.r.r.r.h.y.r.r.h.r.r.r.r.y.h.r.r.r.y.r.t.y.y.y.y.y.r.r.r.h.k.g.",
"z.k.h.h.h.r.y.r.h.l.l.h.h.h.h.r.r.h.h.h.h.h.h.h.h.h.h.r.w.h.h.h.r.r.r.h.r.r.h.r.y.r.r.r.r.h.r.r.r.0.y.r.r.y.g.h.y.r.h.r.w.r.r.h.",
"z.h.h.h.r.l.r.r.l.h.h.h.h.h.h.h.h.h.h.h.r.h.h.h.h.h.h.h.h.w.h.h.y.r.r.r.r.r.r.r.r.r.r.r.h.r.r.r.r.0.r.w.r.y.r.y.g.r.r.r.r.w.w.r.",
"l.l.l.r.r.r.r.r.r.r.l.y.h.h.h.r.r.h.w.h.h.h.h.h.h.h.h.h.h.h.h.w.h.r.h.r.r.h.h.y.r.w.8.r.r.r.r.r.r.r.r.r.r.r.r.r.y.h.h.h.h.w.w.r.",
"h.r.r.r.w.7.3.7.r.r.h.h.r.h.h.h.h.h.h.h.w.h.h.w.h.h.h.h.h.h.h.h.r.r.r.r.r.r.r.r.7.;.;.7.y.h.y.h.r.r.r.r.r.r.r.r.r.h.h.h.h.w.w.r.",
"r.r.r.r.8.;.=.>.8.w.r.r.h.h.h.r.h.w.h.w.h.h.h.h.r.h.w.h.h.h.r.r.r.h.h.y.h.r.r.h.>.%.%.3.r.r.h.r.r.r.r.r.r.r.r.r.r.r.r.h.h.r.r.r.",
"r.r.r.r.w.3.3.>.;.7.r.r.w.r.r.r.h.h.h.h.h.w.h.h.r.h.r.h.h.h.h.r.r.r.l.r.r.h.r.r.w.>.;.;.;.7.y.r.h.h.w.g.h.h.r.r.r.r.r.r.h.h.h.h.",
"r.r.y.r.h.r.w.:._ :.w.w.w.w.r.r.w.h.w.h.h.h.w.h.h.h.h.h.h.r.h.h.r.r.r.r.r.r.y.h.r.r.7.%.) ;.r.h.w.h.g.g.h.h.r.r.r.r.r.r.h.h.h.h.",
"r.r.r.r.r.h.w.3.:.7.r.r.w.w.w.r.w.h.r.r.w.h.r.h.r.h.r.h.r.r.h.r.r.h.r.r.r.r.r.r.r.r.8.;.;.7.r.r.h.h.g.g.h.h.r.r.r.r.r.r.r.h.h.w.",
"h.y.l.r.r.h.h.r.w.r.r.h.r.w.r.h.h.h.r.r.r.r.r.r.r.r.r.h.r.r.r.r.r.y.h.r.r.l.r.r.l.r.r.r.w.r.l.h.h.h.h.k.h.h.r.r.r.0.r.r.h.h.h.h.",
"h.y.h.l.r.r.h.w.r.h.l.y.h.h.r.g.r.r.r.r.r.r.r.r.r.h.r.r.h.r.r.h.r.r.r.r.l.r.r.l.r.y.h.y.h.r.r.l.h.h.h.k.k.h.r.r.r.r.r.r.h.h.r.r.",
"g.z.g.r.h.r.w.w.w.h.l.g.r.e.r.r.g.r.r.r.r.r.r.r.r.r.r.r.y.h.r.r.h.r.r.r.r.r.r.r.r.h.r.r.r.r.h.r.h.h.k.h.h.h.r.r.r.r.r.h.h.r.r.r.",
"l.l.y.h.w.w.w.w.r.r.l.l.h.e.r.r.r.h.r.9.w.r.r.r.r.r.r.h.r.r.h.r.r.h.r.r.r.r.l.r.r.h.r.r.r.h.r.l.h.h.h.h.h.h.8.8.w.r.r.h.r.r.r.r.",
"g.g.h.r.h.w.w.h.w.r.h.h.r.r.r.r.l.h.7.&.7.w.r.r.h.r.r.r.r.r.r.h.r.y.r.h.r.r.r.r.r.r.r.r.r.r.r.r.h.h.w.h.r.r.3.&.3.r.r.r.r.r.r.r.",
"y.h.h.h.r.h.w.h.r.h.w.r.r.r.r.r.y.e.5.%.;.w.y.r.r.r.r.h.r.y.r.y.r.r.h.r.h.r.r.r.r.r.r.h.r.r.h.r.h.w.h.w.r.7.=.) ;.r.h.r.r.r.r.r.",
"h.h.h.h.w.h.w.h.h.h.h.r.r.w.r.w.7.-.;.4.7.r.l.r.r.r.r.r.r.h.r.r.r.r.r.r.y.r.r.h.h.r.r.y.r.r.r.r.h.h.h.w.3.;.;.;.7.r.h.y.r.l.r.r.",
"h.h.h.w.w.h.h.h.h.w.r.h.r.w.r.7.%.( ;.r.h.l.r.r.r.y.r.r.r.r.r.h.h.r.r.r.h.r.r.r.r.r.r.h.l.r.y.h.r.r.r.7.%.) ;.r.r.l.r.r.r.r.r.r.",
"r.w.w.h.h.r.h.w.r.r.r.w.r.r.w.w.5.;.9.r.l.y.r.r.r.r.r.r.T s s s s s s s K r.r.r.h.y.r.r.r.r.r.r.r.r.h.w.>.;.7.y.h.r.r.r.h.r.h.y.",
"h.w.w.h.w.h.w.h.h.r.r.r.r.r.r.r.r.r.r.y.r.r.r.r.r.r.r.R 7 & > 9 8 8 8 1 , U w.r.r.r.r.r.r.r.r.h.h.r.y.h.r.w.r.l.l.r.r.r.r.r.l.r.",
"h.h.h.w.h.h.h.h.h.w.r.r.r.r.r.h.l.l.y.r.y.r.r.r.r.w.X.2 0 y i Z Z Z Z d e % T e.r.h.r.r.h.y.r.r.r.l.r.h.r.r.l.l.r.r.r.l.r.r.r.r.",
"w.h.r.h.h.h.w.h.r.r.r.r.r.r.r.r.r.w.r.r.r.0.0.r.r.O.@ C Z Z Z Z Z Z Z Z Z t @ ..r.r.l.r.r.h.r.r.r.r.l.l.l.h.h.r.r.r.r.r.r.r.r.r.",
"r.w.w.h.r.h.w.h.r.r.r.r.r.r.h.y.r.r.r.r.0.w.r.0.` * Z Z Z Z Z Z Z Z Z Z Z Z # ..r.r.r.r.r.r.r.l.r.r.r.r.l.y.r.r.y.r.r.r.r.l.r.r.",
"w.w.r.r.r.r.r.r.r.r.r.w.r.r.r.r.r.w.r.r.0.w.r.r.` # Z Z Z Z Z Z Z Z Z Z Z Z 4 6 R h.y.r.r.r.r.r.r.r.r.l.r.l.h.r.h.r.r.h.r.h.r.r.",
"r.r.r.r.r.r.r.r.r.r.r.r.r.w.r.r.r.r.r.0.r.0.0.r.` # Z Z i i Z Z u 1 * 9 i Z y % K r.h.r.h.r.r.r.r.r.r.r.r.r.r.r.r.h.r.r.r.y.r.h.",
"r.r.r.r.r.r.r.w.w.r.r.r.r.r.r.r.r.r.r.r.0.r.0.y...# i i 4 u d u > r p w > 9 3 % K h.h.y.r.h.r.r.r.r.r.r.r.r.y.h.r.h.r.r.r.r.r.r.",
"r.r.r.h.r.r.r.r.r.r.r.r.r.r.r.r.r.r.r.0.w.r.r.r.` X 4 4 3 y u , ; ] s.W # . & 6 T r.r.r.r.y.r.h.y.h.r.l.r.r.r.r.r.r.y.h.r.l.r.r.",
"r.r.r.h.r.r.r.r.r.r.r.r.w.r.r.r.r.r.r.0.r.r.w.r.` X 4 4 X % > @ } F.J.G.{ O   ..r.r.r.r.h.r.r.r.h.r.r.h.h.r.r.h.r.r.r.r.r.h.r.y.",
"r.r.r.r.r.r.r.r.r.r.r.r.r.r.r.w.r.r.r.r.r.w.r.r.` # i + L d q I 8 Z.J. .: . O.w.h.r.r.h.r.r.r.h.r.r.r.r.y.r.r.r.r.l.r.r.r.r.r.h.",
"r.r.r.r.r.r.r.r.r.w.r.r.r.r.r.r.r.r.w.0.0.0.r.r.` # d . I E W a.O  .J.|     6.r.y.h.r.h.r.y.h.y.r.h.r.y.r.h.r.r.r.r.h.r.y.r.r.r.",
"r.r.r.r.r.r.r.r.r.r.r.r.r.r.r.r.r.r.r.w.r.r.r.0.-.J 9 p [ p.S.G.S A.J.Z.r . 5.r.r.r.r.r.r.h.r.r.r.r.r.h.r.r.r.l.r.r.r.r.h.r.h.r.",
"r.r.r.r.r.r.r.r.r.r.r.r.r.r.r.r.r.r.w.r.r.r.0.r.r.5.a E u.p.s.H.J.J.H.S.I a q.r.r.r.r.r.r.r.r.y.h.h.r.r.r.r.h.y.h.r.r.r.r.r.r.r.",
"r.r.r.r.r.w.r.r.r.r.r.r.r.r.0.r.r.r.0.r.w.0.r.r.r.r.9.- P p.s.s.H.J.D.P ; y.r.r.r.r.l.r.r.r.r.h.r.r.r.r.r.r.r.r.h.r.r.r.l.r.r.r.",
"r.r.r.r.r.r.r.r.r.w.0.r.r.w.0.r.r.w.r.0.r.0.r.r.r.r.r.- l v v D / / ^ l ; r.r.r.r.h.r.r.h.r.r.r.r.r.r.l.h.r.r.r.r.r.r.r.r.r.h.y.",
"r.r.w.r.r.r.r.r.r.0.w.r.r.0.r.w.r.0.r.0.r.r.0.r.y.r.w.* = k z c Q Q x = < r.r.r.r.h.y.h.y.h.r.r.r.r.r.r.y.h.r.r.r.r.l.r.r.r.r.h.",
"r.r.r.r.r.r.r.r.r.r.0.r.0.r.r.r.r.r.0.r.r.w.r.r.r.r.X.A F D x c Q ! ^ V d O.y.y.h.r.r.r.r.r.r.r.r.l.r.r.h.r.r.r.r.r.h.y.h.y.h.r.",
"r.r.r.r.r.r.r.w.r.r.w.r.r.r.0.r.0.r.w.r.r.0.0.r.0.1.@ F.J.C.B B ~ ~ ' p.} O 6.h.y.h.r.r.h.h.y.r.r.r.r.r.y.r.l.r.r.r.r.h.r.r.h.r.",
"r.r.r.r.r.r.r.r.r.0.r.0.w.0.r.r.w.r.0.r.r.r.0.r.r.<.$ F.J.n.B.B.B.B.b.p.{ O 1.r.r.r.r.l.r.r.r.h.r.r.h.r.h.h.r.r.h.r.r.r.r.l.r.r.",
"r.r.r.r.r.r.r.r.r.r.r.r.r.r.0.r.r.r.0.r.0.r.r.r.r.e.Y q x.m.B.N.v.M.V.c.5 T e.r.r.r.r.r.r.r.r.r.r.r.y.h.r.r.r.r.y.r.r.r.r.r.r.r.",
"r.r.r.r.r.r.r.r.r.r.w.r.0.r.r.r.0.r.r.r.w.r.0.r.r.5...o j m M b h n N l # X.5.w.l.r.r.r.r.r.r.r.r.r.r.r.r.r.h.r.h.r.r.r.r.r.r.r.",
"r.r.r.r.r.0.r.r.r.r.0.r.0.r.r.y.r.r.r.0.0.7.0.w.8.+.X.g G H G f f G J J g O.#.e.r.q.8.r.r.r.y.r.r.h.r.r.r.r.r.r.h.r.r.r.h.r.h.r.",
"w.r.r.r.r.r.r.r.r.0.r.0.r.r.y.l.y.y.r.r.>.;.:.w.e.#.#.#.+.+.+.#.#.#.#.#.#.#.<.w.8.;.;.7.w.r.r.r.h.r.r.r.r.r.r.r.r.r.r.r.r.l.r.r.",
"0.r.w.0.w.r.0.w.r.w.r.r.r.r.l.l.l.l.w.7.>.&.;.8.r.r.#.#.+.#.#.#.#.#.#.#.#.#.r.r.7.;.;.7.7.w.r.y.r.r.r.r.r.r.r.r.r.r.r.r.r.r.r.r.",
"0.r.r.0.0.0.r.r.w.0.r.r.r.r.r.y.y.r.7.&.;.>.7.r.r.r.r.r.r.r.r.r.r.w.r.r.r.r.r.r.r.7.>.;.;.7.r.w.r.w.r.r.r.w.r.w.r.r.r.r.r.r.h.r.",
"r.w.r.r.r.r.0.w.r.r.r.0.r.r.w.r.r.r.;._ ;.8.r.r.r.r.r.r.r.h.r.y.h.h.r.r.r.r.r.h.r.r.9.%.%.;.w.w.8.w.w.r.r.r.r.r.r.r.r.r.r.r.h.y.",
"r.r.0.r.w.r.r.r.r.0.r.0.0.r.w.w.r.r.7.1.7.h.y.r.l.r.r.h.r.r.r.h.r.r.r.r.r.r.r.h.r.r.r.7.;.7.r.w.8.w.r.r.r.r.h.w.r.w.r.r.r.r.r.r.",
"0.r.r.r.r.r.r.0.r.0.r.r.r.8.r.w.r.h.r.r.l.l.l.y.r.r.r.r.r.r.r.r.r.r.h.r.h.r.r.y.r.r.r.r.r.r.l.r.r.w.r.r.r.r.r.r.r.r.r.h.y.h.r.r.",
"r.r.r.r.r.r.0.r.r.r.r.r.r.r.9.8.r.r.r.r.l.l.l.h.r.h.r.r.y.h.r.r.r.r.h.r.h.y.h.r.r.r.w.r.w.h.l.r.8.r.r.r.r.h.r.r.r.r.r.r.r.h.r.h.",
"r.r.r.r.r.0.w.0.0.r.r.r.r.r.w.8.r.l.r.r.r.h.y.h.r.r.r.r.r.r.h.r.r.r.r.h.r.r.r.r.r.r.w.w.r.r.y.r.r.r.r.e.r.r.r.w.h.w.r.r.h.r.r.h.",
"l.r.r.r.r.w.0.7.7.w.y.r.r.r.r.r.r.r.r.r.r.r.h.r.r.h.r.l.r.r.r.r.h.y.r.y.r.r.r.r.9.w.9.w.w.r.r.r.r.w.r.h.h.h.w.7.w.r.r.r.r.h.h.h.",
"h.l.r.r.r.r.w.>.&.7.l.l.e.e.r.r.h.h.y.r.y.h.y.h.r.h.y.r.r.l.h.h.h.h.r.r.l.h.h.y.r.r.r.r.r.r.r.r.r.r.r.g.z.k.3.&.3.r.r.w.r.w.r.k.",
"l.l.l.l.r.r.w.:.%.1.e.e.w.r.r.h.h.y.h.l.r.l.h.y.l.r.r.y.h.h.h.y.y.y.h.h.y.h.h.r.r.r.y.r.r.r.r.r.h.g.r.g.l.g.1.%.3.r.r.r.w.w.g.l.",
"h.l.l.l.y.r.w.3.>.-.-.1.e.g.h.l.r.l.h.r.y.r.h.r.y.h.l.r.l.r.h.y.h.h.l.r.r.l.h.r.r.r.r.r.w.r.r.r.r.r.g.6.5.-.1.7.q.h.h.h.k.h.k.k.",
"h.l.h.l.l.r.r.r.r.;.( *.q.e.h.h.h.h.y.h.h.h.r.l.h.h.h.h.r.h.h.h.r.l.r.y.r.r.l.r.h.r.r.r.r.r.r.r.r.h.e.5.o.o.5.h.k.h.h.l.h.k.l.z.",
"h.r.y.h.h.r.r.h.r.7.;.5.e.r.h.y.y.h.h.h.y.h.h.h.h.y.y.h.y.h.y.h.l.r.h.h.l.r.r.r.r.r.r.r.r.r.r.w.e.y.y.9.5.4.9.l.h.h.h.r.k.k.k.k.",
"y.r.r.r.h.w.w.h.h.h.r.y.r.r.y.r.h.h.y.r.l.r.r.y.y.h.y.r.h.h.h.y.r.r.l.r.y.r.l.r.r.r.r.r.r.r.r.r.y.y.y.y.y.y.y.l.r.r.h.h.h.k.k.k.",
"8.w.r.r.h.h.w.h.r.r.r.r.0.r.y.r.y.h.h.h.h.y.l.r.h.h.h.l.l.y.h.h.r.l.r.h.h.h.r.r.h.y.r.r.r.r.r.r.r.y.t.t.y.y.y.r.r.h.h.h.h.h.h.q.",
">.r.r.r.w.w.3.h.w.w.w.0.y.r.r.y.y.h.h.r.h.l.r.r.h.y.r.r.r.r.y.h.r.r.l.h.y.r.l.r.h.r.r.r.r.r.r.r.r.t.t.t.t.t.0.r.h.h.h.w.w.g.w.2.",
":.w.w.w.w.h.w.h.w.r.0.0.t.y.r.y.r.h.r.r.h.r.r.l.h.h.l.r.h.l.h.r.l.r.r.y.h.l.r.r.r.r.r.r.r.r.r.r.r.y.y.y.t.t.r.g.h.w.h.h.h.g.w.,.",
":.w.r.r.r.w.h.w.r.r.0.t.t.t.r.y.r.h.h.h.r.h.h.l.l.l.r.h.h.r.l.l.y.r.h.h.h.r.y.h.r.r.y.h.r.r.y.r.r.y.y.t.r.r.r.h.w.g.h.h.h.h.2.2.",
"2.w.w.r.r.r.h.h.r.0.t.t.t.t.y.r.r.h.r.h.h.h.r.h.h.h.h.l.l.r.h.r.h.l.r.y.r.l.h.h.r.r.h.r.r.r.r.r.r.0.t.r.r.h.w.h.k.w.h.h.3.h.1.,.",
",.g.h.r.r.r.r.r.r.0.t.t.t.0.r.r.r.h.r.h.h.h.r.h.l.h.h.l.h.l.h.l.h.h.l.r.y.h.y.h.l.r.r.h.r.r.r.r.r.y.r.0.h.w.h.g.g.g.h.w.q.h.g.$.",
"$.g.k.r.r.w.r.r.r.r.0.t.t.y.0.y.r.h.h.h.h.r.h.h.h.r.l.h.h.l.h.h.h.y.r.h.h.h.y.h.h.r.r.y.r.r.r.r.r.r.0.r.h.3.g.w.g.g.h.w.w.h.1.@."
};
