/* XPM */
static char *result[] = {
/* columns rows colors chars-per-pixel */
"64 64 160 2 ",
"   c #0E071B",
".  c #120A1C",
"X  c #1B0F1E",
"o  c #21141F",
"O  c #141324",
"+  c #0C1F3B",
"@  c #2B1A25",
"#  c #281C27",
"$  c #301C25",
"%  c #341F2A",
"&  c #251E30",
"*  c #172831",
"=  c #3E2127",
"-  c #382426",
";  c #3F2829",
":  c #342731",
">  c #462324",
",  c #4A2325",
"<  c #442C25",
"1  c #482C26",
"2  c #4A2629",
"3  c #46282B",
"4  c #4B282C",
"5  c #512726",
"6  c #522829",
"7  c #5A2C2A",
"8  c #563927",
"9  c #5A3B27",
"0  c #51342B",
"q  c #5D3E2B",
"w  c #492E31",
"e  c #512F32",
"r  c #483536",
"t  c #523335",
"y  c #583031",
"u  c #543438",
"i  c #593A3A",
"p  c #62332F",
"a  c #613F29",
"s  c #663936",
"d  c #683B37",
"f  c #603C3C",
"g  c #6A3D3A",
"h  c #5A443D",
"j  c #64432C",
"k  c #6F452B",
"l  c #6C492D",
"z  c #624535",
"x  c #6B4830",
"c  c #60453E",
"v  c #744E32",
"b  c #0A2748",
"n  c #083159",
"m  c #23344D",
"M  c #22524E",
"N  c #1B664F",
"B  c #1E6E50",
"V  c #2A6D52",
"C  c #43404F",
"Z  c #5F4946",
"A  c #424959",
"S  c #6E4441",
"D  c #644A41",
"F  c #704643",
"G  c #735545",
"H  c #735C55",
"J  c #7D6359",
"K  c #835933",
"L  c #8D5F38",
"P  c #946339",
"I  c #9B693A",
"U  c #A06D3C",
"Y  c #A7713E",
"T  c #A9733E",
"R  c #85634E",
"E  c #8B6A56",
"W  c #96755B",
"Q  c #9D775A",
"!  c #A46F40",
"~  c #AB7441",
"^  c #B47A42",
"/  c #BA7E44",
"(  c #A47C5D",
")  c #2B894D",
"_  c #33984B",
"`  c #3B8C52",
"'  c #1D8E7B",
"]  c #239879",
"[  c #3C997F",
"{  c #479852",
"}  c #599A54",
"|  c #D7883C",
" . c #DD8B3C",
".. c #E38E3F",
"X. c #92977A",
"o. c #A88368",
"O. c #B9946B",
"+. c #BB956C",
"@. c #AF8E77",
"#. c #B7957B",
"$. c #C48447",
"%. c #CB8A4B",
"&. c #DD8E41",
"*. c #D38D53",
"=. c #D69150",
"-. c #DD9352",
";. c #DD935A",
":. c #E49143",
">. c #E89646",
",. c #E39448",
"<. c #EB954A",
"1. c #E6994E",
"2. c #ED9A4B",
"3. c #F0974D",
"4. c #F19D4E",
"5. c #E99554",
"6. c #E19953",
"7. c #EC9E52",
"8. c #F19752",
"9. c #F19E50",
"0. c #EDA14F",
"q. c #EEA254",
"w. c #EEA35C",
"e. c #F5A354",
"r. c #F9A656",
"t. c #F5AA57",
"y. c #F9AD56",
"u. c #F5A55A",
"i. c #FBA65A",
"p. c #F7A85B",
"a. c #FEAD5D",
"s. c #F9B056",
"d. c #FCB15B",
"f. c #C5966D",
"g. c #D39762",
"h. c #D29F70",
"j. c #DBAB7E",
"k. c #EBA466",
"l. c #E8A569",
"z. c #F6AA64",
"x. c #FEAD61",
"c. c #F4AC6B",
"v. c #FEAE69",
"b. c #FFB162",
"n. c #FCB26A",
"m. c #0074B6",
"M. c #007CBF",
"N. c #0080C2",
"B. c #0095D9",
"V. c #0098DC",
"C. c #8F9B90",
"Z. c #AA9989",
"A. c #C3B58C",
"S. c #D8B588",
"D. c #E7B88D",
"F. c #DEC495",
"G. c #EEC49B",
"H. c #F0C397",
"J. c #F2C69B",
"K. c #F6CA9F",
/* pixels */
"g.l.z.z.x.a.a.a.d.a.x.v.b.v.x.b.x.x.a.x.a.x.x.x.i.x.x.x.a.x.x.x.a.a.a.a.a.b.a.a.b.a.a.a.a.a.x.a.a.a.d.a.d.a.d.d.a.a.d.b.x.z.k.g.",
"l.c.z.x.a.a.a.y.a.d.v.b.v.x.v.x.x.x.x.x.x.x.x.a.x.x.a.x.x.x.x.i.a.x.x.a.a.a.a.a.a.a.a.a.a.b.a.a.a.a.a.d.a.a.y.a.a.d.a.a.x.c.z.k.",
"c.v.v.x.x.a.a.a.d.b.x.x.x.v.x.b.x.x.i.x.i.x.x.x.x.x.x.x.x.x.x.x.a.a.x.a.a.a.a.a.a.a.a.a.a.a.a.d.y.a.a.d.y.d.p.d.d.d.x.a.a.x.v.z.",
"n.v.x.x.x.a.d.a.x.b.b.x.x.x.x.a.x.x.x.x.x.x.x.x.x.x.i.x.x.x.i.a.a.a.a.a.a.a.b.a.a.a.a.a.a.a.x.a.a.a.a.y.d.d.b.x.d.x.a.a.i.a.a.x.",
"n.x.x.x.a.b.a.a.b.x.x.x.x.x.x.x.x.x.x.x.x.x.x.x.x.x.i.x.x.x.a.x.a.x.d.a.a.b.a.a.a.a.a.a.x.d.a.a.a.a.y.a.a.a.a.d.p.x.x.a.a.i.i.a.",
"b.b.b.a.a.a.a.a.a.a.b.d.x.x.x.a.x.x.x.a.x.a.x.x.i.x.x.x.x.x.x.x.a.a.x.a.a.a.a.a.a.r.r.a.a.a.a.a.a.a.a.a.y.a.a.a.b.a.x.x.a.i.r.a.",
"x.a.a.a.i.e.9.e.a.a.x.x.a.x.x.x.x.i.x.x.i.x.x.x.x.x.x.x.x.x.x.x.a.a.x.a.a.x.a.a.e.2.2.e.a.x.a.a.a.a.a.a.a.a.a.a.a.a.a.x.x.i.i.a.",
"a.a.a.a.r.2.<.4.r.i.a.a.x.x.x.a.x.x.i.x.i.x.i.x.x.x.x.a.x.a.x.i.x.a.a.a.a.d.a.x.e.:.:.4.a.a.b.x.a.a.a.a.a.x.a.a.d.a.a.x.x.x.x.a.",
"a.a.a.a.i.9.9.4.2.e.a.a.i.a.a.a.a.a.a.x.x.a.a.x.x.x.x.x.x.a.x.a.d.a.a.a.a.x.d.a.i.4.2.2.2.e.d.a.x.v.i.z.x.x.a.a.x.a.a.a.x.x.x.x.",
"a.a.d.a.x.a.i.3...3.i.i.i.i.a.a.z.a.x.i.i.x.x.x.a.x.a.x.x.x.x.x.x.a.a.x.a.a.x.a.a.a.e.:. .2.a.a.x.i.v.i.x.x.i.a.a.a.a.a.x.x.x.x.",
"a.a.a.a.a.x.i.9.3.e.a.a.i.i.i.a.a.x.x.a.x.i.x.a.x.a.x.a.a.x.x.a.a.x.a.a.a.a.a.a.a.a.y.2.2.e.b.a.x.i.z.v.x.x.x.a.a.a.a.a.x.x.x.x.",
"x.d.b.a.a.x.x.x.i.a.a.x.a.i.a.x.x.x.i.x.a.a.a.x.a.a.a.a.a.a.a.a.a.a.x.d.a.b.a.a.x.a.a.a.i.a.x.x.x.x.x.x.v.x.a.a.a.y.a.a.x.x.x.i.",
"x.z.b.d.a.a.a.i.a.x.b.b.x.x.a.x.x.a.a.i.a.a.a.a.a.a.a.a.a.a.b.a.a.a.d.x.a.a.a.b.a.a.a.a.a.x.b.a.x.v.x.x.v.x.a.i.a.a.a.x.i.x.x.a.",
"z.b.a.b.x.a.i.i.i.x.b.d.a.p.a.x.x.i.a.a.a.a.a.x.x.a.x.a.a.a.a.a.x.a.a.a.a.x.a.a.x.a.a.x.a.a.a.x.x.x.x.v.x.x.a.a.a.a.a.a.x.x.a.a.",
"b.z.z.d.i.i.i.i.a.a.b.z.a.b.p.x.a.x.i.r.i.a.a.a.a.x.a.a.a.a.a.a.d.a.a.a.a.a.b.a.a.a.a.a.a.a.d.x.x.x.x.x.x.x.y.r.i.d.a.x.a.a.a.a.",
"b.x.x.x.x.x.i.i.i.a.x.x.a.p.a.a.b.b.t.>.e.i.a.a.a.a.a.a.a.b.a.a.x.a.a.x.a.a.a.a.a.a.x.d.a.a.x.a.x.x.x.x.x.a.4.>.9.a.a.a.a.a.a.a.",
"x.a.x.x.a.a.x.i.i.x.x.a.a.a.a.a.x.d.q.:.2.y.x.a.a.a.x.a.a.a.a.a.a.a.a.a.a.a.x.a.a.a.a.a.d.a.x.a.x.x.i.x.a.u.<. .2.a.a.a.a.a.a.a.",
"x.x.x.x.i.x.x.x.x.x.a.a.a.i.y.i.q.1.2.0.e.a.x.a.x.d.a.a.a.b.a.d.a.a.a.a.a.a.a.a.x.a.a.b.x.a.a.a.i.x.a.i.2.2.2.2.e.a.b.a.d.x.a.a.",
"a.z.a.i.x.i.i.x.x.i.a.a.a.i.a.e.>. .2.a.b.b.d.x.a.a.a.a.u.-.6.-.6.6.6.6.6.p.a.a.d.x.a.a.a.a.a.a.a.a.a.e.:. .2.a.a.x.x.a.a.a.x.a.",
"x.a.i.a.x.x.i.x.a.x.a.i.a.a.i.i.7.2.e.a.a.a.a.a.a.a.a.d.I # o o X # o X # ~ a.x.a.a.a.a.a.x.x.d.x.a.x.i.e.2.e.a.d.a.a.a.x.x.d.a.",
"x.i.i.x.i.x.i.x.x.a.a.a.a.a.a.x.a.x.d.d.d.a.a.a.a.a.a.L 2 > , e t u u u 2 1 I x.a.x.a.a.a.a.a.x.a.a.b.a.a.i.a.b.b.a.a.b.a.a.a.b.",
"x.x.x.i.x.x.i.x.x.i.a.a.a.a.a.x.b.x.d.a.a.a.a.a.a.i.P 0 e s s S F F F F d 2 0 I a.a.x.d.x.a.a.a.a.x.x.x.a.a.d.b.a.a.a.a.a.a.a.a.",
"i.i.a.x.x.x.x.x.a.a.a.a.a.a.a.d.a.y.a.a.a.y.y.a.q.~ 3 u F F F F F F F F F g = < a.a.a.a.d.x.x.a.a.a.b.d.b.b.a.a.a.a.a.a.a.b.a.a.",
"i.x.i.x.a.x.i.x.a.a.a.a.a.a.a.a.a.a.a.a.y.i.a.y.$.. i F F F F F F F F F F F w < 6.a.a.x.a.a.a.a.a.a.a.x.d.x.x.a.a.a.a.a.a.a.a.a.",
"a.i.a.a.a.a.x.a.a.a.i.a.a.a.a.a.a.i.a.a.i.y.a.a.$.. f x F F F F F F F F F F g , @ =.a.a.a.a.a.a.a.a.a.b.x.x.a.a.d.x.a.x.a.a.d.x.",
"a.a.a.a.a.a.a.a.a.a.a.a.a.a.a.a.a.a.a.a.a.y.y.a.$.. f F g s F F d 4 # @ y g d , X =.a.a.x.d.x.d.a.a.a.a.a.d.a.x.a.x.a.a.a.a.x.a.",
"a.a.a.a.a.a.a.i.a.i.a.a.a.a.a.a.a.a.a.y.a.y.y.a.$.  y d p p F d > t G G > % 4 , . =.x.d.a.a.a.x.b.a.a.a.a.a.a.a.a.a.x.x.a.b.a.a.",
"a.a.x.a.a.a.a.a.a.a.a.a.i.a.a.a.a.a.a.a.i.a.a.a.$.. 6 7 5 6 g 2 w E j.j.D # o > j 6.a.a.x.a.a.a.a.a.a.a.a.b.a.a.a.a.a.d.a.a.a.a.",
"a.a.a.a.a.a.a.a.a.a.i.a.a.a.a.a.i.a.a.y.a.a.y.a.$.. 6 7 % $ 5 @ R S.K.J.f.r O q a.a.a.x.x.a.d.a.a.a.b.a.a.a.a.x.d.x.a.a.a.a.x.a.",
"a.a.a.a.a.a.a.a.a.a.a.a.a.a.a.a.a.a.a.y.a.i.a.a.$.  f % z Q X ( i J K.G.r . x e.a.b.a.a.a.a.x.a.a.a.a.a.a.a.x.d.x.a.a.a.a.a.x.d.",
"a.a.a.a.a.a.a.a.a.a.a.a.a.a.a.a.a.a.a.a.y.y.a.y.$.  f % D f.( D.Z H K.G.:   v a.a.a.a.a.a.a.a.x.a.x.a.a.a.x.a.a.a.a.a.x.a.a.a.a.",
"a.a.a.a.a.a.a.a.a.i.a.a.a.a.i.a.a.a.i.i.a.a.a.a.5.K w c Q h.h.D.@.#.K.J.E : v a.a.a.a.b.a.a.a.a.a.d.x.a.x.d.a.x.a.a.x.d.a.x.a.a.",
"a.a.a.a.a.a.a.a.a.a.a.a.a.a.a.a.a.a.a.a.a.a.a.y.a.a.v v o.h.h.D.H.K.J.D.( z U x.a.d.x.x.a.a.x.a.a.a.x.a.a.a.x.x.a.a.a.a.a.x.a.a.",
"a.a.a.a.a.a.a.i.a.i.a.a.y.a.i.a.a.a.y.y.i.y.a.a.a.d.b.j h +.O.%.S.F.S.@.# ! a.a.a.x.a.a.a.a.d.x.a.a.d.a.a.a.a.d.a.a.a.a.x.d.a.a.",
"a.a.a.a.a.i.a.a.a.y.y.a.a.i.a.a.i.a.i.a.y.a.a.a.a.a.d.j * M M V ` _ { M O ! a.a.a.a.x.d.a.a.a.a.a.a.x.a.a.a.a.a.x.a.d.x.a.x.x.a.",
"a.a.a.a.a.a.a.a.a.a.a.a.y.a.y.a.a.y.a.a.y.a.y.a.d.i.l E #.X.N B ) _ { ( Q z I a.a.a.a.x.b.a.a.a.a.a.x.a.b.a.a.a.a.a.x.a.a.d.a.a.",
"a.a.a.a.a.a.a.a.a.a.i.y.y.a.a.a.a.a.i.y.y.a.a.a.a.u.- o.K.A.B B ) _ } h.h.h v a.a.a.a.a.a.b.a.a.a.b.a.a.x.a.a.x.b.a.a.a.x.a.a.x.",
"a.a.a.a.a.a.a.a.a.a.a.a.a.a.i.y.y.a.a.a.a.i.y.a.a.y.v J Z.C.m.' ' ] [ C.W h I a.b.a.a.a.a.a.a.a.a.a.a.a.x.d.x.d.a.a.a.x.a.a.x.d.",
"a.a.a.a.a.a.y.a.a.a.y.a.a.y.i.a.i.a.y.a.a.a.y.a.a.d.e.j n m.V.V.B.B.V.B.+ I i.b.a.a.a.b.a.a.a.x.a.a.a.a.a.a.x.a.a.a.a.a.a.x.a.a.",
"a.a.a.a.a.a.a.a.a.a.i.a.a.y.a.a.a.a.y.a.y.a.a.a.a.y.T ; n m.V.V.M.N.V.B.+ l %.a.a.a.a.a.a.a.a.a.a.a.b.a.a.a.a.a.a.a.x.d.a.a.a.a.",
"a.a.a.a.a.a.a.a.a.a.a.y.a.a.a.a.y.a.y.a.a.y.a.a.q.^ I ; & C M m b m A A O j Y %.a.a.a.a.a.a.a.a.a.a.a.a.a.a.a.x.a.a.a.x.a.a.a.x.",
"i.a.a.a.i.a.a.y.y.a.i.a.a.y.d.b.a.a.a.a.r.r.i.y.7.P I l j k k 9 8 a k k 9 K I ^ a.r.e.a.a.a.a.x.a.a.a.a.x.a.a.a.a.x.a.a.a.a.x.d.",
"a.a.a.a.a.a.a.a.a.a.a.a.a.a.d.b.d.b.a.i.9.2.4.i.q.$.I I I I I I I I I I I I T %.r.4.4.e.y.a.a.a.x.a.a.a.a.a.a.a.a.a.a.a.a.x.a.a.",
"i.y.a.y.y.a.y.i.y.a.i.y.i.d.b.b.b.d.i.e.2.:.2.r.a.a./ Y Y Y Y Y Y Y Y Y Y ~ %.a.e.2.2.4.e.i.a.a.a.a.a.a.a.a.i.a.a.a.a.a.a.a.a.a.",
"a.y.y.i.a.a.y.a.y.a.a.a.a.a.a.b.x.d.e.2.2.4.r.y.b.a.i.p.p.p.p.i.t.i.i.p.p.p.a.a.a.e.9.2.2.e.a.i.a.i.a.a.a.a.a.a.a.a.a.x.d.a.x.a.",
"a.a.a.a.a.i.y.a.i.a.y.a.a.y.i.a.a.i.2.:.2.i.a.a.a.a.a.a.a.a.x.d.a.a.a.x.x.a.a.a.a.a.e.<...2.i.i.r.i.y.a.a.a.i.a.a.a.a.a.x.a.a.a.",
"i.a.y.a.a.a.a.a.y.a.a.i.a.y.i.i.a.a.e.2.e.d.d.a.a.a.a.x.a.x.x.a.a.a.x.d.a.d.x.a.a.x.a.9.0.e.a.y.i.i.a.a.a.a.a.a.a.a.a.a.a.a.a.a.",
"a.a.a.a.a.a.y.i.a.a.y.a.a.a.y.i.a.a.x.a.b.b.b.x.a.x.a.d.a.a.a.a.a.a.a.a.a.a.a.x.a.d.a.a.a.a.a.a.i.i.a.a.i.a.a.a.i.a.a.a.a.a.a.b.",
"a.a.a.a.a.y.a.a.a.y.a.a.y.i.i.y.a.x.a.a.b.b.b.a.a.d.x.a.d.x.x.a.x.d.a.a.a.a.a.a.d.a.y.a.a.a.b.i.y.a.a.a.a.a.a.a.i.a.a.a.a.x.a.x.",
"a.a.a.y.a.y.i.y.a.a.a.a.a.a.i.i.a.x.a.a.x.d.b.a.a.a.x.a.a.a.a.a.a.x.a.a.a.b.a.a.a.i.i.i.i.a.x.a.a.i.i.a.a.x.x.a.a.a.a.a.x.a.a.x.",
"a.a.a.a.a.i.i.r.e.y.a.a.p.a.a.a.a.d.a.a.a.a.a.a.a.a.a.a.a.a.a.a.a.a.a.a.a.a.x.a.a.i.t.i.a.a.a.a.a.a.x.x.v.i.i.e.i.a.a.x.a.x.x.x.",
"b.b.b.a.a.a.r.4.>.e.x.b.b.x.p.a.x.a.b.a.x.a.b.a.b.a.a.b.a.b.a.b.d.x.b.a.a.b.a.a.a.a.a.i.a.a.a.a.p.x.x.z.n.x.e.<.9.i.a.i.a.i.a.v.",
"b.b.b.d.x.a.r.2.&.q.z.p.p.x.x.b.x.d.x.a.x.x.x.d.a.b.x.a.b.a.x.a.x.x.x.b.a.b.a.a.a.x.a.a.a.a.a.a.x.x.x.z.z.p.7.:.8.a.a.a.i.i.x.n.",
"b.x.b.b.a.a.i.r.9.2.1.7.p.p.x.x.x.x.a.b.d.d.x.x.a.a.x.d.x.d.x.d.x.d.a.a.a.b.d.x.a.a.a.a.a.a.a.a.b.p.z.p.0.7.7.e.i.x.x.x.v.x.v.v.",
"x.x.b.b.b.x.a.a.a.2.| ,.w.a.z.d.x.d.x.d.x.x.x.x.b.x.x.a.x.x.x.x.x.d.b.a.a.a.b.a.a.a.a.a.a.a.a.a.a.d.z.q.,.| q.b.x.x.x.b.v.b.b.v.",
"x.a.b.a.a.a.a.a.a.e.2.e.t.a.a.x.b.a.x.a.b.a.d.a.a.d.a.b.x.d.d.x.x.a.b.a.b.a.a.a.x.a.a.a.i.a.a.a.a.p.s.t.q.0.t.b.b.x.x.x.x.v.v.v.",
"a.a.a.a.x.9.9.x.x.a.d.a.a.a.a.d.x.x.x.x.d.x.a.b.d.a.a.b.b.a.a.a.a.b.x.x.d.d.x.a.x.a.x.a.a.a.a.y.a.d.s.s.d.d.b.b.x.x.x.x.x.v.v.v.",
"e.a.a.a.x.x.x.x.z.a.y.a.a.s.a.a.d.x.d.x.d.x.x.x.x.b.a.a.a.a.b.b.d.a.d.x.x.x.x.a.d.a.a.a.a.a.a.a.d.d.d.s.d.d.d.a.x.a.i.x.x.x.x.u.",
"4.i.a.i.x.i.i.x.a.i.y.y.a.d.d.a.d.x.a.x.x.x.d.d.x.a.b.a.d.x.a.a.x.b.a.x.a.a.b.a.a.a.a.a.a.a.a.a.a.d.s.s.s.s.y.x.a.x.i.x.x.v.i.8.",
"3.i.a.i.x.i.i.x.i.a.r.y.s.d.a.d.a.a.x.a.x.a.x.x.x.b.a.b.x.x.b.a.x.a.d.x.b.b.a.a.x.a.a.a.a.a.a.a.a.y.d.s.s.s.i.x.x.x.x.x.x.i.i.5.",
"4.i.a.a.i.x.i.i.a.y.y.s.s.s.d.a.a.x.x.x.x.x.x.b.a.b.a.x.a.x.b.b.a.x.x.x.a.x.a.b.a.a.x.a.a.a.d.a.a.a.s.d.i.y.x.x.v.i.x.x.i.x.u.5.",
"8.i.a.a.a.x.x.x.a.a.s.s.s.s.d.a.a.x.a.x.a.x.a.x.b.x.x.b.b.x.x.a.b.x.d.d.d.x.d.a.a.x.d.x.a.a.a.a.a.d.y.d.a.x.x.x.i.i.x.x.x.9.8.5.",
"5.x.a.a.a.x.a.a.a.a.s.s.s.s.d.a.a.x.x.x.x.x.a.x.b.x.x.b.b.x.x.b.a.d.x.x.x.d.x.x.x.a.a.a.a.a.a.a.a.y.a.d.i.i.i.z.z.z.x.i.i.z.u.;.",
";.z.v.i.a.i.a.a.a.y.y.s.s.s.y.a.a.x.a.x.a.x.x.x.a.b.x.x.a.b.x.x.x.x.d.x.x.a.b.a.d.x.a.x.d.a.a.a.a.a.a.y.x.x.x.z.z.z.x.i.i.x.w.*."
};
