/* XPM */
static char *result[] = {
/* columns rows colors chars-per-pixel */
"64 64 150 2 ",
"   c #0E091D",
".  c #150B1D",
"X  c #1C0F1F",
"o  c #23111E",
"O  c #150E21",
"+  c #251624",
"@  c #261E28",
"#  c #331B24",
"$  c #0F223D",
"%  c #372324",
"&  c #39232C",
"*  c #3F2B30",
"=  c #452225",
"-  c #422A27",
";  c #462428",
":  c #4C2728",
">  c #4B2A2D",
",  c #532827",
"<  c #582927",
"1  c #542A2A",
"2  c #5C2D2A",
"3  c #59352D",
"4  c #532F31",
"5  c #4D3436",
"6  c #513235",
"7  c #5B3734",
"8  c #513B3A",
"9  c #603B2D",
"0  c #633431",
"q  c #673935",
"w  c #683B37",
"e  c #633C3B",
"r  c #693D3A",
"t  c #4E423E",
"y  c #5C443E",
"u  c #62412F",
"i  c #624130",
"p  c #6B4430",
"a  c #6C4935",
"s  c #68443D",
"d  c #0B2644",
"f  c #11395F",
"g  c #185A4E",
"h  c #1E6F50",
"j  c #06406E",
"k  c #434541",
"l  c #515154",
"z  c #6E4542",
"x  c #634A41",
"c  c #704643",
"v  c #765643",
"b  c #785844",
"n  c #75584B",
"m  c #7F5F4C",
"M  c #446A5E",
"N  c #516657",
"B  c #7A6259",
"V  c #69725C",
"C  c #5A707F",
"Z  c #93633C",
"A  c #88654F",
"S  c #926E54",
"D  c #AA7445",
"F  c #B57B44",
"G  c #BA7D45",
"H  c #B67B48",
"J  c #947767",
"K  c #9B7C67",
"L  c #2C8B4D",
"P  c #3A8C4E",
"I  c #33984B",
"U  c #589A54",
"Y  c #6F835E",
"T  c #D7883C",
"R  c #DD8B3C",
"E  c #E38E3F",
"W  c #BD8046",
"Q  c #AB815F",
"!  c #83A16C",
"~  c #8BAF71",
"^  c #C7874A",
"/  c #CC8B4D",
"(  c #DE8E41",
")  c #D18D4E",
"_  c #D5914D",
"`  c #D9934F",
"'  c #D38D53",
"]  c #D59050",
"[  c #D99350",
"{  c #DD935A",
"}  c #E49143",
"|  c #E89646",
" . c #E39448",
".. c #EB954A",
"X. c #E6994E",
"o. c #EC9A4B",
"O. c #F0974D",
"+. c #F19D4E",
"@. c #E79450",
"#. c #E29953",
"$. c #EC9E54",
"%. c #E79659",
"&. c #F19752",
"*. c #F19E50",
"=. c #EDA14F",
"-. c #EDA156",
";. c #F5A354",
":. c #F9A656",
">. c #F5AA57",
",. c #F9AD56",
"<. c #F5A65A",
"1. c #FBA65A",
"2. c #F7A85C",
"3. c #FEAC5D",
"4. c #F9B056",
"5. c #FCB15B",
"6. c #D39762",
"7. c #C89A72",
"8. c #D29F70",
"9. c #D5A375",
"0. c #D8A77A",
"q. c #D6A87F",
"w. c #DAA87A",
"e. c #EBA466",
"r. c #E8A569",
"t. c #F7A661",
"y. c #F6AA64",
"u. c #FEAD61",
"i. c #F4AC6B",
"p. c #FEAE69",
"a. c #FFB162",
"s. c #FCB26A",
"d. c #03619A",
"f. c #136A9E",
"g. c #0A6AA1",
"h. c #027BB9",
"j. c #0B8AAB",
"k. c #1896AB",
"l. c #1298A9",
"z. c #1282B8",
"x. c #3B8BA8",
"c. c #4A99B5",
"v. c #008ACD",
"b. c #0096DA",
"n. c #0098DC",
"m. c #A9AA83",
"M. c #C9A485",
"N. c #EDC094",
"B. c #F2C69A",
"V. c #F5C99F",
/* pixels */
"6.r.y.t.u.3.3.3.5.3.u.s.p.u.s.3.u.u.u.u.u.u.1.u.u.u.u.3.u.u.u.u.3.3.3.u.3.3.3.u.3.3.u.3.3.5.u.3.3.3.5.3.3.5.3.4.3.5.5.a.p.p.e.6.",
"r.i.y.u.3.3.3.,.3.5.u.p.u.p.u.u.u.3.u.3.u.1.u.u.u.u.u.u.3.u.1.u.3.3.3.3.3.3.5.3.3.u.3.3.u.u.3.3.3.3.3.5.3.3.5.3.5.3.u.5.u.t.y.e.",
"i.p.p.u.u.3.3.3.5.a.u.a.u.u.a.u.u.u.u.u.u.u.u.u.u.u.u.1.u.u.u.u.u.3.3.3.3.3.u.3.3.5.3.3.3.3.3.5.3.3.3.3.5.5.2.5.3.5.3.3.3.u.u.y.",
"s.p.p.u.3.3.a.5.a.u.a.u.u.p.u.u.u.u.u.1.u.u.u.3.u.u.u.u.3.u.u.u.3.3.3.u.3.u.3.3.3.3.3.3.3.3.u.3.3.,.3.4.3.5.5.u.5.y.3.3.1.3.u.u.",
"s.a.u.u.3.5.3.3.a.a.3.a.u.u.u.u.u.u.u.u.1.u.3.u.u.1.u.u.u.u.u.1.3.3.u.5.3.3.u.3.3.3.3.3.3.u.3.3.5.3.3.,.3.5.3.5.2.u.u.3.3.1.1.3.",
"a.u.u.u.u.3.1.3.3.3.u.u.u.a.u.u.u.u.u.u.u.u.u.u.u.u.1.u.u.u.u.3.3.u.3.3.5.u.3.3.3.:.1.3.3.3.3.3.3.3.3.1.3.3.3.3.a.3.u.u.3.1.1.1.",
"5.3.u.3.1.;.+.:.1.3.3.u.u.u.3.u.u.1.u.3.u.u.u.u.u.u.u.u.3.u.1.u.3.u.3.3.3.3.3.u.;.o.o.;.5.u.5.u.3.3.3.3.3.3.3.3.5.u.3.u.3.3.1.3.",
"3.3.3.3.1.o...+.:.1.3.u.3.3.u.u.u.u.1.u.u.1.u.u.u.u.3.u.u.u.u.u.u.5.3.u.3.u.5.3.*.} } *.3.3.3.u.3.3.3.3.3.3.u.3.3.3.3.u.u.u.u.3.",
"3.3.3.3.1.;.*.+.O.;.3.3.1.3.3.3.u.1.u.u.u.u.1.u.u.3.u.3.3.u.u.3.3.3.3.u.3.3.3.3.:.*.o.o.o.;.5.3.u.t.t.u.1.u.3.3.3.3.3.3.3.u.u.u.",
"3.3.3.3.3.3.1.O.E +.1.1.1.1.3.3.u.u.u.1.u.1.3.u.u.u.u.u.u.u.u.3.3.3.3.3.3.u.3.a.3.3.;.} R o.3.u.u.u.u.t.t.u.3.3.3.3.3.3.u.u.u.u.",
"3.3.5.u.3.u.1.*.O.;.1.3.2.1.3.3.u.1.3.u.u.1.u.u.3.3.u.u.3.u.u.u.3.3.5.u.3.3.3.3.3.u.:.+.o.;.3.3.u.u.t.p.t.t.3.3.3.3.3.3.u.u.u.u.",
"u.5.u.3.3.u.u.1.1.3.a.3.2.1.3.3.3.u.3.3.3.3.3.3.u.3.3.3.3.3.3.3.3.u.3.3.u.5.3.u.3.5.3.1.1.3.a.u.u.u.u.p.t.t.3.3.1.3.3.3.u.u.3.3.",
"a.y.5.a.3.u.3.3.2.u.a.u.u.2.3.u.u.3.3.3.3.3.3.3.3.3.3.u.3.a.3.3.3.u.3.3.u.3.5.u.a.3.u.3.3.a.3.a.u.u.u.u.y.u.3.3.3.3.3.3.1.u.u.3.",
"y.a.a.3.u.1.1.1.3.3.a.a.u.3.3.u.3.3.2.3.3.3.3.3.3.3.3.3.3.3.3.3.u.5.u.5.3.3.u.3.3.3.3.3.3.3.3.a.u.u.u.p.y.u.3.3.3.5.3.u.u.u.3.1.",
"y.a.y.3.3.1.1.1.1.u.a.u.5.3.3.t.u.u.1.>.1.3.3.3.3.3.3.3.3.3.u.5.3.3.3.3.3.3.3.3.3.u.3.3.3.3.3.u.u.p.u.u.2.u.:.:.1.3.3.3.3.3.3.3.",
"a.y.a.3.u.1.1.1.3.3.u.u.u.3.3.3.a.a.;.| ;.1.3.u.3.3.u.3.u.3.3.3.3.3.u.3.3.a.3.3.u.5.3.3.3.3.3.3.3.u.t.u.2.1.;.| *.3.3.a.3.3.3.3.",
"5.u.u.3.u.1.u.u.1.u.u.u.3.3.1.3.5.a.-.E o.1.3.3.3.3.5.3.3.u.u.3.3.3.3.3.3.3.3.3.3.3.3.u.5.u.3.3.3.u.3.3.<.;...R X.3.3.3.3.u.3.5.",
"u.u.u.3.1.u.u.1.u.3.3.1.3.3.3.:.;.X.o.;.>.3.5.3.3.3.u.3.3.3.3.3.3.3.u.3.3.u.3.3.3.3.u.5.u.3.3.3.3.3.3.1.o.o.o.o.;.3.a.3.3.3.3.3.",
"u.u.3.u.1.u.1.u.1.u.3.3.3.1.1.;.} T o.3.u.a.u.3.3.3.5.3.3.2.3.2.3.2.2.3.3.3.u.3.3.a.3.3.3.3.3.u.3.3.3.;.( E o.3.3.5.u.3.u.3.u.3.",
"3.3.1.t.u.1.u.u.u.3.3.3.3.3.3.1.=.o.;.5.a.5.3.3.3.3.3.3.W % % % % % % % % ] 3.3.3.3.3.u.3.3.u.5.3.3.u.1.X.o.;.5.3.3.u.3.5.3.3.3.",
"u.1.1.u.1.u.1.u.u.1.3.3.3.3.3.u.u.3.a.5.5.3.3.3.5.3.3.F 9 = = 6 6 6 6 6 ; p / 3.3.3.u.3.3.3.u.3.u.5.3.3.<.1.3.a.5.u.3.3.u.3.3.u.",
"u.u.u.1.u.u.u.u.u.u.3.3.3.3.3.5.a.u.5.5.3.3.3.3.3.1.^ 7 4 q q z c c c c w > p ] 3.3.3.3.3.3.3.3.3.u.a.u.2.5.u.a.u.3.3.u.3.3.3.3.",
"1.1.3.u.u.u.1.u.3.1.3.3.3.3.u.3.3.3.3.3.3.,.,.3.3.) + e c c c c c c c c c r ; - 3.3.5.u.5.u.3.3.u.3.a.u.2.u.3.u.3.u.u.5.3.3.3.5.",
"1.u.1.u.3.u.1.u.3.3.3.3.3.3.3.3.3.1.1.3.,.1.3.,.^ + c c c c c c c c c c c z 6 - 2.u.3.3.u.3.3.3.3.3.3.5.u.a.5.3.3.3.3.3.3.u.3.u.",
"2.3.3.3.3.3.3.3.3.3.3.3.3.1.3.3.3.1.3.3.,.1.3.3.^ + s c c c c c c c c c c c w : i <.3.3.3.3.3.u.3.3.3.a.2.u.3.u.5.u.3.3.3.u.3.3.",
"1.3.3.3.3.3.3.3.3.3.3.2.3.3.3.5.3.3.3.,.3.,.,.3.^ + c c r w c c r 6 & & 7 r r , . #.3.3.3.u.u.5.u.3.3.3.1.3.u.5.3.3.3.3.u.5.3.3.",
"1.3.3.3.3.3.3.3.3.3.3.3.3.3.3.3.1.3.3.3.,.3.,.3./ o s r 0 0 c r > > 8 8 ; > 4 , . #.3.3.3.3.u.3.3.3.3.3.2.5.3.3.u.3.3.3.3.u.u.3.",
"2.3.3.3.3.3.3.3.3.3.3.3.3.3.3.3.3.3.3.,.3.1.3.3./ o 2 2 < 0 s 1 # n 9.9.5 X o , - $.u.u.3.3.3.3.u.5.3.3.2.u.3.3.3.3.3.a.3.5.3.3.",
"3.3.3.u.3.3.3.3.1.3.3.3.3.3.1.3.3.3.3.,.3.3.3.3./ o 2 2 # # 1 X A M.B.B.7.y . * <.3.u.5.3.3.3.3.3.3.3.3.2.3.3.u.5.u.3.3.u.3.3.u.",
"3.3.3.3.3.3.3.3.3.3.3.3.3.1.3.3.3.3.3.3.1.,.,.3.^ o e # s s % A s K V.V.n @ p $.3.3.3.3.5.3.u.3.3.u.5.3.2.3.3.3.u.3.3.u.3.3.u.5.",
"3.3.3.3.3.3.3.3.3.3.3.3.3.3.3.3.3.3.3.,.3.3.3.3.^ + z + m Q n q.t B V.V.*   Z 5.u.3.3.3.u.3.u.3.3.3.u.3.2.u.3.u.3.3.3.3.3.3.3.3.",
"u.3.3.3.3.3.3.1.3.3.1.3.3.3.3.3.3.3.3.1.3.,.,.3. .q 7 * S 8.9.B.B J V.V.x + Z 3.5.3.u.3.3.u.5.3.u.3.3.u.2.5.3.3.3.3.u.5.3.u.3.3.",
"5.3.3.3.3.3.3.3.3.3.3.3.3.3.3.3.3.3.3.3.3.,.3.,.3.-.. Q 8.8.0.B.V.V.V.V.w.x Z 3.3.u.3.5.u.3.3.u.3.5.u.3.2.3.3.3.3.u.u.u.3.3.3.u.",
"3.3.3.3.3.3.3.1.3.1.,.3.3.3.3.1.3.1.,.,.3.3.1.3.3.3.-.a S 8.9.w.N.V.N.0.x H 2.3.3.3.3.3.u.3.3.3.3.3.u.3.2.u.3.3.5.3.5.3.3.3.5.3.",
"3.3.3.3.3.3.3.3.3.3.3.3.3.,.3.,.3.3.3.3.,.3.3.3.3.,.3.u t V V Y ! ~ ! V @ ) 3.5.5.u.3.3.3.3.u.3.u.5.3.3.2.5.3.3.u.3.u.3.3.3.u.3.",
"3.3.3.1.3.3.3.3.3.3.,.3.3.1.3.,.3.,.3.1.,.3.,.3.3.3.#.v N M g h L I P N k D <.u.3.u.3.3.3.3.5.u.3.u.3.3.1.u.3.3.3.3.3.3.3.u.3.3.",
"3.3.3.3.3.3.3.3.3.,.1.3.3.3.1.3.3.3.3.,.3.3.,.3.3.-.. M.V.m.h h L I U 8.8.x Z 3.3.3.5.3.u.u.3.3.3.3.3.3.2.3.3.u.3.3.3.u.5.u.3.3.",
"3.3.3.3.3.1.3.3.3.3.,.3.,.3.,.3.,.1.3.3.,.3.3.3.3.;.. M.V.m.h h L I U 9.8.x Z 3.3.3.u.u.3.5.3.3.3.3.3.3.2.a.u.5.3.3.u.5.u.3.3.3.",
"3.3.3.3.3.3.3.3.3.3.3.3.,.3.,.3.3.3.,.3.1.3.,.3.3.3.[ b C x.j.j.l.l.k.c.l D <.3.3.u.5.3.3.3.3.u.u.5.u.u.1.3.3.3.3.u.3.3.3.3.3.u.",
"3.3.1.3.3.3.3.3.3.3.1.,.3.3.1.3.,.,.1.3.,.3.3.3.5.5.>.3 j h.n.n.v.v.b.b.d H 3.3.3.3.u.u.3.3.3.3.3.3.3.3.2.3.3.3.u.5.3.u.3.3.u.5.",
"3.3.3.3.3.1.3.3.3.3.,.3.,.3.3.3.3.3.3.,.3.3.,.3.3.2._ - f f.z.h.d.g.z.z.$ Z -.3.3.3.3.3.3.3.3.3.3.3.3.u.<.3.3.3.3.3.3.3.3.3.3.3.",
"3.3.3.,.3.3.3.3.3.3.3.1.3.3.a.5.3.3.3.3.:.:.:.3.2.` _ - % 2 1 O   # 2 2 o Z ` #.3.>.1.1.3.3.3.5.u.3.3.3.<.3.3.3.3.3.3.u.3.u.3.3.",
"3.3.1.3.3.3.,.3.3.,.,.3.,.3.5.a.5.a.3.:.;.| +.:.<.` ] W F G G F F H G G H ^ [ #.;.+.+.;.1.3.3.3.3.3.3.3.<.3.3.3.3.3.3.3.3.u.u.3.",
"3.,.3.3.3.1.,.3.1.3.3.3.3.3.a.a.a.5.1.;.+.| o.:.3.<.[ [ ` ` ` ` [ [ [ [ [ [ #.2.:.o.o.*.;.1.3.3.u.3.3.3.<.3.3.3.3.3.3.3.u.5.3.3.",
",.3.,.3.3.3.,.3.3.,.1.,.3.5.3.5.3.5.;.o.| *.;.3.3.u.-.-.-.-.-.-.-.-.-.-.-.-.2.3.1.;.+.o.o.;.1.3.1.3.3.3.<.3.3.3.3.3.3.3.3.3.3.u.",
"3.1.3.3.,.3.3.1.3.,.3.3.3.1.3.1.3.1.o.} +.:.3.3.3.3.3.3.u.3.u.3.3.u.a.3.3.u.3.3.3.5.;...} o.1.:.:.1.3.3.<.3.3.1.3.3.3.3.3.3.u.5.",
"3.3.3.,.3.3.,.3.3.3.3.3.,.1.1.3.3.3.;.o.;.3.3.5.u.3.3.3.3.3.5.u.3.3.u.3.3.3.u.3.3.u.1.;.+.;.5.3.>.3.1.3.<.3.u.1.3.1.3.3.3.3.3.3.",
"3.3.3.3.1.3.,.3.3.1.,.,.3.3.1.2.3.a.a.3.a.a.a.3.5.u.3.3.3.u.3.3.3.3.3.3.3.3.3.3.u.5.5.3.1.3.a.3.1.:.3.3.<.3.3.3.3.3.u.5.3.u.3.3.",
"3.3.3.,.3.3.,.,.3.3.3.3.3.1.:.3.3.a.3.3.a.a.a.3.3.3.5.u.3.3.3.3.u.3.u.5.u.3.3.3.3.3.3.3.2.3.a.3.1.:.3.3.<.u.3.3.3.1.3.3.u.u.3.u.",
"3.3.3.1.3.,.1.3.,.3.3.3.3.3.:.>.3.3.3.3.3.3.a.3.3.3.3.3.u.5.3.u.3.3.3.3.5.3.3.3.3.1.>.:.3.3.5.3.3.3.3.3.<.u.3.3.3.3.3.3.3.3.u.u.",
"u.5.3.5.3.3.1.:.;.1.5.3.3.3.3.3.3.u.3.u.3.3.3.3.3.3.u.3.3.3.3.3.3.3.3.3.u.3.3.a.3.:.1.3.1.3.3.3.3.3.3.u.2.u.1.;.1.3.3.3.3.u.3.u.",
"s.u.a.u.3.,.:.O.| ;.a.a.2.2.3.3.u.5.u.3.a.3.a.3.a.u.u.5.u.3.a.u.3.a.u.3.a.3.3.3.3.3.1.3.3.3.3.3.3.3.y.u.y.p.*...*.3.1.3.3.t.u.u.",
"u.a.a.a.3.3.1.O.} =.2.2.2.2.a.u.u.5.u.u.5.3.3.a.3.u.5.u.u.u.5.u.5.a.3.3.3.3.a.3.3.3.3.3.3.3.3.3.2.u.3.y.y.y.o.| *.3.3.3.1.u.t.p.",
"u.a.u.a.a.3.3.*.o.-.X.=.2.u.u.u.3.a.u.5.u.a.3.3.u.5.3.a.u.5.3.a.u.u.3.a.a.3.3.3.3.3.3.3.3.3.3.3.5.y.y.2.=.=.$.;.1.u.u.3.u.u.p.p.",
"u.u.a.a.a.3.3.3.3.X.T  .<.2.u.a.a.3.3.3.u.3.a.3.u.u.5.3.u.u.5.3.u.u.3.a.3.a.u.3.3.3.3.3.3.1.3.3.u.2.2.-.( ( -.s.u.u.a.p.p.u.s.p.",
"3.3.a.5.3.3.3.3.3.;.o.-.2.3.3.u.3.3.a.a.3.a.3.a.5.u.u.u.5.u.u.u.5.u.5.3.u.u.5.u.5.3.3.3.3.3.3.3.3.3.5.>.-.=.>.5.u.u.u.u.u.s.u.p.",
"5.3.3.3.u.1.1.u.u.u.3.3.3.3.5.3.a.3.5.3.a.3.u.3.3.u.3.a.u.5.3.u.u.u.u.5.u.u.u.3.3.3.u.3.3.3.3.3.5.5.4.5.5.5.5.a.u.u.u.u.t.p.p.p.",
":.3.3.3.3.1.t.t.3.3.5.3.4.3.5.3.3.u.u.u.3.a.u.5.a.u.5.3.u.3.a.u.u.5.u.u.u.5.a.3.3.3.3.3.3.3.3.3.3.5.5.4.5.5.5.3.u.3.1.u.u.u.t.t.",
"O.,.1.3.1.1.1.1.1.1.1.,.4.3.3.5.5.u.u.3.3.a.3.u.3.5.a.3.3.a.3.5.u.u.3.5.u.5.3.3.5.u.3.3.3.3.3.3.3.4.4.4.4.4.3.3.3.u.1.u.u.p.t.&.",
"O.1.3.1.3.u.u.1.1.3.,.,.4.5.5.3.3.u.3.3.u.3.5.u.u.u.3.u.a.3.a.u.5.u.a.3.u.3.a.3.u.3.3.3.3.3.1.3.3.5.5.4.4.4.3.3.u.u.u.u.u.t.*.&.",
"O.1.3.3.3.1.u.1.3.,.,.,.4.5.3.5.3.u.u.u.3.u.3.a.u.u.a.3.u.a.3.3.a.3.3.a.3.5.u.u.3.3.a.3.3.3.3.5.3.3.4.4.,.3.3.u.t.t.u.1.1.u.<.@.",
"&.1.3.3.3.u.u.u.3.3.4.4.4.4.3.3.3.u.3.u.u.u.u.u.a.u.u.a.u.a.u.a.3.3.a.3.a.3.a.3.3.u.3.3.3.3.3.3.3.5.3.5.3.3.3.t.t.t.u.u.3.1.*.@.",
"%.t.u.3.3.3.3.3.3.3.4.4.4.4.4.3.3.u.3.u.u.u.u.u.u.u.u.a.u.u.u.u.3.a.u.u.3.3.3.a.u.3.3.3.u.3.3.3.3.3.,.5.1.3.u.t.t.p.u.1.1.u.t.{ ",
"{ y.u.3.1.3.3.3.3.,.,.4.4.4.3.5.3.u.u.u.u.3.3.u.a.a.u.u.a.u.a.u.5.3.5.3.a.a.3.3.5.u.3.3.u.5.3.3.,.3.,.3.3.u.u.p.t.t.u.3.1.t.$.' "
};
