/* XPM */
static char *result[] = {
/* columns rows colors chars-per-pixel */
"64 64 161 2 ",
"   c #0E071B",
".  c #130A1D",
"X  c #180E1D",
"o  c #1E121F",
"O  c #26131F",
"+  c #1D1322",
"@  c #221625",
"#  c #2B1521",
"$  c #261820",
"%  c #2A1925",
"&  c #2D1B28",
"*  c #351921",
"=  c #3B1E25",
"-  c #3C252B",
";  c #392D37",
":  c #411F23",
">  c #462226",
",  c #4E2626",
"<  c #472826",
"1  c #41292B",
"2  c #562927",
"3  c #532D2E",
"4  c #5C2C29",
"5  c #4C332B",
"6  c #5E352D",
"7  c #412730",
"8  c #492C30",
"9  c #453233",
"0  c #4B3333",
"q  c #4D3836",
"w  c #503236",
"e  c #61322E",
"r  c #623D2E",
"t  c #623533",
"y  c #673A37",
"u  c #643B3A",
"i  c #6A3D3A",
"p  c #5D4138",
"a  c #6C403D",
"s  c #764F35",
"d  c #7A5236",
"f  c #0A294A",
"g  c #323446",
"h  c #333F53",
"j  c #16564D",
"k  c #354A46",
"l  c #314157",
"z  c #335551",
"x  c #1A644F",
"c  c #22724E",
"v  c #116A74",
"b  c #167D7C",
"n  c #584545",
"m  c #434757",
"M  c #6D4441",
"N  c #6A4F42",
"B  c #704643",
"V  c #65504C",
"C  c #745647",
"Z  c #7A5948",
"A  c #4A6757",
"S  c #4D7777",
"D  c #4E7679",
"F  c #805637",
"G  c #8B5E38",
"H  c #96643A",
"J  c #9B653A",
"K  c #A16D3D",
"L  c #9D6A40",
"P  c #906C53",
"I  c #9B755A",
"U  c #A26F44",
"Y  c #A77141",
"T  c #BB7F47",
"R  c #B97D48",
"E  c #A27A5C",
"W  c #A87D5C",
"Q  c #876C60",
"!  c #32974B",
"~  c #16807C",
"^  c #23977A",
"/  c #57835B",
"(  c #69A563",
")  c #D7883C",
"_  c #DD8B3C",
"`  c #E38E3F",
"'  c #AB815F",
"]  c #B48863",
"[  c #BA8D66",
"{  c #AB8B74",
"}  c #B6947A",
"|  c #BE9A7D",
" . c #C6864B",
".. c #CA894C",
"X. c #DD8E41",
"o. c #D28E4D",
"O. c #D7924F",
"+. c #D9934F",
"@. c #D38D53",
"#. c #DA9451",
"$. c #DD935A",
"%. c #E49143",
"&. c #E89646",
"*. c #E39448",
"=. c #EB954A",
"-. c #E6994E",
";. c #ED9A4B",
":. c #F0974D",
">. c #F19D4E",
",. c #E49651",
"<. c #EE9654",
"1. c #E29953",
"2. c #EC9E53",
"3. c #E79659",
"4. c #F19752",
"5. c #F19E50",
"6. c #EDA14F",
"7. c #EEA253",
"8. c #EDA15A",
"9. c #F5A354",
"0. c #F9A656",
"q. c #F5AA57",
"w. c #F9AD56",
"e. c #F5A55A",
"r. c #FBA65A",
"t. c #F7AA5C",
"y. c #FEAD5D",
"u. c #F9B056",
"i. c #FCB15B",
"p. c #CB9A6D",
"a. c #D39762",
"s. c #D29F70",
"d. c #CAA07B",
"f. c #D5A274",
"g. c #D9A779",
"h. c #DDAC7E",
"j. c #EBA466",
"k. c #E8A569",
"l. c #F6AA64",
"z. c #FEAD61",
"x. c #F4AC6B",
"c. c #FEAE69",
"v. c #FFB162",
"b. c #FCB26A",
"n. c #095285",
"m. c #0A6DA0",
"M. c #0070B2",
"N. c #3C7DA3",
"B. c #3C94B6",
"V. c #0082C4",
"C. c #008CCF",
"Z. c #0093D6",
"A. c #0097DB",
"S. c #0098DC",
"D. c #C8A384",
"F. c #DAB28F",
"G. c #E3B589",
"H. c #E5B88D",
"J. c #E2B994",
"K. c #F3C69B",
"L. c #F6CA9F",
/* pixels */
"a.k.l.l.z.y.y.y.i.y.v.c.c.v.c.z.z.z.r.z.z.z.z.y.z.r.z.z.z.z.z.y.y.y.z.y.y.y.z.y.y.y.z.y.y.y.i.z.y.y.i.y.u.y.u.i.y.y.i.v.c.l.j.a.",
"k.x.l.z.y.y.y.w.y.i.z.c.z.z.c.v.z.z.z.z.z.z.z.z.z.z.z.z.z.z.z.y.y.z.y.y.y.y.y.y.y.y.y.y.y.z.y.y.y.y.i.y.y.y.i.y.y.i.y.y.z.c.l.j.",
"x.c.c.z.z.y.y.y.i.i.c.v.c.v.z.y.y.z.y.z.y.z.r.z.z.z.z.z.r.z.z.y.y.y.z.y.y.z.y.y.z.y.y.y.i.y.y.y.w.y.y.w.i.y.i.t.i.t.i.y.y.z.l.z.",
"b.c.z.z.z.y.i.y.z.v.z.z.z.z.z.z.z.z.z.z.z.z.z.z.r.z.y.z.z.z.z.y.y.y.y.y.y.i.y.z.y.y.y.y.z.y.z.y.y.y.i.y.y.i.i.z.y.v.z.y.y.y.r.z.",
"b.z.z.z.y.v.y.y.v.z.y.v.z.z.z.y.z.r.z.z.z.z.z.z.z.z.y.z.z.z.z.z.i.y.z.y.y.y.y.y.y.y.y.y.y.z.y.i.y.y.w.y.y.y.y.i.t.y.z.y.y.r.r.y.",
"v.v.v.y.y.y.y.y.y.y.v.z.z.z.z.z.z.z.z.z.z.z.z.r.z.z.z.z.z.r.z.z.z.y.y.y.z.y.z.i.y.9.w.y.y.y.y.y.y.y.y.y.w.y.y.y.v.z.z.z.y.r.0.y.",
"z.y.y.y.r.9.5.9.y.y.y.z.z.y.z.y.z.z.z.r.r.z.z.z.z.z.z.z.z.z.z.r.y.z.y.y.z.y.y.z.9.;.;.9.y.y.z.y.y.y.y.y.y.y.y.y.y.y.y.z.z.r.r.y.",
"y.y.y.y.0.;.=.>.0.r.y.z.y.z.z.z.z.r.z.z.y.z.z.z.z.r.z.z.z.z.z.y.y.y.z.i.y.y.y.y.9.` %.9.y.y.y.z.y.y.y.y.y.y.z.y.y.y.y.z.z.z.z.y.",
"y.y.z.i.r.9.5.>.;.5.y.y.r.y.y.r.z.z.r.y.z.r.r.z.z.y.z.y.z.z.z.z.y.z.i.z.y.z.y.y.y.;.;.;.;.9.y.y.z.z.l.l.z.z.r.y.y.y.y.z.z.z.z.y.",
"y.y.y.y.y.y.r.:.` >.r.r.0.y.y.y.z.r.z.z.z.z.z.z.z.z.z.z.y.y.z.y.y.y.y.y.y.z.y.y.y.y.9.%._ ;.i.z.z.r.l.l.z.z.y.y.y.y.y.y.z.z.z.z.",
"y.y.y.y.y.z.r.5.:.9.y.y.r.r.r.z.z.z.y.y.r.y.y.y.y.z.y.z.z.y.y.z.i.y.y.y.y.i.y.y.y.y.y.;.&.9.v.y.z.z.l.l.z.z.y.y.y.w.y.y.z.z.z.z.",
"z.i.z.y.y.z.z.y.r.y.z.y.l.r.y.z.z.r.y.y.z.y.y.z.y.y.z.y.y.y.y.z.z.y.z.y.y.y.z.y.y.y.y.y.y.y.z.z.r.z.z.z.c.z.y.y.y.y.y.y.z.z.z.r.",
"z.v.v.t.y.z.y.r.r.z.v.z.y.y.r.z.l.y.y.y.y.y.y.y.y.y.z.y.y.z.y.y.y.y.y.y.v.y.y.v.y.y.y.y.y.z.v.y.z.z.c.z.c.z.y.y.y.y.y.z.z.z.z.y.",
"l.v.t.v.z.r.r.r.y.y.v.z.y.y.z.z.y.y.y.y.y.y.y.y.y.y.y.y.z.i.y.y.y.z.y.y.y.y.y.y.y.y.y.z.y.y.y.z.z.z.c.z.z.z.y.y.y.i.y.y.r.z.y.y.",
"l.v.v.z.y.r.r.r.y.y.v.v.t.z.y.y.z.z.y.0.y.y.y.y.y.y.y.y.y.y.y.y.y.y.v.y.y.z.y.y.y.y.y.y.y.y.i.z.z.z.z.z.c.y.w.0.w.y.y.z.y.y.y.y.",
"v.i.l.y.z.r.y.r.r.z.z.y.v.t.y.y.v.z.9.&.;.y.y.z.y.y.y.z.y.y.z.y.y.y.y.y.y.y.i.z.y.y.z.i.y.y.z.y.z.z.z.z.z.r.>.=.>.y.y.y.y.y.y.y.",
"z.z.y.z.y.z.r.z.r.z.z.y.r.y.y.y.y.t.7.%.;.y.y.y.y.y.y.y.y.y.i.z.y.z.z.i.z.y.y.y.z.i.y.z.y.y.z.i.r.r.z.y.y.9.=._ ;.y.y.y.z.y.y.y.",
"z.z.y.l.y.r.z.z.z.y.y.y.z.r.y.r.9.-.;.>.9.y.i.y.y.y.y.y.y.y.y.y.y.y.y.y.i.y.y.y.y.y.y.y.y.z.y.y.z.z.y.r.>.;.;.;.9.y.z.z.i.z.y.y.",
"y.z.z.y.z.r.r.z.y.y.y.r.y.y.y.9.%.) ;.y.i.v.z.z.y.y.y.y.i.y.z.y.y.y.z.y.z.y.v.y.y.z.y.y.y.y.y.y.y.y.z.9.%._ ;.y.y.z.y.i.y.y.y.y.",
"z.r.r.z.z.z.r.z.z.y.y.y.y.y.y.9.6.;.q.i.z.y.y.y.y.y.y.y.y.y.y.y.v.y.y.y.y.y.y.y.y.y.y.z.i.z.z.y.z.y.y.r.6.;.9.y.i.z.y.y.y.y.v.y.",
"r.z.z.r.r.z.r.z.z.z.y.y.y.y.y.y.y.z.y.y.i.y.y.y.y.y.w.y.T F F F F F F F L y.y.y.y.v.y.y.y.i.z.y.y.y.z.y.y.y.y.v.v.y.y.z.y.v.y.y.",
"z.z.r.z.z.z.r.z.r.z.y.y.y.y.y.v.v.v.i.y.y.y.y.y.y.y.y. .r * = 7 7 7 7 - > R r.z.y.y.y.y.z.y.y.y.y.z.i.z.y.y.v.v.y.y.y.i.y.y.y.y.",
"z.r.r.z.z.z.z.z.y.y.y.y.y.y.y.y.y.y.y.w.y.y.w.y.y.y.O.1 3 t i M B B B a 6 #  .r.y.z.y.y.y.y.z.i.y.z.i.y.z.v.y.y.y.y.z.y.y.y.y.y.",
"r.y.y.z.r.z.r.z.y.r.y.y.y.y.y.r.y.y.y.y.w.w.w.y.y.#.@ a B B B B B B B B M 4 @ ..y.i.y.z.y.y.z.y.y.y.z.v.v.y.y.y.y.z.y.y.y.y.v.y.",
"y.r.y.y.y.y.y.y.y.y.r.z.y.y.y.y.y.0.y.y.w.r.y.y. .< a M B B B B B B B B B B &  .z.y.y.z.y.y.y.y.z.i.y.z.y.v.y.y.i.z.y.y.y.z.i.z.",
"y.y.y.y.y.y.y.y.y.y.y.y.y.y.y.y.y.y.y.w.y.w.w.y.T % B M B B B B B B B B B B 3 r  .z.y.y.y.y.y.z.y.y.y.y.y.y.y.v.y.y.z.y.y.y.y.y.",
"y.y.y.y.y.y.y.y.y.y.y.y.y.y.y.y.r.y.y.y.r.y.w.y.T & B B i i B M y 8 - 8 i M e * G z.y.y.z.i.z.y.y.z.z.y.y.y.y.y.y.y.y.z.i.y.y.y.",
"y.z.y.y.y.y.y.r.y.r.y.y.y.y.y.y.y.y.y.w.w.y.y.y.T & i a e y M u > 0 q 8 > 0 4 * H i.y.y.y.y.y.y.y.y.i.z.y.y.y.y.y.z.y.i.z.y.y.z.",
"y.y.y.y.y.y.y.y.y.y.y.y.y.y.y.y.y.y.w.y.y.w.w.y.T $ 4 4 2 t u , & W f.I @   : < Y z.y.z.y.y.y.y.y.v.y.y.y.y.v.y.y.z.y.y.y.y.y.y.",
"y.y.y.y.y.y.y.y.y.y.r.y.y.y.y.y.y.y.y.y.y.y.y.y.T O 4 4 # = > & ] H.K.G.W + . T y.y.y.y.z.y.y.y.y.y.y.y.y.y.y.y.y.i.z.y.y.z.y.y.",
"y.y.y.y.y.y.y.y.y.y.y.y.y.y.y.y.y.y.y.y.0.w.y.y.T % u # Z 6 q P q D.L.| ; . ..r.i.z.z.y.i.z.y.v.y.y.y.y.z.y.i.y.y.y.y.y.y.y.v.y.",
"y.y.y.y.y.y.y.y.r.y.y.y.y.r.y.y.y.y.y.0.y.y.y.w.T & u . I E I d.+ } L.{     8.z.y.y.y.y.y.y.y.y.y.y.v.y.y.y.z.y.z.y.y.v.y.y.y.y.",
"y.y.y.y.y.y.y.y.r.y.y.y.y.y.r.y.y.y.y.y.y.r.w.y.#.d w q ' s.h.J.V D.L.d.9 . 2.z.z.y.y.y.z.i.y.z.y.y.y.v.y.y.y.y.y.y.v.y.y.y.y.y.",
"y.y.y.y.y.y.y.r.y.y.y.y.y.y.y.y.y.y.w.y.y.w.y.y.i.8.5 ' p.s.h.K.L.L.K.G.E 5 8.y.y.z.y.y.y.z.y.z.y.y.y.y.y.z.y.v.y.y.y.y.y.y.y.v.",
"y.y.y.y.y.y.y.y.y.y.y.w.w.y.w.y.w.r.y.0.y.w.y.y.y.y.0.- I s.f.g.K.L.G.I 5 r.y.y.y.i.y.y.y.y.z.i.y.v.y.y.y.y.y.z.y.y.y.y.y.z.y.y.",
"y.y.y.r.y.y.y.y.y.y.y.y.r.w.y.y.y.y.y.w.y.y.w.y.i.9.s X k A A / ( ( / k + d e.y.y.y.z.y.y.y.y.y.y.y.y.y.z.i.y.y.y.v.y.y.i.y.y.y.",
"y.y.y.y.y.y.y.y.y.y.r.y.y.w.y.w.w.w.y.y.w.y.y.y.8.U Q Q z j x c ! ! c k C C U 8.y.y.z.y.z.i.y.y.y.y.y.y.i.z.y.y.z.y.y.y.z.y.y.z.",
"y.y.y.y.y.r.y.y.y.w.y.w.y.w.r.y.y.y.y.0.y.y.w.y.T n L.L.D v b ~ ^ ^ b S f.s.9  .y.y.i.z.y.y.z.y.y.y.y.z.y.y.y.y.y.y.y.z.y.y.y.y.",
"y.y.y.y.y.y.y.y.r.w.y.w.y.y.w.y.y.y.y.w.y.w.y.y...N F.F.N.V.S.S.Z.S.S.B.[ [ p O.z.y.y.y.y.y.y.y.y.z.y.y.z.y.y.z.y.i.z.i.y.y.y.i.",
"y.y.y.y.y.y.y.y.y.y.y.y.w.y.y.y.w.w.y.y.y.w.y.y.i.+.+ @ n.V.S.A.M.C.S.m.+ + 1.y.y.z.i.y.y.z.y.y.z.i.y.y.y.y.z.i.y.z.y.y.y.z.y.z.",
"y.y.y.r.y.y.y.y.y.y.y.y.y.w.y.y.r.y.y.w.y.y.w.y.t.+.K o ; l l f f h m g $ Y #.y.z.y.y.y.y.y.y.y.y.y.y.y.y.y.z.y.y.z.y.z.y.y.y.z.",
"y.y.y.y.y.y.w.y.w.y.w.r.y.y.z.i.y.y.y.y.0.9.0.y.e.+.o.H H K H G G H J H H o.#.t.y.t.0.y.y.y.y.y.y.y.z.y.y.y.y.y.y.y.y.y.y.y.y.y.",
"y.y.y.y.y.y.y.y.y.y.y.y.y.y.y.v.i.i.y.0.5.;.>.0.y.1.+.+.+.+.O.O.+.+.+.+.#.#.2.y.0.>.;.9.9.y.y.y.z.y.y.y.y.y.y.y.y.y.y.y.y.y.y.y.",
"w.r.y.w.w.y.y.0.y.r.w.w.w.y.v.v.v.z.y.9.>.%.;.0.y.y.1.1.-.,.1.1.1.1.1.1.1.#.y.y.9.;.=.9.9.y.y.y.y.y.y.y.y.y.y.y.y.y.y.y.y.y.v.y.",
"w.y.y.w.y.y.0.y.0.y.y.y.w.y.y.y.y.y.9.;.;.>.9.y.y.y.y.y.y.y.y.y.y.y.y.z.i.z.z.y.y.9.5.;.;.9.y.0.y.y.y.y.y.y.r.r.y.y.y.z.y.z.i.z.",
"y.y.r.y.w.y.w.y.y.y.w.y.y.t.y.r.y.y.;.` ;.w.y.y.y.y.v.y.i.z.y.y.y.y.y.y.y.y.y.y.y.y.9.=.` ;.y.0.0.r.r.y.y.y.y.y.y.y.y.y.y.y.y.y.",
"y.w.y.y.r.w.y.y.y.w.y.r.y.w.r.y.y.t.9.7.9.y.y.y.y.y.y.y.z.y.z.y.y.y.y.y.y.z.y.z.y.y.y.5.6.9.y.y.9.r.y.y.y.y.r.y.y.y.y.y.i.y.y.y.",
"y.y.y.y.y.y.y.w.y.w.y.w.y.y.w.y.y.y.y.y.v.v.v.y.v.y.y.y.z.y.i.z.y.y.y.z.y.y.y.i.y.i.y.y.y.y.y.y.y.0.y.y.y.y.y.y.y.r.y.y.z.y.y.z.",
"r.y.y.y.y.w.y.0.y.y.y.y.y.w.w.r.y.i.z.y.v.v.v.i.z.y.y.z.z.y.y.y.y.v.y.y.y.y.y.y.y.y.y.y.y.y.v.r.y.r.r.y.z.y.y.y.y.r.y.y.y.z.y.y.",
"y.y.y.y.y.y.w.y.w.y.y.y.y.y.y.r.y.y.y.y.y.y.y.y.y.y.y.y.y.y.y.y.y.y.y.y.y.v.y.y.y.y.9.r.y.y.z.y.y.w.y.z.z.r.y.y.y.y.y.y.y.z.z.z.",
"y.y.y.y.y.0.w.0.9.0.y.z.z.r.t.y.y.v.y.y.y.y.y.y.y.y.y.y.z.y.y.y.y.y.y.y.y.y.z.y.y.0.0.0.y.y.y.y.y.r.y.z.z.z.r.9.r.y.y.y.y.z.z.z.",
"v.v.z.y.y.y.0.>.&.9.v.v.t.0.y.y.y.y.v.y.z.v.y.v.y.v.y.v.i.y.v.y.y.v.v.y.y.v.y.y.y.y.y.t.y.y.y.y.z.y.t.c.v.c.9.=.5.y.r.z.y.r.y.c.",
"v.v.v.z.z.y.0.:.%.6.l.t.z.z.z.z.v.y.z.z.y.z.z.z.v.y.y.v.y.i.y.v.y.i.z.z.i.z.z.y.y.y.y.y.y.y.y.y.y.l.y.l.v.l.2.%.5.y.y.y.r.r.l.c.",
"z.c.v.v.i.y.y.5.>.;.-.2.e.t.z.v.z.z.i.z.v.z.i.i.v.y.z.z.z.z.z.z.v.y.v.y.z.z.i.z.y.y.y.y.y.y.y.y.y.y.l.q.6.-.2.9.r.z.z.z.c.z.c.v.",
"y.v.v.v.v.y.y.y.y.;.) *.e.t.y.z.z.i.y.v.y.i.z.z.y.z.y.i.z.z.i.i.y.v.y.i.z.i.z.y.y.y.y.y.r.y.y.y.z.y.t.8.X.X.7.z.z.z.c.z.c.v.v.c.",
"z.y.y.i.z.y.y.z.r.9.;.7.t.t.y.v.z.z.i.y.z.z.i.z.i.z.v.y.i.z.z.z.v.y.z.z.z.z.i.y.y.y.y.y.y.y.y.y.t.i.t.q.7.7.q.v.z.z.z.z.z.c.c.c.",
"y.y.y.y.z.r.r.z.c.y.y.y.y.y.y.i.z.z.i.i.z.z.z.z.z.i.i.z.z.i.y.z.y.y.v.y.i.y.v.y.v.y.y.y.y.y.y.w.i.u.u.i.i.i.v.v.z.y.z.z.z.c.c.c.",
"9.y.y.y.z.z.r.z.y.y.y.y.w.y.y.y.i.z.z.z.v.y.i.z.z.z.z.z.z.y.v.z.y.v.y.z.z.z.y.y.y.y.y.y.y.y.y.y.y.i.u.i.i.i.i.i.y.z.z.z.z.z.z.e.",
">.y.y.y.r.r.5.z.y.r.w.w.w.i.i.y.i.z.z.y.y.i.z.z.y.v.z.i.y.v.z.i.y.y.v.z.i.y.v.y.y.y.y.y.y.y.y.y.y.u.i.u.u.u.y.r.z.r.z.r.z.c.l.4.",
":.0.r.r.r.z.r.z.r.y.w.w.u.y.i.i.y.z.y.y.y.z.z.i.i.z.z.z.i.z.z.i.v.y.y.i.z.v.y.y.y.y.y.v.y.y.y.y.y.y.u.u.u.u.r.z.z.z.z.z.z.z.4.4.",
":.r.y.y.y.r.z.r.y.y.w.u.u.u.i.y.y.z.y.z.y.z.y.v.z.v.z.v.v.z.y.z.y.v.z.i.z.y.i.z.y.y.y.y.y.y.y.y.i.u.u.i.y.t.y.z.r.l.z.r.r.z.5.<.",
"<.r.y.y.y.y.z.z.y.w.u.u.u.u.i.y.y.z.z.z.z.z.z.z.z.z.z.z.z.v.v.z.i.y.z.y.y.v.y.z.v.y.y.y.y.y.y.y.y.y.u.y.y.y.y.z.c.z.z.z.r.r.5.3.",
"3.l.z.r.y.y.y.y.y.w.u.u.u.u.y.i.y.z.z.y.z.z.z.z.v.z.v.y.z.z.z.i.z.z.y.v.y.v.v.y.y.y.y.y.i.z.i.y.y.y.y.u.z.r.r.l.l.l.z.r.r.l.e.$.",
"$.z.c.y.y.r.y.y.y.y.w.u.u.u.y.y.y.z.z.z.z.y.y.z.z.z.v.z.v.z.z.z.v.y.y.v.y.y.y.v.v.y.y.z.y.y.y.y.w.y.y.y.r.z.z.l.r.l.z.r.r.z.8.@."
};
