/* XPM */
static char *result[] = {
/* columns rows colors chars-per-pixel */
"64 64 161 2 ",
"   c #0E071B",
".  c #140A1D",
"X  c #1B0F1E",
"o  c #28131F",
"O  c #1E1322",
"+  c #251926",
"@  c #301721",
"#  c #341B24",
"$  c #3C1E25",
"%  c #351F2A",
"&  c #10232F",
"*  c #38222C",
"=  c #3C2B2F",
"-  c #232235",
";  c #492326",
":  c #4A2629",
">  c #4B2E2B",
",  c #512726",
"<  c #582A27",
"1  c #552C2C",
"2  c #5E2E2A",
"3  c #4D322A",
"4  c #57392D",
"5  c #482F32",
"6  c #463A39",
"7  c #523337",
"8  c #593936",
"9  c #5B3C39",
"0  c #60302C",
"q  c #633632",
"w  c #683B37",
"e  c #613C3B",
"r  c #5B433C",
"t  c #6D4A31",
"y  c #67403F",
"u  c #6C413E",
"i  c #734C33",
"p  c #0A294A",
"a  c #192D49",
"s  c #183655",
"d  c #433F4F",
"f  c #144D4C",
"g  c #15514D",
"h  c #195A4C",
"j  c #1C674F",
"k  c #1E6E50",
"l  c #267253",
"z  c #13476A",
"x  c #434A5B",
"c  c #6F4441",
"v  c #694E42",
"b  c #704643",
"n  c #715346",
"m  c #7A5B4A",
"M  c #6C5651",
"N  c #8D5D37",
"B  c #875D3B",
"V  c #8F603B",
"C  c #96653D",
"Z  c #9A643A",
"A  c #9C693E",
"S  c #A26E3F",
"D  c #845D42",
"F  c #8E694E",
"G  c #9E6B40",
"H  c #896750",
"J  c #83695D",
"K  c #946F55",
"L  c #887057",
"P  c #8D705C",
"I  c #9E795F",
"U  c #AA7441",
"Y  c #B57946",
"T  c #BA7E48",
"R  c #9C7F6C",
"E  c #A37E62",
"W  c #28834E",
"Q  c #34964B",
"!  c #33984B",
"~  c #79845E",
"^  c #D7883C",
"/  c #DD8B3C",
"(  c #E38E3F",
")  c #BD8047",
"_  c #9B8766",
"`  c #9D8E66",
"'  c #9E8A74",
"]  c #8A9377",
"[  c #A98263",
"{  c #B68964",
"}  c #B68A64",
"|  c #B18C6D",
" . c #A1916C",
".. c #B19E74",
"X. c #AEA676",
"o. c #DD8E41",
"O. c #D6914F",
"+. c #D8934F",
"@. c #D38D53",
"#. c #D59050",
"$. c #DB9451",
"%. c #DD935A",
"&. c #E49143",
"*. c #E89646",
"=. c #E39448",
"-. c #EB954A",
";. c #E6994E",
":. c #ED9A4B",
">. c #F0974D",
",. c #F19D4E",
"<. c #E69C55",
"1. c #EA9855",
"2. c #EA9E54",
"3. c #F19752",
"4. c #F19E50",
"5. c #EDA14F",
"6. c #EEA253",
"7. c #EEA25A",
"8. c #F5A354",
"9. c #F9A656",
"0. c #F5AA57",
"q. c #F9AD56",
"w. c #F5A55A",
"e. c #FBA65A",
"r. c #F7A95C",
"t. c #FEAD5D",
"y. c #F9B056",
"u. c #FCB15B",
"i. c #CB996D",
"p. c #D29966",
"a. c #D29F70",
"s. c #EBA466",
"d. c #E8A569",
"f. c #F6AA64",
"g. c #FEAD61",
"h. c #F4AC6B",
"j. c #FEAE69",
"k. c #FFB162",
"l. c #FCB26A",
"z. c #127F87",
"x. c #0B75B2",
"c. c #0077B9",
"v. c #198B85",
"b. c #208388",
"n. c #279883",
"m. c #0082C5",
"M. c #0998D7",
"N. c #0195D9",
"B. c #0098DC",
"V. c #0A99D9",
"C. c #8F9D93",
"Z. c #BDBB86",
"A. c #ABB4AB",
"S. c #C9A586",
"D. c #D8B18E",
"F. c #CEB092",
"G. c #D1BE9B",
"H. c #E7B88B",
"J. c #E9BA8E",
"K. c #EDBF93",
"L. c #F6CA9F",
/* pixels */
"p.s.f.f.g.t.t.t.u.t.g.j.j.j.j.t.g.g.t.g.t.g.g.g.g.t.g.g.g.g.g.g.t.t.t.t.g.t.t.t.t.t.t.t.t.g.t.u.g.t.t.u.t.t.u.u.q.t.u.k.j.h.s.p.",
"d.h.f.g.t.t.t.q.t.u.j.k.k.g.g.k.g.g.g.g.e.g.g.g.g.g.e.g.t.g.e.g.t.t.t.t.t.t.t.k.g.t.u.g.t.t.t.t.t.t.t.t.q.t.u.t.u.t.t.t.g.g.f.s.",
"h.j.j.t.g.t.t.g.u.k.g.g.g.j.g.k.g.g.e.g.g.g.g.e.t.g.g.g.g.g.g.e.g.t.t.t.k.t.t.t.t.t.t.t.t.k.t.t.q.t.u.t.u.u.r.u.k.g.r.t.e.g.g.g.",
"l.j.g.g.t.g.u.u.g.k.k.g.g.g.g.g.g.g.g.g.g.g.g.g.g.g.g.g.g.g.g.g.t.t.t.g.t.t.t.t.t.t.t.t.t.t.t.t.t.t.u.q.t.u.u.g.t.u.u.g.t.g.e.g.",
"l.j.g.g.t.u.t.t.u.g.k.t.g.g.g.g.g.g.g.g.g.g.g.g.g.g.g.g.g.g.g.t.k.t.t.t.t.t.t.g.t.t.t.t.u.t.t.t.t.t.e.q.t.u.t.u.r.t.g.t.t.e.e.t.",
"k.t.k.t.g.t.e.t.g.g.t.k.g.g.t.g.g.g.g.t.g.e.g.t.g.e.e.g.g.g.g.t.t.t.t.g.t.t.u.t.t.9.9.t.g.t.t.t.t.t.t.t.t.t.t.t.k.g.g.g.g.e.9.e.",
"g.t.t.t.e.8.,.9.t.t.g.g.g.g.g.g.g.e.g.e.g.e.g.g.g.g.g.g.g.g.g.t.t.t.g.t.t.g.g.t.8.:.:.9.t.t.g.t.t.t.t.t.t.t.t.t.t.g.t.g.g.e.t.t.",
"t.t.t.t.e.:.-.,.9.e.t.t.t.g.t.g.g.t.g.g.g.g.g.g.g.g.g.t.e.g.g.g.t.t.u.t.t.t.t.t.8.o.&.4.t.t.t.g.t.t.t.t.t.t.g.t.t.t.t.g.g.g.t.t.",
"t.t.t.t.e.9.4.,.>.8.t.t.e.t.t.e.g.g.t.g.g.t.e.g.g.t.g.t.g.g.g.g.t.u.g.t.t.k.t.t.q.4.-.:.:.8.g.t.g.e.e.f.g.g.e.t.t.t.t.t.g.g.g.g.",
"t.t.t.t.t.t.e.-.( >.9.t.9.t.t.t.g.e.g.e.t.g.g.g.g.g.g.g.t.g.t.t.t.g.t.t.t.t.t.t.t.t.8.&./ 4.t.t.g.f.j.f.g.g.t.t.t.t.t.t.g.g.g.g.",
"t.u.t.t.t.t.e.8.>.8.t.t.e.e.e.g.g.g.g.e.e.t.t.t.t.t.g.g.g.t.t.g.g.u.t.t.t.t.t.t.t.t.q.,.-.8.k.t.g.g.f.f.g.g.t.t.t.t.t.t.g.g.g.e.",
"g.t.g.t.t.g.g.e.e.t.t.t.g.e.t.g.e.g.g.t.g.t.t.g.t.t.t.t.t.t.t.t.t.t.t.g.t.t.k.t.t.g.t.e.q.t.u.g.g.g.g.g.j.g.t.t.t.q.t.t.g.g.g.t.",
"k.f.u.k.t.t.g.t.t.g.k.u.t.g.e.g.g.g.t.t.t.t.t.t.g.t.t.g.t.t.t.k.t.g.t.k.t.t.t.k.g.t.g.t.t.k.g.g.g.g.g.g.j.g.t.t.t.t.t.g.g.g.g.t.",
"f.k.k.t.g.e.e.e.e.g.k.k.g.r.t.g.e.t.t.t.t.t.t.t.t.t.t.t.g.t.t.t.t.t.t.t.t.t.t.t.t.t.t.t.t.t.u.g.g.g.g.j.g.g.t.t.u.t.t.t.e.g.t.t.",
"k.f.f.t.g.e.e.e.e.g.k.f.g.u.t.g.g.g.e.9.q.t.t.t.t.t.t.t.t.t.t.t.t.k.t.t.t.k.t.t.g.u.g.t.t.t.t.g.g.g.g.g.g.g.q.9.e.t.t.g.t.t.t.t.",
"k.g.u.t.e.t.e.e.t.g.g.t.g.t.r.t.k.k.9.-.4.e.g.t.t.t.g.t.t.t.g.t.t.t.t.t.t.t.t.t.t.t.t.t.t.t.t.t.g.g.f.g.g.t.,.*.4.t.t.t.t.t.t.t.",
"g.g.g.g.e.g.g.t.g.g.g.t.e.t.t.q.g.t.6.&.:.q.t.t.t.t.t.t.t.t.t.t.g.t.t.t.t.t.t.t.t.t.t.t.t.t.t.t.e.g.g.t.q.w.-./ :.t.u.g.t.g.t.t.",
"g.g.g.g.g.e.e.g.e.g.t.t.t.e.t.9.8.;.:.6.9.t.g.t.t.g.t.g.u.t.g.t.t.t.t.t.t.g.t.t.t.k.t.t.t.k.t.t.g.e.t.e.8.:.-.:.9.t.g.t.t.t.t.t.",
"g.g.g.e.e.f.g.g.t.t.t.t.t.t.e.8.&.^ :.t.u.k.t.t.t.t.t.w.G C C C C C C C #.t.g.t.t.t.t.t.t.t.g.t.t.t.t.8.&./ :.t.t.t.k.t.g.t.u.g.",
"t.e.e.g.t.g.e.t.g.t.t.e.t.t.t.r.6.:.8.u.g.g.t.t.t.t.2.G @ @ % * * * * % i $.t.t.t.t.t.k.t.t.t.t.t.t.g.e.:.:.9.t.t.t.t.t.t.t.t.t.",
"e.g.g.e.t.g.g.g.g.t.t.t.t.t.t.t.t.t.t.u.u.t.t.t.t.q.V $ 0 0 u b b b b w : > 7.t.k.t.t.t.t.g.t.g.t.g.g.t.t.q.g.k.k.t.t.t.t.g.t.t.",
"g.g.e.g.g.e.g.e.g.e.t.t.t.t.t.k.k.k.u.t.t.t.t.t.u.4 5 b b b b b b b b b w , X 2.t.t.t.t.t.t.t.u.t.g.u.g.t.g.u.k.t.t.t.k.t.u.t.g.",
"g.e.e.g.g.t.g.e.g.t.t.t.t.t.t.t.t.t.t.t.t.q.q.9.t 8 u b b b b b b b b b c 9 . <.t.t.g.u.t.t.t.t.t.t.k.t.g.u.g.t.t.t.t.t.t.t.t.t.",
"e.t.t.g.e.g.g.g.t.t.e.t.t.t.t.t.e.q.t.t.q.e.t.2.. e b b b b b b b b b b c u $ C 7.t.t.g.g.u.g.t.t.t.t.k.k.g.g.t.g.u.t.t.t.k.t.t.",
"t.t.t.t.t.t.t.t.t.t.e.t.t.t.t.t.t.t.t.t.t.e.q.2.. e b u u b b u e 7 7 q u u 2 o T t.t.t.t.t.t.t.t.t.t.k.t.k.t.t.t.t.t.g.u.t.t.t.",
"t.e.t.t.t.t.t.t.t.t.t.t.t.t.t.t.t.t.q.t.q.t.t.6.. 9 b w 0 b u w ; + O * 2 y 2 o ) g.t.g.g.u.t.k.u.t.t.t.t.t.t.t.t.g.t.t.g.t.g.t.",
"t.t.t.t.t.t.t.t.t.t.t.t.t.t.t.t.t.t.t.t.e.q.t.2.. , 0 2 0 u 0 $ 5 } } 9 X + < o T t.t.t.t.t.t.t.g.g.t.t.t.k.t.g.t.t.k.t.g.t.t.t.",
"t.t.t.t.t.t.t.e.t.e.t.t.t.t.e.t.t.t.t.t.t.t.q.2.. , 2 ; # 0 * r I J.J.| r   o Y r.t.t.t.t.g.t.t.t.t.t.t.t.t.t.g.t.t.t.t.t.t.g.u.",
"t.t.t.t.t.t.t.t.t.t.t.t.t.t.t.t.t.e.t.q.t.t.t.2.. 1 : > 9 $ 7 n E L.L.| r o S r.t.t.t.t.g.u.t.t.t.g.t.u.t.g.t.u.t.t.t.t.t.t.k.t.",
"t.t.t.t.t.t.t.t.t.t.e.t.t.t.t.t.t.t.t.t.t.q.t.2.. e * 9 } = [ m d L.L.M   3 t.t.t.t.k.t.t.g.t.t.t.t.t.g.t.t.t.t.t.t.t.k.t.t.t.t.",
"t.g.t.t.t.t.t.t.t.t.t.t.t.e.t.t.t.t.e.q.t.t.t.2.. 9 % r a.i.J.J 8 L.L.M   3 t.t.t.g.t.t.t.t.g.t.t.t.t.t.g.t.t.t.k.t.t.t.t.t.t.t.",
"t.t.t.t.t.t.t.t.e.t.t.t.t.t.t.t.t.t.t.e.e.q.q.t.2.8 n { a.a.K.D.S.L.L...v 3 t.t.t.g.u.t.g.t.t.g.u.t.g.t.u.g.t.t.t.t.t.t.t.k.t.t.",
"t.t.t.t.t.t.t.t.t.t.t.t.t.t.t.t.t.t.t.q.t.t.t.t.t.O.D K a.a.a.K.L.L.H.I B #.t.t.t.t.t.t.k.t.t.t.k.t.t.t.t.t.t.t.t.t.t.u.g.g.t.t.",
"t.t.t.t.t.t.t.e.t.t.t.t.t.e.t.t.e.t.t.t.q.q.e.t.t.t.S 6 _ `  .X.Z.Z. .6 A t.u.t.t.k.t.t.t.t.t.t.t.t.t.t.t.t.k.t.t.t.t.g.t.t.t.t.",
"t.t.t.t.t.t.t.t.t.e.t.q.q.t.q.t.q.t.q.t.t.t.t.q.t.t.U & f f j W Q Q h & G t.g.g.t.t.g.t.t.t.k.t.t.t.g.u.t.t.t.t.g.t.t.t.t.t.t.k.",
"t.t.t.t.t.e.t.t.t.q.t.q.t.e.t.t.q.t.e.t.t.q.t.q.q.t.G & g k k W Q Q h & G t.t.t.t.t.t.t.t.t.t.t.g.t.t.g.k.t.t.t.u.g.t.t.t.t.t.t.",
"t.t.t.t.t.t.t.t.t.t.e.t.q.t.t.q.t.t.q.t.t.q.t.t.t.T F ' ] l l W ! ! ~ L D T t.g.t.g.t.g.t.t.g.t.t.t.t.t.t.t.t.t.t.g.t.t.t.t.t.t.",
"t.t.t.t.t.t.t.t.t.t.t.q.t.t.e.t.t.e.q.t.t.q.t.t.t.4 R L.G.b.z.v.n.n...a.H 3 t.t.t.t.t.u.t.t.t.t.u.t.k.t.t.t.k.t.t.t.t.t.k.t.t.t.",
"t.t.t.t.t.t.t.t.t.t.t.q.t.q.t.t.q.t.t.t.t.e.t.q.t.i P F.A.V.B.N.N.M.C.| m i t.t.t.t.t.t.k.t.t.t.g.g.t.t.t.t.t.t.u.g.u.g.t.t.t.k.",
"t.t.t.t.t.q.t.t.t.e.t.t.q.t.e.t.t.t.q.e.t.q.t.t.t.;.t s x.N.B.m.c.B.V.z t $.t.t.g.u.g.t.t.t.t.g.t.t.t.t.k.t.t.t.t.t.g.t.t.t.t.t.",
"t.t.t.t.t.t.t.t.t.q.t.q.t.t.t.t.t.q.t.e.t.t.q.t.6.$.t + x x s p a x x - t $.<.t.t.g.t.g.t.t.t.t.t.g.t.t.t.t.t.t.g.t.g.t.t.t.g.t.",
"t.e.t.t.e.t.t.q.t.t.t.e.q.t.u.u.t.t.t.t.9.8.9.e.+.#.S V Z Z N N N Z C N U $.#.t.e.q.e.q.t.t.t.t.t.t.t.t.t.t.g.t.t.t.t.t.t.t.t.t.",
"t.t.t.t.t.t.t.t.t.t.t.q.t.t.u.k.u.u.t.e.4.:.,.9.6.$.+.+.+.+.+.+.#.$.$.$.$.$.2.t.9.4.2.8.e.t.t.g.g.t.t.t.t.t.t.t.t.t.t.t.t.t.t.t.",
"e.q.q.t.q.t.q.e.q.e.t.t.t.t.k.k.k.k.q.9.,.&.:.9.t.<.$.$.+.+.+.$.$.$.$.$.$.<.g.t.9.>.-.,.8.q.t.g.t.t.t.t.t.t.e.t.t.t.t.t.t.t.t.k.",
"t.q.q.t.t.q.t.t.q.t.t.t.t.t.t.g.g.t.8.:.:.,.8.t.t.t.t.g.t.t.t.t.t.t.t.t.t.t.t.t.q.8.:.:.:.8.e.e.t.e.t.t.t.t.t.t.t.t.t.g.t.t.t.t.",
"t.t.t.e.t.e.t.q.t.t.e.q.t.t.q.e.t.q.:.o.:.q.t.t.g.t.t.t.g.t.t.k.t.t.g.t.g.t.g.u.t.t.9.*.&.:.q.e.9.q.t.t.t.t.e.t.t.t.t.t.t.k.t.t.",
"e.t.t.t.t.e.t.q.t.q.q.e.t.t.e.e.t.e.0.:.9.t.t.t.t.t.t.g.t.t.t.t.t.t.t.t.t.t.t.t.t.t.t.8.:.9.e.q.9.t.q.t.t.t.t.t.t.t.t.t.t.t.t.t.",
"q.t.t.t.q.t.t.t.e.t.t.t.t.q.t.q.t.k.t.t.g.k.k.u.g.u.t.t.t.t.t.t.t.g.u.g.t.t.g.t.t.t.t.t.t.t.k.t.e.e.g.e.t.t.e.t.e.t.t.t.t.t.t.k.",
"t.t.t.t.t.q.q.t.q.t.q.t.t.e.e.t.t.t.g.t.k.k.k.g.t.g.t.t.u.g.t.t.t.t.g.g.u.t.g.t.k.t.e.t.t.t.k.e.t.e.t.t.t.g.t.t.t.e.t.t.t.g.t.g.",
"t.t.t.t.t.e.t.e.t.t.t.t.t.q.q.q.t.k.t.t.t.u.u.g.t.t.t.t.t.t.t.g.t.t.t.u.g.t.t.t.t.e.e.e.q.t.k.t.t.q.e.g.t.g.e.t.t.g.t.t.t.g.t.g.",
"t.g.t.t.t.t.e.9.8.q.t.t.t.t.e.e.t.t.t.t.t.t.t.t.t.g.u.g.t.t.t.t.g.t.t.t.t.t.t.t.q.e.q.e.e.t.t.t.t.g.g.g.g.g.e.9.e.t.t.t.t.g.g.g.",
"k.k.u.t.t.q.9.,.*.8.k.k.f.e.t.j.t.t.k.t.g.g.u.g.g.u.g.g.t.k.g.g.g.u.t.t.k.g.g.u.t.t.t.e.t.t.t.t.t.e.g.f.k.j.4.-.4.t.e.t.e.e.t.j.",
"k.k.k.g.t.t.9.-.&.6.r.g.t.g.g.k.t.u.g.k.g.u.g.u.u.g.g.t.k.t.g.u.k.u.g.g.u.g.g.t.t.t.t.t.t.t.t.t.t.g.r.f.k.f.2.&.4.t.t.t.g.e.g.j.",
"g.j.k.k.k.t.e.9.5.;.;.;.w.r.t.g.k.g.g.t.g.g.g.t.t.g.g.u.g.u.g.u.t.g.g.u.t.k.g.t.g.t.t.t.t.t.t.t.g.r.f.0.6.;.2.8.e.g.g.g.g.j.g.j.",
"t.k.k.k.k.t.t.t.t.:.^ =.r.r.g.k.g.g.t.g.u.g.t.k.k.g.g.t.g.t.u.g.g.g.g.t.t.t.k.t.g.t.t.t.t.e.t.t.g.t.r.7.o./ 6.k.g.g.j.g.j.k.k.j.",
"t.g.t.u.t.t.t.g.t.8.:.6.r.r.g.t.u.t.k.g.u.g.g.g.t.u.t.k.t.k.g.g.t.u.t.k.k.t.t.t.t.t.t.t.t.t.t.t.t.r.u.0.6.6.0.k.g.g.g.g.g.j.j.j.",
"t.t.t.t.j.4.e.g.g.g.t.t.q.t.t.t.t.k.t.g.g.u.g.u.t.k.k.t.u.g.g.g.k.t.g.u.g.g.g.t.t.t.g.t.t.t.t.q.q.u.u.u.u.k.u.g.g.g.g.g.g.j.j.j.",
"9.t.q.t.e.g.e.g.t.t.t.t.t.t.t.u.t.k.g.u.g.g.g.u.u.t.t.t.g.g.u.u.k.t.g.u.g.u.k.t.t.g.t.t.t.t.t.t.t.u.y.y.u.u.u.t.g.t.e.g.g.g.g.w.",
",.e.t.e.g.e.e.e.e.e.q.q.q.u.u.t.g.t.t.g.u.t.g.g.g.g.t.k.g.t.g.g.t.g.g.g.k.t.t.t.t.u.t.t.t.t.t.t.t.u.y.y.y.y.q.t.t.g.e.g.g.j.f.3.",
">.e.t.t.g.e.g.e.e.t.q.q.u.u.t.u.u.g.t.t.g.g.u.g.k.g.t.k.g.k.g.u.u.g.u.g.t.t.k.t.g.t.t.t.t.t.t.t.t.u.u.y.y.y.t.f.g.g.g.g.g.g.3.3.",
",.e.t.t.t.e.g.e.t.q.q.q.y.y.t.u.t.g.g.g.g.g.g.g.t.g.u.g.g.k.t.t.k.t.u.g.t.u.g.g.g.t.t.t.t.t.t.t.t.u.u.q.q.t.t.g.f.g.g.e.e.e.4.3.",
"3.e.e.t.t.g.g.g.t.u.y.y.y.y.q.t.t.g.t.g.t.g.t.t.k.g.g.g.t.k.g.k.t.g.g.g.k.t.k.t.u.t.g.t.t.t.u.t.t.y.t.u.t.t.g.g.f.g.g.g.e.g.3.1.",
"1.f.g.t.t.e.e.t.t.t.y.y.y.u.u.t.t.g.g.g.g.g.g.k.g.k.k.g.g.g.g.g.u.g.g.u.g.u.t.u.t.t.t.k.t.t.t.t.t.u.q.t.e.g.g.e.e.j.g.e.e.g.f.%.",
"%.f.g.t.t.t.g.t.t.q.q.y.y.q.u.t.t.g.t.g.t.g.g.g.g.g.g.k.k.g.k.k.t.g.g.u.g.g.g.g.k.t.t.t.t.t.t.t.t.t.q.q.e.e.f.f.f.f.g.e.e.f.2.@."
};
