/* XPM */
static char *result[] = {
/* columns rows colors chars-per-pixel */
"64 64 161 2 ",
"   c #0E071B",
".  c #0E0A1F",
"X  c #140B1C",
"o  c #190E1D",
"O  c #24121F",
"+  c #0E1127",
"@  c #1C1222",
"#  c #211523",
"$  c #2D1621",
"%  c #2C1B25",
"&  c #251A28",
"*  c #341A23",
"=  c #3A1D24",
"-  c #341F2A",
";  c #2F2129",
":  c #382627",
">  c #35262C",
",  c #3A242C",
"<  c #392B33",
"1  c #4A2325",
"2  c #452528",
"3  c #44252A",
"4  c #502726",
"5  c #512A2B",
"6  c #5D2E2A",
"7  c #533334",
"8  c #5C3534",
"9  c #5F3B34",
"0  c #5C3C3A",
"q  c #62332F",
"w  c #633F2E",
"e  c #633532",
"r  c #663935",
"t  c #623C3B",
"y  c #6B3F3C",
"u  c #674430",
"i  c #6C413E",
"p  c #744E35",
"a  c #183E42",
"s  c #154949",
"d  c #185A4E",
"f  c #2B5550",
"g  c #1D6C50",
"h  c #1F7150",
"j  c #277C4B",
"k  c #11446F",
"l  c #6E4341",
"z  c #654B42",
"x  c #6B4F40",
"c  c #704643",
"v  c #68524E",
"b  c #755646",
"n  c #765849",
"m  c #7D5C4A",
"M  c #4B695F",
"N  c #756357",
"B  c #8B5D3A",
"V  c #94643D",
"C  c #A26E3F",
"Z  c #895F40",
"A  c #966945",
"S  c #866551",
"D  c #81725A",
"F  c #9A7458",
"G  c #A36D40",
"H  c #AA7443",
"J  c #B47A45",
"K  c #B97D45",
"L  c #BA7E48",
"P  c #A57B5C",
"I  c #937767",
"U  c #987B69",
"Y  c #2F904C",
"T  c #33984B",
"R  c #D7883C",
"E  c #DD8B3C",
"W  c #E38E3F",
"Q  c #BE8147",
"!  c #958665",
"~  c #999167",
"^  c #AC8563",
"/  c #B38763",
"(  c #BB8D66",
")  c #AAA678",
"_  c #B1B27E",
"`  c #C28449",
"'  c #CF8C4D",
"]  c #DD8E41",
"[  c #D18E4D",
"{  c #D7924F",
"}  c #D8934F",
"|  c #D38D53",
" . c #D99350",
".. c #DD935A",
"X. c #E49143",
"o. c #E89646",
"O. c #E39448",
"+. c #EB954A",
"@. c #E6994E",
"#. c #ED9A4B",
"$. c #F0974D",
"%. c #F19D4E",
"&. c #E49651",
"*. c #EC9E53",
"=. c #E89856",
"-. c #F19752",
";. c #F19E50",
":. c #EDA14F",
">. c #EDA056",
",. c #EDA35F",
"<. c #F5A354",
"1. c #F9A656",
"2. c #F5AA57",
"3. c #F9AD56",
"4. c #F4A55A",
"5. c #FBA65A",
"6. c #F7A95B",
"7. c #FEAD5D",
"8. c #F9B056",
"9. c #FCB15B",
"0. c #C5956A",
"q. c #D39762",
"w. c #C49C76",
"e. c #C49D7D",
"r. c #D29F70",
"t. c #D4A376",
"y. c #D0A47C",
"u. c #DCAA7C",
"i. c #EBA466",
"p. c #E8A569",
"a. c #F6AA64",
"s. c #FEAD61",
"d. c #F4AC6B",
"f. c #FEAE69",
"g. c #FFB162",
"h. c #FCB26A",
"j. c #035C95",
"k. c #097499",
"l. c #2A6D97",
"z. c #1271A1",
"x. c #0379B4",
"c. c #4B7D8F",
"v. c #0C8BAA",
"b. c #1297A9",
"n. c #0E81B7",
"m. c #1382B8",
"M. c #2482A1",
"N. c #0080C2",
"B. c #0088CB",
"V. c #1290C7",
"C. c #0094D7",
"Z. c #0098DC",
"A. c #B7BA84",
"S. c #CAA586",
"D. c #D4AE8C",
"F. c #D9B28E",
"G. c #E7B88B",
"H. c #E2B993",
"J. c #EEC198",
"K. c #F2C69A",
"L. c #F6CA9F",
/* pixels */
"q.p.a.a.7.7.7.3.7.9.s.f.f.f.f.s.s.s.s.s.s.s.7.s.s.s.s.s.s.s.s.s.7.7.7.7.7.7.7.7.s.7.7.7.7.7.s.7.s.7.9.7.7.7.9.9.3.7.9.g.a.f.i.q.",
"p.d.a.s.s.7.7.7.7.9.f.g.s.g.s.g.s.s.s.7.s.7.s.s.5.s.s.s.s.5.s.7.7.7.7.s.7.s.7.7.9.7.7.s.9.7.9.7.7.7.9.7.9.3.7.9.9.7.7.7.g.a.a.i.",
"d.f.f.s.7.7.7.7.9.s.g.s.f.s.s.g.s.s.s.s.s.s.s.s.s.5.s.7.s.s.s.s.7.7.7.7.s.9.s.7.s.7.7.7.s.7.7.7.7.3.7.3.9.7.6.9.s.9.7.7.7.s.s.a.",
"h.f.s.s.s.s.9.9.s.g.g.s.s.s.s.s.s.5.s.s.s.5.s.s.s.s.s.s.s.7.s.7.7.s.7.7.7.7.7.7.7.7.7.7.s.7.7.7.7.7.9.7.7.9.9.s.9.s.s.7.5.7.s.s.",
"h.s.s.s.7.g.7.s.g.s.7.s.s.s.s.7.s.s.s.s.7.s.s.s.s.s.s.s.5.s.s.s.7.7.7.s.s.7.7.7.7.9.7.7.s.7.7.7.7.3.7.3.7.7.7.9.a.7.7.7.7.5.5.7.",
"g.g.g.7.7.7.5.7.7.7.g.g.s.s.s.s.7.s.5.s.s.s.s.s.s.s.s.s.s.s.s.5.g.7.7.7.7.7.9.s.5.1.5.7.7.7.7.7.7.7.7.7.7.7.7.7.9.s.s.s.7.5.1.7.",
"s.7.7.7.5.<.%.1.7.7.s.s.s.s.7.s.s.s.s.s.5.s.s.5.7.s.5.s.s.7.s.s.7.7.s.7.7.s.s.7.<.#.#.1.7.7.9.s.7.7.7.7.7.7.7.7.7.s.7.s.s.5.5.7.",
"7.7.7.7.1.#.+.%.1.5.7.7.7.7.s.s.s.5.s.5.s.s.s.s.s.s.s.s.s.s.s.7.7.7.9.7.7.7.7.7.<.X.E <.7.7.s.7.7.7.7.s.7.7.7.7.7.7.s.7.s.s.s.7.",
"7.7.7.7.7.<.;.$.#.<.7.7.7.7.7.7.s.5.s.5.s.s.s.s.s.s.s.s.7.s.s.s.7.g.7.7.7.7.g.7.1.<.#.o.#.1.7.7.s.5.s.5.s.s.7.7.7.7.7.7.s.s.s.s.",
"7.7.7.7.7.7.5.$.W $.5.5.1.1.5.7.s.5.s.s.5.s.5.s.s.7.s.s.s.s.7.7.7.7.7.7.7.7.7.7.7.7.<.X.E #.7.s.s.a.a.a.s.s.5.7.7.7.7.7.s.s.s.s.",
"7.7.9.s.7.7.5.;.$.<.7.7.5.5.s.s.7.s.7.7.s.7.7.s.7.7.s.7.7.s.7.s.7.7.7.7.7.7.7.7.7.7.5.#.#.<.g.7.s.s.f.a.s.s.7.7.7.7.7.7.7.s.s.5.",
"s.9.s.7.7.s.s.5.1.7.s.7.7.7.s.5.s.s.5.7.7.7.7.7.7.7.7.7.7.7.7.g.7.7.g.7.7.g.7.7.9.7.7.7.5.7.9.s.s.s.s.s.f.s.7.7.7.3.7.7.s.s.s.s.",
"s.g.g.6.7.7.s.7.7.s.g.a.7.7.7.7.a.7.7.7.7.7.7.7.s.7.7.7.7.7.7.7.7.7.9.s.7.7.7.g.s.s.7.7.7.g.s.s.s.s.s.f.s.s.7.7.7.7.7.7.s.s.7.7.",
"a.g.g.g.s.5.5.5.7.7.g.g.a.7.a.7.7.7.7.7.7.7.7.s.7.7.7.s.7.g.7.7.s.7.7.7.7.s.7.7.7.7.7.7.7.7.9.s.s.s.s.s.f.s.s.7.7.7.7.s.s.7.7.7.",
"a.g.6.s.7.5.5.5.5.7.g.s.7.6.7.7.7.g.5.1.5.7.7.7.7.7.7.7.7.7.7.7.9.7.7.7.7.7.g.7.7.9.s.7.7.7.7.s.s.s.s.f.s.7.5.1.5.7.7.s.7.7.7.7.",
"g.g.9.a.s.5.5.7.5.7.s.s.7.7.7.7.g.g.<.#.;.5.7.7.7.s.7.7.7.7.7.g.s.7.7.s.7.7.7.7.7.7.7.s.7.7.7.7.s.s.s.5.s.3.;.o.;.7.7.7.7.7.7.7.",
"s.7.s.5.s.7.s.5.7.s.5.7.7.7.5.7.9.s.:.X.#.5.7.7.7.7.7.7.7.7.7.7.7.7.7.7.7.s.7.7.9.s.7.7.7.g.7.7.s.s.s.5.7.<.+.E #.7.9.s.7.7.7.7.",
"s.s.s.s.5.s.s.s.s.s.s.7.7.7.7.1.>.@.>.#.1.7.9.7.7.9.7.s.s.9.7.7.s.s.9.7.7.7.7.7.s.7.7.7.7.7.7.7.s.5.7.5.%.#.#.#.1.7.s.7.7.s.7.7.",
"s.a.7.5.s.5.5.s.7.5.7.7.7.5.7.<.o.E #.7.g.s.s.7.7.7.7.7.7.7.s.7.7.7.7.s.7.9.7.s.7.7.7.7.7.7.7.7.s.7.s.<.X.E #.7.7.s.9.7.7.s.9.s.",
"7.7.7.7.s.s.5.s.7.5.7.7.7.7.5.5.:.#.<.9.g.9.7.7.7.7.7.` B B B B B B B B 4.s.7.7.7.7.g.7.7.7.g.7.7.7.7.5.:.#.<.7.7.7.s.7.7.7.7.7.",
"5.s.s.5.5.s.5.s.a.7.7.7.7.7.7.7.7.7.s.9.7.7.7.7.7.7.' w * - , , , , , * G >.7.7.7.7.9.s.7.7.7.7.7.s.7.7.7.5.7.g.g.7.9.7.7.s.7.s.",
"s.s.5.s.s.s.5.s.7.7.7.7.7.7.7.g.9.g.g.9.7.7.7.3.7.&.: 5 q r c c c c l e * G 7.7.s.7.7.7.g.7.7.7.7.7.7.g.s.9.g.g.7.7.s.7.7.9.7.7.",
"s.5.5.s.5.s.s.s.s.7.7.7.7.7.7.7.7.7.3.7.7.3.3.7. .@ i c l c c c c c c c e * p 7.g.7.s.7.7.7.7.7.7.7.s.7.g.g.7.7.7.7.s.7.7.s.7.7.",
"5.7.7.s.s.s.5.s.7.7.5.7.7.7.7.7.5.7.7.5.7.3.7.` 9 0 l c c c c c c c c c l 3 p 7.7.7.7.7.7.7.s.s.9.s.g.7.g.7.7.7.7.s.7.7.7.9.s.7.",
"7.5.7.7.7.7.7.7.7.7.5.7.7.7.7.7.7.7.5.7.3.7.3.C - c c c c c c l c c c c c 8 6 J 7.7.7.7.7.7.7.9.7.7.7.g.7.g.7.7.7.7.7.7.7.7.g.7.",
"7.7.7.7.7.7.7.7.7.7.7.7.7.7.7.7.7.7.7.3.5.7.7.C - c c y i c c i 8 7 7 y i r 1 o 6.7.7.s.7.7.7.s.7.7.7.7.7.7.7.7.s.9.7.g.7.7.7.7.",
"7.7.7.7.7.7.7.7.7.7.7.7.7.7.7.7.7.7.7.7.7.3.3.C - i i q r l i 6 - & % 4 9 9 1 o 4.7.7.s.s.7.7.7.g.7.7.7.7.7.7.7.7.7.7.7.7.7.7.7.",
"7.7.7.7.7.7.7.7.7.7.7.7.7.5.7.7.7.7.7.7.3.7.7.C $ q 6 6 r i 6 O n ( P # o = 1 o 4.s.9.7.9.s.7.7.7.7.7.7.7.g.g.7.7.s.7.7.7.g.7.7.",
"7.7.7.7.7.7.7.5.7.5.7.7.7.7.7.7.7.7.3.7.7.5.5.C $ 6 6 * 1 5 $ m w.J.F.F > o w =.7.7.7.7.7.7.s.9.7.7.g.7.7.7.7.7.7.g.7.7.7.7.s.9.",
"7.7.7.7.7.7.7.7.7.7.7.5.7.7.7.5.7.7.7.7.7.3.7.C * q = 0 7 2 z n e.L.H.S - u [ 7.g.7.7.7.7.7.7.s.7.7.7.7.g.7.7.7.7.7.7.7.7.7.7.s.",
"7.7.s.7.7.7.7.7.7.7.7.7.5.7.7.7.5.7.5.7.7.7.3.C - 0 X F S z t.> U L.D.@ . L s.7.7.7.7.7.s.7.7.7.7.7.7.7.7.7.7.g.7.7.7.s.7.7.7.7.",
"7.7.7.7.7.7.7.7.7.7.7.7.7.7.7.7.7.7.7.3.3.7.7.C - t X F r.u.J.< U L.D.@   Q 7.7.7.7.s.s.9.7.7.7.7.g.7.7.7.7.7.7.7.7.7.s.9.s.7.7.",
"7.7.7.7.7.7.5.7.7.7.7.7.7.7.7.7.7.7.3.7.5.7.7.3.Q > F 0.r.u.K.S.H.L.J.^ > L 7.7.7.7.7.7.7.7.g.7.7.7.7.7.7.s.9.7.7.7.7.7.g.7.7.7.",
"7.7.7.7.7.7.7.7.7.7.3.7.7.7.7.3.5.7.7.7.3.7.3.7.6.Q x / r.t.G.K.L.J.y.b H 4.7.7.7.s.7.g.7.7.7.7.7.7.9.s.7.7.s.7.s.7.7.7.7.7.7.7.",
"7.7.7.7.7.7.7.7.7.7.7.5.5.3.7.7.7.3.7.3.7.7.5.7.7.' # n ! ! ~ _ A.) D o L 6.7.9.7.7.7.s.7.7.7.7.s.7.s.7.7.7.7.7.7.s.7.7.7.7.g.7.",
"7.7.7.7.3.7.7.7.7.7.7.3.7.7.3.7.3.7.5.7.7.3.7.7.' & & a s d h Y T j s # # J 7.s.s.9.7.7.7.g.7.7.7.7.7.7.7.7.g.7.7.9.7.s.7.7.7.7.",
"7.7.7.7.7.7.7.7.7.3.7.7.7.7.3.5.7.7.7.5.7.7.3.K n F.F.M d g h Y T j f ^ ( b V 7.9.s.7.7.7.7.9.7.7.9.7.7.7.7.7.7.7.7.7.7.g.7.7.7.",
"7.7.7.7.7.7.7.5.7.5.3.5.3.7.7.7.7.3.3.7.3.5.7.C v L.L.c.k.v.v.b.b.v.M.w.r.b p 7.s.7.7.7.7.7.s.s.7.s.7.7.g.7.7.7.7.s.7.s.7.7.7.7.",
"7.7.7.7.5.7.7.7.7.7.7.7.3.7.3.7.3.5.7.7.7.7.3.@.A I I l.N.Z.Z.B.C.Z.V.N m Z [ 7.7.7.7.s.s.7.7.7.7.7.7.g.7.7.7.g.7.9.7.9.7.7.9.s.",
"7.7.7.7.7.7.7.7.7.7.7.3.5.7.7.7.7.7.7.3.7.7.7.7.} : . k z.n.x.j.z.m.z.+ ; ` 7.7.7.7.s.9.7.7.7.7.s.7.7.7.7.7.7.7.s.s.7.s.7.7.7.s.",
"7.7.7.7.7.7.7.7.7.7.5.7.7.3.7.7.7.3.5.3.7.3.7.<.} Q O 2 6 2 . . : 6 5 X H { *.7.7.7.7.7.s.7.7.7.7.7.7.7.7.7.s.7.7.7.s.7.7.7.s.7.",
"7.7.7.3.7.7.7.5.7.7.7.3.7.7.s.9.7.7.7.7.5.<.5.>.} [ Q J Q J J J K K K J ' { =.g.7.6.6.5.3.7.7.s.7.s.7.7.7.7.7.7.7.7.7.7.7.7.7.7.",
"7.7.3.7.7.7.3.7.7.3.5.7.3.7.9.g.9.9.7.5.;.o.%.<.>.}  . .} } } }  . .} } { *.7.s.5.;.#.1.5.7.7.7.s.7.7.7.7.7.7.7.7.7.7.7.7.7.7.7.",
"5.5.7.7.7.3.5.7.7.3.7.7.7.7.g.g.g.g.7.<.:.o.#.5.5.*.,.>.>.>.>.>.,.>.*.*.>.7.7.7.<.#.o.;.<.5.7.7.7.7.7.7.7.7.7.7.7.7.7.7.7.s.9.s.",
"3.7.5.7.3.5.7.3.7.5.7.3.7.7.7.g.7.7.<.#.#.%.<.3.7.7.9.7.7.s.7.7.7.7.7.7.7.9.7.7.3.1.#.#.#.<.3.7.7.5.7.7.7.7.5.5.7.7.7.7.7.7.7.9.",
"7.7.3.7.7.7.7.7.7.3.3.7.7.7.3.5.7.7.#.E #.5.7.7.s.7.s.7.s.9.7.s.7.7.7.s.s.s.7.s.7.7.1.o.X.#.5.5.1.5.5.7.7.7.7.7.7.7.7.7.s.7.7.s.",
"7.7.7.3.7.7.3.7.7.7.3.5.7.5.7.5.7.7.<.:.1.7.9.7.7.7.9.s.7.7.7.7.7.7.7.7.7.7.7.9.7.7.7.<.#.1.7.6.1.5.7.7.7.7.5.7.7.7.7.7.7.7.7.s.",
"5.7.7.7.5.7.3.7.3.7.7.7.7.3.3.5.6.g.7.7.s.g.g.g.7.7.s.7.7.7.7.7.7.s.7.7.7.7.s.7.7.7.7.7.7.7.7.7.5.7.3.7.7.7.7.7.7.5.7.7.g.7.7.7.",
"7.7.7.7.3.7.3.7.7.7.7.7.3.7.6.5.7.s.7.7.g.g.g.7.7.7.7.9.7.7.s.s.7.7.s.9.s.9.7.7.7.s.3.5.7.7.g.7.5.7.7.7.7.7.7.s.7.7.7.7.7.7.s.7.",
"7.7.7.7.7.5.7.3.3.5.7.7.7.7.5.5.s.9.7.7.7.7.g.7.7.7.7.s.7.7.7.9.7.s.7.7.7.s.7.7.7.3.5.5.5.7.s.7.7.3.7.a.s.7.7.5.7.5.7.s.7.s.s.s.",
"9.7.7.7.7.7.5.1.1.5.9.7.7.7.3.5.7.7.7.7.7.7.7.7.7.7.s.7.s.7.7.7.7.7.7.7.7.7.s.7.7.5.5.5.3.7.s.7.7.7.7.s.s.s.5.<.5.7.7.7.7.7.7.s.",
"f.g.7.9.7.3.1.%.o.<.g.g.a.7.7.7.7.g.7.7.g.7.g.7.g.7.g.7.s.9.7.g.7.g.s.s.9.s.7.7.7.7.7.7.7.7.3.7.7.7.a.s.g.f.;.+.;.7.7.5.5.7.7.f.",
"g.g.g.9.s.7.1.$.X.:.a.6.6.s.s.s.s.7.9.g.9.7.s.s.7.9.7.g.7.9.7.7.g.g.7.9.7.g.7.7.7.7.7.7.7.7.7.7.7.7.9.a.h.6.*.X.;.7.7.7.a.s.a.f.",
"s.s.g.g.s.7.5.<.;.@.@.:.6.6.s.g.g.7.s.s.s.g.7.9.s.s.s.s.s.s.g.7.7.7.s.s.7.g.9.s.7.7.7.7.5.7.7.7.7.a.a.6.>.@.*.<.5.s.s.7.s.s.s.f.",
"s.s.g.g.g.7.7.7.7.#.R O.4.7.7.s.g.7.s.s.s.7.s.s.s.s.9.9.7.9.s.g.s.s.7.g.7.7.g.7.7.7.7.7.7.7.7.7.7.7.6.>.] ] >.f.s.s.g.f.f.f.f.f.",
"7.g.9.s.7.7.7.s.7.<.#.>.6.6.7.g.7.g.7.9.7.g.9.s.9.s.s.s.g.7.s.7.9.s.9.7.g.7.7.7.s.7.7.7.7.7.7.5.7.6.6.2.>.:.3.9.s.s.s.s.s.g.s.f.",
"7.9.7.7.s.s.s.f.a.7.7.7.7.7.7.9.s.s.9.7.g.7.9.s.s.9.9.s.s.9.7.s.s.s.7.g.7.s.s.7.7.9.s.7.7.7.7.7.3.9.8.8.9.9.9.g.s.s.s.s.s.f.f.f.",
"1.5.7.7.5.s.;.;.7.7.3.9.9.3.7.7.9.s.s.s.s.9.s.s.s.s.s.s.s.7.g.s.s.9.s.s.9.s.9.7.s.7.7.7.7.7.7.7.7.9.9.9.9.9.g.7.7.7.s.s.s.s.s.4.",
"%.7.7.5.5.5.5.s.5.7.5.5.3.7.9.9.9.s.s.7.s.9.s.s.s.9.7.9.s.9.s.9.s.s.7.9.9.s.s.7.7.7.7.7.7.7.7.7.9.3.8.8.8.8.3.s.s.5.s.5.s.a.5.-.",
"$.1.7.7.5.s.5.s.7.5.3.3.9.9.9.7.7.s.7.7.7.s.s.9.s.s.s.g.s.s.s.9.9.s.g.7.s.s.9.s.7.7.s.s.7.7.7.7.7.9.9.8.8.8.5.s.s.s.s.s.5.a.4.-.",
"-.5.7.7.7.5.s.5.7.7.3.3.8.8.9.7.7.s.7.s.7.s.7.g.g.g.7.s.7.g.s.s.7.g.s.9.s.7.g.7.7.7.7.9.7.7.7.7.7.7.9.8.5.3.s.s.s.a.s.s.s.s.-.-.",
"-.5.7.7.7.7.s.s.7.3.8.8.8.8.9.7.7.s.s.s.s.s.s.s.s.s.s.g.s.g.g.7.9.7.s.7.g.7.g.7.s.7.7.7.7.7.9.7.7.9.3.9.7.7.s.s.a.5.s.5.s.;.;.=.",
"=.a.7.7.7.7.7.7.7.3.8.8.8.8.3.7.7.s.7.s.s.s.7.s.g.s.g.s.s.s.g.s.s.s.7.g.7.g.7.9.9.s.s.9.7.7.7.7.3.9.7.3.5.s.s.a.a.5.s.5.5.5.a...",
"..a.f.5.5.7.7.7.7.7.3.8.8.9.7.9.7.s.s.s.s.7.s.s.s.7.g.s.g.s.s.s.9.s.s.s.9.7.s.s.s.7.7.s.7.7.7.7.7.7.7.7.5.s.5.a.a.a.s.5.a.s.,.| "
};
