/* XPM */
static char *result[] = {
/* columns rows colors chars-per-pixel */
"64 64 167 2 ",
"   c #0F081B",
".  c #11091C",
"X  c #23111F",
"o  c #1C1221",
"O  c #101C2A",
"+  c #231423",
"@  c #2A1D27",
"#  c #2D1F28",
"$  c #341B24",
"%  c #3B1F26",
"&  c #372326",
"*  c #3B232B",
"=  c #432126",
"-  c #4B2425",
";  c #4B2D27",
":  c #48292A",
">  c #512626",
",  c #582A27",
"<  c #542C2D",
"1  c #5D2D29",
"2  c #51362A",
"3  c #5C362A",
"4  c #4C2E32",
"5  c #4D3534",
"6  c #44353A",
"7  c #543234",
"8  c #583B3A",
"9  c #60302C",
"0  c #623B2C",
"q  c #6F3E2C",
"w  c #633532",
"e  c #653937",
"r  c #683B37",
"t  c #693D3A",
"y  c #65412F",
"u  c #674733",
"i  c #6C413E",
"p  c #62483F",
"a  c #704B32",
"s  c #79563D",
"d  c #152640",
"f  c #123C41",
"g  c #073862",
"h  c #144F4C",
"j  c #19584E",
"k  c #31414F",
"l  c #245552",
"z  c #1C6A4F",
"x  c #1C725B",
"c  c #23794F",
"v  c #346A58",
"b  c #277053",
"n  c #227F59",
"m  c #39715A",
"M  c #1F5679",
"N  c #554243",
"B  c #57524E",
"V  c #6F4441",
"C  c #694E43",
"Z  c #704643",
"A  c #66514D",
"S  c #795948",
"D  c #58685E",
"F  c #467B5F",
"G  c #557364",
"H  c #636C72",
"J  c #825735",
"K  c #8B5D3A",
"L  c #8D603E",
"P  c #916138",
"I  c #896956",
"U  c #987258",
"Y  c #A26F42",
"T  c #AB7342",
"R  c #B47446",
"E  c #B87C46",
"W  c #8A6F62",
"Q  c #9C7E6B",
"!  c #29854D",
"~  c #2F904C",
"^  c #32954B",
"/  c #33984B",
"(  c #2F9755",
")  c #3E8066",
"_  c #5D9F5F",
"`  c #60A45E",
"'  c #518562",
"]  c #DE8C3D",
"[  c #E08D3E",
"{  c #BE8047",
"}  c #B38154",
"|  c #8C8F78",
" . c #988671",
".. c #B08869",
"X. c #C58549",
"o. c #CC8A4D",
"O. c #D18D4C",
"+. c #D6914E",
"@. c #D8934E",
"#. c #C28655",
"$. c #D88D55",
"%. c #D89350",
"&. c #D8955D",
"*. c #EA8D4B",
"=. c #E59445",
"-. c #E89546",
";. c #E49549",
":. c #EA954A",
">. c #E6994C",
",. c #EC9A4B",
"<. c #F09D4E",
"1. c #E18D52",
"2. c #E39A54",
"3. c #EE9E52",
"4. c #E59959",
"5. c #F39E51",
"6. c #F39C59",
"7. c #F4A04F",
"8. c #EDA056",
"9. c #EDA15C",
"0. c #F4A354",
"q. c #F9A557",
"w. c #F5AC54",
"e. c #FBAE56",
"r. c #F4A55A",
"t. c #FBA659",
"y. c #F6A95B",
"u. c #FEAD5D",
"i. c #F9B156",
"p. c #FCB15A",
"a. c #C29369",
"s. c #D49D67",
"d. c #CA9E77",
"f. c #E19C62",
"g. c #D7A677",
"h. c #E9A669",
"j. c #F4A664",
"k. c #FCA760",
"l. c #F4AA63",
"z. c #FFAD61",
"x. c #F4AB69",
"c. c #FEAE69",
"v. c #FFB162",
"b. c #FCB26B",
"n. c #115380",
"m. c #035D94",
"M. c #1B618B",
"N. c #246E96",
"B. c #0876A2",
"V. c #0175B5",
"C. c #0685B7",
"Z. c #5F96A9",
"A. c #75ACB5",
"S. c #0086C9",
"D. c #0593C7",
"F. c #008FD3",
"G. c #0F9BD8",
"H. c #2A9BC1",
"J. c #2BA1D1",
"K. c #56AAC7",
"L. c #C6A888",
"P. c #DBAD82",
"I. c #D9B994",
"U. c #EAC49B",
"Y. c #F3C79B",
"T. c #F6CA9F",
"R. c #E4C6A2",
/* pixels */
"} &.h.j.k.u.u.e.u.u.v.c.c.c.z.z.z.z.z.z.z.k.z.z.z.z.z.k.z.z.z.z.u.u.u.u.u.u.u.u.u.u.p.u.z.u.p.z.u.u.p.u.u.u.p.p.e.u.p.v.l.j.f.#.",
"s.h.x.k.z.u.u.u.u.u.z.c.z.c.v.z.z.u.z.u.u.z.z.z.z.u.u.z.z.z.z.u.z.u.u.u.z.u.z.u.z.u.z.u.u.u.u.u.u.u.p.u.e.p.u.p.p.u.u.z.c.z.j.f.",
"h.x.x.z.z.u.u.u.p.p.c.z.z.z.c.z.z.z.z.z.z.u.z.z.t.z.z.z.t.z.u.z.u.u.u.z.u.v.u.u.u.u.u.u.u.u.u.u.u.e.u.u.p.u.p.l.u.p.u.u.z.z.x.l.",
"b.c.c.z.z.z.p.p.p.u.v.z.v.c.z.u.z.z.z.z.z.z.z.t.z.z.z.u.z.z.z.z.z.u.u.u.u.u.u.u.u.u.z.u.u.v.u.u.u.u.u.p.u.p.p.p.v.u.u.u.t.u.z.z.",
"b.b.z.z.z.u.z.u.p.u.u.v.z.z.z.z.z.u.z.t.z.u.z.z.z.z.u.z.z.z.u.z.u.v.u.u.u.u.u.z.u.u.p.u.z.p.u.u.u.u.u.e.u.u.p.u.u.z.z.u.z.t.u.u.",
"b.b.v.z.u.z.u.u.z.v.z.z.z.z.z.z.z.z.z.z.z.z.k.u.z.z.z.z.z.t.z.k.u.u.u.u.u.u.z.p.u.u.u.u.z.u.u.u.u.e.u.u.u.p.u.z.y.u.z.u.t.t.t.u.",
"p.p.z.u.z.q.0.0.u.u.u.z.z.u.z.z.z.u.z.t.u.t.z.z.z.z.k.u.z.z.z.z.z.u.u.z.u.u.u.u.q.,.,.q.u.u.u.u.u.u.u.u.u.u.u.u.v.u.z.z.u.t.t.u.",
"u.u.u.u.u.0.-.,.0.t.u.u.v.z.z.u.z.k.z.z.z.z.u.z.z.u.z.z.z.z.z.u.z.u.u.z.p.z.u.u.0.=.[ 0.u.z.v.u.u.u.u.u.u.u.u.u.u.u.u.z.z.z.z.u.",
"u.u.u.u.u.0.5.<.<.5.t.u.u.u.u.z.z.k.u.k.u.z.k.z.z.z.z.z.u.z.z.z.u.u.z.u.u.u.u.z.q.3.-.,.7.0.p.z.z.z.k.k.z.t.u.u.u.u.u.z.u.z.z.z.",
"e.u.u.u.z.u.t.5.-.:.0.t.t.t.t.u.z.t.z.u.k.u.u.z.z.u.z.z.z.z.u.z.z.p.u.u.z.z.u.u.u.t.0.-.[ <.z.u.z.k.z.k.k.z.u.u.u.u.u.z.z.z.z.k.",
"u.u.u.u.u.u.z.0.,.<.t.u.u.t.u.z.z.z.z.z.u.u.t.z.u.u.z.u.u.z.z.u.z.u.u.u.u.p.z.u.u.u.q.7.-.0.v.u.z.k.k.c.z.z.u.u.u.e.u.u.z.k.z.z.",
"z.u.u.u.u.z.z.u.t.t.t.z.u.t.z.t.z.t.u.t.u.u.z.u.u.u.k.t.t.r.r.u.r.y.u.u.u.u.u.z.p.z.u.w.0.t.v.z.z.z.c.k.c.z.u.u.u.u.u.u.z.z.u.u.",
"z.v.p.z.u.z.u.z.u.u.z.v.k.u.u.z.u.z.u.u.u.u.u.z.u.u.u.u.z.u.u.u.u.u.u.p.z.z.z.p.z.z.v.u.u.z.z.z.z.z.z.z.l.c.u.u.u.u.u.u.z.z.u.u.",
"b.l.l.z.z.u.t.t.t.u.v.v.z.y.y.z.z.u.u.u.u.u.u.u.z.u.z.u.u.u.p.z.z.u.u.u.u.u.u.u.u.u.u.u.u.u.p.z.z.z.z.c.z.z.u.u.u.u.u.u.u.u.u.u.",
"b.l.v.p.z.t.t.t.t.u.z.v.z.z.z.u.u.z.u.u.t.u.u.u.u.z.u.u.u.u.u.u.u.u.u.u.u.z.u.u.u.z.u.u.u.u.u.u.z.z.z.z.z.z.u.q.e.u.u.z.u.u.u.u.",
"z.v.l.z.z.t.z.t.k.t.z.u.z.y.u.u.z.v.y.,.<.q.u.u.u.u.u.u.u.z.u.u.p.z.u.z.u.u.p.z.p.z.u.u.u.u.u.v.z.z.z.z.z.t.7.,.0.u.u.u.u.u.u.u.",
"z.u.k.z.u.k.u.t.t.z.z.k.u.u.u.t.p.v.w.=.-.0.u.u.u.u.u.u.u.u.u.u.u.u.u.u.u.u.u.z.z.u.u.u.z.p.u.z.z.u.z.u.u.r.-.[ ,.u.u.u.u.u.u.u.",
"z.z.u.k.u.u.k.z.z.z.u.u.u.u.u.t.0.8.8.,.0.t.p.u.u.u.t.o.o.o.o.o.o.o.o.2.v.u.u.u.p.u.u.u.u.u.u.u.z.u.u.t.5.,.,.,.0.u.v.u.u.v.u.u.",
"z.z.u.u.z.z.u.u.t.z.t.u.u.u.t.t.,.] =.r.z.p.z.z.u.u.o.X + + + + + + X y r.u.u.u.z.u.v.u.z.u.u.u.u.u.z.0.-.[ ,.u.u.v.u.u.u.u.u.u.",
"u.u.z.u.t.t.u.k.z.u.z.u.u.u.u.u.0.,.3.e.u.u.v.u.u.E X 9 V V t 9 V V e - . r.u.u.u.u.u.u.u.u.u.z.z.u.u.t.,.,.0.z.u.u.u.u.z.z.p.u.",
"z.z.k.z.z.u.u.k.z.u.u.u.u.u.u.u.u.u.u.p.p.u.u.u.T 3 < i Z Z Z t Z Z V e - y 2.u.u.u.p.z.u.u.u.p.u.z.z.u.u.t.u.p.z.u.u.u.u.u.p.z.",
"z.t.u.t.z.k.u.z.k.u.u.u.u.u.u.u.z.v.p.u.v.u.e.u.a * t Z Z Z i r V Z Z V e + o.u.z.u.u.u.u.u.u.z.u.u.p.u.v.u.v.v.u.z.p.u.u.u.u.z.",
"k.u.u.u.z.k.t.z.z.u.u.u.u.u.u.z.u.u.u.u.u.u.u.3.0 4 Z Z Z i w 9 e V Z Z Z % Y r.v.u.z.u.v.u.u.u.u.z.p.v.u.z.z.u.u.u.u.z.p.u.u.u.",
"z.t.t.u.z.u.z.z.t.u.u.u.u.u.u.u.u.u.t.u.e.e.8.  - r Z Z Z w 1 , 1 i Z Z Z 9 $ K u.u.u.u.u.u.u.z.u.u.z.z.v.p.u.u.p.u.u.u.z.z.u.u.",
"u.t.u.u.u.u.u.u.u.u.u.u.u.u.u.u.u.t.u.e.e.t.0.  7 Z Z Z 9 9 = X < t Z Z Z V * K v.u.u.u.u.u.z.u.z.p.u.z.u.v.u.u.z.z.z.u.u.z.u.z.",
"u.u.u.u.u.u.u.u.u.u.u.u.u.u.u.u.u.u.u.u.u.u.0.  8 Z Z t 9 % 2 S $ < t V Z Z * K u.u.u.u.p.z.p.u.u.u.u.u.u.u.u.u.u.u.u.u.u.p.u.u.",
"u.u.u.u.u.u.u.u.u.u.u.u.u.t.u.u.e.u.u.t.u.e.0.  7 t e 4 = 4 I a.p : : 5 t t $ L u.u.z.p.z.u.u.u.z.u.z.u.u.u.u.v.u.z.u.u.u.u.u.u.",
"u.u.u.u.u.u.u.u.u.u.u.t.u.u.u.u.u.u.u.u.u.u.0.2 > > = @ . I g.g.g.5 o & > > 4 T u.z.u.u.u.u.z.u.u.u.p.z.u.u.u.u.u.u.p.z.u.u.v.u.",
"u.u.u.u.u.u.u.u.u.u.u.u.u.u.u.u.u.u.e.u.u.e.t.u.u . 6 ..@ Q Y.Y.Y.N C U . . X.u.u.u.u.u.u.u.z.p.u.u.u.u.p.z.u.u.u.u.u.u.u.z.p.z.",
"u.u.u.u.u.u.u.t.u.u.u.u.u.t.t.u.u.u.u.u.t.u.e.u.a 8 } d.# Q T.T.Y.N C a.U @ o.u.u.z.z.u.u.z.u.u.u.v.u.u.u.u.z.u.u.u.v.u.u.u.u.u.",
"u.u.u.u.u.u.u.u.u.u.u.u.u.u.u.u.u.u.t.u.u.u.e.u.@.L U P.I L.T.T.T.Q ..d.S Y r.u.z.p.u.u.u.u.u.u.u.u.u.u.z.u.u.z.u.u.u.u.p.u.u.u.",
"u.u.u.u.u.u.u.u.u.t.u.u.u.u.u.u.u.u.u.u.u.e.u.u.u.E 6 L.U.T.T.T.T.T.I. .  r.u.u.u.u.u.u.u.v.z.u.u.z.p.z.u.u.u.p.z.u.z.u.z.u.u.z.",
"u.u.u.u.t.u.u.u.u.u.t.u.e.u.u.t.u.u.t.e.e.u.e.u.u.E O l I.Y.T.T.T.T.| f . r.z.z.z.u.u.u.z.p.z.u.u.u.v.u.u.u.v.u.u.u.p.z.u.u.u.u.",
"u.u.u.u.u.u.u.u.u.u.u.u.u.u.u.u.u.u.u.u.u.t.u.u.u.E O h F _ ` _ ' ' v f . r.u.z.u.z.u.u.u.z.u.u.u.u.u.u.u.u.u.u.u.u.u.u.u.z.u.u.",
"u.u.u.u.u.u.u.u.u.u.u.e.u.e.e.u.e.u.e.u.u.e.u.u.u.E O h z ! / ^ ! c j f   r.u.u.u.p.u.u.u.z.u.z.z.p.u.u.z.u.p.u.z.u.u.z.u.u.v.u.",
"u.u.u.u.u.u.u.u.u.u.u.u.u.t.u.u.e.u.u.u.t.u.e.u.r.Y B G b c ~ / / c m D N o.u.u.u.u.z.u.u.u.u.p.u.z.u.u.u.u.z.u.p.z.u.u.u.u.u.u.",
"u.u.u.u.u.u.u.u.u.u.e.u.u.e.u.e.t.e.u.u.e.u.u.u.a W T.U.) x n ( ( n ` T.T.6 o.z.u.u.z.z.u.u.u.u.u.u.u.u.v.u.u.z.u.u.u.u.z.u.u.u.",
"u.u.u.u.u.u.u.t.u.t.u.u.u.e.u.t.u.u.t.e.u.u.e.u.a W T.R.H.D.C.B.D.G.A.Y.Y.6 o.u.u.u.u.p.p.z.u.u.z.u.u.u.u.u.u.u.u.u.u.v.p.z.z.u.",
"u.u.u.u.u.u.e.u.u.u.e.t.u.u.e.u.t.u.u.u.u.e.u.u.X.s H K.G.S.m.g V.F.J.Z.A L 3.z.z.u.u.u.z.u.z.u.u.z.u.u.u.u.z.u.z.p.u.u.z.u.u.u.",
"u.u.u.u.u.u.t.u.u.u.u.u.e.u.u.u.u.u.e.u.u.e.u.e.;.s d N.N.n.k u g M.N.M   E 8.u.z.p.u.u.z.u.p.u.u.p.u.z.u.u.p.z.u.z.u.u.u.u.z.p.",
"u.u.u.u.u.u.u.t.u.u.e.t.e.u.u.u.e.u.u.u.u.e.u.@.@.P ; y q ; J o.7 9 q 0 & { @.8.u.p.z.z.u.u.u.u.z.u.u.u.u.u.u.u.u.u.u.u.u.u.u.u.",
"u.t.u.u.u.u.u.u.u.u.u.u.e.u.u.z.u.u.p.u.q.0.7.O.%.O.o.O.O.O.O.+.$.O.O.O.o.+.%.8.u.0.0.u.u.u.u.u.u.u.u.u.u.z.u.u.z.u.u.u.u.z.u.u.",
"u.u.u.u.u.u.e.u.t.u.u.e.u.e.u.v.p.v.u.t.7.,.,.7.2.%.%.%.@.@.@.%.%.%.@.%.%.%.r.u.q.,.,.0.q.u.u.u.u.u.u.u.u.u.z.u.u.u.u.u.z.u.z.u.",
"u.e.e.t.e.t.u.e.u.e.u.u.u.u.u.v.v.v.t.0.<.,.,.0.u.r.r.y.t.r.r.r.r.r.r.r.r.r.u.u.q.<.,.<.0.q.u.u.u.u.u.u.u.u.t.u.u.u.u.u.p.u.u.u.",
"e.u.u.u.u.t.u.u.e.u.u.t.u.u.u.u.u.u.w.,.-.7.0.u.v.u.u.u.u.u.z.u.u.u.u.u.z.u.p.z.u.q.0.,.=.0.u.t.t.u.t.u.u.u.u.u.u.u.u.z.z.u.u.z.",
"t.u.e.t.u.e.u.e.u.t.e.u.u.u.t.e.u.u.0.-.,.0.u.u.u.u.u.u.u.z.p.u.z.u.u.z.u.u.z.u.u.u.t.,.=.,.t.q.t.t.u.u.u.u.t.u.u.u.u.u.u.u.u.u.",
"u.u.u.e.u.u.u.e.u.u.e.u.e.u.u.q.u.u.t.0.0.u.p.z.u.u.z.p.u.z.u.u.u.u.u.p.p.z.u.u.u.z.u.0.0.w.u.u.u.e.u.u.u.u.u.u.u.u.u.u.u.u.u.p.",
"u.u.u.u.u.u.u.t.e.u.u.u.e.u.t.t.u.z.v.u.v.v.v.v.u.z.u.u.u.u.u.u.u.u.z.u.z.u.u.u.p.z.u.u.u.u.z.u.y.t.t.u.t.u.u.t.u.u.u.u.u.z.u.z.",
"u.u.u.u.u.u.e.u.u.u.u.e.u.u.t.t.u.u.u.u.u.v.v.p.z.u.z.u.u.u.u.u.p.u.u.u.u.u.p.z.u.u.u.t.t.u.z.u.t.t.u.u.u.u.u.t.z.u.u.u.u.u.z.u.",
"u.u.u.u.u.u.e.t.u.e.u.u.u.u.t.y.u.u.u.u.u.u.u.z.u.u.u.u.u.u.u.v.z.u.u.u.u.u.z.u.t.t.q.y.e.u.v.u.u.u.u.u.u.z.u.u.t.u.u.z.z.u.z.z.",
"v.z.u.u.u.u.e.t.<.0.t.v.u.z.e.u.u.v.u.u.u.u.u.u.u.u.u.u.u.u.u.u.z.u.u.u.z.u.u.u.u.e.t.t.u.u.u.u.y.u.z.l.v.z.r.5.t.t.z.u.t.u.z.z.",
"v.v.u.u.u.u.t.5.-.,.y.v.l.y.u.z.u.u.v.u.u.z.p.z.u.v.u.v.v.u.v.u.p.z.v.z.z.p.u.u.z.u.u.u.u.u.u.u.u.z.z.z.b.l.5.=.5.u.u.t.k.u.u.c.",
"c.z.v.v.u.u.u.5.,.,.8.y.y.y.z.z.z.u.p.v.p.z.z.z.v.u.u.v.u.u.z.z.z.z.z.p.p.z.z.u.u.z.u.u.u.u.u.u.z.z.v.l.y.9.3.:.0.z.u.z.k.u.l.b.",
"z.z.u.v.v.z.u.t.0.5.=.=.8.u.z.z.v.u.z.z.z.z.p.z.v.u.u.v.u.v.p.u.z.p.z.z.z.z.v.u.u.u.u.u.t.u.u.u.z.y.y.9.>.;.3.t.u.z.z.z.c.v.c.c.",
"z.z.z.v.v.z.u.u.u.0.;.@.8.u.u.z.v.u.u.u.z.p.u.p.u.u.u.u.u.u.v.v.v.u.p.z.z.p.p.u.u.u.u.u.u.u.u.u.u.u.y.w.>.@.0.v.z.z.z.z.v.z.c.c.",
"u.p.u.v.p.u.u.u.z.u.0.0.w.y.u.v.u.u.v.v.z.z.v.u.u.v.v.u.v.u.u.u.u.u.v.z.u.v.z.z.u.u.u.u.u.u.u.t.u.y.p.y.w.w.e.z.z.z.z.z.c.c.z.c.",
"u.p.u.t.z.t.t.z.z.z.u.p.u.u.u.u.z.z.p.p.z.z.z.z.u.v.v.u.v.z.z.z.u.v.u.u.v.v.u.u.p.z.u.u.u.u.u.u.u.p.i.p.p.p.p.z.z.u.z.z.z.z.c.c.",
"<.0.u.u.u.z.t.k.t.t.u.u.i.p.u.p.p.z.z.z.z.p.p.z.u.u.u.u.u.z.p.p.u.u.v.u.u.u.v.u.z.u.u.u.u.u.u.u.e.p.i.i.p.p.p.u.u.z.z.z.z.k.k.6.",
"[ 5.u.u.u.t.t.t.k.t.t.e.e.p.p.p.u.u.z.u.z.v.u.z.v.u.u.v.u.v.z.z.v.v.u.u.v.u.u.u.u.u.u.u.u.u.u.u.u.u.i.i.i.i.y.u.k.k.z.u.z.z.6.*.",
"*.5.t.u.u.u.k.t.u.u.e.q.e.i.p.u.u.z.u.u.z.u.z.p.p.z.u.v.z.u.p.z.u.u.u.v.u.z.z.p.u.u.z.z.u.u.u.u.u.p.p.p.i.i.u.z.z.k.k.u.z.k.t.*.",
"*.5.t.u.u.u.t.z.u.u.e.i.i.i.p.e.u.z.u.z.z.z.z.z.z.z.z.v.z.v.z.u.u.v.v.u.p.z.p.z.u.u.u.p.u.u.u.u.e.u.p.p.e.u.u.z.k.z.k.u.t.t.6.:.",
"1.6.k.u.u.u.z.k.u.u.e.i.i.i.p.u.u.z.z.z.u.z.u.z.z.v.z.z.z.v.z.v.z.u.u.u.z.z.p.z.v.u.u.u.p.u.u.u.u.p.p.e.u.u.k.z.k.k.k.u.u.t.6.%.",
"$.6.z.z.u.u.u.t.u.u.i.i.i.i.p.u.u.z.u.z.z.z.z.z.v.z.v.z.u.z.v.z.v.u.u.v.u.v.z.z.z.u.z.u.u.u.u.u.u.e.e.u.u.u.k.c.c.k.u.t.u.l.j.$.",
"R &.c.z.t.u.u.u.u.u.e.e.e.i.e.u.u.z.z.z.z.u.u.z.z.z.v.z.v.z.z.z.v.u.u.v.u.z.z.p.z.p.u.u.u.u.u.u.u.u.u.u.u.u.k.k.z.k.k.t.u.l.4.E "
};
