/* XPM */
static char *result[] = {
/* columns rows colors chars-per-pixel */
"64 64 160 2 ",
"   c #12091C",
".  c #1B0E1E",
"X  c #23131F",
"o  c #0E0B20",
"O  c #1C1221",
"+  c #251523",
"@  c #2B1521",
"#  c #2F1E22",
"$  c #331B24",
"%  c #3C1D23",
"&  c #331E29",
"*  c #10212E",
"=  c #11373D",
"-  c #3A262C",
";  c #202A34",
":  c #322530",
">  c #2B353B",
",  c #442224",
"<  c #4D2627",
"1  c #442A27",
"2  c #432329",
"3  c #472A2C",
"4  c #512727",
"5  c #512B2B",
"6  c #5E2D2A",
"7  c #53352B",
"8  c #5A302E",
"9  c #4D2F34",
"0  c #453437",
"q  c #543232",
"w  c #5C3332",
"e  c #573936",
"r  c #5B393A",
"t  c #61312D",
"y  c #653734",
"u  c #643C3C",
"i  c #6A3D3A",
"p  c #5B423C",
"a  c #69422F",
"s  c #6C413E",
"d  c #704B31",
"f  c #795135",
"g  c #785237",
"h  c #103657",
"j  c #17574E",
"k  c #2C4849",
"l  c #304848",
"z  c #275B54",
"x  c #1E6D50",
"c  c #247A4F",
"v  c #266453",
"b  c #207250",
"n  c #2E7556",
"m  c #584544",
"M  c #6E4441",
"N  c #664E47",
"B  c #704643",
"V  c #7A5A49",
"C  c #745D55",
"Z  c #426E5D",
"A  c #5A7366",
"S  c #865A39",
"D  c #9E6A3E",
"F  c #A26E3F",
"G  c #835E44",
"H  c #9D6B41",
"J  c #886650",
"K  c #906C53",
"L  c #967056",
"P  c #A26E40",
"I  c #B47446",
"U  c #B57A44",
"Y  c #B97C45",
"T  c #987964",
"R  c #29844D",
"E  c #2C8A4D",
"W  c #31944C",
"Q  c #33984B",
"!  c #799571",
"~  c #DE8C3D",
"^  c #E08D3E",
"/  c #B38154",
"(  c #849875",
")  c #94937B",
"_  c #AB8467",
"`  c #B58964",
"'  c #AB8C76",
"]  c #81A66F",
"[  c #84AB6F",
"{  c #C48549",
"}  c #CC8A4D",
"|  c #D28E4E",
" . c #D9934F",
".. c #C28655",
"X. c #D88D55",
"o. c #D99350",
"O. c #D8955D",
"+. c #E88C42",
"@. c #EA8D4B",
"#. c #E59445",
"$. c #E89546",
"%. c #E49549",
"&. c #EA954A",
"*. c #E6994C",
"=. c #EC9A4B",
"-. c #F09D4E",
";. c #E18D52",
":. c #E19756",
">. c #E39A53",
",. c #EB9F55",
"<. c #EC9F5B",
"1. c #F39E51",
"2. c #F39C59",
"3. c #F4A04F",
"4. c #EDA055",
"5. c #EEA159",
"6. c #F5A354",
"7. c #F9A557",
"8. c #F5AC54",
"9. c #FBAE56",
"0. c #F3A559",
"q. c #FBA659",
"w. c #F6A95B",
"e. c #FEAD5D",
"r. c #F9B156",
"t. c #FCB15A",
"y. c #CC9B6E",
"u. c #D29E6B",
"i. c #C89B73",
"p. c #E19C62",
"a. c #E9A669",
"s. c #F4A664",
"d. c #FCA760",
"f. c #F4AA63",
"g. c #FFAD61",
"h. c #F4AB69",
"j. c #FEAE69",
"k. c #FFB162",
"l. c #FCB26B",
"z. c #115D89",
"x. c #06659D",
"c. c #0F78AF",
"v. c #128091",
"b. c #0B8CAC",
"n. c #1E8FAB",
"m. c #1298AA",
"M. c #1283B9",
"N. c #0087CA",
"B. c #0697D8",
"V. c #4CA7C9",
"C. c #918E86",
"Z. c #8CA7A3",
"A. c #C19D81",
"S. c #C0B08B",
"D. c #DCB893",
"F. c #ECBE92",
"G. c #EBC49B",
"H. c #F1C79D",
"J. c #F6CA9F",
"K. c #D3C0A1",
/* pixels */
"/ O.a.0.g.e.e.9.e.e.g.k.j.j.g.g.g.g.e.g.q.g.g.g.e.g.q.g.g.g.e.d.e.e.e.e.e.t.g.e.g.e.e.g.e.g.e.e.e.e.e.t.t.e.e.e.9.e.t.g.g.f.p...",
"u.a.h.s.g.e.e.e.e.e.g.j.j.j.j.g.g.g.g.g.g.g.g.e.g.g.g.g.g.e.g.g.g.e.e.g.g.e.e.e.e.e.e.t.e.e.e.e.k.e.e.e.e.e.t.t.e.t.e.g.j.s.s.p.",
"a.h.j.g.g.e.t.e.t.e.k.k.g.j.g.k.g.g.g.e.g.g.e.g.d.g.g.g.g.g.g.g.e.e.e.e.e.g.g.e.g.e.e.e.e.g.t.e.t.e.t.e.t.t.t.t.t.t.g.e.e.g.s.h.",
"l.j.j.g.g.e.e.e.e.t.g.g.k.g.g.g.g.e.g.g.g.g.g.d.g.g.e.g.d.e.g.e.g.e.e.e.g.t.e.e.t.e.g.e.e.e.g.e.e.e.e.9.t.w.k.w.t.e.e.e.e.e.g.k.",
"l.l.g.g.e.g.e.g.t.k.k.g.g.g.g.g.g.g.e.d.g.e.g.g.e.g.g.e.g.g.g.g.e.k.e.e.e.e.e.g.e.e.e.e.e.e.e.e.9.e.9.e.9.e.e.k.e.e.g.e.q.q.q.e.",
"l.l.k.k.g.e.e.g.g.e.g.e.g.g.g.g.g.g.g.g.g.g.d.e.g.g.g.g.g.d.g.d.e.e.e.e.e.e.g.t.e.e.e.e.k.e.e.e.e.e.e.e.e.e.t.e.k.g.g.e.g.q.q.e.",
"t.g.e.e.e.7.6.6.e.e.e.g.g.g.e.g.g.g.e.d.e.d.g.g.e.g.q.g.e.g.e.e.g.e.e.g.e.e.e.e.7.=.=.7.e.e.t.g.e.e.e.e.e.e.e.g.w.k.g.g.g.q.e.e.",
"e.e.e.e.e.6.$.=.7.7.e.e.k.e.g.g.g.q.g.e.g.e.g.g.g.g.g.g.g.g.g.g.g.e.g.t.e.g.e.e.6.^ #.6.e.e.g.e.e.e.e.e.e.e.e.e.e.e.e.g.g.g.q.e.",
"e.e.e.t.g.7.1.-.-.1.q.q.e.e.e.g.g.q.g.q.g.g.q.g.g.g.g.e.g.g.g.g.e.e.g.e.e.e.g.e.q.=.=.=.=.w.e.g.g.d.g.d.d.e.e.e.e.e.e.g.e.g.d.g.",
"9.e.e.e.e.q.q.1.$.&.7.q.q.q.q.e.e.g.g.g.d.e.g.g.g.e.g.g.e.g.e.g.g.t.e.e.e.g.e.e.e.q.8.$.+.=.e.e.g.d.j.d.g.d.e.e.e.e.e.e.g.g.g.g.",
"e.e.e.e.e.e.e.7.&.-.q.e.e.q.e.g.d.e.d.e.e.e.q.e.e.e.g.g.g.e.g.e.e.g.e.e.g.t.e.e.e.e.7.=.#.8.e.e.g.g.j.d.d.g.e.e.e.e.e.e.g.d.g.g.",
"g.e.g.e.e.g.g.e.q.q.e.e.e.q.g.q.e.g.e.e.e.e.g.g.e.e.e.e.e.e.e.e.e.t.e.g.e.e.e.e.k.e.e.q.7.q.k.g.g.g.g.d.j.g.e.e.e.9.e.e.g.g.e.e.",
"g.k.k.w.e.g.e.g.e.e.g.k.d.e.g.e.e.d.e.e.e.e.e.e.g.e.e.e.e.t.g.e.g.e.e.t.g.e.e.k.e.k.k.e.e.t.k.g.g.g.g.g.j.g.e.e.e.e.e.g.e.g.e.e.",
"g.h.k.k.g.g.q.q.q.e.k.k.g.w.w.g.g.e.e.e.e.e.e.g.e.e.e.g.e.e.e.g.e.e.g.e.e.e.e.e.e.e.e.e.e.g.t.g.e.g.g.j.s.g.e.e.e.e.e.e.g.e.e.e.",
"h.k.f.t.g.q.q.q.q.e.g.k.k.g.g.e.e.g.e.q.q.e.e.e.e.e.e.e.e.g.e.g.e.g.e.e.g.e.e.g.e.e.e.e.e.e.e.g.j.g.g.g.g.g.9.7.9.e.e.g.e.e.e.e.",
"k.f.g.g.g.q.e.q.d.q.g.e.f.w.e.e.k.k.w.-.-.7.e.e.e.g.e.e.e.e.e.e.t.g.e.e.e.e.t.g.e.e.g.e.e.e.e.g.g.g.g.d.e.e.1.=.6.e.e.e.e.e.e.e.",
"g.g.d.g.e.d.e.q.g.d.g.e.e.e.e.q.e.l.8.%.#.6.e.g.e.g.e.e.e.e.e.e.t.e.e.g.e.e.e.e.g.g.e.e.e.e.e.g.e.e.g.g.e.0.$.~ =.k.t.g.e.e.e.e.",
"g.g.e.d.e.e.d.g.g.q.e.e.e.e.e.e.8.-.-.=.8.7.e.e.e.e.e.e.5.5.5.5.0.5.5.5.w.e.g.e.e.t.e.e.e.e.g.t.e.e.e.7.3.=.=.=.7.e.g.g.g.e.e.e.",
"g.e.e.e.q.e.e.e.g.g.e.e.q.e.q.7.=.~ #.6.e.e.k.e.t.g.g.o.                S e.e.e.e.e.e.g.e.g.e.e.e.e.g.6.#.^ -.q.e.e.e.t.e.e.e.e.",
"e.g.g.e.g.d.e.d.g.q.e.e.g.e.e.e.6.$.4.e.k.k.e.e.e.e.{ 7 4 r r q 5 r r 5 5 g e.g.e.e.e.e.g.t.e.g.e.e.g.7.=.=.7.e.e.e.e.e.e.g.g.t.",
"g.g.d.g.g.e.g.q.q.g.e.e.e.e.e.e.e.e.e.e.t.t.e.e.e.{ a < i B B s i B B s w 2 D 0.g.e.e.e.e.t.g.e.g.e.e.e.q.e.e.k.e.e.t.g.e.t.g.e.",
"g.q.e.q.e.d.g.g.g.g.e.e.e.e.e.e.g.k.t.e.e.e.e.e.e.7 2 i B B B s i M B B i w . o.t.g.g.e.g.e.e.e.e.g.g.e.g.t.e.k.g.e.g.e.g.e.e.e.",
"g.q.g.e.g.q.d.e.e.q.e.e.e.e.e.g.e.e.e.e.e.9.9.e.w.7 9 B B B B y t M M B B M + } g.e.e.e.e.e.g.t.e.e.g.k.k.g.t.e.e.e.e.e.g.t.g.e.",
"d.e.q.e.g.g.e.g.e.e.e.e.e.e.g.t.e.e.q.9.e.e.9.,.1 4 y B B B y 6 6 6 M B M M 6 1 U g.t.e.e.e.g.e.t.g.t.g.e.k.g.e.g.t.e.e.g.e.e.e.",
"e.q.e.e.e.g.e.e.e.e.e.e.e.e.e.e.e.w.q.e.e.9.q.,.  w s M B y 6 , $ 6 s B B B i $ P e.e.g.e.e.e.e.e.g.e.g.e.k.e.e.e.e.e.e.g.e.e.e.",
"e.e.q.e.g.e.e.e.e.e.e.e.e.e.e.e.e.e.e.e.q.9.e.>.. u B B s 6 , 5 r % w s B B B & P e.e.e.e.e.e.g.g.t.e.e.e.e.e.e.g.e.e.e.t.g.g.e.",
"e.e.e.e.e.e.q.e.e.e.e.e.e.q.e.e.e.e.e.e.9.e.9.>.  r s u r 4 - V _ - , q u s s & P g.e.e.e.e.t.e.e.e.g.e.e.e.e.k.e.t.g.e.g.e.e.e.",
"e.e.e.e.e.e.e.e.e.q.e.e.e.e.e.e.e.e.e.9.e.e.e.,.  4 6 ,     K y.u.y.-   @ 6 6 @ P e.e.g.g.e.g.e.e.e.t.e.g.e.e.e.e.e.e.g.e.g.t.e.",
"e.e.e.e.e.e.e.e.e.e.e.q.e.e.e.e.e.e.e.e.9.e.q.e.,.7 X e J . _ G.F.F.0 p V X X U e.e.e.e.e.e.e.k.e.g.e.e.t.g.e.e.e.g.e.e.e.e.k.e.",
"e.e.e.e.e.e.e.e.e.e.e.e.e.e.e.e.e.e.9.e.q.e.9.e.e.7 0 L ` O ' J.J.H.0 V ` M O o.g.t.e.e.e.e.e.e.g.t.e.e.e.e.g.e.e.g.t.e.e.e.e.e.",
"e.e.e.e.e.e.e.e.e.e.e.e.e.e.e.q.e.e.e.e.e.e.9.e.e.F G ` i.m A.J.J.J.C T i.L g 5.e.e.e.e.e.g.e.e.e.g.g.e.g.e.e.g.e.e.g.e.g.t.e.e.",
"e.e.e.e.e.e.e.e.q.e.e.e.e.e.e.e.q.e.e.9.9.e.e.e.e.e.F N G.J.J.J.J.J.J.G.' # e.e.e.g.e.e.g.t.e.e.g.t.e.e.e.e.e.t.g.e.e.e.e.e.g.e.",
"e.e.e.e.e.e.e.q.e.e.e.e.q.e.e.e.e.e.q.9.9.e.e.e.e.e.P ; A G.J.J.J.J.J.) l X 9.t.e.e.t.g.e.e.t.g.e.e.g.e.g.e.e.e.k.e.g.e.e.t.g.g.",
"e.e.e.e.e.e.e.e.e.e.e.e.e.9.e.e.e.e.e.e.e.e.9.e.e.t.P * z ! ! [ ] ! ! Z = : e.e.e.g.g.e.e.e.g.e.e.e.e.e.e.g.e.e.e.e.e.e.e.e.e.e.",
"e.e.e.e.e.e.e.e.e.q.q.e.e.e.q.e.9.q.9.e.e.9.q.e.e.e.D * j x E Q W c b j h # q.e.e.e.t.g.e.e.e.e.e.e.t.g.e.t.e.e.e.g.e.e.g.t.e.e.",
"e.e.q.e.e.e.e.e.e.e.9.e.e.9.9.e.e.e.e.e.e.q.9.e.e.e.H > v x E W Q Q c v k 3 5.e.e.e.g.e.k.e.e.e.e.e.g.e.e.e.g.e.e.e.t.g.e.e.g.e.",
"e.e.e.e.e.e.e.e.e.e.e.e.q.e.e.e.9.9.q.e.9.e.e.e.9.f L D.S.n n R Q Q c ( D.i.p  .e.e.e.e.e.e.e.e.g.t.g.e.e.e.g.e.g.t.g.e.e.e.e.e.",
"g.e.e.e.q.e.e.e.e.9.e.q.9.e.e.9.e.e.e.e.e.e.9.e.e.7 _ J.K.n.b.b.v.m.b.Z.H.G.:  .k.e.e.e.e.e.g.t.e.g.e.g.e.e.t.g.e.e.e.e.e.g.g.t.",
"e.e.e.e.e.e.e.e.q.e.9.e.9.e.e.e.e.e.9.e.e.9.9.e.e.F C C.Z.B.N.x.h B.B.V.Z.L g 4.e.e.e.e.e.g.e.e.e.g.e.t.k.e.e.e.e.g.e.e.e.e.e.g.",
"e.e.e.e.e.e.e.e.e.9.e.e.e.e.9.9.9.q.9.e.e.9.e.e.e.o.d h M.N.x.k > x.c.M.z.X / w.e.e.g.e.g.t.e.e.e.e.e.e.e.e.e.e.e.e.g.t.g.e.e.e.",
"e.e.q.e.e.e.e.e.e.e.e.e.q.e.e.e.e.e.9.e.e.e.9.e. . .d @ 8 8 $ f U o 3 6 2 + { o.5.e.t.g.e.e.e.e.g.e.e.e.e.g.e.e.e.e.e.e.e.e.e.e.",
"e.e.9.e.e.e.e.e.e.e.e.9.e.9.e.k.e.e.e.e.7.6.6.7. .o.{ U Y Y F / } U U U U U | o.4.7.7.q.e.e.e.e.e.e.e.e.e.e.e.e.g.e.e.e.g.e.e.g.",
"9.e.e.e.e.9.9.q.9.q.e.e.e.e.e.k.t.k.e.q.3.=.$.6.w.o.o.o. .o.o.o.o.o.o.o.o.o.o.5.0.-.=.6.7.e.e.e.e.e.e.e.e.e.e.e.e.e.e.e.e.e.e.e.",
"e.q.9.e.e.e.e.e.e.9.e.q.9.e.e.k.k.k.q.7.-.=.=.6.e.5.5.4.4.5.4.,.,.,.5.4.,.,.,.e.7.-.=.=.6.7.e.e.e.e.e.e.e.e.e.g.e.e.e.e.e.k.e.e.",
"9.e.e.9.9.e.9.e.e.e.9.9.9.e.e.t.e.e.7.=.$.3.6.q.g.e.e.e.g.e.e.e.g.e.e.e.e.e.t.g.e.7.6.=.#.6.q.e.7.e.e.e.e.e.q.q.e.e.e.e.e.e.k.e.",
"e.q.e.e.q.e.9.e.e.q.e.e.e.e.e.q.q.e.8.$.=.6.e.t.t.e.e.g.e.g.t.e.e.e.g.g.e.g.e.e.e.e.7.=.#.=.q.w.7.e.7.e.e.e.e.e.e.e.e.e.e.e.e.e.",
"e.9.e.e.e.9.q.e.e.9.e.q.e.9.e.7.e.e.q.7.6.e.k.e.e.g.e.e.e.e.e.g.e.e.e.t.t.e.e.e.e.g.e.7.3.7.e.e.q.q.e.e.e.e.q.e.e.e.e.e.g.t.e.e.",
"q.e.e.e.q.e.e.e.e.9.e.9.e.e.q.w.e.g.e.k.t.k.l.k.e.e.e.k.e.e.e.e.e.g.e.e.g.e.g.e.e.t.g.e.e.e.k.e.e.7.e.e.e.e.g.e.e.q.e.e.e.g.e.e.",
"e.e.e.e.e.q.e.9.q.e.e.e.e.w.9.q.e.e.e.e.e.k.k.e.e.g.t.g.e.e.g.e.k.e.e.e.e.e.t.g.e.e.q.e.e.e.g.e.q.q.e.e.e.e.e.g.e.e.e.e.e.e.g.e.",
"e.e.e.e.e.e.9.e.e.e.e.e.e.e.e.7.e.e.e.e.e.e.e.e.e.e.e.e.e.e.t.g.e.e.e.e.e.e.g.e.e.e.7.w.q.e.k.e.e.e.e.e.e.e.e.q.g.q.e.e.g.g.g.g.",
"g.e.e.e.e.e.9.q.-.6.q.k.f.e.q.e.e.g.e.e.e.e.g.e.e.e.e.e.e.e.e.e.e.e.e.e.g.e.e.e.e.7.q.q.q.e.e.e.e.e.f.g.j.g.7.-.7.e.q.g.e.e.e.g.",
"k.k.k.g.e.e.9.-.$.=.w.k.k.w.e.e.g.g.t.k.t.g.e.k.t.g.e.k.e.k.e.k.k.e.k.g.g.t.e.e.e.e.e.e.e.e.e.e.e.f.g.g.k.j.1.$.1.e.e.q.q.e.g.j.",
"k.j.g.k.t.g.e.6.*.=.4.7.w.e.g.g.k.e.e.e.e.e.e.k.g.g.k.e.t.g.g.g.e.e.t.g.e.k.e.e.e.e.e.e.e.e.e.e.e.g.k.f.w.5.,.&.1.e.e.e.d.g.g.j.",
"g.g.k.k.k.e.g.q.7.-.*.#.4.w.e.k.g.g.k.e.k.k.e.e.e.k.e.g.g.g.t.g.e.k.g.g.g.g.k.e.e.t.e.e.q.e.e.e.e.f.w.0.*.*.,.w.d.g.g.j.g.g.j.j.",
"g.g.e.k.k.g.e.q.e.7.$. .,.e.f.g.g.t.e.k.e.e.k.e.e.e.k.g.t.t.g.g.t.g.t.g.e.t.k.e.g.e.e.e.e.e.e.q.e.t.w.0.*. .3.g.g.g.g.k.g.j.j.j.",
"g.e.t.g.t.g.e.e.e.q.6.4.7.e.g.t.e.k.e.e.e.k.g.g.k.e.e.t.g.g.g.t.g.g.t.g.k.e.e.e.e.e.e.e.e.e.e.e.e.w.t.w.0.8.t.t.k.g.g.g.g.j.j.j.",
"9.e.e.q.g.q.q.g.g.g.t.t.e.e.e.e.e.k.e.e.e.k.g.t.e.k.k.e.k.e.g.g.g.k.e.e.k.g.g.e.e.t.g.e.e.e.e.e.t.t.r.r.t.t.k.t.g.e.d.g.g.g.j.j.",
"-.7.e.e.e.g.q.q.e.e.e.t.e.t.t.t.e.k.e.k.e.e.g.t.e.e.e.e.e.e.k.t.e.e.k.e.e.t.k.e.e.e.e.e.e.e.e.e.e.t.t.r.t.r.e.e.e.g.g.g.g.g.d.2.",
"+.-.e.e.e.q.q.d.q.q.e.7.9.t.e.t.e.e.g.e.k.g.t.g.k.e.e.k.e.k.g.g.k.k.e.e.g.t.e.e.e.g.g.e.e.e.e.e.e.t.r.r.r.r.w.e.g.d.g.e.g.g.2.@.",
"@.1.q.e.e.e.d.q.q.e.7.9.9.r.t.e.e.g.e.e.e.e.g.g.e.k.e.k.g.e.t.g.e.e.e.k.g.e.k.e.e.e.e.t.e.e.e.e.e.e.r.t.r.r.e.e.d.g.d.e.g.g.2.@.",
"@.1.e.e.e.e.q.e.e.e.9.r.r.r.r.e.e.g.e.g.g.g.g.g.g.g.k.g.g.k.g.e.e.k.k.e.g.g.t.g.e.e.e.e.e.e.e.e.t.r.t.t.e.e.e.j.g.d.g.e.e.q.2.%.",
";.2.q.e.e.e.g.d.e.e.9.r.r.r.t.t.e.g.g.g.e.g.e.g.k.g.k.g.g.k.g.k.g.e.e.e.t.g.t.g.k.e.e.g.e.e.e.e.e.e.r.e.q.e.e.d.d.d.d.q.q.e.0.;.",
"X.p.g.g.e.e.e.q.e.e.r.r.r.r.9.e.e.g.e.g.g.g.g.g.k.g.g.g.g.g.k.g.k.e.e.k.e.k.g.g.e.e.e.e.e.t.e.e.e.9.e.9.e.e.d.j.j.d.d.e.e.f.<.X.",
"I O.j.g.q.e.e.e.e.e.9.9.9.t.9.e.e.g.g.g.g.e.e.g.g.e.k.g.k.g.g.g.g.t.e.k.e.e.e.k.k.e.e.e.g.e.e.e.e.e.e.9.e.e.g.d.d.d.g.q.w.j.:.Y "
};
