/* XPM */
static char *result[] = {
/* columns rows colors chars-per-pixel */
"64 64 159 2 ",
"   c #130C1E",
".  c #1E121F",
"X  c #20141E",
"o  c #0F1222",
"O  c #131625",
"+  c #1B1121",
"@  c #1E1827",
"#  c #0D1B36",
"$  c #2C1621",
"%  c #231926",
"&  c #2A1A24",
"*  c #321B24",
"=  c #3E1E23",
"-  c #341E29",
";  c #3D2024",
":  c #36212B",
">  c #3B232C",
",  c #322837",
"<  c #3D3030",
"1  c #432326",
"2  c #4A2526",
"3  c #422329",
"4  c #592A27",
"5  c #532B2B",
"6  c #5C2E2B",
"7  c #4A3129",
"8  c #5E302E",
"9  c #5B3C2D",
"0  c #4A2E34",
"q  c #463333",
"w  c #4F3937",
"e  c #4C363D",
"r  c #5D3331",
"t  c #573B37",
"y  c #513A3D",
"u  c #61322E",
"i  c #643D2E",
"p  c #633632",
"a  c #683A37",
"s  c #6A3E3B",
"d  c #5A413B",
"f  c #69412F",
"g  c #6E4631",
"h  c #6C413E",
"j  c #134547",
"k  c #134849",
"l  c #1D514F",
"z  c #255552",
"x  c #1B644F",
"c  c #267E4E",
"v  c #207350",
"b  c #054A7C",
"n  c #0B4D7C",
"m  c #5C4540",
"M  c #6F4441",
"N  c #634B44",
"B  c #704643",
"V  c #6A5148",
"C  c #74594D",
"Z  c #735C55",
"A  c #7E655B",
"S  c #8C5E3A",
"D  c #95653B",
"F  c #9D6A3F",
"G  c #A46F3F",
"H  c #AA723F",
"J  c #8E6A4F",
"K  c #8F6D55",
"L  c #987359",
"P  c #A16C41",
"I  c #A77141",
"U  c #AB7342",
"Y  c #B37646",
"T  c #B47A45",
"R  c #BA7C47",
"E  c #BB7F48",
"W  c #977A69",
"Q  c #27814E",
"!  c #33974B",
"~  c #DE8C3D",
"^  c #E08D3E",
"/  c #BE8148",
"(  c #B38154",
")  c #828672",
"_  c #8B9478",
"`  c #A1826F",
"'  c #B38763",
"]  c #A98973",
"[  c #AB957B",
"{  c #C5864A",
"}  c #CA894B",
"|  c #D28F4D",
" . c #D8934F",
".. c #C28655",
"X. c #D88D55",
"o. c #D89350",
"O. c #D89459",
"+. c #E88C42",
"@. c #EA8D4B",
"#. c #E59445",
"$. c #E89546",
"%. c #EA954A",
"&. c #E4984D",
"*. c #EC9A4B",
"=. c #F09D4E",
"-. c #E18D52",
";. c #E59B54",
":. c #ED9E53",
">. c #E59959",
",. c #F39E51",
"<. c #F39C59",
"1. c #F4A04F",
"2. c #EFA155",
"3. c #EDA15C",
"4. c #F5A354",
"5. c #F9A557",
"6. c #F5AC54",
"7. c #FBAE56",
"8. c #F4A55A",
"9. c #FBA659",
"0. c #F6A95B",
"q. c #FEAD5D",
"w. c #F9B156",
"e. c #FCB15A",
"r. c #C8986C",
"t. c #D49D67",
"y. c #D19E6F",
"u. c #D19E70",
"i. c #E19C62",
"p. c #E9A669",
"a. c #F4A664",
"s. c #FCA760",
"d. c #F4AA63",
"f. c #FFAD61",
"g. c #F4AB69",
"h. c #FEAE69",
"j. c #FFB162",
"k. c #FCB26B",
"l. c #167C9D",
"z. c #0479B6",
"x. c #0D839D",
"c. c #128F9E",
"v. c #169195",
"b. c #098DCA",
"n. c #0091D5",
"m. c #0A97D6",
"M. c #0098DC",
"N. c #1196D1",
"B. c #8C8C85",
"V. c #938B81",
"C. c #C39E80",
"Z. c #C6A183",
"A. c #D2AC8B",
"S. c #C4BB8A",
"D. c #CDBC9F",
"F. c #D5BA97",
"G. c #E0B083",
"H. c #E2B58C",
"J. c #F6CA9F",
/* pixels */
"( O.p.a.f.q.q.7.q.q.j.h.h.h.f.f.f.f.f.q.f.f.f.f.f.q.f.f.f.q.f.f.q.q.q.q.f.q.q.q.q.f.e.q.q.q.q.e.f.q.q.e.q.q.e.7.q.e.e.f.g.a.>...",
"t.p.g.a.f.q.q.q.q.q.f.f.f.h.k.f.f.q.f.f.f.s.f.f.f.f.f.9.f.s.f.q.f.q.q.q.q.q.q.f.q.q.f.q.q.f.q.q.q.q.q.q.e.7.q.e.e.q.q.f.f.h.a.t.",
"p.g.h.f.q.q.q.e.e.q.j.k.j.h.f.f.f.f.f.s.q.q.f.9.q.f.f.f.q.f.f.f.f.q.q.q.q.f.q.q.q.q.q.q.q.f.q.q.q.q.e.q.e.q.e.d.q.e.q.q.f.f.h.d.",
"k.h.h.f.f.f.q.q.q.e.f.f.f.f.f.f.f.f.q.f.f.f.f.f.f.f.f.f.f.f.f.f.q.q.q.f.q.f.e.q.q.q.j.q.q.e.f.q.q.7.e.q.q.e.e.e.j.q.q.q.9.q.f.f.",
"k.k.f.f.q.q.f.q.e.q.q.j.f.f.f.f.f.q.f.q.f.s.f.f.s.f.f.f.f.f.9.f.q.f.q.q.q.f.q.e.q.q.q.q.e.q.q.q.q.q.q.7.q.q.e.f.f.q.q.q.q.9.9.f.",
"j.k.j.f.q.f.q.q.f.j.f.f.f.f.q.f.f.s.f.f.f.q.f.q.q.f.f.f.f.q.f.f.f.e.f.q.q.q.q.f.q.q.q.q.f.q.q.q.q.7.q.q.e.q.q.q.0.f.f.f.q.9.9.q.",
"j.e.f.f.f.5.4.5.q.q.q.f.q.f.f.f.q.f.f.9.q.9.f.f.f.q.f.f.s.q.f.f.q.q.q.q.q.q.q.q.5.*.*.5.f.q.q.q.q.q.q.q.q.q.q.q.j.q.q.f.f.9.9.q.",
"q.q.q.q.q.4.#.*.4.9.q.q.j.f.f.q.f.f.f.f.f.f.s.q.f.f.f.9.f.f.f.q.f.q.f.f.e.q.q.f.4.^ #.4.q.q.j.q.q.q.q.q.q.q.q.q.e.q.q.f.f.q.f.q.",
"q.q.q.q.q.9.,.=.=.,.9.q.q.q.q.f.f.f.9.f.9.f.f.f.f.f.f.f.q.f.q.f.f.f.q.q.q.f.q.q.9.:.$.*.,.5.q.f.f.f.s.f.f.s.q.q.f.q.q.f.f.f.f.f.",
"7.q.q.q.f.9.9.,.$.%.4.9.9.9.9.q.f.9.f.f.s.f.q.f.q.f.q.f.f.f.f.f.q.e.f.q.q.q.q.q.q.9.4.$.^ *.q.q.f.s.h.s.s.f.9.q.q.q.q.q.f.s.s.f.",
"q.q.e.f.q.q.q.4.*.=.9.q.q.9.q.f.f.f.f.9.q.q.9.f.f.q.f.q.q.f.f.q.f.f.q.q.e.f.q.q.q.f.7.*.#.4.j.q.f.s.h.s.f.f.q.q.q.q.q.q.f.f.f.f.",
"f.q.q.q.q.f.f.q.9.9.9.f.q.9.f.9.f.9.f.q.q.q.f.q.q.q.q.q.q.q.q.q.q.e.q.q.q.f.q.q.f.e.q.9.9.7.f.q.f.f.s.s.h.f.q.q.q.7.q.q.q.f.q.q.",
"f.j.0.j.q.q.f.f.q.q.j.j.s.q.f.q.q.f.q.q.q.q.q.f.q.q.q.q.q.e.f.f.q.q.q.e.f.q.q.j.e.f.q.q.q.j.j.f.f.f.f.f.h.f.q.q.q.q.q.q.f.f.q.q.",
"g.j.d.f.f.q.9.9.9.q.f.j.f.0.0.f.f.q.q.q.q.q.q.q.q.f.q.q.q.f.q.q.q.q.q.q.q.f.q.q.q.q.q.q.q.q.q.j.q.f.f.h.s.f.f.q.q.q.q.f.f.q.q.q.",
"k.j.j.e.f.9.9.9.9.q.q.j.f.f.f.q.q.f.q.q.9.q.q.q.f.q.f.q.q.q.e.f.f.q.q.f.q.q.j.q.f.q.q.q.q.q.q.q.f.f.f.f.f.f.9.7.7.q.q.q.q.q.q.q.",
"f.d.f.f.f.s.9.q.9.s.f.f.f.0.q.q.f.e.8.:.=.5.q.q.q.q.q.q.q.q.f.q.e.f.q.q.q.q.q.q.q.q.q.j.q.q.q.f.f.f.f.f.f.q.=.*.4.q.q.q.q.q.q.q.",
"f.f.s.q.q.q.9.f.f.9.f.f.q.q.q.9.j.j.6.#.#.5.q.e.f.q.q.q.q.q.q.q.q.f.q.q.q.q.q.q.q.j.q.q.q.q.e.f.f.q.f.q.q.8.%.~ *.q.f.f.q.q.q.q.",
"f.q.f.f.q.f.q.s.f.f.f.q.q.q.9.q.4.2.:.*.4.9.f.f.e.q.f.q.f.e.q.q.q.f.e.q.q.q.f.q.q.q.q.q.q.q.f.q.f.q.q.9.4.*.*.*.5.q.e.q.q.q.f.e.",
"f.q.s.0.q.s.9.f.f.9.q.q.9.q.9.9.*.~ #.8.q.f.e.f.f.q.q.q.f.q.q.q.q.q.f.q.q.f.q.q.q.q.q.f.f.q.q.q.q.q.f.5.#.^ *.9.q.q.j.q.q.q.q.q.",
"f.q.f.q.9.f.9.f.f.9.q.q.q.q.q.q.4.&.1.7.j.e.f.q.q.q.7.T P P P P P P P U q.q.q.q.q.q.q.f.e.q.q.f.q.q.f.4.*.*.5.q.q.q.q.q.j.q.q.f.",
"f.f.s.f.f.q.f.9.s.q.q.q.q.q.q.q.q.q.q.q.e.e.q.q.q.9.R 2 > 3 > * > > > ; Y 0.q.q.q.f.q.q.q.q.e.q.f.q.f.q.9.7.q.j.e.q.q.f.q.q.q.q.",
"f.9.q.9.f.s.f.f.f.f.q.q.q.q.q.q.f.j.e.q.q.q.q.q.9.E X 8 s B h u h M h r $ R q.q.f.e.q.q.f.q.f.q.q.f.f.e.f.f.e.j.f.q.q.q.q.q.f.q.",
"f.9.f.q.f.9.q.s.q.9.q.q.q.q.q.f.q.q.q.q.q.7.7.q.U $ u M B B B B B B B B u $ P q.q.q.f.q.q.q.f.q.q.q.j.q.j.j.f.q.f.q.e.f.f.q.e.f.",
"q.q.9.q.f.f.q.f.q.q.q.q.q.q.q.q.q.9.q.9.7.q.7.q.U & h B B B h u h B B B h - F q.f.f.e.q.q.f.e.q.q.q.q.j.e.f.q.q.q.q.q.q.q.q.q.q.",
"9.q.9.q.f.q.q.q.q.q.q.q.q.q.q.q.q.q.7.q.9.7.q.} g 5 M M B h u 6 p s B B B 0 i } q.q.q.q.e.f.q.q.q.q.q.j.j.q.f.q.q.q.q.q.f.q.q.q.",
"q.q.q.q.q.q.q.q.q.q.q.q.q.q.q.q.q.q.q.q.q.7.9.9 1 a B M h p 4 2 4 a B B B a 2 7 q.q.f.q.q.q.q.q.q.q.q.q.q.f.e.q.e.f.f.e.q.q.q.j.",
"q.q.q.q.q.q.q.q.9.q.q.q.9.q.q.q.q.q.9.q.q.q.q.9 0 B B B p 4 2 % 2 p M B B B 0 7 q.q.f.q.f.q.q.q.e.f.f.q.q.q.q.q.f.q.q.q.f.q.q.q.",
"q.q.q.q.q.q.q.9.q.q.q.q.q.q.q.q.q.q.q.7.7.q.9.9 0 B B B u = > ' < = p B B B 0 7 q.q.q.q.q.q.q.j.f.q.q.q.q.q.q.q.q.q.f.q.e.q.q.q.",
"q.q.q.f.q.q.q.q.q.q.q.q.q.q.q.q.q.q.q.7.q.q.9.9 > p p : & t L y.L t & : r p 3 7 q.q.q.f.q.f.q.q.q.q.q.j.q.q.q.q.f.q.q.q.f.q.q.f.",
"q.q.q.q.q.q.q.q.q.q.q.q.q.9.q.9.q.q.q.q.q.7.7.{ f = 3 m & V G.G.G.C % d 3 = i { f.q.q.e.f.e.q.f.q.q.q.q.q.f.q.j.e.q.q.q.q.q.q.q.",
"q.q.q.q.q.q.q.q.q.q.9.q.q.q.q.q.q.q.9.q.q.q.7.q.U + 0 ' w Z J.J.J.K q r.w + P q.q.q.q.j.q.q.q.q.e.f.q.q.q.q.q.f.f.q.j.q.q.q.e.f.",
"q.q.q.q.q.q.q.q.q.q.q.q.q.q.q.q.q.q.q.9.7.q.q.q.U w r.y.w Z J.J.J.A q y.r.t F f.q.q.q.q.q.q.q.q.f.q.q.q.f.e.q.q.q.q.q.q.q.f.q.q.",
"q.q.q.q.q.q.9.q.q.q.q.q.9.q.q.q.q.9.q.q.q.9.q.7.7./ m F.Z.S.J.J.J.A.C.H.N T a.q.f.q.q.q.q.q.q.q.q.q.q.q.f.q.q.f.q.f.f.q.e.q.q.f.",
"q.q.q.9.q.q.q.q.q.q.q.q.q.q.7.q.q.7.q.7.q.7.q.q.e.o.@ A F.J.J.J.J.J.F.) % O.q.q.e.q.q.f.e.q.f.e.q.f.f.e.q.q.q.e.q.q.q.q.f.q.q.q.",
"q.q.q.q.q.q.q.q.q.9.q.q.q.7.q.q.q.q.q.q.q.7.q.q.q.E o j _ S.u.S.S.S._ k o Y q.q.q.f.q.f.f.q.q.f.q.q.q.f.q.q.q.q.q.j.q.q.q.q.q.q.",
"q.q.q.q.q.q.q.q.q.q.9.7.q.q.9.7.q.7.9.7.q.q.7.q.I   o j x c ! ! ! Q x k O   P q.q.q.q.f.f.q.q.q.j.q.q.q.f.e.f.q.q.q.q.q.q.f.f.e.",
"q.q.q.q.9.q.q.q.q.q.q.7.9.q.q.q.q.7.q.q.9.q.q.D K Z.[ z x v Q ! ! Q x l [ Z.K J q.q.q.e.q.q.q.q.q.q.f.q.q.q.q.q.q.q.j.q.q.e.f.q.",
"q.q.q.q.q.q.q.q.q.7.q.9.7.q.q.7.9.q.q.7.7.q.q.9 W J.F.x.x.x.x.v.v.c.x.l.D.J.` 7 q.f.q.q.q.j.q.q.q.q.q.q.f.e.q.q.q.q.q.q.q.f.q.q.",
"q.q.q.q.q.q.q.q.9.q.q.q.7.q.q.q.q.7.9.q.7.q.q.Y J ] V.N.M.n.z.b z.n.M.m.B.] J U q.q.q.q.q.q.q.q.q.f.e.q.q.q.q.j.q.q.q.q.f.e.q.f.",
"q.q.q.q.q.q.q.q.q.q.7.q.q.q.7.q.9.q.q.7.q.q.q.q.Y . @ b.b.z.n & n z.b.b.# + P 7.q.q.q.j.q.q.q.q.q.q.f.q.f.q.q.q.e.f.q.f.q.q.q.q.",
"q.q.q.q.9.q.q.7.q.q.q.9.q.q.q.q.q.q.q.q.q.7.q.:.| D   e y , < { 7 , y e + S | 3.q.q.q.q.q.q.q.q.q.q.q.q.f.q.q.q.f.q.f.q.q.q.f.q.",
"q.q.q.q.q.q.q.q.q.q.7.q.q.7.q.e.q.q.q.9.7.4.4.&.o.{ G H H U Y  .Y H U H I {  .o.q.5.5.9.q.q.q.q.q.q.q.q.q.q.q.f.q.q.q.q.q.q.q.q.",
"q.9.q.q.q.7.q.7.7.9.q.q.q.q.q.j.e.j.q.9.4.*.%.:.;.o.o.o. .o.o.o.o.o. .o.o.o.;.8.9.*.*.4.9.q.q.q.f.q.q.q.q.q.q.q.q.q.q.q.q.q.q.q.",
"7.q.7.q.q.q.q.9.q.q.7.q.7.q.q.j.j.j.7.5.=.*.$.4.0.;.;.;.;.;.;.;.;.;.;.;.;.;.8.q.0.1.*.*.4.8.q.f.q.q.q.q.q.q.q.9.q.q.q.q.q.q.q.f.",
"7.q.7.q.7.q.q.7.q.7.q.9.q.q.q.q.q.q.5.*.$.1.4.q.q.q.f.q.e.q.q.q.q.q.q.q.q.q.q.q.q.5.1.*.$.4.9.7.9.9.q.q.q.q.9.q.q.q.q.q.f.f.q.q.",
"q.9.q.q.9.q.q.q.q.9.q.7.7.q.9.9.q.q.4.$.$.8.q.q.q.q.e.f.f.q.f.q.q.q.f.q.j.q.f.e.q.q.8.*.#.*.9.9.9.9.q.q.q.q.q.q.q.q.q.q.q.e.f.q.",
"q.q.q.q.7.q.9.7.q.7.q.7.q.q.q.5.q.q.9.4.5.q.e.f.q.q.q.q.q.q.f.q.q.q.q.f.q.q.q.f.q.f.q.5.4.5.q.q.8.q.7.q.q.q.q.q.q.q.q.q.f.q.q.q.",
"q.7.q.q.9.q.q.q.q.7.q.q.q.7.q.8.7.j.j.f.e.j.j.j.q.j.q.q.q.f.e.f.q.f.q.e.q.q.q.q.q.e.q.q.q.q.e.q.9.9.q.q.q.f.9.q.9.q.q.q.q.f.e.q.",
"9.q.q.q.q.q.7.q.q.q.q.q.q.q.7.9.q.q.q.q.q.j.j.e.f.f.q.q.q.q.q.q.q.q.f.e.q.q.f.q.q.7.q.9.7.q.f.q.q.q.9.q.q.q.q.q.q.9.q.q.q.f.q.q.",
"q.q.q.q.q.q.7.9.q.7.7.q.q.9.9.9.q.q.q.q.q.q.q.q.q.q.q.q.q.j.q.q.f.q.q.f.e.q.q.q.q.9.9.0.q.q.j.q.q.9.q.q.q.q.9.f.q.f.q.q.f.q.f.f.",
"f.f.q.q.q.q.7.9.=.4.q.j.j.0.q.q.q.j.e.q.q.q.q.f.q.q.q.f.q.q.q.q.q.q.q.q.f.f.f.q.q.q.9.9.q.q.q.q.q.q.f.f.f.f.9.,.4.q.9.q.f.f.f.f.",
"k.j.j.f.q.q.9.,.$.%.0.j.f.q.0.f.q.f.f.q.q.f.e.f.q.j.f.e.q.q.j.q.q.j.q.q.j.q.e.f.q.q.q.q.9.q.q.q.0.f.f.d.k.h.:.$.,.q.f.q.9.9.q.h.",
"f.j.f.j.e.f.9.4.*.*.2.6.0.d.f.f.f.q.j.j.e.f.f.f.f.e.q.q.j.q.q.j.e.e.f.f.f.f.e.q.q.q.q.q.q.q.q.q.f.f.d.d.0.8.*.*.5.f.q.q.s.s.f.k.",
"f.q.j.j.j.q.q.9.5.:.#.#.2.0.q.j.j.q.q.q.f.f.e.e.f.f.j.q.j.q.q.j.f.f.q.j.f.e.f.q.q.q.q.q.q.9.q.q.f.0.e.8.*.o.:.8.9.f.f.f.h.f.f.k.",
"f.f.e.j.j.f.q.q.q.4.&. .2.q.q.f.j.q.q.q.f.e.f.f.e.j.q.q.q.q.e.q.q.q.q.j.f.f.f.q.f.q.q.q.q.q.q.q.q.d.q.2.&.#.2.j.f.f.f.h.f.k.h.h.",
"f.q.f.q.e.f.q.q.f.q.4.4.8.0.q.f.q.q.j.j.f.f.f.e.f.f.q.j.q.j.f.f.j.j.q.q.e.f.q.q.q.q.q.q.q.q.q.q.e.q.w.0.6.6.0.j.f.f.f.f.f.f.h.h.",
"q.7.q.9.f.9.9.f.f.q.q.q.7.q.q.q.f.f.e.e.f.f.f.f.q.j.j.q.j.q.q.q.q.q.j.q.q.e.f.q.f.q.q.q.q.q.q.9.q.e.w.w.e.e.e.f.f.q.s.f.f.f.h.h.",
"=.5.q.q.q.q.s.9.s.9.q.q.7.q.e.e.e.f.f.f.q.j.e.f.q.q.q.q.q.q.j.j.q.j.q.q.j.q.f.q.e.q.q.q.q.q.q.q.q.e.w.w.e.e.e.f.f.f.f.f.f.f.s.<.",
"+.=.q.q.q.9.9.s.9.9.q.7.7.e.q.e.q.q.f.q.q.e.f.q.j.q.q.j.q.j.q.q.q.q.j.j.e.q.j.q.q.f.q.q.q.q.q.q.q.e.e.w.w.w.7.f.q.f.s.q.f.f.<.@.",
"@.,.9.q.q.q.9.s.f.9.7.7.7.w.e.q.q.f.q.q.f.q.f.j.e.f.q.j.f.q.j.q.j.q.q.q.f.j.q.q.q.q.q.f.q.q.q.q.7.e.e.w.w.w.q.s.s.s.f.q.f.f.<.@.",
"@.,.q.q.q.q.9.f.q.q.7.e.w.w.e.7.q.f.q.f.f.f.f.f.f.f.f.j.q.j.f.j.j.q.q.q.f.f.f.e.q.q.q.q.q.e.q.q.q.e.e.w.q.q.q.f.s.s.s.q.q.9.8.@.",
"-.<.9.q.q.q.f.9.q.q.7.w.w.w.e.q.q.f.f.f.q.f.q.f.f.j.f.f.j.f.f.f.q.q.j.j.f.e.f.f.f.q.e.f.q.q.q.q.q.q.e.q.7.q.s.f.h.f.9.q.9.9.<.o.",
"X.i.f.f.q.q.q.q.q.9.7.w.w.w.e.q.q.f.q.f.f.f.f.f.j.f.j.f.f.f.j.f.j.q.q.q.j.q.e.f.e.f.e.q.q.q.q.q.q.q.7.q.q.q.f.s.s.s.f.9.q.s.3.O.",
"Y O.h.f.9.q.q.q.q.q.7.w.7.w.7.q.q.f.f.f.q.f.q.f.f.f.j.f.j.f.f.f.j.q.j.q.q.q.j.f.f.q.f.q.q.q.q.q.q.q.q.7.q.f.s.s.s.h.s.q.0.a.>.R "
};
