/* XPM */
static char *result[] = {
/* columns rows colors chars-per-pixel */
"64 64 162 2 ",
"   c #0E0B1E",
".  c #110B1F",
"X  c #0D0F26",
"o  c #0E192E",
"O  c #1B1323",
"+  c #1A192C",
"@  c #291521",
"#  c #261825",
"$  c #2B1B23",
"%  c #361A23",
"&  c #3B1D24",
"*  c #1D222E",
"=  c #34212A",
"-  c #3D232C",
";  c #38282D",
":  c #2A2731",
">  c #442125",
",  c #42272D",
"<  c #4C272A",
"1  c #542826",
"2  c #592A27",
"3  c #532F2C",
"4  c #5C2E2B",
"5  c #5E392D",
"6  c #402E31",
"7  c #4C3535",
"8  c #463939",
"9  c #543335",
"0  c #5F3331",
"q  c #62332F",
"w  c #633531",
"e  c #663936",
"r  c #6B3E3B",
"t  c #5D443D",
"y  c #6D413E",
"u  c #764D33",
"i  c #795135",
"p  c #0B2B4A",
"a  c #243143",
"s  c #213854",
"d  c #184749",
"f  c #2B4059",
"g  c #374256",
"h  c #205451",
"j  c #1F6750",
"k  c #1F7050",
"l  c #21754F",
"z  c #267E4E",
"x  c #3F4F62",
"c  c #5C4642",
"v  c #6E4441",
"b  c #654D46",
"n  c #704643",
"m  c #6D5145",
"M  c #447E5E",
"N  c #7D645A",
"B  c #6C7265",
"V  c #865936",
"C  c #8D5C36",
"Z  c #855939",
"A  c #935E37",
"S  c #9A683D",
"D  c #A16C3F",
"F  c #88654C",
"G  c #916542",
"H  c #8F6D57",
"J  c #A36E41",
"K  c #AD7543",
"L  c #B37944",
"P  c #B87A47",
"I  c #B97B47",
"U  c #A77D5D",
"Y  c #8F7364",
"T  c #29844E",
"R  c #32954C",
"E  c #33984B",
"W  c #1F8670",
"Q  c #20927A",
"!  c #4C8361",
"~  c #658B6A",
"^  c #758870",
"/  c #759470",
"(  c #DE8C3D",
")  c #E08D3E",
"_  c #BD8047",
"`  c #B38154",
"'  c #8B9278",
"]  c #AF8461",
"[  c #B78A64",
"{  c #A18673",
"}  c #C4854A",
"|  c #CD8B4C",
" . c #D28F4C",
".. c #D4904E",
"X. c #D8934F",
"o. c #C28655",
"O. c #D88D55",
"+. c #D99350",
"@. c #D8955D",
"#. c #EA8D4B",
"$. c #E59445",
"%. c #E89546",
"&. c #E49549",
"*. c #EA954A",
"=. c #E6994C",
"-. c #EC9A4B",
";. c #F09D4E",
":. c #E18D52",
">. c #E39A53",
",. c #EC9F54",
"<. c #E59959",
"1. c #F39E51",
"2. c #F39C59",
"3. c #F4A04F",
"4. c #EFA054",
"5. c #EEA259",
"6. c #F5A354",
"7. c #F9A557",
"8. c #F5AC54",
"9. c #FBAE56",
"0. c #F4A559",
"q. c #FBA659",
"w. c #F6A95B",
"e. c #FEAD5D",
"r. c #F9B156",
"t. c #FCB15A",
"y. c #CE9C6E",
"u. c #D49D67",
"i. c #D19E70",
"p. c #E19C62",
"a. c #E9A669",
"s. c #F4A664",
"d. c #F4AA63",
"f. c #F7A966",
"g. c #FFAD61",
"h. c #FEAE69",
"j. c #FFB162",
"k. c #FCB26B",
"l. c #044F83",
"z. c #147F82",
"x. c #02619C",
"c. c #027FBB",
"v. c #1A8C82",
"b. c #308A8E",
"n. c #4A9598",
"m. c #0180C2",
"M. c #0089CC",
"N. c #0095D9",
"B. c #0098DC",
"V. c #A08F80",
"C. c #BEBC87",
"Z. c #B9B388",
"A. c #9DAEA9",
"S. c #9AB7B5",
"D. c #CBA483",
"F. c #CEAA8A",
"G. c #D1AA89",
"H. c #CBB18F",
"J. c #DDB893",
"K. c #E2B285",
"L. c #ECBF93",
"P. c #F6CA9F",
/* pixels */
"` @.a.s.g.e.e.9.e.e.g.j.h.h.g.g.g.g.g.g.g.e.g.g.q.g.g.g.e.g.g.g.g.e.e.e.e.e.e.e.e.e.e.e.t.g.e.g.e.t.e.e.t.e.e.t.9.e.g.j.g.s.<.o.",
"u.a.f.s.g.e.e.e.9.e.g.h.h.h.g.h.g.g.g.g.g.g.g.e.g.g.g.g.g.g.q.g.g.e.e.e.g.e.e.g.e.g.e.g.e.e.e.e.e.e.e.t.9.e.t.e.e.t.t.g.h.f.f.p.",
"a.f.h.g.g.e.e.e.t.g.j.j.h.g.g.j.g.g.g.e.q.g.g.g.g.g.q.g.g.g.q.g.e.e.e.g.e.e.e.e.t.g.e.e.e.e.e.g.e.e.e.t.e.t.t.t.t.t.e.e.g.g.f.d.",
"k.h.h.g.g.e.g.t.e.t.g.g.g.h.g.g.q.g.g.g.g.g.g.g.e.g.g.g.g.g.g.g.g.e.e.e.e.g.e.e.e.e.e.e.g.e.e.t.e.9.e.e.t.e.t.d.g.j.e.w.e.w.g.h.",
"k.k.g.g.e.g.g.e.e.j.g.g.e.g.g.j.g.g.g.g.g.g.g.g.g.g.q.g.g.g.e.g.j.e.g.e.e.e.e.e.e.e.e.e.e.e.e.e.e.t.e.9.e.e.g.t.g.w.e.e.e.q.q.e.",
"k.k.j.g.g.e.e.e.e.g.j.t.g.g.e.g.q.g.g.g.q.g.e.g.q.g.g.g.g.g.g.g.e.e.e.e.e.g.t.e.e.e.e.e.e.e.e.e.e.e.9.e.e.e.t.e.e.g.g.g.e.q.7.e.",
"t.j.e.e.e.7.6.6.q.e.g.g.e.g.g.g.g.g.q.g.g.g.g.g.g.g.g.e.g.g.g.g.e.e.g.e.e.e.g.g.7.-.;.6.t.g.j.e.e.e.e.e.e.e.e.e.e.g.g.g.e.e.q.e.",
"e.e.e.e.e.6.%.-.6.e.e.e.g.g.g.e.g.g.g.g.q.g.g.q.g.g.g.g.g.q.g.g.g.e.t.e.g.e.e.e.6.$.) 6.e.g.e.g.e.e.e.e.e.e.e.e.e.e.e.e.g.g.e.g.",
"e.e.e.e.e.6.;.;.;.1.q.e.e.e.e.g.g.q.g.g.q.g.g.g.g.g.g.e.g.g.g.g.g.t.g.e.e.e.g.e.q.;.=.-.1.6.j.e.q.g.q.g.g.g.e.e.e.e.e.g.g.g.g.g.",
"9.e.e.e.g.e.q.1.%.*.6.q.q.q.e.e.g.g.g.e.g.g.e.g.g.e.g.g.e.g.e.g.e.e.g.e.e.e.e.e.e.q.6.%.) -.e.e.g.f.f.g.q.g.e.e.e.e.e.e.g.g.g.g.",
"e.e.g.e.e.e.g.2.-.;.7.e.q.q.e.e.g.q.g.e.q.e.q.g.e.e.g.g.g.e.g.e.e.j.e.e.t.g.e.e.e.e.9.-.%.6.t.g.g.g.g.f.f.f.e.e.e.e.e.e.g.g.g.e.",
"g.e.t.e.e.g.g.q.7.q.e.g.g.q.g.q.e.g.e.e.g.e.g.e.e.e.e.e.e.e.e.e.e.e.e.e.g.e.e.e.t.e.e.q.6.e.j.g.g.g.f.g.f.g.e.e.e.9.e.e.g.g.e.e.",
"g.j.t.g.g.g.e.e.e.g.j.j.g.w.g.g.w.g.e.e.e.e.e.e.g.e.e.e.e.e.j.e.e.e.t.g.e.e.e.j.g.g.j.e.e.e.g.g.g.g.g.f.g.g.g.e.e.e.e.g.g.g.e.e.",
"h.d.j.d.g.q.q.e.q.e.g.j.g.w.g.w.g.e.e.e.e.e.e.g.e.e.e.g.e.e.e.e.e.e.g.e.e.e.e.e.e.e.e.e.e.e.t.g.g.g.g.g.g.g.g.e.e.e.e.e.q.g.e.e.",
"j.d.d.t.g.q.q.q.q.e.e.g.g.g.g.e.e.g.e.q.q.e.e.e.e.e.e.e.g.e.t.e.e.e.e.e.g.e.t.g.e.g.e.e.e.e.e.g.g.g.g.g.g.g.q.9.9.e.e.g.e.e.e.e.",
"h.j.g.j.g.g.q.q.e.e.g.g.e.e.w.e.j.j.w.;.;.7.e.e.e.g.e.e.e.e.g.e.j.e.e.e.e.e.g.e.t.g.e.e.e.g.t.g.g.g.g.g.g.e.;.*.6.e.e.e.e.e.e.e.",
"g.g.g.q.g.g.q.g.q.g.g.g.e.e.e.q.g.j.0.$.%.6.t.e.g.t.g.e.e.g.e.g.e.e.e.e.e.g.e.e.g.t.g.e.e.g.t.e.g.e.g.e.e.7.*.( -.g.e.e.e.g.g.e.",
"g.e.e.g.g.e.g.q.g.e.q.g.e.e.e.e.6.,.,.-.6.9.g.e.e.e.e.J i i i i i i i i w.e.e.e.e.e.e.e.e.e.g.e.g.e.g.2.1.-.-.-.6.e.j.e.e.t.e.e.",
"g.g.g.e.q.g.g.q.g.g.e.e.e.e.q.7.-.( %.0.e.g.j.e.e.w.L 3 - , - % - - - % D 0.e.g.e.g.e.e.e.e.g.e.e.e.e.6.$.) -.9.e.j.e.e.g.g.e.e.",
"g.w.e.e.g.q.g.g.q.g.e.e.e.e.e.q.6.-.-.e.t.g.t.e.q.} @ 4 y v v w y n y w % J 7.e.e.e.g.t.g.e.e.e.g.e.g.7.;.-.6.e.e.e.e.e.e.t.e.e.",
"g.g.g.q.g.g.g.q.e.e.e.g.e.e.e.e.e.e.e.t.j.e.e.e._ @ 4 y n n n v n n n n w % Z e.e.j.e.e.e.e.g.e.e.e.e.e.q.q.e.j.j.e.e.e.e.e.g.t.",
"g.q.g.g.q.g.g.g.g.e.e.q.e.e.e.e.e.j.j.e.t.e.e.e.I # v n n n v w y v n n y - Z e.e.e.e.e.e.e.t.g.e.j.j.e.j.t.j.j.e.e.e.e.e.e.e.g.",
"q.g.q.g.g.g.q.g.g.e.e.e.e.e.e.g.e.e.e.e.e.9.9.| u < n n n y w 4 q r n n n 9 5 L e.e.e.e.g.e.e.e.e.e.j.j.j.g.g.e.e.e.g.e.e.e.e.e.",
"g.q.e.q.g.q.g.g.e.e.q.e.e.e.e.e.e.w.q.9.e.e.9.u & e n n y w 2 > 1 e n n n r < @ w.e.j.e.e.g.t.e.e.e.e.e.g.t.e.e.t.e.e.g.t.e.g.e.",
"e.e.e.e.g.e.e.e.e.e.e.e.e.e.e.e.e.w.e.e.9.q.9.u , n n n w 2 1 $ > 0 v n n n 9 $ w.g.e.e.t.g.e.g.e.g.e.g.e.j.e.e.g.g.g.e.e.g.e.g.",
"e.q.q.e.e.e.e.e.e.e.e.e.e.e.e.e.e.e.e.e.e.e.e.u , n n n w > $ ] 7 % w n n n 9 $ w.e.e.e.e.g.e.e.g.t.e.e.e.e.e.e.e.e.e.e.e.t.e.e.",
"e.e.e.e.e.e.e.e.e.q.e.e.e.e.q.e.e.e.e.9.9.q.e.u & w w & @ 7 H y.U t @ $ 3 w < @ q.e.e.g.e.e.g.g.e.e.g.e.e.e.e.j.e.g.e.e.e.g.e.e.",
"e.e.e.e.e.e.e.e.e.e.e.e.e.e.e.e.e.e.e.e.e.e.9. .u & & t = b K.K.K.H O b < & 5 _ e.e.g.t.e.e.e.t.e.e.t.e.g.e.e.e.e.e.t.g.e.t.g.e.",
"e.e.e.e.g.e.e.e.e.e.e.q.e.e.e.e.e.e.e.e.e.9.e.e.I O 6 [ t b P.P.P.Y ; y.t O Z e.e.e.g.e.e.e.e.j.e.g.e.e.t.g.e.e.e.e.e.e.e.e.e.t.",
"e.e.e.e.e.e.e.e.e.e.e.e.e.e.e.e.e.e.q.9.e.e.9.e.I 7 i.i.c b P.P.P.Y ; y.y.m Z e.e.e.e.e.e.e.e.e.g.t.e.e.e.e.g.e.e.e.j.e.e.g.e.g.",
"e.e.e.e.e.e.e.e.e.e.e.e.e.e.w.e.9.e.e.e.9.e.e.e.q.| 8 D.G.F.P.P.P.J.D.L.b K w.g.t.g.e.e.e.j.e.e.e.e.g.e.g.e.e.g.e.e.e.e.e.e.e.g.",
"e.e.e.e.e.e.q.e.e.q.e.e.e.e.e.e.q.e.e.e.q.e.9.e.e.4.. B H.P.P.P.P.P.J.' : | e.e.g.e.e.e.e.e.e.e.g.g.t.e.e.e.e.t.g.e.e.e.j.e.e.e.",
"e.e.e.e.e.q.e.e.e.e.e.e.e.e.e.e.e.e.e.e.e.e.9.e.e.,.  d ^ Z.C.C.Z.Z.' h o } t.g.g.e.t.e.e.g.j.e.e.e.e.e.e.e.e.t.g.e.e.e.e.g.e.e.",
"e.e.e.e.e.e.e.e.e.e.e.q.e.e.9.q.e.q.9.e.9.q.e.e.e.>.O d j z E E z k j h * _ e.g.e.e.g.e.e.e.e.e.e.e.t.g.e.e.e.g.e.e.e.e.g.t.e.e.",
"e.e.e.e.e.e.e.e.e.9.e.e.9.q.e.e.9.e.e.9.e.e.9.e. .m G.F.~ z E E R T M H.F.F K e.e.e.t.e.e.e.g.e.e.g.g.e.j.e.e.e.g.e.t.g.e.e.g.e.",
"e.e.e.e.e.e.e.e.e.q.e.9.e.e.9.e.q.e.e.e.q.9.e.e.I c P.P./ l z R R T ! P.P.N Z e.e.g.g.e.t.g.e.e.e.e.e.e.e.e.e.g.e.e.g.e.g.g.t.e.",
"e.e.e.e.e.e.e.e.e.e.e.9.e.e.q.e.e.e.9.e.e.9.e.9.>.G { A.n.z.v.W Q v.b.S.V.F | j.e.e.e.e.e.g.e.e.e.t.e.e.e.e.g.e.e.e.e.e.e.e.e.j.",
"e.e.e.e.e.e.q.e.e.e.q.e.9.e.e.9.9.e.q.e.e.9.e.e.e.>.X m.B.B.M.x.m.N.B.B.p _ e.e.g.t.g.e.e.e.e.e.e.g.e.e.t.g.t.e.g.g.t.g.e.e.e.e.",
"e.e.e.e.e.e.e.q.e.e.e.e.9.e.e.e.q.e.e.9.e.e.e.e.8._ X c.B.M.x.o l.m.B.B.p S 0.e.g.e.e.e.e.t.e.g.g.e.e.e.g.e.e.e.e.e.e.e.t.g.e.e.",
"e.e.e.e.e.e.e.e.e.e.9.e.e.e.9.e.e.9.e.e.9.e.e.7.=.D . g x f a S 8 s x x + C +.5.e.e.e.g.e.g.e.e.e.e.e.j.e.e.g.e.e.e.e.e.g.e.e.e.",
"e.q.e.e.e.e.e.e.e.e.e.e.e.e.e.e.9.e.e.e.e.e.9.,.+.} i A S V C | G C S A Z K +.+.g.e.e.e.e.e.e.e.e.g.e.e.e.e.e.e.e.j.e.e.e.e.e.e.",
"e.e.e.e.9.q.e.e.e.9.9.q.e.9.e.t.e.e.t.e.9.6.6.,.+.X.X.X.X...X.X.+.+.X.X.X.X.+.,.e.7.6.q.e.e.e.e.e.e.e.e.e.g.e.e.e.e.e.e.g.e.g.e.",
"e.e.9.e.e.9.e.9.e.e.e.e.e.e.e.j.j.j.e.q.3.-.*.6.0.X.+.+.X.X.X.X.+.+.X.X.X.X.5.t.q.-.-.6.7.e.e.e.g.e.e.e.e.e.e.e.e.e.e.e.e.g.e.e.",
"9.e.q.e.e.e.q.e.q.e.9.9.q.e.t.j.j.t.q.6.;.-.*.6.e.e.e.e.e.e.e.e.e.w.e.e.e.e.e.e.q.;.-.1.6.7.e.e.e.e.e.e.e.e.q.e.e.e.e.e.e.e.e.e.",
"q.9.9.e.9.e.e.9.e.9.e.e.e.e.e.e.e.t.6.-.-.;.6.9.e.e.t.e.g.t.g.e.g.e.t.g.e.e.e.g.9.w.6.-.%.6.w.e.7.e.e.e.q.e.e.e.e.e.e.e.e.g.g.e.",
"e.e.e.e.e.q.e.e.e.9.q.e.9.e.q.q.e.e.6.=.*.7.e.e.g.e.g.e.e.e.e.e.e.e.e.e.e.g.e.e.e.e.q.-.$.-.9.q.7.q.q.e.e.e.e.e.e.e.e.g.e.t.e.e.",
"e.e.e.q.9.e.9.q.q.e.e.9.e.e.e.9.e.e.q.6.6.e.j.e.e.e.g.e.e.g.e.e.e.e.e.g.e.t.g.e.e.t.e.6.6.6.e.q.q.q.e.e.e.e.e.e.e.e.e.e.e.g.e.e.",
"9.e.e.e.e.e.e.e.e.9.e.e.e.9.q.q.e.e.j.e.j.j.j.j.e.g.t.e.e.e.g.t.g.e.e.e.e.e.g.e.e.g.g.e.e.e.j.e.q.7.e.e.e.e.e.e.q.e.e.e.e.t.e.g.",
"e.e.e.e.e.e.9.e.e.e.e.e.9.e.w.q.e.e.e.e.e.j.j.j.e.e.e.e.e.e.e.g.e.j.e.e.e.e.t.e.e.e.e.e.e.e.g.w.e.e.w.g.e.e.e.e.e.q.e.e.e.g.e.g.",
"e.e.e.e.e.e.9.q.9.e.e.e.e.e.q.w.e.g.e.e.e.e.e.e.e.e.e.e.e.e.e.e.e.e.e.e.g.e.g.g.e.7.7.7.q.e.j.e.9.e.e.e.g.e.e.e.e.e.e.e.e.e.e.g.",
"g.g.e.e.e.e.9.q.;.6.e.g.g.e.9.e.e.t.t.e.e.e.e.e.e.e.e.j.e.e.e.e.e.e.e.g.e.e.e.e.e.q.e.7.w.e.e.e.e.w.g.g.h.e.7.1.2.e.e.e.e.e.g.g.",
"j.j.g.e.e.e.q.1.%.-.7.j.d.w.g.g.g.g.g.e.g.e.j.e.e.j.e.e.j.e.j.e.e.j.g.t.e.j.e.e.e.e.e.e.e.e.e.e.g.g.w.h.j.h.,.$.1.e.e.e.e.s.g.g.",
"j.h.g.j.t.e.q.1.=.-.4.5.w.e.g.g.g.t.g.j.j.e.e.e.j.e.t.g.g.g.j.e.e.e.j.e.j.e.e.e.e.e.e.e.e.e.e.e.g.g.d.w.w.w.,.-.2.e.g.e.e.s.g.h.",
"g.g.j.j.j.g.e.e.7.4.&.&.4.w.e.g.e.j.g.e.e.e.j.j.j.e.e.j.g.t.g.g.j.e.j.e.e.e.j.e.e.e.e.e.e.9.e.e.g.w.w.0.-.+.,.q.e.g.g.g.g.g.g.h.",
"g.e.j.j.j.e.e.e.e.6.&.$.4.e.g.g.j.e.e.e.e.j.e.e.e.e.e.e.g.g.t.t.e.j.e.e.g.j.j.e.e.g.e.e.e.e.e.e.e.w.w.0.=.X.6.g.g.g.g.h.h.h.h.h.",
"g.e.e.e.t.g.e.e.e.e.8.4.0.w.e.j.e.e.j.j.e.e.j.e.e.j.j.e.t.g.g.g.e.e.e.j.g.t.e.e.e.e.e.e.e.e.e.e.e.e.t.w.8.8.9.e.g.e.g.g.g.g.h.h.",
"e.e.e.e.e.q.2.g.e.g.e.e.e.e.e.t.j.e.e.e.j.e.j.e.t.e.e.j.e.j.j.e.j.e.e.j.e.g.g.e.e.e.e.e.e.e.e.q.9.t.t.t.t.t.t.g.g.e.g.g.g.g.h.f.",
";.6.e.e.e.e.e.g.e.e.e.9.t.9.t.e.e.e.j.e.j.e.g.g.g.j.e.e.e.e.e.e.j.e.g.g.t.g.t.e.e.e.g.e.e.e.e.e.e.t.r.r.t.t.e.g.e.g.g.g.g.f.q.2.",
") 1.q.e.e.q.q.q.q.q.q.7.9.t.e.t.e.j.e.e.e.t.g.t.g.g.j.e.j.e.g.j.e.e.e.t.g.t.g.g.e.e.e.e.e.e.e.e.9.t.r.r.r.r.7.e.g.g.q.q.g.g.2.#.",
"#.1.q.e.e.e.g.2.q.e.e.9.r.e.t.t.e.e.g.g.e.g.g.g.e.j.g.g.t.g.g.t.e.j.j.e.g.g.g.t.j.e.e.e.e.e.e.e.e.e.t.r.r.r.e.g.g.g.g.g.g.f.q.#.",
"#.1.q.e.e.e.q.g.e.e.9.r.r.r.r.9.e.g.g.e.e.g.e.g.g.g.j.g.j.e.g.g.j.e.g.g.j.j.e.e.t.g.e.e.e.e.t.e.t.t.t.t.9.w.g.g.g.g.g.e.q.q.2.*.",
":.2.e.e.e.e.g.g.e.e.9.9.9.r.t.t.e.e.g.g.g.g.g.g.j.g.j.g.g.g.j.g.e.j.e.t.e.e.e.j.g.e.g.e.e.e.e.e.e.e.9.9.e.e.g.g.s.f.q.e.e.s.2.:.",
"O.2.g.g.q.e.e.e.e.e.t.r.r.r.9.e.e.g.g.e.g.e.g.g.g.j.e.g.g.j.g.j.g.t.j.e.e.e.e.j.e.e.e.e.e.e.e.e.e.e.e.e.e.e.g.f.s.g.g.q.w.w.5.O.",
"P @.f.g.e.e.e.e.e.9.9.9.r.r.e.e.e.g.g.g.g.g.e.g.g.g.g.j.g.j.g.g.g.g.e.e.j.j.e.e.j.e.e.g.t.g.e.e.9.e.9.e.e.e.2.f.f.q.g.e.w.h.<.I "
};
