/* XPM */
static char *result[] = {
/* columns rows colors chars-per-pixel */
"64 64 166 2 ",
"   c #0E071B",
".  c #0F081B",
"X  c #140B1D",
"o  c #29141F",
"O  c #1D1121",
"+  c #12172F",
"@  c #291521",
"#  c #261923",
"$  c #2C1B27",
"%  c #341C25",
"&  c #3C1E24",
"*  c #122832",
"=  c #12323A",
"-  c #2E212B",
";  c #332123",
":  c #3C2127",
">  c #31252F",
",  c #3D252E",
"<  c #3B2A31",
"1  c #452324",
"2  c #4D2526",
"3  c #45282A",
"4  c #4B2E2C",
"5  c #542927",
"6  c #5C2C29",
"7  c #4F322A",
"8  c #56352C",
"9  c #4F2E33",
"0  c #493539",
"q  c #5B3635",
"w  c #513A3F",
"e  c #60302D",
"r  c #643632",
"t  c #663935",
"y  c #693D3A",
"u  c #6C413E",
"i  c #694938",
"p  c #724A32",
"a  c #784F33",
"s  c #7F5939",
"d  c #1D2D43",
"f  c #183856",
"g  c #15544D",
"h  c #17594E",
"j  c #1E6F50",
"k  c #21754F",
"l  c #3A635A",
"z  c #0C446B",
"x  c #554243",
"c  c #504F4C",
"v  c #6D4341",
"b  c #704643",
"n  c #755543",
"m  c #7A5B4A",
"M  c #586D62",
"N  c #557464",
"B  c #747A6A",
"V  c #855939",
"C  c #8A5B38",
"Z  c #905F3B",
"A  c #8D613E",
"S  c #9A683D",
"D  c #A46F3F",
"F  c #A7703E",
"G  c #AC733F",
"H  c #8A6242",
"J  c #86644F",
"K  c #8D6952",
"L  c #936E55",
"P  c #92725E",
"I  c #A36E40",
"U  c #AB7341",
"Y  c #B57845",
"T  c #B87C47",
"R  c #A67D5D",
"E  c #2D8C4D",
"W  c #33984B",
"Q  c #DE8C3D",
"!  c #E08D3E",
"~  c #BE8047",
"^  c #B38154",
"/  c #A1816A",
"(  c #AE896C",
")  c #B78A64",
"_  c #A98973",
"`  c #B8967B",
"'  c #C28347",
"]  c #C9884B",
"[  c #D18E4F",
"{  c #D4904E",
"}  c #D9934F",
"|  c #C28655",
" . c #D88D55",
".. c #D99450",
"X. c #D89459",
"o. c #E88C42",
"O. c #EA8D4B",
"+. c #E59445",
"@. c #E89546",
"#. c #E49549",
"$. c #EA954A",
"%. c #E6994C",
"&. c #EC9A4B",
"*. c #F09D4E",
"=. c #E18D52",
"-. c #E59B55",
";. c #EC9E54",
":. c #E59959",
">. c #F39E51",
",. c #F39C59",
"<. c #F4A04F",
"1. c #EFA156",
"2. c #EEA15A",
"3. c #F4A354",
"4. c #F9A557",
"5. c #F5AC54",
"6. c #FBAE56",
"7. c #F4A55A",
"8. c #FBA659",
"9. c #F6A95B",
"0. c #FEAD5D",
"q. c #F9B156",
"w. c #FCB15A",
"e. c #CD9B6E",
"r. c #D49D67",
"t. c #E19C62",
"y. c #D0A37B",
"u. c #E9A669",
"i. c #F4A664",
"p. c #FCA760",
"a. c #F4AA63",
"s. c #FFAD61",
"d. c #F4AB69",
"f. c #FEAE69",
"g. c #FFB162",
"h. c #FCB26B",
"j. c #0B5986",
"k. c #035C93",
"l. c #02639F",
"z. c #0A7C9E",
"x. c #0368A3",
"c. c #14848C",
"v. c #0D869F",
"b. c #0F899E",
"n. c #16979D",
"m. c #64979E",
"M. c #5C90A3",
"N. c #4192B3",
"B. c #0886C3",
"V. c #008BCE",
"C. c #098DCA",
"Z. c #0096D9",
"A. c #0098DC",
"S. c #A29B80",
"D. c #89A49E",
"F. c #B3A586",
"G. c #BFB38B",
"H. c #C6A284",
"J. c #D6AD88",
"K. c #C1B58B",
"L. c #C5BD8A",
"P. c #DFB48C",
"I. c #E0B083",
"U. c #E4BB95",
"Y. c #F1C69C",
"T. c #F6CA9F",
/* pixels */
"^ X.u.i.s.0.8.6.0.w.s.h.f.f.s.s.s.s.s.0.s.p.s.s.s.s.s.p.s.s.0.p.0.0.0.0.0.w.s.0.0.0.s.0.0.w.s.0.0.0.w.0.w.0.w.w.0.0.s.g.s.i.:.| ",
"r.u.d.i.s.0.0.0.0.0.0.f.s.f.h.s.s.0.s.s.0.s.s.s.s.0.0.s.s.0.s.s.s.0.0.s.0.s.0.0.0.s.0.0.s.s.0.0.0.0.0.w.9.w.0.w.w.0.w.0.f.i.u.u.",
"u.d.f.s.s.0.0.0.w.w.s.s.g.f.s.s.s.s.s.p.s.0.s.8.0.s.s.s.p.s.s.s.0.0.0.0.0.s.0.s.0.w.0.0.0.0.0.0.0.0.0.w.w.0.w.a.w.0.0.0.0.f.p.d.",
"h.f.f.s.s.s.0.w.w.s.g.f.s.s.s.s.s.s.0.s.s.s.s.s.p.s.0.s.s.0.s.0.s.0.0.0.0.w.0.0.0.0.0.0.0.0.s.w.0.6.0.0.0.w.w.w.0.w.0.0.0.8.s.s.",
"h.h.s.s.0.0.s.0.g.0.0.g.s.s.s.s.s.s.s.0.s.0.s.s.s.s.s.0.s.s.s.s.s.s.0.s.s.0.0.0.0.0.0.0.0.0.0.0.0.w.6.w.0.0.w.s.w.s.s.0.0.8.0.0.",
"g.h.g.s.0.s.0.0.0.g.s.s.s.s.0.s.s.s.s.s.s.s.p.0.0.s.s.s.s.p.s.p.0.w.0.0.0.0.0.g.0.0.0.0.s.0.0.0.0.0.0.0.0.w.0.0.s.0.s.0.8.8.8.8.",
"g.w.s.s.s.4.3.3.8.0.0.s.0.s.s.s.s.8.s.8.0.8.s.s.s.0.s.0.0.s.0.0.s.0.0.0.s.0.0.0.4.&.*.3.w.s.w.s.0.0.0.0.0.0.0.0.w.s.s.s.0.8.8.0.",
"0.0.0.0.0.3.@.&.4.8.0.0.g.s.0.s.s.s.s.s.s.s.0.s.s.s.p.s.s.s.s.s.s.0.0.s.w.0.0.0.3.+.! 3.0.s.s.0.0.0.8.0.0.0.s.0.0.s.0.s.s.s.s.0.",
"0.0.0.0.0.4.>.*.*.>.4.0.8.0.8.s.s.s.s.p.s.0.p.s.0.s.0.s.s.0.s.0.0.s.0.s.0.0.0.s.4.*.&.&.<.3.w.s.s.s.p.p.s.p.0.0.0.0.0.s.s.s.s.s.",
"6.0.0.0.0.0.8.>.@.@.4.8.8.0.0.s.8.s.0.0.8.s.0.s.s.s.s.s.s.s.s.s.0.w.0.0.0.0.0.0.0.9.3.+.! *.s.0.s.p.s.p.p.s.0.0.0.0.0.s.s.s.s.s.",
"8.0.0.0.0.0.s.4.*.*.4.0.8.0.8.s.s.0.s.0.s.0.8.0.0.p.s.0.0.0.0.s.0.s.0.0.0.g.0.0.s.0.4.*.@.3.g.0.0.p.p.f.s.s.s.0.0.0.0.0.s.s.s.0.",
"s.g.0.s.0.0.s.8.4.8.0.s.p.8.8.0.s.s.8.0.0.0.s.s.0.0.0.0.s.0.s.0.0.w.0.s.0.0.0.0.w.w.0.4.3.8.g.s.s.s.p.f.f.s.0.8.0.6.8.0.s.p.0.0.",
"s.g.w.0.s.0.s.0.0.p.s.g.s.0.s.0.s.s.0.0.0.0.0.0.0.0.0.0.s.0.0.s.0.s.s.w.s.0.0.g.s.s.g.0.0.0.s.s.s.s.s.s.f.s.0.0.0.0.0.s.s.s.0.0.",
"h.a.a.s.s.8.8.0.8.0.s.g.s.9.9.s.8.s.8.s.0.0.0.0.0.s.0.0.0.0.0.w.0.0.0.0.0.0.0.s.0.0.0.0.0.0.w.s.s.s.f.s.s.s.0.0.0.0.0.0.s.0.0.8.",
"h.a.g.w.s.8.8.8.8.0.s.g.g.s.s.0.0.s.0.8.8.0.0.0.s.0.s.0.0.0.0.0.0.s.s.0.0.0.0.0.0.0.0.0.0.s.0.s.s.s.s.s.g.s.8.4.6.0.0.s.0.0.0.0.",
"s.g.a.s.s.s.8.8.0.0.0.s.s.9.0.0.0.g.9.3.&.8.s.w.0.0.0.0.s.w.s.0.0.w.0.0.s.0.w.s.0.g.0.0.0.0.w.s.s.s.s.s.s.9.<.&.3.0.s.w.0.0.0.0.",
"s.s.s.0.8.8.s.p.s.8.s.s.0.0.0.8.g.g.7.#.+.3.w.s.0.0.w.0.s.0.0.0.w.0.s.0.w.0.0.s.0.0.0.0.s.0.0.0.s.s.0.s.0.4.$.Q &.0.s.0.s.0.0.w.",
"s.s.s.0.s.s.8.0.s.s.s.0.0.8.0.8.3.1.<.&.3.5.s.0.0.0.0.0.0.0.0.0.s.0.0.0.s.0.0.0.w.0.s.0.0.s.w.0.0.0.0.8.3.&.&.&.7.s.w.s.0.0.0.s.",
"0.s.0.s.0.0.s.s.0.8.s.0.0.0.8.8.&.Q +.7.0.0.g.0.0.0.0.0.0.0.g.0.0.s.0.0.s.0.0.0.s.0.s.0.0.0.0.s.0.s.0.3.@.Q &.8.0.w.0.0.w.0.0.0.",
"s.0.s.8.8.p.s.8.s.0.0.8.0.0.0.0.3.%.<.6.g.s.w.0.0.0.0.-.V V V V V V V V [ 0.0.0.0.s.w.s.0.0.0.0.0.0.0.8.*.&.3.0.0.0.0.0.s.0.0.s.",
"s.s.p.s.s.0.s.8.p.0.0.0.0.0.0.0.0.9.0.w.w.0.0.0.0.0.-.C % , , & % , , & p  .0.0.0.0.g.0.0.0.s.s.0.s.0.0.8.9.0.g.w.0.0.s.0.0.0.0.",
"s.8.0.8.s.p.s.s.s.0.0.0.0.0.0.0.w.g.g.w.w.0.0.0.0.7.a : r b b y t b b t 3 7 -.0.0.0.0.0.0.0.0.w.0.0.g.s.s.w.w.g.s.0.0.0.s.0.s.0.",
"s.8.0.0.s.p.s.8.0.0.8.0.0.0.0.0.s.0.0.0.0.0.6.0.8.% 1 t b b b b b b b b y 5 X -.s.w.0.0.0.0.0.0.0.0.g.s.g.g.0.0.s.0.w.s.s.0.w.s.",
"p.0.8.0.s.0.s.s.s.0.0.0.0.0.0.g.0.0.0.8.6.6.0.8.8.% 9 v b b b t t b b b v q O -.0.s.0.0.g.0.0.0.0.s.0.w.g.0.0.0.0.0.0.0.0.0.0.0.",
"0.8.0.0.0.0.0.0.0.0.0.0.0.0.0.0.0.8.0.8.0.6.6.3.I 1 r b b b t e e t v b b u : Z 2.0.0.0.0.s.0.s.0.0.0.g.s.s.0.0.0.0.0.0.s.0.0.0.",
"8.0.0.0.s.0.0.0.0.0.0.0.0.0.0.0.0.0.0.0.0.8.8.} O q u b b y e 5 2 6 u b b v r @ T 0.0.0.s.w.0.s.s.0.0.0.0.w.0.s.w.s.s.w.0.0.0.g.",
"0.0.0.0.0.0.0.0.0.8.0.0.0.8.0.0.0.8.0.0.0.6.6.} O u b b u 6 6 & % 5 u b b b b $ T 0.s.s.0.0.s.w.0.0.0.0.0.w.0.0.s.0.0.0.0.s.0.0.",
"0.0.0.0.0.0.0.0.0.0.0.0.0.0.0.0.0.0.0.6.6.0.0.} O v b b y 6 o n J O 5 y b b b $ T 0.0.w.0.0.0.0.s.w.0.0.s.s.0.0.0.0.s.0.w.0.0.0.",
"0.0.0.0.0.0.0.0.0.0.0.8.0.0.0.0.0.0.0.6.8.0.0.} X q r 4 $ @ n R ) J : $ 3 t r @ T s.0.0.0.0.s.0.0.0.0.0.0.0.0.s.0.0.0.0.s.0.s.0.",
"0.0.0.0.0.0.8.0.0.0.0.0.0.0.0.0.0.0.0.6.0.0.0.3.S 1 & 4 0   ( I.I.y.> 3 9 & & C -.0.0.0.w.0.0.0.0.s.w.0.0.0.s.w.0.s.0.0.0.0.0.0.",
"0.0.0.0.0.0.0.0.0.0.0.0.0.0.0.8.0.0.0.0.6.6.8.0.8.; # m R . y.T.T.U.> J L # . -.0.0.0.0.s.s.s.0.0.0.s.s.0.0.0.0.w.s.w.s.0.0.w.s.",
"0.0.0.0.0.0.0.0.8.0.0.0.0.0.0.0.0.0.8.0.0.0.0.0.8.; K e.R . F.Y.T.U.> J e.( O -.s.w.s.0.0.0.w.0.s.0.0.0.g.0.0.0.s.0.s.0.0.0.s.0.",
"0.0.0.0.0.0.0.0.0.0.0.0.0.0.0.0.0.0.0.0.0.8.0.6.0.2.s P P.` U.T.T.Y.` J.( i 2.w.s.0.0.s.0.s.s.0.0.s.0.s.w.s.s.0.0.0.s.0.s.0.0.0.",
"0.0.0.0.0.0.0.0.8.0.0.0.0.8.6.0.0.8.6.6.0.6.0.0.0.s.V x S.T.T.T.T.T.T.F.c 8 0.g.0.0.0.w.0.0.0.0.0.w.0.0.0.0.0.0.0.s.w.0.0.0.w.s.",
"w.0.0.0.0.0.0.8.0.0.0.0.0.6.8.0.0.0.0.0.6.0.0.0.w.7.p * l G.L.L.L.L.K.N = < -.s.s.0.0.0.0.s.w.0.0.0.0.0.0.0.0.s.w.0.0.0.0.s.s.0.",
"0.s.0.0.8.0.0.0.0.0.8.6.0.0.6.0.8.6.0.8.6.0.0.0.9.; X * g j E W W W k h = X X -.w.0.s.0.0.0.s.0.0.0.g.0.s.0.0.w.s.0.s.0.0.0.0.0.",
"0.0.0.0.0.0.0.0.0.0.8.0.8.0.0.0.0.0.0.6.8.0.0.;.i ` H.B g j k E W W k h M H.H.s [ 0.0.0.0.g.0.0.0.0.w.s.0.s.s.0.0.s.0.0.w.0.s.0.",
"0.0.0.0.0.0.0.0.0.6.0.0.6.0.0.6.0.6.0.8.6.0.6.} > U.T.D.z.v.v.c.c.n.b.z.m.T.T.x T 0.s.0.0.0.0.s.s.0.0.0.0.0.0.0.0.0.0.s.s.0.0.0.",
"0.0.0.0.0.8.0.0.0.8.6.0.6.0.6.0.8.6.0.0.6.0.0.1.A / _ M.A.A.V.l.k.V.Z.A.N._ _ H -.0.w.s.0.0.0.0.w.0.0.0.0.g.0.0.w.s.s.w.0.0.0.0.",
"0.0.0.0.0.0.0.0.0.6.0.0.0.0.8.0.0.0.0.6.0.0.6.0.4.7 X z C.C.x.f d l.B.C.j.. # -.0.0.s.0.0.0.0.s.s.0.0.s.0.0.0.0.0.0.0.0.0.0.0.g.",
"0.0.0.0.8.0.0.0.0.0.0.0.0.6.0.0.0.6.0.0.6.6.8.8...] 8 - w w * V S + 0 w < % ~ ..9.0.0.0.0.0.0.w.0.0.0.0.s.0.0.0.s.0.s.0.0.0.s.0.",
"0.8.0.0.0.0.0.0.0.0.6.8.0.0.w.g.w.0.w.0.8.4.3.4.} } ~ F G G D ' ] D U U I U [ ..1.9.3.8.0.0.0.0.0.0.0.0.0.0.0.s.0.0.0.0.0.0.0.0.",
"0.8.0.6.0.0.6.0.6.8.0.0.6.w.g.g.g.g.0.8.3.&.&.3.2.} ....{ { } } ........} } } 2.3.&.&.3.8.8.0.w.s.0.0.0.0.0.0.0.0.0.0.0.0.0.0.0.",
"0.6.0.0.6.0.8.6.0.0.6.0.8.0.0.g.g.g.9.3.*.@.&.3.s.-.-.-.-.-.-.-.-.-.-.-.-.-.-.0.8.*.&.<.3.8.0.0.0.0.0.0.0.0.8.0.0.0.0.0.w.0.0.s.",
"0.0.0.0.0.6.0.0.0.6.0.8.0.0.0.w.0.w.3.&.&.<.3.6.s.0.0.0.w.0.s.0.0.0.0.0.0.0.w.s.0.4.3.&.@.<.0.8.8.8.0.0.0.0.0.0.0.0.0.0.s.0.0.0.",
"0.8.6.6.8.0.0.6.0.0.0.6.0.0.8.8.0.0.3.@.@.3.0.0.0.0.w.s.s.0.0.0.0.0.0.s.0.s.0.0.w.0.8.&.@.&.9.8.8.8.0.0.0.0.8.0.0.0.0.0.s.0.s.0.",
"6.0.0.0.0.0.8.0.6.8.0.0.6.0.0.4.0.0.8.3.3.0.g.0.0.0.0.0.0.s.s.0.0.0.0.s.w.0.0.0.s.w.0.3.3.4.s.8.8.8.9.0.0.0.0.0.0.0.0.0.s.0.0.w.",
"0.0.8.0.0.0.6.0.0.0.6.8.6.0.8.8.0.g.g.0.g.w.h.g.s.w.s.0.0.0.w.0.s.0.0.w.s.0.s.0.0.s.s.0.8.w.g.0.9.8.0.0.0.s.8.0.8.0.0.0.0.0.0.s.",
"0.0.0.0.0.8.0.0.0.6.0.0.9.0.6.8.0.w.s.0.0.g.h.0.0.0.0.0.0.0.0.s.s.s.0.0.0.0.0.0.0.0.0.0.8.0.g.0.0.6.8.0.0.0.0.s.0.0.0.0.s.0.s.0.",
"0.0.0.8.0.0.6.8.0.0.0.0.w.0.8.4.8.s.s.0.0.0.w.0.0.0.0.0.s.0.0.0.0.w.0.0.0.0.0.g.0.4.4.4.9.0.g.0.0.0.0.0.0.0.0.8.0.8.0.0.0.s.s.s.",
"s.0.w.0.0.0.6.8.<.3.9.g.a.s.0.0.0.w.g.0.0.s.0.0.0.0.0.w.s.0.0.0.0.0.0.s.s.w.0.0.0.8.8.8.0.0.s.0.0.0.s.s.s.s.4.>.8.8.0.s.0.s.0.s.",
"h.g.g.g.g.8.8.*.+.&.9.g.g.8.0.0.s.0.0.s.s.w.s.0.0.g.s.s.w.0.g.s.0.g.s.w.s.s.0.0.w.0.0.0.0.0.0.0.0.s.s.a.h.f.;.+.>.0.0.8.8.8.s.f.",
"s.g.s.w.g.0.8.4.&.%.1.4.9.0.s.s.s.w.s.s.s.s.g.0.g.0.0.g.0.0.w.s.0.0.g.0.g.0.w.s.0.0.0.0.0.0.8.0.s.a.0.a.9.7.&.&.3.0.0.0.p.s.a.h.",
"s.s.g.g.g.s.0.8.5.<.#.} 1.9.0.s.0.g.s.w.0.w.0.0.g.0.0.g.0.g.s.s.g.0.g.0.0.0.s.0.0.0.0.0.0.0.0.0.0.0.a.7.%.} 1.8.8.s.s.s.f.s.s.h.",
"s.s.g.g.g.s.0.0.8.3.#.+.1.0.9.h.s.s.w.s.g.0.0.g.0.0.0.0.w.s.w.w.0.g.0.0.0.g.s.w.s.0.0.0.0.0.0.0.0.w.a.1.%.+.1.g.f.s.s.f.s.f.h.f.",
"0.0.0.0.w.0.0.0.0.0.7.3.4.9.0.0.w.s.s.s.s.w.0.g.0.g.g.0.s.s.s.s.0.0.0.g.0.g.s.0.0.0.0.0.0.0.0.8.0.9.w.6.5.5.9.g.s.s.s.s.s.s.f.f.",
"0.0.w.0.0.0.p.8.s.s.w.w.s.0.0.w.s.w.s.s.s.w.s.s.0.0.0.g.s.w.w.s.g.0.s.w.s.0.0.0.0.0.0.0.0.0.0.0.0.w.q.w.w.w.w.g.0.s.s.s.s.s.f.f.",
"*.4.0.8.0.0.8.s.8.0.8.6.0.w.w.0.s.w.s.w.s.s.w.0.g.g.0.0.s.s.s.s.g.0.s.w.s.g.g.0.0.s.w.s.0.0.0.0.0.w.q.q.w.w.w.0.0.s.0.s.p.s.p.,.",
"o.*.8.0.8.0.8.8.8.8.8.6.6.w.0.w.0.s.0.s.s.g.0.0.0.0.g.0.0.g.s.w.0.s.s.s.0.g.0.0.0.0.0.0.0.0.0.8.0.q.q.q.q.q.0.0.0.p.s.s.s.s.,.O.",
"O.>.0.0.0.8.p.p.s.8.0.6.q.0.w.w.0.s.0.0.0.0.s.g.s.g.0.g.0.s.0.g.w.s.w.s.0.0.0.g.s.w.0.s.0.0.0.0.0.w.w.q.q.q.8.s.s.p.p.0.s.s.,.O.",
"O.>.8.0.0.0.0.8.8.0.q.q.q.q.q.9.0.s.s.s.s.s.s.s.s.s.g.s.g.s.s.0.s.s.s.w.g.g.0.0.0.0.0.0.0.0.w.0.0.w.w.w.w.0.0.s.f.s.p.0.0.8.7.O.",
"=.,.s.0.0.0.0.s.0.0.6.q.q.6.w.w.0.s.0.s.s.0.s.s.g.0.g.s.s.s.g.s.g.w.s.s.0.0.0.g.g.0.0.0.0.0.0.0.0.9.9.w.8.0.p.s.p.p.p.0.8.8.7...",
" .t.s.s.8.0.0.8.0.0.6.6.q.q.w.0.0.s.s.s.0.s.0.s.0.g.s.s.s.g.s.g.s.0.s.s.0.0.w.s.0.0.0.s.0.0.0.0.0.0.w.0.0.0.p.f.p.f.0.8.8.s.t. .",
"Y X.f.s.0.0.0.0.0.0.q.6.6.6.w.0.0.s.0.s.0.s.s.s.s.s.s.g.s.g.s.s.s.w.w.0.g.g.0.s.g.0.0.0.w.0.0.0.0.0.6.6.0.0.8.p.p.p.s.8.s.i.:.~ "
};
