/* XPM */
static char *result[] = {
/* columns rows colors chars-per-pixel */
"64 64 163 2 ",
"   c #0E0B1D",
".  c #120B1E",
"X  c #1A0E1E",
"o  c #0E0E25",
"O  c #0F1927",
"+  c #1D1222",
"@  c #2A1521",
"#  c #261822",
"$  c #2B1B22",
"%  c #351B23",
"&  c #381E25",
"*  c #23222D",
"=  c #2B262F",
"-  c #36262D",
";  c #3D242C",
":  c #312837",
">  c #442226",
",  c #4B2527",
"<  c #45292B",
"1  c #4A282A",
"2  c #4E2C2F",
"3  c #562927",
"4  c #542D2C",
"5  c #5C2E2B",
"6  c #563429",
"7  c #482E31",
"8  c #493639",
"9  c #523236",
"0  c #5D3332",
"q  c #533738",
"w  c #513A3F",
"e  c #60302C",
"r  c #643532",
"t  c #673A36",
"y  c #683B37",
"u  c #6A3E3B",
"i  c #5B433A",
"p  c #694536",
"a  c #6C413E",
"s  c #724A32",
"d  c #7A5134",
"f  c #0C2B4A",
"g  c #4E3D40",
"h  c #513F40",
"j  c #144748",
"k  c #21754F",
"l  c #257D4E",
"z  c #276E53",
"x  c #316E57",
"c  c #207250",
"v  c #0F466F",
"b  c #5A4542",
"n  c #49514E",
"m  c #6E4441",
"M  c #624B45",
"N  c #704643",
"B  c #755443",
"V  c #795A4B",
"C  c #4B625A",
"Z  c #73605A",
"A  c #7D645A",
"S  c #4B6C60",
"D  c #5A7866",
"F  c #727170",
"G  c #815637",
"H  c #835838",
"J  c #8A5E38",
"K  c #92613A",
"L  c #A36E3F",
"P  c #A7703F",
"I  c #AB723F",
"U  c #9C6C46",
"Y  c #886956",
"T  c #AB7342",
"R  c #B47446",
"E  c #B27944",
"W  c #BA7D46",
"Q  c #907565",
"!  c #29854D",
"~  c #32964B",
"^  c #33984B",
"/  c #4B8260",
"(  c #779470",
")  c #DE8C3D",
"_  c #E08D3E",
"`  c #BF8148",
"'  c #B38154",
"]  c #8E9E79",
"[  c #A2836F",
"{  c #B28763",
"}  c #BB8E67",
"|  c #92A578",
" . c #98B277",
".. c #C4844A",
"X. c #CD8C4D",
"o. c #D38F4E",
"O. c #D8934F",
"+. c #C28655",
"@. c #D88D55",
"#. c #D99450",
"$. c #D8955D",
"%. c #EA8D4B",
"&. c #E59445",
"*. c #E89546",
"=. c #E49549",
"-. c #EA954A",
";. c #E6994C",
":. c #EC9A4B",
">. c #F09D4E",
",. c #E18D52",
"<. c #E49B54",
"1. c #ED9E53",
"2. c #E59959",
"3. c #F39E51",
"4. c #F39C59",
"5. c #F4A04F",
"6. c #EEA155",
"7. c #EDA15C",
"8. c #F4A354",
"9. c #F9A557",
"0. c #F5AC54",
"q. c #FBAE56",
"w. c #F3A559",
"e. c #FBA659",
"r. c #F7A95B",
"t. c #FEAC5D",
"y. c #F9B156",
"u. c #FCB15A",
"i. c #CE9C6F",
"p. c #D49D67",
"a. c #D3A275",
"s. c #E9A669",
"d. c #F4A664",
"f. c #FCA760",
"g. c #F4AA63",
"h. c #FFAD61",
"j. c #F4AB69",
"k. c #FEAE69",
"l. c #FFB162",
"z. c #FCB26B",
"x. c #044F83",
"c. c #075589",
"v. c #157E84",
"b. c #0A75AA",
"n. c #0473B1",
"m. c #057EB9",
"M. c #0E869D",
"N. c #168F93",
"B. c #12909E",
"V. c #218EA6",
"C. c #3496AD",
"Z. c #6D9FAE",
"A. c #0180C1",
"S. c #098DCA",
"D. c #0092D6",
"F. c #0098DC",
"G. c #69ADC0",
"H. c #B4A587",
"J. c #D1AF8D",
"K. c #E9BA8E",
"L. c #ECC299",
"P. c #F2C69C",
"I. c #F6CA9F",
/* pixels */
"' $.s.d.h.t.e.t.q.t.h.l.k.k.h.h.h.h.h.h.t.h.h.h.t.h.t.h.h.h.f.h.t.t.t.t.h.t.t.t.t.t.t.h.u.h.t.t.t.u.t.t.t.u.t.u.t.u.u.k.h.d.2.+.",
"p.s.j.f.h.h.t.t.u.t.h.k.k.k.h.k.h.t.h.f.h.h.h.t.h.f.h.h.t.h.h.t.h.t.t.t.t.t.t.l.h.h.t.t.t.t.t.h.h.t.t.u.t.t.y.t.u.t.t.t.h.j.d.p.",
"s.j.j.h.h.t.t.t.t.h.l.l.k.h.h.l.h.h.h.h.t.t.f.h.h.t.t.h.t.h.f.t.t.t.t.t.h.t.t.t.t.u.t.t.t.t.t.t.t.t.t.u.u.u.u.u.t.u.t.t.t.h.k.g.",
"z.k.k.h.h.h.u.u.u.u.h.h.t.k.h.h.h.t.h.t.h.h.h.h.h.h.f.h.h.h.h.h.h.t.t.h.u.t.t.t.t.t.t.t.t.h.t.u.t.t.q.t.t.u.h.g.u.t.t.t.e.t.t.k.",
"z.z.h.h.h.t.h.t.h.u.t.h.h.h.h.h.h.t.h.h.h.h.f.h.t.h.h.f.h.t.h.h.l.t.t.t.h.t.t.h.t.t.t.t.h.t.t.t.u.t.t.u.t.t.u.u.u.t.h.t.h.e.t.t.",
"z.z.l.h.t.h.t.t.h.h.l.l.h.h.t.h.h.t.h.f.h.t.h.t.h.h.h.t.h.h.t.h.t.t.t.t.t.t.t.t.t.t.t.t.t.t.t.t.q.t.e.t.t.u.t.t.h.f.h.t.e.e.e.e.",
"u.u.h.t.h.9.8.8.e.t.t.h.h.t.h.h.h.h.h.t.e.h.h.h.t.h.h.h.h.h.f.h.h.t.l.t.t.t.u.h.9.:.:.9.t.u.u.h.t.t.t.t.t.t.t.h.h.t.h.h.t.e.t.t.",
"t.t.t.t.t.8.&.:.9.e.t.t.h.l.h.t.h.f.t.f.t.h.t.h.f.h.t.h.t.h.h.t.t.t.t.t.t.h.t.t.8.&._ 8.h.h.h.t.t.t.t.t.t.t.t.t.u.t.t.h.h.h.h.t.",
"t.t.t.u.t.8.3.3.>.3.e.t.t.t.t.h.t.h.t.h.t.h.f.h.h.h.h.h.t.h.t.h.h.t.l.t.t.t.t.h.9.:.;.:.5.9.u.h.h.f.h.f.f.t.t.t.h.t.t.h.t.h.h.h.",
"e.t.t.t.t.t.e.3.*.-.8.e.e.e.e.t.t.h.f.t.h.e.t.h.t.h.t.h.h.h.h.h.t.t.t.t.h.h.t.t.t.t.8.*.) >.h.t.h.f.k.f.h.h.t.t.t.t.t.h.h.h.h.h.",
"t.t.t.t.h.t.h.8.>.>.9.t.t.e.t.h.t.f.f.f.h.e.h.h.t.h.h.t.t.h.t.h.t.t.t.t.t.u.h.t.t.t.9.>.&.8.h.t.h.h.k.f.f.h.h.t.t.q.e.h.h.h.h.e.",
"h.u.t.t.t.h.h.e.8.e.t.h.f.e.e.t.h.t.t.t.t.t.t.t.t.t.t.t.t.t.t.t.t.l.t.t.t.t.t.h.l.u.t.9.9.e.l.t.h.h.h.f.k.h.t.t.t.t.t.t.t.h.h.h.",
"k.l.l.u.h.h.t.t.t.f.h.l.h.t.t.h.f.t.t.t.t.t.t.t.t.t.t.t.t.t.t.t.t.t.u.h.t.t.h.u.t.h.l.t.t.t.t.l.h.h.h.h.h.h.t.e.t.t.t.t.h.h.t.t.",
"h.g.g.h.h.e.e.t.t.t.h.l.h.r.g.t.t.t.t.t.t.t.t.t.t.h.t.t.t.h.t.l.t.t.t.t.t.h.t.t.t.t.t.t.t.t.l.h.t.h.h.k.k.h.h.t.t.t.t.h.h.t.t.e.",
"z.g.l.g.h.e.e.e.e.t.t.l.l.r.t.t.h.h.t.e.e.t.t.t.h.t.h.t.h.t.t.t.h.t.t.h.t.h.u.t.t.t.t.t.t.t.t.t.k.h.h.h.h.t.e.9.q.t.t.h.t.t.t.t.",
"h.h.l.u.h.h.e.e.t.e.h.h.h.t.t.t.t.l.r.8.:.e.t.t.t.t.t.t.u.t.t.t.u.h.t.t.t.t.h.t.u.h.t.h.t.t.l.t.h.h.h.f.h.t.5.:.8.t.h.u.t.t.t.t.",
"h.h.f.h.t.f.e.h.h.e.h.h.t.t.t.e.l.l.r.=.&.8.u.t.t.t.h.t.t.t.t.t.t.t.t.t.t.t.t.h.h.u.t.t.t.t.t.t.t.t.h.t.t.r.*.) :.t.t.t.t.t.t.t.",
"h.h.t.h.t.t.e.h.t.f.h.t.t.t.e.t.8.6.:.:.8.e.l.t.t.t.t.t.t.r.e.r.e.r.e.r.h.t.t.t.t.h.t.t.t.l.t.t.t.t.h.e.5.:.:.:.9.h.l.t.h.t.h.u.",
"h.t.t.h.f.h.h.e.h.t.t.t.t.t.t.e.:.) &.0.t.t.u.h.h.t.t.s $ $ $ $ $ $ $ $ w.t.t.t.t.t.t.t.t.t.h.t.h.t.t.8.&._ :.e.t.t.u.t.t.t.t.t.",
"t.h.h.e.t.e.h.h.h.e.t.t.e.t.e.t.8.;.5.t.l.l.t.t.u.r.d 3 2 9 9 > 2 q 9 > s <.t.t.h.t.t.l.t.t.t.t.t.t.t.e.:.:.9.t.t.t.h.t.u.h.t.t.",
"h.h.h.e.t.t.e.h.t.e.h.t.t.t.t.t.t.t.u.l.u.t.t.t.6.L % 0 a N a t a N m t > H <.t.t.u.h.t.t.h.t.h.t.h.h.h.e.t.t.l.u.t.t.t.h.h.t.t.",
"h.e.h.t.f.h.h.h.h.h.h.t.t.t.t.t.t.l.l.u.t.t.t.t.` # e m N N a a m N N N r - G t.t.t.t.h.t.t.t.u.t.t.u.t.u.t.l.l.h.t.h.t.t.t.t.t.",
"e.h.t.f.t.f.e.h.t.e.t.t.t.t.t.h.t.t.e.t.t.t.q.t.` $ N N N N a e u N N N N ; d t.t.t.t.t.h.t.t.t.t.h.u.l.h.u.h.t.t.t.h.t.t.t.l.t.",
"h.e.e.t.h.t.h.h.t.t.t.t.t.t.h.u.t.t.q.t.q.e.q.I 6 5 N N N a e e e y N N N 0 4 d t.l.t.t.u.h.t.t.t.t.h.h.l.h.t.t.t.h.u.h.t.t.t.t.",
"t.t.t.t.h.t.t.t.t.t.t.t.t.t.t.t.t.r.e.t.e.t.q.d ; u N N u e 3 % , t m N N m 7 # t.t.t.t.h.t.t.t.t.t.t.l.u.h.h.t.t.t.t.t.t.t.t.u.",
"t.e.e.t.t.t.t.t.t.t.t.t.t.e.t.t.t.t.t.t.q.t.e.d < N N N r 3 > 8 1 4 a m N N 9 # r.h.t.t.t.t.t.l.t.t.t.t.h.h.u.t.h.u.h.u.t.h.t.h.",
"t.t.t.t.t.t.t.t.e.t.t.t.t.t.t.t.t.t.t.t.t.q.q.d ; m a a 0 > - } i & 5 a m m 9 # r.u.t.t.t.t.t.t.l.t.t.t.t.t.t.t.t.t.t.h.u.t.t.h.",
"t.t.t.t.t.t.t.t.t.t.t.t.t.t.t.t.t.t.e.q.t.t.e.d % e 5 # + q } a.} B X + , 5 , # e.h.t.t.t.h.t.t.t.t.t.h.t.t.t.t.h.t.t.t.h.t.t.t.",
"t.t.t.t.h.t.t.t.t.t.t.t.t.t.t.t.t.t.t.q.e.t.t.6.K @ @ V < b K.K.K.Y # Y < @ p <.t.t.u.t.t.t.t.t.t.t.h.u.t.t.t.t.h.t.t.t.h.t.t.t.",
"t.t.t.t.t.t.t.t.t.t.t.t.t.e.t.e.t.t.t.t.t.t.q.t...# M } b M I.I.I.Q - i.V - G t.t.t.h.h.t.l.t.t.t.t.t.h.t.h.t.l.u.t.t.h.t.t.t.h.",
"t.t.t.t.t.t.t.t.t.t.e.t.t.t.t.t.t.t.t.q.q.t.q.t.o.p { i.V A I.I.I.[ b a.} B T t.t.h.h.u.t.t.h.t.u.t.t.t.t.t.t.h.h.t.h.t.t.h.u.h.",
"t.t.t.t.t.t.t.e.t.t.t.t.t.t.t.t.e.t.t.t.t.e.t.t.t.<.# J.L.P.I.I.I.P.L.P.h ` t.t.t.t.t.h.t.t.t.t.h.t.h.t.h.u.t.t.t.t.u.t.t.t.t.t.",
"t.t.t.e.t.t.t.t.t.t.t.t.t.t.t.t.t.t.t.t.t.t.t.u.t.1.. C H.I.I.I.I.I.J.D * ..l.h.t.h.u.t.t.t.t.l.t.t.t.t.t.t.t.u.h.t.t.t.t.t.t.t.",
"t.t.u.t.t.t.e.t.t.t.t.t.e.t.q.t.t.e.q.q.t.e.q.t.t.<.  j D |  . .| ] ( j O +.t.t.t.t.h.t.t.h.t.t.t.t.t.h.t.t.t.h.t.t.t.h.t.l.t.t.",
"t.t.t.t.t.t.t.t.t.q.e.t.t.q.e.t.t.q.t.t.q.t.e.t.e.o.8 C x ! ^ ^ ! k z S n T t.t.t.t.t.t.t.h.t.t.t.h.u.h.l.t.t.t.t.t.t.t.t.t.t.t.",
"t.h.t.t.t.t.t.t.t.e.t.q.t.t.q.t.t.t.t.e.q.t.q.t.` g I.I.( l ^ ~ ~ ! / P.P.A G t.t.t.l.t.t.u.h.t.t.t.t.t.t.t.t.t.h.t.u.h.t.h.u.h.",
"u.t.t.t.t.e.t.t.t.t.t.q.e.t.t.t.q.t.t.q.t.t.q.t.` g I.I.( c l ~ ^ ! / P.I.Y d h.u.h.t.t.t.h.t.t.t.u.t.t.t.h.l.t.t.t.l.t.t.t.u.h.",
"h.t.t.t.t.t.t.t.t.t.t.e.q.t.t.q.e.t.e.t.t.e.t.t.w.E Z Z.C.M.M.v.N.B.V.G.F U 2.h.t.t.h.t.t.h.u.t.t.h.t.h.t.t.t.t.t.t.t.t.h.t.t.t.",
"t.e.t.t.t.t.t.t.t.t.t.t.q.t.t.q.e.q.t.t.t.q.t.t.t.#.o m.F.D.A.x.n.D.F.F.f E t.t.h.t.h.u.t.t.h.t.h.t.t.u.u.t.h.t.t.t.t.t.l.t.h.t.",
"t.t.t.t.t.t.t.t.e.t.q.t.t.t.e.t.t.t.t.q.t.q.t.t.8.E o b.S.m.c.* v n.S.S.f J 6.t.t.t.t.t.h.t.t.t.t.t.t.h.h.t.t.t.u.h.t.t.t.t.t.t.",
"t.t.t.t.t.t.t.t.e.t.t.q.t.t.t.t.t.q.t.q.t.q.t.8.#.E   8 w : = W i = g g + J #.<.h.t.t.t.t.t.t.h.h.t.t.t.t.h.t.t.h.t.t.t.t.h.t.t.",
"t.t.t.e.t.t.q.t.q.t.t.t.e.q.t.l.u.t.t.t.9.9.9.;.O.X.L P I P T o.E P I T T ` #.#.t.9.9.e.t.t.t.u.t.t.t.t.t.t.t.t.t.t.h.t.t.t.t.t.",
"t.t.q.q.t.t.e.t.t.t.t.e.t.t.u.l.l.l.t.9.5.:.*.6.<.#.#.#.#.O.O.#.#.#.#.#.#.#.<.w.e.3.:.8.e.e.u.t.t.t.t.t.t.t.t.t.t.t.t.t.t.t.t.h.",
"e.t.t.t.q.q.t.t.q.t.t.q.t.t.u.l.l.l.t.8.>.:.;.8.t.<.<.<.1.<.<.<.<.<.<.<.<.<.w.u.9.:.:.:.8.9.t.t.t.t.t.t.t.t.h.e.t.t.t.t.h.t.t.t.",
"t.t.t.t.e.q.t.t.e.t.t.t.t.q.t.t.t.t.9.:.;.>.8.q.l.t.t.t.t.t.h.t.t.t.t.t.t.t.t.h.t.9.8.;.*.5.t.9.e.t.e.t.t.t.e.t.t.t.t.t.t.t.t.t.",
"t.e.q.q.t.t.e.q.q.t.q.t.t.t.t.e.t.e.w.*.:.9.t.e.t.t.t.t.t.h.u.t.t.t.t.h.t.h.t.t.t.t.r.:.&.>.t.e.e.e.t.t.t.t.t.t.t.t.t.t.u.h.t.h.",
"q.t.t.t.t.e.t.t.q.t.t.q.q.e.t.e.t.t.t.8.9.t.l.t.t.t.h.u.t.h.t.t.t.t.t.t.t.h.t.t.t.h.t.8.5.9.t.e.r.t.t.t.t.t.t.t.t.t.t.t.t.t.t.t.",
"t.e.t.t.t.t.q.t.t.t.e.t.t.t.e.e.t.u.u.t.l.u.z.l.t.h.t.t.t.t.t.t.t.h.t.t.t.u.h.t.t.u.h.t.t.t.l.t.e.e.e.t.t.h.e.t.e.t.t.t.t.h.h.u.",
"t.t.t.t.t.t.q.q.t.t.t.t.t.r.t.9.t.t.l.t.t.l.l.h.t.t.t.h.t.t.t.t.h.h.t.t.t.t.h.h.t.t.t.t.t.t.l.t.t.t.t.t.t.e.h.e.h.t.t.t.h.t.h.t.",
"t.t.t.t.t.t.e.t.q.t.t.t.t.t.t.9.e.t.t.t.t.t.u.h.t.t.u.t.t.t.t.l.t.u.t.t.t.t.t.u.t.9.9.9.e.t.h.t.t.e.t.t.t.t.t.t.e.t.t.t.t.h.h.h.",
"l.t.u.t.t.t.q.9.5.8.e.l.h.t.t.9.t.l.u.t.t.h.t.t.t.h.h.t.t.t.u.t.t.t.t.h.h.u.t.t.t.e.e.t.t.t.u.h.t.t.r.h.k.h.9.3.e.t.e.t.t.h.t.h.",
"l.l.h.l.t.t.e.3.*.:.r.l.g.r.h.u.t.h.h.t.t.u.h.t.t.h.u.h.l.h.h.t.t.l.h.u.h.h.t.t.t.t.t.t.e.t.e.t.t.t.g.l.l.k.1.&.3.t.t.t.e.e.h.k.",
"k.h.l.l.l.t.e.8.:.:.6.9.r.r.h.l.h.t.l.l.u.h.h.h.l.t.h.u.h.h.l.t.t.t.l.t.l.t.t.t.t.t.t.t.t.t.t.t.h.g.g.g.r.w.1.-.8.t.t.t.h.h.h.k.",
"h.l.h.l.l.t.t.e.9.>.=.&.6.t.t.l.l.t.t.t.h.h.u.u.l.t.h.u.t.l.t.t.l.t.l.t.t.t.l.t.u.t.t.t.t.t.t.t.t.t.u.7.;.;.1.t.t.h.h.h.h.j.k.k.",
"h.t.h.l.l.t.t.h.t.8.=.O.6.r.r.l.l.t.t.t.h.u.h.h.t.h.h.h.t.t.l.l.t.l.t.t.t.l.l.t.t.h.t.t.t.t.t.t.t.t.r.w.;.O.8.h.h.h.h.k.h.k.k.k.",
"h.t.t.u.t.t.t.t.t.t.8.8.r.t.t.h.t.t.l.l.h.h.h.u.u.h.u.h.l.t.t.t.t.t.t.l.t.l.t.t.t.t.t.t.t.e.t.t.t.r.u.0.0.0.r.u.h.h.h.h.h.h.k.k.",
"t.t.t.t.h.e.e.h.f.h.u.u.t.t.t.t.h.h.u.u.h.h.h.h.t.l.l.h.u.h.u.h.l.t.h.l.t.t.t.t.h.t.h.t.t.t.t.t.t.u.y.y.u.u.l.t.h.h.h.h.h.h.k.k.",
":.9.t.t.t.t.e.f.t.t.t.y.t.u.u.u.u.h.h.h.t.l.u.h.t.t.t.h.h.h.h.h.h.u.h.u.t.l.l.t.u.t.t.t.t.t.t.t.t.u.y.y.y.u.u.t.t.h.f.h.h.h.f.4.",
"_ 3.e.t.t.e.e.e.e.e.e.9.q.u.t.u.t.t.h.t.t.u.h.t.l.t.t.u.h.u.t.u.h.h.h.h.t.l.t.t.t.t.t.t.t.t.e.t.u.t.y.y.y.y.t.t.e.h.f.t.h.h.4.%.",
"%.3.e.t.t.t.f.e.t.e.t.q.q.y.u.t.t.h.t.t.h.t.h.l.u.h.h.l.h.h.h.l.h.u.u.h.t.t.t.l.h.t.t.t.t.t.t.t.t.u.u.u.y.y.e.t.h.f.h.h.h.h.4.%.",
"%.3.t.e.t.t.e.h.t.t.q.y.y.y.u.t.t.h.t.h.h.h.h.h.h.h.h.l.l.t.h.t.h.t.h.u.l.h.h.t.t.t.h.t.t.u.t.t.t.y.u.u.u.t.t.h.f.h.f.t.e.e.w.%.",
",.4.h.t.t.t.h.f.t.t.q.y.y.y.y.u.t.h.h.h.t.h.t.h.h.l.h.h.h.h.l.h.u.l.h.h.t.u.t.l.h.t.u.h.t.t.t.t.u.t.q.t.t.t.t.j.f.f.f.t.t.e.4.#.",
"@.4.h.h.t.t.t.t.t.e.y.y.y.y.t.t.t.h.t.h.h.h.h.h.l.h.l.h.h.l.h.l.h.h.u.h.h.h.u.h.u.h.u.t.t.t.t.t.t.q.t.q.t.t.f.f.k.f.h.e.e.g.d.@.",
"R $.k.h.e.t.t.t.t.t.q.q.q.y.y.t.t.h.h.h.t.h.t.h.h.h.l.h.h.l.h.h.t.l.h.h.u.u.h.h.h.t.h.t.h.t.t.t.t.t.q.t.e.h.f.k.h.f.e.t.t.h.$.W "
};
