/* XPM */
static char *result[] = {
/* columns rows colors chars-per-pixel */
"64 64 143 2 ",
"   c #0E091D",
".  c #11091C",
"X  c #1F101F",
"o  c #23111E",
"O  c #0E0C21",
"+  c #0F1B29",
"@  c #2C1520",
"#  c #2C1A24",
"$  c #271E28",
"%  c #311721",
"&  c #361A22",
"*  c #331F2A",
"=  c #1A3B2F",
"-  c #112A34",
";  c #143030",
":  c #143939",
">  c #3F2A25",
",  c #36262C",
"<  c #3F272B",
"1  c #253B3D",
"2  c #401E23",
"3  c #442125",
"4  c #4C2425",
"5  c #402925",
"6  c #46272C",
"7  c #492629",
"8  c #4D292B",
"9  c #532726",
"0  c #572927",
"q  c #5D2C28",
"w  c #483029",
"e  c #573429",
"r  c #5B392B",
"t  c #4C2F34",
"y  c #473738",
"u  c #5C3231",
"i  c #563538",
"p  c #62332F",
"a  c #613E2D",
"s  c #693D2D",
"d  c #643532",
"f  c #673935",
"g  c #683B37",
"h  c #623D3D",
"j  c #6A3E3B",
"k  c #1C402E",
"l  c #594336",
"z  c #62412F",
"x  c #72412E",
"c  c #6B4330",
"v  c #6D423F",
"b  c #734C33",
"n  c #7B5334",
"m  c #182F4E",
"M  c #063E6B",
"N  c #134244",
"B  c #184748",
"V  c #17584D",
"C  c #294156",
"Z  c #2F5851",
"A  c #1B644F",
"S  c #1F7250",
"D  c #23784F",
"F  c #054677",
"G  c #124D7A",
"H  c #1C517B",
"J  c #264C63",
"K  c #21547C",
"L  c #6D4441",
"P  c #704643",
"I  c #6E745D",
"U  c #82593B",
"Y  c #8A5C3A",
"T  c #99673D",
"R  c #967156",
"E  c #B17743",
"W  c #B57A45",
"Q  c #BC7F44",
"!  c #29844E",
"~  c #31954C",
"^  c #33984B",
"/  c #D7883C",
"(  c #DD8B3C",
")  c #E38E3F",
"_  c #BD8047",
"`  c #C48549",
"'  c #CF8C4E",
"]  c #DD8E41",
"[  c #D28E4E",
"{  c #D8934F",
"}  c #D38D53",
"|  c #D79151",
" . c #D99450",
".. c #DD935A",
"X. c #E49143",
"o. c #E89646",
"O. c #E39448",
"+. c #EB954A",
"@. c #E6994E",
"#. c #ED9A4B",
"$. c #F0974D",
"%. c #F19D4E",
"&. c #E79450",
"*. c #EE9654",
"=. c #ED9E52",
"-. c #E79659",
";. c #F19752",
":. c #F19E50",
">. c #EDA14F",
",. c #EEA252",
"<. c #EEA25C",
"1. c #F5A354",
"2. c #F9A656",
"3. c #F5AA57",
"4. c #F9AD56",
"5. c #F4A55A",
"6. c #FBA65A",
"7. c #F7A95B",
"8. c #FEAC5D",
"9. c #F9B056",
"0. c #FCB15B",
"q. c #CC9C6F",
"w. c #D59661",
"e. c #D19863",
"r. c #EBA466",
"t. c #E4A469",
"y. c #EBA568",
"u. c #F6AA64",
"i. c #FEAD61",
"p. c #F4AC6B",
"a. c #FEAE69",
"s. c #FFB162",
"d. c #FCB26A",
"f. c #035790",
"g. c #215D87",
"h. c #07648E",
"j. c #0A6D8F",
"k. c #1E638A",
"l. c #0F778D",
"z. c #0C749D",
"x. c #0069AA",
"c. c #0078BA",
"v. c #0283C0",
/* pixels */
"e.y.u.u.8.8.8.4.8.8.s.a.a.i.a.i.i.i.8.i.8.i.i.6.i.i.i.i.8.i.i.i.8.8.i.8.8.s.8.8.i.8.8.i.8.8.i.8.8.8.0.8.8.8.0.8.8.0.0.s.i.u.y.w.",
"t.p.u.i.i.8.8.0.0.0.i.i.i.d.i.s.i.i.i.i.i.i.i.8.i.i.8.i.i.i.i.6.8.i.8.8.8.8.8.8.8.8.8.8.8.8.0.8.8.8.0.8.0.8.4.0.0.8.8.0.i.a.u.r.",
"p.a.a.8.8.8.8.0.i.s.s.s.i.i.i.s.i.i.6.i.6.i.i.i.i.i.i.i.i.i.i.i.8.8.i.8.8.8.8.8.8.8.8.8.8.8.8.8.8.8.8.8.0.8.0.0.8.0.8.8.i.6.a.u.",
"d.a.i.i.i.8.i.8.s.8.i.i.a.i.i.i.i.i.i.i.i.i.i.i.i.i.6.i.i.i.6.8.8.8.8.8.8.8.s.8.8.8.8.8.s.8.8.8.4.8.4.0.4.0.8.u.0.u.8.8.8.8.8.i.",
"d.i.s.i.8.8.8.8.s.i.8.i.i.i.i.i.i.i.i.i.i.i.i.i.i.i.6.i.i.i.8.i.8.8.8.8.8.i.0.i.8.8.8.8.8.i.8.8.8.8.4.8.8.8.8.0.u.8.i.8.8.6.8.8.",
"s.s.i.8.8.8.7.8.8.8.s.s.i.i.i.i.i.i.i.8.i.8.i.i.6.i.i.i.i.i.i.i.8.8.s.8.8.8.8.8.8.2.4.8.8.8.8.8.8.8.8.8.4.8.8.i.0.8.i.i.6.6.2.6.",
"i.8.8.i.6.1.%.2.8.8.i.i.i.i.i.i.i.6.6.i.6.i.i.i.i.i.i.i.i.i.i.i.8.8.i.8.0.8.8.8.1.#.@.2.8.8.8.8.8.8.8.8.8.8.8.8.0.i.i.i.i.6.8.8.",
"8.8.8.8.7.#.+.%.2.7.8.8.8.i.8.i.i.i.i.i.6.i.6.i.i.i.i.8.i.8.i.6.i.8.8.8.i.8.8.i.1.) ) 1.8.8.i.8.8.8.8.8.8.i.8.8.i.8.i.6.i.i.i.8.",
"8.8.8.8.8.:.:.%.$.1.8.8.8.8.8.8.6.i.i.i.i.8.8.i.i.i.i.i.8.i.i.8.0.8.8.8.8.8.i.0.7.:.#.+.#.2.8.8.i.i.u.u.i.i.6.8.8.8.8.8.i.i.i.i.",
"8.8.8.8.8.8.6.+.) $.6.2.2.6.8.6.i.i.i.6.6.i.i.i.8.8.i.i.i.i.i.i.i.8.i.8.8.8.8.8.8.8.1.X.( %.8.8.i.6.u.u.i.i.8.8.8.8.8.8.i.i.i.i.",
"8.0.8.8.8.i.8.:.$.2.8.8.8.6.i.i.6.i.i.8.i.6.i.8.i.8.i.8.8.i.i.8.i.8.8.8.0.i.8.8.8.8.6.%.#.1.s.8.i.i.u.u.i.i.i.8.8.8.8.8.6.i.i.6.",
"i.8.i.8.8.i.i.6.2.8.8.8.7.6.i.6.i.i.6.8.8.8.8.i.8.8.8.8.8.8.8.8.8.8.i.0.8.i.8.8.i.0.8.6.7.8.0.i.i.i.i.i.a.i.8.8.8.4.8.8.i.i.i.i.",
"s.u.0.s.i.8.8.8.8.i.s.0.i.i.8.i.8.8.8.8.8.8.8.8.8.8.8.8.8.0.i.8.8.8.i.8.8.8.8.s.0.i.8.8.8.s.i.i.i.i.i.i.a.i.8.8.8.8.8.8.i.i.8.8.",
"u.s.s.8.i.6.6.6.6.i.s.s.8.7.i.8.8.8.8.8.8.8.8.i.i.8.i.8.8.8.i.8.0.8.0.8.i.8.8.8.8.8.8.8.8.8.0.i.i.i.a.i.i.i.6.8.8.8.8.i.i.i.8.8.",
"u.s.u.0.6.6.6.6.6.i.s.u.u.8.7.i.8.u.6.2.6.8.8.8.8.i.8.8.i.8.i.0.i.8.8.i.8.0.i.8.i.8.8.8.8.8.8.i.i.i.i.i.i.i.4.2.4.8.8.i.8.8.8.8.",
"s.s.8.u.i.8.6.6.8.i.8.8.8.8.8.8.s.s.3.o.1.6.8.8.8.8.8.8.8.8.8.8.i.8.8.8.8.8.8.i.8.8.s.8.8.8.8.8.i.i.u.i.i.8.:.o.:.8.8.8.8.8.8.8.",
"8.i.i.i.6.i.i.6.6.i.i.i.8.8.8.8.7.8.,.X.#.6.8.8.8.8.8.8.i.8.i.8.0.8.i.8.8.i.0.8.8.8.8.i.8.8.i.8.6.i.i.6.8.1.+.( #.8.0.i.8.8.8.8.",
"i.8.i.i.i.6.i.i.i.8.8.8.8.7.8.2.,.#.#.%.2.8.i.0.8.8.0.8.8.8.8.8.i.8.8.8.8.8.i.8.s.8.8.8.8.i.0.8.i.6.i.6.%.#.#.#.2.8.i.8.8.i.8.8.",
"i.8.8.6.6.i.6.i.6.i.8.8.8.6.8.1.X.( @.8.i.0.i.8.8.8.8.8.8.0.i.8.8.i.8.8.8.8.8.8.8.8.i.8.8.8.8.8.i.8.8.1.X.( #.8.8.i.0.8.8.i.8.8.",
"8.i.7.i.i.i.6.i.i.8.8.8.8.8.8.2.1.@.1.0.s.s.8.8.8.8.8.8.8.8.8.8.8.8.i.0.8.i.i.8.8.8.0.8.8.i.8.8.8.8.8.6.>.#.1.8.8.8.i.8.8.8.i.0.",
"6.i.i.6.6.i.6.i.i.8.8.8.8.8.8.8.0.u.8.0.0.8.8.8.8.8.8.8.Y z z z z z z z | 8.8.8.8.s.8.8.8.8.8.s.8.s.8.8.8.6.8.s.0.8.8.8.8.8.0.i.",
"i.i.6.i.i.i.6.i.i.6.8.6.8.8.8.8.s.s.0.8.8.8.8.8.8.8.4.T 9 & 6 t t t 2 < c ' 8.8.8.8.8.8.8.8.8.8.8.8.8.s.i.0.s.s.i.8.s.8.8.i.8.8.",
"i.6.6.i.i.i.i.i.i.8.8.8.8.8.8.8.8.8.8.8.8.8.4.8.8.4.E & u g v P P P g f 8 c | 8.8.8.8.8.8.s.8.i.8.i.i.8.s.i.s.8.8.i.8.8.0.8.8.8.",
"6.8.8.i.6.i.6.i.8.8.8.8.8.8.8.8.8.8.2.8.4.4.8.4.0. .X d v P P P P P P P j 7 w 8.8.8.s.8.8.8.8.8.8.0.8.s.i.0.8.8.8.8.i.8.i.8.8.i.",
"8.7.8.8.8.8.8.8.8.8.8.8.8.8.8.8.8.7.4.8.4.4.8.8.6.' # L P P P P P P P P P i w 7.8.8.8.8.8.8.i.8.i.8.8.i.0.i.8.i.8.8.8.8.8.8.0.i.",
"8.8.8.8.8.8.8.8.6.i.8.8.8.6.8.8.8.8.8.8.8.6.8.4._ 6 L P P P P P P P P P P L h # 7.8.i.8.0.i.0.8.8.8.8.i.i.8.8.0.s.8.8.8.8.i.8.8.",
"8.8.8.8.8.8.8.8.8.6.8.8.8.8.8.8.8.8.8.2.8.4.4.8.W * L P P P P P P P P P P P h . 5.8.8.i.i.8.8.8.0.i.8.0.8.8.8.i.8.8.8.s.0.8.8.8.",
"8.8.8.8.8.8.8.8.8.8.8.8.8.8.8.8.8.8.8.8.4.8.8.8.W # g P P P P P P P P P P v u . 5.8.i.0.8.8.8.i.8.8.8.8.8.i.8.8.8.8.8.8.i.8.8.i.",
"8.8.8.8.8.8.8.8.8.8.8.8.6.8.8.8.8.4.8.2.8.8.8.8.W @ q j g v L P P P v v g f 9 . 5.8.i.8.i.0.i.8.8.8.8.0.8.s.8.8.8.i.i.8.8.8.8.8.",
"8.8.8.8.8.8.8.8.8.8.8.8.8.8.8.6.8.8.8.8.8.4.4.8.[ a 4 q q f v j v j v p q 0 4 b 7.8.8.8.8.8.8.8.i.8.8.i.8.8.8.8.8.0.8.8.i.8.s.8.",
"8.i.8.8.8.8.8.8.8.8.8.8.8.8.8.8.8.8.8.4.8.8.4.8.8. .o q q q q q q q q q q 3 w 8.8.8.8.8.8.i.8.8.i.8.i.8.8.8.0.8.8.8.8.8.8.8.8.8.",
"8.8.8.8.8.8.8.6.8.7.8.8.8.8.8.8.6.8.8.8.4.8.6.8.8.{ o q q q q q q q q q q 3 w 8.8.8.s.8.8.8.8.i.0.8.8.8.i.8.i.8.8.i.8.8.s.8.8.8.",
"8.8.8.8.8.8.8.8.6.8.8.8.8.8.6.8.8.8.8.2.8.8.4.8.8.6.{ o o 4 q q q q q & @ b 5.i.8.8.0.8.i.8.8.0.i.8.i.8.8.s.8.8.8.8.8.8.8.8.8.0.",
"8.8.8.8.8.8.6.8.8.8.8.8.8.8.8.8.4.8.8.8.4.4.8.8.8.8.3.  - $ % % % % % - + U 8.8.i.8.i.8.8.8.i.8.8.8.8.8.8.8.8.8.s.8.8.i.8.i.8.i.",
"8.8.8.8.8.8.8.8.8.8.8.4.4.8.4.8.8.8.8.4.6.8.8.8.8.8.2.  N : = k = ; ; k - Y 8.8.8.8.0.i.8.i.8.8.8.8.8.0.8.8.i.0.8.8.8.0.8.8.8.i.",
"8.8.8.8.8.8.8.8.8.8.8.6.4.8.8.8.8.4.8.4.8.8.4.8.8.4.{ , B A ! ^ ~ D S V 1 U 5.i.8.8.i.8.0.i.8.8.8.i.8.i.i.8.8.8.8.8.8.i.s.8.8.8.",
"8.8.8.8.8.6.8.8.8.8.8.2.8.8.2.4.6.8.8.4.4.8.8.8.8. .> q.Z A ! ^ ^ ^ D V I R w 8.8.8.8.8.8.8.0.i.8.8.i.8.i.8.i.8.i.0.i.8.8.8.8.8.",
"8.8.8.8.8.8.8.8.8.4.8.8.4.8.8.8.8.4.8.8.8.8.4.8.8.{ , q.Z A S D ^ ^ D V I R w 8.s.8.8.8.8.8.i.8.0.i.0.8.8.8.8.8.8.8.8.8.8.8.s.8.",
"8.8.8.8.8.8.8.8.8.8.4.8.4.8.8.8.8.4.4.6.8.4.8.4.8.8.[ y z.z.j.j.l.l.j.h.J n <.8.8.8.8.i.i.8.8.8.i.8.8.8.8.0.i.8.8.i.8.8.i.8.8.8.",
"8.6.8.8.8.8.8.8.6.8.4.8.8.8.4.8.8.8.8.8.8.4.8.8.8.8.{ O v.c.x.f.M x.x.x.M b 6.8.8.i.8.0.8.8.8.8.8.8.i.8.8.i.8.8.8.8.8.i.0.8.8.8.",
"8.8.8.8.8.8.6.8.8.4.8.8.2.8.8.8.4.6.4.8.8.4.8.8.7.1.Q O k.g.G C l F H K m r  .8.s.8.0.8.i.8.8.i.8.8.8.8.8.8.8.8.8.8.8.8.8.8.8.8.",
"8.8.8.4.8.8.8.8.8.8.8.4.8.8.0.8.8.8.8.8.2.2.2.2.3.{ ` > s s e U ` 5 g x e n  . .6.7.7.8.4.8.8.8.8.i.8.8.8.8.i.8.i.8.8.8.i.8.s.8.",
"8.8.2.8.8.6.4.8.8.8.4.8.4.8.0.s.0.0.8.6.%.#.%.2.5.{ |  .{ { {  . . .{ {  . . . .2.%.%.1.6.8.8.8.i.8.8.8.8.8.i.8.8.8.8.8.i.8.8.8.",
"4.8.8.8.8.8.4.8.2.8.8.8.8.8.s.s.s.s.7.2.%.o.#.2.8.7. . .| {  . . .{  . . . . .8.2.#.+.%.2.6.8.i.8.8.8.8.8.8.6.8.8.8.8.8.8.8.8.8.",
"8.2.4.8.8.4.8.8.8.4.6.4.8.8.8.8.8.8.1.@.#.%.2.8.8.8.7.8.7.8.7.8.7.8.8.7.8.7.8.8.6.1.#.@.#.1.6.4.8.6.8.8.8.8.8.8.8.8.8.8.0.8.8.8.",
"8.8.8.8.4.8.6.4.8.4.8.8.8.8.4.6.8.8.#.] #.2.8.8.8.8.i.8.i.8.8.8.8.8.8.8.8.i.i.8.8.8.2.o.) %.6.4.2.6.4.8.8.8.6.8.8.8.8.8.i.8.8.i.",
"4.8.8.4.8.8.8.8.8.8.4.8.8.6.4.8.8.8.3.#.2.8.8.8.i.8.8.8.8.8.s.8.8.8.8.s.8.i.8.8.8.8.8.1.%.1.8.6.2.6.8.8.8.8.8.8.8.8.8.8.8.i.8.8.",
"8.8.8.6.8.8.4.8.4.8.8.8.8.4.6.6.8.8.8.8.s.s.s.8.0.i.8.8.8.i.8.8.i.8.8.8.8.8.8.8.0.i.8.8.8.8.8.8.8.7.8.8.8.8.6.8.6.8.8.8.8.8.i.0.",
"8.8.8.8.8.4.8.4.8.8.8.8.4.6.6.4.8.8.8.8.s.s.s.8.8.8.0.i.s.8.8.8.s.8.8.8.8.8.0.8.8.8.8.8.8.8.s.8.8.4.6.8.i.8.8.8.8.8.8.8.8.8.i.8.",
"8.8.8.8.8.8.2.8.4.8.8.8.8.8.6.6.8.s.8.8.i.0.s.8.8.8.i.8.8.8.8.8.8.8.8.i.i.8.i.i.4.6.7.6.6.8.8.8.6.8.8.i.i.7.8.6.6.8.8.i.8.i.i.i.",
"8.8.8.8.8.4.2.2.2.2.8.i.8.8.8.4.8.8.8.8.8.8.8.8.8.8.8.8.8.8.8.8.8.8.8.8.8.8.8.8.8.6.6.7.8.8.8.8.8.7.7.i.i.i.6.1.6.8.8.8.8.i.i.i.",
"s.i.8.8.8.8.2.%.X.1.s.s.u.7.i.i.8.s.8.8.i.8.s.8.s.8.8.s.8.s.8.s.8.s.i.0.8.s.8.8.8.8.4.8.6.8.8.8.i.i.i.i.d.i.5.+.:.i.8.6.8.7.i.i.",
"s.s.s.s.8.8.2.#.X.=.0.u.8.7.u.s.i.8.0.s.8.i.8.s.8.s.8.0.i.i.i.8.8.8.s.8.s.8.0.8.8.8.8.8.8.8.6.8.i.i.u.u.s.7.=.X.:.8.i.i.6.i.u.i.",
"i.i.s.s.8.8.6.2.%.@.@.#.5.8.8.s.s.8.i.i.s.i.0.8.8.8.s.8.0.i.i.0.s.8.s.8.8.i.i.i.8.8.8.8.8.8.8.8.i.7.u.5.=.=.=.1.6.i.i.i.a.i.i.a.",
"i.i.s.s.s.8.8.8.8.@./ O.5.7.i.i.s.8.8.s.8.0.s.8.s.s.8.i.i.i.i.i.8.s.8.0.0.i.s.8.8.8.8.8.8.8.8.8.7.u.8.,.] ] ,.i.i.i.i.i.a.s.d.a.",
"i.s.0.i.8.8.8.i.8.2.@.1.7.8.8.s.8.8.s.8.i.i.8.8.8.8.0.i.i.0.0.i.0.8.i.i.8.s.8.8.8.i.8.8.8.8.6.8.8.8.9.3.,.,.3.s.i.i.i.i.i.a.i.a.",
"8.0.8.8.i.i.i.a.i.8.8.0.8.8.0.8.i.0.i.s.8.0.i.s.8.s.s.8.0.i.i.i.i.i.i.8.s.i.i.8.8.i.8.8.8.8.8.8.4.0.0.0.0.s.0.i.i.i.6.i.i.a.a.a.",
"2.6.8.8.6.i.:.:.8.8.8.8.4.8.0.8.i.0.i.8.i.i.i.0.0.8.8.8.i.i.0.0.i.0.i.0.8.0.s.8.8.8.0.8.8.8.8.8.8.0.9.9.0.0.0.8.i.i.i.i.i.i.a.5.",
"%.8.8.6.6.6.6.i.6.6.6.4.0.8.8.0.i.i.8.i.8.s.8.i.i.i.8.s.i.i.i.i.i.i.i.i.s.8.8.8.8.8.8.8.8.8.8.8.0.8.9.9.9.9.4.8.8.i.6.i.i.i.6.*.",
"$.2.8.8.6.i.i.6.6.8.4.4.9.0.0.8.0.8.i.8.i.8.0.i.s.i.8.s.8.s.i.0.i.0.0.i.8.8.s.8.8.s.8.8.8.8.8.8.8.0.0.9.9.9.8.u.i.i.i.i.i.i.;.*.",
";.6.8.8.8.6.i.6.8.8.4.4.4.9.0.8.8.i.i.i.i.i.i.8.8.i.0.i.i.s.8.8.s.8.0.8.8.0.i.i.8.8.8.8.8.8.8.8.8.8.0.9.4.8.8.i.i.6.i.i.i.i.*.*.",
"*.6.8.8.8.i.i.i.8.4.9.9.9.9.0.8.8.i.i.8.i.8.i.i.s.i.s.i.8.s.i.s.8.i.i.s.s.8.i.0.s.8.8.8.8.8.0.8.0.4.8.0.8.8.i.i.u.i.i.6.6.6.5.&.",
"-.u.8.8.8.8.8.8.8.4.9.9.9.0.9.8.8.i.i.i.8.i.i.s.i.s.i.i.i.i.s.8.0.i.i.8.i.0.i.i.8.8.8.8.8.8.8.8.8.0.4.8.6.i.i.6.u.u.i.6.6.6.=.-.",
"..i.a.6.6.8.i.8.8.4.4.9.9.4.0.8.8.i.8.8.i.i.i.i.i.i.i.s.s.i.i.s.i.i.i.0.i.i.i.0.s.8.8.s.8.8.8.8.8.4.8.4.6.6.u.u.u.u.i.8.7.u.r.} "
};
