/* XPM */
static char *result[] = {
/* columns rows colors chars-per-pixel */
"64 64 142 2 ",
"   c #0F071B",
".  c #0F1223",
"X  c #0F1827",
"o  c #121B24",
"O  c #0C1E3D",
"+  c #141930",
"@  c #2C1E2C",
"#  c #311721",
"$  c #331922",
"%  c #3E1E23",
"&  c #221F33",
"*  c #152024",
"=  c #12202B",
"-  c #1C202A",
";  c #102631",
":  c #3C242E",
">  c #401E23",
",  c #422024",
"<  c #4F2626",
"1  c #422B27",
"2  c #4A2826",
"3  c #44252A",
"4  c #472C2C",
"5  c #572927",
"6  c #592A27",
"7  c #5D2C28",
"8  c #5D3E2E",
"9  c #4B2E34",
"0  c #4E3035",
"q  c #4B3239",
"w  c #563333",
"e  c #50353A",
"r  c #50393F",
"t  c #5D3A3B",
"y  c #61322E",
"u  c #653733",
"i  c #663835",
"p  c #6A3E3A",
"a  c #69472E",
"s  c #6D413E",
"d  c #684A3A",
"f  c #724932",
"g  c #765338",
"h  c #132945",
"j  c #0E3A60",
"k  c #144D4C",
"l  c #16554D",
"z  c #1D6B4F",
"x  c #1F714F",
"c  c #1F7150",
"v  c #257D4E",
"b  c #0A466E",
"n  c #0B5A74",
"m  c #116B76",
"M  c #1A7D74",
"N  c #52594E",
"B  c #6D4340",
"V  c #634940",
"C  c #704643",
"Z  c #6A5E4E",
"A  c #7B5A44",
"S  c #7C776F",
"D  c #845937",
"F  c #865939",
"G  c #895F3F",
"H  c #94633B",
"J  c #99673F",
"K  c #9B693E",
"L  c #A9723F",
"P  c #845D42",
"I  c #8B6851",
"U  c #A06D40",
"Y  c #AB7340",
"T  c #B17641",
"R  c #BA7E46",
"E  c #29844D",
"W  c #2C8B4D",
"Q  c #2F904C",
"!  c #31944B",
"~  c #33984B",
"^  c #1D8473",
"/  c #79887B",
"(  c #D7883C",
")  c #DD8B3C",
"_  c #E38E3F",
"`  c #A18E71",
"'  c #C28449",
"]  c #CB8A4B",
"[  c #DD8E41",
"{  c #D08D4E",
"}  c #D8934F",
"|  c #D38D53",
" . c #DA9451",
".. c #DD935A",
"X. c #E49143",
"o. c #E89646",
"O. c #E39448",
"+. c #EB954A",
"@. c #E6994E",
"#. c #ED9A4B",
"$. c #F0974D",
"%. c #F19D4E",
"&. c #E79450",
"*. c #EE9654",
"=. c #E49B53",
"-. c #EC9F55",
";. c #E79659",
":. c #EB9F58",
">. c #F19752",
",. c #F19E50",
"<. c #EDA14F",
"1. c #EEA253",
"2. c #EDA15A",
"3. c #F5A354",
"4. c #F9A656",
"5. c #F5AA57",
"6. c #F9AD56",
"7. c #F5A559",
"8. c #FBA65A",
"9. c #F7A95B",
"0. c #FEAD5D",
"q. c #F9B056",
"w. c #FCB15B",
"e. c #D59661",
"r. c #D19863",
"t. c #EBA466",
"y. c #E4A469",
"u. c #EBA568",
"i. c #F6AA64",
"p. c #FEAD61",
"a. c #F4AC6B",
"s. c #FEAE69",
"d. c #FFB162",
"f. c #FCB26A",
"g. c #025993",
"h. c #025E99",
"j. c #0D6C84",
"k. c #0366A4",
"l. c #0069AA",
"z. c #5A8896",
"x. c #0487C7",
"c. c #008CCF",
/* pixels */
"r.u.i.i.p.0.0.0.w.0.d.s.s.f.p.p.p.p.p.p.p.p.p.p.p.p.p.8.p.p.p.p.0.0.0.0.0.0.0.0.0.0.p.0.0.0.0.p.0.0.0.w.w.0.w.6.0.w.w.d.p.s.u.e.",
"y.a.i.p.0.0.0.6.0.w.p.p.p.p.s.d.p.0.p.8.p.p.p.p.0.p.p.p.p.8.p.0.0.0.0.p.p.0.p.0.0.0.w.p.0.0.0.0.w.0.0.0.0.w.0.w.w.0.0.p.p.i.i.t.",
"a.s.s.0.p.0.w.0.w.d.p.d.p.d.p.p.p.p.p.p.p.p.p.p.p.8.p.p.p.p.p.p.0.0.0.0.0.p.0.0.p.0.0.0.p.w.p.0.6.0.w.0.w.9.w.w.0.w.0.0.0.p.p.i.",
"f.s.p.p.0.p.p.w.d.p.d.p.p.p.p.p.p.0.p.p.0.p.8.p.p.p.p.p.p.0.p.0.0.p.0.0.p.w.0.0.0.0.w.0.0.0.0.0.0.0.0.6.0.w.0.i.w.p.0.0.8.0.0.i.",
"f.p.d.p.0.0.p.0.w.p.0.p.p.p.p.p.p.p.8.p.p.p.8.p.p.p.p.p.0.p.p.p.w.p.0.0.0.0.0.p.0.0.0.0.0.d.0.0.0.w.0.6.0.0.w.w.w.0.0.p.0.8.8.0.",
"d.d.p.0.0.0.8.0.p.0.d.d.p.p.p.p.p.p.p.p.p.p.p.p.p.p.p.p.p.p.p.8.p.0.0.p.0.0.p.w.8.4.8.0.0.0.0.0.0.0.0.0.0.0.0.0.p.i.p.0.p.8.8.0.",
"p.0.0.p.8.3.,.4.0.0.p.p.p.p.p.p.p.p.p.p.8.p.p.p.0.p.8.p.8.p.p.p.0.0.0.0.0.0.0.0.3.#.#.4.0.0.p.0.0.0.0.0.0.0.0.0.w.p.p.p.p.8.8.0.",
"0.0.0.0.4.#.+.%.4.8.0.0.p.p.p.p.8.p.0.8.p.p.0.p.p.p.p.p.p.p.p.0.0.0.p.w.0.p.0.0.3.X.) 3.0.0.w.p.0.0.0.0.0.8.p.0.0.0.0.p.p.0.0.0.",
"0.0.0.0.8.,.,.,.$.3.0.0.8.0.0.0.p.p.p.p.8.p.p.p.0.p.0.p.p.p.p.p.0.0.w.p.p.0.0.0.4.3.#.o.#.4.0.0.p.p.8.i.p.p.0.0.0.0.0.0.p.p.p.p.",
"0.w.0.0.p.0.8.$._ $.8.0.4.8.8.0.8.p.8.p.p.p.8.p.p.p.p.p.p.0.p.0.p.0.0.0.w.0.0.p.0.0.3.X.) #.0.0.p.8.s.i.p.p.0.0.0.0.0.0.p.p.p.p.",
"0.0.p.0.p.0.8.,.$.3.0.0.8.8.0.p.p.p.0.0.8.p.0.p.0.p.0.p.0.0.p.0.d.0.p.0.0.p.0.p.0.0.8.#.#.3.p.0.p.i.i.i.p.p.0.0.0.0.0.0.p.p.p.p.",
"p.w.w.0.p.p.p.8.8.0.0.0.9.0.8.p.8.p.0.0.0.0.0.0.0.0.p.0.0.0.0.0.0.0.0.0.0.0.0.p.w.0.0.0.4.0.d.0.p.p.p.p.s.p.0.0.0.6.0.0.p.p.p.8.",
"i.i.d.w.0.0.0.0.0.p.d.i.p.9.p.p.9.p.p.0.0.0.0.0.0.0.p.0.0.0.0.0.0.0.p.0.0.w.0.w.p.p.0.0.0.d.p.d.p.p.p.p.p.p.p.0.0.0.0.0.8.p.0.0.",
"d.d.w.i.p.8.8.8.0.0.d.d.p.0.9.0.0.p.0.0.0.0.0.0.0.0.0.0.0.0.0.d.0.0.0.0.0.p.0.0.0.0.0.0.0.0.0.d.p.p.p.s.p.p.p.0.0.0.0.0.p.p.0.0.",
"i.d.p.p.0.8.8.8.8.0.d.p.0.0.p.p.p.p.8.4.8.0.0.0.0.0.0.0.d.0.0.0.0.w.p.0.0.0.0.d.0.p.0.0.0.0.0.0.p.p.p.p.p.p.8.4.6.0.0.p.0.0.0.0.",
"d.d.i.0.p.8.8.p.8.0.w.i.0.0.0.0.w.d.7.o.3.8.0.p.0.0.0.p.0.0.0.p.0.p.0.0.p.0.0.0.0.w.p.0.0.0.0.p.p.p.p.p.p.8.,.o.,.0.0.p.0.0.0.0.",
"0.p.p.p.8.p.8.p.p.0.p.0.0.0.0.8.i.w.1.X.#.8.0.w.0.d.0.0.0.0.0.0.0.0.0.p.p.w.0.0.0.0.p.0.0.0.d.0.p.8.p.p.8.4.o.) #.0.0.0.0.0.0.w.",
"p.0.p.9.p.8.p.p.p.8.8.p.0.0.0.4.3.#.#.3.4.9.p.0.0.0.0.0.d.0.0.w.p.0.0.0.0.p.0.0.0.p.w.0.0.0.0.0.8.p.8.8.3.#.#.#.7.p.d.0.0.p.p.0.",
"p.p.0.p.p.8.8.p.p.0.0.0.0.4.0.3.X.( #.0.w.d.d.0.0.0.p.w.0.9.p.w.0.0.9.p.0.0.p.0.0.p.0.0.0.0.0.0.0.0.p.3.X.) #.0.0.w.p.0.0.p.0.0.",
"0.0.8.p.p.p.8.p.p.8.0.0.0.0.0.4.1.#.3.w.p.0.0.0.0.0.0. .a 8 u 8 8 a a 8 9.0.0.0.0.0.0.0.0.d.0.p.0.0.p.8.#.#.4.0.0.0.0.0.w.0.0.0.",
"8.p.p.8.8.p.8.p.8.p.0.0.0.0.0.0.0.0.p.w.w.0.0.0.0.0.} f : , 9 0 9 4 % % G 1.0.0.0.0.0.p.0.0.w.0.0.p.d.0.0.8.p.d.w.p.0.0.p.0.p.0.",
"p.p.8.p.p.p.8.p.p.p.0.0.0.0.0.p.w.d.d.0.0.0.0.0.0. .f 2 y i s C B B u u , P :.0.w.p.0.0.p.0.p.0.p.w.0.d.0.0.w.d.p.0.0.p.0.0.0.0.",
"p.8.8.p.p.p.p.p.0.8.0.0.0.0.0.0.0.9.8.0.0.0.6.0.0.8 , p C C C C C C B C i $ U 0.0.0.0.0.0.0.w.p.0.0.w.0.d.d.0.0.0.p.p.w.0.0.0.w.",
"8.0.0.p.8.p.8.p.0.0.0.0.0.0.0.0.0.0.6.0.6.6.6.0.8.8 w C C C C C C C C C B : U 0.0.0.d.0.0.0.p.0.0.p.p.p.w.p.p.0.0.0.0.0.0.p.0.p.",
"0.4.0.p.0.0.0.0.0.9.0.0.0.0.0.0.0.0.0.0.8.6.0.4.4 t s B C C C C C C C C C B e F 0.0.p.p.0.0.0.0.0.0.0.d.0.d.0.0.0.w.0.0.0.0.w.p.",
"0.0.0.0.0.0.0.0.0.0.0.0.0.0.0.0.0.0.0.6.0.6.6.4.  t C C C C C C C C C C C C 9 8 0.0.0.w.0.0.0.0.p.0.0.0.0.0.0.0.0.p.0.0.0.p.0.0.",
"0.0.0.0.0.0.0.0.0.0.0.0.0.9.0.0.0.0.0.0.6.0.0.7.  w s C C C C C C C C C s s 3 u 0.0.0.0.p.0.w.p.w.p.0.0.0.d.0.p.0.0.0.d.w.0.0.0.",
"0.p.0.0.0.0.0.0.0.0.8.0.0.0.0.0.0.0.0.8.0.0.6.4.  < u s s C C C C C C p s y : 8 d.0.0.0.0.0.p.0.0.0.0.0.0.0.0.p.p.0.0.0.p.0.0.p.",
"0.0.0.0.0.0.0.8.0.0.0.0.0.0.0.8.0.0.0.8.0.6.0.4.1 < 6 7 y s s B B C p 7 7 6 2 D 0.w.p.p.0.0.0.0.0.p.0.0.0.p.0.w.0.0.p.0.0.0.0.0.",
"0.0.0.0.0.0.0.0.0.0.0.0.8.0.0.0.6.0.0.0.0.0.6.0.8.8 , 7 7 7 7 7 7 7 7 7 7 $ J 0.0.0.0.0.0.d.0.0.0.0.p.w.0.0.0.0.0.0.0.0.p.0.p.0.",
"0.0.0.0.0.0.0.0.0.8.0.0.0.0.0.0.8.0.0.6.6.8.0.0.0.8 , 7 7 7 7 7 7 7 7 7 7 # K w.0.p.p.w.0.0.0.0.0.0.0.0.p.0.0.0.d.0.w.p.0.0.w.p.",
"0.0.0.0.0.0.0.0.0.0.0.0.0.0.0.0.0.0.0.0.0.6.0.0.0.} f # % 7 7 7 7 7 5 $ # H 1.0.0.0.0.p.0.0.0.d.0.0.0.p.w.p.0.0.0.0.0.0.p.0.0.0.",
"0.0.0.0.0.0.0.0.0.0.0.0.0.0.0.0.0.0.0.0.0.6.0.6.0.0.K . - > > > > > % = . { 0.0.0.0.0.w.p.0.0.0.0.w.p.0.0.p.0.p.0.0.0.0.d.0.0.0.",
"0.0.0.0.0.0.0.0.0.8.0.0.0.0.0.8.0.8.6.6.0.8.0.0.0.0.K ; k o * * o o X k X { 0.0.0.0.p.0.0.0.0.p.0.p.0.0.0.0.0.w.0.p.0.0.0.0.0.0.",
"0.0.0.0.0.8.8.0.0.0.0.6.6.0.6.0.0.0.0.0.6.0.0.0.6.0.K ; k z ! ! E c z k X { p.0.0.p.0.0.p.0.0.0.p.w.0.p.0.0.0.0.0.0.d.0.0.0.p.w.",
"0.0.0.0.0.0.0.6.0.0.0.0.8.6.0.0.0.6.0.8.6.0.6.0.0.0.J = l v ! ~ ! E z k X { 0.0.p.w.0.p.0.0.w.p.0.0.0.0.p.w.p.0.0.0.0.0.p.0.0.p.",
"0.0.0.0.0.0.0.0.0.8.0.0.0.6.8.6.0.0.0.6.6.0.0.0.0.' P N l x v Q ~ W z k Z P  .0.w.p.0.0.0.0.w.0.0.p.p.0.w.p.0.0.0.0.p.w.0.w.p.0.",
"0.0.0.0.0.0.0.0.0.6.0.6.0.6.0.0.6.8.0.0.0.0.6.0.6.8 I / j.m m M ^ M m n ` V U 0.0.p.0.0.p.0.p.0.0.0.0.0.0.0.p.0.0.0.0.p.0.0.p.0.",
"0.0.0.0.0.8.0.0.0.0.0.6.0.0.6.0.0.6.6.0.0.6.0.6.0.D A z.c.l.l.g.h.l.l.l.S d R 0.0.0.p.p.0.0.0.p.0.d.0.0.0.0.0.p.p.0.0.0.0.d.0.0.",
"0.0.0.0.0.0.0.0.0.0.8.0.6.0.0.0.0.0.0.8.0.6.0.0.0.=.a b x.k.k.h j k.k.k.O H 7.0.0.0.0.w.0.0.0.0.0.0.0.0.0.p.0.w.0.0.0.0.0.0.0.0.",
"7.0.0.0.0.0.0.0.0.0.0.0.6.8.0.0.6.0.0.6.0.6.0.0.=.} a @ r q + J g & q e # G  .2.0.0.0.0.0.0.w.0.0.0.0.0.0.0.p.0.w.p.0.0.0.0.0.0.",
"3.0.8.0.0.6.8.0.0.8.6.0.0.0.w.0.0.0.0.0.4.4.4.6.} } R L T T L ] ' Y T T Y ' } =.0.4.8.9.9.0.p.0.0.p.0.0.0.0.0.0.p.0.0.0.0.p.p.0.",
"0.0.0.0.6.0.0.0.0.6.0.0.0.0.d.d.0.p.0.4.,.#.%.8.7. .} } } } } } } }  . . . .=.9.4.#.%.4.8.0.0.0.p.0.0.0.0.0.0.0.0.0.0.0.0.p.0.0.",
"0.0.6.0.0.0.0.6.0.6.0.8.6.0.d.d.d.w.8.3.%.X.#.4.0.7.2.1.1.2.:.:.:.:.:.:.:.:.9.w.4.#.#.%.4.8.0.0.0.0.0.0.0.0.8.0.0.0.0.0.w.0.0.0.",
"0.0.0.6.8.6.0.6.0.0.6.6.0.0.0.0.w.9.3.@.#.%.4.8.0.0.0.p.p.0.0.p.0.0.0.0.0.p.0.p.8.4.#.#.#.3.0.9.0.0.0.0.0.0.0.0.0.0.0.p.p.0.0.p.",
"8.6.0.0.0.0.0.0.6.0.0.0.0.8.0.4.0.0.#._ #.6.0.0.0.d.0.0.0.0.0.w.0.0.p.w.0.0.0.0.0.0.4.+.X.#.8.4.4.4.8.0.0.0.8.0.0.0.0.0.0.0.0.0.",
"6.0.8.0.0.6.6.8.0.8.6.0.6.0.4.0.0.0.7.#.4.0.0.0.0.0.p.0.0.0.0.p.p.0.0.0.0.p.0.0.0.0.8.3.#.4.0.9.4.9.0.0.0.0.0.0.0.0.0.0.0.0.0.w.",
"0.0.0.0.0.0.0.0.6.0.0.0.0.6.0.0.p.w.0.0.0.d.d.d.0.0.0.0.p.w.0.0.0.0.0.p.0.w.p.0.0.p.w.0.0.0.w.0.0.8.8.0.0.0.8.0.8.0.0.0.0.p.0.p.",
"0.0.0.0.8.0.0.0.6.8.0.9.w.0.4.8.0.w.p.0.d.d.d.w.p.0.p.0.w.p.0.0.0.p.0.0.0.p.0.0.w.0.0.0.0.0.d.0.0.0.0.0.0.0.8.0.8.p.0.0.0.p.0.p.",
"0.0.0.0.0.6.6.0.0.0.0.0.0.0.9.8.0.p.0.0.0.0.0.0.0.0.0.0.0.0.p.0.0.p.w.0.0.0.0.p.0.9.4.4.8.0.p.0.0.4.9.0.0.p.p.0.0.0.0.0.0.p.0.p.",
"p.0.0.0.0.6.6.4.3.4.0.0.0.0.0.6.0.0.p.0.p.0.p.0.0.0.0.0.0.0.0.0.0.0.0.0.0.w.p.w.0.0.4.8.9.0.w.p.0.0.0.p.p.p.8.4.8.8.0.0.0.p.p.p.",
"d.p.0.0.0.0.8.$.o.3.d.d.i.9.0.0.p.p.w.0.w.p.0.d.0.d.0.d.0.d.0.d.0.d.0.d.p.p.0.0.0.0.0.0.0.0.8.0.0.0.p.i.f.p.,.o.,.0.0.0.8.8.0.s.",
"d.d.d.d.0.0.4.#.X.1.9.9.0.9.p.d.p.d.0.p.0.d.p.w.d.0.0.d.0.d.p.0.p.p.w.p.0.w.p.0.0.0.0.0.0.0.0.0.0.p.i.d.i.9.-.X.,.8.0.p.p.8.p.p.",
"d.p.d.d.0.0.8.4.1.#.@.-.7.0.p.p.p.w.p.w.w.0.p.0.d.0.p.p.0.0.p.w.w.p.w.p.d.0.p.0.0.0.0.0.8.0.0.0.i.9.i.7.1.=.-.3.8.p.p.p.p.s.i.s.",
"p.p.d.d.d.p.0.0.0.+.( O.7.9.p.p.p.p.p.w.p.p.0.d.0.p.0.w.d.d.0.0.p.w.p.p.d.0.0.0.0.0.0.0.0.0.0.8.0.0.9.1.[ [ 1.d.p.p.p.f.p.f.f.f.",
"p.0.w.p.0.0.0.0.9.3.#.1.9.0.0.d.w.p.p.0.d.0.p.p.w.p.d.0.0.0.0.d.p.0.d.0.0.p.0.0.0.0.0.0.0.0.0.0.0.0.w.5.1.<.5.d.p.p.p.p.p.s.p.s.",
"0.0.0.0.p.8.,.p.p.p.0.w.0.0.w.0.p.p.0.w.p.p.0.w.0.0.0.d.d.0.w.0.0.d.p.p.0.w.p.0.0.0.w.0.0.0.0.0.w.q.q.q.w.w.w.d.p.p.8.p.s.p.s.s.",
"3.0.0.0.8.p.p.p.p.0.0.0.6.0.w.0.w.0.d.0.d.0.d.0.d.d.0.p.0.p.p.d.w.0.w.p.d.0.0.p.0.p.p.0.0.0.0.0.0.w.w.w.w.w.w.p.p.p.p.p.p.p.s.7.",
"%.6.0.8.p.8.8.8.0.8.4.6.w.0.0.w.0.d.0.p.0.w.p.0.0.w.w.p.0.d.0.0.p.w.p.p.0.0.d.0.0.0.p.0.0.0.0.0.9.w.q.q.w.w.9.w.0.p.8.p.p.p.8.*.",
"$.8.0.8.p.8.p.8.8.0.6.6.q.w.w.0.0.p.0.0.p.0.p.d.p.p.0.p.d.0.d.0.p.p.p.w.d.d.0.0.0.0.0.w.0.0.0.0.0.w.w.q.q.q.8.p.p.p.p.p.p.p.>.*.",
">.8.0.0.0.8.p.p.0.6.6.6.q.q.0.w.0.p.p.p.p.p.p.d.p.p.d.0.0.d.0.p.w.0.p.p.0.0.w.p.0.0.0.p.0.w.0.0.0.w.0.w.9.9.0.p.8.i.p.8.p.p.:.*.",
">.8.0.0.0.p.p.8.0.0.q.q.q.q.q.0.0.p.0.p.0.p.0.p.d.p.p.d.d.p.p.d.p.d.0.w.0.d.0.p.d.0.0.0.0.0.0.0.w.6.6.w.0.0.p.p.s.p.p.p.8.8.,.&.",
";.i.8.0.0.0.0.0.0.0.q.q.q.q.0.0.0.p.p.p.p.p.0.p.p.0.p.d.d.p.p.0.p.0.p.p.w.p.d.0.0.0.0.0.0.0.0.0.6.w.6.0.p.8.p.i.i.i.p.8.8.p.7...",
";.i.s.0.8.0.0.0.0.6.6.q.q.q.0.w.0.p.0.p.0.p.p.p.d.d.p.p.p.p.d.d.0.d.w.p.p.p.p.w.p.p.w.0.p.0.0.0.0.0.0.6.8.p.8.i.8.i.p.8.8.8.t.| "
};
