/* XPM */
static char *result[] = {
/* columns rows colors chars-per-pixel */
"64 64 149 2 ",
"   c #0F071B",
".  c #0E0C1E",
"X  c #10081C",
"o  c #25171F",
"O  c #0F1425",
"+  c #181424",
"@  c #131830",
"#  c #201824",
"$  c #2C1C29",
"%  c #311721",
"&  c #311822",
"*  c #3E1D23",
"=  c #361F29",
"-  c #221F33",
";  c #102631",
":  c #12393F",
">  c #322022",
",  c #3F2026",
"<  c #37212B",
"1  c #39222C",
"2  c #411F23",
"3  c #442225",
"4  c #4D2426",
"5  c #47292F",
"6  c #502626",
"7  c #592A27",
"8  c #5D2C28",
"9  c #57382C",
"0  c #56392D",
"q  c #4B2E34",
"w  c #4B3239",
"e  c #583835",
"r  c #50353B",
"t  c #5D3839",
"y  c #62332F",
"u  c #603A2D",
"i  c #633431",
"p  c #663935",
"a  c #683B37",
"s  c #633D3E",
"d  c #61412E",
"f  c #68452F",
"g  c #634132",
"h  c #6C413D",
"j  c #744B33",
"k  c #755337",
"l  c #0C2847",
"z  c #0B2A49",
"x  c #132844",
"c  c #09335B",
"v  c #134C4B",
"b  c #1B5B46",
"n  c #16534C",
"m  c #1C6A4F",
"M  c #267043",
"N  c #2B7A41",
"B  c #237A4F",
"V  c #207250",
"C  c #0D5E75",
"Z  c #126D76",
"A  c #177875",
"S  c #4A5C5E",
"D  c #6E4340",
"F  c #704643",
"G  c #7F5E4C",
"H  c #666956",
"J  c #63625A",
"K  c #7B7960",
"L  c #825737",
"P  c #855939",
"I  c #8A5C39",
"U  c #93633A",
"Y  c #99673D",
"T  c #9D6B3F",
"R  c #A16D3F",
"E  c #AA733F",
"W  c #87654F",
"Q  c #9E6B40",
"!  c #87745B",
"~  c #987153",
"^  c #A36F40",
"/  c #AB7341",
"(  c #B17642",
")  c #B37944",
"_  c #BA7E46",
"`  c #BA7E48",
"'  c #2C8B4D",
"]  c #32964C",
"[  c #1D8374",
"{  c #D7883C",
"}  c #DD8B3C",
"|  c #E38E3F",
" . c #AB815F",
".. c #A48B67",
"X. c #B18562",
"o. c #C28347",
"O. c #C58648",
"+. c #CB8A4C",
"@. c #DD8E41",
"#. c #D9934F",
"$. c #D38D53",
"%. c #D99350",
"&. c #DD935A",
"*. c #E49143",
"=. c #E89646",
"-. c #E39448",
";. c #EB954A",
":. c #E6994E",
">. c #ED9A4B",
",. c #F0974D",
"<. c #F19D4E",
"1. c #EE9654",
"2. c #E49B54",
"3. c #EC9F55",
"4. c #E79659",
"5. c #EB9F58",
"6. c #F19752",
"7. c #F19E50",
"8. c #EDA14F",
"9. c #EEA253",
"0. c #EDA25C",
"q. c #F5A354",
"w. c #F9A656",
"e. c #F5AA57",
"r. c #F9AD56",
"t. c #F4A55A",
"y. c #FBA65A",
"u. c #F7AA5C",
"i. c #FEAD5D",
"p. c #F9B056",
"a. c #FCB15B",
"s. c #D59661",
"d. c #D19863",
"f. c #D29F70",
"g. c #E4A469",
"h. c #EBA568",
"j. c #F6AA64",
"k. c #FEAD61",
"l. c #F4AC6B",
"z. c #FEAE69",
"x. c #FFB162",
"c. c #FCB26A",
"v. c #025C96",
"b. c #0B6C88",
"n. c #0366A4",
"m. c #016AAA",
"M. c #006FB1",
"N. c #0491D1",
"B. c #0096D9",
/* pixels */
"d.h.j.j.k.i.i.a.i.i.x.z.z.z.k.k.k.k.k.k.k.k.k.k.k.k.k.k.k.k.i.k.k.i.i.i.i.k.i.i.i.k.i.k.i.i.i.i.a.i.i.a.i.i.a.p.i.i.i.x.k.z.h.s.",
"g.l.j.k.i.i.i.r.i.a.k.k.k.x.z.x.k.k.k.i.k.i.i.k.y.k.k.k.k.k.k.y.i.i.i.i.k.a.i.i.i.i.i.a.i.k.i.i.i.i.i.i.p.i.a.i.i.a.a.i.k.j.j.h.",
"l.z.z.i.k.i.a.i.a.x.x.x.k.x.k.k.k.k.k.k.k.k.k.k.k.y.k.i.k.k.k.i.i.i.i.k.i.k.k.i.i.i.i.i.i.i.x.i.a.i.a.i.a.i.a.a.a.a.j.i.i.k.k.j.",
"c.z.k.k.i.k.k.a.x.k.k.k.k.k.k.k.k.y.k.i.k.y.k.k.k.k.k.k.k.y.k.k.k.i.i.i.i.a.i.i.i.i.i.i.i.i.i.i.i.i.i.r.i.a.i.j.i.a.i.i.y.i.i.k.",
"c.k.x.k.i.i.k.i.a.k.i.k.k.k.k.k.k.k.k.k.i.k.k.k.k.k.k.k.y.k.k.i.x.i.i.i.k.i.i.k.i.i.i.i.i.i.i.i.r.i.i.r.i.i.i.a.a.i.i.k.i.y.y.i.",
"x.x.k.i.i.i.y.i.k.i.x.x.k.k.k.k.y.k.k.k.k.k.k.k.k.k.k.i.k.k.k.k.i.i.i.k.i.i.a.i.i.w.w.i.a.i.i.i.i.i.i.i.i.i.i.i.k.j.k.i.k.y.y.i.",
"k.i.i.k.y.q.7.w.i.i.k.k.k.k.k.k.k.k.k.k.y.k.k.k.k.k.k.k.k.k.i.k.i.i.i.i.i.k.k.i.q.>.>.w.k.i.x.i.i.i.i.i.i.i.i.i.i.i.k.k.k.i.y.i.",
"i.i.i.i.w.>.;.<.w.y.i.i.k.k.k.k.k.k.y.y.k.k.y.k.y.k.k.k.k.k.k.y.i.i.k.a.i.i.i.i.q.@.*.7.i.i.i.k.i.i.i.i.i.i.i.i.i.i.i.k.k.y.i.i.",
"i.i.i.i.y.7.7.<.,.q.i.i.y.i.i.i.k.y.k.k.y.k.k.k.i.k.i.k.k.k.k.k.i.a.k.i.k.i.i.i.w.q.>.=.>.w.i.i.k.k.y.j.k.k.i.i.i.i.i.k.k.k.k.k.",
"i.i.a.i.k.i.y.,.| ,.y.i.w.y.y.i.k.k.k.i.k.k.y.k.k.k.k.k.k.i.k.i.i.k.i.i.a.i.i.k.i.i.w.*.} >.i.i.y.k.j.j.k.k.i.i.i.i.i.i.k.k.k.k.",
"i.i.i.i.i.k.y.7.,.q.i.i.y.y.i.k.k.y.i.i.y.k.i.k.i.k.i.k.i.i.i.k.k.a.i.k.i.k.i.k.i.i.w.>.>.w.a.k.k.k.j.j.k.k.k.i.i.r.i.i.k.k.k.y.",
"k.a.x.i.i.k.k.i.y.i.i.i.u.i.y.k.k.k.y.i.i.i.i.i.i.i.k.i.i.i.i.k.i.i.i.i.i.i.i.k.a.x.i.y.y.i.k.k.k.k.k.z.k.k.i.i.i.i.i.i.k.k.k.i.",
"j.j.x.a.i.i.k.y.i.x.x.j.k.u.i.k.i.k.i.i.i.i.i.i.i.i.k.i.k.i.i.i.i.k.k.a.k.i.i.a.k.k.i.i.k.a.a.k.k.k.k.z.k.k.k.i.i.i.i.k.k.k.k.i.",
"x.x.a.j.k.i.y.y.y.i.x.x.k.i.k.i.k.i.i.i.i.i.i.i.i.i.i.i.k.a.i.i.i.i.i.i.i.i.k.i.i.i.i.i.i.k.k.k.k.k.k.k.k.k.k.i.i.i.i.i.y.k.i.i.",
"j.x.k.k.y.y.y.y.i.i.x.k.j.i.u.k.k.k.i.e.y.i.i.i.i.i.i.i.i.i.i.i.i.x.i.i.i.i.i.i.i.k.k.i.i.i.i.i.k.k.k.z.k.k.w.w.r.i.i.k.i.i.i.i.",
"a.x.j.i.i.k.y.y.y.i.i.i.i.i.i.i.a.j.q.=.q.y.i.k.i.i.i.k.i.i.k.i.i.i.i.i.i.k.a.k.i.a.i.i.i.i.k.i.y.k.k.j.i.y.q.=.7.i.i.i.i.i.i.i.",
"k.k.k.y.k.y.k.k.i.k.y.k.i.i.i.y.i.j.8.*.>.y.i.a.a.k.i.i.i.i.a.k.i.i.k.i.k.a.i.i.i.i.a.i.i.i.i.x.k.k.i.y.i.t.;.} >.i.k.i.k.a.k.i.",
"k.k.k.k.y.k.y.k.k.k.k.i.i.i.i.w.9.>.>.3.w.i.k.i.i.i.k.i.k.i.i.i.i.i.i.k.i.i.k.i.i.i.k.k.i.i.i.i.y.k.k.y.7.>.>.>.w.i.a.k.i.i.i.i.",
"k.k.i.i.k.k.k.k.k.y.i.i.i.w.i.q.=.} >.i.k.x.i.i.i.i.i.k.a.i.k.i.k.a.i.a.i.i.k.i.k.i.i.i.i.x.i.i.i.i.i.q.*.} >.i.i.k.i.i.k.a.i.i.",
"i.i.y.k.y.y.k.y.k.y.i.i.i.i.i.w.8.>.q.a.a.k.a.i.i.i.i.i.i.i.i.i.i.k.i.i.k.i.i.i.i.i.i.i.i.i.i.i.i.i.k.y.>.>.w.a.i.i.i.i.i.i.k.i.",
"k.y.y.k.k.k.k.k.k.y.i.i.i.i.i.i.i.i.i.a.k.i.i.i.i.i.i.w.T T ^ ^ Q Q Q Q 3.i.i.i.a.k.i.i.i.i.i.i.k.a.i.i.i.y.i.x.x.i.i.i.i.i.i.i.",
"k.k.k.y.k.y.k.y.i.k.i.i.i.i.i.i.x.x.a.i.a.i.i.i.i.i.e.) % % = 1 1 1 & % U 0.i.i.k.i.i.i.i.i.x.i.i.k.x.k.k.a.i.x.i.i.k.i.i.k.a.i.",
"y.y.i.k.k.y.k.y.k.y.i.i.i.i.i.i.i.y.i.i.r.i.r.i.i.w.( % y y a F F D i y , L t.i.i.i.i.k.i.k.i.i.k.i.x.k.x.k.a.i.i.i.a.k.i.i.k.i.",
"i.k.y.k.k.k.k.k.i.i.i.i.i.i.i.i.i.i.y.i.i.r.i.r.i.^ % y F F F F F F F F p 3 0 k.i.i.k.a.i.k.a.k.i.i.i.a.i.x.k.i.k.a.i.i.k.i.i.k.",
"y.y.i.i.i.i.i.i.k.i.u.i.i.i.i.i.i.y.i.i.r.i.r.r.i.R < h F F F F F F F F F q 0 i.k.i.i.i.i.i.i.i.k.a.i.i.x.i.x.i.i.i.i.i.k.k.i.i.",
"i.i.i.i.i.i.i.i.i.i.i.i.i.i.i.i.i.i.i.r.i.y.i.i.) p s F F F F F F F F F F s e I y.i.k.i.k.i.i.i.i.k.i.i.i.i.i.i.k.i.i.i.i.a.k.i.",
"i.i.i.i.i.i.i.y.y.i.i.i.i.i.w.i.i.i.i.i.i.r.i.i.d q F F F F F F F F F F F F s X e.k.i.i.i.i.k.i.i.i.x.i.i.i.i.i.i.i.a.i.i.k.i.i.",
"i.i.k.i.i.i.i.i.i.i.i.i.i.i.i.i.i.i.i.r.r.i.y.r.d 5 h F F F F F F F F F F h t X e.x.i.i.i.i.a.k.k.i.i.i.i.i.i.i.i.i.k.k.k.a.i.i.",
"i.i.i.i.i.i.i.i.i.i.i.i.i.i.i.i.i.i.r.i.i.r.i.i.d * i F h F F F F F F D D a 6 X t.i.i.i.i.i.k.a.i.a.k.i.i.i.i.i.a.k.i.i.i.i.i.k.",
"i.i.i.i.i.i.i.i.i.i.i.i.i.i.i.i.i.i.i.i.i.y.r.i.d * 8 8 8 F F F F F F i 8 8 6 X u.i.i.k.i.i.i.k.i.i.k.i.i.k.i.x.k.i.i.i.i.i.k.a.",
"i.i.i.i.i.i.i.i.i.i.i.i.i.i.i.i.i.i.r.i.i.i.r.i.e.I * 8 8 y y y i y y 8 8 3 9 5.i.i.i.i.k.i.i.i.i.x.i.i.i.i.i.k.i.i.i.k.i.i.i.i.",
"i.i.i.i.i.i.i.i.i.i.i.y.i.y.i.i.i.i.y.i.r.i.i.i.i.R o 8 8 8 8 8 8 8 8 8 8 2 9 i.i.i.k.k.a.i.i.i.i.i.i.i.k.a.i.i.i.i.k.a.i.k.i.i.",
"i.i.i.i.i.i.i.i.i.y.i.i.i.i.y.i.i.i.i.r.i.i.i.r.i.%.j * 2 7 8 8 8 8 8 4 * u _ i.i.i.i.i.k.i.k.i.i.i.i.k.a.k.i.i.i.i.i.i.i.k.a.k.",
"i.i.i.i.i.i.i.i.i.i.i.i.i.i.i.i.i.i.y.i.r.r.i.i.i.u.` . + 3 4 6 6 4 6 # . P i.i.k.i.a.k.i.i.i.i.a.k.i.i.i.i.i.k.i.i.i.x.i.i.i.i.",
"i.i.i.i.i.i.i.y.i.i.i.r.r.i.r.i.r.i.r.i.i.i.i.i.i.R   O v . X X       : ; X 0 i.i.i.i.k.i.a.k.i.i.i.i.i.i.k.i.k.x.i.i.i.a.i.i.i.",
"i.i.i.i.y.i.i.i.i.i.i.i.y.r.i.i.r.i.i.i.y.r.r.i.Y W X.! v b M N N N b v H  .~ g u.i.i.i.i.k.i.i.i.i.x.i.i.i.i.a.i.i.i.i.k.i.k.i.",
"i.i.i.i.i.i.i.i.i.i.y.i.i.r.y.r.y.i.r.i.i.r.i.i.d W f...n m B ' ] ] V n K f.X.X t.k.i.i.k.i.i.k.i.i.i.i.i.i.i.k.k.a.i.i.i.i.i.i.",
"i.i.i.i.y.r.i.i.i.r.i.r.i.r.i.i.i.i.i.r.i.r.y.i.O.I G J b.Z Z A [ [ Z C S G W / i.a.i.i.i.i.i.a.x.i.k.a.i.k.i.i.i.i.k.i.i.k.i.i.",
"i.i.i.i.i.i.i.i.i.y.i.r.i.i.r.i.r.i.i.y.i.i.r.i.r. .> z B.M.m.v.v.m.m.m.c o L i.i.k.i.k.i.i.k.i.i.i.i.i.i.k.i.i.i.i.i.i.i.i.x.i.",
"i.i.i.i.i.i.i.i.i.i.i.i.r.i.i.i.i.i.r.i.r.i.i.r.r.q.U l N.m.m.c x n.n.n.c f 2.i.i.i.i.i.k.a.i.i.i.i.i.k.i.a.k.i.k.i.i.x.i.i.i.i.",
"i.i.y.i.i.i.i.i.i.i.r.i.r.i.i.i.i.r.i.r.i.i.r.i.9.%.Y + r r - k Y @ w r $ g %.2.i.i.i.i.i.i.i.i.k.i.i.i.i.k.i.i.i.i.i.i.i.k.i.i.",
"i.i.i.i.i.i.r.i.i.i.y.i.r.i.i.a.i.i.i.i.w.w.w.i.2.#.O.E ) ) / o.+.E ) E / _ #.#.i.y.e.i.i.i.i.i.i.i.i.i.i.i.i.i.i.i.k.i.i.i.a.i.",
"i.r.i.i.i.i.i.y.i.r.r.i.i.i.i.x.i.a.i.w.7.>.<.w.t.2.%.%.#.#.#.#.#.#.#.#.%.%.%.t.w.>.>.w.y.i.i.i.i.i.i.i.i.i.i.i.i.i.i.i.i.i.k.i.",
"y.i.i.r.i.r.i.i.i.i.y.i.i.i.x.x.x.k.y.w.<.*.>.w.i.t.0.9.9.5.5.5.5.5.5.9.9.0.t.i.w.>.>.<.q.y.i.i.i.k.i.i.i.i.k.y.i.i.i.i.i.i.i.k.",
"r.i.i.i.r.i.r.i.r.y.i.r.i.i.i.a.a.i.q.>.>.<.w.y.i.i.i.k.i.k.k.a.i.i.a.k.i.k.k.i.y.w.>.>.>.q.i.w.i.i.i.i.i.i.y.i.i.i.i.i.k.k.i.i.",
"i.i.r.y.i.y.r.i.i.i.i.i.i.i.y.y.i.i.>.| >.r.i.i.i.i.i.i.i.i.i.i.i.i.i.i.i.i.i.i.i.i.w.=.*.>.i.w.w.w.y.i.i.i.i.i.i.i.i.i.i.a.k.i.",
"i.y.r.i.i.i.i.i.i.r.i.r.r.i.t.i.i.i.w.>.w.a.i.i.i.x.i.i.i.i.k.i.k.i.i.i.i.k.a.i.i.i.y.q.>.w.i.u.w.y.i.i.i.i.i.i.i.i.i.i.i.i.i.i.",
"i.i.i.i.i.i.y.r.i.r.i.i.i.r.i.y.i.i.j.i.k.x.x.i.i.i.i.i.x.i.i.i.i.i.i.k.i.i.k.i.i.i.x.i.i.i.a.i.i.y.y.i.i.i.y.i.i.y.i.i.k.k.a.i.",
"i.i.i.i.i.y.i.i.r.i.i.i.i.y.e.y.i.k.a.i.k.x.x.i.i.i.i.x.k.a.k.i.i.k.i.i.i.i.k.a.a.i.y.i.u.i.x.i.i.i.i.i.i.i.i.i.i.y.i.i.i.k.i.i.",
"i.i.i.i.i.r.r.i.i.y.i.i.i.i.i.w.i.k.k.i.k.a.x.i.i.i.i.i.i.i.i.i.i.a.k.i.i.k.i.i.i.y.e.i.i.i.a.i.i.w.i.i.k.i.y.k.i.i.i.i.i.k.k.k.",
"a.i.i.i.i.r.r.w.w.w.a.k.u.i.i.w.i.a.a.i.i.i.i.i.i.i.i.i.i.i.k.i.i.i.i.i.i.i.i.i.i.y.y.y.i.i.i.i.i.i.u.j.k.k.y.w.y.i.i.i.i.k.k.k.",
"k.k.i.i.i.i.y.,.*.q.x.x.i.i.i.i.k.k.k.i.k.i.x.i.x.i.i.x.i.x.i.k.i.x.i.x.i.x.i.i.i.i.y.i.y.i.i.i.i.j.i.k.c.k.7.=.7.i.y.k.y.y.i.z.",
"x.x.x.x.i.i.y.<.*.9.j.u.u.i.i.j.x.i.i.i.k.k.x.i.i.x.i.a.k.k.i.a.k.k.a.k.x.i.i.i.i.i.i.i.i.i.i.i.i.i.j.j.x.j.3.*.7.i.k.i.k.y.k.k.",
"k.x.k.x.a.i.y.7.8.>.:.8.u.j.i.x.k.k.x.i.i.a.i.i.a.i.x.i.a.k.x.i.a.k.i.k.i.i.x.i.i.i.i.i.i.i.i.i.i.i.u.u.9.:.3.q.y.k.k.k.k.z.j.z.",
"k.k.x.x.x.k.i.i.y.>.{ -.0.i.k.x.k.a.x.i.x.i.i.x.k.x.i.k.k.k.k.k.x.i.x.i.i.x.x.i.i.i.i.i.i.y.i.i.j.u.u.9.@.@.9.k.k.k.k.c.z.x.c.c.",
"k.k.x.a.k.i.i.i.i.q.>.q.t.i.i.i.i.x.i.k.k.a.i.x.k.i.a.k.k.a.a.k.i.k.k.a.x.i.i.i.i.i.i.i.i.i.i.i.i.i.a.e.9.8.e.x.k.k.k.k.k.z.k.z.",
"a.i.i.i.k.y.y.k.k.j.a.i.r.i.i.i.k.k.a.a.k.k.i.i.k.a.a.k.k.a.i.k.x.i.a.k.k.i.i.i.i.i.i.i.i.i.i.y.i.a.p.p.a.a.a.x.k.k.k.k.k.z.z.z.",
"w.y.i.i.k.k.y.k.i.i.i.i.i.a.i.a.a.k.k.k.x.i.x.k.k.k.k.k.k.i.x.k.x.i.i.x.i.x.k.a.i.x.i.i.i.i.i.i.i.a.a.p.a.a.a.i.k.i.y.k.k.k.k.t.",
"<.i.i.i.y.y.7.k.i.y.w.r.p.i.a.i.a.k.k.i.i.a.k.k.k.a.i.a.k.a.i.a.i.i.a.i.i.x.k.i.i.i.i.i.i.i.i.i.i.p.p.p.p.p.i.i.i.k.y.k.y.j.y.1.",
",.y.y.y.y.k.y.k.y.i.r.r.p.a.i.a.i.k.i.i.i.k.k.a.k.k.k.x.k.k.x.i.i.x.k.k.i.i.x.i.i.i.i.i.i.i.i.i.i.a.a.a.p.p.i.u.k.k.k.k.k.j.y.1.",
",.y.i.i.i.y.k.y.i.i.r.p.p.p.a.i.i.k.i.k.i.k.i.x.x.x.i.x.a.k.k.k.i.x.k.a.x.x.i.a.i.i.i.i.i.i.a.i.i.p.a.u.y.i.i.k.y.j.k.k.k.k.6.6.",
"1.y.y.i.i.i.k.k.i.r.p.p.p.p.a.i.i.k.k.k.k.k.k.k.k.k.k.k.k.x.k.x.a.i.k.i.i.i.k.k.k.i.i.x.i.i.i.i.a.i.a.p.i.k.i.k.z.y.k.k.7.k.7.4.",
"4.y.k.i.i.i.i.i.i.r.p.p.p.p.a.i.i.k.i.k.k.k.k.k.x.k.x.i.k.k.x.k.k.k.i.x.k.k.k.a.a.k.i.k.i.i.i.i.i.a.i.r.y.y.k.j.j.j.k.y.y.j.t.&.",
"&.j.z.i.i.y.i.i.i.i.r.p.p.p.i.i.i.k.k.k.k.i.i.k.k.k.x.k.x.k.k.k.a.k.k.k.a.a.k.k.k.i.i.a.i.i.i.i.i.i.r.i.k.k.y.j.y.j.k.y.y.k.0.$."
};
