/* XPM */
static char *result[] = {
/* columns rows colors chars-per-pixel */
"64 64 142 2 ",
"   c #0F071B",
".  c #140C1D",
"X  c #1A0D1E",
"o  c #27131F",
"O  c #0F0F21",
"+  c #0F1223",
"@  c #0D142D",
"#  c #1B1020",
"$  c #101927",
"%  c #261620",
"&  c #291420",
"*  c #2B1B25",
"=  c #311721",
"-  c #341A23",
";  c #112E37",
":  c #113139",
">  c #3D2324",
",  c #3B232C",
"<  c #342531",
"1  c #401E23",
"2  c #4E2526",
"3  c #462428",
"4  c #562927",
"5  c #5D2C28",
"6  c #4D3328",
"7  c #5D302E",
"8  c #432E38",
"9  c #4C3238",
"0  c #553437",
"q  c #50393F",
"w  c #5B383A",
"e  c #62322F",
"r  c #653734",
"t  c #653B39",
"y  c #693D39",
"u  c #5E4535",
"i  c #63412F",
"p  c #674533",
"a  c #6A4535",
"s  c #6C403D",
"d  c #7F5236",
"f  c #134748",
"g  c #195747",
"h  c #165149",
"j  c #1D504D",
"k  c #17594E",
"l  c #1E6145",
"z  c #1B664F",
"x  c #246D43",
"c  c #2C7B41",
"v  c #267F4E",
"b  c #207250",
"n  c #0A4370",
"m  c #135971",
"M  c #106776",
"N  c #116D76",
"B  c #187A75",
"V  c #3C666F",
"C  c #6E4341",
"Z  c #704643",
"A  c #705345",
"S  c #7A5741",
"D  c #7F5E4B",
"F  c #715E51",
"G  c #546254",
"H  c #646F5B",
"J  c #825737",
"K  c #8B5D3A",
"L  c #9E6B3F",
"P  c #A8723F",
"I  c #8B6040",
"U  c #9E6B40",
"Y  c #997A5D",
"T  c #AC7441",
"R  c #B17641",
"E  c #B57B45",
"W  c #A57B5B",
"Q  c #2A864D",
"!  c #32964C",
"~  c #1C8274",
"^  c #D7883C",
"/  c #DD8B3C",
"(  c #E38E3F",
")  c #AB815F",
"_  c #BB956C",
"`  c #C2834A",
"'  c #C9894C",
"]  c #DD8E41",
"[  c #D08D4E",
"{  c #D8934F",
"}  c #D38D53",
"|  c #DA9451",
" . c #DD935A",
".. c #E49143",
"X. c #E89646",
"o. c #E39448",
"O. c #EB954A",
"+. c #E6994E",
"@. c #ED9A4B",
"#. c #F0974D",
"$. c #F19D4E",
"%. c #E79450",
"&. c #EE9654",
"*. c #E49B53",
"=. c #EB9F55",
"-. c #E79659",
";. c #F19752",
":. c #F19E50",
">. c #EDA14F",
",. c #EEA154",
"<. c #EDA35F",
"1. c #F5A354",
"2. c #F9A656",
"3. c #F5AA57",
"4. c #F9AD56",
"5. c #F4A55A",
"6. c #FBA65A",
"7. c #F7A95C",
"8. c #FEAD5D",
"9. c #F9B056",
"0. c #FCB15B",
"q. c #C8976C",
"w. c #D59661",
"e. c #D19863",
"r. c #D29F70",
"t. c #E4A469",
"y. c #EBA568",
"u. c #F6AA64",
"i. c #FEAD61",
"p. c #F4AC6B",
"a. c #FEAE69",
"s. c #FFB162",
"d. c #FCB26A",
"f. c #085785",
"g. c #03568F",
"h. c #065A8A",
"j. c #0D6C82",
"k. c #03609D",
"l. c #0265A3",
"z. c #0069AA",
"x. c #0482C1",
"c. c #0086C9",
/* pixels */
"e.y.u.u.i.8.8.0.8.8.s.a.a.a.i.i.i.i.i.i.i.i.i.i.8.i.6.i.i.i.i.8.8.i.8.8.8.i.8.8.8.8.8.i.i.8.8.8.8.8.8.0.8.0.8.9.8.0.s.s.i.u.y.w.",
"t.p.u.i.8.8.8.4.8.0.i.i.i.s.a.s.i.i.6.i.i.i.i.i.i.i.i.i.i.i.i.8.8.8.i.8.8.8.8.8.i.8.8.0.8.8.8.8.0.8.8.8.8.0.0.8.0.8.8.0.i.u.u.y.",
"p.a.a.8.i.8.i.0.0.s.s.s.i.i.i.i.i.8.i.i.8.i.6.i.i.i.i.i.i.6.i.i.8.i.8.8.8.i.8.i.8.8.8.8.8.8.0.8.8.8.8.0.0.8.7.0.8.s.8.8.8.i.i.u.",
"d.a.i.i.8.i.8.0.s.i.i.i.i.s.i.i.i.i.8.i.i.i.i.i.i.i.6.i.i.i.8.8.8.8.8.8.8.0.8.8.8.8.i.8.8.i.i.8.4.8.4.8.8.0.0.i.0.7.8.8.6.8.8.i.",
"d.i.s.i.8.8.i.8.0.i.i.8.i.i.i.i.i.6.i.i.i.i.i.6.i.i.i.8.i.i.i.i.8.8.s.8.i.8.8.8.8.8.8.8.i.8.8.8.8.0.8.8.8.0.8.0.u.8.8.8.i.6.6.8.",
"s.s.i.8.8.8.6.8.i.8.s.s.i.i.i.i.i.i.i.i.i.i.i.i.8.i.i.i.6.i.i.i.8.8.8.8.8.8.8.s.8.2.2.8.8.8.8.8.8.8.8.8.8.8.8.8.0.i.i.i.8.6.2.8.",
"i.8.8.i.6.1.:.2.8.8.i.i.i.i.i.i.i.8.i.i.6.i.i.i.i.6.i.i.i.i.i.6.8.8.8.8.s.8.8.8.1.@.@.2.8.0.0.i.8.8.8.6.8.8.8.8.0.i.8.i.i.6.6.8.",
"8.8.8.8.2.@.O.$.2.6.8.8.i.i.i.i.i.i.6.i.6.i.i.i.i.i.i.i.i.i.i.8.0.i.8.8.8.8.8.8.:.....:.8.8.i.8.8.8.8.8.8.8.8.8.8.8.i.8.i.i.i.8.",
"8.8.8.8.6.2.:.:.#.1.8.8.6.8.8.6.8.i.6.i.6.i.6.i.i.i.i.i.8.i.i.8.i.8.8.i.8.i.8.8.2.:.@.@.@.2.8.8.i.u.6.u.i.i.8.8.8.8.8.8.i.i.i.8.",
"8.8.8.8.8.6.6.O.( #.2.8.2.8.6.i.i.8.i.i.6.i.i.i.i.8.i.i.i.i.i.i.8.8.8.8.8.8.0.i.8.8.1.../ @.8.i.i.i.u.u.i.i.8.8.8.8.8.8.i.i.i.i.",
"8.8.0.i.i.8.8.:.#.1.8.8.6.6.8.i.8.8.i.6.i.8.8.8.8.8.i.8.8.i.8.8.8.i.8.0.8.8.8.8.8.8.6.@.@.1.s.8.i.6.u.u.i.i.8.8.8.6.8.8.i.i.i.i.",
"i.0.8.8.i.i.i.6.6.8.8.8.6.8.6.i.8.u.i.8.8.8.i.8.8.8.8.8.8.8.s.8.8.8.8.i.i.i.0.8.8.8.8.8.6.8.0.i.i.i.i.i.a.i.8.8.8.8.8.8.i.i.8.8.",
"i.u.s.0.8.8.8.8.8.i.s.s.i.8.8.i.i.i.8.8.8.8.8.8.8.8.8.8.8.8.8.8.8.8.8.8.8.8.i.i.0.i.8.8.8.s.s.8.i.i.i.a.i.i.i.8.8.8.8.i.i.i.i.8.",
"u.s.0.s.i.6.6.6.6.8.s.i.i.8.8.u.6.8.8.8.8.8.8.i.i.8.i.8.s.8.8.8.s.8.8.8.0.i.0.8.i.8.8.8.8.8.8.i.i.i.i.i.i.i.i.8.8.8.8.8.6.i.8.8.",
"s.u.u.8.i.6.6.6.6.i.s.s.u.8.8.8.8.i.6.2.2.8.8.8.8.i.8.8.8.8.8.8.8.8.8.s.i.8.8.8.8.8.0.8.8.8.8.i.i.i.i.a.i.i.2.2.6.0.8.i.8.8.8.8.",
"s.s.i.i.6.i.6.6.8.8.i.8.0.7.8.8.s.s.1.@.1.6.8.8.8.8.8.8.8.8.i.i.8.8.8.8.8.8.8.i.8.8.i.i.8.8.8.8.i.i.i.i.8.8.:.X.:.8.8.8.8.8.8.8.",
"8.i.i.8.u.8.6.i.8.i.6.8.6.8.8.8.0.i.,.( @.6.0.8.8.0.i.8.8.8.8.0.8.8.8.8.i.0.8.8.8.8.8.8.8.8.8.i.6.i.i.6.8.1.O./ @.8.s.8.8.8.8.8.",
"8.i.i.i.8.8.i.6.i.8.i.8.8.8.6.3.,.+.@.1.2.8.8.i.8.8.i.8.i.8.8.8.8.8.i.i.8.i.8.8.8.s.8.8.i.8.8.0.i.6.i.6.$.@.@.@.2.8.i.8.8.8.i.0.",
"i.i.i.6.6.i.6.i.i.8.8.8.8.8.6.2.X.^ @.8.0.s.s.8.8.8.8.0.8.8.i.8.8.s.8.0.8.8.i.8.8.8.i.8.8.8.8.i.8.8.8.1.../ @.8.8.i.0.8.8.8.8.8.",
"6.i.6.i.i.6.i.i.i.6.8.8.8.6.8.6.>.@.1.0.i.8.8.8.8.8.8.8.0.8.8.8.8.8.8.i.8.8.8.8.8.8.8.8.i.0.8.8.8.i.i.2.>.@.1.8.8.8.i.8.8.i.8.8.",
"i.6.i.i.i.i.i.6.i.6.8.8.8.8.8.8.8.8.8.0.0.8.8.8.8.8.8.| L L L L U U U T 8.8.i.8.s.8.8.8.0.i.8.8.8.s.0.i.8.6.8.s.0.i.8.8.0.8.i.8.",
"i.i.6.6.6.i.i.i.i.8.8.8.8.8.8.i.s.s.0.8.8.8.8.8.8.8.+.d o - , , , - = > ` 6.8.8.8.8.8.8.8.8.i.8.8.8.8.s.i.8.s.s.i.8.8.8.i.8.8.8.",
"6.i.6.i.6.i.8.i.i.8.8.8.8.8.8.8.8.8.8.8.8.4.4.8.8.1.i 3 e r Z Z C s r 5 o ' 8.8.8.8.s.8.i.8.8.i.8.8.8.8.s.s.8.8.8.i.0.i.8.8.8.8.",
"8.6.8.i.i.i.i.6.6.8.8.8.8.8.8.8.8.6.8.4.8.6.4.8.8.% 2 a Z Z Z Z Z Z C C 7 o ` s.8.8.8.8.8.8.8.0.8.s.s.8.0.i.8.8.8.8.i.8.8.8.8.s.",
"8.8.8.8.8.8.8.8.8.8.8.8.8.8.8.8.8.6.8.8.6.4.4.8.2.o 0 Z Z Z Z Z Z Z Z Z C * ` i.8.8.8.s.8.8.i.8.8.8.8.s.8.s.8.i.0.i.8.8.8.8.8.8.",
"6.8.8.8.8.8.8.8.8.6.8.8.8.8.8.8.8.8.8.8.8.4.8.2.J 0 s Z Z Z Z Z Z Z Z Z Z w a ' 8.8.8.8.8.8.8.8.8.8.8.8.8.8.8.8.8.8.8.8.8.s.8.8.",
"8.8.8.8.8.8.8.8.8.6.8.8.8.8.8.8.8.8.4.8.4.8.8.*.# C Z Z Z Z Z Z Z Z Z Z Z Z , K 8.s.8.8.8.s.8.8.8.i.8.8.8.8.i.8.8.8.8.8.8.8.8.8.",
"8.8.8.8.8.8.8.8.8.8.8.8.8.8.8.6.8.8.4.8.8.6.8.*.X t C Z Z Z Z Z Z Z Z Z Z C , K 8.8.8.8.8.8.8.8.0.8.i.i.0.8.0.8.i.8.8.s.8.8.8.s.",
"8.8.8.8.8.8.8.8.8.8.6.8.8.8.8.8.8.8.8.8.4.8.4.*.X 4 y s C Z Z Z Z Z Z s Z r = K 8.8.8.s.i.8.8.8.i.8.8.i.8.8.8.8.8.i.i.0.8.8.8.8.",
"8.8.8.8.8.8.8.6.8.8.8.8.8.8.8.8.8.8.8.4.8.4.8.*.X 4 5 7 r Z Z Z Z Z y 5 5 5 - K 8.8.8.8.8.8.8.i.8.8.8.8.8.i.8.i.8.8.8.8.8.s.8.8.",
"8.8.i.8.8.8.8.8.8.8.8.8.8.6.8.8.8.8.8.8.8.4.8.4.| - 2 5 7 e e e r e e 5 5 - L 2.8.s.8.i.8.0.i.0.8.8.8.0.i.0.8.8.8.8.8.8.8.8.8.8.",
"8.8.8.8.8.8.8.8.8.6.8.8.8.8.8.8.8.8.6.6.6.8.8.8.0.% 2 5 5 5 5 5 5 5 5 5 5 & ` 8.8.8.8.8.8.i.8.8.8.i.8.i.8.8.8.8.s.8.i.8.8.i.0.i.",
"8.0.8.6.6.8.8.8.8.8.8.8.8.8.8.8.8.8.8.8.8.8.8.4.8.P 7 - 2 5 5 5 5 5 4 - 1 J *.8.8.8.8.8.s.8.8.i.8.i.8.8.8.8.8.8.8.s.8.8.i.0.i.8.",
"8.8.8.8.8.8.8.8.8.4.8.8.4.8.6.8.8.8.4.4.6.4.8.8.8.3.i O % 2 2 4 2 2 3 +   [ 8.8.8.s.8.8.8.8.8.8.8.0.8.i.s.8.8.8.8.8.8.8.8.8.i.8.",
"8.8.8.8.8.8.6.8.8.8.4.8.8.4.8.8.6.8.6.8.4.8.8.8.2.* . ; :           $ f + . ` 8.8.8.8.8.8.i.8.8.8.8.8.8.8.8.8.s.8.8.i.8.8.s.8.8.",
"8.8.8.8.8.8.8.8.8.8.8.6.8.8.4.8.8.4.8.8.4.8.8.,.p W ) G h l c c c x g j Y W S E 8.8.8.s.8.8.0.i.8.s.8.8.8.8.8.8.8.8.0.i.8.8.8.8.",
"8.8.8.8.8.8.8.8.8.8.4.8.8.8.4.6.8.8.6.4.8.8.4.*.* q.r.H k b v ! ! Q z j _ r.A I 8.8.8.8.8.8.8.8.8.8.8.0.i.8.8.8.8.8.8.s.8.8.8.s.",
"8.8.8.8.6.8.8.8.8.6.8.6.4.8.8.8.4.8.8.8.4.8.8.2.P D D V j.M N B ~ B M m F I I } 8.s.8.8.8.s.8.8.8.8.8.i.i.8.8.8.8.8.8.8.8.8.8.8.",
"8.8.8.8.8.8.8.8.8.8.4.8.8.4.4.8.6.8.4.8.8.6.4.8.7.i X h.c.z.z.g.k.z.z.l.@ > } 8.8.8.8.8.8.8.i.8.i.8.8.8.8.8.8.8.8.i.8.8.8.s.8.8.",
"8.8.8.8.8.8.8.8.8.8.4.8.6.8.8.8.4.8.4.8.4.8.8.8.8.{ 6 f.x.l.l.; n l.l.k.@ T 5.8.8.8.8.s.8.8.8.8.0.i.8.8.8.8.s.8.i.0.8.8.8.8.8.8.",
"8.8.8.8.8.8.8.8.8.6.4.4.8.8.8.8.8.8.8.4.8.8.4.8.| { 6 < q 8 @ R u , 0 9 . T | <.0.i.i.8.8.8.8.8.8.8.8.8.8.i.8.8.8.8.8.8.8.8.8.8.",
"6.8.4.8.8.8.8.6.8.8.8.8.4.8.8.0.8.8.8.8.2.2.2.2.{ { E R E P P [ ) P P P T ' | ,.8.2.2.8.8.8.8.0.i.8.8.8.8.8.8.8.8.8.8.i.8.i.8.8.",
"8.8.8.8.4.8.8.4.8.8.4.6.8.8.0.s.0.s.8.2.:.@.$.2.1.{ { { { { { } { { +.{ } { =.8.6.@.$.2.6.8.8.8.8.8.8.8.8.8.8.8.8.8.8.8.8.i.i.8.",
"8.6.4.8.8.6.8.8.4.8.8.8.8.8.s.s.s.0.6.1.@.X.@.2.8.<.=.,.,.=.=.,.<.,.,.,.,.=.7.8.2.@.@.@.1.6.8.0.i.8.8.8.8.8.8.i.8.8.8.8.8.0.8.8.",
"8.8.6.8.8.8.6.4.6.4.8.8.8.8.8.0.8.8.1.@.@.:.1.4.i.8.8.i.8.8.i.0.8.8.8.8.8.8.8.8.6.1.@.@.@.1.8.6.8.8.8.8.8.8.6.6.8.8.8.8.i.8.8.8.",
"4.4.8.4.4.8.8.8.8.8.8.4.8.8.6.8.8.8.@./ @.6.8.8.0.i.8.8.i.8.8.8.8.8.8.8.s.8.8.8.8.8.2.X...@.6.6.2.2.6.8.8.8.8.8.8.8.8.8.8.8.8.s.",
"8.8.6.8.8.8.4.8.8.4.8.4.8.4.6.6.8.8.1.>.2.8.0.i.8.8.i.8.8.8.8.i.8.8.8.s.8.8.8.s.0.8.8.1.@.2.8.7.2.6.8.8.8.8.6.8.8.8.8.8.0.i.8.8.",
"8.8.8.8.8.8.4.8.8.4.8.8.6.8.6.7.i.0.8.8.i.s.s.s.8.8.8.i.0.8.8.8.i.8.8.8.8.8.8.8.i.8.8.8.8.8.8.8.8.6.6.8.8.8.8.8.8.6.8.8.i.8.8.8.",
"8.8.8.8.8.4.8.6.8.4.8.8.8.8.6.8.8.i.0.8.i.s.s.8.8.8.0.i.8.0.i.8.i.0.8.8.8.8.8.8.8.8.8.8.8.8.0.8.8.8.6.8.8.8.8.6.i.8.8.8.8.8.i.8.",
"8.8.8.6.8.6.4.8.8.8.8.8.8.6.2.3.8.i.i.8.i.0.s.8.8.8.i.8.8.8.i.8.i.8.8.8.i.i.0.i.8.6.3.2.6.8.i.8.4.6.8.8.i.8.8.8.6.8.8.i.8.i.i.i.",
"s.8.8.8.8.4.6.2.1.2.0.0.7.8.8.6.8.0.8.8.8.8.8.8.8.8.8.8.8.8.8.8.8.8.8.8.8.8.8.8.8.2.7.6.8.8.8.8.8.8.i.i.i.i.6.1.6.8.8.8.i.i.i.i.",
"s.8.s.0.8.8.2.#.X.1.s.s.8.8.8.8.i.8.s.8.i.8.s.8.s.8.8.s.8.s.i.i.0.i.s.8.8.s.8.8.8.8.8.8.6.8.8.8.7.8.i.u.d.i.:.O.:.8.8.6.8.6.i.i.",
"s.i.i.s.i.8.6.@...,.7.u.7.8.i.i.i.s.8.8.8.s.i.0.8.s.8.0.i.i.i.0.i.i.i.0.i.i.i.8.8.8.8.8.6.8.8.8.i.i.i.u.u.7.=...:.8.i.i.6.u.i.i.",
"i.s.0.s.0.8.8.:.=.@.+.,.7.u.8.s.i.0.8.s.8.8.i.8.8.8.s.8.s.8.i.0.i.0.i.i.0.8.0.i.8.8.8.8.8.8.8.8.i.7.u.7.,.+.=.1.2.i.i.i.i.i.i.a.",
"i.s.s.s.s.i.8.8.8.@.^ o.,.8.i.i.i.i.s.8.s.8.8.s.s.s.8.i.8.i.i.i.8.i.8.s.8.s.i.0.8.8.8.8.8.8.8.8.8.0.u.,.] ] ,.s.i.i.i.i.i.d.d.d.",
"i.8.8.s.i.8.8.8.6.1.@.,.4.7.8.i.i.0.8.i.i.0.8.s.8.8.0.i.0.i.0.i.s.i.0.8.8.s.i.8.8.8.8.8.8.8.8.8.8.7.9.3.,.>.4.s.i.i.i.i.a.i.a.a.",
"8.8.8.8.i.6.6.i.i.8.8.0.8.8.0.8.i.i.0.0.i.i.8.8.i.0.0.i.i.0.8.i.8.0.8.s.8.i.8.8.i.8.0.8.8.8.8.6.0.0.9.0.0.0.0.s.i.i.i.i.i.a.a.a.",
"2.2.8.8.6.i.6.6.i.8.8.8.4.8.8.8.0.i.i.i.s.8.s.i.i.i.i.i.i.8.s.i.i.i.i.i.0.i.8.s.8.8.i.8.8.8.8.8.8.0.9.0.0.0.0.8.i.i.i.i.i.u.a.:.",
"$.8.8.8.i.:.6.i.6.2.6.4.9.8.0.0.8.i.i.8.8.0.i.i.i.0.i.0.8.s.8.0.i.i.0.0.8.s.8.8.8.8.8.i.8.8.8.8.8.0.9.9.9.9.8.8.i.i.i.6.i.a.i.&.",
"#.2.8.6.i.u.6.i.8.8.4.4.9.0.0.8.0.i.8.8.8.i.i.0.i.i.i.i.0.i.s.8.0.i.i.i.0.8.s.8.8.i.8.0.8.8.8.8.8.0.0.9.9.9.6.i.i.6.i.i.6.u.;.;.",
"#.6.8.8.8.6.i.6.8.4.4.4.9.9.8.0.8.i.8.i.8.i.8.s.s.s.8.s.0.i.i.i.8.s.i.0.i.s.8.0.8.8.8.8.0.8.8.8.8.8.9.9.8.4.6.i.u.i.i.6.8.6.5.&.",
"&.6.8.8.8.8.i.i.8.8.9.9.9.9.0.8.8.i.i.i.i.i.i.i.i.i.i.i.i.s.i.s.0.8.i.8.i.8.i.i.s.8.8.8.i.8.8.8.8.9.8.0.8.8.i.i.u.i.i.i.6.8.:.%.",
"-.u.8.8.8.8.8.8.8.8.9.9.9.9.8.8.8.i.8.i.i.i.i.i.s.i.s.8.i.i.s.i.i.i.8.s.i.i.i.0.i.8.8.i.8.8.8.8.4.8.8.9.8.i.i.6.6.a.i.6.6.6.u. .",
" .u.i.8.6.8.8.8.8.4.4.9.9.9.8.0.8.i.i.i.i.8.8.i.i.i.s.i.s.i.i.i.0.i.i.i.0.0.i.i.i.0.8.8.8.8.0.8.8.8.4.8.u.:.u.u.u.u.i.6.8.u.=.} "
};
