/* XPM */
static char *result[] = {
/* columns rows colors chars-per-pixel */
"64 64 132 2 ",
"   c #0F0F21",
".  c #0F1022",
"X  c #121C25",
"o  c #101E2B",
"O  c #1B1C32",
"+  c #241625",
"@  c #2F1E22",
"#  c #261A29",
"$  c #311721",
"%  c #371A22",
"&  c #3C1D23",
"*  c #152023",
"=  c #12202D",
"-  c #18202B",
";  c #3B2626",
":  c #401E23",
">  c #442226",
",  c #4A2526",
"<  c #442328",
"1  c #4E2C2F",
"2  c #592A27",
"3  c #5D2C29",
"4  c #5F3F2E",
"5  c #462B32",
"6  c #4A2D32",
"7  c #543437",
"8  c #583736",
"9  c #583836",
"0  c #52353A",
"q  c #653733",
"w  c #673A36",
"e  c #6B3F3C",
"r  c #60402E",
"t  c #664330",
"y  c #6A4631",
"u  c #6D423E",
"i  c #754E33",
"p  c #7C5335",
"a  c #70513F",
"s  c #0B2748",
"d  c #0A3A5E",
"f  c #113152",
"g  c #134446",
"h  c #15524D",
"j  c #1E6D4F",
"k  c #1E6E50",
"l  c #247C4E",
"z  c #0C5B74",
"x  c #116C76",
"c  c #1A7D75",
"v  c #5C5B4E",
"b  c #6D4340",
"n  c #704643",
"m  c #745544",
"M  c #7A5B4A",
"N  c #6E7576",
"B  c #825536",
"V  c #845939",
"C  c #8C613C",
"Z  c #9C6A3D",
"A  c #A9733F",
"S  c #875E41",
"D  c #A36E40",
"F  c #AB7340",
"G  c #B17642",
"H  c #B47A45",
"J  c #BC7F49",
"K  c #2A854D",
"L  c #2D8D4C",
"P  c #2F904C",
"I  c #32964B",
"U  c #33984B",
"Y  c #1D8473",
"T  c #D7883C",
"R  c #DD8B3C",
"E  c #E38E3F",
"W  c #8A8D79",
"Q  c #908871",
"!  c #C08246",
"~  c #C48549",
"^  c #CC8B4C",
"/  c #DD8E41",
"(  c #D8934F",
")  c #D38D53",
"_  c #DA9451",
"`  c #DD935A",
"'  c #E49143",
"]  c #E89646",
"[  c #E39448",
"{  c #EB954A",
"}  c #E6994E",
"|  c #ED9A4B",
" . c #F0974D",
".. c #F19D4E",
"X. c #E79450",
"o. c #EE9654",
"O. c #E49A54",
"+. c #EB9F55",
"@. c #E79659",
"#. c #F19752",
"$. c #F19E50",
"%. c #EDA14F",
"&. c #EEA252",
"*. c #EDA25C",
"=. c #F5A354",
"-. c #F9A656",
";. c #F5AA57",
":. c #F9AD56",
">. c #F5A55A",
",. c #FBA65A",
"<. c #F7A95C",
"1. c #FEAD5D",
"2. c #F9B056",
"3. c #FCB15B",
"4. c #D59661",
"5. c #D19863",
"6. c #EBA466",
"7. c #E4A469",
"8. c #EBA568",
"9. c #F6AA64",
"0. c #FEAD61",
"q. c #F4AC6B",
"w. c #FEAE69",
"e. c #FFB162",
"r. c #FCB26A",
"t. c #025C97",
"y. c #0C6C86",
"u. c #0366A4",
"i. c #0069AA",
"p. c #68868B",
"a. c #048BCB",
"s. c #0090D3",
/* pixels */
"5.8.9.9.0.1.1.3.1.1.e.w.w.r.0.0.0.0.1.0.,.0.0.0.0.1.0.0.,.0.0.1.1.1.0.1.1.1.0.1.1.1.3.1.1.0.1.1.3.1.1.3.3.1.3.1.3.1.3.e.0.9.8.4.",
"7.q.9.0.1.1.1.:.1.3.0.0.0.0.w.e.0.0.0.0.0.0.0.0.0.0.,.0.0.0.0.0.1.0.1.1.1.1.1.1.0.1.0.1.1.1.1.1.0.1.1.1.<.3.1.3.3.1.1.1.0.w.9.6.",
"q.w.w.1.0.1.3.1.3.e.0.e.0.0.0.0.1.0.0.0.0.0.1.,.0.0.0.0.1.0.0.1.1.1.0.1.1.1.1.3.1.1.3.1.1.0.0.1.1.1.3.1.3.1.<.3.<.e.1.1.1.0.0.9.",
"r.w.0.0.1.0.0.3.e.0.e.0.0.e.0.0.0.0.0.0.0.0.0.0.,.0.0.0.0.0.0.0.1.1.1.1.1.1.0.0.1.0.1.1.1.3.1.1.1.:.1.:.1.3.3.0.3.3.1.1.,.1.0.0.",
"r.0.e.0.1.1.0.1.3.0.1.0.0.0.0.0.0.0.0.0.0.0.0.0.0.0.0.0.0.0.,.0.1.1.0.1.1.3.0.1.1.1.1.1.1.1.1.1.3.1.,.:.1.3.1.3.<.1.1.0.1.,.,.1.",
"e.e.0.1.1.1.,.1.0.1.e.e.0.0.0.0.0.0.0.,.0.,.0.0.0.0.0.0.0.1.0.0.1.0.3.1.0.1.1.1.1.-.,.1.1.0.3.1.1.1.1.1.1.1.1.1.e.0.0.1.0.,.-.1.",
"0.1.1.0.,.=.$.-.1.1.0.0.0.0.0.0.0.,.0.,.0.,.0.0.0.0.0.0.0.0.0.1.1.0.1.1.0.3.1.0.=.] | -.1.0.1.1.1.1.1.1.1.1.1.1.1.0.0.0.0.,.,.1.",
"1.1.1.1.-.| { ..-.,.1.1.0.0.0.0.0.1.0.0.0.0.,.0.0.1.0.,.0.,.0.0.1.1.1.0.1.1.1.1.=.E ' $.1.1.e.1.1.1.1.1.1.1.0.1.1.1.1.0.0.0.1.1.",
"1.1.1.1.1.$.$... .=.1.1.,.1.1.,.1.0.,.1.0.,.0.0.0.0.0.0.1.0.0.1.1.1.1.0.1.0.3.1.-.$.| | | -.1.1.0.0.,.9.0.0.1.1.1.1.1.1.0.0.0.0.",
"1.1.1.1.1.1.,.{ E  .-.1.-.1.,.0.0.0.0.0.0.0.1.0.1.1.0.0.0.0.0.0.3.0.1.1.1.1.0.1.1.1.=.' R | 1.1.,.0.9.9.0.0.1.1.1.1.1.1.0.0.0.0.",
"1.3.1.1.1.0.,.=. .=.1.1.,.,.0.1.,.0.0.,.1.,.0.1.0.1.0.1.1.0.0.1.1.1.1.1.1.1.1.1.1.1.,.| | =.1.1.0.0.9.9.0.0.1.1.1.1.1.1.1.0.0.,.",
"e.1.0.1.1.0.0.,.,.1.1.1.,.1.,.0.0.1.0.1.1.1.1.0.1.1.1.1.1.1.1.1.1.1.e.1.1.e.1.1.e.0.3.,.,.1.e.0.0.0.0.0.w.0.1.1.1.:.1.1.0.0.0.0.",
"0.9.3.e.1.0.1.1.1.1.e.9.0.1.0.,.0.0.1.1.1.1.1.1.1.1.1.1.1.0.1.1.1.1.0.1.1.0.1.e.1.3.0.3.0.1.1.e.0.0.w.0.0.0.0.1.1.1.1.1.0.0.1.1.",
"9.e.e.1.0.,.,.,.1.1.e.e.0.1.9.0.,.0.1.1.1.1.1.0.0.1.0.1.1.1.3.0.3.0.3.1.1.1.1.1.1.0.1.1.1.1.0.1.0.0.w.0.0.0.0.1.1.1.1.0.0.1.1.1.",
"e.9.9.3.,.,.,.,.,.1.e.0.e.<.3.0.3.0.,.-.,.1.1.1.1.0.1.1.1.1.1.1.0.1.1.1.1.e.1.1.1.1.1.1.1.0.1.e.0.0.0.0.0.0.-.-.,.1.1.0.1.1.1.1.",
"e.0.0.1.0.1.,.,.1.0.0.1.1.1.1.1.e.e.=.| $.,.1.1.1.1.1.1.1.e.1.1.1.1.1.0.1.1.1.1.1.0.1.1.1.1.1.1.0.0.9.0.1.1.$.] $.1.1.1.1.1.1.1.",
"0.0.0.0.,.0.0.0.0.0.,.1.1.1.1.1.3.9.&.' | ,.1.1.1.1.1.1.0.1.0.1.1.1.1.1.1.1.1.1.1.1.1.0.3.0.1.1.,.0.0.,.1.=.{ R | 1.3.0.1.1.1.1.",
"0.1.0.,.0.,.,.1.0.,.0.1.1.1.,.-.&.| | +.-.1.3.1.1.1.1.1.1.1.1.1.3.1.1.1.1.0.1.1.1.0.1.3.0.1.1.1.0.,.1.,...| | | -.1.0.1.1.0.1.1.",
"0.0.0.0.,.0.0.0.0.0.1.1.1.,.1.-.] T | 1.e.0.0.1.1.1.1.1.3.3.1.1.0.1.1.1.1.e.0.1.1.0.1.1.1.1.1.0.0.1.0.=.' R | 1.1.0.3.1.1.0.1.1.",
"1.,.,.0.0.,.0.1.,.1.1.1.1.1.,.-.%.| -.3.e.3.1.1.1.1.1.+.w r r 4 4 r 4 4 *.1.1.1.0.3.1.0.1.1.0.3.1.1.1.,.%.| =.1.1.1.0.1.1.1.0.3.",
"0.,.0.0.,.0.,.0.0.,.1.1.1.1.1.0.1.1.1.3.1.1.1.1.1.1.O.p : : 6 6 6 6 : : p O.0.1.1.1.1.0.1.0.1.1.1.e.1.1.1.,.1.e.3.1.1.1.1.0.3.0.",
"0.0.,.,.0.0.0.0.0.0.1.1.1.1.1.3.3.e.e.3.1.1.:.3.1.O.B > q q u n n b q q < V O.0.1.1.1.1.1.1.1.1.1.1.1.e.0.3.e.e.0.e.1.1.1.1.1.1.",
",.0.0.1.0.0.,.0.1.,.1.1.1.1.1.1.1.,.1.,.1.:.1.1.1.p ; w n n n n n n n n w ; V 1.1.1.3.0.3.0.1.1.1.0.0.1.e.e.0.1.1.1.0.1.3.1.1.1.",
"1.,.,.0.1.0.,.0.1.1.1.1.1.1.1.1.1.1.1.1.:.,.1.:.1.i 6 n n n n n n n n n b 5 B 1.1.0.1.1.1.0.1.1.1.3.1.e.0.3.1.1.1.0.1.1.0.1.1.0.",
"1.1.,.0.1.1.1.1.1.,.1.1.1.1.1.1.1.,.1.1.:.1.,.,.r 9 u n n n n n n n n n n b 9 y 1.1.1.0.1.3.0.1.1.1.1.e.1.e.1.1.1.1.3.0.1.1.1.1.",
",.1.1.1.1.1.1.1.1.1.1.1.1.1.1.1.1.1.1.<.1.:.:.1.@ 8 n n n n n n n n n n n n 7 ; 1.1.1.1.1.0.1.0.1.1.1.1.1.1.1.1.0.1.1.1.1.0.1.1.",
"1.1.1.1.1.1.1.1.1.1.1.1.1.1.1.1.1.1.1.1.:.1.:.1.$ 1 u b n n n n n n n b n e 6 ; 1.1.1.1.1.0.1.3.e.1.1.1.1.1.1.0.3.1.1.0.1.1.e.1.",
"1.1.1.1.1.1.1.,.1.1.,.1.<.1.1.1.1.1.1.:.,.1.1.,.; > q u u n n n n n n u e q > ; 1.0.1.0.1.1.1.1.1.1.1.1.1.e.0.3.0.1.1.1.1.1.1.1.",
"1.1.1.0.1.1.1.1.1.1.1.1.,.1.1.1.1.1.1.1.,.1.1.1.4 , 2 3 3 u u u n n u 3 3 2 , t 1.1.1.3.0.3.1.1.1.0.1.3.1.1.0.1.1.1.1.e.0.1.1.1.",
"1.1.1.1.1.1.1.1.1.1.1.1.1.1.1.1.1.1.:.1.1.:.:.1.<.i ; 3 3 3 3 3 3 3 3 3 3 & B 1.1.1.0.1.1.0.1.1.1.1.1.0.1.1.1.1.1.1.1.1.3.0.0.1.",
"1.1.1.1.1.1.1.1.,.1.1.1.1.1.1.,.1.1.,.1.1.1.,.1.1.p % 3 3 3 3 3 3 3 3 3 3 % B 1.1.0.1.1.1.1.0.1.1.1.1.1.3.0.1.1.1.e.1.1.1.1.1.1.",
"1.1.1.1.1.1.1.1.1.1.1.1.1.1.1.1.1.1.1.:.:.1.:.1.1.} p $ & 3 3 3 3 3 3 % $ V O.1.1.0.3.0.1.1.1.0.3.1.0.1.1.0.1.1.1.1.1.1.0.0.3.1.",
"1.1.1.,.1.1.1.1.1.1.1.1.1.1.1.1.1.1.1.1.1.:.:.1.1.1.H . - & : : : : & O   J 1.1.1.1.0.0.1.1.1.1.1.0.1.1.0.1.0.1.1.1.0.1.1.1.1.1.",
"1.1.1.1.1.1.1.1.1.1.1.1.,.1.1.1.:.1.,.:.1.1.1.1.1.1.H = g X * * X X X g o ! 1.1.1.1.1.3.1.1.1.1.0.3.1.1.3.1.1.1.3.0.3.1.0.1.e.1.",
"1.1.1.1.1.1.1.:.1.,.,.:.:.1.1.:.1.:.1.1.,.1.:.1.1.1.H = h j L U K j j h o ! 1.1.1.1.1.1.0.1.3.0.1.0.1.0.1.1.1.1.0.1.1.1.1.1.1.1.",
"1.1.1.1.1.1.1.1.1.1.1.1.:.1.1.:.1.1.:.1.1.:.1.1.:.1.H = h k P U I K j h o ! 1.1.e.1.1.1.1.1.0.1.1.3.1.1.0.1.1.0.1.1.1.0.e.1.1.1.",
"1.1.1.1.,.1.1.1.1.1.1.,.1.:.1.1.,.1.1.:.1.1.,.1.1.^ C v h k l L U L k h v S ) 0.1.1.1.1.0.3.1.1.0.1.e.1.1.1.1.3.1.1.1.0.1.1.1.1.",
"1.1.1.1.1.1.1.1.1.:.:.1.1.:.1.,.1.:.1.1.:.1.1.:.1.p M W y.x x c Y Y x z Q m V 1.1.1.e.1.1.0.1.1.1.1.1.1.1.1.0.1.0.1.1.1.1.1.1.0.",
"1.1.1.1.1.1.,.1.1.1.1.1.1.,.1.:.1.1.,.:.:.1.1.1.1.Z m p.s.i.i.t.t.i.i.i.N a D 1.1.0.1.1.1.1.0.1.1.1.1.1.1.1.1.1.3.0.3.0.0.1.3.0.",
"1.1.1.1.1.1.1.1.1.1.1.:.1.:.1.1.,.:.1.1.1.1.:.:.1.O.p d a.u.u.f f u.u.u.s V O.0.1.0.3.1.0.1.1.1.1.e.1.1.1.e.1.1.1.1.1.1.1.1.1.1.",
"1.1.1.1.1.1.1.1.1.1.:.1.1.,.1.1.1.:.:.1.1.:.1.1.O.( p # 0 0 O C V O 0 0 + V ( +.0.1.1.1.1.1.1.3.1.0.1.1.1.1.1.1.1.1.1.1.1.1.1.1.",
"1.1.1.:.1.1.:.,.,.1.1.:.:.1.1.e.3.1.1.1.-.-.-.,._ ( ! A G H F ~ ~ F F H F ! ( _ 1.,.;.1.1.1.1.1.1.1.1.1.1.1.0.1.0.1.1.1.0.1.0.1.",
",.1.:.1.1.1.1.1.1.1.:.1.1.3.3.e.e.e.1.-.$.| ..-.;.O.( ( ( ( ( ( ( ( _ _ ( ( O.,.-...| =.,.<.1.0.0.1.1.1.1.1.1.1.1.1.1.1.0.1.1.1.",
"1.,.1.1.1.:.,.1.:.1.1.,.1.1.e.e.e.3.,.=.| ] | -.1.>.+.*.*.+.+.+.+.+.*.*.+.*.>.1.-.| | $.-.,.1.3.1.1.1.1.1.1.1.1.1.1.1.1.1.0.3.1.",
":.1.,.1.:.,.1.:.:.1.1.1.1.1.<.1.1.1.=.| | ..-.:.1.0.3.1.1.1.1.1.1.1.1.1.1.1.1.e.,.-.| | | =.1.,.1.1.1.1.1.,.1.,.1.1.1.1.1.1.0.3.",
"1.1.:.1.1.1.1.1.1.1.:.1.1.:.1.1.1.1.| R | ,.1.1.1.1.0.1.e.1.1.1.1.1.1.0.1.0.1.1.1.1.-.] ' | ,.,.-.-.-.1.1.1.1.1.1.1.1.1.1.1.1.0.",
"1.1.1.:.1.:.:.1.,.:.1.1.:.1.1.,.1.1.=.%.-.1.3.1.1.1.1.1.1.1.1.e.0.1.1.3.1.1.1.1.1.1.,.=.| -.1.;.-.,.1.1.1.1.0.,.1.,.1.1.1.1.1.1.",
",.1.1.1.1.1.,.1.1.1.:.:.1.,.<.,.<.e.1.1.0.e.e.e.1.1.e.1.1.1.1.1.1.1.1.0.3.0.0.1.1.1.e.1.1.1.1.1.,.-.1.1.1.1.1.1.1.1.1.0.3.1.0.1.",
"1.1.1.1.1.:.1.1.1.:.1.1.<.1.-.,.1.1.1.1.e.e.e.1.1.1.3.0.1.e.1.1.1.0.3.1.1.1.1.0.1.1.3.<.1.1.e.1.1.1.1.1.1.1.,.1.,.1.1.1.1.1.0.1.",
"1.1.1.1.1.1.,.:.1.1.1.1.1.1.,.:.1.e.1.1.0.3.e.1.1.1.0.1.1.1.1.1.1.1.0.1.1.0.1.3.<.1.,.,.1.1.3.1.1.,.1.1.1.1.0.1.1.1.1.1.1.0.0.0.",
"1.1.1.1.1.:.,.-.=.-.3.1.1.,.<.1.1.1.1.1.1.1.1.1.1.1.1.1.1.1.1.1.1.1.1.1.1.1.1.1.1.,.,.,.,.1.1.1.<.1.9.1.0.w.,.=.,.,.0.1.1.0.0.0.",
"e.e.1.3.1.,.:. .] =.e.e.1.1.1.1.0.1.e.1.0.1.e.1.e.1.1.e.1.e.0.0.1.e.1.e.1.e.0.1.1.1.1.1.,.1.1.1.1.1.9.0.e.0.=.{ $.1.1.1.,.,.0.0.",
"e.e.e.e.1.1.-.| ' &.<.<.<.1.0.0.0.3.0.0.0.0.0.3.1.e.1.3.0.0.0.3.0.0.3.0.0.0.3.1.1.1.1.1.1.1.1.<.1.0.0.9.9.9.+.' #.1.0.0.0.,.0.w.",
"0.e.e.e.1.1.,.-.+.| } *.<.9.1.e.0.0.0.3.3.3.0.0.1.1.e.1.e.1.0.3.3.0.3.0.0.3.0.1.1.1.1.1.1.1.1.1.0.1.<.<.&.} +.=.-.0.0.0.w.0.w.w.",
"0.0.e.e.e.0.1.0.1.| T [ &.1.0.0.0.3.0.3.0.0.0.0.e.e.1.0.1.0.0.0.e.1.0.0.e.1.1.1.3.1.1.1.1.,.1.1.1.<.9.&./ / &.e.0.0.0.e.w.e.e.w.",
"0.0.3.0.3.1.,.0.,.=.| &.<.<.1.e.e.1.0.1.e.1.3.1.1.1.3.0.3.0.3.0.1.0.0.3.1.1.e.1.1.1.1.1.1.1.1.1.<.1.3.;.&.&.;.e.e.0.0.0.0.w.0.w.",
"1.1.1.1.0.0.$.0.0.0.1.1.1.:.1.1.1.e.1.1.1.e.1.e.0.3.3.0.0.3.1.0.e.1.1.e.1.0.1.1.e.1.1.1.1.1.,.1.3.3.3.3.3.e.3.e.0.0.0.0.w.0.w.w.",
"-.,.1.1.,.,.0.0.1.1.3.1.3.1.1.3.1.e.1.e.3.1.0.0.0.0.0.0.0.1.e.0.e.1.0.0.3.0.e.1.1.1.1.1.1.1.1.1.1.3.2.2.3.3.3.1.0.0.,.0.0.0.0.>.",
"..,.1.1.,.0.,.0.,.1.-.:.1.3.3.1.1.0.0.1.0.0.3.3.1.e.0.3.1.e.0.3.1.1.1.3.1.e.1.1.1.1.1.1.1.1.1.1.<.3.2.2.2.2.<.1.1.0.,.0.0.w.9.#.",
"{ 1.,.1.,.,.,.,.1.,.-.2.2.3.1.3.3.0.1.1.0.1.0.0.1.0.0.0.3.0.0.3.1.e.e.1.3.1.e.1.1.0.1.1.1.1.1.1.:.3.3.2.2.2.,.0.0.0.0.0.0.0.#.#.",
"..,.1.1.1.0.,.0.1.1.:.2.2.2.3.1.1.0.1.0.1.0.1.0.e.1.0.e.3.0.0.0.1.e.0.3.0.e.1.1.1.1.1.0.1.1.3.1.1.3.3.3.<.3.1.0.9.,.0.0.,.,.$.o.",
"o.,.,.1.,.0.0.0.1.:.2.2.2.2.3.1.1.0.0.0.0.0.0.e.0.e.0.0.0.0.e.0.3.1.0.0.0.1.1.e.0.1.1.3.1.1.1.1.3.1.1.:.,.1.1.0.9.0.0.,.,.0.$.X.",
"@.9.0.1.1.1.1.1.1.:.2.2.2.2.3.1.1.0.0.1.0.0.0.0.0.e.e.1.0.e.e.1.0.0.3.0.0.0.3.0.3.0.1.0.1.1.1.1.1.3.:.1.1.0.0.9.9.9.0.,.,.,.9.` ",
"` 9.0.1.1.,.0.1.1.:.:.2.2.2.1.1.1.0.0.0.0.1.1.0.0.0.e.0.0.e.0.0.e.1.0.0.3.3.0.0.0.1.0.3.1.1.1.1.1.1.:.:.,.,.9.,.9.9.0.,.0.9.*.) "
};
