/* XPM */
static char *result[] = {
/* columns rows colors chars-per-pixel */
"64 64 142 2 ",
"   c #1D111F",
".  c #0F0E20",
"X  c #0F1122",
"o  c #0F1B29",
"O  c #121C24",
"+  c #111E28",
"@  c #171A31",
"#  c #1F1D32",
"$  c #211626",
"%  c #291A28",
"&  c #311721",
"*  c #361A22",
"=  c #3E1E23",
"-  c #152023",
";  c #12222E",
":  c #1A202B",
">  c #401E23",
",  c #412026",
"<  c #4B2626",
"1  c #4E2826",
"2  c #43262C",
"3  c #49292E",
"4  c #592A27",
"5  c #5D2D29",
"6  c #4D322A",
"7  c #51362B",
"8  c #5F3F2E",
"9  c #4B2E33",
"0  c #532E30",
"q  c #4F3136",
"w  c #4E343A",
"e  c #563635",
"r  c #5A3837",
"t  c #50353B",
"y  c #5B383A",
"u  c #61312D",
"i  c #653733",
"p  c #663835",
"a  c #6B3F3C",
"s  c #674430",
"d  c #6A4631",
"f  c #6C413E",
"g  c #734D33",
"h  c #794E34",
"j  c #775034",
"k  c #78563F",
"l  c #7E5839",
"z  c #122C4A",
"x  c #0A2F53",
"c  c #0A3153",
"v  c #0F365A",
"b  c #134143",
"n  c #134748",
"m  c #144F4C",
"M  c #15524D",
"N  c #1E6D4F",
"B  c #1D6C50",
"V  c #1F7050",
"C  c #247B4F",
"Z  c #0C5D75",
"A  c #116C78",
"S  c #187975",
"D  c #505C5C",
"F  c #6D4340",
"G  c #6B4F44",
"H  c #704643",
"J  c #6D6B57",
"K  c #7F715A",
"L  c #835637",
"P  c #8B5E37",
"I  c #8C5D39",
"U  c #8C613F",
"Y  c #91633C",
"T  c #9C6A3E",
"R  c #855E44",
"E  c #82614D",
"W  c #9E6B40",
"Q  c #A97241",
"!  c #B17642",
"~  c #BA7E47",
"^  c #847D61",
"/  c #2C8B4C",
"(  c #32944B",
")  c #33984B",
"_  c #1C8274",
"`  c #D7883C",
"'  c #DD8B3C",
"]  c #E38E3F",
"[  c #BE8047",
"{  c #9B8766",
"}  c #C38447",
"|  c #C6864A",
" . c #CB8A4C",
".. c #DD8E41",
"X. c #D8934F",
"o. c #D38D53",
"O. c #D99350",
"+. c #DD935A",
"@. c #E49143",
"#. c #E89646",
"$. c #E39448",
"%. c #EB954A",
"&. c #E6994E",
"*. c #ED9A4B",
"=. c #F0974D",
"-. c #F19D4E",
";. c #E79450",
":. c #EE9654",
">. c #E39A54",
",. c #EB9E55",
"<. c #F19752",
"1. c #F19E50",
"2. c #EDA14F",
"3. c #EEA253",
"4. c #EDA35F",
"5. c #F5A354",
"6. c #F9A656",
"7. c #F5AA57",
"8. c #F9AD56",
"9. c #F5A55A",
"0. c #FBA65A",
"q. c #F7A95B",
"w. c #FEAD5D",
"e. c #F9B056",
"r. c #FCB15B",
"t. c #D59661",
"y. c #D19863",
"u. c #E4A469",
"i. c #EBA568",
"p. c #F6AA64",
"a. c #FEAD61",
"s. c #F4AC6B",
"d. c #FEAE69",
"f. c #FFB162",
"g. c #FCB26A",
"h. c #025A94",
"j. c #025D98",
"k. c #0C6C87",
"l. c #0366A4",
"z. c #016AAA",
"x. c #048ECF",
"c. c #0093D7",
/* pixels */
"y.i.p.p.a.w.w.r.w.w.f.d.d.g.a.a.a.a.a.a.a.w.a.a.a.a.a.w.a.w.a.a.a.w.w.w.w.w.w.r.w.f.w.w.w.w.w.w.a.w.r.w.w.w.r.e.w.w.f.f.a.p.i.t.",
"u.s.p.a.w.w.w.8.w.r.a.a.a.a.d.f.a.a.w.a.a.a.0.a.a.a.a.a.a.a.a.0.w.w.w.a.w.a.w.a.w.w.w.w.f.w.w.a.w.w.r.w.w.r.r.w.w.r.r.w.a.p.p.i.",
"s.d.d.w.a.w.r.w.r.f.a.f.a.a.a.a.a.a.a.a.a.a.a.a.a.a.0.a.a.a.a.a.w.w.w.w.w.w.w.a.w.w.w.r.w.w.w.r.8.w.w.8.r.w.q.r.r.f.w.w.w.a.a.p.",
"g.d.a.a.w.a.a.r.f.a.f.a.a.f.a.a.a.0.a.w.0.a.a.a.a.a.a.a.a.0.a.w.w.a.w.w.f.w.w.w.a.w.w.w.w.w.w.w.w.w.w.r.w.r.r.a.q.r.w.w.0.w.w.a.",
"g.a.f.a.w.w.a.w.r.a.w.a.a.a.a.a.a.a.a.a.a.w.a.a.w.a.a.0.a.a.a.w.w.a.w.w.w.w.w.w.w.w.w.w.w.w.w.w.w.8.w.8.w.w.w.r.q.a.a.w.a.0.0.w.",
"f.f.a.w.w.w.0.w.a.w.f.f.a.a.a.a.a.a.a.a.a.a.a.a.a.a.a.w.a.a.a.w.w.r.a.w.w.w.f.w.0.6.0.w.w.f.w.w.w.w.w.w.w.w.w.w.f.w.a.a.w.0.6.w.",
"a.w.w.a.0.5.1.6.w.w.a.a.a.a.a.a.a.0.a.a.0.a.a.a.0.a.a.a.a.0.a.a.w.w.w.w.w.w.w.w.5.*.*.6.w.w.a.w.w.w.w.w.w.w.w.w.r.a.w.a.a.0.0.w.",
"w.w.w.w.6.*.%.-.6.0.w.w.a.a.a.a.a.a.0.a.0.a.0.a.a.a.a.a.a.a.a.a.w.a.w.w.f.w.w.w.5.@.' 5.w.w.r.w.w.w.w.a.w.w.w.w.w.w.w.a.a.a.a.w.",
"w.w.w.w.w.1.1.-.=.5.w.w.0.w.w.0.a.a.w.a.0.a.w.a.a.a.a.a.w.a.a.w.w.a.w.w.w.w.a.r.6.1.*.*.*.6.w.w.a.d.0.d.a.a.w.w.w.w.w.w.a.a.a.a.",
"w.w.w.w.w.w.0.%.] =.6.w.6.w.0.a.0.a.a.w.a.a.w.a.a.w.a.a.a.a.a.w.w.r.w.a.w.w.w.w.a.w.5.@.' *.w.w.0.0.d.0.a.a.0.w.w.w.w.w.a.a.a.a.",
"w.r.w.w.w.a.0.5.=.5.w.w.0.0.a.w.a.a.a.0.w.0.a.a.w.w.a.w.w.a.a.a.w.a.w.w.a.w.w.w.w.a.6.-.*.5.a.w.a.a.0.d.a.a.w.w.w.w.w.w.a.a.a.a.",
"f.w.a.w.w.a.a.0.0.w.w.w.0.w.0.a.0.a.w.w.w.w.w.w.w.w.w.w.w.w.w.w.w.r.a.w.r.a.w.w.a.r.w.0.0.w.f.w.a.a.d.a.d.a.w.w.w.8.w.w.a.a.a.0.",
"a.p.r.f.w.a.w.w.w.a.f.p.a.w.a.0.0.a.w.w.w.w.w.w.a.w.w.w.w.a.r.w.w.w.w.w.f.w.w.f.w.f.w.w.w.a.a.f.a.a.d.a.a.a.a.w.w.w.w.w.0.a.w.w.",
"p.f.f.w.a.0.0.0.w.w.f.f.a.w.p.a.a.w.a.w.w.w.w.a.w.w.w.a.w.w.a.w.a.w.w.w.w.w.w.w.w.w.a.w.w.w.w.a.a.a.a.d.a.a.a.w.w.w.w.w.a.a.w.w.",
"f.p.p.r.0.0.0.0.0.w.f.a.f.q.r.a.w.a.0.6.0.w.w.w.w.w.w.w.w.w.w.w.w.a.w.w.w.w.f.w.w.w.w.w.w.w.r.a.a.a.a.a.a.a.0.6.0.r.w.a.w.w.w.w.",
"f.a.a.w.a.w.0.0.w.w.a.w.w.w.w.w.a.f.7.#.5.0.w.w.w.a.w.w.w.w.f.w.w.r.w.a.w.w.w.w.w.w.a.r.w.w.a.w.a.a.a.a.w.w.1.#.1.w.w.a.w.w.w.w.",
"a.a.a.w.p.0.w.a.a.0.a.w.w.0.0.w.w.r.2.@.*.0.w.w.w.r.a.w.a.w.w.w.w.w.w.w.a.r.w.a.w.w.w.w.w.w.w.w.a.0.a.a.0.9.*.' *.w.w.w.w.w.w.r.",
"a.w.a.a.w.w.a.0.w.a.a.w.w.w.w.7.3.&.*.,.6.w.r.w.w.w.w.w.w.w.a.w.w.w.a.w.w.w.w.w.w.w.f.w.w.w.f.w.0.a.0.0.5.*.*.*.5.w.f.w.a.w.a.w.",
"a.w.w.0.0.a.0.a.a.0.w.w.w.0.w.6.#.' *.w.a.f.a.w.w.w.w.w.w.w.w.w.w.a.w.w.w.a.w.w.w.w.w.w.w.w.w.w.w.w.a.5.@.' *.w.w.r.a.w.w.w.w.w.",
"w.p.0.a.a.0.a.a.a.w.w.w.w.w.0.0.,.*.5.r.f.r.w.w.w.w.w.5.s 8 8 8 8 8 8 s >.w.w.w.w.a.w.w.f.w.a.w.w.w.a.0.*.*.6.w.w.w.w.w.r.a.w.w.",
"a.0.a.a.0.a.a.0.w.w.w.0.w.w.w.w.w.w.w.r.w.w.w.w.w.w.,.L > > 3 9 q 9 , = h O.w.w.r.w.w.w.a.w.w.w.w.a.a.a.w.0.w.f.r.a.w.w.a.w.a.w.",
"a.a.0.0.a.a.a.a.a.a.w.w.w.w.w.a.f.f.r.w.r.w.8.w.w.,.P , p p f H F F i i 2 h >.w.a.w.w.a.w.w.r.a.w.f.r.w.r.w.w.f.a.w.w.w.w.w.w.w.",
"0.a.a.w.0.a.0.a.w.0.w.w.w.w.w.w.w.0.w.w.w.8.w.w.w.Y * p H H H H H H H H a , d w.w.a.w.w.w.w.a.w.w.w.f.f.a.f.w.a.w.a.r.a.w.w.w.f.",
"w.0.0.a.a.w.a.a.w.w.w.w.w.w.a.r.w.w.w.w.8.0.w.8.w.U 2 H H H H H H H H H H 9 d w.w.w.a.r.w.a.r.w.w.w.w.w.f.a.r.w.w.w.a.w.w.w.w.w.",
"w.w.w.w.w.w.w.w.0.w.w.w.w.w.w.w.w.0.w.w.8.0.8.8.h e a F H H H H H H H H H F r 7 w.w.w.r.a.w.w.w.w.w.w.f.w.f.w.w.r.a.w.w.w.w.w.w.",
"0.w.w.w.w.w.w.w.w.w.w.w.w.0.w.a.w.w.w.8.w.8.w.w.7 t H H H H H H H H H H H H y   0.w.a.w.w.w.w.a.w.w.w.w.w.w.w.w.w.w.w.w.w.f.w.w.",
"w.w.w.w.w.w.w.w.w.w.w.w.w.w.w.w.w.w.w.w.8.w.8.w.6 3 a H H H H H H H H H H f 0   0.f.a.w.w.w.w.w.w.a.w.w.w.w.w.f.a.w.w.w.w.w.w.w.",
"w.w.w.w.w.w.w.w.w.w.0.w.w.w.w.w.w.w.w.8.w.0.w.w.6 > i a f H H H H H H f a i <   0.a.r.w.a.w.r.a.a.r.w.w.f.w.w.w.w.w.w.f.w.w.w.f.",
"w.w.w.w.w.w.w.w.w.w.w.w.w.w.w.w.w.w.w.8.w.w.w.w.g < 4 5 5 f f f f H f u 5 4 1 6 w.w.w.w.f.w.w.w.w.w.w.a.a.w.w.w.w.w.a.r.w.w.w.w.",
"w.w.w.w.w.w.w.w.w.w.w.0.w.w.0.w.w.w.w.w.8.0.8.r.w.I * 5 5 5 5 5 5 5 5 5 5 = s w.a.w.w.w.w.w.w.w.w.w.w.w.r.w.a.w.w.a.w.w.w.f.w.w.",
"w.w.w.w.w.w.w.w.0.w.w.w.0.w.w.w.w.w.0.8.w.w.w.w.w.Y & 5 5 5 5 5 5 5 5 5 5 = d w.w.w.a.w.w.w.f.w.w.w.r.a.a.w.w.w.w.w.w.w.w.w.w.a.",
"w.w.a.w.w.w.w.0.w.w.w.w.w.w.w.w.w.w.w.0.w.8.0.w.w.,.P & * 4 5 5 5 5 5 * & h >.w.w.a.r.w.w.w.w.w.w.a.w.w.w.w.w.a.r.a.a.w.w.a.r.w.",
"w.w.w.w.w.w.w.w.w.w.w.w.w.w.w.w.w.8.w.w.w.8.8.w.w.w.| . ; = > > > > > : X Q a.w.f.w.w.w.w.a.a.w.a.w.w.w.w.w.w.f.w.w.a.w.w.a.w.w.",
"w.w.w.0.w.w.w.w.w.w.w.w.0.w.w.w.w.w.0.w.w.w.w.w.w.w.| o n + - - O O O b ; Q a.w.w.w.w.w.r.w.r.w.w.w.r.a.a.w.w.w.w.w.w.w.w.r.w.a.",
"w.w.w.w.w.w.w.8.w.0.0.8.8.w.w.8.w.8.w.8.8.w.8.w.w.w.| + m B / ) / N N M ; Q w.w.w.w.w.a.a.w.w.w.a.w.a.w.a.w.a.w.w.a.r.w.w.w.w.w.",
"w.w.w.w.w.w.w.w.w.w.w.w.8.w.w.8.w.w.w.8.0.w.w.w.w.~ k K M B / ) ( / V M J R W w.w.a.w.r.w.w.a.w.w.w.w.w.r.w.w.w.w.w.a.w.w.f.w.w.",
"w.w.w.w.0.w.w.w.w.w.w.0.w.8.w.w.0.w.w.8.w.w.0.w.w.Y G { M B C / ) ( V M ^ E d a.w.w.a.w.w.w.w.w.w.r.w.w.w.w.w.w.a.w.w.w.w.w.f.w.",
"w.w.w.w.w.w.w.w.w.8.8.w.w.8.w.0.w.8.w.w.8.w.w.8.8.X.R J k.A A S _ _ A Z D R  .w.w.w.w.w.w.a.w.w.w.a.w.w.f.w.w.a.w.a.r.w.w.w.w.w.",
"w.w.w.w.w.w.w.0.w.w.w.w.w.0.w.8.w.w.0.8.8.w.8.w.w.w.~ x c.z.z.j.h.z.z.z.c T a.w.r.a.w.w.r.a.r.w.w.w.w.f.w.w.w.r.w.w.w.a.a.r.w.w.",
"w.w.w.w.w.w.w.w.w.w.w.8.w.8.w.w.8.8.w.w.0.w.w.w.w.,.P x x.z.l.v z l.l.l.x j >.w.a.w.w.w.a.w.w.w.a.w.w.w.w.w.w.a.w.w.w.w.w.w.a.w.",
"w.w.w.w.w.w.w.w.w.w.8.w.w.0.w.w.w.w.w.w.0.8.w.w.,.X.P $ t t # l Y @ w w % g O.>.a.w.w.w.w.w.w.w.w.w.w.w.a.w.w.a.a.r.w.w.a.w.w.w.",
"w.w.w.w.w.w.8.0.0.w.w.8.8.w.w.f.w.w.8.w.0.6.6.8.>.X.} Q ! ! Q }  .Q Q ! Q [ O.O.w.q.6.w.w.w.w.w.w.w.w.w.w.w.w.w.w.a.w.w.w.w.w.a.",
"0.w.8.8.w.w.w.w.w.w.w.8.w.r.r.f.r.f.w.0.1.#.-.0.q.>.X.X.O.X.X.X.X.X.O.O.X.X.>.q.6.*.*.6.0.w.w.w.a.w.w.w.w.w.w.w.w.w.w.w.w.w.w.w.",
"0.w.w.w.w.8.0.w.w.8.w.0.w.w.f.f.f.r.0.5.-.#.*.6.a.q.,.3.4.3.>.3.,.,.4.3.,.,.9.w.6.*.*.-.6.0.w.w.w.w.w.w.w.w.w.0.w.w.w.w.w.a.w.w.",
"8.w.0.w.8.0.w.8.8.w.w.w.w.w.w.r.r.w.5.*.*.-.6.8.r.a.w.w.w.a.r.w.a.w.r.a.w.w.w.w.0.6.*.*.*.5.w.8.w.w.w.w.w.w.0.w.w.w.w.w.r.a.w.w.",
"w.w.8.w.w.w.w.w.w.w.8.w.w.w.0.w.w.0.*...*.0.w.w.w.w.w.a.w.w.a.w.w.w.w.a.a.w.w.w.w.w.6.#.@.*.0.0.6.6.0.w.w.w.w.w.w.w.w.w.a.w.w.w.",
"w.w.w.8.w.8.8.w.0.8.w.w.8.0.w.0.w.w.7.*.6.w.r.w.a.w.w.a.w.w.a.w.w.w.w.w.w.w.r.a.w.w.0.5.*.7.0.0.0.0.w.w.w.w.w.w.w.w.w.w.w.w.w.a.",
"0.w.w.w.w.w.w.0.w.w.8.8.w.w.0.0.w.a.w.w.f.f.f.a.w.w.w.r.a.w.w.w.w.a.w.w.w.w.a.w.w.a.f.w.w.w.f.w.w.0.0.w.w.w.0.w.0.w.w.a.w.w.a.r.",
"w.w.w.w.w.w.0.w.8.w.w.w.w.w.0.8.w.w.w.w.f.f.f.w.w.w.a.r.a.w.r.w.w.w.a.r.a.r.w.w.w.w.0.w.w.w.f.w.w.w.w.w.w.w.w.a.w.w.w.w.w.a.w.a.",
"w.w.w.w.w.8.8.w.0.w.w.w.w.7.0.0.w.f.w.w.a.r.f.w.w.w.w.a.w.w.a.w.w.a.w.w.w.a.w.w.w.8.0.0.0.w.f.w.8.0.w.w.w.a.w.0.w.0.w.w.w.a.w.a.",
"w.w.w.w.w.8.0.6.5.0.r.w.f.0.w.8.w.w.a.w.w.w.w.w.a.w.w.w.w.w.w.a.w.w.w.w.w.w.a.w.0.w.7.0.0.w.r.w.w.w.q.a.a.a.0.6.0.w.w.a.a.a.a.a.",
"f.f.r.w.w.w.6.=.#.6.f.f.w.q.w.w.w.f.w.w.a.w.f.w.r.a.r.a.w.f.w.a.w.f.a.a.r.a.w.w.w.w.w.w.w.w.w.w.w.w.a.p.g.a.1.#.1.w.w.0.w.0.a.a.",
"f.f.f.f.w.w.6.*.@.3.r.p.q.w.a.f.w.w.f.a.w.f.a.r.a.a.f.w.w.f.w.r.f.f.w.w.w.f.w.w.w.w.w.w.w.w.w.w.q.a.p.a.p.p.,.@.1.w.a.a.0.0.p.f.",
"f.a.f.f.w.w.0.6.*.*.&.*.9.p.w.a.f.a.w.r.r.w.a.w.f.w.w.w.r.w.f.w.w.w.w.f.a.a.r.a.w.w.w.w.w.w.w.0.w.p.p.q.3.&.,.5.6.a.a.a.d.a.a.g.",
"a.a.f.f.f.w.w.w.w.&.` $.9.q.a.f.a.a.r.a.a.a.w.f.w.a.w.f.a.f.w.a.a.a.r.a.w.r.r.w.w.w.w.w.0.w.w.w.w.q.q.3.....3.f.a.a.d.a.a.g.g.d.",
"a.a.r.a.w.w.w.a.a.5.&.3.q.w.a.w.r.a.a.a.r.a.a.a.r.a.f.w.a.w.r.a.r.r.a.a.f.a.a.w.w.w.w.w.w.w.w.w.w.w.r.7.3.2.7.f.a.a.a.a.a.a.d.d.",
"w.w.w.w.a.0.0.a.a.a.r.w.w.w.w.w.a.a.w.r.a.a.w.r.w.w.w.f.a.r.r.a.a.a.r.a.a.a.a.w.w.w.w.w.w.w.w.w.r.e.e.r.r.f.r.f.a.a.0.a.a.d.d.d.",
"6.w.w.w.0.a.0.a.w.w.w.w.8.r.w.r.r.w.f.w.r.a.f.w.f.f.w.a.a.a.a.a.a.r.w.f.a.r.r.w.w.w.f.w.w.w.w.0.r.e.r.r.r.r.r.w.a.a.a.a.a.a.d.9.",
"-.0.w.0.a.1.1.a.0.0.0.8.8.r.r.w.w.f.w.a.a.f.w.w.w.w.r.a.w.f.a.r.a.w.r.w.r.a.a.a.w.w.w.w.w.w.w.w.w.r.e.e.e.e.w.w.w.a.a.a.a.a.0.:.",
"=.0.w.0.a.a.a.0.0.w.8.8.r.r.w.r.w.a.w.w.a.w.w.f.a.f.w.a.f.w.w.f.w.f.a.a.a.a.r.w.f.w.w.w.w.w.w.w.w.w.e.e.e.e.0.w.a.a.0.a.a.a.<.:.",
"-.0.w.w.w.0.a.0.w.w.8.8.e.e.w.r.w.a.a.a.a.a.a.f.r.a.f.a.r.a.a.w.a.a.a.r.a.a.a.r.a.w.w.w.w.w.w.w.w.r.e.r.0.w.w.a.a.a.a.0.a.a.:.:.",
":.6.0.w.w.a.a.a.w.8.e.e.e.e.r.w.w.a.w.a.w.a.w.a.a.a.f.a.a.a.f.a.r.r.a.a.a.r.a.a.r.a.w.a.r.w.w.w.r.w.e.w.w.0.p.a.0.a.a.a.0.0.9.;.",
":.p.a.w.w.w.w.w.w.8.e.e.e.e.w.w.w.a.a.a.a.a.w.a.a.a.a.f.a.f.a.f.a.a.a.a.w.a.r.a.a.w.w.w.a.w.w.w.w.w.w.8.a.0.d.p.d.d.a.0.0.a.9.+.",
"+.p.d.w.w.0.a.w.w.8.e.8.e.r.e.w.w.a.w.a.w.a.a.w.f.f.a.a.a.f.a.w.f.w.r.w.f.a.r.a.r.a.w.w.w.a.r.w.8.w.8.w.a.0.0.0.d.0.a.0.0.p.,.o."
};
