/* XPM */
static char *result[] = {
/* columns rows colors chars-per-pixel */
"64 64 215 2 ",
"   c #141B1B",
".  c #1A1E1C",
"X  c #1B241D",
"o  c #1D281D",
"O  c #22271E",
"+  c #2A371F",
"@  c #192320",
"#  c #232421",
"$  c #272925",
"%  c #2A2E2A",
"&  c #372E28",
"*  c #293725",
"=  c #36342B",
"-  c #3B3A2F",
";  c #2B3031",
":  c #3D3C32",
">  c #343A38",
",  c #483926",
"<  c #48342D",
"1  c #47382E",
"2  c #503D27",
"3  c #533E32",
"4  c #623D33",
"5  c #344923",
"6  c #3B5224",
"7  c #3F5826",
"8  c #365937",
"9  c #3C653E",
"0  c #50492F",
"q  c #475726",
"w  c #555F28",
"e  c #5B4335",
"r  c #554538",
"t  c #644939",
"y  c #734B3C",
"u  c #685934",
"i  c #765634",
"p  c #765735",
"a  c #7A5935",
"s  c #4B6A29",
"d  c #56672A",
"f  c #57782C",
"g  c #5D633C",
"h  c #616A2E",
"j  c #71742D",
"k  c #464A48",
"l  c #4E484A",
"z  c #52494A",
"x  c #4C5849",
"c  c #54584B",
"v  c #674D49",
"b  c #695440",
"n  c #645C49",
"m  c #785445",
"M  c #457546",
"N  c #4A7F4B",
"B  c #556753",
"V  c #696E59",
"C  c #6E7170",
"Z  c #8E5736",
"A  c #8B6338",
"S  c #976C3D",
"D  c #835347",
"F  c #8B5547",
"G  c #835A44",
"H  c #965746",
"J  c #975846",
"K  c #985A49",
"L  c #B45F41",
"P  c #87694D",
"I  c #8B6A4C",
"U  c #98654C",
"Y  c #8D7256",
"T  c #A56749",
"R  c #A27341",
"E  c #AC7A42",
"W  c #B97B46",
"Q  c #A76D51",
"!  c #A26A5B",
"~  c #A7775A",
"^  c #B47556",
"/  c #BD7B5A",
"(  c #8F7A65",
")  c #A46D60",
"_  c #AA776B",
"`  c #B37863",
"'  c #C97B4B",
"]  c #5D812E",
"[  c #6F8633",
"{  c #67973B",
"}  c #779933",
"|  c #74A334",
" . c #7AA534",
".. c #7FA835",
"X. c #4D814A",
"o. c #588B43",
"O. c #85912F",
"+. c #879532",
"@. c #84A835",
"#. c #8CAE37",
"$. c #96A836",
"%. c #95B137",
"&. c #96B238",
"*. c #9CB538",
"=. c #A0AF37",
"-. c #A3B438",
";. c #A5B939",
":. c #ADBC3A",
">. c #B6805E",
",. c #BF805D",
"<. c #AAAF47",
"1. c #ACB34B",
"2. c #9F8A63",
"3. c #8D8E76",
"4. c #A18C64",
"5. c #BA8863",
"6. c #BA996A",
"7. c #B19B74",
"8. c #BFA575",
"9. c #CB8B4C",
"0. c #D08C4F",
"q. c #D4904E",
"w. c #C68C51",
"e. c #C0825F",
"r. c #DB9552",
"t. c #D5985E",
"y. c #EC884A",
"u. c #EE914F",
"i. c #E59953",
"p. c #EA9E56",
"a. c #F39551",
"s. c #F69C54",
"d. c #EDA157",
"f. c #EEA258",
"g. c #F9A157",
"h. c #F1A459",
"j. c #FBA559",
"k. c #FFAD5D",
"l. c #C28661",
"z. c #C38B64",
"x. c #C5896A",
"c. c #C59167",
"v. c #CB9967",
"b. c #C69469",
"n. c #C99B6E",
"m. c #D59A6B",
"M. c #CB9D74",
"N. c #D3A064",
"B. c #CCA373",
"V. c #C9A574",
"C. c #CEAC78",
"Z. c #D3A77B",
"A. c #D2B37D",
"S. c #EAA865",
"D. c #7E7E81",
"F. c #848387",
"G. c #858488",
"H. c #95988E",
"J. c #B59486",
"K. c #9BA095",
"L. c #B2A386",
"P. c #A4B696",
"I. c #A4A1A6",
"U. c #A7A4A9",
"Y. c #ADACAC",
"T. c #B6B2B7",
"R. c #B8B4B9",
"E. c #C09A94",
"W. c #D1A88D",
"Q. c #D5B582",
"!. c #D6B986",
"~. c #D9B68A",
"^. c #D6BA8C",
"/. c #DABD8C",
"(. c #C3B390",
"). c #D7BB95",
"_. c #E0BD97",
"`. c #D6BAAE",
"'. c #AFC29F",
"]. c #DCC08F",
"[. c #DDC292",
"{. c #DAC29B",
"}. c #E0C597",
"|. c #E1C799",
" X c #E3C99D",
".X c #DAC3B1",
"XX c #E5CBA2",
"oX c #E5CDAA",
"OX c #E8CFAA",
"+X c #E8D0A6",
"@X c #ECD5AD",
"#X c #E1CAB5",
"$X c #ECD6B3",
"%X c #EBD7B7",
"&X c #EDDABD",
"*X c #DECACC",
"=X c #D4CED4",
"-X c #DBD5DB",
";X c #DFD8DE",
":X c #E3CCCB",
">X c #E5D4C5",
",X c #EEDCC3",
"<X c #EEDECC",
"1X c #E8D9D7",
"2X c #EFE0D1",
"3X c #EEE2DD",
"4X c #F0E2D6",
"5X c #F0E3DB",
"6X c #E8DFE2",
"7X c #EEE3E4",
"8X c #EDE5EC",
"9X c #F1E6E5",
"0X c #F1E7E9",
"qX c #F1E8EC",
"wX c #F2EAF1",
/* pixels */
"' u.j.j.k.k.k.k.k.k.k.k.k.k.k.k.k.k.k.k.k.k.k.k.k.k.k.k.k.k.d.0.q.q.q.q.q.q.q.q.q.q.q.q.q.q.d.k.k.k.k.k.k.k.k.k.k.k.k.k.k.j.a.' ",
"u.s.k.k.k.k.k.k.k.k.k.k.k.k.k.k.k.k.k.k.k.k.k.k.k.k.k.k.j.k.S o o o o o o o o o o O o o o o a j.k.k.k.k.k.k.k.k.k.k.k.k.k.k.j.a.",
"j.j.k.k.k.k.k.k.k.k.k.k.k.k.k.N.k.k.k.k.k.k.k.k.k.d.a i i i h ] ] ] ] ] ] ] ] ] ] ] ] ] ] ] f i i i i d.k.k.k.k.k.k.k.k.k.k.k.g.",
"k.k.k.k.k.k.k.k.k.k.k.k.k.k.k.t.k.k.k.k.k.k.k.q.0.E d d w w } #.#.#.#.#.#.#.#.#.#.#.#.%.#.#.O.d d d d S q.q.q.i.k.k.k.k.k.k.k.k.",
"k.k.k.k.k.k.k.k.k.k.k.k.k.k.k.N.k.k.k.k.k.k.r.O O q :.:.:.:.:.:.:.:.:.:.:.:.:.:.:.:.:.:.:.:.:.:.:.:.:.d O o O A j.k.k.k.k.k.k.k.",
"k.k.k.k.k.k.j.k.k.k.k.k.k.k.k.N.k.k.k.d.a a a +.O.$.:.:.:.:.:.:.:.:.:.:.:.:.:.:.:.:.:.:.:.:.:.:.:.:.:.$.O.O.+.j p p W j.k.k.k.k.",
"k.k.k.k.k.j.a.s.k.k.k.k.k.k.k.t.k.k.d.E d d j :.:.:.:.:.:.:.:.:.:.:.:.:.:.:.:.:.:.:.:.:.:.:.:.:.:.:.:.:.:.:.:.$.d w j 9.j.k.k.k.",
"k.k.k.k.k.a.y.y.j.k.k.k.k.k.k.t.k.k.A q :.;.:.:.:.:.:.:.:.:.:.:.:.:.:.:.:.:.:.:.:.:.:.:.:.:.:.:.:.:.:.:.:.:.:.:.:.:.+.+ 9.k.k.k.",
"k.k.k.k.k.g.a.a.s.g.j.k.k.k.k.t.h.a f } ;.:.:.:.:.:.:.:.:.:.:.:.:.:.:.:.:.:.:.:.:.:.:.:.:.:.:.:.:.:.:.:.:.:.:.:.:.:.%.] u E k.k.",
"k.k.k.k.k.k.j.s.y.y.j.k.k.k.k.t.r.  f @.%.;.:.:.:.:.:.:.:.:.:.:.:.:.:.:.:.:.:.:.:.:.:.:.:.:.:.:.:.:.:.:.:.:.*.%.&.;.*.| 7 a k.k.",
"k.k.k.k.k.k.k.j.a.a.j.k.k.k.k.t.i.  f  . .*.:.:.:.:.:.:.:.:.:.:.:.:.:.:.:.:.:.:.:.:.:.:.:.:.:.:.:.:.:.:.:.:.#. . .&.*. .6 a k.k.",
"k.k.k.k.k.k.k.k.j.j.j.k.k.k.k.t.i.  [ *.*.;.:.:.:.:.:.:.:.:.:.:.:.:.:.:.:.:.:.:.:.:.:.:.:.:.:.:.:.:.:.:.:.:.;.*.*.#... .6 i k.k.",
"k.k.k.k.k.k.k.k.k.k.k.k.k.k.k.N.E 6 +.:.:.:.:.:.:.:.:.:.:.:.:.:.:.:.:.:.:.:.:.:.:.:.:.:.:.:.:.:.:.:.:.:.:.:.:.:.:.%.#.#.f u 9.j.",
"k.k.k.k.k.k.k.k.k.k.k.k.k.k.k.N.5 | *.:.:.:.:.:.:.:.:.:.:.:.:.:.:.:.:.:.:.:.:.:.:.:.:.:.:.:.:.:.:.:.:.:.:.:.:.:.:.:.:.:.#.] o q.",
"k.k.k.k.k.k.k.k.k.k.k.k.k.k.k.t.5 | *.:.:.:.:.:.:.:.:.:.:.:.:.:.:.:.:.:.:.:.:.:.:.:.:.:.:.:.:.:.:.:.:.:.:.:.:.:.:.:.:.:.#.] o q.",
"k.k.k.k.k.k.k.k.k.k.k.k.k.k.k.t.* d } ;.:.:.:.:.:.:.:.:.:.:.:.:.:.:.:.:.:.:.:.:.:.:.:.:.:.:.:.:.:.:.:.:.:.:.:.:.:.:.;.%.[ 7 o q.",
"k.k.k.k.k.k.k.k.k.k.k.k.k.k.k.N.X X f #.:.:.:.:.:.:.:.:.:.:.:.:.:.:.:.:.:.:.:.:.:.:.:.:.:.:.:.:.:.:.:.:.:.:.:.:.:.:.*...q X   9.",
"k.k.k.k.S.S.S.f.S.S.S.S.d.k.j.v.+ f @.*.;.:.=.<.1.1.1.1.1.1.1.1.:.:.:.:.:.:.:.:.:.:.:.:.:.:.:.:.:.:.:.:.:.:.:.:.:.:.;.;.} s X q.",
"k.k.E I U.U.U.U.U.U.U.U.U.U.U.U.U.U.U.U.U.U.U.U.U.U.U.U.U.U.U.} O.:.:.:.:.:.:.:.:.:.:.:.:.:.:.:.:.:.:.:.:.:.:.:.:.:.:.:.#.] o q.",
"k.w.=XqXwXqXwXwXqXqXqXqXqXqXqXqXqXqXqXqXqXqX0X0XqXqXqXqXqXqXqXwXqXj :.:.:.:.:.:.:.:.:.:.:.:.:.:.:.:.:.:.:.:.:.:.:.:.:.:.@.] o 9.",
"k.C wX7X&XA.A.A.A.A.A.A.A.A.A.A.A.A.A.A.A.A.A.A.A.A.A.A.A.A.>X7XwXK.-.:.:.:.:.:.:.:.:.:.:.:.:.:.:.:.:.:.:.:.:.:.:.:.:.:.#.] o 0 ",
"m -XwX).A.5.l.5.l.5.l.l.l.l.l.l.z.e.z.e.l.l.l.l.e.,.z.e.l.e.A.^.wX;Xg :.:.:.:.:.:.:.:.:.:.:.:.:.:.:.:.:.:.*.;.:.:.:.;.&.@.] o   ",
"; wX1XM./ / ' ` / ,.,./ / ' / / ' / ` e./ / ' ` ,.,./ ,.,./ / M.1XwXk :.:.:.:.:.:.:.:.:.:.:.:.:.:.:.:.:.*. .%.:.:.:.*. .| f + . ",
"; wX) / e.b.b.n.b.b.b.x.x.5.l.c.b.n.b.b.b.c.v.l.l.z.,.b.b.b.b.z.K wXk :.:.:.:.:.:.:.:.:.:.:.:.:.:.:.:.:.:.*.#.#.;.&.@. .s u i.Z ",
"; wX) ,.l.b.b.b.b.v.v.c.c.c./ n.b.n.x.b.b.b.b.e.c.c.c.b.b.b.b.b.K wXk :.:.:.:.*.-.:.:.:.:.:.:.:.:.:.:.:.:.:.#...&.@.| | s h q.a ",
"; wX! / / e.e.' 5.` e.` l./ l./ 5.' l.` ,.e.,.,.,.,.,.e.,.,.,.T wXwXk *.=.=.*.+.} *.=.-.:.:.:.:.;.:.:.:.:.;.#.| |  .| | | ] X O ",
"; wX) / z.b.z.,.e.b.v.b.c.b.b.b.b.b.c.' b.b.b.b.b.b.b.b.v.b.Q E.wXwXk I.I.I.I.I.I.I.I.H.j :.*.#.#.#.:.:.*.#.| | | | | |  .f X E ",
"; wX! / 5.b.z.c.b.b.b.K K K K H K K K U K K K K K K K K K K wXwXwX:X: wX8XwXwXwX8X0X9XqXqX> #.| | ..&.&.#.| | | { { { f s h S s.",
"; wX) / l.b.z.,.b.l.J.wXwXwXwXwXwXwXwXwXwXwXwXwXqXwXwXwXwXwXwX1X%XA.- j q 8.2.6 s s f U.wXwXs | | | | | | | { { X.{ f X O A k.k.",
"; wX) / l.b.z.z.b.J.wXwXwX,X&X,X,X>X&X&XXX{.#XwX&X&X&X&X&X&X&X[.Q.A.: q O ).7.+ 6 6 7 } K.wXs | | | | | | | { X.X.8 * X E g.k.k.",
"; wX) / / / ,./ / E.wXx.,X@X@X@X@X@X$X@X@XQ.8X&X@X@X@X@X@X@X@X].A.C.- wX`.oX{.#XwXwXwX; G.wXs  .| | | { { { X.N N 8 *   q.k.k.k.",
"; wX) / z.b.b.b.z.E.wXP @X@X@X@X@X@X@X@X@XQ.@X@X@X@X@X@X@X@X@X].A.V.< 0X:XOXoX1XwXwXwX-XG.wXs | | | | o.X.X.X.N N X.9 X q.k.k.k.",
"; wX) / z.b.b.b.z.E.wX: |.@X@X@X@X@X@X@X[.A.].@X@X@X@X+X@X@XXXB.b.Q.1 ).).!.!.^.^.^.3X=XF.wX7 | | | o.X.N N N N N N 9 @ q.k.k.k.",
"; wX) / / ,.l.b.c.E.wX= C./.A.A.{.^.A.V.4.C.4.6.Q.!.A.Q.{./.Q.C.A.A.5 Z.B.B.B.B.B.A.A..XF.wX8 o.{ o.X.X.N N X.M 8 8 w U d.k.k.k.",
"; wX) / ,.e.l.e.,.J.wX- A.@X}.oX8X%X!.:   o.X & A.+X!.<X5X@X+X^.A.A.I ` z.z.z.z.z.c.C.6.F.wX8 N N X.X.N N N N 9 @   a k.k.k.k.k.",
"; wX! / z.b.z.z.b.E.qX- A.A. X X@X@X).K.'..X'.H.A.@X~.@X@X@X@X/.A.V./ ' b.b.b.c.b.b.,.8.F.wX8 N B x x x x x x k k # a k.k.k.k.k.",
"; wX) / 5.b.z.z.c.E.wX: A.A.[.[.@X@X!.r % P.$ r Q.+X!. X@X@X+XQ.C.B.x.` z.z.z.z.z.z.z.Q F.wX* n c z z l l l l z v & a k.k.k.k.k.",
"% 2X*XQ z.c.z.x.! 1X<X= n.n.n.C.!.^.A.n.Q 5.T b.A.!.A.A./.^.Q.B.C.Q.l.' z.c.z.z.z.z.z.Q F.wX< H K D z z l l l v K < a j.k.k.k.k.",
"% <XwX*X! ! ! ! wX0X%X: A.A.A. X@X@X@X+X!.A.!.1X9X@X@X@X@X@XXXQ.A.n.` b.b.b.b.b.b.b.b.Q F.wX< H K D z v m z v D H Z Z A f.k.k.k.",
"% @X<X5XwXwXwXwX<X,X@X: A.A.A./.@X@X@X@X@XA.2X2X@X@X@X@X@X@X@X/.A.z.' l.z.l.b.n.b.b.b.Q F.wX4 H J D z m D v F H K L Z # q.k.k.k.",
"% @X@X5X&X%X%X$X7X@X@X- A.A.C.A.@X@X+X@X@XQ.@X@X@X@X@X@X@X@X$XZ.' l.c.c.v.c.b.b.b.n.b.! G.wX4 H H D z m H J H K J J y # r.k.k.k.",
"% @X@XqX5XwXwXwXqX@X@X& / / / / / / / / / / / / / / / / / / ' ` 5.` ' / e.` ' 5./ / ' Q G.wX4 H H H D F H H H K H J U i.j.k.k.k.",
"% @X@X<X5X,XwXwXqX@X@X& / / ^ / / / e.l.z.z.l.l.z.,.z.5.l.z.z.c.b.b.` M.b.b.b.c.b.c.n.! G.wX< H H H H H H J R W ' W 0.k.k.k.k.k.",
"% @X!.:Xe 0X,XwX@X@X@X& / / / / / / / / l.b.b.b.c./ / b.c.c.c.b.b.n./ b.b.b.b.5.b./ / Q G.wX& H J J J J J J i.k.k.k.k.k.k.k.k.k.",
"% }.5X^ e   5X,XqX@X@X$ G G m m m P P P P P P P P G P P P P P P P P G P P P P P P P P D.8X7Xg p.p.p.p.p.i.d.h.k.k.k.k.k.k.k.k.k.",
"% |.3X/ e   5X5XqX@X@X= 2.4.4.7.L.T.T.R.T.T.T.T.T.R.R.T.T.T.T.T.T.R.T.T.T.T.T.R.T.T.R.wX5XV u k.k.k.k.k.d.j.k.k.k.k.r.k.k.k.k.k.",
"% }.7X/ e . 4X5X0X@X@X8.8.8.A.).{.-X-X;X7X;X-X-X-X1X8X-X-X-X-X6X9X-X-X-X-X7X6X;X-X-X-X{.( Y.R k.k.k., , m 0 , , , , I , , d.k.k.",
"% }.3X/ P . >X1X7X@X@Xt t . Q.r t t b = A.# b b t n A.# b t r ( C.= b b = V.2.1 t b b 3 R.`.R k.A r c.c.l.,.b.b.v.l.c.z.6.t y k.",
"% }.3Xl.A.6.>X1XqX@X@X/ / . +Xc ' 5.b.: OX$ b.b.z.V OX& b.' Y 4.XXt b.b.b ).L.P ' ` T 1XwXqXR e ^ z.b.@ P # # # # # >.X b.b./ # ",
"% @X/.>X[.1X#XwXqX@X@X>.~ / @Xn.) _ _ x.$X` _ _ _ Z.OX/ _ _ _ _.+X` _ _ ` oX_.` _ E.wXwXwXe.R 2 / y G.wXL.+X{.@X@X@X3.0XG.b ' . ",
"% @X@X%XoX{.<X,X,X@X@X].$X~.@X_.$XwXwX.X@X#XqXwX8X#X@X#XwXwX6XOX@X:XwXwX:X$XOX1XwXwXwXwX>X~.R , ' # <X@X+XA.l.A.A.A.OX@X6X; ` . ",
"% @X8XwXqXqX5X@X@X@X@X!.@X@X@X@X$XwXwXwXwXwXwXwXwXwXwXwXwXwXwXwXwXwXwXwXwXwXqXwXwXwXwX XW.OXR 2 ` # <XM.A.A.l.A.A.A.A.M.%X> ' . ",
"% @X0XwXwXwXwX,X0X@X@X X|.XX|.|. X X X X X X X X$X,X,X,X,X,X,X,X,X,X,X,X,X,X$X,X2X<X,XwX2X(.R 2 / $ 1X/ V.l.l.l.z.z.B.e.%X> /   ",
"% @X9XwXwXwXwX,XqX$X/.A.n.l.l.x.z.l.z.l.z.l.v.A.~.4XwXwXwXwXwXwXwXwXwXwXwXwX,XwXwXwXwXwX<X(.S P ' ~ Y / l.A.A.A.A.A.e.e.4.) / ~ ",
"% @X9XwXwXwXwX,XqX}.A.C./ ^ .             Q / B.Q./.9XwXwXwXwXwXwXwXwXwXwX0X,XqXwXwXwX9X@X(.A ( 5.W.Y Q.c.v.c.5.c.v.e.A.~ E.5.M.",
"% [.}.4XwXwX9X%X2X}.A.c.H .                 G z.A._.,X4X4X2X2X4X2X2X4X4X2X$X@X,X2X2X2X<X@X(.A T.wXwXx.Q.M.A.A.c.A.A.C.B.B.1XwX8X",
"* @X+X5X%X&X$X@X+XB.e.B.e                   1 v.e.n.2X9X9X$X@X4X9X2XB 0 V > ,XqX9X9X9XwX<X@XA T.wXwX).n.A.C.c.,.c.B.A.B.W.0XwX8X",
"% @X0XwX2X@X2XwXqX}.A.B.e .                 1 B.A.[.9XwXwXwX&XwXqXI.> k B > V wXwXwXwXwX2X@XA L.wXwX`.A.e./ / / / / / Z.W.0XqXoX",
"% @X0XwXqX$XwXwXqX}.A.Z.e                   < n.A.[.9XwXwXwX&XwXwXY.c V o.B C wXwXwXwXwX2X@XA L.<XwX2X1XM./ ,./ / / l.1X4X0X5XoX",
"$ }.0XwXqX$XwXwXqX}.A.B.e                   < n.A.[.9XwXwXwX,XwXwX>XC.; C 7.).wXwXwXwX9X@X@XR n.@X XwXwXwX5X0XwXqX2XwXwXwXoX@X[.",
"Z |.].,X,X@X&X5X2X~.M./ e                   1 e.m.Q.<X3X5X@X@X<X5X<X_./.XX~.&X5X5X5X5X<X2X(.0.V.}.!.$XqXwX&XwXwXwX<XwXwX$X!.|.XX",
"y.+X4XqX5X5X<X@X@X~.M.n.e                 . 1 B.B.!.<X5X5X5X5X5X5X5X5X5X9X%X@X<X5X5X5XwX<X(.k.k.5.+X@X@X X<X2X<X2X2X{.@X@X@X6.y.",
"y.r.7XwXwXwXqX,X0X[.A.C.4 O / ^ / / / / / $ 1 M.A.}.9XwXwXwXwXwXwXwXwXwXwXwX,XwXwXwXwX9XoXv.k.k.k.Q.+X@X].+X+X@X@X@XQ.@X+X|.j.y.",
"L r.S.Z.wXwXwX,XqX|.A.c.G 0.0.0.0.0.0.0.0.0.m z.A./.9XwXwXwXwXwXwXwXwXwXwXwX,XwXwXwXwXN.h.v.k.k.k.k.r.w.6. X X X X|.V.w.0.k.p.' "
};
